G04*
G04 #@! TF.GenerationSoftware,Altium Limited,Altium Designer,19.1.8 (144)*
G04*
G04 Layer_Physical_Order=3*
G04 Layer_Color=16440176*
%FSLAX25Y25*%
%MOIN*%
G70*
G01*
G75*
%ADD26R,0.05906X0.05906*%
%ADD27C,0.05906*%
%ADD30C,0.04724*%
%ADD32R,0.05906X0.05906*%
%ADD33P,0.08352X4X90.0*%
%ADD34R,0.05150X0.05150*%
%ADD35C,0.05150*%
%ADD36O,0.06000X0.11811*%
%ADD38C,0.01968*%
%ADD40C,0.01968*%
%ADD41C,0.01181*%
G36*
X205880Y302274D02*
Y235119D01*
X184679Y213918D01*
X184458Y213587D01*
X184380Y213197D01*
Y130197D01*
X184458Y129807D01*
X184679Y129476D01*
X205880Y108274D01*
Y11619D01*
X195478Y1216D01*
X170322D01*
X144621Y26918D01*
X144290Y27139D01*
X143900Y27216D01*
X89322D01*
X3920Y112619D01*
Y311275D01*
X62322Y369677D01*
X138478D01*
X205880Y302274D01*
D02*
G37*
%LPC*%
G36*
X102000Y361606D02*
X101385Y361483D01*
X100865Y361135D01*
X100517Y360614D01*
X100394Y360000D01*
X100517Y359385D01*
X100865Y358865D01*
X101385Y358517D01*
X102000Y358394D01*
X102614Y358517D01*
X103135Y358865D01*
X103483Y359385D01*
X103606Y360000D01*
X103483Y360614D01*
X103135Y361135D01*
X102614Y361483D01*
X102000Y361606D01*
D02*
G37*
G36*
X136397Y359984D02*
X135472Y359862D01*
X134610Y359505D01*
X133870Y358937D01*
X133302Y358197D01*
X132945Y357335D01*
X132823Y356410D01*
X132945Y355485D01*
X133302Y354623D01*
X133870Y353883D01*
X134610Y353315D01*
X135472Y352958D01*
X136397Y352836D01*
X137322Y352958D01*
X138184Y353315D01*
X138924Y353883D01*
X139492Y354623D01*
X139849Y355485D01*
X139971Y356410D01*
X139849Y357335D01*
X139492Y358197D01*
X138924Y358937D01*
X138184Y359505D01*
X137322Y359862D01*
X136397Y359984D01*
D02*
G37*
G36*
X63663D02*
X62738Y359862D01*
X61876Y359505D01*
X61136Y358937D01*
X60568Y358197D01*
X60211Y357335D01*
X60089Y356410D01*
X60211Y355485D01*
X60568Y354623D01*
X61136Y353883D01*
X61876Y353315D01*
X62738Y352958D01*
X63663Y352836D01*
X64588Y352958D01*
X65450Y353315D01*
X66190Y353883D01*
X66758Y354623D01*
X67115Y355485D01*
X67237Y356410D01*
X67115Y357335D01*
X66758Y358197D01*
X66190Y358937D01*
X65450Y359505D01*
X64588Y359862D01*
X63663Y359984D01*
D02*
G37*
G36*
X56592Y353326D02*
X55560Y353190D01*
X54598Y352792D01*
X54173Y352465D01*
X56592Y350046D01*
X59011Y352465D01*
X58585Y352792D01*
X57624Y353190D01*
X56592Y353326D01*
D02*
G37*
G36*
X143468D02*
X142436Y353190D01*
X141474Y352792D01*
X141049Y352465D01*
X143468Y350046D01*
X145887Y352465D01*
X145461Y352792D01*
X144500Y353190D01*
X143468Y353326D01*
D02*
G37*
G36*
X78500Y350606D02*
X77886Y350483D01*
X77365Y350135D01*
X77017Y349615D01*
X76894Y349000D01*
X77017Y348386D01*
X77365Y347865D01*
X77886Y347517D01*
X78500Y347394D01*
X79115Y347517D01*
X79635Y347865D01*
X79983Y348386D01*
X80106Y349000D01*
X79983Y349615D01*
X79635Y350135D01*
X79115Y350483D01*
X78500Y350606D01*
D02*
G37*
G36*
X53466Y351758D02*
X53139Y351332D01*
X52741Y350371D01*
X52605Y349339D01*
X52741Y348307D01*
X53139Y347346D01*
X53466Y346920D01*
X55885Y349339D01*
X53466Y351758D01*
D02*
G37*
G36*
X140342Y351758D02*
X140015Y351332D01*
X139617Y350371D01*
X139481Y349339D01*
X139617Y348307D01*
X140015Y347346D01*
X140342Y346920D01*
X142761Y349339D01*
X140342Y351758D01*
D02*
G37*
G36*
X59718Y351758D02*
X57299Y349339D01*
X59718Y346920D01*
X60045Y347346D01*
X60443Y348307D01*
X60579Y349339D01*
X60443Y350371D01*
X60045Y351332D01*
X59718Y351758D01*
D02*
G37*
G36*
X146594Y351758D02*
X144175Y349339D01*
X146594Y346920D01*
X146921Y347346D01*
X147319Y348307D01*
X147455Y349339D01*
X147319Y350371D01*
X146921Y351332D01*
X146594Y351758D01*
D02*
G37*
G36*
X143468Y348632D02*
X141049Y346213D01*
X141474Y345886D01*
X142436Y345488D01*
X143468Y345352D01*
X144500Y345488D01*
X145461Y345886D01*
X145887Y346213D01*
X143468Y348632D01*
D02*
G37*
G36*
X56592Y348632D02*
X54173Y346213D01*
X54598Y345886D01*
X55560Y345488D01*
X56592Y345352D01*
X57624Y345488D01*
X58585Y345886D01*
X59011Y346213D01*
X56592Y348632D01*
D02*
G37*
G36*
X49521Y345842D02*
X48596Y345720D01*
X47734Y345363D01*
X46994Y344795D01*
X46426Y344055D01*
X46069Y343193D01*
X45947Y342268D01*
X46069Y341343D01*
X46426Y340481D01*
X46994Y339741D01*
X47734Y339173D01*
X48596Y338816D01*
X49521Y338694D01*
X50446Y338816D01*
X51308Y339173D01*
X52048Y339741D01*
X52616Y340481D01*
X52973Y341343D01*
X53095Y342268D01*
X52973Y343193D01*
X52616Y344055D01*
X52048Y344795D01*
X51308Y345363D01*
X50446Y345720D01*
X49521Y345842D01*
D02*
G37*
G36*
X150539Y345842D02*
X149614Y345720D01*
X148752Y345363D01*
X148012Y344795D01*
X147444Y344055D01*
X147087Y343193D01*
X146965Y342268D01*
X147087Y341343D01*
X147444Y340481D01*
X148012Y339741D01*
X148752Y339173D01*
X149614Y338816D01*
X150539Y338694D01*
X151464Y338816D01*
X152326Y339173D01*
X153066Y339741D01*
X153634Y340481D01*
X153991Y341343D01*
X154113Y342268D01*
X153991Y343193D01*
X153634Y344055D01*
X153066Y344795D01*
X152326Y345363D01*
X151464Y345720D01*
X150539Y345842D01*
D02*
G37*
G36*
X105837Y336237D02*
Y333197D01*
X108877D01*
X108820Y333630D01*
X108460Y334500D01*
X107887Y335246D01*
X107140Y335819D01*
X106270Y336180D01*
X105837Y336237D01*
D02*
G37*
G36*
X104837D02*
X104404Y336180D01*
X103534Y335819D01*
X102787Y335246D01*
X102214Y334500D01*
X101854Y333630D01*
X101797Y333197D01*
X104837D01*
Y336237D01*
D02*
G37*
G36*
X157610Y338771D02*
X156685Y338649D01*
X155823Y338292D01*
X155083Y337724D01*
X154515Y336984D01*
X154158Y336122D01*
X154036Y335197D01*
X154158Y334272D01*
X154515Y333410D01*
X155083Y332670D01*
X155823Y332102D01*
X156685Y331745D01*
X157610Y331623D01*
X158535Y331745D01*
X159397Y332102D01*
X160137Y332670D01*
X160705Y333410D01*
X161062Y334272D01*
X161184Y335197D01*
X161062Y336122D01*
X160705Y336984D01*
X160137Y337724D01*
X159397Y338292D01*
X158535Y338649D01*
X157610Y338771D01*
D02*
G37*
G36*
X42450D02*
X41525Y338649D01*
X40663Y338292D01*
X39923Y337724D01*
X39355Y336984D01*
X38998Y336122D01*
X38876Y335197D01*
X38998Y334272D01*
X39355Y333410D01*
X39923Y332670D01*
X40663Y332102D01*
X41525Y331745D01*
X42450Y331623D01*
X43375Y331745D01*
X44237Y332102D01*
X44977Y332670D01*
X45545Y333410D01*
X45902Y334272D01*
X46024Y335197D01*
X45902Y336122D01*
X45545Y336984D01*
X44977Y337724D01*
X44237Y338292D01*
X43375Y338649D01*
X42450Y338771D01*
D02*
G37*
G36*
X113211Y335890D02*
X112385Y335781D01*
X111615Y335462D01*
X110953Y334954D01*
X110446Y334293D01*
X110127Y333523D01*
X110018Y332697D01*
X110127Y331871D01*
X110446Y331101D01*
X110953Y330439D01*
X111615Y329932D01*
X112385Y329613D01*
X113211Y329504D01*
X114037Y329613D01*
X114807Y329932D01*
X115469Y330439D01*
X115976Y331101D01*
X116295Y331871D01*
X116404Y332697D01*
X116295Y333523D01*
X115976Y334293D01*
X115469Y334954D01*
X114807Y335462D01*
X114037Y335781D01*
X113211Y335890D01*
D02*
G37*
G36*
X108877Y332197D02*
X105837D01*
Y329157D01*
X106270Y329214D01*
X107140Y329574D01*
X107887Y330147D01*
X108460Y330894D01*
X108820Y331764D01*
X108877Y332197D01*
D02*
G37*
G36*
X164681Y331700D02*
X163756Y331578D01*
X162894Y331221D01*
X162154Y330653D01*
X161586Y329913D01*
X161229Y329051D01*
X161107Y328126D01*
X161229Y327201D01*
X161586Y326339D01*
X162154Y325599D01*
X162894Y325031D01*
X163756Y324674D01*
X164681Y324552D01*
X165606Y324674D01*
X166468Y325031D01*
X167208Y325599D01*
X167776Y326339D01*
X168133Y327201D01*
X168255Y328126D01*
X168133Y329051D01*
X167776Y329913D01*
X167208Y330653D01*
X166468Y331221D01*
X165606Y331578D01*
X164681Y331700D01*
D02*
G37*
G36*
X35379D02*
X34454Y331578D01*
X33592Y331221D01*
X32852Y330653D01*
X32284Y329913D01*
X31927Y329051D01*
X31805Y328126D01*
X31927Y327201D01*
X32284Y326339D01*
X32852Y325599D01*
X33592Y325031D01*
X34454Y324674D01*
X35379Y324552D01*
X36304Y324674D01*
X37166Y325031D01*
X37906Y325599D01*
X38474Y326339D01*
X38831Y327201D01*
X38953Y328126D01*
X38831Y329051D01*
X38474Y329913D01*
X37906Y330653D01*
X37166Y331221D01*
X36304Y331578D01*
X35379Y331700D01*
D02*
G37*
G36*
X171752Y326066D02*
X166741Y321055D01*
X171752Y316044D01*
X176763Y321055D01*
X171752Y326066D01*
D02*
G37*
G36*
X28308D02*
X23297Y321055D01*
X24667Y319685D01*
X24365Y319382D01*
X24017Y318862D01*
X23894Y318247D01*
X23894Y318247D01*
Y297371D01*
X23894Y297371D01*
X24017Y296757D01*
X24365Y296236D01*
X31048Y289552D01*
Y273612D01*
X29489D01*
Y267282D01*
X35819D01*
Y273612D01*
X34260D01*
Y290217D01*
X34260Y290217D01*
X34137Y290832D01*
X33789Y291353D01*
X30072Y295070D01*
X30264Y295532D01*
X33549D01*
X44412Y284668D01*
X44933Y284320D01*
X45548Y284197D01*
X45548Y284197D01*
X51532D01*
X61079Y274650D01*
Y267850D01*
X51532Y258302D01*
X39777D01*
X39163Y258180D01*
X38642Y257832D01*
X38642Y257832D01*
X27863Y247053D01*
X27474Y247372D01*
X27483Y247386D01*
X27606Y248000D01*
X27483Y248615D01*
X27135Y249135D01*
X26614Y249483D01*
X26000Y249606D01*
X23546D01*
X22607Y250544D01*
X22751Y251108D01*
X23135Y251365D01*
X23483Y251886D01*
X23606Y252500D01*
Y267000D01*
X23483Y267615D01*
X23135Y268135D01*
X23135Y268135D01*
X17441Y273830D01*
X16920Y274178D01*
X16306Y274300D01*
X16306Y274300D01*
X13571D01*
X13495Y274484D01*
X12927Y275224D01*
X12187Y275792D01*
X11325Y276149D01*
X10400Y276271D01*
X9475Y276149D01*
X8613Y275792D01*
X7873Y275224D01*
X7305Y274484D01*
X6948Y273622D01*
X6826Y272697D01*
X6948Y271772D01*
X7305Y270910D01*
X7873Y270170D01*
X8613Y269602D01*
X9475Y269245D01*
X10400Y269123D01*
X11325Y269245D01*
X12187Y269602D01*
X12927Y270170D01*
X13495Y270910D01*
X13569Y271089D01*
X15640D01*
X20394Y266335D01*
Y261194D01*
X19932Y261003D01*
X17441Y263494D01*
X16920Y263843D01*
X16306Y263965D01*
X16306Y263965D01*
X13710D01*
X13495Y264484D01*
X12927Y265224D01*
X12187Y265792D01*
X11325Y266149D01*
X10400Y266271D01*
X9475Y266149D01*
X8613Y265792D01*
X7873Y265224D01*
X7305Y264484D01*
X6948Y263622D01*
X6826Y262697D01*
X6948Y261772D01*
X7305Y260910D01*
X7873Y260170D01*
X8613Y259602D01*
X9475Y259245D01*
X10400Y259123D01*
X11325Y259245D01*
X12187Y259602D01*
X12927Y260170D01*
X13375Y260753D01*
X15640D01*
X17835Y258559D01*
Y251440D01*
X17835Y251440D01*
X17957Y250826D01*
X18306Y250305D01*
X21746Y246865D01*
X21886Y246771D01*
X21734Y246271D01*
X12369D01*
X12213Y246240D01*
X6857D01*
Y239154D01*
X13943D01*
Y243060D01*
X27746D01*
X27746Y243060D01*
X28360Y243182D01*
X28881Y243530D01*
X29027Y243675D01*
X29489Y243484D01*
Y239032D01*
X35819D01*
Y245362D01*
X31367D01*
X31175Y245824D01*
X40442Y255091D01*
X52197D01*
X52197Y255091D01*
X52811Y255213D01*
X53332Y255561D01*
X63820Y266049D01*
X63820Y266049D01*
X64168Y266570D01*
X64290Y267185D01*
Y275315D01*
X64290Y275315D01*
X64168Y275930D01*
X63820Y276451D01*
X63820Y276451D01*
X53332Y286939D01*
X52811Y287287D01*
X52197Y287409D01*
X52197Y287409D01*
X46213D01*
X35819Y297802D01*
Y301862D01*
X29489D01*
Y296307D01*
X29027Y296115D01*
X27106Y298036D01*
Y316593D01*
X27568Y316784D01*
X28308Y316044D01*
X33319Y321055D01*
X28308Y326066D01*
D02*
G37*
G36*
X63500Y318606D02*
X62885Y318483D01*
X62365Y318135D01*
X62017Y317615D01*
X61894Y317000D01*
X62017Y316386D01*
X62365Y315865D01*
X62885Y315517D01*
X63500Y315394D01*
X64114Y315517D01*
X64635Y315865D01*
X64983Y316386D01*
X65106Y317000D01*
X64983Y317615D01*
X64635Y318135D01*
X64114Y318483D01*
X63500Y318606D01*
D02*
G37*
G36*
X136500Y316106D02*
X135886Y315983D01*
X135365Y315635D01*
X135017Y315114D01*
X134894Y314500D01*
X135017Y313885D01*
X135365Y313365D01*
X135886Y313017D01*
X136500Y312894D01*
X137115Y313017D01*
X137635Y313365D01*
X137983Y313885D01*
X138106Y314500D01*
X137983Y315114D01*
X137635Y315635D01*
X137115Y315983D01*
X136500Y316106D01*
D02*
G37*
G36*
X40500Y315606D02*
X39886Y315483D01*
X39365Y315135D01*
X39017Y314615D01*
X38894Y314000D01*
X39017Y313386D01*
X39365Y312865D01*
X39886Y312517D01*
X40500Y312394D01*
X41115Y312517D01*
X41635Y312865D01*
X41983Y313386D01*
X42106Y314000D01*
X41983Y314615D01*
X41635Y315135D01*
X41115Y315483D01*
X40500Y315606D01*
D02*
G37*
G36*
X9500Y308106D02*
X8885Y307983D01*
X8365Y307635D01*
X8017Y307115D01*
X7894Y306500D01*
X8017Y305886D01*
X8365Y305365D01*
X8885Y305017D01*
X9500Y304894D01*
X10114Y305017D01*
X10635Y305365D01*
X10983Y305886D01*
X11106Y306500D01*
X10983Y307115D01*
X10635Y307635D01*
X10114Y307983D01*
X9500Y308106D01*
D02*
G37*
G36*
X163719Y302237D02*
Y299197D01*
X166759D01*
X166702Y299630D01*
X166341Y300500D01*
X165769Y301246D01*
X165022Y301819D01*
X164152Y302180D01*
X163719Y302237D01*
D02*
G37*
G36*
X162719D02*
X162286Y302180D01*
X161416Y301819D01*
X160669Y301246D01*
X160096Y300500D01*
X159736Y299630D01*
X159679Y299197D01*
X162719D01*
Y302237D01*
D02*
G37*
G36*
X106310D02*
Y299197D01*
X109350D01*
X109293Y299630D01*
X108933Y300500D01*
X108360Y301246D01*
X107613Y301819D01*
X106744Y302180D01*
X106310Y302237D01*
D02*
G37*
G36*
X105310D02*
X104877Y302180D01*
X104008Y301819D01*
X103261Y301246D01*
X102688Y300500D01*
X102328Y299630D01*
X102271Y299197D01*
X105310D01*
Y302237D01*
D02*
G37*
G36*
X48902D02*
Y299197D01*
X51942D01*
X51885Y299630D01*
X51525Y300500D01*
X50951Y301246D01*
X50205Y301819D01*
X49335Y302180D01*
X48902Y302237D01*
D02*
G37*
G36*
X47902D02*
X47469Y302180D01*
X46599Y301819D01*
X45852Y301246D01*
X45279Y300500D01*
X44919Y299630D01*
X44862Y299197D01*
X47902D01*
Y302237D01*
D02*
G37*
G36*
X97463Y335890D02*
X96637Y335781D01*
X95867Y335462D01*
X95205Y334954D01*
X94698Y334293D01*
X94379Y333523D01*
X94270Y332697D01*
X94379Y331871D01*
X94698Y331101D01*
X95205Y330439D01*
X95867Y329932D01*
X96637Y329613D01*
X97463Y329504D01*
X98278Y329611D01*
X129453Y298436D01*
Y295756D01*
X128991Y295565D01*
X92754Y331802D01*
Y335862D01*
X86424D01*
Y329532D01*
X90484D01*
X126894Y293121D01*
Y237000D01*
X126894Y237000D01*
X127017Y236385D01*
X127365Y235865D01*
X151416Y211813D01*
X151406Y211663D01*
X150831Y210913D01*
X150469Y210040D01*
X150345Y209102D01*
Y203291D01*
X150469Y202354D01*
X150831Y201481D01*
X151406Y200730D01*
X152156Y200155D01*
X153030Y199793D01*
X153967Y199670D01*
X154904Y199793D01*
X155778Y200155D01*
X156528Y200730D01*
X157103Y201481D01*
X157465Y202354D01*
X157589Y203291D01*
Y207488D01*
X158050Y207679D01*
X160345Y205384D01*
Y203291D01*
X160469Y202354D01*
X160831Y201481D01*
X161406Y200730D01*
X162156Y200155D01*
X163030Y199793D01*
X163967Y199670D01*
X164904Y199793D01*
X165778Y200155D01*
X166528Y200730D01*
X167103Y201481D01*
X167465Y202354D01*
X167588Y203291D01*
Y209102D01*
X167465Y210040D01*
X167103Y210913D01*
X166528Y211663D01*
X165778Y212239D01*
X164904Y212600D01*
X163967Y212724D01*
X163030Y212600D01*
X162156Y212239D01*
X161406Y211663D01*
X160831Y210913D01*
X160647Y210471D01*
X160147Y210570D01*
Y210997D01*
X160025Y211612D01*
X159677Y212133D01*
X159677Y212133D01*
X156997Y214812D01*
X156476Y215161D01*
X156168Y215222D01*
X132665Y238725D01*
Y299101D01*
X132543Y299715D01*
X132194Y300236D01*
X132194Y300236D01*
X103261Y329169D01*
X103534Y329574D01*
X104404Y329214D01*
X104837Y329157D01*
Y332197D01*
X101797D01*
X101854Y331764D01*
X102214Y330894D01*
X101809Y330621D01*
X100548Y331882D01*
X100656Y332697D01*
X100547Y333523D01*
X100228Y334293D01*
X99721Y334954D01*
X99059Y335462D01*
X98289Y335781D01*
X97463Y335890D01*
D02*
G37*
G36*
X150636Y301862D02*
X144306D01*
Y295532D01*
X150636D01*
Y301862D01*
D02*
G37*
G36*
X171093Y301889D02*
X170267Y301781D01*
X169497Y301462D01*
X168835Y300954D01*
X168328Y300293D01*
X168009Y299523D01*
X167900Y298697D01*
X168009Y297870D01*
X168328Y297100D01*
X168835Y296439D01*
X169497Y295932D01*
X170267Y295613D01*
X171093Y295504D01*
X171919Y295613D01*
X172689Y295932D01*
X173351Y296439D01*
X173858Y297100D01*
X174177Y297870D01*
X174286Y298697D01*
X174177Y299523D01*
X173858Y300293D01*
X173351Y300954D01*
X172689Y301462D01*
X171919Y301781D01*
X171093Y301889D01*
D02*
G37*
G36*
X155345D02*
X154519Y301781D01*
X153749Y301462D01*
X153087Y300954D01*
X152580Y300293D01*
X152261Y299523D01*
X152152Y298697D01*
X152261Y297870D01*
X152580Y297100D01*
X153087Y296439D01*
X153749Y295932D01*
X154519Y295613D01*
X155345Y295504D01*
X156171Y295613D01*
X156941Y295932D01*
X157602Y296439D01*
X158110Y297100D01*
X158429Y297870D01*
X158537Y298697D01*
X158429Y299523D01*
X158110Y300293D01*
X157602Y300954D01*
X156941Y301462D01*
X156171Y301781D01*
X155345Y301889D01*
D02*
G37*
G36*
X113684D02*
X112858Y301781D01*
X112088Y301462D01*
X111427Y300954D01*
X110919Y300293D01*
X110601Y299523D01*
X110492Y298697D01*
X110601Y297870D01*
X110919Y297100D01*
X111427Y296439D01*
X112088Y295932D01*
X112858Y295613D01*
X113684Y295504D01*
X114511Y295613D01*
X115281Y295932D01*
X115942Y296439D01*
X116449Y297100D01*
X116768Y297870D01*
X116877Y298697D01*
X116768Y299523D01*
X116449Y300293D01*
X115942Y300954D01*
X115281Y301462D01*
X114511Y301781D01*
X113684Y301889D01*
D02*
G37*
G36*
X56276D02*
X55450Y301781D01*
X54680Y301462D01*
X54018Y300954D01*
X53511Y300293D01*
X53192Y299523D01*
X53083Y298697D01*
X53192Y297870D01*
X53511Y297100D01*
X54018Y296439D01*
X54680Y295932D01*
X55450Y295613D01*
X56276Y295504D01*
X57102Y295613D01*
X57872Y295932D01*
X58534Y296439D01*
X59041Y297100D01*
X59360Y297870D01*
X59469Y298697D01*
X59360Y299523D01*
X59041Y300293D01*
X58534Y300954D01*
X57872Y301462D01*
X57102Y301781D01*
X56276Y301889D01*
D02*
G37*
G36*
X40528D02*
X39702Y301781D01*
X38932Y301462D01*
X38270Y300954D01*
X37763Y300293D01*
X37444Y299523D01*
X37335Y298697D01*
X37444Y297870D01*
X37763Y297100D01*
X38270Y296439D01*
X38932Y295932D01*
X39702Y295613D01*
X40528Y295504D01*
X41354Y295613D01*
X42124Y295932D01*
X42786Y296439D01*
X43293Y297100D01*
X43612Y297870D01*
X43721Y298697D01*
X43612Y299523D01*
X43293Y300293D01*
X42786Y300954D01*
X42124Y301462D01*
X41354Y301781D01*
X40528Y301889D01*
D02*
G37*
G36*
X166759Y298197D02*
X163719D01*
Y295157D01*
X164152Y295214D01*
X165022Y295574D01*
X165769Y296147D01*
X166341Y296894D01*
X166702Y297764D01*
X166759Y298197D01*
D02*
G37*
G36*
X162719D02*
X159679D01*
X159736Y297764D01*
X160096Y296894D01*
X160669Y296147D01*
X161416Y295574D01*
X162286Y295214D01*
X162719Y295157D01*
Y298197D01*
D02*
G37*
G36*
X109350D02*
X106310D01*
Y295157D01*
X106744Y295214D01*
X107613Y295574D01*
X108360Y296147D01*
X108933Y296894D01*
X109293Y297764D01*
X109350Y298197D01*
D02*
G37*
G36*
X105310D02*
X102271D01*
X102328Y297764D01*
X102688Y296894D01*
X103261Y296147D01*
X104008Y295574D01*
X104877Y295214D01*
X105310Y295157D01*
Y298197D01*
D02*
G37*
G36*
X51942D02*
X48902D01*
Y295157D01*
X49335Y295214D01*
X50205Y295574D01*
X50951Y296147D01*
X51525Y296894D01*
X51885Y297764D01*
X51942Y298197D01*
D02*
G37*
G36*
X47902D02*
X44862D01*
X44919Y297764D01*
X45279Y296894D01*
X45852Y296147D01*
X46599Y295574D01*
X47469Y295214D01*
X47902Y295157D01*
Y298197D01*
D02*
G37*
G36*
X10400Y296271D02*
X9475Y296149D01*
X8613Y295792D01*
X7873Y295224D01*
X7305Y294484D01*
X6948Y293622D01*
X6826Y292697D01*
X6948Y291772D01*
X7305Y290910D01*
X7873Y290170D01*
X8613Y289602D01*
X9475Y289245D01*
X10400Y289123D01*
X11325Y289245D01*
X12187Y289602D01*
X12927Y290170D01*
X13495Y290910D01*
X13852Y291772D01*
X13974Y292697D01*
X13852Y293622D01*
X13495Y294484D01*
X12927Y295224D01*
X12187Y295792D01*
X11325Y296149D01*
X10400Y296271D01*
D02*
G37*
G36*
X10900Y286618D02*
Y283197D01*
X14321D01*
X14251Y283729D01*
X13853Y284690D01*
X13219Y285516D01*
X12393Y286150D01*
X11432Y286548D01*
X10900Y286618D01*
D02*
G37*
G36*
X9900D02*
X9368Y286548D01*
X8407Y286150D01*
X7581Y285516D01*
X6947Y284690D01*
X6549Y283729D01*
X6479Y283197D01*
X9900D01*
Y286618D01*
D02*
G37*
G36*
X97936Y301889D02*
X97110Y301781D01*
X96340Y301462D01*
X95679Y300954D01*
X95171Y300293D01*
X94853Y299523D01*
X94744Y298697D01*
X94853Y297870D01*
X95171Y297100D01*
X95679Y296439D01*
X96331Y295939D01*
Y286363D01*
X92130Y282162D01*
X91668Y282353D01*
Y295532D01*
X93228D01*
Y301862D01*
X86897D01*
Y295532D01*
X88457D01*
Y282108D01*
X65698Y259349D01*
X65350Y258828D01*
X65227Y258213D01*
X65227Y258213D01*
Y219103D01*
X58257Y212133D01*
X57909Y211612D01*
X57787Y210997D01*
X57721Y210730D01*
X57196Y210690D01*
X57103Y210913D01*
X56528Y211663D01*
X55778Y212239D01*
X54904Y212600D01*
X53967Y212724D01*
X53030Y212600D01*
X52156Y212239D01*
X51406Y211663D01*
X50831Y210913D01*
X50469Y210040D01*
X50345Y209102D01*
Y203291D01*
X50469Y202354D01*
X50831Y201481D01*
X51406Y200730D01*
X52156Y200155D01*
X53030Y199793D01*
X53967Y199670D01*
X54904Y199793D01*
X55778Y200155D01*
X56528Y200730D01*
X57103Y201481D01*
X57287Y201923D01*
X57787Y201823D01*
Y162057D01*
X52832Y157102D01*
X52483Y156581D01*
X52361Y155967D01*
X52361Y155967D01*
Y152324D01*
X52156Y152239D01*
X51406Y151663D01*
X50831Y150913D01*
X50469Y150040D01*
X50345Y149102D01*
Y143291D01*
X50469Y142354D01*
X50831Y141481D01*
X51406Y140731D01*
X52156Y140155D01*
X53030Y139793D01*
X53967Y139670D01*
X54904Y139793D01*
X55778Y140155D01*
X56528Y140731D01*
X57103Y141481D01*
X57465Y142354D01*
X57588Y143291D01*
Y149102D01*
X57465Y150040D01*
X57103Y150913D01*
X56528Y151663D01*
X55778Y152239D01*
X55573Y152324D01*
Y155302D01*
X60527Y160257D01*
X60876Y160778D01*
X60998Y161392D01*
Y200514D01*
X61498Y200660D01*
X62156Y200155D01*
X63030Y199793D01*
X63852Y199685D01*
X64103Y199228D01*
X62832Y197957D01*
X62484Y197436D01*
X62361Y196822D01*
X62361Y196822D01*
Y152324D01*
X62156Y152239D01*
X61406Y151663D01*
X60831Y150913D01*
X60469Y150040D01*
X60345Y149102D01*
Y143291D01*
X60469Y142354D01*
X60831Y141481D01*
X61406Y140731D01*
X62156Y140155D01*
X63030Y139793D01*
X63967Y139670D01*
X64904Y139793D01*
X65778Y140155D01*
X66528Y140731D01*
X67103Y141481D01*
X67465Y142354D01*
X67589Y143291D01*
Y149102D01*
X67465Y150040D01*
X67103Y150913D01*
X66528Y151663D01*
X65778Y152239D01*
X65573Y152324D01*
Y196157D01*
X70503Y201087D01*
X70541Y201111D01*
X71122Y201101D01*
X71406Y200730D01*
X72156Y200155D01*
X73030Y199793D01*
X73967Y199670D01*
X74904Y199793D01*
X75778Y200155D01*
X76436Y200660D01*
X76936Y200514D01*
Y198207D01*
X72832Y194102D01*
X72483Y193581D01*
X72361Y192967D01*
X72361Y192967D01*
Y152324D01*
X72156Y152239D01*
X71406Y151663D01*
X70831Y150913D01*
X70469Y150040D01*
X70345Y149102D01*
Y143291D01*
X70469Y142354D01*
X70831Y141481D01*
X71406Y140731D01*
X72156Y140155D01*
X73030Y139793D01*
X73967Y139670D01*
X74904Y139793D01*
X75778Y140155D01*
X76528Y140731D01*
X77103Y141481D01*
X77465Y142354D01*
X77588Y143291D01*
Y149102D01*
X77465Y150040D01*
X77103Y150913D01*
X76528Y151663D01*
X75778Y152239D01*
X75573Y152324D01*
Y192302D01*
X79677Y196406D01*
X79677Y196406D01*
X80025Y196927D01*
X80147Y197542D01*
Y201823D01*
X80647Y201923D01*
X80831Y201481D01*
X81406Y200730D01*
X82156Y200155D01*
X83030Y199793D01*
X83967Y199670D01*
X84904Y199793D01*
X85778Y200155D01*
X86436Y200660D01*
X86936Y200514D01*
Y194767D01*
X82832Y190662D01*
X82484Y190141D01*
X82361Y189527D01*
X82361Y189527D01*
Y152324D01*
X82156Y152239D01*
X81406Y151663D01*
X80831Y150913D01*
X80469Y150040D01*
X80345Y149102D01*
Y143291D01*
X80469Y142354D01*
X80831Y141481D01*
X81406Y140731D01*
X82156Y140155D01*
X83030Y139793D01*
X83967Y139670D01*
X84904Y139793D01*
X85778Y140155D01*
X86528Y140731D01*
X87103Y141481D01*
X87465Y142354D01*
X87589Y143291D01*
Y149102D01*
X87465Y150040D01*
X87103Y150913D01*
X86528Y151663D01*
X85778Y152239D01*
X85573Y152324D01*
Y188862D01*
X89677Y192966D01*
X89677Y192966D01*
X90025Y193487D01*
X90147Y194102D01*
Y201823D01*
X90647Y201923D01*
X90831Y201481D01*
X91406Y200730D01*
X92156Y200155D01*
X93030Y199793D01*
X93967Y199670D01*
X94904Y199793D01*
X95778Y200155D01*
X96528Y200730D01*
X97103Y201481D01*
X97465Y202354D01*
X97588Y203291D01*
Y209102D01*
X97465Y210040D01*
X97103Y210913D01*
X96528Y211663D01*
X95778Y212239D01*
X94904Y212600D01*
X93967Y212724D01*
X93030Y212600D01*
X92156Y212239D01*
X91406Y211663D01*
X90831Y210913D01*
X90647Y210471D01*
X90147Y210570D01*
Y213958D01*
X90147Y213958D01*
X90025Y214573D01*
X89677Y215094D01*
X83106Y221665D01*
Y253345D01*
X97122Y267361D01*
X97936Y267254D01*
X98763Y267363D01*
X99533Y267682D01*
X100194Y268189D01*
X100701Y268850D01*
X101020Y269620D01*
X101129Y270447D01*
X101020Y271273D01*
X100701Y272043D01*
X100194Y272704D01*
X99533Y273212D01*
X98763Y273531D01*
X97936Y273639D01*
X97110Y273531D01*
X96340Y273212D01*
X95679Y272704D01*
X95171Y272043D01*
X94853Y271273D01*
X94744Y270447D01*
X94851Y269632D01*
X93690Y268471D01*
X93228Y268662D01*
Y273612D01*
X88775D01*
X88584Y274074D01*
X99072Y284562D01*
X99072Y284562D01*
X99420Y285083D01*
X99542Y285698D01*
X99542Y285698D01*
Y295939D01*
X100194Y296439D01*
X100701Y297100D01*
X101020Y297870D01*
X101129Y298697D01*
X101020Y299523D01*
X100701Y300293D01*
X100194Y300954D01*
X99533Y301462D01*
X98763Y301781D01*
X97936Y301889D01*
D02*
G37*
G36*
X136500Y284106D02*
X135886Y283983D01*
X135365Y283635D01*
X135017Y283115D01*
X134894Y282500D01*
X135017Y281886D01*
X135365Y281365D01*
X135886Y281017D01*
X136500Y280894D01*
X137115Y281017D01*
X137635Y281365D01*
X137983Y281886D01*
X138106Y282500D01*
X137983Y283115D01*
X137635Y283635D01*
X137115Y283983D01*
X136500Y284106D01*
D02*
G37*
G36*
X75500Y283106D02*
X74885Y282983D01*
X74365Y282635D01*
X74017Y282115D01*
X73894Y281500D01*
X74017Y280886D01*
X74365Y280365D01*
X74885Y280017D01*
X75500Y279894D01*
X76114Y280017D01*
X76635Y280365D01*
X76983Y280886D01*
X77106Y281500D01*
X76983Y282115D01*
X76635Y282635D01*
X76114Y282983D01*
X75500Y283106D01*
D02*
G37*
G36*
X9900Y282197D02*
X6479D01*
X6549Y281665D01*
X6947Y280703D01*
X7581Y279878D01*
X8407Y279244D01*
X9368Y278846D01*
X9900Y278776D01*
Y282197D01*
D02*
G37*
G36*
X14321D02*
X10900D01*
Y278776D01*
X11432Y278846D01*
X12393Y279244D01*
X13219Y279878D01*
X13853Y280703D01*
X14251Y281665D01*
X14321Y282197D01*
D02*
G37*
G36*
X163719Y273987D02*
Y270947D01*
X166759D01*
X166702Y271380D01*
X166341Y272250D01*
X165769Y272996D01*
X165022Y273569D01*
X164152Y273930D01*
X163719Y273987D01*
D02*
G37*
G36*
X162719D02*
X162286Y273930D01*
X161416Y273569D01*
X160669Y272996D01*
X160096Y272250D01*
X159736Y271380D01*
X159679Y270947D01*
X162719D01*
Y273987D01*
D02*
G37*
G36*
X106310D02*
Y270947D01*
X109350D01*
X109293Y271380D01*
X108933Y272250D01*
X108360Y272996D01*
X107613Y273569D01*
X106744Y273930D01*
X106310Y273987D01*
D02*
G37*
G36*
X105310D02*
X104877Y273930D01*
X104008Y273569D01*
X103261Y272996D01*
X102688Y272250D01*
X102328Y271380D01*
X102271Y270947D01*
X105310D01*
Y273987D01*
D02*
G37*
G36*
X48902D02*
Y270947D01*
X51942D01*
X51885Y271380D01*
X51525Y272250D01*
X50951Y272996D01*
X50205Y273569D01*
X49335Y273930D01*
X48902Y273987D01*
D02*
G37*
G36*
X47902D02*
X47469Y273930D01*
X46599Y273569D01*
X45852Y272996D01*
X45279Y272250D01*
X44919Y271380D01*
X44862Y270947D01*
X47902D01*
Y273987D01*
D02*
G37*
G36*
X150636Y273612D02*
X144306D01*
Y267282D01*
X150636D01*
Y273612D01*
D02*
G37*
G36*
X171093Y273639D02*
X170267Y273531D01*
X169497Y273212D01*
X168835Y272704D01*
X168328Y272043D01*
X168009Y271273D01*
X167900Y270447D01*
X168009Y269620D01*
X168328Y268850D01*
X168835Y268189D01*
X169497Y267682D01*
X170267Y267363D01*
X171093Y267254D01*
X171919Y267363D01*
X172689Y267682D01*
X173351Y268189D01*
X173858Y268850D01*
X174177Y269620D01*
X174286Y270447D01*
X174177Y271273D01*
X173858Y272043D01*
X173351Y272704D01*
X172689Y273212D01*
X171919Y273531D01*
X171093Y273639D01*
D02*
G37*
G36*
X155345D02*
X154519Y273531D01*
X153749Y273212D01*
X153087Y272704D01*
X152580Y272043D01*
X152261Y271273D01*
X152152Y270447D01*
X152261Y269620D01*
X152580Y268850D01*
X153087Y268189D01*
X153749Y267682D01*
X154519Y267363D01*
X155345Y267254D01*
X156171Y267363D01*
X156941Y267682D01*
X157602Y268189D01*
X158110Y268850D01*
X158429Y269620D01*
X158537Y270447D01*
X158429Y271273D01*
X158110Y272043D01*
X157602Y272704D01*
X156941Y273212D01*
X156171Y273531D01*
X155345Y273639D01*
D02*
G37*
G36*
X113684D02*
X112858Y273531D01*
X112088Y273212D01*
X111427Y272704D01*
X110919Y272043D01*
X110601Y271273D01*
X110492Y270447D01*
X110601Y269620D01*
X110919Y268850D01*
X111427Y268189D01*
X112088Y267682D01*
X112858Y267363D01*
X113684Y267254D01*
X114511Y267363D01*
X115281Y267682D01*
X115942Y268189D01*
X116449Y268850D01*
X116768Y269620D01*
X116877Y270447D01*
X116768Y271273D01*
X116449Y272043D01*
X115942Y272704D01*
X115281Y273212D01*
X114511Y273531D01*
X113684Y273639D01*
D02*
G37*
G36*
X56276D02*
X55450Y273531D01*
X54680Y273212D01*
X54018Y272704D01*
X53511Y272043D01*
X53192Y271273D01*
X53083Y270447D01*
X53192Y269620D01*
X53511Y268850D01*
X54018Y268189D01*
X54680Y267682D01*
X55450Y267363D01*
X56276Y267254D01*
X57102Y267363D01*
X57872Y267682D01*
X58534Y268189D01*
X59041Y268850D01*
X59360Y269620D01*
X59469Y270447D01*
X59360Y271273D01*
X59041Y272043D01*
X58534Y272704D01*
X57872Y273212D01*
X57102Y273531D01*
X56276Y273639D01*
D02*
G37*
G36*
X40528D02*
X39702Y273531D01*
X38932Y273212D01*
X38270Y272704D01*
X37763Y272043D01*
X37444Y271273D01*
X37335Y270447D01*
X37444Y269620D01*
X37763Y268850D01*
X38270Y268189D01*
X38932Y267682D01*
X39702Y267363D01*
X40528Y267254D01*
X41354Y267363D01*
X42124Y267682D01*
X42786Y268189D01*
X43293Y268850D01*
X43612Y269620D01*
X43721Y270447D01*
X43612Y271273D01*
X43293Y272043D01*
X42786Y272704D01*
X42124Y273212D01*
X41354Y273531D01*
X40528Y273639D01*
D02*
G37*
G36*
X166759Y269947D02*
X163719D01*
Y266907D01*
X164152Y266964D01*
X165022Y267324D01*
X165769Y267897D01*
X166341Y268644D01*
X166702Y269514D01*
X166759Y269947D01*
D02*
G37*
G36*
X162719D02*
X159679D01*
X159736Y269514D01*
X160096Y268644D01*
X160669Y267897D01*
X161416Y267324D01*
X162286Y266964D01*
X162719Y266907D01*
Y269947D01*
D02*
G37*
G36*
X109350D02*
X106310D01*
Y266907D01*
X106744Y266964D01*
X107613Y267324D01*
X108360Y267897D01*
X108933Y268644D01*
X109293Y269514D01*
X109350Y269947D01*
D02*
G37*
G36*
X105310D02*
X102271D01*
X102328Y269514D01*
X102688Y268644D01*
X103261Y267897D01*
X104008Y267324D01*
X104877Y266964D01*
X105310Y266907D01*
Y269947D01*
D02*
G37*
G36*
X51942D02*
X48902D01*
Y266907D01*
X49335Y266964D01*
X50205Y267324D01*
X50951Y267897D01*
X51525Y268644D01*
X51885Y269514D01*
X51942Y269947D01*
D02*
G37*
G36*
X47902D02*
X44862D01*
X44919Y269514D01*
X45279Y268644D01*
X45852Y267897D01*
X46599Y267324D01*
X47469Y266964D01*
X47902Y266907D01*
Y269947D01*
D02*
G37*
G36*
X196000Y262606D02*
X195386Y262483D01*
X194865Y262135D01*
X194517Y261614D01*
X194394Y261000D01*
X194517Y260385D01*
X194865Y259865D01*
X195386Y259517D01*
X196000Y259394D01*
X196615Y259517D01*
X197135Y259865D01*
X197483Y260385D01*
X197606Y261000D01*
X197483Y261614D01*
X197135Y262135D01*
X196615Y262483D01*
X196000Y262606D01*
D02*
G37*
G36*
X103000Y255106D02*
X102385Y254983D01*
X101865Y254635D01*
X101517Y254115D01*
X101394Y253500D01*
X101517Y252886D01*
X101865Y252365D01*
X102385Y252017D01*
X103000Y251894D01*
X103614Y252017D01*
X104135Y252365D01*
X104483Y252886D01*
X104606Y253500D01*
X104483Y254115D01*
X104135Y254635D01*
X103614Y254983D01*
X103000Y255106D01*
D02*
G37*
G36*
X10400Y256271D02*
X9475Y256149D01*
X8613Y255792D01*
X7873Y255224D01*
X7305Y254484D01*
X6948Y253622D01*
X6826Y252697D01*
X6948Y251772D01*
X7305Y250910D01*
X7873Y250170D01*
X8613Y249602D01*
X9475Y249245D01*
X10400Y249123D01*
X11325Y249245D01*
X12187Y249602D01*
X12927Y250170D01*
X13495Y250910D01*
X13852Y251772D01*
X13974Y252697D01*
X13852Y253622D01*
X13495Y254484D01*
X12927Y255224D01*
X12187Y255792D01*
X11325Y256149D01*
X10400Y256271D01*
D02*
G37*
G36*
X163719Y245737D02*
Y242697D01*
X166759D01*
X166702Y243130D01*
X166341Y244000D01*
X165769Y244746D01*
X165022Y245319D01*
X164152Y245680D01*
X163719Y245737D01*
D02*
G37*
G36*
X162719D02*
X162286Y245680D01*
X161416Y245319D01*
X160669Y244746D01*
X160096Y244000D01*
X159736Y243130D01*
X159679Y242697D01*
X162719D01*
Y245737D01*
D02*
G37*
G36*
X106310D02*
Y242697D01*
X109350D01*
X109293Y243130D01*
X108933Y244000D01*
X108360Y244746D01*
X107613Y245319D01*
X106744Y245680D01*
X106310Y245737D01*
D02*
G37*
G36*
X105310D02*
X104877Y245680D01*
X104008Y245319D01*
X103261Y244746D01*
X102688Y244000D01*
X102328Y243130D01*
X102271Y242697D01*
X105310D01*
Y245737D01*
D02*
G37*
G36*
X48902D02*
Y242697D01*
X51942D01*
X51885Y243130D01*
X51525Y244000D01*
X50951Y244746D01*
X50205Y245319D01*
X49335Y245680D01*
X48902Y245737D01*
D02*
G37*
G36*
X47902D02*
X47469Y245680D01*
X46599Y245319D01*
X45852Y244746D01*
X45279Y244000D01*
X44919Y243130D01*
X44862Y242697D01*
X47902D01*
Y245737D01*
D02*
G37*
G36*
X150636Y245362D02*
X144306D01*
Y239032D01*
X150636D01*
Y245362D01*
D02*
G37*
G36*
X171093Y245390D02*
X170267Y245281D01*
X169497Y244962D01*
X168835Y244454D01*
X168328Y243793D01*
X168009Y243023D01*
X167900Y242197D01*
X168009Y241371D01*
X168328Y240600D01*
X168835Y239939D01*
X169497Y239432D01*
X170267Y239113D01*
X171093Y239004D01*
X171919Y239113D01*
X172689Y239432D01*
X173351Y239939D01*
X173858Y240600D01*
X174177Y241371D01*
X174286Y242197D01*
X174177Y243023D01*
X173858Y243793D01*
X173351Y244454D01*
X172689Y244962D01*
X171919Y245281D01*
X171093Y245390D01*
D02*
G37*
G36*
X155345D02*
X154519Y245281D01*
X153749Y244962D01*
X153087Y244454D01*
X152580Y243793D01*
X152261Y243023D01*
X152152Y242197D01*
X152261Y241371D01*
X152580Y240600D01*
X153087Y239939D01*
X153749Y239432D01*
X154519Y239113D01*
X155345Y239004D01*
X156171Y239113D01*
X156941Y239432D01*
X157602Y239939D01*
X158110Y240600D01*
X158429Y241371D01*
X158537Y242197D01*
X158429Y243023D01*
X158110Y243793D01*
X157602Y244454D01*
X156941Y244962D01*
X156171Y245281D01*
X155345Y245390D01*
D02*
G37*
G36*
X113684D02*
X112858Y245281D01*
X112088Y244962D01*
X111427Y244454D01*
X110919Y243793D01*
X110601Y243023D01*
X110492Y242197D01*
X110601Y241371D01*
X110919Y240600D01*
X111427Y239939D01*
X112088Y239432D01*
X112858Y239113D01*
X113684Y239004D01*
X114511Y239113D01*
X115281Y239432D01*
X115942Y239939D01*
X116449Y240600D01*
X116768Y241371D01*
X116877Y242197D01*
X116768Y243023D01*
X116449Y243793D01*
X115942Y244454D01*
X115281Y244962D01*
X114511Y245281D01*
X113684Y245390D01*
D02*
G37*
G36*
X56276D02*
X55450Y245281D01*
X54680Y244962D01*
X54018Y244454D01*
X53511Y243793D01*
X53192Y243023D01*
X53083Y242197D01*
X53192Y241371D01*
X53511Y240600D01*
X54018Y239939D01*
X54680Y239432D01*
X55450Y239113D01*
X56276Y239004D01*
X57102Y239113D01*
X57872Y239432D01*
X58534Y239939D01*
X59041Y240600D01*
X59360Y241371D01*
X59469Y242197D01*
X59360Y243023D01*
X59041Y243793D01*
X58534Y244454D01*
X57872Y244962D01*
X57102Y245281D01*
X56276Y245390D01*
D02*
G37*
G36*
X40528D02*
X39702Y245281D01*
X38932Y244962D01*
X38270Y244454D01*
X37763Y243793D01*
X37444Y243023D01*
X37335Y242197D01*
X37444Y241371D01*
X37763Y240600D01*
X38270Y239939D01*
X38932Y239432D01*
X39702Y239113D01*
X40528Y239004D01*
X41354Y239113D01*
X42124Y239432D01*
X42786Y239939D01*
X43293Y240600D01*
X43612Y241371D01*
X43721Y242197D01*
X43612Y243023D01*
X43293Y243793D01*
X42786Y244454D01*
X42124Y244962D01*
X41354Y245281D01*
X40528Y245390D01*
D02*
G37*
G36*
X166759Y241697D02*
X163719D01*
Y238657D01*
X164152Y238714D01*
X165022Y239074D01*
X165769Y239647D01*
X166341Y240394D01*
X166702Y241264D01*
X166759Y241697D01*
D02*
G37*
G36*
X162719D02*
X159679D01*
X159736Y241264D01*
X160096Y240394D01*
X160669Y239647D01*
X161416Y239074D01*
X162286Y238714D01*
X162719Y238657D01*
Y241697D01*
D02*
G37*
G36*
X109350D02*
X106310D01*
Y238657D01*
X106744Y238714D01*
X107613Y239074D01*
X108360Y239647D01*
X108933Y240394D01*
X109293Y241264D01*
X109350Y241697D01*
D02*
G37*
G36*
X51942D02*
X48902D01*
Y238657D01*
X49335Y238714D01*
X50205Y239074D01*
X50951Y239647D01*
X51525Y240394D01*
X51885Y241264D01*
X51942Y241697D01*
D02*
G37*
G36*
X47902D02*
X44862D01*
X44919Y241264D01*
X45279Y240394D01*
X45852Y239647D01*
X46599Y239074D01*
X47469Y238714D01*
X47902Y238657D01*
Y241697D01*
D02*
G37*
G36*
X10500Y231606D02*
X9886Y231483D01*
X9365Y231135D01*
X9017Y230614D01*
X8894Y230000D01*
X9017Y229385D01*
X9365Y228865D01*
X9886Y228517D01*
X10500Y228394D01*
X11114Y228517D01*
X11635Y228865D01*
X11983Y229385D01*
X12106Y230000D01*
X11983Y230614D01*
X11635Y231135D01*
X11114Y231483D01*
X10500Y231606D01*
D02*
G37*
G36*
X131000Y222606D02*
X130385Y222483D01*
X129865Y222135D01*
X129517Y221615D01*
X129394Y221000D01*
X129517Y220386D01*
X129865Y219865D01*
X130385Y219517D01*
X131000Y219394D01*
X131614Y219517D01*
X132135Y219865D01*
X132483Y220386D01*
X132606Y221000D01*
X132483Y221615D01*
X132135Y222135D01*
X131614Y222483D01*
X131000Y222606D01*
D02*
G37*
G36*
X160000Y222106D02*
X159386Y221983D01*
X158865Y221635D01*
X158517Y221114D01*
X158394Y220500D01*
X158517Y219885D01*
X158865Y219365D01*
X159386Y219017D01*
X160000Y218894D01*
X160615Y219017D01*
X161135Y219365D01*
X161483Y219885D01*
X161606Y220500D01*
X161483Y221114D01*
X161135Y221635D01*
X160615Y221983D01*
X160000Y222106D01*
D02*
G37*
G36*
X97936Y245390D02*
X97110Y245281D01*
X96340Y244962D01*
X95679Y244454D01*
X95171Y243793D01*
X94853Y243023D01*
X94744Y242197D01*
X94853Y241371D01*
X95171Y240600D01*
X95679Y239939D01*
X96340Y239432D01*
X97110Y239113D01*
X97936Y239004D01*
X98751Y239111D01*
X124735Y213127D01*
X124502Y212653D01*
X123967Y212724D01*
X123030Y212600D01*
X122156Y212239D01*
X121406Y211663D01*
X120831Y210913D01*
X120647Y210471D01*
X120147Y210570D01*
Y213718D01*
X120025Y214332D01*
X119677Y214853D01*
X119677Y214853D01*
X93228Y241302D01*
Y245362D01*
X86897D01*
Y239032D01*
X90957D01*
X116936Y213052D01*
Y211880D01*
X116436Y211734D01*
X115778Y212239D01*
X114904Y212600D01*
X113967Y212724D01*
X113030Y212600D01*
X112156Y212239D01*
X111406Y211663D01*
X110831Y210913D01*
X110469Y210040D01*
X110345Y209102D01*
Y203291D01*
X110469Y202354D01*
X110831Y201481D01*
X111406Y200730D01*
X112156Y200155D01*
X113030Y199793D01*
X113967Y199670D01*
X114904Y199793D01*
X115778Y200155D01*
X116436Y200660D01*
X116936Y200514D01*
Y183455D01*
X112832Y179351D01*
X112484Y178830D01*
X112361Y178215D01*
X112361Y178215D01*
Y152324D01*
X112156Y152239D01*
X111406Y151663D01*
X110831Y150913D01*
X110469Y150040D01*
X110345Y149102D01*
Y143291D01*
X110469Y142354D01*
X110831Y141481D01*
X111406Y140731D01*
X112156Y140155D01*
X113030Y139793D01*
X113967Y139670D01*
X114904Y139793D01*
X115778Y140155D01*
X116528Y140731D01*
X117103Y141481D01*
X117465Y142354D01*
X117588Y143291D01*
Y149102D01*
X117465Y150040D01*
X117103Y150913D01*
X116528Y151663D01*
X115778Y152239D01*
X115573Y152324D01*
Y177550D01*
X119677Y181655D01*
X119677Y181655D01*
X120025Y182176D01*
X120147Y182790D01*
Y201823D01*
X120647Y201923D01*
X120831Y201481D01*
X121406Y200730D01*
X122156Y200155D01*
X123030Y199793D01*
X123967Y199670D01*
X124904Y199793D01*
X125778Y200155D01*
X126436Y200660D01*
X126936Y200514D01*
Y181962D01*
X122832Y177857D01*
X122484Y177336D01*
X122361Y176722D01*
X122361Y176722D01*
Y152324D01*
X122156Y152239D01*
X121406Y151663D01*
X120831Y150913D01*
X120469Y150040D01*
X120345Y149102D01*
Y143291D01*
X120469Y142354D01*
X120831Y141481D01*
X121406Y140731D01*
X122156Y140155D01*
X123030Y139793D01*
X123967Y139670D01*
X124904Y139793D01*
X125778Y140155D01*
X126528Y140731D01*
X127103Y141481D01*
X127465Y142354D01*
X127588Y143291D01*
Y149102D01*
X127465Y150040D01*
X127103Y150913D01*
X126528Y151663D01*
X125778Y152239D01*
X125573Y152324D01*
Y176057D01*
X129677Y180161D01*
X129677Y180161D01*
X130025Y180682D01*
X130147Y181297D01*
Y201823D01*
X130647Y201923D01*
X130831Y201481D01*
X131406Y200730D01*
X132156Y200155D01*
X133030Y199793D01*
X133967Y199670D01*
X134904Y199793D01*
X135778Y200155D01*
X136528Y200730D01*
X137103Y201481D01*
X137465Y202354D01*
X137589Y203291D01*
Y209102D01*
X137465Y210040D01*
X137103Y210913D01*
X136528Y211663D01*
X135778Y212239D01*
X134904Y212600D01*
X133967Y212724D01*
X133030Y212600D01*
X132156Y212239D01*
X131406Y211663D01*
X130831Y210913D01*
X130647Y210471D01*
X130147Y210570D01*
Y211592D01*
X130147Y211592D01*
X130025Y212206D01*
X129677Y212727D01*
X103735Y238669D01*
X104008Y239074D01*
X104877Y238714D01*
X105310Y238657D01*
Y241697D01*
X102271D01*
X102328Y241264D01*
X102688Y240394D01*
X102283Y240121D01*
X101022Y241382D01*
X101129Y242197D01*
X101020Y243023D01*
X100701Y243793D01*
X100194Y244454D01*
X99533Y244962D01*
X98763Y245281D01*
X97936Y245390D01*
D02*
G37*
G36*
X173967Y210069D02*
X172965Y209937D01*
X172031Y209550D01*
X171229Y208935D01*
X170614Y208133D01*
X170227Y207199D01*
X170095Y206197D01*
X170227Y205195D01*
X170614Y204261D01*
X171229Y203459D01*
X172031Y202844D01*
X172965Y202457D01*
X173967Y202325D01*
X174969Y202457D01*
X175903Y202844D01*
X176705Y203459D01*
X177320Y204261D01*
X177707Y205195D01*
X177839Y206197D01*
X177707Y207199D01*
X177320Y208133D01*
X176705Y208935D01*
X175903Y209550D01*
X174969Y209937D01*
X173967Y210069D01*
D02*
G37*
G36*
X13967D02*
X12965Y209937D01*
X12031Y209550D01*
X11229Y208935D01*
X10614Y208133D01*
X10227Y207199D01*
X10095Y206197D01*
X10227Y205195D01*
X10614Y204261D01*
X11229Y203459D01*
X12031Y202844D01*
X12965Y202457D01*
X13967Y202325D01*
X14969Y202457D01*
X15903Y202844D01*
X16705Y203459D01*
X17320Y204261D01*
X17707Y205195D01*
X17839Y206197D01*
X17707Y207199D01*
X17320Y208133D01*
X16705Y208935D01*
X15903Y209550D01*
X14969Y209937D01*
X13967Y210069D01*
D02*
G37*
G36*
X143967Y212724D02*
X143030Y212600D01*
X142156Y212239D01*
X141406Y211663D01*
X140831Y210913D01*
X140469Y210040D01*
X140345Y209102D01*
Y203291D01*
X140469Y202354D01*
X140831Y201481D01*
X141406Y200730D01*
X142156Y200155D01*
X143030Y199793D01*
X143967Y199670D01*
X144904Y199793D01*
X145778Y200155D01*
X146528Y200730D01*
X147103Y201481D01*
X147465Y202354D01*
X147589Y203291D01*
Y209102D01*
X147465Y210040D01*
X147103Y210913D01*
X146528Y211663D01*
X145778Y212239D01*
X144904Y212600D01*
X143967Y212724D01*
D02*
G37*
G36*
X103967D02*
X103030Y212600D01*
X102156Y212239D01*
X101406Y211663D01*
X100831Y210913D01*
X100469Y210040D01*
X100345Y209102D01*
Y203291D01*
X100469Y202354D01*
X100831Y201481D01*
X101406Y200730D01*
X102156Y200155D01*
X103030Y199793D01*
X103967Y199670D01*
X104904Y199793D01*
X105778Y200155D01*
X106528Y200730D01*
X107103Y201481D01*
X107465Y202354D01*
X107589Y203291D01*
Y209102D01*
X107465Y210040D01*
X107103Y210913D01*
X106528Y211663D01*
X105778Y212239D01*
X104904Y212600D01*
X103967Y212724D01*
D02*
G37*
G36*
X43967D02*
X43030Y212600D01*
X42156Y212239D01*
X41406Y211663D01*
X40831Y210913D01*
X40469Y210040D01*
X40345Y209102D01*
Y203291D01*
X40469Y202354D01*
X40831Y201481D01*
X41406Y200730D01*
X42156Y200155D01*
X43030Y199793D01*
X43967Y199670D01*
X44904Y199793D01*
X45778Y200155D01*
X46528Y200730D01*
X47103Y201481D01*
X47465Y202354D01*
X47589Y203291D01*
Y209102D01*
X47465Y210040D01*
X47103Y210913D01*
X46528Y211663D01*
X45778Y212239D01*
X44904Y212600D01*
X43967Y212724D01*
D02*
G37*
G36*
X33967D02*
X33030Y212600D01*
X32156Y212239D01*
X31406Y211663D01*
X30831Y210913D01*
X30469Y210040D01*
X30345Y209102D01*
Y203291D01*
X30469Y202354D01*
X30831Y201481D01*
X31406Y200730D01*
X32156Y200155D01*
X33030Y199793D01*
X33967Y199670D01*
X34904Y199793D01*
X35778Y200155D01*
X36528Y200730D01*
X37103Y201481D01*
X37465Y202354D01*
X37589Y203291D01*
Y209102D01*
X37465Y210040D01*
X37103Y210913D01*
X36528Y211663D01*
X35778Y212239D01*
X34904Y212600D01*
X33967Y212724D01*
D02*
G37*
G36*
X23967D02*
X23030Y212600D01*
X22156Y212239D01*
X21406Y211663D01*
X20831Y210913D01*
X20469Y210040D01*
X20345Y209102D01*
Y203291D01*
X20469Y202354D01*
X20831Y201481D01*
X21406Y200730D01*
X22156Y200155D01*
X23030Y199793D01*
X23967Y199670D01*
X24904Y199793D01*
X25778Y200155D01*
X26528Y200730D01*
X27103Y201481D01*
X27465Y202354D01*
X27588Y203291D01*
Y209102D01*
X27465Y210040D01*
X27103Y210913D01*
X26528Y211663D01*
X25778Y212239D01*
X24904Y212600D01*
X23967Y212724D01*
D02*
G37*
G36*
X107000Y194106D02*
X106386Y193983D01*
X105865Y193635D01*
X105517Y193114D01*
X105394Y192500D01*
X105517Y191885D01*
X105865Y191365D01*
X106386Y191017D01*
X107000Y190894D01*
X107615Y191017D01*
X108135Y191365D01*
X108483Y191885D01*
X108606Y192500D01*
X108483Y193114D01*
X108135Y193635D01*
X107615Y193983D01*
X107000Y194106D01*
D02*
G37*
G36*
X162500Y189606D02*
X161885Y189483D01*
X161365Y189135D01*
X161017Y188614D01*
X160894Y188000D01*
X161017Y187385D01*
X161365Y186865D01*
X161885Y186517D01*
X162500Y186394D01*
X163115Y186517D01*
X163635Y186865D01*
X163983Y187385D01*
X164106Y188000D01*
X163983Y188614D01*
X163635Y189135D01*
X163115Y189483D01*
X162500Y189606D01*
D02*
G37*
G36*
X180543Y185043D02*
X173457D01*
Y177957D01*
X180543D01*
Y185043D01*
D02*
G37*
G36*
X13500Y181106D02*
X12886Y180983D01*
X12365Y180635D01*
X12017Y180114D01*
X11894Y179500D01*
X12017Y178885D01*
X12365Y178365D01*
X12886Y178017D01*
X13500Y177894D01*
X14115Y178017D01*
X14635Y178365D01*
X14983Y178885D01*
X15106Y179500D01*
X14983Y180114D01*
X14635Y180635D01*
X14115Y180983D01*
X13500Y181106D01*
D02*
G37*
G36*
X55000Y180606D02*
X54386Y180483D01*
X53865Y180135D01*
X53517Y179614D01*
X53394Y179000D01*
X53517Y178385D01*
X53865Y177865D01*
X54386Y177517D01*
X55000Y177394D01*
X55615Y177517D01*
X56135Y177865D01*
X56483Y178385D01*
X56606Y179000D01*
X56483Y179614D01*
X56135Y180135D01*
X55615Y180483D01*
X55000Y180606D01*
D02*
G37*
G36*
X32000Y179106D02*
X31385Y178983D01*
X30865Y178635D01*
X30517Y178114D01*
X30394Y177500D01*
X30517Y176885D01*
X30865Y176365D01*
X31385Y176017D01*
X32000Y175894D01*
X32614Y176017D01*
X33135Y176365D01*
X33483Y176885D01*
X33606Y177500D01*
X33483Y178114D01*
X33135Y178635D01*
X32614Y178983D01*
X32000Y179106D01*
D02*
G37*
G36*
X103000Y178606D02*
X102385Y178483D01*
X101865Y178135D01*
X101517Y177614D01*
X101394Y177000D01*
X101517Y176385D01*
X101865Y175865D01*
X102385Y175517D01*
X103000Y175394D01*
X103614Y175517D01*
X104135Y175865D01*
X104483Y176385D01*
X104606Y177000D01*
X104483Y177614D01*
X104135Y178135D01*
X103614Y178483D01*
X103000Y178606D01*
D02*
G37*
G36*
X154000Y173606D02*
X153385Y173483D01*
X152865Y173135D01*
X152517Y172615D01*
X152394Y172000D01*
X152517Y171386D01*
X152865Y170865D01*
X153385Y170517D01*
X154000Y170394D01*
X154614Y170517D01*
X155135Y170865D01*
X155483Y171386D01*
X155606Y172000D01*
X155483Y172615D01*
X155135Y173135D01*
X154614Y173483D01*
X154000Y173606D01*
D02*
G37*
G36*
X168500Y169424D02*
Y168000D01*
X169924D01*
X169869Y168274D01*
X169431Y168931D01*
X168774Y169369D01*
X168500Y169424D01*
D02*
G37*
G36*
X167500D02*
X167226Y169369D01*
X166569Y168931D01*
X166131Y168274D01*
X166076Y168000D01*
X167500D01*
Y169424D01*
D02*
G37*
G36*
X177000Y175074D02*
X176075Y174952D01*
X175213Y174595D01*
X174473Y174027D01*
X173905Y173287D01*
X173548Y172425D01*
X173426Y171500D01*
X173548Y170575D01*
X173905Y169713D01*
X174473Y168973D01*
X175213Y168405D01*
X176075Y168048D01*
X177000Y167926D01*
X177925Y168048D01*
X178787Y168405D01*
X179527Y168973D01*
X180095Y169713D01*
X180452Y170575D01*
X180574Y171500D01*
X180452Y172425D01*
X180095Y173287D01*
X179527Y174027D01*
X178787Y174595D01*
X177925Y174952D01*
X177000Y175074D01*
D02*
G37*
G36*
X142000Y168424D02*
Y167000D01*
X143424D01*
X143369Y167274D01*
X142931Y167931D01*
X142274Y168369D01*
X142000Y168424D01*
D02*
G37*
G36*
X141000D02*
X140726Y168369D01*
X140069Y167931D01*
X139631Y167274D01*
X139576Y167000D01*
X141000D01*
Y168424D01*
D02*
G37*
G36*
X169924Y167000D02*
X168500D01*
Y165576D01*
X168774Y165631D01*
X169431Y166069D01*
X169869Y166726D01*
X169924Y167000D01*
D02*
G37*
G36*
X167500D02*
X166076D01*
X166131Y166726D01*
X166569Y166069D01*
X167226Y165631D01*
X167500Y165576D01*
Y167000D01*
D02*
G37*
G36*
X143424Y166000D02*
X142000D01*
Y164576D01*
X142274Y164631D01*
X142931Y165069D01*
X143369Y165726D01*
X143424Y166000D01*
D02*
G37*
G36*
X141000D02*
X139576D01*
X139631Y165726D01*
X140069Y165069D01*
X140726Y164631D01*
X141000Y164576D01*
Y166000D01*
D02*
G37*
G36*
X34467Y153071D02*
Y146697D01*
X38001D01*
Y149102D01*
X37864Y150147D01*
X37461Y151120D01*
X36820Y151955D01*
X35984Y152596D01*
X35011Y152999D01*
X34467Y153071D01*
D02*
G37*
G36*
X33467D02*
X32923Y152999D01*
X31950Y152596D01*
X31114Y151955D01*
X30473Y151120D01*
X30070Y150147D01*
X29932Y149102D01*
Y146697D01*
X33467D01*
Y153071D01*
D02*
G37*
G36*
X173967Y150069D02*
X172965Y149937D01*
X172031Y149550D01*
X171229Y148935D01*
X170614Y148133D01*
X170227Y147199D01*
X170095Y146197D01*
X170227Y145195D01*
X170614Y144261D01*
X171229Y143459D01*
X172031Y142844D01*
X172965Y142457D01*
X173967Y142325D01*
X174969Y142457D01*
X175903Y142844D01*
X176705Y143459D01*
X177320Y144261D01*
X177707Y145195D01*
X177839Y146197D01*
X177707Y147199D01*
X177320Y148133D01*
X176705Y148935D01*
X175903Y149550D01*
X174969Y149937D01*
X173967Y150069D01*
D02*
G37*
G36*
X13967D02*
X12965Y149937D01*
X12031Y149550D01*
X11229Y148935D01*
X10614Y148133D01*
X10227Y147199D01*
X10095Y146197D01*
X10227Y145195D01*
X10614Y144261D01*
X11229Y143459D01*
X12031Y142844D01*
X12965Y142457D01*
X13967Y142325D01*
X14969Y142457D01*
X15903Y142844D01*
X16705Y143459D01*
X17320Y144261D01*
X17707Y145195D01*
X17839Y146197D01*
X17707Y147199D01*
X17320Y148133D01*
X16705Y148935D01*
X15903Y149550D01*
X14969Y149937D01*
X13967Y150069D01*
D02*
G37*
G36*
X163967Y152724D02*
X163030Y152601D01*
X162156Y152239D01*
X161406Y151663D01*
X160831Y150913D01*
X160469Y150040D01*
X160345Y149102D01*
Y143291D01*
X160469Y142354D01*
X160831Y141481D01*
X161406Y140731D01*
X162156Y140155D01*
X163030Y139793D01*
X163967Y139670D01*
X164904Y139793D01*
X165778Y140155D01*
X166528Y140731D01*
X167103Y141481D01*
X167465Y142354D01*
X167588Y143291D01*
Y149102D01*
X167465Y150040D01*
X167103Y150913D01*
X166528Y151663D01*
X165778Y152239D01*
X164904Y152601D01*
X163967Y152724D01*
D02*
G37*
G36*
X153967D02*
X153030Y152601D01*
X152156Y152239D01*
X151406Y151663D01*
X150831Y150913D01*
X150469Y150040D01*
X150345Y149102D01*
Y143291D01*
X150469Y142354D01*
X150831Y141481D01*
X151406Y140731D01*
X152156Y140155D01*
X153030Y139793D01*
X153967Y139670D01*
X154904Y139793D01*
X155778Y140155D01*
X156528Y140731D01*
X157103Y141481D01*
X157465Y142354D01*
X157589Y143291D01*
Y149102D01*
X157465Y150040D01*
X157103Y150913D01*
X156528Y151663D01*
X155778Y152239D01*
X154904Y152601D01*
X153967Y152724D01*
D02*
G37*
G36*
X143967D02*
X143030Y152601D01*
X142156Y152239D01*
X141406Y151663D01*
X140831Y150913D01*
X140469Y150040D01*
X140345Y149102D01*
Y143291D01*
X140469Y142354D01*
X140831Y141481D01*
X141406Y140731D01*
X142156Y140155D01*
X143030Y139793D01*
X143967Y139670D01*
X144904Y139793D01*
X145778Y140155D01*
X146528Y140731D01*
X147103Y141481D01*
X147465Y142354D01*
X147589Y143291D01*
Y149102D01*
X147465Y150040D01*
X147103Y150913D01*
X146528Y151663D01*
X145778Y152239D01*
X144904Y152601D01*
X143967Y152724D01*
D02*
G37*
G36*
X96017Y158658D02*
X96017Y158658D01*
X94552D01*
X93937Y158535D01*
X93417Y158187D01*
X93069Y157667D01*
X92946Y157052D01*
X93069Y156438D01*
X93417Y155917D01*
X93937Y155569D01*
X94552Y155446D01*
X95352D01*
X100554Y150245D01*
X100469Y150040D01*
X100345Y149102D01*
Y143291D01*
X100469Y142354D01*
X100831Y141481D01*
X101406Y140731D01*
X102156Y140155D01*
X103030Y139793D01*
X103967Y139670D01*
X104904Y139793D01*
X105778Y140155D01*
X106528Y140731D01*
X107103Y141481D01*
X107465Y142354D01*
X107589Y143291D01*
Y149102D01*
X107465Y150040D01*
X107103Y150913D01*
X106528Y151663D01*
X105778Y152239D01*
X104904Y152601D01*
X103967Y152724D01*
X103030Y152601D01*
X102824Y152515D01*
X97153Y158187D01*
X96632Y158535D01*
X96530Y158556D01*
X96017Y158658D01*
D02*
G37*
G36*
X93967Y152724D02*
X93030Y152601D01*
X92156Y152239D01*
X91406Y151663D01*
X90831Y150913D01*
X90469Y150040D01*
X90345Y149102D01*
Y143291D01*
X90469Y142354D01*
X90831Y141481D01*
X91406Y140731D01*
X92156Y140155D01*
X93030Y139793D01*
X93967Y139670D01*
X94904Y139793D01*
X95778Y140155D01*
X96528Y140731D01*
X97103Y141481D01*
X97465Y142354D01*
X97588Y143291D01*
Y149102D01*
X97465Y150040D01*
X97103Y150913D01*
X96528Y151663D01*
X95778Y152239D01*
X94904Y152601D01*
X93967Y152724D01*
D02*
G37*
G36*
X43967D02*
X43030Y152601D01*
X42156Y152239D01*
X41406Y151663D01*
X40831Y150913D01*
X40469Y150040D01*
X40345Y149102D01*
Y143291D01*
X40469Y142354D01*
X40831Y141481D01*
X41406Y140731D01*
X42156Y140155D01*
X43030Y139793D01*
X43967Y139670D01*
X44904Y139793D01*
X45778Y140155D01*
X46528Y140731D01*
X47103Y141481D01*
X47465Y142354D01*
X47589Y143291D01*
Y149102D01*
X47465Y150040D01*
X47103Y150913D01*
X46528Y151663D01*
X45778Y152239D01*
X44904Y152601D01*
X43967Y152724D01*
D02*
G37*
G36*
X23967D02*
X23030Y152601D01*
X22156Y152239D01*
X21406Y151663D01*
X20831Y150913D01*
X20469Y150040D01*
X20345Y149102D01*
Y143291D01*
X20469Y142354D01*
X20831Y141481D01*
X21406Y140731D01*
X22156Y140155D01*
X23030Y139793D01*
X23967Y139670D01*
X24904Y139793D01*
X25778Y140155D01*
X26528Y140731D01*
X27103Y141481D01*
X27465Y142354D01*
X27588Y143291D01*
Y149102D01*
X27465Y150040D01*
X27103Y150913D01*
X26528Y151663D01*
X25778Y152239D01*
X24904Y152601D01*
X23967Y152724D01*
D02*
G37*
G36*
X38001Y145697D02*
X34467D01*
Y139323D01*
X35011Y139394D01*
X35984Y139797D01*
X36820Y140438D01*
X37461Y141274D01*
X37864Y142247D01*
X38001Y143291D01*
Y145697D01*
D02*
G37*
G36*
X33467D02*
X29932D01*
Y143291D01*
X30070Y142247D01*
X30473Y141274D01*
X31114Y140438D01*
X31950Y139797D01*
X32923Y139394D01*
X33467Y139323D01*
Y145697D01*
D02*
G37*
G36*
X167953Y130453D02*
X162047D01*
Y124547D01*
X167953D01*
Y130453D01*
D02*
G37*
G36*
X103953D02*
X98047D01*
Y124547D01*
X103953D01*
Y130453D01*
D02*
G37*
G36*
X135000Y130478D02*
X134229Y130377D01*
X133511Y130079D01*
X132894Y129606D01*
X132421Y128989D01*
X132123Y128271D01*
X132022Y127500D01*
X132123Y126729D01*
X132421Y126011D01*
X132894Y125394D01*
X133511Y124921D01*
X134229Y124623D01*
X135000Y124522D01*
X135771Y124623D01*
X136489Y124921D01*
X137106Y125394D01*
X137579Y126011D01*
X137877Y126729D01*
X137978Y127500D01*
X137877Y128271D01*
X137579Y128989D01*
X137106Y129606D01*
X136489Y130079D01*
X135771Y130377D01*
X135000Y130478D01*
D02*
G37*
G36*
X71000D02*
X70229Y130377D01*
X69511Y130079D01*
X68894Y129606D01*
X68421Y128989D01*
X68123Y128271D01*
X68022Y127500D01*
X68123Y126729D01*
X68421Y126011D01*
X68894Y125394D01*
X69511Y124921D01*
X70229Y124623D01*
X71000Y124522D01*
X71771Y124623D01*
X72489Y124921D01*
X73106Y125394D01*
X73579Y126011D01*
X73877Y126729D01*
X73978Y127500D01*
X73877Y128271D01*
X73579Y128989D01*
X73106Y129606D01*
X72489Y130079D01*
X71771Y130377D01*
X71000Y130478D01*
D02*
G37*
G36*
X133967Y152724D02*
X133030Y152601D01*
X132156Y152239D01*
X131406Y151663D01*
X130831Y150913D01*
X130469Y150040D01*
X130345Y149102D01*
Y143291D01*
X130469Y142354D01*
X130831Y141481D01*
X131406Y140731D01*
X132156Y140155D01*
X133030Y139793D01*
X133967Y139670D01*
X134904Y139793D01*
X135109Y139878D01*
X141686Y133302D01*
X141686Y133302D01*
X142207Y132954D01*
X142821Y132831D01*
X167349D01*
X177972Y122208D01*
X177739Y121735D01*
X177467Y121771D01*
X176542Y121649D01*
X175680Y121292D01*
X174940Y120724D01*
X174372Y119984D01*
X174015Y119122D01*
X173893Y118197D01*
X174015Y117272D01*
X174372Y116410D01*
X174940Y115670D01*
X175680Y115102D01*
X176542Y114745D01*
X177467Y114623D01*
X178392Y114745D01*
X179254Y115102D01*
X179994Y115670D01*
X180562Y116410D01*
X180919Y117272D01*
X181041Y118197D01*
X181005Y118469D01*
X181479Y118702D01*
X187316Y112865D01*
X187316Y112865D01*
X187837Y112517D01*
X188452Y112394D01*
X188452Y112394D01*
X189000D01*
X189614Y112517D01*
X190135Y112865D01*
X190483Y113385D01*
X190606Y114000D01*
X190483Y114614D01*
X190135Y115135D01*
X189614Y115483D01*
X189146Y115577D01*
X186297Y118425D01*
X186451Y118781D01*
X186529Y118900D01*
X187115Y119017D01*
X187635Y119365D01*
X187983Y119886D01*
X188106Y120500D01*
X187983Y121115D01*
X187635Y121635D01*
X187115Y121983D01*
X186500Y122106D01*
X185886Y121983D01*
X185760Y121900D01*
X185400Y122260D01*
X185483Y122386D01*
X185606Y123000D01*
X185483Y123615D01*
X185135Y124135D01*
X184615Y124483D01*
X184000Y124606D01*
X183386Y124483D01*
X182865Y124135D01*
X182517Y123615D01*
X182400Y123029D01*
X182281Y122951D01*
X181925Y122797D01*
X169150Y135572D01*
X168629Y135920D01*
X168015Y136043D01*
X168015Y136043D01*
X143486D01*
X137380Y142149D01*
X137465Y142354D01*
X137589Y143291D01*
Y149102D01*
X137465Y150040D01*
X137103Y150913D01*
X136528Y151663D01*
X135778Y152239D01*
X134904Y152601D01*
X133967Y152724D01*
D02*
G37*
G36*
X110500Y123606D02*
X109886Y123483D01*
X109365Y123135D01*
X109017Y122615D01*
X108894Y122000D01*
X109017Y121386D01*
X109365Y120865D01*
X109886Y120517D01*
X110500Y120394D01*
X111115Y120517D01*
X111635Y120865D01*
X111983Y121386D01*
X112106Y122000D01*
X111983Y122615D01*
X111635Y123135D01*
X111115Y123483D01*
X110500Y123606D01*
D02*
G37*
G36*
X17967Y122118D02*
Y118697D01*
X21388D01*
X21318Y119229D01*
X20920Y120190D01*
X20286Y121016D01*
X19460Y121650D01*
X18499Y122048D01*
X17967Y122118D01*
D02*
G37*
G36*
X16967D02*
X16435Y122048D01*
X15473Y121650D01*
X14648Y121016D01*
X14014Y120190D01*
X13616Y119229D01*
X13546Y118697D01*
X16967D01*
Y122118D01*
D02*
G37*
G36*
X131010Y121740D02*
X123924D01*
Y114654D01*
X131010D01*
Y121740D01*
D02*
G37*
G36*
X167467Y121771D02*
X166542Y121649D01*
X165680Y121292D01*
X164940Y120724D01*
X164372Y119984D01*
X164015Y119122D01*
X163893Y118197D01*
X164015Y117272D01*
X164372Y116410D01*
X164940Y115670D01*
X165680Y115102D01*
X166542Y114745D01*
X167467Y114623D01*
X168392Y114745D01*
X169254Y115102D01*
X169994Y115670D01*
X170562Y116410D01*
X170919Y117272D01*
X171041Y118197D01*
X170919Y119122D01*
X170562Y119984D01*
X169994Y120724D01*
X169254Y121292D01*
X168392Y121649D01*
X167467Y121771D01*
D02*
G37*
G36*
X157467D02*
X156542Y121649D01*
X155680Y121292D01*
X154940Y120724D01*
X154372Y119984D01*
X154015Y119122D01*
X153893Y118197D01*
X154015Y117272D01*
X154372Y116410D01*
X154940Y115670D01*
X155680Y115102D01*
X156542Y114745D01*
X157467Y114623D01*
X158392Y114745D01*
X159254Y115102D01*
X159994Y115670D01*
X160562Y116410D01*
X160919Y117272D01*
X161041Y118197D01*
X160919Y119122D01*
X160562Y119984D01*
X159994Y120724D01*
X159254Y121292D01*
X158392Y121649D01*
X157467Y121771D01*
D02*
G37*
G36*
X147467D02*
X146542Y121649D01*
X145680Y121292D01*
X144940Y120724D01*
X144372Y119984D01*
X144015Y119122D01*
X143893Y118197D01*
X144015Y117272D01*
X144372Y116410D01*
X144940Y115670D01*
X145680Y115102D01*
X146542Y114745D01*
X147467Y114623D01*
X148392Y114745D01*
X149254Y115102D01*
X149994Y115670D01*
X150562Y116410D01*
X150919Y117272D01*
X151041Y118197D01*
X150919Y119122D01*
X150562Y119984D01*
X149994Y120724D01*
X149254Y121292D01*
X148392Y121649D01*
X147467Y121771D01*
D02*
G37*
G36*
X137467D02*
X136542Y121649D01*
X135680Y121292D01*
X134940Y120724D01*
X134372Y119984D01*
X134015Y119122D01*
X133893Y118197D01*
X134015Y117272D01*
X134372Y116410D01*
X134940Y115670D01*
X135680Y115102D01*
X136542Y114745D01*
X137467Y114623D01*
X138392Y114745D01*
X139254Y115102D01*
X139994Y115670D01*
X140562Y116410D01*
X140919Y117272D01*
X141041Y118197D01*
X140919Y119122D01*
X140562Y119984D01*
X139994Y120724D01*
X139254Y121292D01*
X138392Y121649D01*
X137467Y121771D01*
D02*
G37*
G36*
X47467D02*
X46542Y121649D01*
X45680Y121292D01*
X44940Y120724D01*
X44372Y119984D01*
X44015Y119122D01*
X43893Y118197D01*
X44015Y117272D01*
X44372Y116410D01*
X44940Y115670D01*
X45680Y115102D01*
X46542Y114745D01*
X47467Y114623D01*
X48392Y114745D01*
X49254Y115102D01*
X49994Y115670D01*
X50562Y116410D01*
X50919Y117272D01*
X51041Y118197D01*
X50919Y119122D01*
X50562Y119984D01*
X49994Y120724D01*
X49254Y121292D01*
X48392Y121649D01*
X47467Y121771D01*
D02*
G37*
G36*
X37467D02*
X36542Y121649D01*
X35680Y121292D01*
X34940Y120724D01*
X34372Y119984D01*
X34015Y119122D01*
X33893Y118197D01*
X34015Y117272D01*
X34372Y116410D01*
X34940Y115670D01*
X35680Y115102D01*
X36542Y114745D01*
X37467Y114623D01*
X38392Y114745D01*
X39254Y115102D01*
X39994Y115670D01*
X40562Y116410D01*
X40919Y117272D01*
X41041Y118197D01*
X40919Y119122D01*
X40562Y119984D01*
X39994Y120724D01*
X39254Y121292D01*
X38392Y121649D01*
X37467Y121771D01*
D02*
G37*
G36*
X27467D02*
X26542Y121649D01*
X25680Y121292D01*
X24940Y120724D01*
X24372Y119984D01*
X24015Y119122D01*
X23893Y118197D01*
X24015Y117272D01*
X24372Y116410D01*
X24940Y115670D01*
X25680Y115102D01*
X26542Y114745D01*
X27467Y114623D01*
X28392Y114745D01*
X29254Y115102D01*
X29994Y115670D01*
X30562Y116410D01*
X30919Y117272D01*
X31041Y118197D01*
X30919Y119122D01*
X30562Y119984D01*
X29994Y120724D01*
X29254Y121292D01*
X28392Y121649D01*
X27467Y121771D01*
D02*
G37*
G36*
X21388Y117697D02*
X17967D01*
Y114276D01*
X18499Y114346D01*
X19460Y114744D01*
X20286Y115378D01*
X20920Y116203D01*
X21318Y117165D01*
X21388Y117697D01*
D02*
G37*
G36*
X16967D02*
X13546D01*
X13616Y117165D01*
X14014Y116203D01*
X14648Y115378D01*
X15473Y114744D01*
X16435Y114346D01*
X16967Y114276D01*
Y117697D01*
D02*
G37*
G36*
X67467Y121771D02*
X66542Y121649D01*
X65680Y121292D01*
X64940Y120724D01*
X64372Y119984D01*
X64015Y119122D01*
X63893Y118197D01*
X64015Y117272D01*
X64372Y116410D01*
X64940Y115670D01*
X65680Y115102D01*
X66542Y114745D01*
X67467Y114623D01*
X68392Y114745D01*
X69254Y115102D01*
X69994Y115670D01*
X70562Y116410D01*
X70637Y116591D01*
X71334D01*
Y114592D01*
X71334Y114592D01*
X71456Y113977D01*
X71804Y113456D01*
X72083Y113178D01*
X71891Y112716D01*
X65219D01*
X60844Y117091D01*
X60919Y117272D01*
X61041Y118197D01*
X60919Y119122D01*
X60562Y119984D01*
X59994Y120724D01*
X59254Y121292D01*
X58392Y121649D01*
X57467Y121771D01*
X56542Y121649D01*
X55680Y121292D01*
X54940Y120724D01*
X54372Y119984D01*
X54015Y119122D01*
X53893Y118197D01*
X54015Y117272D01*
X54372Y116410D01*
X54940Y115670D01*
X55680Y115102D01*
X56542Y114745D01*
X57467Y114623D01*
X58392Y114745D01*
X58573Y114820D01*
X63418Y109975D01*
X63939Y109627D01*
X64553Y109505D01*
X64554Y109505D01*
X81225D01*
X104394Y86335D01*
Y66119D01*
X104394Y66119D01*
X104517Y65505D01*
X104865Y64984D01*
X127648Y42200D01*
X127382Y41759D01*
X126542Y41649D01*
X125680Y41292D01*
X124940Y40724D01*
X124372Y39984D01*
X124015Y39122D01*
X123893Y38197D01*
X124015Y37272D01*
X124372Y36410D01*
X124940Y35670D01*
X125680Y35102D01*
X126542Y34745D01*
X127467Y34623D01*
X128392Y34745D01*
X129254Y35102D01*
X129994Y35670D01*
X130300Y36068D01*
X130669Y36110D01*
X130927Y36064D01*
X137015Y29975D01*
X137015Y29975D01*
X137536Y29627D01*
X138151Y29505D01*
X138151Y29505D01*
X150402D01*
X150402Y29505D01*
X151017Y29627D01*
X151538Y29975D01*
X156376Y34813D01*
X156542Y34745D01*
X157467Y34623D01*
X158392Y34745D01*
X159254Y35102D01*
X159994Y35670D01*
X160562Y36410D01*
X160919Y37272D01*
X161041Y38197D01*
X160919Y39122D01*
X160562Y39984D01*
X160075Y40619D01*
X160234Y41119D01*
X162274D01*
X164090Y39303D01*
X164015Y39122D01*
X163893Y38197D01*
X164015Y37272D01*
X164372Y36410D01*
X164940Y35670D01*
X165680Y35102D01*
X166542Y34745D01*
X167467Y34623D01*
X168392Y34745D01*
X169254Y35102D01*
X169994Y35670D01*
X170562Y36410D01*
X170919Y37272D01*
X171041Y38197D01*
X170919Y39122D01*
X170562Y39984D01*
X169994Y40724D01*
X169254Y41292D01*
X168392Y41649D01*
X167467Y41771D01*
X166542Y41649D01*
X166361Y41574D01*
X164075Y43860D01*
X163554Y44208D01*
X162939Y44330D01*
X162939Y44330D01*
X155592D01*
X155592Y44330D01*
X154977Y44208D01*
X154456Y43860D01*
X154456Y43860D01*
X151331Y40735D01*
X150984Y40214D01*
X150943Y40192D01*
X150692Y40118D01*
X150455Y40123D01*
X149994Y40724D01*
X149254Y41292D01*
X148392Y41649D01*
X147467Y41771D01*
X146542Y41649D01*
X146526Y41642D01*
X146037Y41747D01*
X145689Y42268D01*
X145689Y42268D01*
X112724Y75233D01*
Y86381D01*
X113224Y86649D01*
X113421Y86517D01*
X114036Y86394D01*
X114650Y86517D01*
X115171Y86865D01*
X115646D01*
X116166Y86517D01*
X116781Y86394D01*
X117395Y86517D01*
X117896Y86851D01*
X118028Y86919D01*
X118377D01*
X118509Y86851D01*
X119010Y86517D01*
X119624Y86394D01*
X120238Y86517D01*
X120759Y86865D01*
X120812Y86943D01*
X121312D01*
X121365Y86865D01*
X121886Y86517D01*
X122500Y86394D01*
X123115Y86517D01*
X123635Y86865D01*
X123983Y87385D01*
X124106Y88000D01*
X123983Y88614D01*
X123635Y89135D01*
X123115Y89483D01*
X122500Y89606D01*
X121886Y89483D01*
X121365Y89135D01*
X121312Y89057D01*
X120812D01*
X120759Y89135D01*
X120238Y89483D01*
X119624Y89606D01*
X119010Y89483D01*
X118509Y89149D01*
X118377Y89081D01*
X118028D01*
X117896Y89149D01*
X117395Y89483D01*
X116781Y89606D01*
X116166Y89483D01*
X115733Y89194D01*
X115408Y89156D01*
X115083Y89194D01*
X114650Y89483D01*
X114036Y89606D01*
X113421Y89483D01*
X113224Y89351D01*
X112724Y89619D01*
Y89882D01*
X112724Y89882D01*
X112601Y90496D01*
X112253Y91017D01*
X112253Y91017D01*
X83938Y119332D01*
X83418Y119680D01*
X82803Y119802D01*
X82803Y119802D01*
X81010D01*
Y121740D01*
X73924D01*
Y119989D01*
X73424Y119706D01*
X72939Y119802D01*
X70637D01*
X70562Y119984D01*
X69994Y120724D01*
X69254Y121292D01*
X68392Y121649D01*
X67467Y121771D01*
D02*
G37*
G36*
X72000Y108606D02*
X71386Y108483D01*
X70865Y108135D01*
X70517Y107615D01*
X70394Y107000D01*
X70517Y106386D01*
X70865Y105865D01*
X71386Y105517D01*
X72000Y105394D01*
X72615Y105517D01*
X73135Y105865D01*
X73483Y106386D01*
X73606Y107000D01*
X73483Y107615D01*
X73135Y108135D01*
X72615Y108483D01*
X72000Y108606D01*
D02*
G37*
G36*
X117500Y102606D02*
X116885Y102483D01*
X116365Y102135D01*
X116017Y101614D01*
X116002Y101540D01*
X115780Y101480D01*
X115481Y101487D01*
X115182Y101935D01*
X114661Y102283D01*
X114047Y102405D01*
X113433Y102283D01*
X112912Y101935D01*
X112564Y101414D01*
X112441Y100799D01*
X112564Y100185D01*
X112912Y99664D01*
X113433Y99316D01*
X114047Y99194D01*
X114661Y99316D01*
X115182Y99664D01*
X115530Y100185D01*
X115545Y100259D01*
X115767Y100319D01*
X116066Y100312D01*
X116365Y99865D01*
X116885Y99517D01*
X117500Y99394D01*
X118114Y99517D01*
X118635Y99865D01*
X118983Y100385D01*
X119106Y101000D01*
X118983Y101614D01*
X118635Y102135D01*
X118114Y102483D01*
X117500Y102606D01*
D02*
G37*
G36*
X45858Y109318D02*
X41682Y105142D01*
X45858Y100966D01*
X50034Y105142D01*
X45858Y109318D01*
D02*
G37*
G36*
X203000Y99606D02*
X202385Y99483D01*
X201865Y99135D01*
X201801Y99040D01*
X201199D01*
X201135Y99135D01*
X200615Y99483D01*
X200000Y99606D01*
X199385Y99483D01*
X198865Y99135D01*
X198517Y98615D01*
X198505Y98556D01*
X197995D01*
X197983Y98615D01*
X197635Y99135D01*
X197115Y99483D01*
X196500Y99606D01*
X195886Y99483D01*
X195365Y99135D01*
X195301Y99040D01*
X194699D01*
X194635Y99135D01*
X194114Y99483D01*
X193500Y99606D01*
X192885Y99483D01*
X192365Y99135D01*
X192017Y98615D01*
X191894Y98000D01*
X192017Y97386D01*
X192365Y96865D01*
X192885Y96517D01*
X193500Y96394D01*
X194114Y96517D01*
X194635Y96865D01*
X194699Y96960D01*
X195301D01*
X195365Y96865D01*
X195886Y96517D01*
X196500Y96394D01*
X197115Y96517D01*
X197635Y96865D01*
X197983Y97386D01*
X197995Y97444D01*
X198505D01*
X198517Y97386D01*
X198865Y96865D01*
X199385Y96517D01*
X200000Y96394D01*
X200615Y96517D01*
X201135Y96865D01*
X201199Y96960D01*
X201801D01*
X201865Y96865D01*
X202385Y96517D01*
X203000Y96394D01*
X203614Y96517D01*
X204135Y96865D01*
X204483Y97386D01*
X204606Y98000D01*
X204483Y98615D01*
X204135Y99135D01*
X203614Y99483D01*
X203000Y99606D01*
D02*
G37*
G36*
X109500Y102106D02*
X108886Y101983D01*
X108365Y101635D01*
X108017Y101114D01*
X107894Y100500D01*
X108017Y99885D01*
X108365Y99365D01*
X108886Y99017D01*
X109500Y98894D01*
X110115Y99017D01*
X110635Y99365D01*
X110983Y99885D01*
X111106Y100500D01*
X110983Y101114D01*
X110635Y101635D01*
X110115Y101983D01*
X109500Y102106D01*
D02*
G37*
G36*
X159000Y98924D02*
Y97500D01*
X160424D01*
X160369Y97774D01*
X159931Y98431D01*
X159274Y98869D01*
X159000Y98924D01*
D02*
G37*
G36*
X158000D02*
X157726Y98869D01*
X157069Y98431D01*
X156631Y97774D01*
X156576Y97500D01*
X158000D01*
Y98924D01*
D02*
G37*
G36*
X52929Y101049D02*
X52158Y100948D01*
X51440Y100650D01*
X50823Y100177D01*
X50350Y99560D01*
X50052Y98842D01*
X49951Y98071D01*
X50052Y97300D01*
X50350Y96582D01*
X50823Y95965D01*
X51440Y95492D01*
X52158Y95194D01*
X52929Y95093D01*
X53700Y95194D01*
X54418Y95492D01*
X55035Y95965D01*
X55508Y96582D01*
X55806Y97300D01*
X55907Y98071D01*
X55806Y98842D01*
X55508Y99560D01*
X55035Y100177D01*
X54418Y100650D01*
X53700Y100948D01*
X52929Y101049D01*
D02*
G37*
G36*
X160424Y96500D02*
X159000D01*
Y95076D01*
X159274Y95131D01*
X159931Y95569D01*
X160369Y96226D01*
X160424Y96500D01*
D02*
G37*
G36*
X158000D02*
X156576D01*
X156631Y96226D01*
X157069Y95569D01*
X157726Y95131D01*
X158000Y95076D01*
Y96500D01*
D02*
G37*
G36*
X34500Y96606D02*
X33885Y96483D01*
X33365Y96135D01*
X33017Y95614D01*
X32894Y95000D01*
X33017Y94385D01*
X33365Y93865D01*
X33885Y93517D01*
X34500Y93394D01*
X35114Y93517D01*
X35635Y93865D01*
X35983Y94385D01*
X36106Y95000D01*
X35983Y95614D01*
X35635Y96135D01*
X35114Y96483D01*
X34500Y96606D01*
D02*
G37*
G36*
X93244Y95216D02*
X92630Y95094D01*
X92109Y94746D01*
X91761Y94225D01*
X91638Y93610D01*
X91761Y92996D01*
X92109Y92475D01*
X92630Y92127D01*
X93244Y92005D01*
X93859Y92127D01*
X94380Y92475D01*
X94727Y92996D01*
X94850Y93610D01*
X94727Y94225D01*
X94380Y94746D01*
X93859Y95094D01*
X93244Y95216D01*
D02*
G37*
G36*
X88913D02*
X88299Y95094D01*
X87778Y94746D01*
X87430Y94225D01*
X87308Y93610D01*
X87430Y92996D01*
X87778Y92475D01*
X88299Y92127D01*
X88913Y92005D01*
X89528Y92127D01*
X90049Y92475D01*
X90397Y92996D01*
X90519Y93610D01*
X90397Y94225D01*
X90049Y94746D01*
X89528Y95094D01*
X88913Y95216D01*
D02*
G37*
G36*
X41000Y92606D02*
X40385Y92483D01*
X39865Y92135D01*
X39517Y91615D01*
X39394Y91000D01*
X39517Y90386D01*
X39865Y89865D01*
X40385Y89517D01*
X41000Y89394D01*
X41614Y89517D01*
X42135Y89865D01*
X42483Y90386D01*
X42606Y91000D01*
X42483Y91615D01*
X42135Y92135D01*
X41614Y92483D01*
X41000Y92606D01*
D02*
G37*
G36*
X60000Y93978D02*
X59229Y93877D01*
X58511Y93579D01*
X57894Y93106D01*
X57421Y92489D01*
X57123Y91771D01*
X57022Y91000D01*
X57104Y90375D01*
X49794Y83064D01*
X49446Y82543D01*
X49323Y81929D01*
X49323Y81929D01*
Y78741D01*
X49142Y78666D01*
X48402Y78098D01*
X47834Y77358D01*
X47477Y76496D01*
X47355Y75571D01*
X47477Y74646D01*
X47834Y73784D01*
X48402Y73044D01*
X49142Y72476D01*
X50004Y72119D01*
X50929Y71997D01*
X51854Y72119D01*
X52716Y72476D01*
X53456Y73044D01*
X54024Y73784D01*
X54381Y74646D01*
X54503Y75571D01*
X54381Y76496D01*
X54024Y77358D01*
X53456Y78098D01*
X52716Y78666D01*
X52535Y78741D01*
Y81264D01*
X59375Y88104D01*
X60000Y88022D01*
X60771Y88123D01*
X61489Y88421D01*
X62106Y88894D01*
X62579Y89511D01*
X62877Y90229D01*
X62978Y91000D01*
X62877Y91771D01*
X62579Y92489D01*
X62106Y93106D01*
X61489Y93579D01*
X60771Y93877D01*
X60000Y93978D01*
D02*
G37*
G36*
X93244Y90885D02*
X92630Y90763D01*
X92109Y90415D01*
X91761Y89894D01*
X91638Y89280D01*
X91761Y88665D01*
X92109Y88144D01*
X92630Y87796D01*
X93244Y87674D01*
X93859Y87796D01*
X94380Y88144D01*
X94727Y88665D01*
X94850Y89280D01*
X94727Y89894D01*
X94380Y90415D01*
X93859Y90763D01*
X93244Y90885D01*
D02*
G37*
G36*
X88913D02*
X88299Y90763D01*
X87778Y90415D01*
X87430Y89894D01*
X87308Y89280D01*
X87430Y88665D01*
X87778Y88144D01*
X88299Y87796D01*
X88913Y87674D01*
X89528Y87796D01*
X90049Y88144D01*
X90397Y88665D01*
X90519Y89280D01*
X90397Y89894D01*
X90049Y90415D01*
X89528Y90763D01*
X88913Y90885D01*
D02*
G37*
G36*
X93244Y86554D02*
X92630Y86432D01*
X92109Y86084D01*
X91761Y85563D01*
X91638Y84949D01*
X91761Y84334D01*
X92109Y83814D01*
X92630Y83465D01*
X93244Y83343D01*
X93859Y83465D01*
X94380Y83814D01*
X94727Y84334D01*
X94850Y84949D01*
X94727Y85563D01*
X94380Y86084D01*
X93859Y86432D01*
X93244Y86554D01*
D02*
G37*
G36*
X88913D02*
X88299Y86432D01*
X87778Y86084D01*
X87430Y85563D01*
X87308Y84949D01*
X87430Y84334D01*
X87778Y83814D01*
X88299Y83465D01*
X88913Y83343D01*
X89528Y83465D01*
X90049Y83814D01*
X90397Y84334D01*
X90519Y84949D01*
X90397Y85563D01*
X90049Y86084D01*
X89528Y86432D01*
X88913Y86554D01*
D02*
G37*
G36*
X75000Y89606D02*
X74385Y89483D01*
X73865Y89135D01*
X73517Y88614D01*
X73394Y88000D01*
X73517Y87385D01*
X73825Y86923D01*
Y83577D01*
X73517Y83114D01*
X73394Y82500D01*
X73517Y81885D01*
X73865Y81365D01*
X74385Y81017D01*
X75000Y80894D01*
X75615Y81017D01*
X76135Y81365D01*
X76483Y81885D01*
X76606Y82500D01*
X76483Y83114D01*
X76234Y83488D01*
Y87012D01*
X76483Y87385D01*
X76606Y88000D01*
X76483Y88614D01*
X76135Y89135D01*
X75615Y89483D01*
X75000Y89606D01*
D02*
G37*
G36*
X43858Y87653D02*
X38847Y82642D01*
X43858Y77631D01*
X48869Y82642D01*
X43858Y87653D01*
D02*
G37*
G36*
X182000Y79606D02*
X181386Y79483D01*
X180865Y79135D01*
X180517Y78614D01*
X180394Y78000D01*
X180517Y77385D01*
X180865Y76865D01*
X181386Y76517D01*
X182000Y76394D01*
X182615Y76517D01*
X183135Y76865D01*
X183483Y77385D01*
X183606Y78000D01*
X183483Y78614D01*
X183135Y79135D01*
X182615Y79483D01*
X182000Y79606D01*
D02*
G37*
G36*
X175500D02*
X174885Y79483D01*
X174365Y79135D01*
X174017Y78614D01*
X173894Y78000D01*
X174017Y77385D01*
X174365Y76865D01*
X174885Y76517D01*
X175500Y76394D01*
X176114Y76517D01*
X176635Y76865D01*
X176983Y77385D01*
X177106Y78000D01*
X176983Y78614D01*
X176635Y79135D01*
X176114Y79483D01*
X175500Y79606D01*
D02*
G37*
G36*
X179000Y76606D02*
X178385Y76483D01*
X177865Y76135D01*
X177517Y75615D01*
X177394Y75000D01*
X177517Y74385D01*
X177865Y73865D01*
X178385Y73517D01*
X179000Y73394D01*
X179614Y73517D01*
X180135Y73865D01*
X180483Y74385D01*
X180606Y75000D01*
X180483Y75615D01*
X180135Y76135D01*
X179614Y76483D01*
X179000Y76606D01*
D02*
G37*
G36*
X152000D02*
X151385Y76483D01*
X150865Y76135D01*
X150517Y75615D01*
X150394Y75000D01*
X150517Y74385D01*
X150865Y73865D01*
X151385Y73517D01*
X152000Y73394D01*
X152614Y73517D01*
X153135Y73865D01*
X153483Y74385D01*
X153606Y75000D01*
X153483Y75615D01*
X153135Y76135D01*
X152614Y76483D01*
X152000Y76606D01*
D02*
G37*
G36*
X182000Y73606D02*
X181386Y73483D01*
X180865Y73135D01*
X180517Y72615D01*
X180394Y72000D01*
X180517Y71386D01*
X180865Y70865D01*
X181386Y70517D01*
X182000Y70394D01*
X182615Y70517D01*
X183135Y70865D01*
X183483Y71386D01*
X183606Y72000D01*
X183483Y72615D01*
X183135Y73135D01*
X182615Y73483D01*
X182000Y73606D01*
D02*
G37*
G36*
X175500D02*
X174885Y73483D01*
X174365Y73135D01*
X174017Y72615D01*
X173894Y72000D01*
X174017Y71386D01*
X174365Y70865D01*
X174885Y70517D01*
X175500Y70394D01*
X176114Y70517D01*
X176635Y70865D01*
X176983Y71386D01*
X177106Y72000D01*
X176983Y72615D01*
X176635Y73135D01*
X176114Y73483D01*
X175500Y73606D01*
D02*
G37*
G36*
X58000Y72074D02*
X57075Y71952D01*
X56213Y71595D01*
X55473Y71027D01*
X54905Y70287D01*
X54548Y69425D01*
X54426Y68500D01*
X54548Y67575D01*
X54905Y66713D01*
X55473Y65973D01*
X56213Y65405D01*
X57075Y65048D01*
X58000Y64926D01*
X58925Y65048D01*
X59787Y65405D01*
X60527Y65973D01*
X61095Y66713D01*
X61452Y67575D01*
X61574Y68500D01*
X61452Y69425D01*
X61095Y70287D01*
X60527Y71027D01*
X59787Y71595D01*
X58925Y71952D01*
X58000Y72074D01*
D02*
G37*
G36*
X152000Y72106D02*
X151385Y71983D01*
X150865Y71635D01*
X150517Y71114D01*
X150394Y70500D01*
X150517Y69885D01*
X150865Y69365D01*
X151385Y69017D01*
X151444Y69005D01*
Y68495D01*
X151385Y68483D01*
X150865Y68135D01*
X150517Y67615D01*
X150394Y67000D01*
X150517Y66386D01*
X150865Y65865D01*
X151298Y65575D01*
X151294Y65214D01*
X151245Y65055D01*
X150885Y64983D01*
X150365Y64635D01*
X150017Y64114D01*
X149894Y63500D01*
X150017Y62885D01*
X150365Y62365D01*
X150885Y62017D01*
X151500Y61894D01*
X152114Y62017D01*
X152635Y62365D01*
X152983Y62885D01*
X153106Y63500D01*
X152983Y64114D01*
X152635Y64635D01*
X152202Y64925D01*
X152207Y65286D01*
X152255Y65445D01*
X152614Y65517D01*
X153135Y65865D01*
X153483Y66386D01*
X153606Y67000D01*
X153483Y67615D01*
X153135Y68135D01*
X152614Y68483D01*
X152556Y68495D01*
Y69005D01*
X152614Y69017D01*
X153135Y69365D01*
X153483Y69885D01*
X153606Y70500D01*
X153483Y71114D01*
X153135Y71635D01*
X152614Y71983D01*
X152000Y72106D01*
D02*
G37*
G36*
X151500Y61106D02*
X150885Y60983D01*
X150365Y60635D01*
X150017Y60115D01*
X149894Y59500D01*
X150017Y58886D01*
X150365Y58365D01*
X150885Y58017D01*
X151500Y57894D01*
X152114Y58017D01*
X152635Y58365D01*
X152983Y58886D01*
X153106Y59500D01*
X152983Y60115D01*
X152635Y60635D01*
X152114Y60983D01*
X151500Y61106D01*
D02*
G37*
G36*
X135500Y60606D02*
X134886Y60483D01*
X134365Y60135D01*
X134017Y59614D01*
X133894Y59000D01*
X134017Y58385D01*
X134365Y57865D01*
X134886Y57517D01*
X135500Y57394D01*
X136115Y57517D01*
X136635Y57865D01*
X136983Y58385D01*
X137106Y59000D01*
X136983Y59614D01*
X136635Y60135D01*
X136115Y60483D01*
X135500Y60606D01*
D02*
G37*
G36*
X161500Y82606D02*
X161500Y82606D01*
X160500D01*
X159886Y82483D01*
X159365Y82135D01*
X159017Y81615D01*
X158894Y81000D01*
X159017Y80386D01*
X159365Y79865D01*
X159886Y79517D01*
X160500Y79394D01*
X160835D01*
X161983Y78246D01*
Y78030D01*
X161983Y78030D01*
X162106Y77416D01*
X162454Y76895D01*
X163392Y75956D01*
X163249Y75392D01*
X162865Y75135D01*
X162517Y74615D01*
X162394Y74000D01*
X162517Y73386D01*
X162865Y72865D01*
X163385Y72517D01*
X164000Y72394D01*
X164614Y72517D01*
X165135Y72865D01*
X165392Y73249D01*
X165956Y73392D01*
X180229Y59119D01*
Y55746D01*
Y51932D01*
X180017Y51614D01*
X179894Y51000D01*
X180017Y50385D01*
X180365Y49865D01*
X180886Y49517D01*
X181500Y49394D01*
X182115Y49517D01*
X182635Y49865D01*
X182970Y50199D01*
X182970Y50199D01*
X183318Y50720D01*
X183440Y51335D01*
X183440Y51335D01*
Y55746D01*
Y59784D01*
X183318Y60399D01*
X182970Y60920D01*
X182970Y60920D01*
X165195Y78695D01*
Y78911D01*
X165073Y79525D01*
X164724Y80046D01*
X164724Y80046D01*
X162635Y82135D01*
X162115Y82483D01*
X162013Y82504D01*
X161500Y82606D01*
D02*
G37*
G36*
X115000Y47606D02*
X114385Y47483D01*
X113865Y47135D01*
X113517Y46615D01*
X113394Y46000D01*
X113517Y45386D01*
X113865Y44865D01*
X114385Y44517D01*
X115000Y44394D01*
X115614Y44517D01*
X116135Y44865D01*
X116483Y45386D01*
X116606Y46000D01*
X116483Y46615D01*
X116135Y47135D01*
X115614Y47483D01*
X115000Y47606D01*
D02*
G37*
G36*
X85000Y46574D02*
X84075Y46452D01*
X83213Y46095D01*
X82473Y45527D01*
X81905Y44787D01*
X81548Y43925D01*
X81426Y43000D01*
X81548Y42075D01*
X81905Y41213D01*
X82473Y40473D01*
X83213Y39905D01*
X84075Y39548D01*
X85000Y39426D01*
X85925Y39548D01*
X86787Y39905D01*
X87527Y40473D01*
X88095Y41213D01*
X88452Y42075D01*
X88574Y43000D01*
X88452Y43925D01*
X88095Y44787D01*
X87527Y45527D01*
X86787Y46095D01*
X85925Y46452D01*
X85000Y46574D01*
D02*
G37*
G36*
X121420Y42150D02*
X117967D01*
Y38697D01*
X121420D01*
Y42150D01*
D02*
G37*
G36*
X116967D02*
X113514D01*
Y38697D01*
X116967D01*
Y42150D01*
D02*
G37*
G36*
X197467Y41771D02*
X196542Y41649D01*
X195680Y41292D01*
X194940Y40724D01*
X194372Y39984D01*
X194015Y39122D01*
X193893Y38197D01*
X194015Y37272D01*
X194372Y36410D01*
X194940Y35670D01*
X195680Y35102D01*
X196542Y34745D01*
X197467Y34623D01*
X198392Y34745D01*
X199254Y35102D01*
X199994Y35670D01*
X200562Y36410D01*
X200919Y37272D01*
X201041Y38197D01*
X200919Y39122D01*
X200562Y39984D01*
X199994Y40724D01*
X199254Y41292D01*
X198392Y41649D01*
X197467Y41771D01*
D02*
G37*
G36*
X187467D02*
X186542Y41649D01*
X185680Y41292D01*
X184940Y40724D01*
X184372Y39984D01*
X184015Y39122D01*
X183893Y38197D01*
X184015Y37272D01*
X184372Y36410D01*
X184940Y35670D01*
X185680Y35102D01*
X186542Y34745D01*
X187467Y34623D01*
X188392Y34745D01*
X189254Y35102D01*
X189994Y35670D01*
X190562Y36410D01*
X190919Y37272D01*
X191041Y38197D01*
X190919Y39122D01*
X190562Y39984D01*
X189994Y40724D01*
X189254Y41292D01*
X188392Y41649D01*
X187467Y41771D01*
D02*
G37*
G36*
X177467D02*
X176542Y41649D01*
X175680Y41292D01*
X174940Y40724D01*
X174372Y39984D01*
X174015Y39122D01*
X173893Y38197D01*
X174015Y37272D01*
X174372Y36410D01*
X174940Y35670D01*
X175680Y35102D01*
X176542Y34745D01*
X177467Y34623D01*
X178392Y34745D01*
X179254Y35102D01*
X179994Y35670D01*
X180562Y36410D01*
X180919Y37272D01*
X181041Y38197D01*
X180919Y39122D01*
X180562Y39984D01*
X179994Y40724D01*
X179254Y41292D01*
X178392Y41649D01*
X177467Y41771D01*
D02*
G37*
G36*
X121420Y37697D02*
X117967D01*
Y34244D01*
X121420D01*
Y37697D01*
D02*
G37*
G36*
X116967D02*
X113514D01*
Y34244D01*
X116967D01*
Y37697D01*
D02*
G37*
G36*
X92071Y40940D02*
X87060Y35929D01*
X92071Y30918D01*
X97082Y35929D01*
X92071Y40940D01*
D02*
G37*
G36*
X181010Y20240D02*
X173924D01*
Y13154D01*
X181010D01*
Y20240D01*
D02*
G37*
G36*
X197467Y20271D02*
X196542Y20149D01*
X195680Y19792D01*
X194940Y19224D01*
X194372Y18484D01*
X194015Y17622D01*
X193893Y16697D01*
X194015Y15772D01*
X194372Y14910D01*
X194940Y14170D01*
X195680Y13602D01*
X196542Y13245D01*
X197467Y13123D01*
X198392Y13245D01*
X199254Y13602D01*
X199994Y14170D01*
X200562Y14910D01*
X200919Y15772D01*
X201041Y16697D01*
X200919Y17622D01*
X200562Y18484D01*
X199994Y19224D01*
X199254Y19792D01*
X198392Y20149D01*
X197467Y20271D01*
D02*
G37*
G36*
X187467D02*
X186542Y20149D01*
X185680Y19792D01*
X184940Y19224D01*
X184372Y18484D01*
X184015Y17622D01*
X183893Y16697D01*
X184015Y15772D01*
X184372Y14910D01*
X184940Y14170D01*
X185680Y13602D01*
X186542Y13245D01*
X187467Y13123D01*
X188392Y13245D01*
X189254Y13602D01*
X189994Y14170D01*
X190562Y14910D01*
X190919Y15772D01*
X191041Y16697D01*
X190919Y17622D01*
X190562Y18484D01*
X189994Y19224D01*
X189254Y19792D01*
X188392Y20149D01*
X187467Y20271D01*
D02*
G37*
%LPD*%
G36*
X92038Y266820D02*
X80647Y255429D01*
X80147Y255636D01*
Y258261D01*
X89168Y267282D01*
X91847D01*
X92038Y266820D01*
D02*
G37*
G36*
X86936Y213293D02*
Y211880D01*
X86436Y211734D01*
X85778Y212239D01*
X84904Y212600D01*
X83967Y212724D01*
X83030Y212600D01*
X82156Y212239D01*
X81406Y211663D01*
X80831Y210913D01*
X80647Y210471D01*
X80147Y210570D01*
Y219375D01*
X80647Y219582D01*
X86936Y213293D01*
D02*
G37*
G36*
X86897Y271734D02*
Y269552D01*
X77406Y260062D01*
X77058Y259541D01*
X76936Y258926D01*
X76936Y258926D01*
Y211880D01*
X76436Y211734D01*
X75778Y212239D01*
X74904Y212600D01*
X73967Y212724D01*
X73030Y212600D01*
X72156Y212239D01*
X71498Y211734D01*
X70998Y211880D01*
Y256488D01*
X86435Y271925D01*
X86897Y271734D01*
D02*
G37*
G36*
X122233Y57563D02*
X122069Y57020D01*
X121886Y56983D01*
X121365Y56635D01*
X121017Y56115D01*
X120894Y55500D01*
X121017Y54886D01*
X121365Y54365D01*
X121886Y54017D01*
X122500Y53894D01*
X123115Y54017D01*
X123635Y54365D01*
X123983Y54886D01*
X124020Y55069D01*
X124562Y55234D01*
X137576Y42220D01*
X137336Y41753D01*
X136542Y41649D01*
X135680Y41292D01*
X134940Y40724D01*
X134372Y39984D01*
X134100Y39328D01*
X133600Y39427D01*
Y40124D01*
X133600Y40124D01*
X133478Y40739D01*
X133130Y41260D01*
X107606Y66784D01*
Y71537D01*
X108068Y71728D01*
X122233Y57563D01*
D02*
G37*
D26*
X10400Y242697D02*
D03*
D27*
X50929Y75571D02*
D03*
X147467Y38197D02*
D03*
X157467D02*
D03*
X167467D02*
D03*
X143468Y349339D02*
D03*
X56592D02*
D03*
X10400Y262697D02*
D03*
Y272697D02*
D03*
Y282697D02*
D03*
X17467Y118197D02*
D03*
X67467D02*
D03*
X57467D02*
D03*
D30*
X60000Y91000D02*
D03*
D32*
X117467Y38197D02*
D03*
X77467Y118197D02*
D03*
D33*
X28308Y321055D02*
D03*
D34*
X32654Y298697D02*
D03*
Y270447D02*
D03*
X89589Y332697D02*
D03*
X90062Y298697D02*
D03*
Y270447D02*
D03*
Y242197D02*
D03*
D35*
X48402Y298697D02*
D03*
Y270447D02*
D03*
Y242197D02*
D03*
X163219D02*
D03*
Y270447D02*
D03*
Y298697D02*
D03*
X97463Y332697D02*
D03*
X105337D02*
D03*
X97936Y298697D02*
D03*
X105810D02*
D03*
X97936Y270447D02*
D03*
X105810D02*
D03*
X97936Y242197D02*
D03*
X105810D02*
D03*
D36*
X33967Y146197D02*
D03*
X53967D02*
D03*
X63967D02*
D03*
X73967D02*
D03*
X83967D02*
D03*
X103967D02*
D03*
X113967D02*
D03*
X123967D02*
D03*
X133967D02*
D03*
X163967Y206197D02*
D03*
X153967D02*
D03*
D38*
X158500Y97000D02*
D03*
X168000Y167500D02*
D03*
X141500Y166500D02*
D03*
X75000Y82500D02*
D03*
Y88000D02*
D03*
X94552Y157052D02*
D03*
X189000Y114000D02*
D03*
X160500Y81000D02*
D03*
X181500Y51000D02*
D03*
X181835Y55746D02*
D03*
Y59264D02*
D03*
X22000Y252500D02*
D03*
X26000Y248000D02*
D03*
D40*
X64553Y111110D02*
X81890D01*
X57467Y118197D02*
X64553Y111110D01*
X94552Y157052D02*
X96017D01*
X103967Y149102D01*
Y146197D02*
Y149102D01*
X168015Y134437D02*
X188452Y114000D01*
X189000D01*
X142821Y134437D02*
X168015D01*
X133967Y143291D02*
X142821Y134437D01*
X133967Y143291D02*
Y146197D01*
X50929Y81929D02*
X60000Y91000D01*
X50929Y75571D02*
Y81929D01*
X108559Y73508D02*
Y88441D01*
X83331Y113669D02*
X108559Y88441D01*
X82803Y118197D02*
X111118Y89882D01*
Y74568D02*
Y89882D01*
Y74568D02*
X144553Y41132D01*
X108559Y73508D02*
X141995Y40072D01*
X81890Y111110D02*
X106000Y87000D01*
Y66119D02*
Y87000D01*
Y66119D02*
X131994Y40124D01*
X144553Y38197D02*
Y41132D01*
X77467Y118197D02*
X82803D01*
X73862Y113669D02*
X83331D01*
X72939Y114592D02*
X73862Y113669D01*
X72939Y114592D02*
Y118197D01*
X67467D02*
X72939D01*
X131994Y37266D02*
Y40124D01*
X145462Y33669D02*
X149342D01*
X141995Y37137D02*
X145462Y33669D01*
X141995Y37137D02*
Y40072D01*
X144553Y38197D02*
X147467D01*
X149342Y33669D02*
X152467Y36794D01*
Y39600D01*
X155592Y42724D01*
X162939D01*
X167467Y38197D01*
X131994Y37266D02*
X138151Y31110D01*
X150402D01*
X157467Y38175D01*
Y38197D01*
X59392Y161392D02*
Y210997D01*
X53967Y155967D02*
X59392Y161392D01*
X53967Y146197D02*
Y155967D01*
X81500Y254010D02*
X97936Y270447D01*
X81500Y221000D02*
Y254010D01*
X163589Y78030D02*
Y78911D01*
X161500Y81000D02*
X163589Y78911D01*
X160500Y81000D02*
X161500D01*
X181500Y51000D02*
X181835Y51335D01*
Y55746D01*
Y59264D01*
Y59784D01*
X163589Y78030D02*
X181835Y59784D01*
X78542Y197542D02*
Y258926D01*
X73967Y192967D02*
X78542Y197542D01*
X73967Y146197D02*
Y192967D01*
X88542Y194102D02*
Y213958D01*
X81500Y221000D02*
X88542Y213958D01*
X158542Y209458D02*
X161803Y206197D01*
X158542Y209458D02*
Y210997D01*
X155862Y213677D02*
X158542Y210997D01*
X155442Y213677D02*
X155862D01*
X131059Y238060D02*
X155442Y213677D01*
X63967Y196822D02*
X69392Y202247D01*
X63967Y146197D02*
Y196822D01*
X69392Y202247D02*
Y257153D01*
X59392Y210997D02*
X66833Y218438D01*
Y258213D01*
X19441Y251440D02*
X22881Y248000D01*
X26000D01*
X22000Y252500D02*
Y267000D01*
X16306Y272694D02*
X22000Y267000D01*
X16306Y262359D02*
X19441Y259224D01*
Y251440D02*
Y259224D01*
X12369Y244665D02*
X27746D01*
X39777Y256697D01*
X10738Y262359D02*
X16306D01*
X10400Y262697D02*
X10738Y262359D01*
X10402Y272694D02*
X16306D01*
X10400Y272697D02*
X10402Y272694D01*
X62685Y267185D02*
Y275315D01*
X52197Y256697D02*
X62685Y267185D01*
X39777Y256697D02*
X52197D01*
X25500Y318247D02*
X28308Y321055D01*
X25500Y297371D02*
Y318247D01*
Y297371D02*
X32654Y290217D01*
Y270447D02*
Y290217D01*
X10400Y242697D02*
X12369Y244665D01*
X52197Y285803D02*
X62685Y275315D01*
X45548Y285803D02*
X52197D01*
X32654Y298697D02*
X45548Y285803D01*
X131059Y238060D02*
Y299101D01*
X153967Y206197D02*
Y211533D01*
X128500Y237000D02*
X153967Y211533D01*
X128500Y237000D02*
Y293786D01*
X161803Y206197D02*
X163967D01*
X97463Y332697D02*
X131059Y299101D01*
X89589Y332697D02*
X128500Y293786D01*
X66833Y258213D02*
X90062Y281443D01*
X69392Y257153D02*
X97936Y285698D01*
X90062Y281443D02*
Y298697D01*
Y242197D02*
X118542Y213718D01*
X97936Y285698D02*
Y298697D01*
X78542Y258926D02*
X90062Y270447D01*
X83967Y189527D02*
X88542Y194102D01*
X83967Y146197D02*
Y189527D01*
X97936Y242197D02*
X128542Y211592D01*
X118542Y182790D02*
Y213718D01*
X113967Y178215D02*
X118542Y182790D01*
X113967Y146197D02*
Y178215D01*
X128542Y181297D02*
Y211592D01*
X123967Y176722D02*
X128542Y181297D01*
X123967Y146197D02*
Y176722D01*
D41*
X75000Y82500D02*
Y82941D01*
X75029Y82970D02*
Y87971D01*
X75000Y82941D02*
X75029Y82970D01*
X75000Y88000D02*
X75029Y87971D01*
M02*
