G04*
G04 #@! TF.GenerationSoftware,Altium Limited,Altium Designer,19.1.8 (144)*
G04*
G04 Layer_Color=16711935*
%FSLAX25Y25*%
%MOIN*%
G70*
G01*
G75*
%ADD13R,0.06706X0.06706*%
%ADD14C,0.06706*%
%ADD15P,0.09483X4X360.0*%
%ADD16R,0.05524X0.05524*%
%ADD17C,0.05524*%
%ADD18P,0.07813X4X360.0*%
%ADD19R,0.06706X0.06706*%
%ADD20P,0.09483X4X90.0*%
%ADD21R,0.05950X0.05950*%
%ADD22C,0.05950*%
%ADD23O,0.06800X0.12611*%
%ADD24C,0.07296*%
%ADD25C,0.02769*%
%ADD44R,0.02310X0.05349*%
G04:AMPARAMS|DCode=45|XSize=53.49mil|YSize=23.1mil|CornerRadius=11.55mil|HoleSize=0mil|Usage=FLASHONLY|Rotation=90.000|XOffset=0mil|YOffset=0mil|HoleType=Round|Shape=RoundedRectangle|*
%AMROUNDEDRECTD45*
21,1,0.05349,0.00000,0,0,90.0*
21,1,0.03039,0.02310,0,0,90.0*
1,1,0.02310,0.00000,0.01519*
1,1,0.02310,0.00000,-0.01519*
1,1,0.02310,0.00000,-0.01519*
1,1,0.02310,0.00000,0.01519*
%
%ADD45ROUNDEDRECTD45*%
%ADD57R,0.03858X0.13386*%
%ADD58P,0.05374X4X360.0*%
%ADD59R,0.03800X0.03800*%
%ADD60R,0.06312X0.13792*%
%ADD61R,0.13792X0.06312*%
%ADD62R,0.07729X0.12414*%
%ADD63O,0.08280X0.02572*%
%ADD64R,0.03800X0.03800*%
%ADD65R,0.02375X0.04540*%
%ADD66R,0.10249X0.20485*%
%ADD67R,0.04343X0.03950*%
G04:AMPARAMS|DCode=68|XSize=41.07mil|YSize=20.6mil|CornerRadius=5.58mil|HoleSize=0mil|Usage=FLASHONLY|Rotation=90.000|XOffset=0mil|YOffset=0mil|HoleType=Round|Shape=RoundedRectangle|*
%AMROUNDEDRECTD68*
21,1,0.04107,0.00945,0,0,90.0*
21,1,0.02992,0.02060,0,0,90.0*
1,1,0.01115,0.00472,0.01496*
1,1,0.01115,0.00472,-0.01496*
1,1,0.01115,-0.00472,-0.01496*
1,1,0.01115,-0.00472,0.01496*
%
%ADD68ROUNDEDRECTD68*%
G04:AMPARAMS|DCode=69|XSize=41.07mil|YSize=20.6mil|CornerRadius=5.58mil|HoleSize=0mil|Usage=FLASHONLY|Rotation=180.000|XOffset=0mil|YOffset=0mil|HoleType=Round|Shape=RoundedRectangle|*
%AMROUNDEDRECTD69*
21,1,0.04107,0.00945,0,0,180.0*
21,1,0.02992,0.02060,0,0,180.0*
1,1,0.01115,-0.01496,0.00472*
1,1,0.01115,0.01496,0.00472*
1,1,0.01115,0.01496,-0.00472*
1,1,0.01115,-0.01496,-0.00472*
%
%ADD69ROUNDEDRECTD69*%
%ADD70R,0.11430X0.11430*%
D13*
X177000Y181500D02*
D03*
X10400Y242697D02*
D03*
D14*
X177000Y171500D02*
D03*
X50929Y75571D02*
D03*
X58000Y68500D02*
D03*
X137467Y38197D02*
D03*
X147467D02*
D03*
X157467D02*
D03*
X167467D02*
D03*
X177467D02*
D03*
X187467D02*
D03*
X197467D02*
D03*
X127467D02*
D03*
X85000Y43000D02*
D03*
X164681Y328126D02*
D03*
X157610Y335197D02*
D03*
X150539Y342268D02*
D03*
X143468Y349339D02*
D03*
X136397Y356410D02*
D03*
X35379Y328126D02*
D03*
X42450Y335197D02*
D03*
X49521Y342268D02*
D03*
X56592Y349339D02*
D03*
X63663Y356410D02*
D03*
X10400Y252697D02*
D03*
Y262697D02*
D03*
Y272697D02*
D03*
Y282697D02*
D03*
Y292697D02*
D03*
X17467Y118197D02*
D03*
X27467D02*
D03*
X37467D02*
D03*
X47467D02*
D03*
X67467D02*
D03*
X57467D02*
D03*
X137467D02*
D03*
X147467D02*
D03*
X157467D02*
D03*
X167467D02*
D03*
X177467D02*
D03*
X187467Y16697D02*
D03*
X197467D02*
D03*
D15*
X43858Y82642D02*
D03*
X92071Y35929D02*
D03*
X171752Y321055D02*
D03*
D16*
X165000Y127500D02*
D03*
X101000D02*
D03*
D17*
X135000D02*
D03*
X71000D02*
D03*
X52929Y98071D02*
D03*
X60000Y91000D02*
D03*
D18*
X45858Y105142D02*
D03*
D19*
X117467Y38197D02*
D03*
X77467Y118197D02*
D03*
X127467D02*
D03*
X177467Y16697D02*
D03*
D20*
X28308Y321055D02*
D03*
D21*
X32654Y298697D02*
D03*
Y270447D02*
D03*
Y242197D02*
D03*
X147471D02*
D03*
Y270447D02*
D03*
Y298697D02*
D03*
X89589Y332697D02*
D03*
X90062Y298697D02*
D03*
Y270447D02*
D03*
Y242197D02*
D03*
D22*
X40528Y298697D02*
D03*
X48402D02*
D03*
X56276D02*
D03*
X40528Y270447D02*
D03*
X48402D02*
D03*
X56276D02*
D03*
X40528Y242197D02*
D03*
X48402D02*
D03*
X56276D02*
D03*
X155345D02*
D03*
X163219D02*
D03*
X171093D02*
D03*
X155345Y270447D02*
D03*
X163219D02*
D03*
X171093D02*
D03*
X155345Y298697D02*
D03*
X163219D02*
D03*
X171093D02*
D03*
X97463Y332697D02*
D03*
X105337D02*
D03*
X113211D02*
D03*
X97936Y298697D02*
D03*
X105810D02*
D03*
X113684D02*
D03*
X97936Y270447D02*
D03*
X105810D02*
D03*
X113684D02*
D03*
X97936Y242197D02*
D03*
X105810D02*
D03*
X113684D02*
D03*
D23*
X23967Y146197D02*
D03*
X33967D02*
D03*
X43967D02*
D03*
X53967D02*
D03*
X63967D02*
D03*
X73967D02*
D03*
X83967D02*
D03*
X93967D02*
D03*
X103967D02*
D03*
X113967D02*
D03*
X123967D02*
D03*
X133967D02*
D03*
X143967D02*
D03*
X153967D02*
D03*
X163967D02*
D03*
Y206197D02*
D03*
X153967D02*
D03*
X143967D02*
D03*
X133967D02*
D03*
X123967D02*
D03*
X113967D02*
D03*
X103967D02*
D03*
X93967D02*
D03*
X83967D02*
D03*
X73967D02*
D03*
X63967D02*
D03*
X53967D02*
D03*
X43967D02*
D03*
X33967D02*
D03*
X23967D02*
D03*
D24*
X13967Y146197D02*
D03*
Y206197D02*
D03*
X173967D02*
D03*
Y146197D02*
D03*
D25*
X93244Y93610D02*
D03*
X88913D02*
D03*
X93244Y89280D02*
D03*
X88913D02*
D03*
X93244Y84949D02*
D03*
X88913D02*
D03*
D44*
X93500Y59149D02*
D03*
X129500Y98852D02*
D03*
D45*
X89898Y51851D02*
D03*
X97102D02*
D03*
X133102Y106149D02*
D03*
X125898D02*
D03*
D57*
X191165Y54500D02*
D03*
X181835D02*
D03*
D58*
X29611Y91889D02*
D03*
X33500Y88000D02*
D03*
D59*
X169500Y159500D02*
D03*
X164000D02*
D03*
X157500D02*
D03*
X152000D02*
D03*
X145000D02*
D03*
X139500D02*
D03*
X133000D02*
D03*
X127500D02*
D03*
X19000Y128534D02*
D03*
X24500D02*
D03*
X31000Y128659D02*
D03*
X36500D02*
D03*
X142500Y95500D02*
D03*
X137000D02*
D03*
X147500Y102500D02*
D03*
X142000D02*
D03*
X159500D02*
D03*
X154000D02*
D03*
X29500Y108500D02*
D03*
X35000D02*
D03*
X17500D02*
D03*
X23000D02*
D03*
D60*
X85520Y71000D02*
D03*
X100480D02*
D03*
D61*
X74000Y59020D02*
D03*
Y73980D02*
D03*
X114047Y115760D02*
D03*
Y100799D02*
D03*
X90000Y117980D02*
D03*
Y103020D02*
D03*
X198500Y83020D02*
D03*
Y97980D02*
D03*
D62*
X91079Y89280D02*
D03*
D63*
X99740Y95677D02*
D03*
Y93118D02*
D03*
Y90559D02*
D03*
Y88000D02*
D03*
Y85441D02*
D03*
Y82882D02*
D03*
X82417Y95677D02*
D03*
Y93118D02*
D03*
Y90559D02*
D03*
Y88000D02*
D03*
Y85441D02*
D03*
Y82882D02*
D03*
D64*
X101500Y103500D02*
D03*
Y109000D02*
D03*
Y115000D02*
D03*
Y120500D02*
D03*
X173000Y95000D02*
D03*
Y89500D02*
D03*
X179000Y95000D02*
D03*
Y89500D02*
D03*
X159500Y71000D02*
D03*
Y76500D02*
D03*
X165500Y70000D02*
D03*
Y64500D02*
D03*
D65*
X182941Y100530D02*
D03*
X185500D02*
D03*
X188059D02*
D03*
Y109191D02*
D03*
X185500D02*
D03*
X182941D02*
D03*
D66*
X113000Y67500D02*
D03*
X151000D02*
D03*
D67*
X165500Y83256D02*
D03*
Y77744D02*
D03*
D68*
X182839Y67382D02*
D03*
X180280D02*
D03*
X177720D02*
D03*
X175161D02*
D03*
Y82618D02*
D03*
X177720D02*
D03*
X180280D02*
D03*
X182839D02*
D03*
D69*
X186618Y78839D02*
D03*
Y76279D02*
D03*
Y73721D02*
D03*
Y71161D02*
D03*
X171382D02*
D03*
Y73721D02*
D03*
Y76279D02*
D03*
Y78839D02*
D03*
D70*
X179000Y75000D02*
D03*
M02*
