G04*
G04 #@! TF.GenerationSoftware,Altium Limited,Altium Designer,19.1.8 (144)*
G04*
G04 Layer_Physical_Order=2*
G04 Layer_Color=36540*
%FSLAX25Y25*%
%MOIN*%
G70*
G01*
G75*
%ADD26R,0.05906X0.05906*%
%ADD27C,0.05906*%
%ADD28P,0.08352X4X360.0*%
%ADD29R,0.04724X0.04724*%
%ADD30C,0.04724*%
%ADD31P,0.06681X4X360.0*%
%ADD32R,0.05906X0.05906*%
%ADD34R,0.05150X0.05150*%
%ADD35C,0.05150*%
%ADD36O,0.06000X0.11811*%
%ADD38C,0.01968*%
%ADD39C,0.05906*%
%ADD40C,0.01968*%
G36*
X205880Y302274D02*
Y235119D01*
X184679Y213918D01*
X184458Y213587D01*
X184380Y213197D01*
Y150831D01*
X183880Y150731D01*
X183853Y150797D01*
X183285Y151537D01*
X180574Y154248D01*
Y171500D01*
X180452Y172425D01*
X180095Y173287D01*
X179527Y174027D01*
X178787Y174595D01*
X177925Y174952D01*
X177000Y175074D01*
X176234Y174973D01*
X175991Y175437D01*
X178511Y177957D01*
X180543D01*
Y181268D01*
X180574Y181500D01*
X180543Y181732D01*
Y185043D01*
X177232D01*
X177000Y185074D01*
X176768Y185043D01*
X173457D01*
Y183011D01*
X166035Y175590D01*
X165200Y175480D01*
X164338Y175123D01*
X163598Y174555D01*
X160945Y171903D01*
X160377Y171162D01*
X160020Y170300D01*
X159899Y169375D01*
Y161433D01*
X160020Y160509D01*
X160375Y159652D01*
Y149327D01*
X160345Y149102D01*
Y143291D01*
X160469Y142354D01*
X160831Y141481D01*
X161406Y140731D01*
X162156Y140155D01*
X163030Y139793D01*
X163967Y139670D01*
X164904Y139793D01*
X165778Y140155D01*
X166528Y140731D01*
X167103Y141481D01*
X167465Y142354D01*
X167588Y143291D01*
Y149102D01*
X167523Y149602D01*
Y160957D01*
X167401Y161882D01*
X167046Y162738D01*
Y165688D01*
X167546Y165985D01*
X168000Y165894D01*
X168614Y166017D01*
X169135Y166365D01*
X169483Y166885D01*
X169606Y167500D01*
X169483Y168114D01*
X169302Y168386D01*
X169313Y168867D01*
X169432Y169023D01*
X170055Y169501D01*
X173063Y172509D01*
X173527Y172266D01*
X173426Y171500D01*
Y152768D01*
X173548Y151843D01*
X173905Y150981D01*
X174247Y150536D01*
X173976Y150067D01*
X173967Y150069D01*
X172965Y149937D01*
X172031Y149550D01*
X171229Y148935D01*
X170614Y148133D01*
X170227Y147199D01*
X170095Y146197D01*
X170227Y145195D01*
X170614Y144261D01*
X171229Y143459D01*
X172031Y142844D01*
X172965Y142457D01*
X173967Y142325D01*
X174969Y142457D01*
X175903Y142844D01*
X176684Y143444D01*
X176862Y143416D01*
X177184Y143307D01*
Y130373D01*
X176723Y130182D01*
X170452Y136452D01*
X170000Y136639D01*
X160000Y136639D01*
X159548Y136452D01*
X148735Y125639D01*
X138606D01*
X138272Y126139D01*
X138452Y126575D01*
X138574Y127500D01*
X138452Y128425D01*
X138095Y129287D01*
X137527Y130027D01*
X136787Y130595D01*
X135925Y130952D01*
X135000Y131074D01*
X126848D01*
X126749Y131574D01*
X127359Y131826D01*
X128099Y132395D01*
X136128Y140424D01*
X136528Y140731D01*
X137103Y141481D01*
X137465Y142354D01*
X137589Y143291D01*
Y149102D01*
X137465Y150040D01*
X137103Y150913D01*
X136528Y151663D01*
X135778Y152239D01*
X134904Y152601D01*
X133967Y152724D01*
X133030Y152601D01*
X132156Y152239D01*
X131406Y151663D01*
X130831Y150913D01*
X130469Y150040D01*
X130345Y149102D01*
Y144750D01*
X127972Y142376D01*
X127499Y142610D01*
X127588Y143291D01*
Y149102D01*
X127465Y150040D01*
X127103Y150913D01*
X126528Y151663D01*
X125778Y152239D01*
X124904Y152601D01*
X123967Y152724D01*
X123030Y152601D01*
X122156Y152239D01*
X121406Y151663D01*
X120831Y150913D01*
X120469Y150040D01*
X120345Y149102D01*
Y143291D01*
X120469Y142354D01*
X120831Y141481D01*
X121406Y140731D01*
X122156Y140155D01*
X123030Y139793D01*
X123967Y139670D01*
X124648Y139760D01*
X124882Y139286D01*
X124091Y138496D01*
X96422D01*
X95497Y138374D01*
X94635Y138017D01*
X93894Y137449D01*
X93894Y137449D01*
X88473Y132027D01*
X87905Y131287D01*
X87548Y130425D01*
X87426Y129500D01*
Y115129D01*
X63461Y91164D01*
X62933Y91343D01*
X62877Y91771D01*
X62579Y92489D01*
X62106Y93106D01*
X61489Y93579D01*
X60771Y93877D01*
X60000Y93978D01*
X59229Y93877D01*
X58511Y93579D01*
X57894Y93106D01*
X57421Y92489D01*
X57123Y91771D01*
X57067Y91343D01*
X56539Y91164D01*
X53092Y94610D01*
X53272Y95138D01*
X53700Y95194D01*
X54418Y95492D01*
X55035Y95965D01*
X55508Y96582D01*
X55806Y97300D01*
X55907Y98071D01*
X55806Y98842D01*
X55508Y99560D01*
X55035Y100177D01*
X54418Y100650D01*
X53700Y100948D01*
X52929Y101049D01*
X52158Y100948D01*
X51440Y100650D01*
X50823Y100177D01*
X50350Y99560D01*
X50052Y98842D01*
X49996Y98414D01*
X49468Y98235D01*
X49176Y98527D01*
X48435Y99095D01*
X47573Y99452D01*
X46648Y99574D01*
X36000D01*
X35075Y99452D01*
X34213Y99095D01*
X33473Y98527D01*
X32905Y97787D01*
X32548Y96925D01*
X32426Y96000D01*
X32548Y95075D01*
X32905Y94213D01*
X33473Y93473D01*
X34213Y92905D01*
X35075Y92548D01*
X36000Y92426D01*
X39036D01*
X39272Y91985D01*
X39131Y91774D01*
X39076Y91500D01*
X42924D01*
X42869Y91774D01*
X42728Y91985D01*
X42964Y92426D01*
X45168D01*
X55027Y82567D01*
X55767Y81999D01*
X56629Y81642D01*
X57554Y81521D01*
X62446D01*
X63371Y81642D01*
X64233Y81999D01*
X64973Y82567D01*
X93527Y111121D01*
X93527Y111121D01*
X94095Y111861D01*
X94452Y112723D01*
X94574Y113648D01*
X94574Y113648D01*
Y128020D01*
X97902Y131348D01*
X99724D01*
X99823Y130848D01*
X99213Y130595D01*
X99028Y130453D01*
X98047D01*
Y129472D01*
X97905Y129287D01*
X97548Y128425D01*
X97426Y127500D01*
X97548Y126575D01*
X97905Y125713D01*
X98047Y125528D01*
Y124547D01*
X99028D01*
X99213Y124405D01*
X100075Y124048D01*
X101000Y123926D01*
X108911D01*
X109069Y123431D01*
X108631Y122774D01*
X108576Y122500D01*
X112424D01*
X112369Y122774D01*
X111931Y123431D01*
X112089Y123926D01*
X116369D01*
X116560Y123464D01*
X102548Y109452D01*
X102361Y109000D01*
X102361Y97000D01*
X102548Y96548D01*
X105548Y93548D01*
X106000Y93361D01*
X110303D01*
X110346Y93289D01*
X110457Y92861D01*
X107548Y89952D01*
X107361Y89500D01*
Y87000D01*
X107548Y86548D01*
X110548Y83548D01*
X111000Y83361D01*
X131735Y83361D01*
X145361Y69735D01*
X145361Y59500D01*
X145548Y59048D01*
X149048Y55548D01*
X149500Y55361D01*
X154203Y55361D01*
X154655Y55548D01*
X157952Y58845D01*
X158139Y59297D01*
X158139Y69304D01*
X158601Y69495D01*
X171361Y56735D01*
Y52000D01*
X171548Y51548D01*
X178548Y44548D01*
X179000Y44361D01*
X186000Y44361D01*
X186452Y44548D01*
X189452Y47548D01*
X189639Y48000D01*
X189639Y65000D01*
X189452Y65452D01*
X183941Y70963D01*
X183869Y71226D01*
X184023Y72000D01*
X183869Y72774D01*
X183431Y73431D01*
X182774Y73869D01*
X182000Y74023D01*
X181233Y73871D01*
X181205Y73890D01*
X180890Y74205D01*
X180871Y74233D01*
X181023Y75000D01*
X180871Y75767D01*
X180890Y75795D01*
X181205Y76110D01*
X181233Y76129D01*
X181500Y76076D01*
Y77500D01*
X180076D01*
X180129Y77233D01*
X180110Y77205D01*
X179795Y76890D01*
X179767Y76871D01*
X179000Y77023D01*
X178226Y76869D01*
X178111Y76793D01*
X177542Y77362D01*
X177512Y77374D01*
X177496Y77404D01*
X177410Y77430D01*
X177523Y78000D01*
X177369Y78774D01*
X176931Y79431D01*
X176274Y79869D01*
X175500Y80023D01*
X174930Y79910D01*
X174904Y79996D01*
X174874Y80012D01*
X174861Y80042D01*
X173139Y81765D01*
X173139Y104735D01*
X179452Y111048D01*
X179639Y111500D01*
Y114547D01*
X179614Y114607D01*
X179627Y114671D01*
X179523Y114826D01*
X179452Y114999D01*
X179677Y115427D01*
X179994Y115670D01*
X180562Y116410D01*
X180919Y117272D01*
X181041Y118197D01*
X180919Y119122D01*
X180562Y119984D01*
X179994Y120724D01*
X179677Y120967D01*
X179557Y121195D01*
X179717Y121584D01*
X180237Y121708D01*
X181473Y120473D01*
X183973Y117973D01*
X184713Y117405D01*
X185575Y117048D01*
X186500Y116926D01*
X187425Y117048D01*
X188287Y117405D01*
X189027Y117973D01*
X189595Y118713D01*
X189952Y119575D01*
X190074Y120500D01*
X189952Y121425D01*
X189595Y122287D01*
X189027Y123027D01*
X186527Y125527D01*
X184332Y127722D01*
Y129116D01*
X184832Y129323D01*
X205880Y108274D01*
Y11619D01*
X195478Y1216D01*
X170322D01*
X144621Y26918D01*
X144290Y27139D01*
X143900Y27216D01*
X89322D01*
X3920Y112619D01*
Y311275D01*
X62322Y369677D01*
X138478D01*
X205880Y302274D01*
D02*
G37*
G36*
X170000Y136000D02*
X177184Y128816D01*
Y126242D01*
X177306Y125317D01*
X177663Y124455D01*
X178231Y123715D01*
X179000Y122946D01*
Y121847D01*
X178584Y121569D01*
X178392Y121649D01*
X177467Y121771D01*
X176542Y121649D01*
X175680Y121292D01*
X174940Y120724D01*
X174372Y119984D01*
X174015Y119122D01*
X173893Y118197D01*
X174015Y117272D01*
X174372Y116410D01*
X174940Y115670D01*
X175680Y115102D01*
X176542Y114745D01*
X177467Y114623D01*
X178392Y114745D01*
X178584Y114824D01*
X179000Y114547D01*
Y111500D01*
X172500Y105000D01*
X172500Y81500D01*
X174409Y79590D01*
X174365Y79135D01*
X174017Y78614D01*
X173894Y78000D01*
X174017Y77385D01*
X174365Y76865D01*
X174885Y76517D01*
X175500Y76394D01*
X176114Y76517D01*
X176635Y76865D01*
X177091Y76910D01*
X177865Y76135D01*
X177517Y75615D01*
X177394Y75000D01*
X177517Y74385D01*
X177865Y73865D01*
X178385Y73517D01*
X179000Y73394D01*
X179614Y73517D01*
X180135Y73865D01*
X180865Y73135D01*
X180517Y72615D01*
X180394Y72000D01*
X180517Y71386D01*
X180865Y70865D01*
X181386Y70517D01*
X182000Y70394D01*
X182615Y70517D01*
X183135Y70865D01*
X183489Y70511D01*
X189000Y65000D01*
X189000Y48000D01*
X186000Y45000D01*
X179000Y45000D01*
X172000Y52000D01*
Y57000D01*
X153508Y75492D01*
X153483Y75615D01*
X153135Y76135D01*
X152614Y76483D01*
X152492Y76508D01*
X135000Y94000D01*
X130000Y94000D01*
X125000Y94000D01*
X106000Y94000D01*
X103000Y97000D01*
X103000Y109000D01*
X117926Y123926D01*
X135000D01*
X135925Y124048D01*
X136787Y124405D01*
X137527Y124973D01*
X137548Y125000D01*
X149000D01*
X160000Y136000D01*
X170000Y136000D01*
D02*
G37*
G36*
X135596Y92500D02*
X152040Y76056D01*
X152213Y75984D01*
X152258Y75954D01*
X152259Y75952D01*
X152674Y75674D01*
X152952Y75259D01*
X152954Y75258D01*
X152984Y75213D01*
X153056Y75040D01*
X157500Y70596D01*
X157500Y59297D01*
X154203Y56000D01*
X149500Y56000D01*
X146000Y59500D01*
X146000Y70000D01*
X132000Y84000D01*
X111000Y84000D01*
X108000Y87000D01*
Y89500D01*
X111000Y92500D01*
X135596Y92500D01*
D02*
G37*
%LPC*%
G36*
X102500Y361924D02*
Y360500D01*
X103924D01*
X103869Y360774D01*
X103431Y361431D01*
X102774Y361869D01*
X102500Y361924D01*
D02*
G37*
G36*
X101500D02*
X101226Y361869D01*
X100569Y361431D01*
X100131Y360774D01*
X100076Y360500D01*
X101500D01*
Y361924D01*
D02*
G37*
G36*
X103924Y359500D02*
X102500D01*
Y358076D01*
X102774Y358131D01*
X103431Y358569D01*
X103869Y359226D01*
X103924Y359500D01*
D02*
G37*
G36*
X101500D02*
X100076D01*
X100131Y359226D01*
X100569Y358569D01*
X101226Y358131D01*
X101500Y358076D01*
Y359500D01*
D02*
G37*
G36*
X63663Y360397D02*
X62631Y360261D01*
X61670Y359863D01*
X61244Y359536D01*
X63663Y357117D01*
X66082Y359536D01*
X65656Y359863D01*
X64695Y360261D01*
X63663Y360397D01*
D02*
G37*
G36*
X136397D02*
X135365Y360261D01*
X134403Y359863D01*
X133978Y359536D01*
X136397Y357117D01*
X138816Y359536D01*
X138390Y359863D01*
X137429Y360261D01*
X136397Y360397D01*
D02*
G37*
G36*
X60537Y358829D02*
X60210Y358403D01*
X59812Y357442D01*
X59676Y356410D01*
X59812Y355378D01*
X60210Y354417D01*
X60537Y353991D01*
X62956Y356410D01*
X60537Y358829D01*
D02*
G37*
G36*
X133271Y358829D02*
X132944Y358403D01*
X132546Y357442D01*
X132410Y356410D01*
X132546Y355378D01*
X132944Y354417D01*
X133271Y353991D01*
X135690Y356410D01*
X133271Y358829D01*
D02*
G37*
G36*
X66789Y358829D02*
X64370Y356410D01*
X66789Y353991D01*
X67116Y354417D01*
X67514Y355378D01*
X67650Y356410D01*
X67514Y357442D01*
X67116Y358403D01*
X66789Y358829D01*
D02*
G37*
G36*
X139523Y358829D02*
X137104Y356410D01*
X139523Y353991D01*
X139849Y354417D01*
X140248Y355378D01*
X140384Y356410D01*
X140248Y357442D01*
X139849Y358403D01*
X139523Y358829D01*
D02*
G37*
G36*
X136397Y355703D02*
X133978Y353284D01*
X134403Y352957D01*
X135365Y352559D01*
X136397Y352423D01*
X137429Y352559D01*
X138390Y352957D01*
X138816Y353284D01*
X136397Y355703D01*
D02*
G37*
G36*
X63663Y355703D02*
X61244Y353284D01*
X61670Y352957D01*
X62631Y352559D01*
X63663Y352423D01*
X64695Y352559D01*
X65656Y352957D01*
X66082Y353284D01*
X63663Y355703D01*
D02*
G37*
G36*
X79000Y350924D02*
Y349500D01*
X80424D01*
X80369Y349774D01*
X79931Y350431D01*
X79274Y350869D01*
X79000Y350924D01*
D02*
G37*
G36*
X78000D02*
X77726Y350869D01*
X77069Y350431D01*
X76631Y349774D01*
X76576Y349500D01*
X78000D01*
Y350924D01*
D02*
G37*
G36*
X80424Y348500D02*
X79000D01*
Y347076D01*
X79274Y347131D01*
X79931Y347569D01*
X80369Y348226D01*
X80424Y348500D01*
D02*
G37*
G36*
X78000D02*
X76576D01*
X76631Y348226D01*
X77069Y347569D01*
X77726Y347131D01*
X78000Y347076D01*
Y348500D01*
D02*
G37*
G36*
X143468Y352913D02*
X142543Y352791D01*
X141681Y352434D01*
X140941Y351866D01*
X140373Y351126D01*
X140016Y350264D01*
X139894Y349339D01*
X140016Y348414D01*
X140373Y347552D01*
X140941Y346812D01*
X141681Y346244D01*
X142543Y345887D01*
X143468Y345765D01*
X144393Y345887D01*
X145255Y346244D01*
X145995Y346812D01*
X146563Y347552D01*
X146920Y348414D01*
X147042Y349339D01*
X146920Y350264D01*
X146563Y351126D01*
X145995Y351866D01*
X145255Y352434D01*
X144393Y352791D01*
X143468Y352913D01*
D02*
G37*
G36*
X56592D02*
X55667Y352791D01*
X54805Y352434D01*
X54065Y351866D01*
X53497Y351126D01*
X53140Y350264D01*
X53018Y349339D01*
X53140Y348414D01*
X53497Y347552D01*
X54065Y346812D01*
X54805Y346244D01*
X55667Y345887D01*
X56592Y345765D01*
X57517Y345887D01*
X58379Y346244D01*
X59119Y346812D01*
X59687Y347552D01*
X60044Y348414D01*
X60166Y349339D01*
X60044Y350264D01*
X59687Y351126D01*
X59119Y351866D01*
X58379Y352434D01*
X57517Y352791D01*
X56592Y352913D01*
D02*
G37*
G36*
X49521Y345842D02*
X48596Y345720D01*
X47734Y345363D01*
X46994Y344795D01*
X46426Y344055D01*
X46351Y343874D01*
X38268D01*
X37653Y343751D01*
X37132Y343403D01*
X37132Y343403D01*
X13792Y320063D01*
X13444Y319542D01*
X13322Y318928D01*
X13322Y318928D01*
Y296067D01*
X12822Y295821D01*
X12393Y296150D01*
X11432Y296548D01*
X10900Y296618D01*
Y292697D01*
Y288776D01*
X11432Y288846D01*
X12393Y289244D01*
X12822Y289573D01*
X13322Y289326D01*
Y285464D01*
X12822Y285305D01*
X12187Y285792D01*
X11325Y286149D01*
X10400Y286271D01*
X9475Y286149D01*
X8613Y285792D01*
X7873Y285224D01*
X7305Y284484D01*
X6948Y283622D01*
X6826Y282697D01*
X6948Y281772D01*
X7305Y280910D01*
X7873Y280170D01*
X8613Y279602D01*
X9475Y279245D01*
X10400Y279123D01*
X11325Y279245D01*
X12187Y279602D01*
X12822Y280089D01*
X13322Y279930D01*
Y277889D01*
X11506Y276074D01*
X11325Y276149D01*
X10400Y276271D01*
X9475Y276149D01*
X8613Y275792D01*
X7873Y275224D01*
X7305Y274484D01*
X6948Y273622D01*
X6826Y272697D01*
X6948Y271772D01*
X7305Y270910D01*
X7873Y270170D01*
X8613Y269602D01*
X9475Y269245D01*
X10400Y269123D01*
X11325Y269245D01*
X12187Y269602D01*
X12927Y270170D01*
X13495Y270910D01*
X13852Y271772D01*
X13974Y272697D01*
X13852Y273622D01*
X13777Y273803D01*
X15419Y275445D01*
X15881Y275254D01*
Y270448D01*
X11506Y266074D01*
X11325Y266149D01*
X10400Y266271D01*
X9475Y266149D01*
X8613Y265792D01*
X7873Y265224D01*
X7305Y264484D01*
X6948Y263622D01*
X6826Y262697D01*
X6948Y261772D01*
X7305Y260910D01*
X7873Y260170D01*
X8613Y259602D01*
X9475Y259245D01*
X10400Y259123D01*
X11325Y259245D01*
X12187Y259602D01*
X12927Y260170D01*
X13495Y260910D01*
X13852Y261772D01*
X13974Y262697D01*
X13852Y263622D01*
X13777Y263803D01*
X17978Y268004D01*
X18440Y267813D01*
Y263008D01*
X11506Y256074D01*
X11325Y256149D01*
X10400Y256271D01*
X9475Y256149D01*
X8613Y255792D01*
X7873Y255224D01*
X7305Y254484D01*
X6948Y253622D01*
X6826Y252697D01*
X6948Y251772D01*
X7305Y250910D01*
X7873Y250170D01*
X8613Y249602D01*
X9475Y249245D01*
X10400Y249123D01*
X11325Y249245D01*
X11506Y249320D01*
X14187Y246639D01*
X13879Y246240D01*
X13470Y246240D01*
X6857D01*
Y239154D01*
X13943D01*
Y245744D01*
X13943Y246176D01*
X14342Y246484D01*
X17184Y243642D01*
Y209087D01*
X16861Y208978D01*
X16684Y208950D01*
X15903Y209550D01*
X14969Y209937D01*
X13967Y210069D01*
X12965Y209937D01*
X12031Y209550D01*
X11229Y208935D01*
X10614Y208133D01*
X10227Y207199D01*
X10095Y206197D01*
X10227Y205195D01*
X10614Y204261D01*
X11229Y203459D01*
X12031Y202844D01*
X12965Y202457D01*
X13967Y202325D01*
X14969Y202457D01*
X15903Y202844D01*
X16684Y203443D01*
X16861Y203416D01*
X17184Y203306D01*
Y151374D01*
X17184Y151374D01*
X17306Y150760D01*
X17654Y150239D01*
X20345Y147548D01*
Y143291D01*
X20469Y142354D01*
X20831Y141481D01*
X21406Y140731D01*
X22156Y140155D01*
X23030Y139793D01*
X23967Y139670D01*
X24904Y139793D01*
X25778Y140155D01*
X26528Y140731D01*
X27103Y141481D01*
X27196Y141704D01*
X27720Y141664D01*
X27786Y141396D01*
X27909Y140782D01*
X28257Y140261D01*
X30937Y137581D01*
X30937Y137581D01*
X31457Y137233D01*
X32072Y137111D01*
X34618D01*
X53948Y117781D01*
X54015Y117272D01*
X54372Y116410D01*
X54940Y115670D01*
X55680Y115102D01*
X56542Y114745D01*
X57467Y114623D01*
X58392Y114745D01*
X59254Y115102D01*
X59994Y115670D01*
X60562Y116410D01*
X60919Y117272D01*
X61041Y118197D01*
X60919Y119122D01*
X60562Y119984D01*
X59994Y120724D01*
X59254Y121292D01*
X58392Y121649D01*
X57467Y121771D01*
X56542Y121649D01*
X55680Y121292D01*
X55283Y120987D01*
X36419Y139852D01*
X36304Y139929D01*
X36284Y140543D01*
X36528Y140731D01*
X37103Y141481D01*
X37196Y141704D01*
X37721Y141664D01*
X37786Y141396D01*
X37909Y140782D01*
X38257Y140261D01*
X40937Y137581D01*
X40937Y137581D01*
X41458Y137233D01*
X42072Y137111D01*
X44618D01*
X63948Y117781D01*
X64015Y117272D01*
X64372Y116410D01*
X64940Y115670D01*
X65680Y115102D01*
X66542Y114745D01*
X67467Y114623D01*
X68392Y114745D01*
X69254Y115102D01*
X69994Y115670D01*
X70562Y116410D01*
X70919Y117272D01*
X71041Y118197D01*
X70998Y118525D01*
X71471Y118758D01*
X73168Y117061D01*
X73168Y117061D01*
X73689Y116713D01*
X73924Y116667D01*
Y114654D01*
X81010D01*
Y121740D01*
X73924D01*
Y121500D01*
X73462Y121309D01*
X71147Y123624D01*
X71326Y124152D01*
X71878Y124224D01*
X72696Y124563D01*
X73398Y125102D01*
X73937Y125804D01*
X74276Y126622D01*
X74325Y127000D01*
X71000D01*
Y127500D01*
X70500D01*
Y130825D01*
X70122Y130776D01*
X69304Y130437D01*
X68602Y129898D01*
X68063Y129196D01*
X67724Y128378D01*
X67652Y127826D01*
X67124Y127647D01*
X55274Y139497D01*
X55372Y139987D01*
X55778Y140155D01*
X56528Y140731D01*
X57103Y141481D01*
X57465Y142354D01*
X57588Y143291D01*
Y149102D01*
X57465Y150040D01*
X57103Y150913D01*
X56528Y151663D01*
X55778Y152239D01*
X54904Y152601D01*
X53967Y152724D01*
X53030Y152601D01*
X52156Y152239D01*
X51498Y151734D01*
X50998Y151880D01*
Y178727D01*
X65102Y192832D01*
X65450Y193352D01*
X65573Y193967D01*
X65573Y193967D01*
Y200070D01*
X65778Y200155D01*
X66528Y200730D01*
X67103Y201481D01*
X67465Y202354D01*
X67589Y203291D01*
Y209102D01*
X67465Y210040D01*
X67103Y210913D01*
X66528Y211663D01*
X65778Y212239D01*
X64904Y212600D01*
X64082Y212709D01*
X63831Y213166D01*
X64560Y213894D01*
X69835D01*
X71511Y212218D01*
X71479Y211719D01*
X71406Y211663D01*
X70831Y210913D01*
X70469Y210040D01*
X70345Y209102D01*
Y203291D01*
X70469Y202354D01*
X70831Y201481D01*
X71406Y200730D01*
X72156Y200155D01*
X73030Y199793D01*
X73967Y199670D01*
X74904Y199793D01*
X75778Y200155D01*
X76528Y200730D01*
X77103Y201481D01*
X77465Y202354D01*
X77588Y203291D01*
Y209102D01*
X77465Y210040D01*
X77103Y210913D01*
X76528Y211663D01*
X75778Y212239D01*
X75510Y212350D01*
X75450Y212648D01*
X75102Y213168D01*
X71635Y216635D01*
X71114Y216983D01*
X70500Y217106D01*
X70500Y217106D01*
X63895D01*
X63895Y217106D01*
X63280Y216983D01*
X62760Y216635D01*
X62759Y216635D01*
X57431Y211307D01*
X57393Y211282D01*
X56812Y211293D01*
X56528Y211663D01*
X55778Y212239D01*
X54904Y212600D01*
X53967Y212724D01*
X53030Y212600D01*
X52156Y212239D01*
X51406Y211663D01*
X50831Y210913D01*
X50469Y210040D01*
X50345Y209102D01*
Y204846D01*
X47987Y202488D01*
X47513Y202721D01*
X47589Y203291D01*
Y209102D01*
X47465Y210040D01*
X47103Y210913D01*
X46528Y211663D01*
X45778Y212239D01*
X45573Y212324D01*
Y221924D01*
X46073Y222257D01*
X46451Y222182D01*
X46451Y222182D01*
X73548D01*
X82361Y213368D01*
Y212324D01*
X82156Y212239D01*
X81406Y211663D01*
X80831Y210913D01*
X80469Y210040D01*
X80345Y209102D01*
Y203291D01*
X80469Y202354D01*
X80831Y201481D01*
X81406Y200730D01*
X82156Y200155D01*
X83030Y199793D01*
X83967Y199670D01*
X84904Y199793D01*
X85778Y200155D01*
X86528Y200730D01*
X87103Y201481D01*
X87465Y202354D01*
X87589Y203291D01*
Y209102D01*
X87465Y210040D01*
X87103Y210913D01*
X86528Y211663D01*
X85778Y212239D01*
X85573Y212324D01*
Y214033D01*
X85450Y214648D01*
X85102Y215168D01*
X85102Y215168D01*
X75348Y224923D01*
X74827Y225271D01*
X74213Y225393D01*
X74213Y225393D01*
X47116D01*
X34260Y238249D01*
Y239032D01*
X35819D01*
Y243982D01*
X36281Y244173D01*
X37442Y243011D01*
X37335Y242197D01*
X37444Y241371D01*
X37763Y240600D01*
X38270Y239939D01*
X38932Y239432D01*
X39702Y239113D01*
X40528Y239004D01*
X41354Y239113D01*
X42124Y239432D01*
X42786Y239939D01*
X43293Y240600D01*
X43612Y241371D01*
X43721Y242197D01*
X43612Y243023D01*
X43293Y243793D01*
X42786Y244454D01*
X42124Y244962D01*
X41354Y245281D01*
X40528Y245390D01*
X39713Y245282D01*
X37514Y247482D01*
X36993Y247830D01*
X36378Y247952D01*
X36378Y247952D01*
X29427D01*
X28812Y247830D01*
X28291Y247482D01*
X28291Y247482D01*
X28013Y247203D01*
X27551Y247395D01*
Y247725D01*
X27606Y248000D01*
X27483Y248615D01*
X27135Y249135D01*
X26614Y249483D01*
X26000Y249606D01*
X25386Y249483D01*
X24865Y249135D01*
X24865Y249135D01*
X24810Y249081D01*
X24462Y248560D01*
X24340Y247945D01*
X24340Y247945D01*
Y237055D01*
X24340Y237055D01*
X24462Y236440D01*
X24810Y235919D01*
X32361Y228368D01*
Y212324D01*
X32156Y212239D01*
X31406Y211663D01*
X30831Y210913D01*
X30469Y210040D01*
X30345Y209102D01*
Y203291D01*
X30469Y202354D01*
X30831Y201481D01*
X31406Y200730D01*
X32156Y200155D01*
X33030Y199793D01*
X33967Y199670D01*
X34904Y199793D01*
X35778Y200155D01*
X36528Y200730D01*
X37103Y201481D01*
X37465Y202354D01*
X37589Y203291D01*
Y209102D01*
X37465Y210040D01*
X37103Y210913D01*
X36528Y211663D01*
X35778Y212239D01*
X35573Y212324D01*
Y228122D01*
X36035Y228314D01*
X42361Y221987D01*
Y212324D01*
X42156Y212239D01*
X41406Y211663D01*
X40831Y210913D01*
X40469Y210040D01*
X40345Y209102D01*
Y203291D01*
X40469Y202354D01*
X40831Y201481D01*
X41406Y200730D01*
X42156Y200155D01*
X43030Y199793D01*
X43967Y199670D01*
X44537Y199745D01*
X44771Y199271D01*
X28257Y182757D01*
X27909Y182237D01*
X27786Y181622D01*
X27786Y181622D01*
Y150570D01*
X27286Y150471D01*
X27103Y150913D01*
X26528Y151663D01*
X25778Y152239D01*
X24904Y152601D01*
X23967Y152724D01*
X23030Y152601D01*
X22156Y152239D01*
X21406Y151663D01*
X21361Y151605D01*
X20862Y151572D01*
X20395Y152039D01*
Y201262D01*
X20560Y201345D01*
X20895Y201396D01*
X21406Y200730D01*
X22156Y200155D01*
X23030Y199793D01*
X23967Y199670D01*
X24904Y199793D01*
X25778Y200155D01*
X26528Y200730D01*
X27103Y201481D01*
X27465Y202354D01*
X27588Y203291D01*
Y209102D01*
X27465Y210040D01*
X27103Y210913D01*
X26528Y211663D01*
X25778Y212239D01*
X24904Y212600D01*
X23967Y212724D01*
X23606Y213041D01*
Y252500D01*
X23483Y253115D01*
X23135Y253635D01*
X22614Y253983D01*
X22000Y254106D01*
X21385Y253983D01*
X20865Y253635D01*
X20517Y253115D01*
X20394Y252500D01*
Y245640D01*
X20025Y245485D01*
X19894Y245473D01*
X13777Y251591D01*
X13852Y251772D01*
X13974Y252697D01*
X13852Y253622D01*
X13777Y253803D01*
X21181Y261207D01*
X21181Y261207D01*
X21529Y261728D01*
X21651Y262343D01*
Y303881D01*
X36514Y318743D01*
X36514Y318743D01*
X36862Y319264D01*
X36984Y319879D01*
Y324956D01*
X37166Y325031D01*
X37906Y325599D01*
X38474Y326339D01*
X38549Y326520D01*
X161511D01*
X161586Y326339D01*
X162154Y325599D01*
X162894Y325031D01*
X163756Y324674D01*
X164681Y324552D01*
X165606Y324674D01*
X166468Y325031D01*
X167208Y325599D01*
X167776Y326339D01*
X168133Y327201D01*
X168255Y328126D01*
X168133Y329051D01*
X167776Y329913D01*
X167208Y330653D01*
X166468Y331221D01*
X165606Y331578D01*
X164681Y331700D01*
X163756Y331578D01*
X162894Y331221D01*
X162154Y330653D01*
X161586Y329913D01*
X161511Y329731D01*
X115964D01*
X115825Y330231D01*
X116334Y330894D01*
X116694Y331764D01*
X116751Y332197D01*
X113211D01*
Y333197D01*
X116751D01*
X116694Y333630D01*
X116334Y334500D01*
X116109Y334792D01*
X116330Y335241D01*
X153998D01*
X154036Y335197D01*
X154158Y334272D01*
X154515Y333410D01*
X155083Y332670D01*
X155823Y332102D01*
X156685Y331745D01*
X157610Y331623D01*
X158535Y331745D01*
X159397Y332102D01*
X160137Y332670D01*
X160705Y333410D01*
X161062Y334272D01*
X161184Y335197D01*
X161062Y336122D01*
X160705Y336984D01*
X160137Y337724D01*
X159397Y338292D01*
X158535Y338649D01*
X157610Y338771D01*
X156685Y338649D01*
X155823Y338292D01*
X155704Y338200D01*
X155509Y338330D01*
X154895Y338452D01*
X154895Y338452D01*
X151892D01*
X151793Y338952D01*
X152326Y339173D01*
X153066Y339741D01*
X153634Y340481D01*
X153991Y341343D01*
X154113Y342268D01*
X153991Y343193D01*
X153634Y344055D01*
X153066Y344795D01*
X152326Y345363D01*
X151464Y345720D01*
X150539Y345842D01*
X149614Y345720D01*
X148752Y345363D01*
X148012Y344795D01*
X147444Y344055D01*
X147369Y343874D01*
X52691D01*
X52616Y344055D01*
X52048Y344795D01*
X51308Y345363D01*
X50446Y345720D01*
X49521Y345842D01*
D02*
G37*
G36*
X171752Y326066D02*
X168347Y322660D01*
X62886D01*
X62886Y322660D01*
X62271Y322538D01*
X61750Y322190D01*
X41343Y301782D01*
X40528Y301889D01*
X39713Y301782D01*
X37514Y303982D01*
X36993Y304330D01*
X36378Y304452D01*
X36378Y304452D01*
X29427D01*
X28812Y304330D01*
X28291Y303982D01*
X28291Y303982D01*
X27369Y303059D01*
X27021Y302538D01*
X26899Y301924D01*
X26899Y301924D01*
Y295377D01*
X26899Y295377D01*
X27021Y294762D01*
X27369Y294241D01*
X47298Y274312D01*
X47298Y274312D01*
X47690Y274050D01*
X47608Y273535D01*
X47576Y273531D01*
X46806Y273212D01*
X46144Y272704D01*
X45637Y272043D01*
X45318Y271273D01*
X45209Y270447D01*
X45318Y269620D01*
X45637Y268850D01*
X46144Y268189D01*
X46806Y267682D01*
X47576Y267363D01*
X48402Y267254D01*
X49228Y267363D01*
X49998Y267682D01*
X50660Y268189D01*
X51167Y268850D01*
X51486Y269620D01*
X51595Y270447D01*
X51486Y271273D01*
X51167Y272043D01*
X50660Y272704D01*
X49998Y273212D01*
X49684Y273342D01*
X49784Y273842D01*
X54007D01*
X54176Y273342D01*
X53726Y272996D01*
X53153Y272250D01*
X52793Y271380D01*
X52736Y270947D01*
X56276D01*
Y270447D01*
X56776D01*
Y266907D01*
X57209Y266964D01*
X58079Y267324D01*
X58826Y267897D01*
X59399Y268644D01*
X59759Y269514D01*
X59807Y269879D01*
X60280Y270040D01*
X75560Y254760D01*
Y242998D01*
X75560Y242998D01*
X75683Y242383D01*
X76031Y241862D01*
X104771Y213122D01*
X104537Y212649D01*
X103967Y212724D01*
X103030Y212600D01*
X102156Y212239D01*
X101406Y211663D01*
X101361Y211605D01*
X100862Y211572D01*
X62394Y250041D01*
X61873Y250389D01*
X61258Y250511D01*
X61258Y250511D01*
X50260D01*
X34260Y266511D01*
Y267282D01*
X35819D01*
Y272232D01*
X36281Y272423D01*
X37442Y271262D01*
X37335Y270447D01*
X37444Y269620D01*
X37763Y268850D01*
X38270Y268189D01*
X38932Y267682D01*
X39702Y267363D01*
X40528Y267254D01*
X41354Y267363D01*
X42124Y267682D01*
X42786Y268189D01*
X43293Y268850D01*
X43612Y269620D01*
X43721Y270447D01*
X43612Y271273D01*
X43293Y272043D01*
X42786Y272704D01*
X42124Y273212D01*
X41354Y273531D01*
X40528Y273639D01*
X39713Y273532D01*
X37514Y275732D01*
X36993Y276080D01*
X36378Y276202D01*
X36378Y276202D01*
X29427D01*
X28812Y276080D01*
X28291Y275732D01*
X28291Y275732D01*
X27369Y274809D01*
X27021Y274288D01*
X26899Y273674D01*
X26899Y273674D01*
Y266377D01*
X26899Y266377D01*
X27021Y265762D01*
X27369Y265241D01*
X47019Y245591D01*
X46902Y245002D01*
X46806Y244962D01*
X46144Y244454D01*
X45637Y243793D01*
X45318Y243023D01*
X45209Y242197D01*
X45318Y241371D01*
X45637Y240600D01*
X46144Y239939D01*
X46806Y239432D01*
X47576Y239113D01*
X48402Y239004D01*
X49228Y239113D01*
X49998Y239432D01*
X50660Y239939D01*
X51167Y240600D01*
X51486Y241371D01*
X51595Y242197D01*
X51486Y243023D01*
X51167Y243793D01*
X50823Y244241D01*
X51070Y244741D01*
X53157D01*
X53378Y244292D01*
X53153Y244000D01*
X52793Y243130D01*
X52736Y242697D01*
X56276D01*
Y242197D01*
X56776D01*
Y238657D01*
X57209Y238714D01*
X58079Y239074D01*
X58826Y239647D01*
X59399Y240394D01*
X59759Y241264D01*
X59807Y241629D01*
X60280Y241790D01*
X90973Y211098D01*
X90831Y210913D01*
X90469Y210040D01*
X90345Y209102D01*
Y203291D01*
X90469Y202354D01*
X90831Y201481D01*
X91406Y200730D01*
X92156Y200155D01*
X93030Y199793D01*
X93967Y199670D01*
X94904Y199793D01*
X95778Y200155D01*
X96528Y200730D01*
X97103Y201481D01*
X97465Y202354D01*
X97588Y203291D01*
Y209102D01*
X97513Y209672D01*
X97987Y209906D01*
X100345Y207548D01*
Y203291D01*
X100469Y202354D01*
X100831Y201481D01*
X101406Y200730D01*
X102156Y200155D01*
X103030Y199793D01*
X103967Y199670D01*
X104904Y199793D01*
X105778Y200155D01*
X106528Y200730D01*
X107103Y201481D01*
X107465Y202354D01*
X107589Y203291D01*
Y209102D01*
X107513Y209672D01*
X107987Y209906D01*
X110345Y207548D01*
Y203291D01*
X110469Y202354D01*
X110831Y201481D01*
X111406Y200730D01*
X112156Y200155D01*
X113030Y199793D01*
X113967Y199670D01*
X114904Y199793D01*
X115778Y200155D01*
X116528Y200730D01*
X117103Y201481D01*
X117465Y202354D01*
X117588Y203291D01*
Y209102D01*
X117513Y209672D01*
X117987Y209906D01*
X120345Y207548D01*
Y203291D01*
X120469Y202354D01*
X120831Y201481D01*
X121406Y200730D01*
X122156Y200155D01*
X123030Y199793D01*
X123967Y199670D01*
X124904Y199793D01*
X125778Y200155D01*
X126528Y200730D01*
X127103Y201481D01*
X127465Y202354D01*
X127588Y203291D01*
Y209102D01*
X127465Y210040D01*
X127103Y210913D01*
X126528Y211663D01*
X125778Y212239D01*
X124904Y212600D01*
X123967Y212724D01*
X123030Y212600D01*
X122156Y212239D01*
X121406Y211663D01*
X121361Y211605D01*
X120862Y211572D01*
X108330Y224104D01*
X107809Y224452D01*
X107195Y224575D01*
X107195Y224575D01*
X102579D01*
X88584Y238570D01*
X88775Y239032D01*
X93228D01*
Y245362D01*
X86897D01*
Y240910D01*
X86435Y240718D01*
X81331Y245823D01*
Y256485D01*
X81331Y256485D01*
X81209Y257100D01*
X80861Y257621D01*
X80861Y257621D01*
X59339Y279142D01*
X58818Y279490D01*
X58204Y279612D01*
X58204Y279612D01*
X50159D01*
X34739Y295031D01*
X34946Y295532D01*
X35819D01*
Y300482D01*
X36281Y300673D01*
X37442Y299512D01*
X37335Y298697D01*
X37444Y297870D01*
X37763Y297100D01*
X38270Y296439D01*
X38932Y295932D01*
X39702Y295613D01*
X40528Y295504D01*
X41354Y295613D01*
X42124Y295932D01*
X42786Y296439D01*
X43293Y297100D01*
X43612Y297870D01*
X43721Y298697D01*
X43613Y299512D01*
X60989Y316888D01*
X61532Y316723D01*
X61631Y316226D01*
X62069Y315569D01*
X62726Y315131D01*
X63000Y315076D01*
Y317000D01*
X63500D01*
Y317500D01*
X65424D01*
X65369Y317774D01*
X64931Y318431D01*
X64274Y318869D01*
X63872Y318949D01*
X63922Y319449D01*
X168347D01*
X171752Y316044D01*
X176763Y321055D01*
X171752Y326066D01*
D02*
G37*
G36*
X65424Y316500D02*
X64000D01*
Y315076D01*
X64274Y315131D01*
X64931Y315569D01*
X65369Y316226D01*
X65424Y316500D01*
D02*
G37*
G36*
X137000Y316424D02*
Y315000D01*
X138424D01*
X138369Y315274D01*
X137931Y315931D01*
X137274Y316369D01*
X137000Y316424D01*
D02*
G37*
G36*
X136000D02*
X135726Y316369D01*
X135069Y315931D01*
X134631Y315274D01*
X134576Y315000D01*
X136000D01*
Y316424D01*
D02*
G37*
G36*
X41000Y315924D02*
Y314500D01*
X42424D01*
X42369Y314774D01*
X41931Y315431D01*
X41274Y315869D01*
X41000Y315924D01*
D02*
G37*
G36*
X40000D02*
X39726Y315869D01*
X39069Y315431D01*
X38631Y314774D01*
X38576Y314500D01*
X40000D01*
Y315924D01*
D02*
G37*
G36*
X138424Y314000D02*
X137000D01*
Y312576D01*
X137274Y312631D01*
X137931Y313069D01*
X138369Y313726D01*
X138424Y314000D01*
D02*
G37*
G36*
X136000D02*
X134576D01*
X134631Y313726D01*
X135069Y313069D01*
X135726Y312631D01*
X136000Y312576D01*
Y314000D01*
D02*
G37*
G36*
X42424Y313500D02*
X41000D01*
Y312076D01*
X41274Y312131D01*
X41931Y312569D01*
X42369Y313226D01*
X42424Y313500D01*
D02*
G37*
G36*
X40000D02*
X38576D01*
X38631Y313226D01*
X39069Y312569D01*
X39726Y312131D01*
X40000Y312076D01*
Y313500D01*
D02*
G37*
G36*
X10000Y308424D02*
Y307000D01*
X11424D01*
X11369Y307274D01*
X10931Y307931D01*
X10274Y308369D01*
X10000Y308424D01*
D02*
G37*
G36*
X9000D02*
X8726Y308369D01*
X8069Y307931D01*
X7631Y307274D01*
X7576Y307000D01*
X9000D01*
Y308424D01*
D02*
G37*
G36*
X11424Y306000D02*
X10000D01*
Y304576D01*
X10274Y304631D01*
X10931Y305069D01*
X11369Y305726D01*
X11424Y306000D01*
D02*
G37*
G36*
X9000D02*
X7576D01*
X7631Y305726D01*
X8069Y305069D01*
X8726Y304631D01*
X9000Y304576D01*
Y306000D01*
D02*
G37*
G36*
X171593Y302237D02*
Y299197D01*
X174633D01*
X174576Y299630D01*
X174215Y300500D01*
X173643Y301246D01*
X172896Y301819D01*
X172026Y302180D01*
X171593Y302237D01*
D02*
G37*
G36*
X170593D02*
X170160Y302180D01*
X169290Y301819D01*
X168543Y301246D01*
X167970Y300500D01*
X167610Y299630D01*
X167553Y299197D01*
X170593D01*
Y302237D01*
D02*
G37*
G36*
X114184D02*
Y299197D01*
X117224D01*
X117167Y299630D01*
X116807Y300500D01*
X116234Y301246D01*
X115487Y301819D01*
X114618Y302180D01*
X114184Y302237D01*
D02*
G37*
G36*
X113184D02*
X112751Y302180D01*
X111882Y301819D01*
X111135Y301246D01*
X110562Y300500D01*
X110202Y299630D01*
X110145Y299197D01*
X113184D01*
Y302237D01*
D02*
G37*
G36*
X56776D02*
Y299197D01*
X59816D01*
X59759Y299630D01*
X59399Y300500D01*
X58826Y301246D01*
X58079Y301819D01*
X57209Y302180D01*
X56776Y302237D01*
D02*
G37*
G36*
X55776D02*
X55343Y302180D01*
X54473Y301819D01*
X53726Y301246D01*
X53153Y300500D01*
X52793Y299630D01*
X52736Y299197D01*
X55776D01*
Y302237D01*
D02*
G37*
G36*
X93228Y301862D02*
X86897D01*
Y295532D01*
X93228D01*
Y301862D01*
D02*
G37*
G36*
X163219Y301889D02*
X162393Y301781D01*
X161623Y301462D01*
X160961Y300954D01*
X160454Y300293D01*
X160135Y299523D01*
X160026Y298697D01*
X160135Y297870D01*
X160454Y297100D01*
X160961Y296439D01*
X161623Y295932D01*
X162393Y295613D01*
X163219Y295504D01*
X164045Y295613D01*
X164815Y295932D01*
X165476Y296439D01*
X165984Y297100D01*
X166303Y297870D01*
X166412Y298697D01*
X166303Y299523D01*
X165984Y300293D01*
X165476Y300954D01*
X164815Y301462D01*
X164045Y301781D01*
X163219Y301889D01*
D02*
G37*
G36*
X105810D02*
X104984Y301781D01*
X104214Y301462D01*
X103553Y300954D01*
X103045Y300293D01*
X102727Y299523D01*
X102618Y298697D01*
X102727Y297870D01*
X103045Y297100D01*
X103553Y296439D01*
X104214Y295932D01*
X104984Y295613D01*
X105810Y295504D01*
X106637Y295613D01*
X107407Y295932D01*
X108068Y296439D01*
X108575Y297100D01*
X108894Y297870D01*
X109003Y298697D01*
X108894Y299523D01*
X108575Y300293D01*
X108068Y300954D01*
X107407Y301462D01*
X106637Y301781D01*
X105810Y301889D01*
D02*
G37*
G36*
X97936D02*
X97110Y301781D01*
X96340Y301462D01*
X95679Y300954D01*
X95171Y300293D01*
X94853Y299523D01*
X94744Y298697D01*
X94853Y297870D01*
X95171Y297100D01*
X95679Y296439D01*
X96340Y295932D01*
X97110Y295613D01*
X97936Y295504D01*
X98763Y295613D01*
X99533Y295932D01*
X100194Y296439D01*
X100701Y297100D01*
X101020Y297870D01*
X101129Y298697D01*
X101020Y299523D01*
X100701Y300293D01*
X100194Y300954D01*
X99533Y301462D01*
X98763Y301781D01*
X97936Y301889D01*
D02*
G37*
G36*
X48402D02*
X47576Y301781D01*
X46806Y301462D01*
X46144Y300954D01*
X45637Y300293D01*
X45318Y299523D01*
X45209Y298697D01*
X45318Y297870D01*
X45637Y297100D01*
X46144Y296439D01*
X46806Y295932D01*
X47576Y295613D01*
X48402Y295504D01*
X49228Y295613D01*
X49998Y295932D01*
X50660Y296439D01*
X51167Y297100D01*
X51486Y297870D01*
X51595Y298697D01*
X51486Y299523D01*
X51167Y300293D01*
X50660Y300954D01*
X49998Y301462D01*
X49228Y301781D01*
X48402Y301889D01*
D02*
G37*
G36*
X174633Y298197D02*
X171593D01*
Y295157D01*
X172026Y295214D01*
X172896Y295574D01*
X173643Y296147D01*
X174215Y296894D01*
X174576Y297764D01*
X174633Y298197D01*
D02*
G37*
G36*
X170593D02*
X167553D01*
X167610Y297764D01*
X167970Y296894D01*
X168543Y296147D01*
X169290Y295574D01*
X170160Y295214D01*
X170593Y295157D01*
Y298197D01*
D02*
G37*
G36*
X117224D02*
X114184D01*
Y295157D01*
X114618Y295214D01*
X115487Y295574D01*
X116234Y296147D01*
X116807Y296894D01*
X117167Y297764D01*
X117224Y298197D01*
D02*
G37*
G36*
X113184D02*
X110145D01*
X110202Y297764D01*
X110562Y296894D01*
X111135Y296147D01*
X111882Y295574D01*
X112751Y295214D01*
X113184Y295157D01*
Y298197D01*
D02*
G37*
G36*
X59816D02*
X56776D01*
Y295157D01*
X57209Y295214D01*
X58079Y295574D01*
X58826Y296147D01*
X59399Y296894D01*
X59759Y297764D01*
X59816Y298197D01*
D02*
G37*
G36*
X55776D02*
X52736D01*
X52793Y297764D01*
X53153Y296894D01*
X53726Y296147D01*
X54473Y295574D01*
X55343Y295214D01*
X55776Y295157D01*
Y298197D01*
D02*
G37*
G36*
X9900Y296618D02*
X9368Y296548D01*
X8407Y296150D01*
X7581Y295516D01*
X6947Y294690D01*
X6549Y293729D01*
X6479Y293197D01*
X9900D01*
Y296618D01*
D02*
G37*
G36*
Y292197D02*
X6479D01*
X6549Y291665D01*
X6947Y290703D01*
X7581Y289878D01*
X8407Y289244D01*
X9368Y288846D01*
X9900Y288776D01*
Y292197D01*
D02*
G37*
G36*
X137000Y284424D02*
Y283000D01*
X138424D01*
X138369Y283274D01*
X137931Y283931D01*
X137274Y284369D01*
X137000Y284424D01*
D02*
G37*
G36*
X136000D02*
X135726Y284369D01*
X135069Y283931D01*
X134631Y283274D01*
X134576Y283000D01*
X136000D01*
Y284424D01*
D02*
G37*
G36*
X76000Y283424D02*
Y282000D01*
X77424D01*
X77369Y282274D01*
X76931Y282931D01*
X76274Y283369D01*
X76000Y283424D01*
D02*
G37*
G36*
X75000D02*
X74726Y283369D01*
X74069Y282931D01*
X73631Y282274D01*
X73576Y282000D01*
X75000D01*
Y283424D01*
D02*
G37*
G36*
X138424Y282000D02*
X137000D01*
Y280576D01*
X137274Y280631D01*
X137931Y281069D01*
X138369Y281726D01*
X138424Y282000D01*
D02*
G37*
G36*
X136000D02*
X134576D01*
X134631Y281726D01*
X135069Y281069D01*
X135726Y280631D01*
X136000Y280576D01*
Y282000D01*
D02*
G37*
G36*
X77424Y281000D02*
X76000D01*
Y279576D01*
X76274Y279631D01*
X76931Y280069D01*
X77369Y280726D01*
X77424Y281000D01*
D02*
G37*
G36*
X75000D02*
X73576D01*
X73631Y280726D01*
X74069Y280069D01*
X74726Y279631D01*
X75000Y279576D01*
Y281000D01*
D02*
G37*
G36*
X171593Y273987D02*
Y270947D01*
X174633D01*
X174576Y271380D01*
X174215Y272250D01*
X173643Y272996D01*
X172896Y273569D01*
X172026Y273930D01*
X171593Y273987D01*
D02*
G37*
G36*
X170593D02*
X170160Y273930D01*
X169290Y273569D01*
X168543Y272996D01*
X167970Y272250D01*
X167610Y271380D01*
X167553Y270947D01*
X170593D01*
Y273987D01*
D02*
G37*
G36*
X114184D02*
Y270947D01*
X117224D01*
X117167Y271380D01*
X116807Y272250D01*
X116234Y272996D01*
X115487Y273569D01*
X114618Y273930D01*
X114184Y273987D01*
D02*
G37*
G36*
X113184D02*
X112751Y273930D01*
X111882Y273569D01*
X111135Y272996D01*
X110562Y272250D01*
X110202Y271380D01*
X110145Y270947D01*
X113184D01*
Y273987D01*
D02*
G37*
G36*
X93228Y273612D02*
X86897D01*
Y267282D01*
X93228D01*
Y273612D01*
D02*
G37*
G36*
X163219Y273639D02*
X162393Y273531D01*
X161623Y273212D01*
X160961Y272704D01*
X160454Y272043D01*
X160135Y271273D01*
X160026Y270447D01*
X160135Y269620D01*
X160454Y268850D01*
X160961Y268189D01*
X161623Y267682D01*
X162393Y267363D01*
X163219Y267254D01*
X164045Y267363D01*
X164815Y267682D01*
X165476Y268189D01*
X165984Y268850D01*
X166303Y269620D01*
X166412Y270447D01*
X166303Y271273D01*
X165984Y272043D01*
X165476Y272704D01*
X164815Y273212D01*
X164045Y273531D01*
X163219Y273639D01*
D02*
G37*
G36*
X105810D02*
X104984Y273531D01*
X104214Y273212D01*
X103553Y272704D01*
X103045Y272043D01*
X102727Y271273D01*
X102618Y270447D01*
X102727Y269620D01*
X103045Y268850D01*
X103553Y268189D01*
X104214Y267682D01*
X104984Y267363D01*
X105810Y267254D01*
X106637Y267363D01*
X107407Y267682D01*
X108068Y268189D01*
X108575Y268850D01*
X108894Y269620D01*
X109003Y270447D01*
X108894Y271273D01*
X108575Y272043D01*
X108068Y272704D01*
X107407Y273212D01*
X106637Y273531D01*
X105810Y273639D01*
D02*
G37*
G36*
X97936D02*
X97110Y273531D01*
X96340Y273212D01*
X95679Y272704D01*
X95171Y272043D01*
X94853Y271273D01*
X94744Y270447D01*
X94853Y269620D01*
X95171Y268850D01*
X95679Y268189D01*
X96340Y267682D01*
X97110Y267363D01*
X97936Y267254D01*
X98763Y267363D01*
X99533Y267682D01*
X100194Y268189D01*
X100701Y268850D01*
X101020Y269620D01*
X101129Y270447D01*
X101020Y271273D01*
X100701Y272043D01*
X100194Y272704D01*
X99533Y273212D01*
X98763Y273531D01*
X97936Y273639D01*
D02*
G37*
G36*
X174633Y269947D02*
X171593D01*
Y266907D01*
X172026Y266964D01*
X172896Y267324D01*
X173643Y267897D01*
X174215Y268644D01*
X174576Y269514D01*
X174633Y269947D01*
D02*
G37*
G36*
X170593D02*
X167553D01*
X167610Y269514D01*
X167970Y268644D01*
X168543Y267897D01*
X169290Y267324D01*
X170160Y266964D01*
X170593Y266907D01*
Y269947D01*
D02*
G37*
G36*
X117224D02*
X114184D01*
Y266907D01*
X114618Y266964D01*
X115487Y267324D01*
X116234Y267897D01*
X116807Y268644D01*
X117167Y269514D01*
X117224Y269947D01*
D02*
G37*
G36*
X113184D02*
X110145D01*
X110202Y269514D01*
X110562Y268644D01*
X111135Y267897D01*
X111882Y267324D01*
X112751Y266964D01*
X113184Y266907D01*
Y269947D01*
D02*
G37*
G36*
X55776D02*
X52736D01*
X52793Y269514D01*
X53153Y268644D01*
X53726Y267897D01*
X54473Y267324D01*
X55343Y266964D01*
X55776Y266907D01*
Y269947D01*
D02*
G37*
G36*
X196500Y262924D02*
Y261500D01*
X197924D01*
X197869Y261774D01*
X197431Y262431D01*
X196774Y262869D01*
X196500Y262924D01*
D02*
G37*
G36*
X195500D02*
X195226Y262869D01*
X194569Y262431D01*
X194131Y261774D01*
X194076Y261500D01*
X195500D01*
Y262924D01*
D02*
G37*
G36*
X197924Y260500D02*
X196500D01*
Y259076D01*
X196774Y259131D01*
X197431Y259569D01*
X197869Y260226D01*
X197924Y260500D01*
D02*
G37*
G36*
X195500D02*
X194076D01*
X194131Y260226D01*
X194569Y259569D01*
X195226Y259131D01*
X195500Y259076D01*
Y260500D01*
D02*
G37*
G36*
X103500Y255424D02*
Y254000D01*
X104924D01*
X104869Y254274D01*
X104431Y254931D01*
X103774Y255369D01*
X103500Y255424D01*
D02*
G37*
G36*
X102500D02*
X102226Y255369D01*
X101569Y254931D01*
X101131Y254274D01*
X101076Y254000D01*
X102500D01*
Y255424D01*
D02*
G37*
G36*
X104924Y253000D02*
X103500D01*
Y251576D01*
X103774Y251631D01*
X104431Y252069D01*
X104869Y252726D01*
X104924Y253000D01*
D02*
G37*
G36*
X102500D02*
X101076D01*
X101131Y252726D01*
X101569Y252069D01*
X102226Y251631D01*
X102500Y251576D01*
Y253000D01*
D02*
G37*
G36*
X171593Y245737D02*
Y242697D01*
X174633D01*
X174576Y243130D01*
X174215Y244000D01*
X173643Y244746D01*
X172896Y245319D01*
X172026Y245680D01*
X171593Y245737D01*
D02*
G37*
G36*
X170593D02*
X170160Y245680D01*
X169290Y245319D01*
X168543Y244746D01*
X167970Y244000D01*
X167610Y243130D01*
X167553Y242697D01*
X170593D01*
Y245737D01*
D02*
G37*
G36*
X114184D02*
Y242697D01*
X117224D01*
X117167Y243130D01*
X116807Y244000D01*
X116234Y244746D01*
X115487Y245319D01*
X114618Y245680D01*
X114184Y245737D01*
D02*
G37*
G36*
X113184D02*
X112751Y245680D01*
X111882Y245319D01*
X111135Y244746D01*
X110562Y244000D01*
X110202Y243130D01*
X110145Y242697D01*
X113184D01*
Y245737D01*
D02*
G37*
G36*
X163219Y245390D02*
X162393Y245281D01*
X161623Y244962D01*
X160961Y244454D01*
X160454Y243793D01*
X160135Y243023D01*
X160026Y242197D01*
X160135Y241371D01*
X160454Y240600D01*
X160961Y239939D01*
X161623Y239432D01*
X162393Y239113D01*
X163219Y239004D01*
X164045Y239113D01*
X164815Y239432D01*
X165476Y239939D01*
X165984Y240600D01*
X166303Y241371D01*
X166412Y242197D01*
X166303Y243023D01*
X165984Y243793D01*
X165476Y244454D01*
X164815Y244962D01*
X164045Y245281D01*
X163219Y245390D01*
D02*
G37*
G36*
X105810D02*
X104984Y245281D01*
X104214Y244962D01*
X103553Y244454D01*
X103045Y243793D01*
X102727Y243023D01*
X102618Y242197D01*
X102727Y241371D01*
X103045Y240600D01*
X103553Y239939D01*
X104214Y239432D01*
X104984Y239113D01*
X105810Y239004D01*
X106637Y239113D01*
X107407Y239432D01*
X108068Y239939D01*
X108575Y240600D01*
X108894Y241371D01*
X109003Y242197D01*
X108894Y243023D01*
X108575Y243793D01*
X108068Y244454D01*
X107407Y244962D01*
X106637Y245281D01*
X105810Y245390D01*
D02*
G37*
G36*
X97936D02*
X97110Y245281D01*
X96340Y244962D01*
X95679Y244454D01*
X95171Y243793D01*
X94853Y243023D01*
X94744Y242197D01*
X94853Y241371D01*
X95171Y240600D01*
X95679Y239939D01*
X96340Y239432D01*
X97110Y239113D01*
X97936Y239004D01*
X98763Y239113D01*
X99533Y239432D01*
X100194Y239939D01*
X100701Y240600D01*
X101020Y241371D01*
X101129Y242197D01*
X101020Y243023D01*
X100701Y243793D01*
X100194Y244454D01*
X99533Y244962D01*
X98763Y245281D01*
X97936Y245390D01*
D02*
G37*
G36*
X174633Y241697D02*
X171593D01*
Y238657D01*
X172026Y238714D01*
X172896Y239074D01*
X173643Y239647D01*
X174215Y240394D01*
X174576Y241264D01*
X174633Y241697D01*
D02*
G37*
G36*
X170593D02*
X167553D01*
X167610Y241264D01*
X167970Y240394D01*
X168543Y239647D01*
X169290Y239074D01*
X170160Y238714D01*
X170593Y238657D01*
Y241697D01*
D02*
G37*
G36*
X117224D02*
X114184D01*
Y238657D01*
X114618Y238714D01*
X115487Y239074D01*
X116234Y239647D01*
X116807Y240394D01*
X117167Y241264D01*
X117224Y241697D01*
D02*
G37*
G36*
X113184D02*
X110145D01*
X110202Y241264D01*
X110562Y240394D01*
X111135Y239647D01*
X111882Y239074D01*
X112751Y238714D01*
X113184Y238657D01*
Y241697D01*
D02*
G37*
G36*
X55776D02*
X52736D01*
X52793Y241264D01*
X53153Y240394D01*
X53726Y239647D01*
X54473Y239074D01*
X55343Y238714D01*
X55776Y238657D01*
Y241697D01*
D02*
G37*
G36*
X11000Y231924D02*
Y230500D01*
X12424D01*
X12369Y230774D01*
X11931Y231431D01*
X11274Y231869D01*
X11000Y231924D01*
D02*
G37*
G36*
X10000D02*
X9726Y231869D01*
X9069Y231431D01*
X8631Y230774D01*
X8576Y230500D01*
X10000D01*
Y231924D01*
D02*
G37*
G36*
X12424Y229500D02*
X11000D01*
Y228076D01*
X11274Y228131D01*
X11931Y228569D01*
X12369Y229226D01*
X12424Y229500D01*
D02*
G37*
G36*
X10000D02*
X8576D01*
X8631Y229226D01*
X9069Y228569D01*
X9726Y228131D01*
X10000Y228076D01*
Y229500D01*
D02*
G37*
G36*
X131500Y222924D02*
Y221500D01*
X132924D01*
X132869Y221774D01*
X132431Y222431D01*
X131774Y222869D01*
X131500Y222924D01*
D02*
G37*
G36*
X130500D02*
X130226Y222869D01*
X129569Y222431D01*
X129131Y221774D01*
X129076Y221500D01*
X130500D01*
Y222924D01*
D02*
G37*
G36*
X160500Y222424D02*
Y221000D01*
X161924D01*
X161869Y221274D01*
X161431Y221931D01*
X160774Y222369D01*
X160500Y222424D01*
D02*
G37*
G36*
X159500D02*
X159226Y222369D01*
X158569Y221931D01*
X158131Y221274D01*
X158076Y221000D01*
X159500D01*
Y222424D01*
D02*
G37*
G36*
X132924Y220500D02*
X131500D01*
Y219076D01*
X131774Y219131D01*
X132431Y219569D01*
X132869Y220226D01*
X132924Y220500D01*
D02*
G37*
G36*
X130500D02*
X129076D01*
X129131Y220226D01*
X129569Y219569D01*
X130226Y219131D01*
X130500Y219076D01*
Y220500D01*
D02*
G37*
G36*
X161924Y220000D02*
X160500D01*
Y218576D01*
X160774Y218631D01*
X161431Y219069D01*
X161869Y219726D01*
X161924Y220000D01*
D02*
G37*
G36*
X159500D02*
X158076D01*
X158131Y219726D01*
X158569Y219069D01*
X159226Y218631D01*
X159500Y218576D01*
Y220000D01*
D02*
G37*
G36*
X155345Y301889D02*
X154519Y301781D01*
X153749Y301462D01*
X153087Y300954D01*
X152580Y300293D01*
X152261Y299523D01*
X152152Y298697D01*
X152261Y297870D01*
X152580Y297100D01*
X153087Y296439D01*
X153739Y295939D01*
Y273205D01*
X153087Y272704D01*
X152580Y272043D01*
X152261Y271273D01*
X152152Y270447D01*
X152261Y269620D01*
X152580Y268850D01*
X153087Y268189D01*
X153739Y267689D01*
Y244955D01*
X153087Y244454D01*
X152580Y243793D01*
X152261Y243023D01*
X152152Y242197D01*
X152261Y241371D01*
X152580Y240600D01*
X153087Y239939D01*
X153739Y239439D01*
Y220010D01*
X148257Y214528D01*
X147909Y214007D01*
X147786Y213392D01*
X147786Y213392D01*
Y210570D01*
X147286Y210471D01*
X147103Y210913D01*
X146528Y211663D01*
X145778Y212239D01*
X144904Y212600D01*
X143967Y212724D01*
X143086Y212608D01*
X142980Y212715D01*
X142830Y213059D01*
X148606Y218835D01*
X148954Y219356D01*
X149076Y219971D01*
X149076Y219971D01*
Y239032D01*
X150636D01*
Y245362D01*
X149076D01*
Y267282D01*
X150636D01*
Y273612D01*
X149076D01*
Y295532D01*
X150636D01*
Y301862D01*
X144306D01*
Y295532D01*
X145865D01*
Y273612D01*
X144306D01*
Y267282D01*
X145865D01*
Y245362D01*
X144306D01*
Y239032D01*
X145865D01*
Y220636D01*
X138257Y213028D01*
X137909Y212507D01*
X137786Y211892D01*
X137786Y211892D01*
Y211517D01*
X137286Y211347D01*
X136820Y211955D01*
X135984Y212596D01*
X135011Y212999D01*
X134467Y213071D01*
Y206197D01*
X133967D01*
Y205697D01*
X129932D01*
Y203291D01*
X130070Y202247D01*
X130473Y201274D01*
X131114Y200438D01*
X131950Y199797D01*
X132923Y199394D01*
X133801Y199279D01*
X134023Y198794D01*
X93417Y158187D01*
X93069Y157667D01*
X92946Y157052D01*
X93069Y156438D01*
X93417Y155917D01*
X93937Y155569D01*
X94552Y155446D01*
X95166Y155569D01*
X95687Y155917D01*
X140527Y200757D01*
X140527Y200757D01*
X140634Y200916D01*
X141126Y200978D01*
X141249Y200936D01*
X141406Y200730D01*
X142156Y200155D01*
X143030Y199793D01*
X143967Y199670D01*
X144537Y199745D01*
X144771Y199271D01*
X97071Y151572D01*
X96573Y151605D01*
X96528Y151663D01*
X95778Y152239D01*
X94904Y152601D01*
X93967Y152724D01*
X93030Y152601D01*
X92156Y152239D01*
X91406Y151663D01*
X90831Y150913D01*
X90469Y150040D01*
X90345Y149102D01*
Y143291D01*
X90469Y142354D01*
X90831Y141481D01*
X91406Y140731D01*
X92156Y140155D01*
X93030Y139793D01*
X93967Y139670D01*
X94904Y139793D01*
X95778Y140155D01*
X96528Y140731D01*
X97103Y141481D01*
X97465Y142354D01*
X97588Y143291D01*
Y147548D01*
X99947Y149906D01*
X100420Y149672D01*
X100345Y149102D01*
Y143291D01*
X100469Y142354D01*
X100831Y141481D01*
X101406Y140731D01*
X102156Y140155D01*
X103030Y139793D01*
X103967Y139670D01*
X104904Y139793D01*
X105778Y140155D01*
X106528Y140731D01*
X107103Y141481D01*
X107465Y142354D01*
X107589Y143291D01*
Y149102D01*
X107465Y150040D01*
X107103Y150913D01*
X106528Y151663D01*
X105778Y152239D01*
X104904Y152601D01*
X103967Y152724D01*
X103397Y152649D01*
X103163Y153122D01*
X150528Y200487D01*
X150730Y200790D01*
X151304Y200848D01*
X151321Y200842D01*
X151406Y200730D01*
X152156Y200155D01*
X153030Y199793D01*
X153967Y199670D01*
X154904Y199793D01*
X155778Y200155D01*
X156528Y200730D01*
X157103Y201481D01*
X157465Y202354D01*
X157589Y203291D01*
Y209102D01*
X157465Y210040D01*
X157103Y210913D01*
X156528Y211663D01*
X155778Y212239D01*
X154904Y212600D01*
X153967Y212724D01*
X153030Y212600D01*
X152156Y212239D01*
X151498Y211734D01*
X150998Y211880D01*
Y212727D01*
X156480Y218210D01*
X156480Y218210D01*
X156828Y218730D01*
X156950Y219345D01*
X156950Y219345D01*
Y239439D01*
X157602Y239939D01*
X158110Y240600D01*
X158429Y241371D01*
X158537Y242197D01*
X158429Y243023D01*
X158110Y243793D01*
X157602Y244454D01*
X156950Y244955D01*
Y267689D01*
X157602Y268189D01*
X158110Y268850D01*
X158429Y269620D01*
X158537Y270447D01*
X158429Y271273D01*
X158110Y272043D01*
X157602Y272704D01*
X156950Y273205D01*
Y295939D01*
X157602Y296439D01*
X158110Y297100D01*
X158429Y297870D01*
X158537Y298697D01*
X158429Y299523D01*
X158110Y300293D01*
X157602Y300954D01*
X156941Y301462D01*
X156171Y301781D01*
X155345Y301889D01*
D02*
G37*
G36*
X133467Y213071D02*
X132923Y212999D01*
X131950Y212596D01*
X131114Y211955D01*
X130473Y211120D01*
X130070Y210147D01*
X129932Y209102D01*
Y206697D01*
X133467D01*
Y213071D01*
D02*
G37*
G36*
X173967Y210069D02*
X172965Y209937D01*
X172031Y209550D01*
X171229Y208935D01*
X170614Y208133D01*
X170227Y207199D01*
X170095Y206197D01*
X170227Y205195D01*
X170614Y204261D01*
X171229Y203459D01*
X172031Y202844D01*
X172965Y202457D01*
X173967Y202325D01*
X174969Y202457D01*
X175903Y202844D01*
X176705Y203459D01*
X177320Y204261D01*
X177707Y205195D01*
X177839Y206197D01*
X177707Y207199D01*
X177320Y208133D01*
X176705Y208935D01*
X175903Y209550D01*
X174969Y209937D01*
X173967Y210069D01*
D02*
G37*
G36*
X163967Y212724D02*
X163030Y212600D01*
X162156Y212239D01*
X161406Y211663D01*
X160831Y210913D01*
X160469Y210040D01*
X160345Y209102D01*
Y203291D01*
X160469Y202354D01*
X160831Y201481D01*
X161406Y200730D01*
X162156Y200155D01*
X163030Y199793D01*
X163967Y199670D01*
X164904Y199793D01*
X165778Y200155D01*
X166528Y200730D01*
X167103Y201481D01*
X167465Y202354D01*
X167588Y203291D01*
Y209102D01*
X167465Y210040D01*
X167103Y210913D01*
X166528Y211663D01*
X165778Y212239D01*
X164904Y212600D01*
X163967Y212724D01*
D02*
G37*
G36*
X107500Y194424D02*
Y193000D01*
X108924D01*
X108869Y193274D01*
X108431Y193931D01*
X107774Y194369D01*
X107500Y194424D01*
D02*
G37*
G36*
X106500D02*
X106226Y194369D01*
X105569Y193931D01*
X105131Y193274D01*
X105076Y193000D01*
X106500D01*
Y194424D01*
D02*
G37*
G36*
X108924Y192000D02*
X107500D01*
Y190576D01*
X107774Y190631D01*
X108431Y191069D01*
X108869Y191726D01*
X108924Y192000D01*
D02*
G37*
G36*
X106500D02*
X105076D01*
X105131Y191726D01*
X105569Y191069D01*
X106226Y190631D01*
X106500Y190576D01*
Y192000D01*
D02*
G37*
G36*
X163000Y189924D02*
Y188500D01*
X164424D01*
X164369Y188774D01*
X163931Y189431D01*
X163274Y189869D01*
X163000Y189924D01*
D02*
G37*
G36*
X162000D02*
X161726Y189869D01*
X161069Y189431D01*
X160631Y188774D01*
X160576Y188500D01*
X162000D01*
Y189924D01*
D02*
G37*
G36*
X164424Y187500D02*
X163000D01*
Y186076D01*
X163274Y186131D01*
X163931Y186569D01*
X164369Y187226D01*
X164424Y187500D01*
D02*
G37*
G36*
X162000D02*
X160576D01*
X160631Y187226D01*
X161069Y186569D01*
X161726Y186131D01*
X162000Y186076D01*
Y187500D01*
D02*
G37*
G36*
X14000Y181424D02*
Y180000D01*
X15424D01*
X15369Y180274D01*
X14931Y180931D01*
X14274Y181369D01*
X14000Y181424D01*
D02*
G37*
G36*
X13000D02*
X12726Y181369D01*
X12069Y180931D01*
X11631Y180274D01*
X11576Y180000D01*
X13000D01*
Y181424D01*
D02*
G37*
G36*
X55500Y180924D02*
Y179500D01*
X56924D01*
X56869Y179774D01*
X56431Y180431D01*
X55774Y180869D01*
X55500Y180924D01*
D02*
G37*
G36*
X54500D02*
X54226Y180869D01*
X53569Y180431D01*
X53131Y179774D01*
X53076Y179500D01*
X54500D01*
Y180924D01*
D02*
G37*
G36*
X15424Y179000D02*
X14000D01*
Y177576D01*
X14274Y177631D01*
X14931Y178069D01*
X15369Y178726D01*
X15424Y179000D01*
D02*
G37*
G36*
X13000D02*
X11576D01*
X11631Y178726D01*
X12069Y178069D01*
X12726Y177631D01*
X13000Y177576D01*
Y179000D01*
D02*
G37*
G36*
X103500Y178924D02*
Y177500D01*
X104924D01*
X104869Y177774D01*
X104431Y178431D01*
X103774Y178869D01*
X103500Y178924D01*
D02*
G37*
G36*
X102500D02*
X102226Y178869D01*
X101569Y178431D01*
X101131Y177774D01*
X101076Y177500D01*
X102500D01*
Y178924D01*
D02*
G37*
G36*
X56924Y178500D02*
X55500D01*
Y177076D01*
X55774Y177131D01*
X56431Y177569D01*
X56869Y178226D01*
X56924Y178500D01*
D02*
G37*
G36*
X54500D02*
X53076D01*
X53131Y178226D01*
X53569Y177569D01*
X54226Y177131D01*
X54500Y177076D01*
Y178500D01*
D02*
G37*
G36*
X104924Y176500D02*
X103500D01*
Y175076D01*
X103774Y175131D01*
X104431Y175569D01*
X104869Y176226D01*
X104924Y176500D01*
D02*
G37*
G36*
X102500D02*
X101076D01*
X101131Y176226D01*
X101569Y175569D01*
X102226Y175131D01*
X102500Y175076D01*
Y176500D01*
D02*
G37*
G36*
X154500Y173924D02*
Y172500D01*
X155924D01*
X155869Y172774D01*
X155431Y173431D01*
X154774Y173869D01*
X154500Y173924D01*
D02*
G37*
G36*
X153500D02*
X153226Y173869D01*
X152569Y173431D01*
X152131Y172774D01*
X152076Y172500D01*
X153500D01*
Y173924D01*
D02*
G37*
G36*
X155924Y171500D02*
X154500D01*
Y170076D01*
X154774Y170131D01*
X155431Y170569D01*
X155869Y171226D01*
X155924Y171500D01*
D02*
G37*
G36*
X153500D02*
X152076D01*
X152131Y171226D01*
X152569Y170569D01*
X153226Y170131D01*
X153500Y170076D01*
Y171500D01*
D02*
G37*
G36*
X141500Y168106D02*
X140885Y167983D01*
X140365Y167635D01*
X140017Y167114D01*
X139894Y166500D01*
X140017Y165885D01*
X140365Y165365D01*
X140885Y165017D01*
X141500Y164894D01*
X142114Y165017D01*
X142635Y165365D01*
X142983Y165885D01*
X143106Y166500D01*
X142983Y167114D01*
X142635Y167635D01*
X142114Y167983D01*
X141500Y168106D01*
D02*
G37*
G36*
X154467Y153071D02*
Y146697D01*
X158001D01*
Y149102D01*
X157864Y150147D01*
X157461Y151120D01*
X156820Y151955D01*
X155984Y152596D01*
X155011Y152999D01*
X154467Y153071D01*
D02*
G37*
G36*
X153467D02*
X152923Y152999D01*
X151950Y152596D01*
X151114Y151955D01*
X150473Y151120D01*
X150070Y150147D01*
X149932Y149102D01*
Y146697D01*
X153467D01*
Y153071D01*
D02*
G37*
G36*
X13967Y150069D02*
X12965Y149937D01*
X12031Y149550D01*
X11229Y148935D01*
X10614Y148133D01*
X10227Y147199D01*
X10095Y146197D01*
X10227Y145195D01*
X10614Y144261D01*
X11229Y143459D01*
X12031Y142844D01*
X12965Y142457D01*
X13967Y142325D01*
X14969Y142457D01*
X15903Y142844D01*
X16705Y143459D01*
X17320Y144261D01*
X17707Y145195D01*
X17839Y146197D01*
X17707Y147199D01*
X17320Y148133D01*
X16705Y148935D01*
X15903Y149550D01*
X14969Y149937D01*
X13967Y150069D01*
D02*
G37*
G36*
X143967Y152724D02*
X143030Y152601D01*
X142156Y152239D01*
X141406Y151663D01*
X140831Y150913D01*
X140469Y150040D01*
X140345Y149102D01*
Y143291D01*
X140469Y142354D01*
X140831Y141481D01*
X141406Y140731D01*
X142156Y140155D01*
X143030Y139793D01*
X143967Y139670D01*
X144904Y139793D01*
X145778Y140155D01*
X146528Y140731D01*
X147103Y141481D01*
X147465Y142354D01*
X147589Y143291D01*
Y149102D01*
X147465Y150040D01*
X147103Y150913D01*
X146528Y151663D01*
X145778Y152239D01*
X144904Y152601D01*
X143967Y152724D01*
D02*
G37*
G36*
X113967D02*
X113030Y152601D01*
X112156Y152239D01*
X111406Y151663D01*
X110831Y150913D01*
X110469Y150040D01*
X110345Y149102D01*
Y143291D01*
X110469Y142354D01*
X110831Y141481D01*
X111406Y140731D01*
X112156Y140155D01*
X113030Y139793D01*
X113967Y139670D01*
X114904Y139793D01*
X115778Y140155D01*
X116528Y140731D01*
X117103Y141481D01*
X117465Y142354D01*
X117588Y143291D01*
Y149102D01*
X117465Y150040D01*
X117103Y150913D01*
X116528Y151663D01*
X115778Y152239D01*
X114904Y152601D01*
X113967Y152724D01*
D02*
G37*
G36*
X83967D02*
X83030Y152601D01*
X82156Y152239D01*
X81406Y151663D01*
X80831Y150913D01*
X80469Y150040D01*
X80345Y149102D01*
Y143291D01*
X80469Y142354D01*
X80831Y141481D01*
X81406Y140731D01*
X82156Y140155D01*
X83030Y139793D01*
X83967Y139670D01*
X84904Y139793D01*
X85778Y140155D01*
X86528Y140731D01*
X87103Y141481D01*
X87465Y142354D01*
X87589Y143291D01*
Y149102D01*
X87465Y150040D01*
X87103Y150913D01*
X86528Y151663D01*
X85778Y152239D01*
X84904Y152601D01*
X83967Y152724D01*
D02*
G37*
G36*
X73967D02*
X73030Y152601D01*
X72156Y152239D01*
X71406Y151663D01*
X70831Y150913D01*
X70469Y150040D01*
X70345Y149102D01*
Y143291D01*
X70469Y142354D01*
X70831Y141481D01*
X71406Y140731D01*
X72156Y140155D01*
X73030Y139793D01*
X73967Y139670D01*
X74904Y139793D01*
X75778Y140155D01*
X76528Y140731D01*
X77103Y141481D01*
X77465Y142354D01*
X77588Y143291D01*
Y149102D01*
X77465Y150040D01*
X77103Y150913D01*
X76528Y151663D01*
X75778Y152239D01*
X74904Y152601D01*
X73967Y152724D01*
D02*
G37*
G36*
X63967D02*
X63030Y152601D01*
X62156Y152239D01*
X61406Y151663D01*
X60831Y150913D01*
X60469Y150040D01*
X60345Y149102D01*
Y143291D01*
X60469Y142354D01*
X60831Y141481D01*
X61406Y140731D01*
X62156Y140155D01*
X63030Y139793D01*
X63967Y139670D01*
X64904Y139793D01*
X65778Y140155D01*
X66528Y140731D01*
X67103Y141481D01*
X67465Y142354D01*
X67589Y143291D01*
Y149102D01*
X67465Y150040D01*
X67103Y150913D01*
X66528Y151663D01*
X65778Y152239D01*
X64904Y152601D01*
X63967Y152724D01*
D02*
G37*
G36*
X158001Y145697D02*
X154467D01*
Y139323D01*
X155011Y139394D01*
X155984Y139797D01*
X156820Y140438D01*
X157461Y141274D01*
X157864Y142247D01*
X158001Y143291D01*
Y145697D01*
D02*
G37*
G36*
X153467D02*
X149932D01*
Y143291D01*
X150070Y142247D01*
X150473Y141274D01*
X151114Y140438D01*
X151950Y139797D01*
X152923Y139394D01*
X153467Y139323D01*
Y145697D01*
D02*
G37*
G36*
X71500Y130825D02*
Y128000D01*
X74325D01*
X74276Y128378D01*
X73937Y129196D01*
X73398Y129898D01*
X72696Y130437D01*
X71878Y130776D01*
X71500Y130825D01*
D02*
G37*
G36*
X112424Y121500D02*
X111000D01*
Y120076D01*
X111274Y120131D01*
X111931Y120569D01*
X112369Y121226D01*
X112424Y121500D01*
D02*
G37*
G36*
X110000D02*
X108576D01*
X108631Y121226D01*
X109069Y120569D01*
X109726Y120131D01*
X110000Y120076D01*
Y121500D01*
D02*
G37*
G36*
X27967Y122118D02*
Y118697D01*
X31388D01*
X31318Y119229D01*
X30920Y120190D01*
X30286Y121016D01*
X29460Y121650D01*
X28499Y122048D01*
X27967Y122118D01*
D02*
G37*
G36*
X26967D02*
X26435Y122048D01*
X25473Y121650D01*
X24648Y121016D01*
X24014Y120190D01*
X23616Y119229D01*
X23546Y118697D01*
X26967D01*
Y122118D01*
D02*
G37*
G36*
X47467Y121771D02*
X46542Y121649D01*
X45680Y121292D01*
X44940Y120724D01*
X44372Y119984D01*
X44015Y119122D01*
X43893Y118197D01*
X44015Y117272D01*
X44372Y116410D01*
X44940Y115670D01*
X45680Y115102D01*
X46542Y114745D01*
X47467Y114623D01*
X48392Y114745D01*
X49254Y115102D01*
X49994Y115670D01*
X50562Y116410D01*
X50919Y117272D01*
X51041Y118197D01*
X50919Y119122D01*
X50562Y119984D01*
X49994Y120724D01*
X49254Y121292D01*
X48392Y121649D01*
X47467Y121771D01*
D02*
G37*
G36*
X37467D02*
X36542Y121649D01*
X35680Y121292D01*
X34940Y120724D01*
X34372Y119984D01*
X34015Y119122D01*
X33893Y118197D01*
X34015Y117272D01*
X34372Y116410D01*
X34940Y115670D01*
X35680Y115102D01*
X36542Y114745D01*
X37467Y114623D01*
X38392Y114745D01*
X39254Y115102D01*
X39994Y115670D01*
X40562Y116410D01*
X40919Y117272D01*
X41041Y118197D01*
X40919Y119122D01*
X40562Y119984D01*
X39994Y120724D01*
X39254Y121292D01*
X38392Y121649D01*
X37467Y121771D01*
D02*
G37*
G36*
X17467D02*
X16542Y121649D01*
X15680Y121292D01*
X14940Y120724D01*
X14372Y119984D01*
X14015Y119122D01*
X13893Y118197D01*
X14015Y117272D01*
X14372Y116410D01*
X14940Y115670D01*
X15680Y115102D01*
X16542Y114745D01*
X17467Y114623D01*
X18392Y114745D01*
X19254Y115102D01*
X19994Y115670D01*
X20562Y116410D01*
X20919Y117272D01*
X21041Y118197D01*
X20919Y119122D01*
X20562Y119984D01*
X19994Y120724D01*
X19254Y121292D01*
X18392Y121649D01*
X17467Y121771D01*
D02*
G37*
G36*
X31388Y117697D02*
X27967D01*
Y114276D01*
X28499Y114346D01*
X29460Y114744D01*
X30286Y115378D01*
X30920Y116203D01*
X31318Y117165D01*
X31388Y117697D01*
D02*
G37*
G36*
X26967D02*
X23546D01*
X23616Y117165D01*
X24014Y116203D01*
X24648Y115378D01*
X25473Y114744D01*
X26435Y114346D01*
X26967Y114276D01*
Y117697D01*
D02*
G37*
G36*
X189000Y115606D02*
X188385Y115483D01*
X187865Y115135D01*
X187517Y114614D01*
X187394Y114000D01*
X187517Y113385D01*
X187865Y112865D01*
X188385Y112517D01*
X189000Y112394D01*
X189614Y112517D01*
X190135Y112865D01*
X190483Y113385D01*
X190606Y114000D01*
X190483Y114614D01*
X190135Y115135D01*
X189614Y115483D01*
X189000Y115606D01*
D02*
G37*
G36*
X72500Y108924D02*
Y107500D01*
X73924D01*
X73869Y107774D01*
X73431Y108431D01*
X72774Y108869D01*
X72500Y108924D01*
D02*
G37*
G36*
X71500D02*
X71226Y108869D01*
X70569Y108431D01*
X70131Y107774D01*
X70076Y107500D01*
X71500D01*
Y108924D01*
D02*
G37*
G36*
X45858Y109897D02*
X43834Y107873D01*
X45858Y105849D01*
X47882Y107873D01*
X45858Y109897D01*
D02*
G37*
G36*
X73924Y106500D02*
X72500D01*
Y105076D01*
X72774Y105131D01*
X73431Y105569D01*
X73869Y106226D01*
X73924Y106500D01*
D02*
G37*
G36*
X71500D02*
X70076D01*
X70131Y106226D01*
X70569Y105569D01*
X71226Y105131D01*
X71500Y105076D01*
Y106500D01*
D02*
G37*
G36*
X43127Y107166D02*
X41103Y105142D01*
X43127Y103118D01*
X45151Y105142D01*
X43127Y107166D01*
D02*
G37*
G36*
X48589D02*
X46565Y105142D01*
X48589Y103118D01*
X50613Y105142D01*
X48589Y107166D01*
D02*
G37*
G36*
X45858Y104435D02*
X43834Y102411D01*
X45858Y100387D01*
X47882Y102411D01*
X45858Y104435D01*
D02*
G37*
G36*
X202500Y99924D02*
X202226Y99869D01*
X201889Y99644D01*
X201500Y99463D01*
X201111Y99644D01*
X200774Y99869D01*
X200500Y99924D01*
Y98000D01*
Y96076D01*
X200774Y96131D01*
X201111Y96356D01*
X201500Y96537D01*
X201889Y96356D01*
X202226Y96131D01*
X202500Y96076D01*
Y98000D01*
Y99924D01*
D02*
G37*
G36*
X196000D02*
X195726Y99869D01*
X195389Y99644D01*
X195000Y99463D01*
X194611Y99644D01*
X194274Y99869D01*
X194000Y99924D01*
Y98000D01*
Y96076D01*
X194274Y96131D01*
X194611Y96356D01*
X195000Y96537D01*
X195389Y96356D01*
X195726Y96131D01*
X196000Y96076D01*
Y98000D01*
Y99924D01*
D02*
G37*
G36*
X199500D02*
X199226Y99869D01*
X198569Y99431D01*
X198500Y99327D01*
X198000D01*
X197931Y99431D01*
X197274Y99869D01*
X197000Y99924D01*
Y98000D01*
Y96076D01*
X197274Y96131D01*
X197931Y96569D01*
X198000Y96673D01*
X198500D01*
X198569Y96569D01*
X199226Y96131D01*
X199500Y96076D01*
Y98000D01*
Y99924D01*
D02*
G37*
G36*
X203500D02*
Y98500D01*
X204924D01*
X204869Y98774D01*
X204431Y99431D01*
X203774Y99869D01*
X203500Y99924D01*
D02*
G37*
G36*
X193000D02*
X192726Y99869D01*
X192069Y99431D01*
X191631Y98774D01*
X191576Y98500D01*
X193000D01*
Y99924D01*
D02*
G37*
G36*
X204924Y97500D02*
X203500D01*
Y96076D01*
X203774Y96131D01*
X204431Y96569D01*
X204869Y97226D01*
X204924Y97500D01*
D02*
G37*
G36*
X193000D02*
X191576D01*
X191631Y97226D01*
X192069Y96569D01*
X192726Y96131D01*
X193000Y96076D01*
Y97500D01*
D02*
G37*
G36*
X92744Y95534D02*
X92470Y95479D01*
X91813Y95041D01*
X91375Y94384D01*
X91334Y94177D01*
X90824D01*
X90782Y94384D01*
X90344Y95041D01*
X89688Y95479D01*
X89413Y95534D01*
Y93610D01*
X88913D01*
Y93110D01*
X86990D01*
X87044Y92836D01*
X87483Y92180D01*
X88139Y91741D01*
X88347Y91700D01*
Y91190D01*
X88139Y91149D01*
X87483Y90710D01*
X87044Y90054D01*
X86990Y89780D01*
X88913D01*
Y88779D01*
X86990D01*
X87044Y88505D01*
X87483Y87849D01*
X88139Y87410D01*
X88347Y87369D01*
Y86859D01*
X88139Y86818D01*
X87483Y86379D01*
X87044Y85723D01*
X86990Y85449D01*
X88913D01*
Y84949D01*
X89413D01*
Y83025D01*
X89688Y83080D01*
X90344Y83518D01*
X90782Y84175D01*
X90824Y84382D01*
X91334D01*
X91375Y84175D01*
X91813Y83518D01*
X92470Y83080D01*
X92744Y83025D01*
Y84949D01*
X93244D01*
Y85449D01*
X95168D01*
X95113Y85723D01*
X94675Y86379D01*
X94018Y86818D01*
X93810Y86859D01*
Y87369D01*
X94018Y87410D01*
X94675Y87849D01*
X95113Y88505D01*
X95168Y88779D01*
X93244D01*
Y89780D01*
X95168D01*
X95113Y90054D01*
X94675Y90710D01*
X94018Y91149D01*
X93810Y91190D01*
Y91700D01*
X94018Y91741D01*
X94675Y92180D01*
X95113Y92836D01*
X95168Y93110D01*
X93244D01*
Y93610D01*
X92744D01*
Y95534D01*
D02*
G37*
G36*
X93744D02*
Y94110D01*
X95168D01*
X95113Y94384D01*
X94675Y95041D01*
X94018Y95479D01*
X93744Y95534D01*
D02*
G37*
G36*
X88413D02*
X88139Y95479D01*
X87483Y95041D01*
X87044Y94384D01*
X86990Y94110D01*
X88413D01*
Y95534D01*
D02*
G37*
G36*
X42924Y90500D02*
X41500D01*
Y89076D01*
X41774Y89131D01*
X42431Y89569D01*
X42869Y90226D01*
X42924Y90500D01*
D02*
G37*
G36*
X40500D02*
X39076D01*
X39131Y90226D01*
X39569Y89569D01*
X40226Y89131D01*
X40500Y89076D01*
Y90500D01*
D02*
G37*
G36*
X75000Y89606D02*
X74385Y89483D01*
X73865Y89135D01*
X73517Y88614D01*
X73394Y88000D01*
X73517Y87385D01*
X73865Y86865D01*
X74385Y86517D01*
X75000Y86394D01*
X75615Y86517D01*
X76135Y86865D01*
X76483Y87385D01*
X76606Y88000D01*
X76483Y88614D01*
X76135Y89135D01*
X75615Y89483D01*
X75000Y89606D01*
D02*
G37*
G36*
X95168Y84449D02*
X93744D01*
Y83025D01*
X94018Y83080D01*
X94675Y83518D01*
X95113Y84175D01*
X95168Y84449D01*
D02*
G37*
G36*
X88413D02*
X86990D01*
X87044Y84175D01*
X87483Y83518D01*
X88139Y83080D01*
X88413Y83025D01*
Y84449D01*
D02*
G37*
G36*
X75000Y84106D02*
X74385Y83983D01*
X73865Y83635D01*
X73517Y83114D01*
X73394Y82500D01*
X73517Y81885D01*
X73865Y81365D01*
X74385Y81017D01*
X75000Y80894D01*
X75615Y81017D01*
X76135Y81365D01*
X76483Y81885D01*
X76606Y82500D01*
X76483Y83114D01*
X76135Y83635D01*
X75615Y83983D01*
X75000Y84106D01*
D02*
G37*
G36*
X182500Y79924D02*
Y78500D01*
X183924D01*
X183869Y78774D01*
X183431Y79431D01*
X182774Y79869D01*
X182500Y79924D01*
D02*
G37*
G36*
X181500D02*
X181226Y79869D01*
X180569Y79431D01*
X180131Y78774D01*
X180076Y78500D01*
X181500D01*
Y79924D01*
D02*
G37*
G36*
X43858Y87653D02*
X38847Y82642D01*
X43858Y77631D01*
X48869Y82642D01*
X43858Y87653D01*
D02*
G37*
G36*
X183924Y77500D02*
X182500D01*
Y76076D01*
X182774Y76131D01*
X183431Y76569D01*
X183869Y77226D01*
X183924Y77500D01*
D02*
G37*
G36*
X50929Y79145D02*
X50004Y79023D01*
X49142Y78666D01*
X48402Y78098D01*
X47834Y77358D01*
X47477Y76496D01*
X47355Y75571D01*
X47477Y74646D01*
X47834Y73784D01*
X48402Y73044D01*
X49142Y72476D01*
X50004Y72119D01*
X50929Y71997D01*
X51854Y72119D01*
X52716Y72476D01*
X53456Y73044D01*
X54024Y73784D01*
X54381Y74646D01*
X54503Y75571D01*
X54381Y76496D01*
X54024Y77358D01*
X53456Y78098D01*
X52716Y78666D01*
X51854Y79023D01*
X50929Y79145D01*
D02*
G37*
G36*
X58000Y72487D02*
X56968Y72351D01*
X56007Y71953D01*
X55581Y71626D01*
X58000Y69207D01*
X60419Y71626D01*
X59993Y71953D01*
X59032Y72351D01*
X58000Y72487D01*
D02*
G37*
G36*
X54874Y70919D02*
X54547Y70493D01*
X54149Y69532D01*
X54013Y68500D01*
X54149Y67468D01*
X54547Y66507D01*
X54874Y66081D01*
X57293Y68500D01*
X54874Y70919D01*
D02*
G37*
G36*
X61126D02*
X58707Y68500D01*
X61126Y66081D01*
X61453Y66507D01*
X61851Y67468D01*
X61987Y68500D01*
X61851Y69532D01*
X61453Y70493D01*
X61126Y70919D01*
D02*
G37*
G36*
X58000Y67793D02*
X55581Y65374D01*
X56007Y65047D01*
X56968Y64649D01*
X58000Y64513D01*
X59032Y64649D01*
X59993Y65047D01*
X60419Y65374D01*
X58000Y67793D01*
D02*
G37*
G36*
X136000Y60924D02*
Y59500D01*
X137424D01*
X137369Y59774D01*
X136931Y60431D01*
X136274Y60869D01*
X136000Y60924D01*
D02*
G37*
G36*
X135000D02*
X134726Y60869D01*
X134069Y60431D01*
X133631Y59774D01*
X133576Y59500D01*
X135000D01*
Y60924D01*
D02*
G37*
G36*
X137424Y58500D02*
X136000D01*
Y57076D01*
X136274Y57131D01*
X136931Y57569D01*
X137369Y58226D01*
X137424Y58500D01*
D02*
G37*
G36*
X135000D02*
X133576D01*
X133631Y58226D01*
X134069Y57569D01*
X134726Y57131D01*
X135000Y57076D01*
Y58500D01*
D02*
G37*
G36*
X123000Y57424D02*
Y56000D01*
X124424D01*
X124369Y56274D01*
X123931Y56931D01*
X123274Y57369D01*
X123000Y57424D01*
D02*
G37*
G36*
X122000D02*
X121726Y57369D01*
X121069Y56931D01*
X120631Y56274D01*
X120576Y56000D01*
X122000D01*
Y57424D01*
D02*
G37*
G36*
X124424Y55000D02*
X123000D01*
Y53576D01*
X123274Y53631D01*
X123931Y54069D01*
X124369Y54726D01*
X124424Y55000D01*
D02*
G37*
G36*
X122000D02*
X120576D01*
X120631Y54726D01*
X121069Y54069D01*
X121726Y53631D01*
X122000Y53576D01*
Y55000D01*
D02*
G37*
G36*
X115500Y47924D02*
Y46500D01*
X116924D01*
X116869Y46774D01*
X116431Y47431D01*
X115774Y47869D01*
X115500Y47924D01*
D02*
G37*
G36*
X114500D02*
X114226Y47869D01*
X113569Y47431D01*
X113131Y46774D01*
X113076Y46500D01*
X114500D01*
Y47924D01*
D02*
G37*
G36*
X116924Y45500D02*
X115500D01*
Y44076D01*
X115774Y44131D01*
X116431Y44569D01*
X116869Y45226D01*
X116924Y45500D01*
D02*
G37*
G36*
X114500D02*
X113076D01*
X113131Y45226D01*
X113569Y44569D01*
X114226Y44131D01*
X114500Y44076D01*
Y45500D01*
D02*
G37*
G36*
X85000Y46574D02*
X84075Y46452D01*
X83213Y46095D01*
X82473Y45527D01*
X81905Y44787D01*
X81548Y43925D01*
X81426Y43000D01*
X81548Y42075D01*
X81905Y41213D01*
X82473Y40473D01*
X83213Y39905D01*
X84075Y39548D01*
X85000Y39426D01*
X85925Y39548D01*
X86787Y39905D01*
X87527Y40473D01*
X88095Y41213D01*
X88452Y42075D01*
X88574Y43000D01*
X88452Y43925D01*
X88095Y44787D01*
X87527Y45527D01*
X86787Y46095D01*
X85925Y46452D01*
X85000Y46574D01*
D02*
G37*
G36*
X137967Y42118D02*
Y38697D01*
X141388D01*
X141318Y39229D01*
X140920Y40190D01*
X140286Y41016D01*
X139460Y41650D01*
X138499Y42048D01*
X137967Y42118D01*
D02*
G37*
G36*
X136967D02*
X136435Y42048D01*
X135474Y41650D01*
X134648Y41016D01*
X134014Y40190D01*
X133616Y39229D01*
X133546Y38697D01*
X136967D01*
Y42118D01*
D02*
G37*
G36*
X92071Y41519D02*
X89630Y39077D01*
X92071Y36636D01*
X94512Y39077D01*
X92071Y41519D01*
D02*
G37*
G36*
X121010Y41740D02*
X113924D01*
Y34654D01*
X121010D01*
Y41740D01*
D02*
G37*
G36*
X167467Y41771D02*
X166542Y41649D01*
X165680Y41292D01*
X164940Y40724D01*
X164372Y39984D01*
X164015Y39122D01*
X163893Y38197D01*
X164015Y37272D01*
X164372Y36410D01*
X164940Y35670D01*
X165680Y35102D01*
X166542Y34745D01*
X167467Y34623D01*
X168392Y34745D01*
X169254Y35102D01*
X169994Y35670D01*
X170562Y36410D01*
X170919Y37272D01*
X171041Y38197D01*
X170919Y39122D01*
X170562Y39984D01*
X169994Y40724D01*
X169254Y41292D01*
X168392Y41649D01*
X167467Y41771D01*
D02*
G37*
G36*
X157467D02*
X156542Y41649D01*
X155680Y41292D01*
X154940Y40724D01*
X154372Y39984D01*
X154015Y39122D01*
X153893Y38197D01*
X154015Y37272D01*
X154372Y36410D01*
X154940Y35670D01*
X155680Y35102D01*
X156542Y34745D01*
X157467Y34623D01*
X158392Y34745D01*
X159254Y35102D01*
X159994Y35670D01*
X160562Y36410D01*
X160919Y37272D01*
X161041Y38197D01*
X160919Y39122D01*
X160562Y39984D01*
X159994Y40724D01*
X159254Y41292D01*
X158392Y41649D01*
X157467Y41771D01*
D02*
G37*
G36*
X147467D02*
X146542Y41649D01*
X145680Y41292D01*
X144940Y40724D01*
X144372Y39984D01*
X144015Y39122D01*
X143893Y38197D01*
X144015Y37272D01*
X144372Y36410D01*
X144940Y35670D01*
X145680Y35102D01*
X146542Y34745D01*
X147467Y34623D01*
X148392Y34745D01*
X149254Y35102D01*
X149994Y35670D01*
X150562Y36410D01*
X150919Y37272D01*
X151041Y38197D01*
X150919Y39122D01*
X150562Y39984D01*
X149994Y40724D01*
X149254Y41292D01*
X148392Y41649D01*
X147467Y41771D01*
D02*
G37*
G36*
X127467D02*
X126542Y41649D01*
X125680Y41292D01*
X124940Y40724D01*
X124372Y39984D01*
X124015Y39122D01*
X123893Y38197D01*
X124015Y37272D01*
X124372Y36410D01*
X124940Y35670D01*
X125680Y35102D01*
X126542Y34745D01*
X127467Y34623D01*
X128392Y34745D01*
X129254Y35102D01*
X129994Y35670D01*
X130562Y36410D01*
X130919Y37272D01*
X131041Y38197D01*
X130919Y39122D01*
X130562Y39984D01*
X129994Y40724D01*
X129254Y41292D01*
X128392Y41649D01*
X127467Y41771D01*
D02*
G37*
G36*
X141388Y37697D02*
X137967D01*
Y34276D01*
X138499Y34346D01*
X139460Y34744D01*
X140286Y35378D01*
X140920Y36203D01*
X141318Y37165D01*
X141388Y37697D01*
D02*
G37*
G36*
X136967D02*
X133546D01*
X133616Y37165D01*
X134014Y36203D01*
X134648Y35378D01*
X135474Y34744D01*
X136435Y34346D01*
X136967Y34276D01*
Y37697D01*
D02*
G37*
G36*
X95220Y38370D02*
X92778Y35929D01*
X95220Y33487D01*
X97661Y35929D01*
X95220Y38370D01*
D02*
G37*
G36*
X88923D02*
X86481Y35929D01*
X88923Y33487D01*
X91364Y35929D01*
X88923Y38370D01*
D02*
G37*
G36*
X92071Y35222D02*
X89630Y32780D01*
X92071Y30339D01*
X94512Y32780D01*
X92071Y35222D01*
D02*
G37*
G36*
X177467Y41771D02*
X176542Y41649D01*
X175680Y41292D01*
X174940Y40724D01*
X174372Y39984D01*
X174015Y39122D01*
X173893Y38197D01*
X174015Y37272D01*
X174372Y36410D01*
X174940Y35670D01*
X175680Y35102D01*
X175861Y35027D01*
Y20240D01*
X173924D01*
Y13154D01*
X181010D01*
Y20240D01*
X179073D01*
Y35027D01*
X179254Y35102D01*
X179994Y35670D01*
X180562Y36410D01*
X180919Y37272D01*
X181041Y38197D01*
X180919Y39122D01*
X180562Y39984D01*
X179994Y40724D01*
X179254Y41292D01*
X178392Y41649D01*
X177467Y41771D01*
D02*
G37*
G36*
X197467D02*
X196542Y41649D01*
X195680Y41292D01*
X194940Y40724D01*
X194372Y39984D01*
X194015Y39122D01*
X193893Y38197D01*
X194015Y37272D01*
X194372Y36410D01*
X194940Y35670D01*
X195680Y35102D01*
X195861Y35027D01*
Y19867D01*
X195680Y19792D01*
X194940Y19224D01*
X194372Y18484D01*
X194015Y17622D01*
X193893Y16697D01*
X194015Y15772D01*
X194372Y14910D01*
X194940Y14170D01*
X195680Y13602D01*
X196542Y13245D01*
X197467Y13123D01*
X198392Y13245D01*
X199254Y13602D01*
X199994Y14170D01*
X200562Y14910D01*
X200919Y15772D01*
X201041Y16697D01*
X200919Y17622D01*
X200562Y18484D01*
X199994Y19224D01*
X199254Y19792D01*
X199073Y19867D01*
Y35027D01*
X199254Y35102D01*
X199994Y35670D01*
X200562Y36410D01*
X200919Y37272D01*
X201041Y38197D01*
X200919Y39122D01*
X200562Y39984D01*
X199994Y40724D01*
X199254Y41292D01*
X198392Y41649D01*
X197467Y41771D01*
D02*
G37*
G36*
X187467D02*
X186542Y41649D01*
X185680Y41292D01*
X184940Y40724D01*
X184372Y39984D01*
X184015Y39122D01*
X183893Y38197D01*
X184015Y37272D01*
X184372Y36410D01*
X184940Y35670D01*
X185680Y35102D01*
X185861Y35027D01*
Y19867D01*
X185680Y19792D01*
X184940Y19224D01*
X184372Y18484D01*
X184015Y17622D01*
X183893Y16697D01*
X184015Y15772D01*
X184372Y14910D01*
X184940Y14170D01*
X185680Y13602D01*
X186542Y13245D01*
X187467Y13123D01*
X188392Y13245D01*
X189254Y13602D01*
X189994Y14170D01*
X190562Y14910D01*
X190919Y15772D01*
X191041Y16697D01*
X190919Y17622D01*
X190562Y18484D01*
X189994Y19224D01*
X189254Y19792D01*
X189073Y19867D01*
Y35027D01*
X189254Y35102D01*
X189994Y35670D01*
X190562Y36410D01*
X190919Y37272D01*
X191041Y38197D01*
X190919Y39122D01*
X190562Y39984D01*
X189994Y40724D01*
X189254Y41292D01*
X188392Y41649D01*
X187467Y41771D01*
D02*
G37*
%LPD*%
G36*
X46426Y340481D02*
X46994Y339741D01*
X47734Y339173D01*
X48596Y338816D01*
X49521Y338694D01*
X50446Y338816D01*
X51308Y339173D01*
X52048Y339741D01*
X52616Y340481D01*
X52691Y340662D01*
X147369D01*
X147444Y340481D01*
X148012Y339741D01*
X148752Y339173D01*
X149285Y338952D01*
X149186Y338452D01*
X80047D01*
X80047Y338452D01*
X79433Y338330D01*
X78912Y337982D01*
X77733Y336803D01*
X45620D01*
X45545Y336984D01*
X44977Y337724D01*
X44237Y338292D01*
X43375Y338649D01*
X42450Y338771D01*
X41525Y338649D01*
X40663Y338292D01*
X39923Y337724D01*
X39355Y336984D01*
X39280Y336803D01*
X36047D01*
X36047Y336803D01*
X35714Y336736D01*
X35468Y337197D01*
X38933Y340662D01*
X46351D01*
X46426Y340481D01*
D02*
G37*
G36*
X86424Y329731D02*
X38549D01*
X38474Y329913D01*
X37906Y330653D01*
X37166Y331221D01*
X36304Y331578D01*
X35510Y331682D01*
X35269Y332149D01*
X36712Y333591D01*
X39280D01*
X39355Y333410D01*
X39923Y332670D01*
X40663Y332102D01*
X41525Y331745D01*
X42450Y331623D01*
X43375Y331745D01*
X44237Y332102D01*
X44977Y332670D01*
X45545Y333410D01*
X45620Y333591D01*
X78398D01*
X78398Y333591D01*
X79012Y333713D01*
X79533Y334062D01*
X80712Y335241D01*
X86424D01*
Y329731D01*
D02*
G37*
G36*
X33640Y320688D02*
X33682Y320452D01*
X19554Y306325D01*
X19092Y306516D01*
Y315971D01*
X23736Y320615D01*
X28308Y316044D01*
X33105Y320841D01*
X33640Y320688D01*
D02*
G37*
G36*
X51361Y200789D02*
X51406Y200730D01*
X52156Y200155D01*
X53030Y199793D01*
X53967Y199670D01*
X54904Y199793D01*
X55778Y200155D01*
X56436Y200660D01*
X56936Y200514D01*
Y196207D01*
X38257Y177527D01*
X37909Y177007D01*
X37786Y176392D01*
X37786Y176392D01*
Y150570D01*
X37286Y150471D01*
X37103Y150913D01*
X36528Y151663D01*
X35778Y152239D01*
X34904Y152601D01*
X33967Y152724D01*
X33030Y152601D01*
X32156Y152239D01*
X31498Y151734D01*
X30998Y151880D01*
Y175228D01*
X31498Y175577D01*
X31500Y175576D01*
Y177500D01*
Y179424D01*
X31498Y179423D01*
X30998Y179772D01*
Y180957D01*
X50862Y200822D01*
X51361Y200789D01*
D02*
G37*
G36*
X60831Y201481D02*
X61406Y200730D01*
X62156Y200155D01*
X62361Y200070D01*
Y194632D01*
X48257Y180527D01*
X47909Y180007D01*
X47787Y179392D01*
X47787Y179392D01*
Y150570D01*
X47286Y150471D01*
X47103Y150913D01*
X46528Y151663D01*
X45778Y152239D01*
X44904Y152601D01*
X43967Y152724D01*
X43030Y152601D01*
X42156Y152239D01*
X41498Y151734D01*
X40998Y151880D01*
Y175727D01*
X59677Y194406D01*
X59677Y194406D01*
X60025Y194927D01*
X60147Y195542D01*
Y201823D01*
X60647Y201923D01*
X60831Y201481D01*
D02*
G37*
G36*
X47721Y141664D02*
X47787Y141396D01*
X47909Y140782D01*
X48257Y140261D01*
X50937Y137581D01*
X50937Y137581D01*
X51458Y137233D01*
X52072Y137111D01*
X53118D01*
X68028Y122201D01*
X67795Y121728D01*
X67467Y121771D01*
X66542Y121649D01*
X65680Y121292D01*
X65283Y120987D01*
X46419Y139852D01*
X46304Y139929D01*
X46284Y140543D01*
X46528Y140731D01*
X47103Y141481D01*
X47196Y141704D01*
X47721Y141664D01*
D02*
G37*
%LPC*%
G36*
X32500Y179424D02*
Y178000D01*
X33924D01*
X33869Y178274D01*
X33431Y178931D01*
X32774Y179369D01*
X32500Y179424D01*
D02*
G37*
G36*
X33924Y177000D02*
X32500D01*
Y175576D01*
X32774Y175631D01*
X33431Y176069D01*
X33869Y176726D01*
X33924Y177000D01*
D02*
G37*
%LPD*%
G36*
X101913Y221363D02*
X101914Y221363D01*
X106530D01*
X114771Y213122D01*
X114537Y212649D01*
X113967Y212724D01*
X113030Y212600D01*
X112156Y212239D01*
X111406Y211663D01*
X111361Y211605D01*
X110862Y211572D01*
X101498Y220936D01*
X101745Y221397D01*
X101913Y221363D01*
D02*
G37*
G36*
X94771Y213122D02*
X94537Y212649D01*
X93967Y212724D01*
X93897Y212715D01*
X59774Y246838D01*
X59965Y247300D01*
X60593D01*
X94771Y213122D01*
D02*
G37*
%LPC*%
G36*
X131010Y121740D02*
X123924D01*
Y114654D01*
X131010D01*
Y121740D01*
D02*
G37*
G36*
X167467Y121771D02*
X166542Y121649D01*
X165680Y121292D01*
X164940Y120724D01*
X164372Y119984D01*
X164015Y119122D01*
X163893Y118197D01*
X164015Y117272D01*
X164372Y116410D01*
X164940Y115670D01*
X165680Y115102D01*
X166542Y114745D01*
X167467Y114623D01*
X168392Y114745D01*
X169254Y115102D01*
X169994Y115670D01*
X170562Y116410D01*
X170919Y117272D01*
X171041Y118197D01*
X170919Y119122D01*
X170562Y119984D01*
X169994Y120724D01*
X169254Y121292D01*
X168392Y121649D01*
X167467Y121771D01*
D02*
G37*
G36*
X157467D02*
X156542Y121649D01*
X155680Y121292D01*
X154940Y120724D01*
X154372Y119984D01*
X154015Y119122D01*
X153893Y118197D01*
X154015Y117272D01*
X154372Y116410D01*
X154940Y115670D01*
X155680Y115102D01*
X156542Y114745D01*
X157467Y114623D01*
X158392Y114745D01*
X159254Y115102D01*
X159994Y115670D01*
X160562Y116410D01*
X160919Y117272D01*
X161041Y118197D01*
X160919Y119122D01*
X160562Y119984D01*
X159994Y120724D01*
X159254Y121292D01*
X158392Y121649D01*
X157467Y121771D01*
D02*
G37*
G36*
X147467D02*
X146542Y121649D01*
X145680Y121292D01*
X144940Y120724D01*
X144372Y119984D01*
X144015Y119122D01*
X143893Y118197D01*
X144015Y117272D01*
X144372Y116410D01*
X144940Y115670D01*
X145680Y115102D01*
X146542Y114745D01*
X147467Y114623D01*
X148392Y114745D01*
X149254Y115102D01*
X149994Y115670D01*
X150562Y116410D01*
X150919Y117272D01*
X151041Y118197D01*
X150919Y119122D01*
X150562Y119984D01*
X149994Y120724D01*
X149254Y121292D01*
X148392Y121649D01*
X147467Y121771D01*
D02*
G37*
G36*
X137467D02*
X136542Y121649D01*
X135680Y121292D01*
X134940Y120724D01*
X134372Y119984D01*
X134015Y119122D01*
X133893Y118197D01*
X134015Y117272D01*
X134372Y116410D01*
X134940Y115670D01*
X135680Y115102D01*
X136542Y114745D01*
X137467Y114623D01*
X138392Y114745D01*
X139254Y115102D01*
X139994Y115670D01*
X140562Y116410D01*
X140919Y117272D01*
X141041Y118197D01*
X140919Y119122D01*
X140562Y119984D01*
X139994Y120724D01*
X139254Y121292D01*
X138392Y121649D01*
X137467Y121771D01*
D02*
G37*
G36*
X158500Y98606D02*
X157886Y98483D01*
X157365Y98135D01*
X157017Y97615D01*
X156894Y97000D01*
X157017Y96386D01*
X157365Y95865D01*
X157886Y95517D01*
X158500Y95394D01*
X159115Y95517D01*
X159635Y95865D01*
X159983Y96386D01*
X160106Y97000D01*
X159983Y97615D01*
X159635Y98135D01*
X159115Y98483D01*
X158500Y98606D01*
D02*
G37*
G36*
X164000Y75606D02*
X163385Y75483D01*
X162865Y75135D01*
X162517Y74615D01*
X162394Y74000D01*
X162517Y73386D01*
X162865Y72865D01*
X163385Y72517D01*
X164000Y72394D01*
X164614Y72517D01*
X165135Y72865D01*
X165483Y73386D01*
X165606Y74000D01*
X165483Y74615D01*
X165135Y75135D01*
X164614Y75483D01*
X164000Y75606D01*
D02*
G37*
G36*
X175500Y73606D02*
X174885Y73483D01*
X174365Y73135D01*
X174017Y72615D01*
X173894Y72000D01*
X174017Y71386D01*
X174365Y70865D01*
X174885Y70517D01*
X175500Y70394D01*
X176114Y70517D01*
X176635Y70865D01*
X176983Y71386D01*
X177106Y72000D01*
X176983Y72615D01*
X176635Y73135D01*
X176114Y73483D01*
X175500Y73606D01*
D02*
G37*
%LPD*%
D26*
X177000Y181500D02*
D03*
D27*
Y171500D02*
D03*
X58000Y68500D02*
D03*
X137467Y38197D02*
D03*
X177467D02*
D03*
X187467D02*
D03*
X197467D02*
D03*
X164681Y328126D02*
D03*
X157610Y335197D02*
D03*
X150539Y342268D02*
D03*
X136397Y356410D02*
D03*
X35379Y328126D02*
D03*
X42450Y335197D02*
D03*
X49521Y342268D02*
D03*
X63663Y356410D02*
D03*
X10400Y252697D02*
D03*
Y262697D02*
D03*
Y272697D02*
D03*
Y292697D02*
D03*
X27467Y118197D02*
D03*
X67467D02*
D03*
X57467D02*
D03*
X187467Y16697D02*
D03*
X197467D02*
D03*
D28*
X92071Y35929D02*
D03*
X171752Y321055D02*
D03*
D29*
X165000Y127500D02*
D03*
X101000D02*
D03*
D30*
X135000D02*
D03*
X71000D02*
D03*
D31*
X45858Y105142D02*
D03*
D32*
X77467Y118197D02*
D03*
X177467Y16697D02*
D03*
D34*
X32654Y298697D02*
D03*
Y270447D02*
D03*
Y242197D02*
D03*
X147471D02*
D03*
Y270447D02*
D03*
Y298697D02*
D03*
D35*
X40528D02*
D03*
X56276D02*
D03*
X40528Y270447D02*
D03*
X56276D02*
D03*
X40528Y242197D02*
D03*
X56276D02*
D03*
X155345D02*
D03*
X171093D02*
D03*
X155345Y270447D02*
D03*
X171093D02*
D03*
X155345Y298697D02*
D03*
X171093D02*
D03*
X113211Y332697D02*
D03*
X113684Y298697D02*
D03*
Y270447D02*
D03*
Y242197D02*
D03*
D36*
X23967Y146197D02*
D03*
X93967D02*
D03*
X133967D02*
D03*
X153967D02*
D03*
X163967D02*
D03*
X133967Y206197D02*
D03*
X123967D02*
D03*
X113967D02*
D03*
X103967D02*
D03*
X93967D02*
D03*
X83967D02*
D03*
X73967D02*
D03*
X63967D02*
D03*
X53967D02*
D03*
X43967D02*
D03*
X33967D02*
D03*
X23967D02*
D03*
D38*
X93244Y93610D02*
D03*
X88913D02*
D03*
X93244Y89280D02*
D03*
X88913D02*
D03*
X93244Y84949D02*
D03*
X88913D02*
D03*
X196500Y98000D02*
D03*
X200000D02*
D03*
X193500D02*
D03*
X152000Y75000D02*
D03*
Y70500D02*
D03*
Y67000D02*
D03*
X151500Y63500D02*
D03*
Y59500D02*
D03*
X114036Y88000D02*
D03*
X116781D02*
D03*
X119624D02*
D03*
X122500D02*
D03*
X117500Y101000D02*
D03*
X109500Y100500D02*
D03*
X114047Y100799D02*
D03*
X34500Y95000D02*
D03*
X94552Y157052D02*
D03*
X110500Y122000D02*
D03*
X184000Y123000D02*
D03*
X186500Y120500D02*
D03*
X203000Y98000D02*
D03*
X41000Y91000D02*
D03*
X135500Y59000D02*
D03*
X122500Y55500D02*
D03*
X9500Y306500D02*
D03*
X78500Y349000D02*
D03*
X136500Y282500D02*
D03*
X162500Y188000D02*
D03*
X13500Y179500D02*
D03*
X136500Y314500D02*
D03*
X103000Y253500D02*
D03*
X10500Y230000D02*
D03*
X40500Y314000D02*
D03*
X196000Y261000D02*
D03*
X131000Y221000D02*
D03*
X107000Y192500D02*
D03*
X75500Y281500D02*
D03*
X55000Y179000D02*
D03*
X154000Y172000D02*
D03*
X160000Y220500D02*
D03*
X63500Y317000D02*
D03*
X102000Y360000D02*
D03*
X103000Y177000D02*
D03*
X32000Y177500D02*
D03*
X115000Y46000D02*
D03*
X72000Y107000D02*
D03*
X160500Y81000D02*
D03*
X181500Y51000D02*
D03*
X181835Y55746D02*
D03*
Y59264D02*
D03*
X182000Y78000D02*
D03*
X22000Y252500D02*
D03*
X26000Y248000D02*
D03*
D39*
X180758Y126242D02*
X184000Y123000D01*
X180758Y126242D02*
Y149010D01*
X177000Y152768D02*
X180758Y149010D01*
X177000Y152768D02*
Y171500D01*
X167528Y172028D02*
X177000Y181500D01*
X166125Y172028D02*
X167528D01*
X163472Y169375D02*
X166125Y172028D01*
X163472Y161433D02*
Y169375D01*
Y161433D02*
X163949Y160957D01*
Y146215D02*
Y160957D01*
Y146215D02*
X163967Y146197D01*
X184000Y123000D02*
X186500Y120500D01*
X91000Y129500D02*
X96422Y134922D01*
X91000Y113648D02*
Y129500D01*
X62446Y85094D02*
X91000Y113648D01*
X36000Y96000D02*
X46648D01*
X57554Y85094D01*
X62446D01*
X96422Y134922D02*
X125572D01*
X133967Y143317D01*
Y146197D01*
X101000Y127500D02*
X135000D01*
D40*
X53784Y138716D02*
X74303Y118197D01*
X77467D01*
X52072Y138716D02*
X53784D01*
X45283D02*
X65803Y118197D01*
X67467D01*
X42072Y138716D02*
X45283D01*
X35283D02*
X55803Y118197D01*
X94552Y157052D02*
X139392Y201892D01*
X55803Y118197D02*
X57467D01*
X29392Y181622D02*
X53967Y206197D01*
X29392Y141396D02*
Y181622D01*
X155345Y219345D02*
Y242197D01*
X149392Y213392D02*
X155345Y219345D01*
X149392Y201622D02*
Y213392D01*
X93967Y146197D02*
X149392Y201622D01*
X147471Y219971D02*
Y242197D01*
X139392Y211892D02*
X147471Y219971D01*
X139392Y201892D02*
Y211892D01*
X83967Y206197D02*
Y214033D01*
X74213Y223787D02*
X83967Y214033D01*
X46451Y223787D02*
X74213D01*
X70500Y215500D02*
X73967Y212033D01*
X63895Y215500D02*
X70500D01*
X58542Y210147D02*
X63895Y215500D01*
X73967Y206197D02*
Y212033D01*
X58542Y195542D02*
Y210147D01*
X39392Y176392D02*
X58542Y195542D01*
X39392Y141396D02*
Y176392D01*
X63967Y193967D02*
Y206197D01*
X49392Y179392D02*
X63967Y193967D01*
X49392Y141396D02*
Y179392D01*
Y141396D02*
X52072Y138716D01*
X32072D02*
X35283D01*
X29392Y141396D02*
X32072Y138716D01*
X39392Y141396D02*
X42072Y138716D01*
X22000Y208164D02*
Y252500D01*
Y208164D02*
X23967Y206197D01*
X10400Y263762D02*
X11465D01*
X43967Y206197D02*
Y222652D01*
X28504Y238115D02*
X43967Y222652D01*
X32654Y237584D02*
X46451Y223787D01*
X32654Y237584D02*
Y242197D01*
X28504Y238115D02*
Y245424D01*
X33967Y206197D02*
Y229033D01*
X25945Y237055D02*
X33967Y229033D01*
X25945Y237055D02*
Y247945D01*
X10400Y252697D02*
X18790Y244307D01*
Y151374D02*
Y244307D01*
X25945Y247945D02*
X26000Y248000D01*
X28504Y245424D02*
X29427Y246346D01*
X18790Y151374D02*
X23967Y146197D01*
X20046Y262343D02*
Y304546D01*
X10400Y252697D02*
X20046Y262343D01*
X17487Y269783D02*
Y316637D01*
X11465Y263762D02*
X17487Y269783D01*
X36047Y335197D02*
X42450D01*
X78398D01*
X29427Y302847D02*
X36378D01*
X62886Y321055D02*
X171752D01*
X40528Y298697D02*
X62886Y321055D01*
X28504Y266377D02*
X48535Y246346D01*
X28504Y266377D02*
Y273674D01*
X48535Y246346D02*
X57995D01*
X49595Y248905D02*
X61258D01*
X32654Y265846D02*
X49595Y248905D01*
X32654Y265846D02*
Y270447D01*
X28504Y295377D02*
X48434Y275447D01*
X28504Y295377D02*
Y301924D01*
X48434Y275447D02*
X57144D01*
X49494Y278007D02*
X58204D01*
X32654Y294846D02*
X49494Y278007D01*
X32654Y294846D02*
Y298697D01*
X77166Y242998D02*
Y255425D01*
X58204Y278007D02*
X79725Y256485D01*
Y245157D02*
Y256485D01*
Y245157D02*
X101913Y222969D01*
X107195D01*
X123967Y206197D01*
X57144Y275447D02*
X77166Y255425D01*
X36378Y302847D02*
X40528Y298697D01*
X28504Y301924D02*
X29427Y302847D01*
X77166Y242998D02*
X113967Y206197D01*
X61258Y248905D02*
X103967Y206197D01*
X93195Y206968D02*
X93967Y206197D01*
X93195Y206968D02*
Y211146D01*
X57995Y246346D02*
X93195Y211146D01*
X29427Y274597D02*
X36378D01*
X40528Y270447D01*
X28504Y273674D02*
X29427Y274597D01*
Y246346D02*
X36378D01*
X40528Y242197D01*
X35379Y319879D02*
Y328126D01*
X20046Y304546D02*
X35379Y319879D01*
X14928Y277224D02*
Y318928D01*
X10400Y272697D02*
X14928Y277224D01*
Y318928D02*
X38268Y342268D01*
X17487Y316637D02*
X36047Y335197D01*
X10400Y262697D02*
Y263762D01*
X38268Y342268D02*
X49521D01*
X35379Y328126D02*
X164681D01*
X80047Y336846D02*
X154895D01*
X78398Y335197D02*
X80047Y336846D01*
X156545Y335197D02*
X157610D01*
X154895Y336846D02*
X156545Y335197D01*
X49521Y342268D02*
X150539D01*
X49521Y342268D02*
X49521Y342268D01*
X155345Y270447D02*
Y298697D01*
Y242197D02*
Y270447D01*
X147471Y242197D02*
Y270447D01*
Y298697D01*
X197467Y16697D02*
Y38197D01*
X187467Y16697D02*
Y38197D01*
X177467Y16697D02*
Y38197D01*
M02*
