G04*
G04 #@! TF.GenerationSoftware,Altium Limited,Altium Designer,19.1.8 (144)*
G04*
G04 Layer_Color=128*
%FSLAX25Y25*%
%MOIN*%
G70*
G01*
G75*
%ADD42P,0.04243X4X360.0*%
%ADD43R,0.03000X0.03000*%
%ADD44R,0.02310X0.05349*%
G04:AMPARAMS|DCode=45|XSize=53.49mil|YSize=23.1mil|CornerRadius=11.55mil|HoleSize=0mil|Usage=FLASHONLY|Rotation=90.000|XOffset=0mil|YOffset=0mil|HoleType=Round|Shape=RoundedRectangle|*
%AMROUNDEDRECTD45*
21,1,0.05349,0.00000,0,0,90.0*
21,1,0.03039,0.02310,0,0,90.0*
1,1,0.02310,0.00000,0.01519*
1,1,0.02310,0.00000,-0.01519*
1,1,0.02310,0.00000,-0.01519*
1,1,0.02310,0.00000,0.01519*
%
%ADD45ROUNDEDRECTD45*%
%ADD46R,0.05512X0.12992*%
%ADD47R,0.12992X0.05512*%
%ADD48R,0.06929X0.11614*%
%ADD49O,0.07480X0.01772*%
%ADD50R,0.03000X0.03000*%
%ADD51R,0.01575X0.03740*%
%ADD52R,0.09449X0.19685*%
%ADD53R,0.03543X0.03150*%
G04:AMPARAMS|DCode=54|XSize=33.07mil|YSize=12.6mil|CornerRadius=1.58mil|HoleSize=0mil|Usage=FLASHONLY|Rotation=90.000|XOffset=0mil|YOffset=0mil|HoleType=Round|Shape=RoundedRectangle|*
%AMROUNDEDRECTD54*
21,1,0.03307,0.00945,0,0,90.0*
21,1,0.02992,0.01260,0,0,90.0*
1,1,0.00315,0.00472,0.01496*
1,1,0.00315,0.00472,-0.01496*
1,1,0.00315,-0.00472,-0.01496*
1,1,0.00315,-0.00472,0.01496*
%
%ADD54ROUNDEDRECTD54*%
G04:AMPARAMS|DCode=55|XSize=33.07mil|YSize=12.6mil|CornerRadius=1.58mil|HoleSize=0mil|Usage=FLASHONLY|Rotation=180.000|XOffset=0mil|YOffset=0mil|HoleType=Round|Shape=RoundedRectangle|*
%AMROUNDEDRECTD55*
21,1,0.03307,0.00945,0,0,180.0*
21,1,0.02992,0.01260,0,0,180.0*
1,1,0.00315,-0.01496,0.00472*
1,1,0.00315,0.01496,0.00472*
1,1,0.00315,0.01496,-0.00472*
1,1,0.00315,-0.01496,-0.00472*
%
%ADD55ROUNDEDRECTD55*%
%ADD57R,0.03858X0.13386*%
G36*
X175654Y71653D02*
X182346D01*
Y78347D01*
X175654D01*
Y71653D01*
D02*
G37*
D42*
X29611Y91889D02*
D03*
X33500Y88000D02*
D03*
D43*
X169500Y159500D02*
D03*
X164000D02*
D03*
X157500D02*
D03*
X152000D02*
D03*
X145000D02*
D03*
X139500D02*
D03*
X133000D02*
D03*
X127500D02*
D03*
X19000Y128534D02*
D03*
X24500D02*
D03*
X31000Y128659D02*
D03*
X36500D02*
D03*
X142500Y95500D02*
D03*
X137000D02*
D03*
X147500Y102500D02*
D03*
X142000D02*
D03*
X159500D02*
D03*
X154000D02*
D03*
X29500Y108500D02*
D03*
X35000D02*
D03*
X17500D02*
D03*
X23000D02*
D03*
D44*
X93500Y59149D02*
D03*
X129500Y98852D02*
D03*
D45*
X89898Y51851D02*
D03*
X97102D02*
D03*
X133102Y106149D02*
D03*
X125898D02*
D03*
D46*
X85520Y71000D02*
D03*
X100480D02*
D03*
D47*
X74000Y59020D02*
D03*
Y73980D02*
D03*
X114047Y115760D02*
D03*
Y100799D02*
D03*
X90000Y117980D02*
D03*
Y103020D02*
D03*
X198500Y83020D02*
D03*
Y97980D02*
D03*
D48*
X91079Y89280D02*
D03*
D49*
X99740Y95677D02*
D03*
Y93118D02*
D03*
Y90559D02*
D03*
Y88000D02*
D03*
Y85441D02*
D03*
Y82882D02*
D03*
X82417Y95677D02*
D03*
Y93118D02*
D03*
Y90559D02*
D03*
Y88000D02*
D03*
Y85441D02*
D03*
Y82882D02*
D03*
D50*
X101500Y103500D02*
D03*
Y109000D02*
D03*
Y115000D02*
D03*
Y120500D02*
D03*
X173000Y95000D02*
D03*
Y89500D02*
D03*
X179000Y95000D02*
D03*
Y89500D02*
D03*
X159500Y71000D02*
D03*
Y76500D02*
D03*
X165500Y70000D02*
D03*
Y64500D02*
D03*
D51*
X182941Y100530D02*
D03*
X185500D02*
D03*
X188059D02*
D03*
Y109191D02*
D03*
X185500D02*
D03*
X182941D02*
D03*
D52*
X113000Y67500D02*
D03*
X151000D02*
D03*
D53*
X165500Y83256D02*
D03*
Y77744D02*
D03*
D54*
X182839Y67382D02*
D03*
X180280D02*
D03*
X177720D02*
D03*
X175161D02*
D03*
Y82618D02*
D03*
X177720D02*
D03*
X180280D02*
D03*
X182839D02*
D03*
D55*
X186618Y78839D02*
D03*
Y76279D02*
D03*
Y73721D02*
D03*
Y71161D02*
D03*
X171382D02*
D03*
Y73721D02*
D03*
Y76279D02*
D03*
Y78839D02*
D03*
D57*
X191165Y54500D02*
D03*
X181835D02*
D03*
M02*
