G04*
G04 #@! TF.GenerationSoftware,Altium Limited,Altium Designer,19.1.8 (144)*
G04*
G04 Layer_Color=65535*
%FSLAX25Y25*%
%MOIN*%
G70*
G01*
G75*
%ADD10C,0.00787*%
%ADD11C,0.00500*%
%ADD12C,0.01000*%
D10*
X22024Y298697D02*
X21237D01*
X22024D01*
Y270447D02*
X21237D01*
X22024D01*
Y242197D02*
X21237D01*
X22024D01*
X136841D02*
X136054D01*
X136841D01*
Y270447D02*
X136054D01*
X136841D01*
Y298697D02*
X136054D01*
X136841D01*
X78959Y332697D02*
X78172D01*
X78959D01*
X79432Y298697D02*
X78645D01*
X79432D01*
Y270447D02*
X78645D01*
X79432D01*
Y242197D02*
X78645D01*
X79432D01*
X24361Y138795D02*
X23573D01*
X24361D01*
X202467Y33197D02*
Y43197D01*
X112467Y33197D02*
X202467D01*
X112467D02*
Y43197D01*
X202467D01*
X129326Y356410D02*
X136397Y363481D01*
X171752Y313984D02*
X178823Y321055D01*
X129326Y356410D02*
X171752Y313984D01*
X136397Y363481D02*
X178823Y321055D01*
X63663Y363481D02*
X70734Y356410D01*
X21237Y321055D02*
X28308Y313984D01*
X21237Y321055D02*
X63663Y363481D01*
X28308Y313984D02*
X70734Y356410D01*
X5400Y297697D02*
X15400D01*
X5400Y237697D02*
X15400D01*
X5400D02*
Y297697D01*
X15400Y237697D02*
Y297697D01*
X12467Y113197D02*
X82467D01*
Y123197D01*
X12467D02*
X82467D01*
X12467Y113197D02*
Y123197D01*
X182467Y113197D02*
Y123197D01*
X122467Y113197D02*
Y123197D01*
X182467D01*
X122467Y113197D02*
X182467D01*
X172467Y11697D02*
X202467D01*
Y21697D01*
X172467D02*
X202467D01*
X172467Y11697D02*
Y21697D01*
D11*
X24780Y307161D02*
X64150D01*
Y287083D02*
Y307161D01*
X24780Y287083D02*
X64150D01*
X24780D02*
Y307161D01*
Y278911D02*
X64150D01*
Y258833D02*
Y278911D01*
X24780Y258833D02*
X64150D01*
X24780D02*
Y278911D01*
Y250661D02*
X64150D01*
Y230583D02*
Y250661D01*
X24780Y230583D02*
X64150D01*
X24780D02*
Y250661D01*
X139597D02*
X178967D01*
Y230583D02*
Y250661D01*
X139597Y230583D02*
X178967D01*
X139597D02*
Y250661D01*
Y278911D02*
X178967D01*
Y258833D02*
Y278911D01*
X139597Y258833D02*
X178967D01*
X139597D02*
Y278911D01*
Y307161D02*
X178967D01*
Y287083D02*
Y307161D01*
X139597Y287083D02*
X178967D01*
X139597D02*
Y307161D01*
X81715Y341161D02*
X121085D01*
Y321083D02*
Y341161D01*
X81715Y321083D02*
X121085D01*
X81715D02*
Y341161D01*
X82188Y307161D02*
X121558D01*
Y287083D02*
Y307161D01*
X82188Y287083D02*
X121558D01*
X82188D02*
Y307161D01*
Y278911D02*
X121558D01*
Y258833D02*
Y278911D01*
X82188Y258833D02*
X121558D01*
X82188D02*
Y278911D01*
Y250661D02*
X121558D01*
Y230583D02*
Y250661D01*
X82188Y230583D02*
X121558D01*
X82188D02*
Y250661D01*
X8967Y141217D02*
X178967D01*
Y211177D01*
X8967D02*
X178967D01*
X8967Y193520D02*
Y211177D01*
Y158874D02*
Y193520D01*
Y141217D02*
Y158874D01*
X1093Y193520D02*
X8967D01*
X1093Y158874D02*
Y193520D01*
Y158874D02*
X8967D01*
D12*
X104999Y40998D02*
X102999D01*
X103999D01*
Y36000D01*
X102999Y35000D01*
X102000D01*
X101000Y36000D01*
X106998Y35000D02*
X108997D01*
X107998D01*
Y40998D01*
X106998Y39998D01*
X134000Y340000D02*
X138241Y344241D01*
X140362Y342121D01*
Y340707D01*
X138948Y339293D01*
X137534D01*
X135414Y341414D01*
X144603Y336466D02*
Y337879D01*
X143189Y339293D01*
X141776D01*
X141069Y338586D01*
Y337173D01*
X142482Y335759D01*
Y334345D01*
X141776Y333638D01*
X140362D01*
X138948Y335052D01*
Y336466D01*
X142482Y331518D02*
X146724Y335759D01*
X148844Y333638D01*
Y332224D01*
X147431Y330811D01*
X146017D01*
X143896Y332931D01*
X150965Y331518D02*
X152379Y330104D01*
X151672Y330811D01*
X147431Y326569D01*
X146724Y327276D01*
X148138Y325862D01*
X153086Y320914D02*
X150258Y323742D01*
X155913D01*
X156620Y324449D01*
Y325862D01*
X155206Y327276D01*
X153793D01*
X47000Y319500D02*
X42759Y323741D01*
X44879Y325862D01*
X46293D01*
X47707Y324448D01*
Y323034D01*
X45586Y320914D01*
X50534Y330103D02*
X49121D01*
X47707Y328689D01*
Y327276D01*
X48414Y326569D01*
X49828D01*
X51241Y327982D01*
X52655D01*
X53362Y327276D01*
Y325862D01*
X51948Y324448D01*
X50534D01*
X55483Y327982D02*
X51241Y332224D01*
X53362Y334344D01*
X54776D01*
X56189Y332931D01*
Y331517D01*
X54069Y329396D01*
X55483Y336465D02*
X56896Y337879D01*
X56189Y337172D01*
X60431Y332931D01*
X59724Y332224D01*
X61138Y333638D01*
X59724Y339293D02*
Y340706D01*
X61138Y342120D01*
X62551D01*
X63258Y341413D01*
Y340000D01*
X62551Y339293D01*
X63258Y340000D01*
X64672D01*
X65379Y339293D01*
Y337879D01*
X63965Y336465D01*
X62551D01*
X22500Y258000D02*
X16502D01*
Y260999D01*
X17502Y261999D01*
X19501D01*
X20501Y260999D01*
Y258000D01*
X17502Y267997D02*
X16502Y266997D01*
Y264998D01*
X17502Y263998D01*
X18501D01*
X19501Y264998D01*
Y266997D01*
X20501Y267997D01*
X21500D01*
X22500Y266997D01*
Y264998D01*
X21500Y263998D01*
X22500Y269996D02*
X16502D01*
Y272995D01*
X17502Y273995D01*
X19501D01*
X20501Y272995D01*
Y269996D01*
X16502Y275994D02*
Y277993D01*
Y276994D01*
X22500D01*
Y275994D01*
Y277993D01*
Y280993D02*
Y282992D01*
Y281992D01*
X16502D01*
X17502Y280993D01*
X67002Y292499D02*
X66002Y291499D01*
Y289500D01*
X67002Y288500D01*
X71000D01*
X72000Y289500D01*
Y291499D01*
X71000Y292499D01*
X69001D01*
Y290499D01*
X66002Y294498D02*
X72000D01*
Y297497D01*
X71000Y298497D01*
X67002D01*
X66002Y297497D01*
Y294498D01*
X71000Y300496D02*
X72000Y301496D01*
Y303495D01*
X71000Y304495D01*
X67002D01*
X66002Y303495D01*
Y301496D01*
X67002Y300496D01*
X68001D01*
X69001Y301496D01*
Y304495D01*
X67002Y264999D02*
X66002Y263999D01*
Y262000D01*
X67002Y261000D01*
X71000D01*
X72000Y262000D01*
Y263999D01*
X71000Y264999D01*
X69001D01*
Y262999D01*
X66002Y266998D02*
X72000D01*
Y269997D01*
X71000Y270997D01*
X67002D01*
X66002Y269997D01*
Y266998D01*
X67002Y272996D02*
X66002Y273996D01*
Y275995D01*
X67002Y276995D01*
X68001D01*
X69001Y275995D01*
X70001Y276995D01*
X71000D01*
X72000Y275995D01*
Y273996D01*
X71000Y272996D01*
X70001D01*
X69001Y273996D01*
X68001Y272996D01*
X67002D01*
X69001Y273996D02*
Y275995D01*
X67502Y235999D02*
X66502Y234999D01*
Y233000D01*
X67502Y232000D01*
X71500D01*
X72500Y233000D01*
Y234999D01*
X71500Y235999D01*
X69501D01*
Y233999D01*
X66502Y237998D02*
X72500D01*
Y240997D01*
X71500Y241997D01*
X67502D01*
X66502Y240997D01*
Y237998D01*
Y243996D02*
Y247995D01*
X67502D01*
X71500Y243996D01*
X72500D01*
X183502Y238499D02*
X182502Y237499D01*
Y235500D01*
X183502Y234500D01*
X187500D01*
X188500Y235500D01*
Y237499D01*
X187500Y238499D01*
X185501D01*
Y236499D01*
X182502Y240498D02*
Y242497D01*
Y241498D01*
X188500D01*
Y240498D01*
Y242497D01*
Y245496D02*
Y247496D01*
Y246496D01*
X182502D01*
X183502Y245496D01*
X183002Y264999D02*
X182002Y263999D01*
Y262000D01*
X183002Y261000D01*
X187000D01*
X188000Y262000D01*
Y263999D01*
X187000Y264999D01*
X185001D01*
Y262999D01*
X182002Y266998D02*
Y268997D01*
Y267998D01*
X188000D01*
Y266998D01*
Y268997D01*
Y275995D02*
Y271996D01*
X184001Y275995D01*
X183002D01*
X182002Y274995D01*
Y272996D01*
X183002Y271996D01*
Y293999D02*
X182002Y292999D01*
Y291000D01*
X183002Y290000D01*
X187000D01*
X188000Y291000D01*
Y292999D01*
X187000Y293999D01*
X185001D01*
Y291999D01*
X182002Y295998D02*
Y297997D01*
Y296998D01*
X188000D01*
Y295998D01*
Y297997D01*
X183002Y300996D02*
X182002Y301996D01*
Y303995D01*
X183002Y304995D01*
X184001D01*
X185001Y303995D01*
Y302996D01*
Y303995D01*
X186001Y304995D01*
X187000D01*
X188000Y303995D01*
Y301996D01*
X187000Y300996D01*
X124502Y323499D02*
X123502Y322499D01*
Y320500D01*
X124502Y319500D01*
X128500D01*
X129500Y320500D01*
Y322499D01*
X128500Y323499D01*
X126501D01*
Y321499D01*
X123502Y325498D02*
X128500D01*
X129500Y326498D01*
Y328497D01*
X128500Y329497D01*
X123502D01*
X129500Y331496D02*
Y333495D01*
Y332496D01*
X123502D01*
X124502Y331496D01*
Y336494D02*
X123502Y337494D01*
Y339493D01*
X124502Y340493D01*
X128500D01*
X129500Y339493D01*
Y337494D01*
X128500Y336494D01*
X124502D01*
X125002Y293499D02*
X124002Y292499D01*
Y290500D01*
X125002Y289500D01*
X129000D01*
X130000Y290500D01*
Y292499D01*
X129000Y293499D01*
X127001D01*
Y291499D01*
X130000Y295498D02*
X126001D01*
X124002Y297497D01*
X126001Y299497D01*
X130000D01*
X127001D01*
Y295498D01*
X124002Y305495D02*
X125002Y303496D01*
X127001Y301496D01*
X129000D01*
X130000Y302496D01*
Y304495D01*
X129000Y305495D01*
X128001D01*
X127001Y304495D01*
Y301496D01*
X125002Y263999D02*
X124002Y262999D01*
Y261000D01*
X125002Y260000D01*
X129000D01*
X130000Y261000D01*
Y262999D01*
X129000Y263999D01*
X127001D01*
Y261999D01*
X130000Y265998D02*
X126001D01*
X124002Y267997D01*
X126001Y269997D01*
X130000D01*
X127001D01*
Y265998D01*
X124002Y275995D02*
Y271996D01*
X127001D01*
X126001Y273995D01*
Y274995D01*
X127001Y275995D01*
X129000D01*
X130000Y274995D01*
Y272996D01*
X129000Y271996D01*
X124502Y235999D02*
X123502Y234999D01*
Y233000D01*
X124502Y232000D01*
X128500D01*
X129500Y233000D01*
Y234999D01*
X128500Y235999D01*
X126501D01*
Y233999D01*
X129500Y237998D02*
X125501D01*
X123502Y239997D01*
X125501Y241997D01*
X129500D01*
X126501D01*
Y237998D01*
X129500Y246995D02*
X123502D01*
X126501Y243996D01*
Y247995D01*
X9500Y223998D02*
Y219000D01*
X10500Y218000D01*
X12499D01*
X13499Y219000D01*
Y223998D01*
X15498Y218000D02*
X17497D01*
X16498D01*
Y223998D01*
X15498Y222998D01*
X39000Y102000D02*
Y105999D01*
X40999Y107998D01*
X42999Y105999D01*
Y102000D01*
Y104999D01*
X39000D01*
X44998Y102000D02*
Y107998D01*
X46997Y105999D01*
X48997Y107998D01*
Y102000D01*
X50996D02*
Y107998D01*
X53995D01*
X54995Y106998D01*
Y104999D01*
X53995Y103999D01*
X50996D01*
X56994Y102000D02*
X58994D01*
X57994D01*
Y107998D01*
X56994Y106998D01*
X112499Y120998D02*
X110499D01*
X111499D01*
Y116000D01*
X110499Y115000D01*
X109500D01*
X108500Y116000D01*
X118497Y115000D02*
X114498D01*
X118497Y118999D01*
Y119998D01*
X117497Y120998D01*
X115498D01*
X114498Y119998D01*
X179000Y24500D02*
Y30498D01*
X181999D01*
X182999Y29498D01*
Y27499D01*
X181999Y26499D01*
X179000D01*
X184998Y30498D02*
Y24500D01*
Y27499D01*
X188997D01*
Y30498D01*
Y24500D01*
X190996D02*
Y30498D01*
X193995D01*
X194995Y29498D01*
Y27499D01*
X193995Y26499D01*
X190996D01*
M02*
