M48
;Layer_Color=9474304
;FILE_FORMAT=2:4
INCH,TZ
;TYPE=PLATED
T1F00S00C0.0079
T2F00S00C0.0118
T3F00S00C0.0276
T4F00S00C0.0315
T5F00S00C0.0354
T6F00S00C0.0400
;TYPE=NON_PLATED
T7F00S00C0.0650
%
T01
X8891Y8495
Y8928
Y9361
X9324
Y8928
Y8495
T02
X3450Y9500
X4100Y9100
X7500Y8800
Y8250
X7200Y10700
X10950Y10050
X11405Y10080
X11750Y10100
X11678Y8800
X11404
X11962
X12250
Y5550
X13550Y5900
X15150Y5950
Y6350
X15200Y6700
Y7050
Y7500
X11500Y4600
X11050Y12200
X15850Y9700
X16050Y8100
X16400Y7400
X17550Y7200
Y7800
X17900Y7500
X18200Y7200
Y7800
X18183Y5926
Y5575
X18150Y5100
X19350Y9800
X19650
X20000
X20300
X18900Y11400
X18650Y12050
X18400Y12300
X16800Y16750
X16250Y18800
X16000Y22050
X19600Y26100
X13650Y28250
X7550Y28150
X10300Y25350
X13100Y22100
X10700Y19250
X10300Y17700
X9455Y15705
X14150Y16650
X15400Y17200
X5500Y17900
X3200Y17750
X1350Y17950
X1050Y23000
X2600Y24800
X2200Y25250
X950Y30650
X4050Y31400
X6350Y31700
X7850Y34900
X10200Y36000
X13650Y31450
T03
X6000Y9100
X5293Y9807
X4586Y10514
X7100Y12750
X10100
X13500
X16500
T04
X16322Y24220
X17109
Y27045
X16322
Y29870
X17109
X15534
X14747
Y27045
X15534
Y24220
X14747
X11368
X10581
X9794
X9006
Y27045
X9794
X10581
X11368
Y29870
X10581
X9794
X9006
X5628
X4840
X4053
X3265
Y27045
X4053
X4840
X5628
Y24220
X4840
X4053
X3265
X8959Y33270
X9746
X10534
X11321
T05
X5093Y7557
X4386Y8264
X5800Y6850
X5747Y11820
X4747
X3747
X2747
X1747
X6747
X7747
X12747
X13747
X14747
Y3820
X13747
X12747
X11747
X9207Y3593
X8500Y4300
X15747Y3820
X16747
X17747
X18747
X19747
Y1670
X18747
X17747
Y11820
X16747
X15747
X17700Y17150
Y18150
X1040Y24270
Y25270
Y26270
Y27270
Y28270
Y29270
X2831Y32105
X3538Y32813
X4245Y33520
X4952Y34227
X5659Y34934
X6366Y35641
X13640
X14347Y34934
X15054Y34227
X15761Y33520
X16468Y32813
X17175Y32105
T06
X2397Y14620
X3397
X4397
X5397
X6397
X7397
X8397
X9397
X10397
X11397
X12397
X13397
X14397
X15397
X16397
Y20620
X15397
X14397
X13397
X12397
X11397
X10397
X9397
X8397
X7397
X6397
X5397
X4397
X3397
X2397
T07
X1397Y14620
X17397
Y20620
X1397
M30
