G04*
G04 #@! TF.GenerationSoftware,Altium Limited,Altium Designer,19.1.8 (144)*
G04*
G04 Layer_Color=8388736*
%FSLAX25Y25*%
%MOIN*%
G70*
G01*
G75*
%ADD13R,0.06706X0.06706*%
%ADD14C,0.06706*%
%ADD15P,0.09483X4X360.0*%
%ADD16R,0.05524X0.05524*%
%ADD17C,0.05524*%
%ADD18P,0.07813X4X360.0*%
%ADD19R,0.06706X0.06706*%
%ADD20P,0.09483X4X90.0*%
%ADD21R,0.05950X0.05950*%
%ADD22C,0.05950*%
%ADD23O,0.06800X0.12611*%
%ADD24C,0.07296*%
%ADD25C,0.02769*%
D13*
X177000Y181500D02*
D03*
X10400Y242697D02*
D03*
D14*
X177000Y171500D02*
D03*
X50929Y75571D02*
D03*
X58000Y68500D02*
D03*
X137467Y38197D02*
D03*
X147467D02*
D03*
X157467D02*
D03*
X167467D02*
D03*
X177467D02*
D03*
X187467D02*
D03*
X197467D02*
D03*
X127467D02*
D03*
X85000Y43000D02*
D03*
X164681Y328126D02*
D03*
X157610Y335197D02*
D03*
X150539Y342268D02*
D03*
X143468Y349339D02*
D03*
X136397Y356410D02*
D03*
X35379Y328126D02*
D03*
X42450Y335197D02*
D03*
X49521Y342268D02*
D03*
X56592Y349339D02*
D03*
X63663Y356410D02*
D03*
X10400Y252697D02*
D03*
Y262697D02*
D03*
Y272697D02*
D03*
Y282697D02*
D03*
Y292697D02*
D03*
X17467Y118197D02*
D03*
X27467D02*
D03*
X37467D02*
D03*
X47467D02*
D03*
X67467D02*
D03*
X57467D02*
D03*
X137467D02*
D03*
X147467D02*
D03*
X157467D02*
D03*
X167467D02*
D03*
X177467D02*
D03*
X187467Y16697D02*
D03*
X197467D02*
D03*
D15*
X43858Y82642D02*
D03*
X92071Y35929D02*
D03*
X171752Y321055D02*
D03*
D16*
X165000Y127500D02*
D03*
X101000D02*
D03*
D17*
X135000D02*
D03*
X71000D02*
D03*
X52929Y98071D02*
D03*
X60000Y91000D02*
D03*
D18*
X45858Y105142D02*
D03*
D19*
X117467Y38197D02*
D03*
X77467Y118197D02*
D03*
X127467D02*
D03*
X177467Y16697D02*
D03*
D20*
X28308Y321055D02*
D03*
D21*
X32654Y298697D02*
D03*
Y270447D02*
D03*
Y242197D02*
D03*
X147471D02*
D03*
Y270447D02*
D03*
Y298697D02*
D03*
X89589Y332697D02*
D03*
X90062Y298697D02*
D03*
Y270447D02*
D03*
Y242197D02*
D03*
D22*
X40528Y298697D02*
D03*
X48402D02*
D03*
X56276D02*
D03*
X40528Y270447D02*
D03*
X48402D02*
D03*
X56276D02*
D03*
X40528Y242197D02*
D03*
X48402D02*
D03*
X56276D02*
D03*
X155345D02*
D03*
X163219D02*
D03*
X171093D02*
D03*
X155345Y270447D02*
D03*
X163219D02*
D03*
X171093D02*
D03*
X155345Y298697D02*
D03*
X163219D02*
D03*
X171093D02*
D03*
X97463Y332697D02*
D03*
X105337D02*
D03*
X113211D02*
D03*
X97936Y298697D02*
D03*
X105810D02*
D03*
X113684D02*
D03*
X97936Y270447D02*
D03*
X105810D02*
D03*
X113684D02*
D03*
X97936Y242197D02*
D03*
X105810D02*
D03*
X113684D02*
D03*
D23*
X23967Y146197D02*
D03*
X33967D02*
D03*
X43967D02*
D03*
X53967D02*
D03*
X63967D02*
D03*
X73967D02*
D03*
X83967D02*
D03*
X93967D02*
D03*
X103967D02*
D03*
X113967D02*
D03*
X123967D02*
D03*
X133967D02*
D03*
X143967D02*
D03*
X153967D02*
D03*
X163967D02*
D03*
Y206197D02*
D03*
X153967D02*
D03*
X143967D02*
D03*
X133967D02*
D03*
X123967D02*
D03*
X113967D02*
D03*
X103967D02*
D03*
X93967D02*
D03*
X83967D02*
D03*
X73967D02*
D03*
X63967D02*
D03*
X53967D02*
D03*
X43967D02*
D03*
X33967D02*
D03*
X23967D02*
D03*
D24*
X13967Y146197D02*
D03*
Y206197D02*
D03*
X173967D02*
D03*
Y146197D02*
D03*
D25*
X93244Y93610D02*
D03*
X88913D02*
D03*
X93244Y89280D02*
D03*
X88913D02*
D03*
X93244Y84949D02*
D03*
X88913D02*
D03*
M02*
