G04*
G04 #@! TF.GenerationSoftware,Altium Limited,Altium Designer,19.1.8 (144)*
G04*
G04 Layer_Color=32896*
%FSLAX25Y25*%
%MOIN*%
G70*
G01*
G75*
%ADD10C,0.00787*%
%ADD11C,0.00500*%
%ADD12C,0.01000*%
%ADD71C,0.00984*%
%ADD72C,0.00000*%
%ADD73C,0.00591*%
D10*
X180000Y127500D02*
X179983Y128502D01*
X179933Y129504D01*
X179849Y130503D01*
X179732Y131499D01*
X179582Y132490D01*
X179399Y133476D01*
X179183Y134455D01*
X178934Y135426D01*
X178653Y136388D01*
X178340Y137341D01*
X177995Y138282D01*
X177620Y139212D01*
X177213Y140128D01*
X176776Y141030D01*
X176309Y141918D01*
X175812Y142789D01*
X175287Y143642D01*
X174733Y144478D01*
X174152Y145295D01*
X173544Y146092D01*
X172910Y146869D01*
X172250Y147624D01*
X171565Y148356D01*
X170856Y149065D01*
X170124Y149750D01*
X169369Y150410D01*
X168593Y151044D01*
X167795Y151652D01*
X166978Y152233D01*
X166142Y152787D01*
X165288Y153312D01*
X164418Y153808D01*
X163530Y154276D01*
X162628Y154713D01*
X161712Y155120D01*
X160782Y155495D01*
X159841Y155840D01*
X158888Y156153D01*
X157926Y156434D01*
X156955Y156683D01*
X155976Y156899D01*
X154990Y157082D01*
X153999Y157232D01*
X153003Y157349D01*
X152004Y157433D01*
X151002Y157483D01*
X150000Y157500D01*
X148997Y157483D01*
X147996Y157433D01*
X146997Y157349D01*
X146001Y157232D01*
X145010Y157082D01*
X144024Y156899D01*
X143045Y156683D01*
X142074Y156434D01*
X141112Y156153D01*
X140159Y155840D01*
X139218Y155495D01*
X138288Y155120D01*
X137372Y154713D01*
X136470Y154276D01*
X135582Y153808D01*
X134712Y153312D01*
X133858Y152787D01*
X133022Y152233D01*
X132205Y151652D01*
X131407Y151044D01*
X130631Y150410D01*
X129876Y149750D01*
X129144Y149065D01*
X128435Y148356D01*
X127750Y147624D01*
X127090Y146869D01*
X126456Y146092D01*
X125848Y145295D01*
X125267Y144478D01*
X124713Y143642D01*
X124188Y142789D01*
X123691Y141918D01*
X123224Y141030D01*
X122787Y140128D01*
X122380Y139212D01*
X122005Y138282D01*
X121660Y137341D01*
X121347Y136388D01*
X121066Y135426D01*
X120817Y134455D01*
X120601Y133476D01*
X120418Y132490D01*
X120268Y131499D01*
X120151Y130503D01*
X120067Y129504D01*
X120017Y128503D01*
X120000Y127500D01*
X120017Y126498D01*
X120067Y125496D01*
X120151Y124497D01*
X120268Y123502D01*
X120418Y122510D01*
X120601Y121525D01*
X120817Y120545D01*
X121066Y119574D01*
X121347Y118612D01*
X121660Y117659D01*
X122004Y116718D01*
X122380Y115788D01*
X122787Y114872D01*
X123224Y113970D01*
X123691Y113083D01*
X124188Y112212D01*
X124713Y111358D01*
X125267Y110522D01*
X125848Y109705D01*
X126456Y108908D01*
X127090Y108131D01*
X127750Y107377D01*
X128435Y106644D01*
X129144Y105935D01*
X129876Y105251D01*
X130631Y104591D01*
X131407Y103956D01*
X132204Y103348D01*
X133021Y102767D01*
X133857Y102213D01*
X134711Y101688D01*
X135582Y101192D01*
X136469Y100724D01*
X137372Y100287D01*
X138288Y99881D01*
X139218Y99505D01*
X140159Y99160D01*
X141112Y98847D01*
X142074Y98566D01*
X143045Y98317D01*
X144024Y98101D01*
X145010Y97918D01*
X146001Y97768D01*
X146997Y97651D01*
X147996Y97567D01*
X148997Y97517D01*
X150000Y97500D01*
X151002Y97517D01*
X152004Y97567D01*
X153003Y97651D01*
X153998Y97768D01*
X154990Y97918D01*
X155975Y98101D01*
X156954Y98317D01*
X157926Y98566D01*
X158888Y98847D01*
X159841Y99160D01*
X160782Y99505D01*
X161711Y99880D01*
X162628Y100287D01*
X163530Y100724D01*
X164417Y101191D01*
X165288Y101688D01*
X166142Y102213D01*
X166978Y102767D01*
X167795Y103348D01*
X168592Y103956D01*
X169369Y104590D01*
X170123Y105250D01*
X170855Y105935D01*
X171564Y106644D01*
X172249Y107376D01*
X172909Y108131D01*
X173544Y108907D01*
X174152Y109704D01*
X174733Y110521D01*
X175287Y111357D01*
X175812Y112211D01*
X176308Y113082D01*
X176775Y113969D01*
X177213Y114872D01*
X177619Y115788D01*
X177995Y116717D01*
X178340Y117659D01*
X178653Y118611D01*
X178934Y119574D01*
X179183Y120545D01*
X179399Y121524D01*
X179582Y122510D01*
X179732Y123501D01*
X179849Y124497D01*
X179933Y125496D01*
X179983Y126497D01*
X180000Y127500D01*
X116000Y127500D02*
X115983Y128502D01*
X115933Y129504D01*
X115849Y130503D01*
X115732Y131499D01*
X115582Y132490D01*
X115399Y133476D01*
X115183Y134455D01*
X114934Y135426D01*
X114653Y136388D01*
X114340Y137341D01*
X113995Y138282D01*
X113619Y139212D01*
X113213Y140128D01*
X112776Y141030D01*
X112309Y141918D01*
X111812Y142789D01*
X111287Y143642D01*
X110733Y144478D01*
X110152Y145295D01*
X109544Y146092D01*
X108910Y146869D01*
X108250Y147624D01*
X107565Y148356D01*
X106856Y149065D01*
X106123Y149750D01*
X105369Y150410D01*
X104593Y151044D01*
X103795Y151652D01*
X102978Y152233D01*
X102143Y152787D01*
X101288Y153312D01*
X100417Y153808D01*
X99530Y154276D01*
X98628Y154713D01*
X97712Y155120D01*
X96782Y155495D01*
X95841Y155840D01*
X94888Y156153D01*
X93926Y156434D01*
X92955Y156683D01*
X91976Y156899D01*
X90990Y157082D01*
X89999Y157232D01*
X89003Y157349D01*
X88004Y157433D01*
X87002Y157483D01*
X86000Y157500D01*
X84997Y157483D01*
X83996Y157433D01*
X82997Y157349D01*
X82001Y157232D01*
X81010Y157082D01*
X80024Y156899D01*
X79045Y156683D01*
X78074Y156434D01*
X77112Y156153D01*
X76159Y155840D01*
X75218Y155495D01*
X74288Y155120D01*
X73372Y154713D01*
X72470Y154276D01*
X71583Y153808D01*
X70711Y153312D01*
X69858Y152787D01*
X69022Y152233D01*
X68205Y151652D01*
X67408Y151044D01*
X66631Y150410D01*
X65876Y149750D01*
X65144Y149065D01*
X64435Y148356D01*
X63750Y147624D01*
X63090Y146869D01*
X62456Y146092D01*
X61848Y145295D01*
X61267Y144478D01*
X60713Y143642D01*
X60188Y142789D01*
X59692Y141918D01*
X59224Y141030D01*
X58787Y140128D01*
X58381Y139212D01*
X58005Y138282D01*
X57660Y137341D01*
X57347Y136388D01*
X57066Y135426D01*
X56817Y134455D01*
X56601Y133476D01*
X56418Y132490D01*
X56268Y131499D01*
X56151Y130503D01*
X56067Y129504D01*
X56017Y128503D01*
X56000Y127500D01*
X56017Y126498D01*
X56067Y125496D01*
X56151Y124497D01*
X56268Y123502D01*
X56418Y122510D01*
X56601Y121525D01*
X56817Y120545D01*
X57066Y119574D01*
X57347Y118612D01*
X57660Y117659D01*
X58004Y116718D01*
X58380Y115788D01*
X58787Y114872D01*
X59224Y113970D01*
X59691Y113083D01*
X60188Y112212D01*
X60713Y111358D01*
X61267Y110522D01*
X61848Y109705D01*
X62456Y108908D01*
X63090Y108131D01*
X63750Y107377D01*
X64435Y106644D01*
X65144Y105935D01*
X65876Y105251D01*
X66631Y104591D01*
X67407Y103956D01*
X68204Y103348D01*
X69021Y102767D01*
X69857Y102213D01*
X70711Y101688D01*
X71582Y101192D01*
X72470Y100724D01*
X73372Y100287D01*
X74288Y99881D01*
X75218Y99505D01*
X76159Y99160D01*
X77112Y98847D01*
X78074Y98566D01*
X79045Y98317D01*
X80024Y98101D01*
X81010Y97918D01*
X82001Y97768D01*
X82997Y97651D01*
X83996Y97567D01*
X84997Y97517D01*
X86000Y97500D01*
X87002Y97517D01*
X88003Y97567D01*
X89003Y97651D01*
X89998Y97768D01*
X90990Y97918D01*
X91975Y98101D01*
X92954Y98317D01*
X93926Y98566D01*
X94888Y98847D01*
X95841Y99160D01*
X96782Y99505D01*
X97711Y99880D01*
X98628Y100287D01*
X99530Y100724D01*
X100417Y101191D01*
X101288Y101688D01*
X102142Y102213D01*
X102978Y102767D01*
X103795Y103348D01*
X104592Y103956D01*
X105369Y104590D01*
X106123Y105250D01*
X106855Y105935D01*
X107564Y106644D01*
X108249Y107376D01*
X108909Y108131D01*
X109544Y108907D01*
X110152Y109704D01*
X110733Y110521D01*
X111287Y111357D01*
X111812Y112211D01*
X112308Y113082D01*
X112775Y113969D01*
X113213Y114872D01*
X113619Y115788D01*
X113995Y116717D01*
X114340Y117659D01*
X114653Y118611D01*
X114934Y119574D01*
X115183Y120545D01*
X115399Y121524D01*
X115582Y122510D01*
X115732Y123501D01*
X115849Y124497D01*
X115933Y125496D01*
X115983Y126497D01*
X116000Y127500D01*
X191106Y78839D02*
X190319D01*
X191106D01*
X172000Y166500D02*
X182000D01*
Y186500D01*
X172000D02*
X182000D01*
X172000Y166500D02*
Y186500D01*
X43858Y89713D02*
X65071Y68500D01*
X58000Y61429D02*
X65071Y68500D01*
X36787Y82642D02*
X58000Y61429D01*
X36787Y82642D02*
X43858Y89713D01*
X87791Y56003D02*
Y58059D01*
X96132D02*
X99209D01*
X87791D02*
X90868D01*
X99209Y56003D02*
Y58059D01*
X89850Y64898D02*
X96150D01*
X89850Y77102D02*
X96150D01*
X80102Y63350D02*
Y69650D01*
X67898Y63350D02*
Y69650D01*
X87732Y97350D02*
X94425D01*
X87732Y81209D02*
X94425D01*
X107945Y105130D02*
Y111429D01*
X120149Y105130D02*
Y111429D01*
X83898Y107350D02*
Y113650D01*
X96102Y107350D02*
Y113650D01*
X181563Y106042D02*
X189437D01*
Y103680D02*
Y106042D01*
X181563Y103680D02*
X189437D01*
X181563D02*
Y106042D01*
X31716Y105142D02*
X45858Y119284D01*
X77678Y87464D01*
X70607Y80393D02*
X77678Y87464D01*
X67071Y83929D02*
X70607Y80393D01*
X60000Y76858D02*
X67071Y83929D01*
X31716Y105142D02*
X60000Y76858D01*
X135209Y99941D02*
Y101997D01*
X123791Y99941D02*
X126868D01*
X132132D02*
X135209D01*
X123791D02*
Y101997D01*
X204602Y87350D02*
Y93650D01*
X192398Y87350D02*
Y93650D01*
X178035Y46035D02*
Y62965D01*
X194965D01*
Y46035D02*
Y62965D01*
X178035Y46035D02*
X194965D01*
X77929Y43000D02*
X85000Y50071D01*
X77929Y43000D02*
X92071Y28858D01*
X99142Y35929D01*
X85000Y50071D02*
X99142Y35929D01*
D11*
X26358Y91889D02*
X33500Y84747D01*
X29611Y95142D02*
X36753Y88000D01*
X33500Y84747D02*
X36753Y88000D01*
X26358Y91889D02*
X29611Y95142D01*
X161700Y161800D02*
X171800D01*
X161700Y157200D02*
X171800D01*
X161700D02*
Y161800D01*
X171800Y157200D02*
Y161800D01*
X149700D02*
X159800D01*
X149700Y157200D02*
X159800D01*
X149700D02*
Y161800D01*
X159800Y157200D02*
Y161800D01*
X137200D02*
X147300D01*
X137200Y157200D02*
X147300D01*
X137200D02*
Y161800D01*
X147300Y157200D02*
Y161800D01*
X125200D02*
X135300D01*
X125200Y157200D02*
X135300D01*
X125200D02*
Y161800D01*
X135300Y157200D02*
Y161800D01*
X16700Y126234D02*
X26800D01*
X16700Y130834D02*
X26800D01*
Y126234D02*
Y130834D01*
X16700Y126234D02*
Y130834D01*
X28700Y126359D02*
X38800D01*
X28700Y130959D02*
X38800D01*
Y126359D02*
Y130959D01*
X28700Y126359D02*
Y130959D01*
X103800Y101200D02*
Y111300D01*
X99200Y101200D02*
Y111300D01*
X103800D01*
X99200Y101200D02*
X103800D01*
Y112700D02*
Y122800D01*
X99200Y112700D02*
Y122800D01*
X103800D01*
X99200Y112700D02*
X103800D01*
X134700Y97800D02*
X144800D01*
X134700Y93200D02*
X144800D01*
X134700D02*
Y97800D01*
X144800Y93200D02*
Y97800D01*
X139700Y104800D02*
X149800D01*
X139700Y100200D02*
X149800D01*
X139700D02*
Y104800D01*
X149800Y100200D02*
Y104800D01*
X151700D02*
X161800D01*
X151700Y100200D02*
X161800D01*
X151700D02*
Y104800D01*
X161800Y100200D02*
Y104800D01*
X27200Y106200D02*
X37300D01*
X27200Y110800D02*
X37300D01*
Y106200D02*
Y110800D01*
X27200Y106200D02*
Y110800D01*
X15200Y106200D02*
X25300D01*
X15200Y110800D02*
X25300D01*
Y106200D02*
Y110800D01*
X15200Y106200D02*
Y110800D01*
X170700Y87200D02*
Y97300D01*
X175300Y87200D02*
Y97300D01*
X170700Y87200D02*
X175300D01*
X170700Y97300D02*
X175300D01*
X176700Y87200D02*
Y97300D01*
X181300Y87200D02*
Y97300D01*
X176700Y87200D02*
X181300D01*
X176700Y97300D02*
X181300D01*
X161800Y68700D02*
Y78800D01*
X157200Y68700D02*
Y78800D01*
X161800D01*
X157200Y68700D02*
X161800D01*
X163200Y62200D02*
Y72300D01*
X167800Y62200D02*
Y72300D01*
X163200Y62200D02*
X167800D01*
X163200Y72300D02*
X167800D01*
X171126Y67126D02*
X173272D01*
X171126Y82874D02*
X173272D01*
X184728Y67126D02*
X186874D01*
X184728Y82874D02*
X186874D01*
X171126Y67126D02*
Y69272D01*
Y80728D02*
Y82874D01*
X186874Y67126D02*
Y69272D01*
Y80728D02*
Y82874D01*
D12*
X176500Y189500D02*
Y195498D01*
X173501D01*
X172501Y194498D01*
Y192499D01*
X173501Y191499D01*
X176500D01*
X167503Y195498D02*
X169502D01*
X170502Y194498D01*
Y190500D01*
X169502Y189500D01*
X167503D01*
X166503Y190500D01*
Y194498D01*
X167503Y195498D01*
X164504Y189500D02*
Y195498D01*
X160505Y189500D01*
Y195498D01*
X21500Y97000D02*
X25741Y101241D01*
X23621Y103362D01*
X22207D01*
X20793Y101948D01*
Y100534D01*
X22914Y98414D01*
X21500Y99827D02*
X18673D01*
X21500Y105482D02*
X17259Y101241D01*
X15138Y103362D01*
Y104776D01*
X15845Y105482D01*
X17259D01*
X19379Y103362D01*
X17259Y105482D01*
Y106896D01*
X17966Y107603D01*
X19379D01*
X21500Y105482D01*
X13017D02*
X11604Y106896D01*
X12311Y106189D01*
X16552Y110431D01*
Y109017D01*
X65000Y71000D02*
X69241Y75241D01*
X67121Y77362D01*
X65707D01*
X64293Y75948D01*
Y74534D01*
X66414Y72414D01*
X61466Y81603D02*
X62879D01*
X64293Y80189D01*
Y78776D01*
X63586Y78069D01*
X62173D01*
X60759Y79483D01*
X59345D01*
X58638Y78776D01*
Y77362D01*
X60052Y75948D01*
X61466D01*
X57931Y86551D02*
X60759Y83724D01*
X56517Y79483D01*
X53690Y82310D01*
X58638Y81603D02*
X57224Y83017D01*
X52276Y83724D02*
X56517Y87965D01*
X49449Y86551D01*
X53690Y90793D01*
X48742Y94327D02*
X50156D01*
X51569Y92913D01*
Y91500D01*
X50862Y90793D01*
X49449D01*
X48035Y92206D01*
X46621D01*
X45914Y91500D01*
Y90086D01*
X47328Y88672D01*
X48742D01*
X45207Y99275D02*
X48035Y96448D01*
X43794Y92206D01*
X40966Y95034D01*
X45914Y94327D02*
X44500Y95741D01*
X164000Y165500D02*
X169998D01*
Y168499D01*
X168998Y169499D01*
X166999D01*
X165999Y168499D01*
Y165500D01*
Y167499D02*
X164000Y169499D01*
X168998Y175497D02*
X169998Y174497D01*
Y172498D01*
X168998Y171498D01*
X165000D01*
X164000Y172498D01*
Y174497D01*
X165000Y175497D01*
X168998Y177496D02*
X169998Y178496D01*
Y180495D01*
X168998Y181495D01*
X167999D01*
X166999Y180495D01*
Y179496D01*
Y180495D01*
X165999Y181495D01*
X165000D01*
X164000Y180495D01*
Y178496D01*
X165000Y177496D01*
X151000Y163500D02*
X156998D01*
Y166499D01*
X155998Y167499D01*
X153999D01*
X152999Y166499D01*
Y163500D01*
Y165499D02*
X151000Y167499D01*
X155998Y173497D02*
X156998Y172497D01*
Y170498D01*
X155998Y169498D01*
X152000D01*
X151000Y170498D01*
Y172497D01*
X152000Y173497D01*
X151000Y178495D02*
X156998D01*
X153999Y175496D01*
Y179495D01*
X137500Y164500D02*
X143498D01*
Y167499D01*
X142498Y168499D01*
X140499D01*
X139499Y167499D01*
Y164500D01*
Y166499D02*
X137500Y168499D01*
X142498Y174497D02*
X143498Y173497D01*
Y171498D01*
X142498Y170498D01*
X138500D01*
X137500Y171498D01*
Y173497D01*
X138500Y174497D01*
X137500Y176496D02*
Y178496D01*
Y177496D01*
X143498D01*
X142498Y176496D01*
X126000Y165500D02*
X131998D01*
Y168499D01*
X130998Y169499D01*
X128999D01*
X127999Y168499D01*
Y165500D01*
Y167499D02*
X126000Y169499D01*
X130998Y175497D02*
X131998Y174497D01*
Y172498D01*
X130998Y171498D01*
X127000D01*
X126000Y172498D01*
Y174497D01*
X127000Y175497D01*
X126000Y181495D02*
Y177496D01*
X129999Y181495D01*
X130998D01*
X131998Y180495D01*
Y178496D01*
X130998Y177496D01*
X117001Y160998D02*
X118001Y161998D01*
X120000D01*
X121000Y160998D01*
Y159999D01*
X120000Y158999D01*
X118001D01*
X117001Y157999D01*
Y157000D01*
X118001Y156000D01*
X120000D01*
X121000Y157000D01*
X111003Y160998D02*
X112003Y161998D01*
X114002D01*
X115002Y160998D01*
Y157000D01*
X114002Y156000D01*
X112003D01*
X111003Y157000D01*
X109004Y156000D02*
X107004D01*
X108004D01*
Y161998D01*
X109004Y160998D01*
X66001Y162498D02*
X67001Y163498D01*
X69000D01*
X70000Y162498D01*
Y161499D01*
X69000Y160499D01*
X67001D01*
X66001Y159499D01*
Y158500D01*
X67001Y157500D01*
X69000D01*
X70000Y158500D01*
X60003Y162498D02*
X61003Y163498D01*
X63002D01*
X64002Y162498D01*
Y158500D01*
X63002Y157500D01*
X61003D01*
X60003Y158500D01*
X54005Y157500D02*
X58004D01*
X54005Y161499D01*
Y162498D01*
X55005Y163498D01*
X57004D01*
X58004Y162498D01*
X25500Y133000D02*
Y138998D01*
X22501D01*
X21501Y137998D01*
Y135999D01*
X22501Y134999D01*
X25500D01*
X23501D02*
X21501Y133000D01*
X15503Y137998D02*
X16503Y138998D01*
X18502D01*
X19502Y137998D01*
Y134000D01*
X18502Y133000D01*
X16503D01*
X15503Y134000D01*
X13504Y138998D02*
X9505D01*
Y137998D01*
X13504Y134000D01*
Y133000D01*
X53000Y132500D02*
Y138498D01*
X50001D01*
X49001Y137498D01*
Y135499D01*
X50001Y134499D01*
X53000D01*
X51001D02*
X49001Y132500D01*
X43003Y137498D02*
X44003Y138498D01*
X46002D01*
X47002Y137498D01*
Y133500D01*
X46002Y132500D01*
X44003D01*
X43003Y133500D01*
X41004Y137498D02*
X40004Y138498D01*
X38005D01*
X37005Y137498D01*
Y136499D01*
X38005Y135499D01*
X37005Y134499D01*
Y133500D01*
X38005Y132500D01*
X40004D01*
X41004Y133500D01*
Y134499D01*
X40004Y135499D01*
X41004Y136499D01*
Y137498D01*
X40004Y135499D02*
X38005D01*
X111000Y53998D02*
Y48000D01*
X108001D01*
X107001Y49000D01*
Y52998D01*
X108001Y53998D01*
X111000D01*
X101003Y48000D02*
X105002D01*
X101003Y51999D01*
Y52998D01*
X102003Y53998D01*
X104002D01*
X105002Y52998D01*
X101501Y61998D02*
X102501Y62998D01*
X104500D01*
X105500Y61998D01*
Y58000D01*
X104500Y57000D01*
X102501D01*
X101501Y58000D01*
X95503Y57000D02*
X99502D01*
X95503Y60999D01*
Y61998D01*
X96503Y62998D01*
X98502D01*
X99502Y61998D01*
X73001Y83498D02*
X74001Y84498D01*
X76000D01*
X77000Y83498D01*
Y79500D01*
X76000Y78500D01*
X74001D01*
X73001Y79500D01*
X71002Y78500D02*
X69003D01*
X70002D01*
Y84498D01*
X71002Y83498D01*
X80500Y107498D02*
Y102500D01*
X79500Y101500D01*
X77501D01*
X76501Y102500D01*
Y107498D01*
X70503Y101500D02*
X74502D01*
X70503Y105499D01*
Y106498D01*
X71503Y107498D01*
X73502D01*
X74502Y106498D01*
X115000Y105500D02*
Y111498D01*
X112001D01*
X111001Y110498D01*
Y108499D01*
X112001Y107499D01*
X115000D01*
X113001D02*
X111001Y105500D01*
X109002D02*
X107003D01*
X108002D01*
Y111498D01*
X109002Y110498D01*
X115001Y129998D02*
X116001Y130998D01*
X118000D01*
X119000Y129998D01*
Y126000D01*
X118000Y125000D01*
X116001D01*
X115001Y126000D01*
X110003Y125000D02*
Y130998D01*
X113002Y127999D01*
X109003D01*
X90501Y128998D02*
X91501Y129998D01*
X93500D01*
X94500Y128998D01*
Y125000D01*
X93500Y124000D01*
X91501D01*
X90501Y125000D01*
X88502Y128998D02*
X87502Y129998D01*
X85503D01*
X84503Y128998D01*
Y127999D01*
X85503Y126999D01*
X86503D01*
X85503D01*
X84503Y125999D01*
Y125000D01*
X85503Y124000D01*
X87502D01*
X88502Y125000D01*
X105500Y132000D02*
Y137998D01*
X102501D01*
X101501Y136998D01*
Y134999D01*
X102501Y133999D01*
X105500D01*
X103501D02*
X101501Y132000D01*
X95503D02*
X99502D01*
X95503Y135999D01*
Y136998D01*
X96503Y137998D01*
X98502D01*
X99502Y136998D01*
X146500Y85000D02*
Y90998D01*
X143501D01*
X142501Y89998D01*
Y87999D01*
X143501Y86999D01*
X146500D01*
X144501D02*
X142501Y85000D01*
X136503Y89998D02*
X137503Y90998D01*
X139502D01*
X140502Y89998D01*
Y88999D01*
X139502Y87999D01*
X137503D01*
X136503Y86999D01*
Y86000D01*
X137503Y85000D01*
X139502D01*
X140502Y86000D01*
X134504Y85000D02*
X132504D01*
X133504D01*
Y90998D01*
X134504Y89998D01*
X147500Y106500D02*
Y112498D01*
X144501D01*
X143501Y111498D01*
Y109499D01*
X144501Y108499D01*
X147500D01*
X145501D02*
X143501Y106500D01*
X137503Y111498D02*
X138503Y112498D01*
X140502D01*
X141502Y111498D01*
Y107500D01*
X140502Y106500D01*
X138503D01*
X137503Y107500D01*
X131505Y112498D02*
X133504Y111498D01*
X135504Y109499D01*
Y107500D01*
X134504Y106500D01*
X132505D01*
X131505Y107500D01*
Y108499D01*
X132505Y109499D01*
X135504D01*
X165500Y106500D02*
Y112498D01*
X162501D01*
X161501Y111498D01*
Y109499D01*
X162501Y108499D01*
X165500D01*
X163501D02*
X161501Y106500D01*
X155503Y111498D02*
X156503Y112498D01*
X158502D01*
X159502Y111498D01*
Y107500D01*
X158502Y106500D01*
X156503D01*
X155503Y107500D01*
X149505Y112498D02*
X153504D01*
Y109499D01*
X151505Y110499D01*
X150505D01*
X149505Y109499D01*
Y107500D01*
X150505Y106500D01*
X152504D01*
X153504Y107500D01*
X186501Y91500D02*
Y95498D01*
X187501Y96498D01*
X189500D01*
X190500Y95498D01*
Y91500D01*
X189500Y90500D01*
X187501D01*
X188501Y92499D02*
X186501Y90500D01*
X187501D02*
X186501Y91500D01*
X184502Y90500D02*
X182503D01*
X183502D01*
Y96498D01*
X184502Y95498D01*
X104900Y90298D02*
Y84300D01*
X100901D01*
X48900Y114000D02*
Y119998D01*
X45901D01*
X44901Y118998D01*
Y116999D01*
X45901Y115999D01*
X48900D01*
X46901D02*
X44901Y114000D01*
X38903Y118998D02*
X39903Y119998D01*
X41902D01*
X42902Y118998D01*
Y115000D01*
X41902Y114000D01*
X39903D01*
X38903Y115000D01*
X36904Y114000D02*
X34905D01*
X35904D01*
Y119998D01*
X36904Y118998D01*
X31905D02*
X30906Y119998D01*
X28907D01*
X27907Y118998D01*
Y115000D01*
X28907Y114000D01*
X30906D01*
X31905Y115000D01*
Y118998D01*
X31900Y114000D02*
Y119998D01*
X28901D01*
X27901Y118998D01*
Y116999D01*
X28901Y115999D01*
X31900D01*
X29901D02*
X27901Y114000D01*
X21903Y118998D02*
X22903Y119998D01*
X24902D01*
X25902Y118998D01*
Y115000D01*
X24902Y114000D01*
X22903D01*
X21903Y115000D01*
X19904D02*
X18904Y114000D01*
X16905D01*
X15905Y115000D01*
Y118998D01*
X16905Y119998D01*
X18904D01*
X19904Y118998D01*
Y117999D01*
X18904Y116999D01*
X15905D01*
X46343Y122715D02*
Y128713D01*
X43344D01*
X42344Y127713D01*
Y125714D01*
X43344Y124714D01*
X46343D01*
X44344D02*
X42344Y122715D01*
X40345D02*
Y128713D01*
X37346D01*
X36346Y127713D01*
Y125714D01*
X37346Y124714D01*
X40345D01*
X34347Y122715D02*
X32348D01*
X33347D01*
Y128713D01*
X34347Y127713D01*
X131365Y119198D02*
Y113200D01*
X128366D01*
X127367Y114200D01*
Y118198D01*
X128366Y119198D01*
X131365D01*
X125367Y113200D02*
X123368D01*
X124368D01*
Y119198D01*
X125367Y118198D01*
X167500Y99000D02*
X173498D01*
Y101999D01*
X172498Y102999D01*
X170499D01*
X169499Y101999D01*
Y99000D01*
Y100999D02*
X167500Y102999D01*
X172498Y104998D02*
X173498Y105998D01*
Y107997D01*
X172498Y108997D01*
X171499D01*
X170499Y107997D01*
X169499Y108997D01*
X168500D01*
X167500Y107997D01*
Y105998D01*
X168500Y104998D01*
X169499D01*
X170499Y105998D01*
X171499Y104998D01*
X172498D01*
X170499Y105998D02*
Y107997D01*
X174500Y100000D02*
X180498D01*
Y102999D01*
X179498Y103999D01*
X177499D01*
X176499Y102999D01*
Y100000D01*
Y101999D02*
X174500Y103999D01*
X180498Y105998D02*
Y109997D01*
X179498D01*
X175500Y105998D01*
X174500D01*
X167498Y91999D02*
X168498Y90999D01*
Y89000D01*
X167498Y88000D01*
X163500D01*
X162500Y89000D01*
Y90999D01*
X163500Y91999D01*
X167498Y93998D02*
X168498Y94998D01*
Y96997D01*
X167498Y97997D01*
X166499D01*
X165499Y96997D01*
X164499Y97997D01*
X163500D01*
X162500Y96997D01*
Y94998D01*
X163500Y93998D01*
X164499D01*
X165499Y94998D01*
X166499Y93998D01*
X167498D01*
X165499Y94998D02*
Y96997D01*
X152000Y80500D02*
X157998D01*
Y83499D01*
X156998Y84499D01*
X154999D01*
X153999Y83499D01*
Y80500D01*
Y82499D02*
X152000Y84499D01*
Y86498D02*
Y88497D01*
Y87498D01*
X157998D01*
X156998Y86498D01*
Y91496D02*
X157998Y92496D01*
Y94495D01*
X156998Y95495D01*
X153000D01*
X152000Y94495D01*
Y92496D01*
X153000Y91496D01*
X156998D01*
X161500Y50000D02*
X167498D01*
Y52999D01*
X166498Y53999D01*
X164499D01*
X163499Y52999D01*
Y50000D01*
Y51999D02*
X161500Y53999D01*
X162500Y55998D02*
X161500Y56998D01*
Y58997D01*
X162500Y59997D01*
X166498D01*
X167498Y58997D01*
Y56998D01*
X166498Y55998D01*
X165499D01*
X164499Y56998D01*
Y59997D01*
X200498Y67000D02*
X195500D01*
X194500Y68000D01*
Y69999D01*
X195500Y70999D01*
X200498D01*
X199498Y72998D02*
X200498Y73998D01*
Y75997D01*
X199498Y76997D01*
X198499D01*
X197499Y75997D01*
Y74997D01*
Y75997D01*
X196499Y76997D01*
X195500D01*
X194500Y75997D01*
Y73998D01*
X195500Y72998D01*
X197998Y107499D02*
X198998Y106499D01*
Y104500D01*
X197998Y103500D01*
X194000D01*
X193000Y104500D01*
Y106499D01*
X194000Y107499D01*
X198998Y109498D02*
Y113497D01*
X197998D01*
X194000Y109498D01*
X193000D01*
X203498Y50000D02*
X197500D01*
Y53999D01*
Y59997D02*
Y55998D01*
X201499Y59997D01*
X202498D01*
X203498Y58997D01*
Y56998D01*
X202498Y55998D01*
X105000Y33000D02*
X109241Y37241D01*
X107121Y39362D01*
X105707D01*
X104293Y37948D01*
Y36534D01*
X106414Y34414D01*
X101466Y43603D02*
X102879D01*
X104293Y42189D01*
Y40776D01*
X103586Y40069D01*
X102173D01*
X100759Y41482D01*
X99345D01*
X98638Y40776D01*
Y39362D01*
X100052Y37948D01*
X101466D01*
X98638Y47844D02*
X100052Y46431D01*
Y45017D01*
X97224Y42189D01*
X95811D01*
X94397Y43603D01*
Y45017D01*
X97224Y47844D01*
X98638D01*
X96517Y49965D02*
X92276Y45724D01*
X89449Y48551D01*
X88035Y49965D02*
X90862Y52793D01*
Y55620D01*
X88035Y55620D01*
X85207Y52793D01*
X87328Y54913D01*
X90156Y52086D01*
X83794Y54206D02*
X88035Y58448D01*
X85914Y60568D01*
X84500D01*
X83087Y59154D01*
Y57741D01*
X85207Y55620D01*
X83794Y57034D02*
X80966Y57034D01*
D71*
X82910Y79831D02*
X82171Y80257D01*
Y79404D01*
X82910Y79831D01*
D72*
X181332Y109191D02*
X180497Y109674D01*
Y108709D01*
X181332Y109191D01*
D73*
X182015Y127449D02*
X185951D01*
X183983Y125481D02*
Y129417D01*
X118015Y127449D02*
X121951D01*
X119983Y125481D02*
Y129417D01*
M02*
