%FSTAX23Y23*%
%MOIN*%
%SFA1B1*%

%IPPOS*%
%AMD29*
4,1,8,-0.011800,0.003000,-0.011800,-0.003000,-0.009800,-0.004900,0.009800,-0.004900,0.011800,-0.003000,0.011800,0.003000,0.009800,0.004900,-0.009800,0.004900,-0.011800,0.003000,0.0*
1,1,0.003937,-0.009800,0.003000*
1,1,0.003937,-0.009800,-0.003000*
1,1,0.003937,0.009800,-0.003000*
1,1,0.003937,0.009800,0.003000*
%
%AMD30*
4,1,8,0.003000,0.011800,-0.003000,0.011800,-0.004900,0.009800,-0.004900,-0.009800,-0.003000,-0.011800,0.003000,-0.011800,0.004900,-0.009800,0.004900,0.009800,0.003000,0.011800,0.0*
1,1,0.003937,0.003000,0.009800*
1,1,0.003937,-0.003000,0.009800*
1,1,0.003937,-0.003000,-0.009800*
1,1,0.003937,0.003000,-0.009800*
%
%AMD37*
4,1,8,0.015000,0.006300,-0.015000,0.006300,-0.016500,0.004700,-0.016500,-0.004700,-0.015000,-0.006300,0.015000,-0.006300,0.016500,-0.004700,0.016500,0.004700,0.015000,0.006300,0.0*
1,1,0.003150,0.015000,0.004700*
1,1,0.003150,-0.015000,0.004700*
1,1,0.003150,-0.015000,-0.004700*
1,1,0.003150,0.015000,-0.004700*
%
%AMD38*
4,1,8,-0.006300,0.015000,-0.006300,-0.015000,-0.004700,-0.016500,0.004700,-0.016500,0.006300,-0.015000,0.006300,0.015000,0.004700,0.016500,-0.004700,0.016500,-0.006300,0.015000,0.0*
1,1,0.003150,-0.004700,0.015000*
1,1,0.003150,-0.004700,-0.015000*
1,1,0.003150,0.004700,-0.015000*
1,1,0.003150,0.004700,0.015000*
%
%AMD41*
4,1,8,-0.026700,-0.008100,0.026700,-0.008100,0.030700,-0.004000,0.030700,0.004000,0.026700,0.008100,-0.026700,0.008100,-0.030700,0.004000,-0.030700,-0.004000,-0.026700,-0.008100,0.0*
1,1,0.008071,-0.026700,-0.004000*
1,1,0.008071,0.026700,-0.004000*
1,1,0.008071,0.026700,0.004000*
1,1,0.008071,-0.026700,0.004000*
%
%AMD43*
4,1,8,0.015600,0.005300,-0.015600,0.005300,-0.016900,0.004000,-0.016900,-0.004000,-0.015600,-0.005300,0.015600,-0.005300,0.016900,-0.004000,0.016900,0.004000,0.015600,0.005300,0.0*
1,1,0.002661,0.015600,0.004000*
1,1,0.002661,-0.015600,0.004000*
1,1,0.002661,-0.015600,-0.004000*
1,1,0.002661,0.015600,-0.004000*
%
%AMD44*
4,1,8,-0.005300,0.015600,-0.005300,-0.015600,-0.004000,-0.016900,0.004000,-0.016900,0.005300,-0.015600,0.005300,0.015600,0.004000,0.016900,-0.004000,0.016900,-0.005300,0.015600,0.0*
1,1,0.002661,-0.004000,0.015600*
1,1,0.002661,-0.004000,-0.015600*
1,1,0.002661,0.004000,-0.015600*
1,1,0.002661,0.004000,0.015600*
%
%AMD75*
4,1,8,0.049100,0.051200,-0.049100,0.051200,-0.051200,0.049100,-0.051200,-0.049100,-0.049100,-0.051200,0.049100,-0.051200,0.051200,-0.049100,0.051200,0.049100,0.049100,0.051200,0.0*
1,1,0.004094,0.049100,0.049100*
1,1,0.004094,-0.049100,0.049100*
1,1,0.004094,-0.049100,-0.049100*
1,1,0.004094,0.049100,-0.049100*
%
%ADD10C,0.009449*%
%ADD13C,0.007874*%
%ADD14C,0.005000*%
%ADD16C,0.004000*%
%ADD17C,0.003937*%
%ADD18C,0.010000*%
%ADD19C,0.001969*%
%ADD22R,0.030000X0.030000*%
%ADD23R,0.035433X0.031496*%
%ADD24R,0.031496X0.035433*%
%ADD25R,0.030000X0.030000*%
%ADD26R,0.055118X0.129921*%
%ADD27R,0.055118X0.024409*%
%ADD28R,0.094488X0.043307*%
G04~CAMADD=29~8~0.0~0.0~98.4~236.2~19.7~0.0~15~0.0~0.0~0.0~0.0~0~0.0~0.0~0.0~0.0~0~0.0~0.0~0.0~90.0~236.0~98.0*
%ADD29D29*%
G04~CAMADD=30~8~0.0~0.0~98.4~236.2~19.7~0.0~15~0.0~0.0~0.0~0.0~0~0.0~0.0~0.0~0.0~0~0.0~0.0~0.0~0.0~98.4~236.2*
%ADD30D30*%
%ADD31R,0.007874X0.007874*%
%ADD32R,0.035433X0.011811*%
%ADD33R,0.011811X0.035433*%
%ADD34R,0.011811X0.011811*%
%ADD35R,0.056299X0.216535*%
%ADD36R,0.129921X0.055118*%
G04~CAMADD=37~8~0.0~0.0~330.7~126.0~15.7~0.0~15~0.0~0.0~0.0~0.0~0~0.0~0.0~0.0~0.0~0~0.0~0.0~0.0~0.0~330.7~126.0*
%ADD37D37*%
G04~CAMADD=38~8~0.0~0.0~330.7~126.0~15.7~0.0~15~0.0~0.0~0.0~0.0~0~0.0~0.0~0.0~0.0~0~0.0~0.0~0.0~90.0~126.0~331.0*
%ADD38D38*%
%ADD39R,0.038583X0.133858*%
%ADD40R,0.216535X0.056299*%
G04~CAMADD=41~8~0.0~0.0~614.2~161.4~40.4~0.0~15~0.0~0.0~0.0~0.0~0~0.0~0.0~0.0~0.0~0~0.0~0.0~0.0~180.0~614.0~162.0*
%ADD41D41*%
G04~CAMADD=43~8~0.0~0.0~338.6~106.3~13.3~0.0~15~0.0~0.0~0.0~0.0~0~0.0~0.0~0.0~0.0~0~0.0~0.0~0.0~0.0~338.6~106.3*
%ADD43D43*%
G04~CAMADD=44~8~0.0~0.0~338.6~106.3~13.3~0.0~15~0.0~0.0~0.0~0.0~0~0.0~0.0~0.0~0.0~0~0.0~0.0~0.0~90.0~106.0~338.0*
%ADD44D44*%
%ADD45R,0.035433X0.078740*%
%ADD57R,0.070866X0.070866*%
G04~CAMADD=75~8~0.0~0.0~1023.6~1023.6~20.5~0.0~15~0.0~0.0~0.0~0.0~0~0.0~0.0~0.0~0.0~0~0.0~0.0~0.0~0.0~1023.6~1023.6*
%ADD75D75*%
%ADD76R,0.106299X0.106299*%
%ADD77R,0.096457X0.096457*%
%ADD78C,0.005905*%
%ADD79C,0.019685*%
%ADD80C,0.015000*%
%ADD81R,0.059055X0.059055*%
%ADD82C,0.059055*%
%ADD83C,0.037401*%
%ADD84R,0.059055X0.059055*%
%ADD85C,0.019685*%
%ADD86O,0.070866X0.035433*%
%ADD87C,0.047244*%
%LNsolears_v1-1*%
%LPD*%
G36*
X02675Y03604D02*
X02902Y03377D01*
X02982Y03297*
X03014Y03265*
Y02215*
X03015Y02211*
X03017Y02207*
X03274Y0195*
Y01194*
X0309Y0101*
X01089*
X0101Y01084*
Y03505*
X01109Y03604*
X02675*
G37*
%LNsolears_v1-2*%
%LPC*%
G36*
X02569Y03473D02*
X02546D01*
Y03452*
X02569*
Y03473*
G37*
G36*
X02426D02*
X02403D01*
Y03452*
X02426*
Y03473*
G37*
G36*
X019Y03459D02*
Y03425D01*
X01934*
X01933Y0343*
X01929Y03439*
X01923Y03448*
X01914Y03454*
X01905Y03458*
X019Y03459*
G37*
G36*
X0189D02*
X01884Y03458D01*
X01875Y03454*
X01866Y03448*
X0186Y03439*
X01856Y0343*
X01855Y03425*
X0189*
Y03459*
G37*
G36*
X02569Y03442D02*
X02546D01*
Y03421*
X02569*
Y03442*
G37*
G36*
X02536Y03473D02*
X02491D01*
Y03447*
Y03421*
X02536*
Y03447*
Y03473*
G37*
G36*
X02481D02*
X02436D01*
Y03447*
Y03421*
X02481*
Y03447*
Y03473*
G37*
G36*
X02426Y03442D02*
X02403D01*
Y03421*
X02426*
Y03442*
G37*
G36*
X02151Y03454D02*
Y0342D01*
X02185*
X02184Y03425*
X0218Y03434*
X02174Y03443*
X02166Y03449*
X02156Y03453*
X02151Y03454*
G37*
G36*
X02141D02*
X02136Y03453D01*
X02126Y03449*
X02118Y03443*
X02111Y03434*
X02107Y03425*
X02107Y0342*
X02141*
Y03454*
G37*
G36*
X01795Y03455D02*
X01785Y03454D01*
X01777Y0345*
X01769Y03445*
X01764Y03437*
X0176Y03429*
X01759Y0342*
X0176Y0341*
X01763Y03404*
X01747Y03387*
X01744Y03384*
X01743Y0338*
Y03135*
X01734*
Y03094*
X01775*
Y03135*
X01766*
Y03375*
X01779Y03388*
X01785Y03385*
X01795Y03384*
X01804Y03385*
X01812Y03389*
X0182Y03394*
X01825Y03402*
X01829Y0341*
X0183Y0342*
X01829Y03429*
X01825Y03437*
X0182Y03445*
X01812Y0345*
X01804Y03454*
X01795Y03455*
G37*
G36*
X01565D02*
X01555Y03454D01*
X01547Y0345*
X01539Y03445*
X01534Y03437*
X0153Y03429*
X01529Y0342*
X0153Y0341*
X01534Y03402*
X01539Y03394*
X01547Y03389*
X01555Y03385*
X01565Y03384*
X01574Y03385*
X01582Y03389*
X0159Y03394*
X01595Y03402*
X01599Y0341*
X016Y0342*
X01599Y03429*
X01595Y03437*
X0159Y03445*
X01582Y0345*
X01574Y03454*
X01565Y03455*
G37*
G36*
X01934Y03415D02*
X019D01*
Y0338*
X01905Y03381*
X01914Y03385*
X01923Y03391*
X01929Y034*
X01933Y03409*
X01934Y03415*
G37*
G36*
X0189D02*
X01855D01*
X01856Y03409*
X0186Y034*
X01866Y03391*
X01875Y03385*
X01884Y03381*
X0189Y0338*
Y03415*
G37*
G36*
X02185Y0341D02*
X02151D01*
Y03375*
X02156Y03376*
X02166Y0338*
X02174Y03386*
X0218Y03395*
X02184Y03404*
X02185Y0341*
G37*
G36*
X02141D02*
X02107D01*
X02107Y03404*
X02111Y03395*
X02118Y03386*
X02126Y0338*
X02136Y03376*
X02141Y03375*
Y0341*
G37*
G36*
X02741Y033D02*
X02721D01*
Y0328*
X02741*
Y033*
G37*
G36*
X02711D02*
X02691D01*
Y0328*
X02711*
Y033*
G37*
G36*
X02676Y03285D02*
X02656D01*
Y03265*
X02676*
Y03285*
G37*
G36*
X02646D02*
X02626D01*
Y03265*
X02646*
Y03285*
G37*
G36*
X026Y03274D02*
X02596D01*
Y03264*
X02612*
X02612Y03267*
X02609Y03271*
X02605Y03273*
X026Y03274*
G37*
G36*
X0107Y03294D02*
Y0326D01*
X01104*
X01103Y03265*
X01099Y03274*
X01093Y03283*
X01084Y03289*
X01075Y03293*
X0107Y03294*
G37*
G36*
X0106D02*
X01054Y03293D01*
X01045Y03289*
X01036Y03283*
X0103Y03274*
X01026Y03265*
X01025Y0326*
X0106*
Y03294*
G37*
G36*
X01465Y03455D02*
X01455Y03454D01*
X01447Y0345*
X01439Y03445*
X01434Y03437*
X0143Y03429*
X01429Y0342*
X0143Y0341*
X01434Y03402*
X01439Y03394*
X01447Y03389*
X01455Y03385*
X01465Y03384*
X01474Y03385*
X01481Y03388*
X01548Y0332*
Y03258*
X01548Y03258*
X01543Y03256*
X01396Y03404*
X01399Y0341*
X014Y0342*
X01399Y03429*
X01395Y03437*
X0139Y03445*
X01382Y0345*
X01374Y03454*
X01365Y03455*
X01355Y03454*
X01347Y0345*
X01339Y03445*
X01334Y03437*
X0133Y03429*
X01329Y0342*
X0133Y0341*
X01334Y03402*
X01339Y03394*
X01347Y03389*
X01355Y03385*
X01365Y03384*
X01374Y03385*
X01381Y03388*
X01526Y03243*
Y03181*
X01521Y03179*
X01296Y03404*
X01299Y0341*
X013Y0342*
X01299Y03429*
X01295Y03437*
X0129Y03445*
X01282Y0345*
X01274Y03454*
X01265Y03455*
X01255Y03454*
X01247Y0345*
X01239Y03445*
X01234Y03437*
X0123Y03429*
X01229Y0342*
X0123Y0341*
X01234Y03402*
X01239Y03394*
X01247Y03389*
X01255Y03385*
X01265Y03384*
X01274Y03385*
X01281Y03388*
X0151Y03159*
Y03151*
X01505Y03149*
X01455Y032*
X01451Y03202*
X01447Y03203*
X01397*
X01196Y03404*
X01199Y0341*
X012Y0342*
X01199Y03429*
X01195Y03437*
X0119Y03445*
X01182Y0345*
X01174Y03454*
X01165Y03455*
X01155Y03454*
X01147Y0345*
X01139Y03445*
X01134Y03437*
X0113Y03429*
X01129Y0342*
X0113Y03411*
X01129Y03408*
X01127Y03406*
X011*
Y03455*
X01029*
Y03384*
X01088*
X01089Y03384*
X01127*
X01251Y0326*
X01255Y03258*
X01259Y03257*
X01289*
X01345Y032*
X01343Y03196*
X01239*
X012Y03235*
Y0329*
X01129*
Y03219*
X01184*
X01226Y03177*
X0123Y03174*
X01234Y03174*
X0135*
X01392Y03132*
X01391Y0313*
X01386Y03128*
X01382Y0313*
X01374Y03134*
X01365Y03135*
X01355Y03134*
X01347Y0313*
X01339Y03125*
X01334Y03117*
X0133Y03109*
X01329Y031*
X0133Y0309*
X01333Y03084*
X01307Y03058*
X01249*
X01245Y03057*
X01241Y03054*
X01173Y02986*
X01171Y02984*
X01167Y0298*
X01155*
X01153Y02984*
X01241Y03073*
X01247Y03069*
X01255Y03065*
X01265Y03064*
X01274Y03065*
X01282Y03069*
X0129Y03074*
X01295Y03082*
X01299Y0309*
X013Y031*
X01299Y03109*
X01295Y03117*
X0129Y03125*
X01282Y0313*
X01274Y03134*
X01265Y03135*
X01255Y03134*
X01247Y0313*
X01239Y03125*
X01234Y03117*
X0123Y03109*
X01229Y031*
X0123Y03093*
X01123Y02986*
X01121Y02984*
X01117Y0298*
X01087*
Y02984*
X01065*
Y02935*
Y02885*
X01087*
Y02889*
X01093*
Y0284*
X01095Y02833*
X01098Y02828*
X01103Y02825*
X0111Y02823*
X01116Y02825*
X01121Y02828*
X01124Y02833*
X01126Y0284*
Y02889*
X01131*
X01133*
X01136*
X01143*
Y0284*
X01145Y02833*
X01148Y02828*
X01153Y02825*
X0116Y02823*
X01166Y02825*
X01171Y02828*
X01174Y02833*
X01176Y0284*
Y02889*
X01181*
X01183*
X01186*
X01231*
X01233*
X01236*
X01248*
Y02865*
X01249Y0286*
X01252Y02857*
X01254Y02855*
X01253Y02855*
X01255Y02848*
X01258Y02843*
X01263Y0284*
X0127Y02838*
X01276Y0284*
X01281Y02843*
X01284Y02848*
X01286Y02855*
X01284Y02861*
X01281Y02866*
X01276Y02869*
X01271Y0287*
Y02889*
X01283*
X01286*
X01331*
X01333*
X01336*
X01381*
X01383*
X01386*
X01431*
X01433*
X01436*
X01481*
X01483*
X01486*
X01531*
X01533*
X01536*
X01581*
X01585*
X01588*
X01631*
X01633*
X01636*
X01658*
Y02858*
X01659Y02854*
X01662Y0285*
X01667Y02845*
X01671Y02842*
X01675Y02841*
X02023*
X02028Y02842*
X02031Y02845*
X0221Y03023*
X02212Y03027*
X02213Y03031*
X02215Y03031*
X02218Y03032*
X02221Y03029*
X02228Y03024*
X02237Y0302*
X02246Y03019*
X02255Y0302*
X02264Y03024*
X02271Y03029*
X02277Y03037*
X0228Y03045*
X02282Y03055*
X0228Y03064*
X02278Y03071*
X02302Y03095*
X0231*
X0231Y0309*
Y0309*
Y03019*
X02381*
Y0309*
X0238*
X0238Y03095*
X02383Y03096*
X02387Y03098*
X02432Y03144*
X02456*
X02457Y03139*
X02453Y03136*
X0245Y03131*
X02448Y03125*
X0245Y03118*
X02453Y03113*
X02458Y0311*
X02465Y03108*
X02471Y0311*
X02476Y03113*
X02476Y03113*
X02487*
X02487*
X02491Y03114*
X02495Y03117*
X0251Y03131*
X02511Y03131*
X02515Y03129*
Y03085*
X0249*
Y03014*
X02561*
Y03085*
X02537*
Y03134*
X02537Y03134*
X02542Y03136*
X02583Y03094*
Y03081*
Y03081*
X02584Y03077*
X02586Y03073*
X02594Y03066*
X02591Y03059*
X0259Y0305*
X02591Y0304*
X02595Y03032*
X02601Y03024*
X02608Y03019*
X02617Y03015*
X02626Y03014*
X02635Y03015*
X02644Y03019*
X02651Y03024*
X02657Y03032*
X0266Y0304*
X02662Y0305*
X0266Y03059*
X02657Y03067*
X02651Y03075*
X02644Y0308*
X02635Y03084*
X02626Y03085*
X02617Y03084*
X0261Y03081*
X02605Y03086*
Y03099*
X02605Y03103*
X02602Y03107*
Y03107*
X02556Y03153*
Y03155*
X02556Y03155*
Y03165*
X02561Y03168*
X02565*
X0257Y03169*
X02574Y03172*
X02576Y03176*
X02577Y0318*
Y03185*
X02581Y03189*
X0259*
X02591Y03189*
X0263*
Y03184*
X02632Y03179*
X0263Y03176*
X02628Y0317*
X0263Y03163*
X02633Y03158*
X02638Y03155*
X02645Y03153*
X02645Y03154*
X02732Y03067*
X02735Y03064*
X0274Y03063*
X02825*
X02829Y03064*
X02832Y03067*
X02858Y03092*
X02863Y03089*
X02872Y03085*
X02881Y03084*
X0289Y03085*
X02899Y03089*
X02906Y03094*
X02912Y03102*
X02915Y0311*
X02917Y0312*
X02915Y03129*
X02912Y03137*
X02906Y03145*
X02899Y0315*
X0289Y03154*
X02881Y03155*
X02872Y03154*
X02863Y0315*
X02856Y03145*
X0285Y03137*
X02846Y03129*
X02845Y0312*
X02846Y03112*
X02821Y03087*
X02816Y03089*
Y03155*
X02761*
X02727Y03189*
Y03199*
X02737*
Y0324*
X0271*
X02709Y03241*
X02705Y03242*
X02676*
Y03255*
X02651*
X02626*
Y0324*
X02623Y03238*
X02619Y03234*
X02617Y03234*
X02617Y03234*
X02591*
Y03244*
X02612*
X02612Y03247*
X0261Y03249*
X02612Y03251*
X02612Y03254*
X02591*
Y03259*
X02586*
Y03274*
X02581*
X02577Y03277*
Y03279*
X02576Y03283*
X02574Y03287*
X02572Y03288*
X02574Y03293*
X02636*
X0264Y03294*
X02644Y03296*
X02735Y03388*
X02742Y03385*
X02751Y03384*
X0276Y03385*
X02769Y03389*
X02776Y03394*
X02782Y03402*
X02785Y0341*
X02787Y0342*
X02785Y03429*
X02782Y03437*
X02776Y03445*
X02769Y0345*
X0276Y03454*
X02751Y03455*
X02742Y03454*
X02733Y0345*
X02726Y03445*
X0272Y03437*
X02716Y03429*
X02715Y0342*
X02716Y0341*
X02719Y03404*
X02631Y03315*
X02556*
X02556Y03317*
X02554Y0332*
X02553Y0332*
X02552Y03325*
X02552Y03326*
X0261Y03384*
X02626*
X02627Y03384*
X02686*
Y03455*
X02615*
Y03406*
X02605*
X02601Y03405*
X02597Y03403*
X02597*
X02569Y03375*
X02564Y03377*
Y03414*
X02517*
Y03403*
X02509*
Y03414*
X02462*
Y03403*
X02454*
Y03414*
X02407*
Y03403*
X02381*
Y0345*
X0231*
Y03379*
X02381*
Y03381*
X02407*
Y0337*
X02403Y03369*
X02307*
X02278Y03399*
X0228Y03405*
X02282Y03415*
X0228Y03424*
X02277Y03432*
X02271Y0344*
X02264Y03445*
X02255Y03449*
X02246Y0345*
X02237Y03449*
X02228Y03445*
X02221Y0344*
X02215Y03432*
X02211Y03424*
X0221Y03415*
X02211Y03405*
X02215Y03397*
X02221Y03389*
X02228Y03384*
X02237Y0338*
X02246Y03379*
X02255Y0338*
X02262Y03383*
X02294Y0335*
X02298Y03348*
X02302Y03347*
X02435*
X02475Y03306*
Y03304*
X02475Y03304*
Y03294*
X02471Y03291*
X02467*
X02462Y0329*
X02458Y03287*
X02455Y03283*
X02454Y03279*
Y03274*
X02451Y0327*
X02442*
X02441Y0327*
X02439*
X02409Y033*
X02406Y03302*
X02402Y03303*
X024Y03307*
Y03328*
X02357*
Y03283*
Y03281*
Y03278*
Y03231*
Y03228*
Y03181*
Y03178*
Y03176*
Y03131*
X02381*
X02383Y03126*
X02374Y03117*
X023*
X023Y03117*
X02298Y03122*
X02306Y03131*
X02313*
X02314Y03131*
X02345*
Y03178*
Y03181*
Y03183*
Y03228*
Y03231*
Y03233*
Y03278*
Y03281*
Y03283*
Y03328*
X02302*
Y03297*
X02298Y03293*
X02295Y03291*
X02098Y03093*
X02095Y0309*
X02094Y03086*
Y03013*
X01992Y0291*
X01987Y02912*
Y0293*
X0196*
Y02935*
X01955*
Y02984*
X01932*
Y0298*
X01921*
Y03015*
X01943*
Y03059*
X01896*
Y03015*
X01898*
Y0298*
X01886*
X01883*
X01871*
Y03015*
X01883*
Y03059*
X01836*
Y03015*
X01848*
Y0298*
X01836*
X01833*
X01831*
X01786*
X01783*
X01781*
X01755*
X01753Y02984*
X01769Y03001*
X01773Y03003*
X01778Y03*
X01785Y02998*
X01791Y03*
X01796Y03003*
X01799Y03008*
X01801Y03015*
X01799Y03021*
X01796Y03026*
X01791Y03029*
X01785Y03031*
X01778Y03029*
X01773Y03026*
X01773Y03026*
X01767*
X01763Y03025*
X01759Y03022*
X01723Y02986*
X01721Y02984*
X01717Y0298*
X01686*
X01683*
X01648*
X01646Y02985*
X0169Y03028*
X01692Y03032*
X01693Y03036*
Y03045*
X01718*
Y03048*
X01734*
Y03039*
X01775*
Y0308*
X01734*
Y03071*
X01718*
Y03089*
X01673*
X0167*
X01666*
X01621*
Y03071*
X01605*
Y0308*
X01564*
Y03094*
X01605*
Y03135*
X01596*
Y03305*
X01675Y03384*
X0173*
Y03455*
X01659*
Y034*
X01577Y03317*
X01576Y03316*
X01571Y03317*
Y03325*
X0157Y03329*
X01567Y03332*
X01496Y03404*
X01499Y0341*
X015Y0342*
X01499Y03429*
X01495Y03437*
X0149Y03445*
X01482Y0345*
X01474Y03454*
X01465Y03455*
G37*
G36*
X0189Y03284D02*
Y0325D01*
X01924*
X01923Y03255*
X01919Y03264*
X01913Y03273*
X01904Y03279*
X01895Y03283*
X0189Y03284*
G37*
G36*
X0188D02*
X01874Y03283D01*
X01865Y03279*
X01856Y03273*
X0185Y03264*
X01846Y03255*
X01845Y0325*
X0188*
Y03284*
G37*
G36*
X02741Y0327D02*
X02721D01*
Y0325*
X02741*
Y0327*
G37*
G36*
X02711D02*
X02691D01*
Y0325*
X02711*
Y0327*
G37*
G36*
X0173Y0326D02*
X0171D01*
Y0324*
X0173*
Y0326*
G37*
G36*
X01665D02*
X01645D01*
Y0324*
X01665*
Y0326*
G37*
G36*
X01635D02*
X01615D01*
Y0324*
X01635*
Y0326*
G37*
G36*
X017D02*
X0168D01*
Y0324*
X017*
Y0326*
G37*
G36*
X01104Y0325D02*
X0107D01*
Y03215*
X01075Y03216*
X01084Y0322*
X01093Y03226*
X01099Y03235*
X01103Y03244*
X01104Y0325*
G37*
G36*
X0106D02*
X01025D01*
X01026Y03244*
X0103Y03235*
X01036Y03226*
X01045Y0322*
X01054Y03216*
X0106Y03215*
Y0325*
G37*
G36*
X0173Y0323D02*
X0171D01*
Y0321*
X0173*
Y0323*
G37*
G36*
X017D02*
X0168D01*
Y0321*
X017*
Y0323*
G37*
G36*
X01665D02*
X01645D01*
Y0321*
X01665*
Y0323*
G37*
G36*
X01635D02*
X01615D01*
Y0321*
X01635*
Y0323*
G37*
G36*
X0212Y0328D02*
X02049D01*
Y03231*
X02045Y0323*
X02042Y03228*
X01927Y03114*
X01896*
Y0307*
X01943*
Y03098*
X02054Y03209*
X0206*
X02061Y03209*
X0212*
Y0328*
G37*
G36*
X01985Y0328D02*
X01975Y03279D01*
X01967Y03275*
X01959Y0327*
X01954Y03262*
X0195Y03254*
X01949Y03245*
X0195Y03235*
X01953Y03229*
X01864Y0314*
X01862Y03136*
X01861Y03132*
Y03114*
X01836*
Y0307*
X01883*
Y03102*
X01883Y03103*
Y03128*
X01969Y03213*
X01975Y0321*
X01985Y03209*
X01994Y0321*
X02002Y03214*
X0201Y03219*
X02015Y03227*
X02019Y03235*
X0202Y03245*
X02019Y03254*
X02015Y03262*
X0201Y0327*
X02002Y03275*
X01994Y03279*
X01985Y0328*
G37*
G36*
X01924Y0324D02*
X0189D01*
Y03205*
X01895Y03206*
X01904Y0321*
X01913Y03216*
X01919Y03225*
X01923Y03234*
X01924Y0324*
G37*
G36*
X0188D02*
X01845D01*
X01846Y03234*
X0185Y03225*
X01856Y03216*
X01865Y0321*
X01874Y03206*
X0188Y03205*
Y0324*
G37*
G36*
X01725Y032D02*
X01684D01*
Y03171*
X01683Y0317*
Y03147*
X0168Y03144*
X0167*
X01666*
X01651*
Y03159*
X0166*
Y032*
X01619*
Y03159*
X01628*
Y03144*
X01621*
Y031*
X01666*
X0167*
X01673*
X01718*
Y03144*
X01706*
Y03159*
X01725*
Y032*
G37*
G36*
X0107Y03139D02*
Y03105D01*
X01104*
X01103Y0311*
X01099Y03119*
X01093Y03128*
X01084Y03134*
X01075Y03138*
X0107Y03139*
G37*
G36*
X0106D02*
X01054Y03138D01*
X01045Y03134*
X01036Y03128*
X0103Y03119*
X01026Y0311*
X01025Y03105*
X0106*
Y03139*
G37*
G36*
X01165Y03135D02*
X01155Y03134D01*
X01147Y0313*
X01139Y03125*
X01134Y03117*
X0113Y03109*
X01129Y031*
X0113Y0309*
X01134Y03082*
X01139Y03074*
X01147Y03069*
X01155Y03065*
X01165Y03064*
X01174Y03065*
X01182Y03069*
X0119Y03074*
X01195Y03082*
X01199Y0309*
X012Y031*
X01199Y03109*
X01195Y03117*
X0119Y03125*
X01182Y0313*
X01174Y03134*
X01165Y03135*
G37*
G36*
X01104Y03095D02*
X0107D01*
Y0306*
X01075Y03061*
X01084Y03065*
X01093Y03071*
X01099Y0308*
X01103Y03089*
X01104Y03095*
G37*
G36*
X0106D02*
X01025D01*
X01026Y03089*
X0103Y0308*
X01036Y03071*
X01045Y03065*
X01054Y03061*
X0106Y0306*
Y03095*
G37*
G36*
X0199Y03074D02*
Y0306D01*
X02004*
X02003Y03062*
X01999Y03069*
X01992Y03073*
X0199Y03074*
G37*
G36*
X0198D02*
X01977Y03073D01*
X0197Y03069*
X01966Y03062*
X01965Y0306*
X0198*
Y03074*
G37*
G36*
X02004Y0305D02*
X0199D01*
Y03035*
X01992Y03036*
X01999Y0304*
X02003Y03047*
X02004Y0305*
G37*
G36*
X0198D02*
X01965D01*
X01966Y03047*
X0197Y0304*
X01977Y03036*
X0198Y03035*
Y0305*
G37*
G36*
X01987Y02984D02*
X01965D01*
Y0294*
X01987*
Y02984*
G37*
G36*
X01055D02*
X01032D01*
Y0294*
X01055*
Y02984*
G37*
G36*
Y0293D02*
X01032D01*
Y02885*
X01055*
Y0293*
G37*
G36*
X0287Y02899D02*
X02818D01*
Y02872*
X0287*
Y02899*
G37*
G36*
X02808D02*
X02756D01*
Y02872*
X02808*
Y02899*
G37*
G36*
X02516D02*
X02464D01*
Y02872*
X02516*
Y02899*
G37*
G36*
X02454D02*
X02401D01*
Y02872*
X02454*
Y02899*
G37*
G36*
X0224Y02855D02*
X02199D01*
Y02846*
X0216*
X02155Y02845*
X02152Y02842*
X0215Y02841*
X0215Y02841*
X02143Y02839*
X02138Y02836*
X02135Y02831*
X02133Y02825*
X02135Y02818*
X02138Y02813*
X02143Y0281*
X0215Y02808*
X02156Y0281*
X02161Y02813*
X02164Y02818*
X02165Y02823*
X02199*
Y02814*
X0224*
Y02855*
G37*
G36*
X0287Y02862D02*
X02818D01*
Y02836*
X0287*
Y02862*
G37*
G36*
X02808D02*
X02756D01*
Y02836*
X02808*
Y02862*
G37*
G36*
X02516D02*
X02464D01*
Y02836*
X02516*
Y02862*
G37*
G36*
X02454D02*
X02401D01*
Y02836*
X02454*
Y02862*
G37*
G36*
X0224Y028D02*
X02199D01*
Y02791*
X01965*
X0196Y0279*
X01957Y02787*
X01423Y02254*
X01421Y0225*
X0142Y02246*
Y02242*
X01417Y0224*
X01398*
X01396Y02245*
X01577Y02426*
X01577Y02426*
X01583Y02427*
X01588Y02431*
X01592Y02436*
X01593Y02442*
X01592Y02448*
X01588Y02453*
X01583Y02457*
X01577Y02458*
X01571Y02457*
X01566Y02453*
X01562Y02448*
X01561Y02442*
X01561Y02442*
X01373Y02254*
X01371Y0225*
X0137Y02246*
Y02242*
X01367Y0224*
X01336*
X01333*
X01302*
X01299Y02242*
Y02361*
X01298Y02365*
X01296Y02369*
X01267Y02397*
X01264Y024*
X0126Y02401*
X01081*
X01081Y02401*
X01076Y02404*
X0107Y02406*
X01063Y02404*
X01058Y02401*
X01055Y02396*
X01053Y0239*
X01055Y02383*
X01058Y02378*
X01063Y02375*
X0107Y02373*
X01076Y02375*
X01081Y02378*
X01081Y02378*
X01255*
X01277Y02356*
Y02286*
X01272Y02284*
X01271Y02286*
X01266Y02289*
X0126Y02291*
X01253Y02289*
X01248Y02286*
X01245Y02281*
X01243Y02275*
Y02243*
X0124Y0224*
X01234*
X01231Y02243*
Y0226*
X01229Y02266*
X01226Y02271*
X01221Y02274*
X01215Y02276*
X01208Y02274*
X01203Y02271*
X012Y02266*
X01198Y0226*
Y02243*
X01195Y0224*
X01185*
X01181*
X01176*
Y0226*
X01174Y02266*
X01171Y02271*
X01166Y02274*
X0116Y02276*
X01153Y02274*
X01148Y02271*
X01145Y02266*
X01143Y0226*
Y02243*
X0114Y0224*
X01135*
X01131*
X01087*
Y02244*
X01065*
Y02195*
Y02145*
X01079*
X01081Y02141*
X0107Y0213*
X01026*
Y01989*
X01044*
Y01971*
X01033Y01961*
X0103Y01956*
X01028Y0195*
X0103Y01943*
X01033Y01938*
X01038Y01935*
X01045Y01933*
X01051Y01935*
X01056Y01938*
X01071Y01953*
X01075Y01959*
X01076Y01965*
Y01977*
X0108Y01979*
X01118Y01941*
X0112Y0194*
Y01921*
X01153*
X01155Y01916*
X01119Y01881*
X01085*
X01083Y0188*
X01054*
Y01839*
X01095*
Y01858*
X01124*
X01128Y01859*
X01129Y01859*
X01134Y01857*
Y01834*
X01175*
Y0186*
X0119Y01875*
X01191Y01875*
X01196Y01878*
X01199Y01883*
X01201Y0189*
X01199Y01896*
X01197Y019*
X01198Y01904*
X01199Y01905*
X01237*
X01239Y019*
X01235Y01895*
X01209*
Y01854*
X0125*
Y0188*
X01255Y01884*
X0126Y01883*
X01266Y01885*
X01271Y01888*
X01274Y01892*
X01279Y01891*
Y01874*
X01311*
X01313Y01869*
X01305Y0186*
X01279*
Y01841*
X01273Y01836*
X0125*
Y0184*
X01209*
Y01821*
X01203Y01816*
X01175*
Y0182*
X01134*
Y01801*
X0111Y01778*
X01107Y01773*
X01105Y01767*
Y01754*
X01097Y01745*
X01095Y01745*
X01085Y01744*
X01081Y01742*
X01076Y01745*
Y01784*
X01095*
Y01825*
X01054*
Y01796*
X01053Y01795*
Y01742*
X01046Y01735*
X01044Y01731*
X01043Y01727*
Y0167*
X01044Y01666*
X01046Y01662*
X01057Y01652*
X0106Y01649*
X01065Y01648*
X01083*
X01084Y01643*
X01077Y0164*
X01069Y01635*
X01064Y01627*
X0106Y01619*
X01059Y0161*
X0106Y016*
X01064Y01592*
X01069Y01584*
X01077Y01579*
X01085Y01575*
X01095Y01574*
X01104Y01575*
X01112Y01579*
X0112Y01584*
X0112Y01584*
X01357*
X01538Y01403*
Y01335*
X0154Y01328*
X01543Y01323*
X01563Y01303*
X01573Y01294*
Y01198*
X01574Y01192*
X01577Y01187*
X01587Y01177*
X01592Y01174*
X01598Y01173*
X01765*
Y01166*
X01809*
Y01211*
X01814Y01213*
X01816Y01211*
Y01195*
X01837*
Y01217*
X01828*
X01826Y01222*
X01837Y01233*
X01839Y01233*
X0184Y01232*
X01844Y01231*
Y01258*
X01849*
Y01263*
X01864*
Y01274*
X01866Y01276*
X01868*
Y01282*
X0187Y01284*
X01893*
X0192Y01257*
X01924Y01254*
X01928Y01253*
X01929*
Y01234*
X0197*
Y0126*
X01999Y01289*
X02025*
Y0133*
X01984*
Y01304*
X01955Y01275*
X01941*
X0194Y01276*
X01933*
X01909Y013*
X01908Y01302*
X01906Y01304*
Y01306*
X01908Y01308*
X01909Y01311*
Y01319*
X01908Y01321*
X01909Y01322*
X01912Y01326*
X01913Y0133*
X01886*
Y0134*
X01913*
X01912Y01343*
X01909Y01347*
X01908Y01348*
X01909Y0135*
Y01358*
X01912Y01363*
X01921*
Y01345*
X01968*
Y01356*
X01984*
Y01344*
X02025*
Y01363*
X02081Y01418*
X0217*
X02173Y01413*
X0218Y01409*
X02187Y01406*
X02195Y01405*
X02202Y01406*
X02209Y01409*
X02216Y01413*
X02219Y01418*
X02279*
X02307Y0139*
X02312Y01387*
X02318Y01386*
X02434*
X02441Y01387*
X02446Y0139*
X02467Y01412*
X02495*
Y01542*
X02496Y01543*
X02498Y01546*
X02499Y01551*
Y01599*
X025Y016*
X025Y01603*
Y01607*
X02551*
X02575Y01583*
Y0157*
X026*
Y01565*
X02605*
Y0154*
X02625*
Y01562*
X02625Y01563*
X0263Y01565*
X02632Y01563*
X02636Y01562*
X02684*
X02688Y01563*
X02691Y01566*
X02702Y01577*
X02705Y0158*
X02706Y01585*
Y0162*
X02705Y01624*
X02702Y01627*
X0268Y01649*
Y01675*
X02639*
Y01667*
X02634Y01666*
X02631Y01669*
X02627Y01671*
X02623Y01672*
Y01694*
X02592*
X02589Y01697*
X02591Y01701*
X02595*
Y01722*
X02572*
Y0172*
X02567Y01717*
X02566Y01718*
X02562Y01718*
X02554*
X02551Y01723*
X02552Y01724*
X02552Y01728*
X02526*
Y01733*
X02521*
Y01749*
X02513*
Y01758*
X02504*
Y01766*
X02488*
Y01771*
X02483*
Y01797*
X02479Y01797*
X02478Y01796*
X02473Y01799*
Y01824*
X02485*
Y01833*
X02509*
Y01824*
X0255*
Y01865*
X02509*
Y01856*
X02485*
Y01865*
X02444*
Y01824*
X02451*
Y01794*
X02449Y01792*
X02446Y01791*
X02444Y01793*
X02441Y01793*
X02432*
X02429Y01793*
X02427Y01791*
X02425Y01792*
X02422Y01794*
Y01824*
X0243*
Y01865*
X02389*
Y01824*
X024*
Y0179*
X02399Y01789*
X02399Y01786*
Y0177*
X02392*
X02388Y01769*
X02385Y01767*
X02377Y01759*
X02376Y01757*
X0237Y01756*
X0236Y01766*
X02359Y01767*
X02345Y01781*
X0234Y01784*
X02334Y01785*
X0231*
Y01803*
X02169*
Y01785*
X02104*
X02103Y01785*
X02049*
Y01714*
X0212*
Y01753*
X02169*
Y01736*
X0231*
Y01753*
X02327*
X02336Y01745*
X02337Y01744*
X02351Y0173*
Y01728*
X02351Y01725*
X02353Y01723*
Y01717*
X02351Y01715*
X02351Y01712*
Y01703*
X02351Y017*
X02353Y01697*
Y01692*
X02351Y01689*
X02351Y01686*
Y01677*
X02351Y01674*
X02353Y01672*
Y01666*
X02351Y01664*
X02351Y01661*
Y01651*
X02351Y01648*
X02353Y01646*
X02355Y01644*
X02358Y01644*
X02359*
Y01557*
X02351*
Y01418*
X02325*
X02297Y01446*
X02292Y01449*
X02286Y01451*
X02286*
X02219*
X02216Y01456*
X02209Y0146*
X02202Y01463*
X02195Y01464*
X02187Y01463*
X0218Y0146*
X02173Y01456*
X0217Y01451*
X02075*
X02068Y01449*
X02063Y01446*
X02003Y01385*
X01984*
Y01378*
X01968*
Y01389*
X01921*
Y01385*
X01903*
X01901Y01385*
X01884*
X01884Y01386*
X01882Y0139*
X01865Y01407*
X01861Y01409*
X0186Y01409*
Y01426*
X0186Y01429*
X01858Y01431*
X01856Y01433*
X01853Y01434*
X01845*
X0184Y01437*
Y0145*
X01861Y0147*
X01913*
Y01699*
X01845*
Y01486*
X01821Y01462*
X01819Y01459*
X01818Y01455*
Y01437*
X01813Y01434*
X01806*
X01802Y01435*
X018Y01437*
X018Y01439*
X01797Y01443*
X01754Y01486*
Y01699*
X01686*
Y0147*
X01722*
Y01385*
X01718*
X01715Y01385*
X01713Y01383*
X01711Y01381*
X0171Y01378*
Y0137*
X01707Y01365*
X01678*
Y01384*
X01631*
Y0134*
X01678*
Y01343*
X01707*
X0171Y01338*
Y01331*
X01707Y01326*
X01586*
X01571Y01341*
Y0141*
X01569Y01416*
X01566Y01421*
X01375Y01611*
X01376Y01613*
X01377Y01616*
X01594*
Y01685*
X01365*
Y01643*
X01323*
Y01654*
X01292*
X01289Y01657*
X01291Y01661*
X01295*
Y01682*
X01272*
Y01672*
X0127Y01671*
X01106*
X01105Y01676*
X01112Y01679*
X0112Y01684*
X01125Y01692*
X01129Y017*
X0113Y0171*
X01129Y01719*
X01125Y01727*
X01125Y01728*
X01133Y01736*
X01136Y01741*
X01138Y01747*
Y0176*
X01156Y01779*
X01175*
Y01783*
X0121*
X01216Y01785*
X01221Y01788*
X01231Y01799*
X0125*
Y01803*
X01276*
Y01765*
X01323*
Y01809*
X01316*
Y01819*
X0132*
Y01845*
X01368Y01893*
X01371Y01896*
X01371Y01897*
X01413*
X01417Y01894*
Y01844*
X01365*
Y01775*
X01594*
Y01844*
X01439*
Y01921*
X01438Y01926*
X01436Y01929*
X01427Y01938*
X01423Y0194*
X01423Y0194*
Y01941*
X01422Y01945*
X01423Y01948*
X01423Y01948*
X01426Y01953*
X01427Y01957*
X01386*
Y01967*
X01427*
X01426Y01972*
X01429Y01977*
X01576*
X01578Y01972*
X01578Y01972*
X01577Y0197*
X01576Y01966*
Y01958*
X01577Y01954*
X01579Y01951*
Y01948*
X01577Y01945*
X01576Y01941*
Y01933*
X01577Y01929*
X01578Y01927*
X01579Y01924*
X01578Y0192*
X01577Y01919*
X01576Y01915*
Y01907*
X01577Y01903*
X01579Y019*
X01582Y01898*
X01586Y01897*
X01616*
X01616Y01897*
X01636*
X01639Y01893*
X01638Y0189*
X0164Y01883*
X01643Y01878*
X01648Y01875*
X01655Y01873*
X01659Y01874*
X01666Y01868*
Y0184*
X01713*
Y01848*
X01734*
Y01839*
X01775*
Y0188*
X01734*
Y01871*
X01713*
Y01884*
X01682*
X0167Y01895*
X01672Y019*
X01713*
Y01911*
X01721*
X01723Y01908*
X01728Y01905*
X01735Y01903*
X01741Y01905*
X01746Y01908*
X01749Y01913*
X01751Y0192*
X01749Y01926*
X01746Y01931*
X01741Y01934*
X01735Y01936*
X01728Y01934*
X01726Y01933*
X01713*
Y01944*
X01682*
X01681Y01945*
X01677Y01947*
X01677Y01947*
Y01952*
X01677Y01952*
X01681Y01954*
X01682Y01955*
X01713*
Y01966*
X01722*
X01729Y0196*
X01728Y0196*
X0173Y01953*
X01733Y01948*
X01738Y01945*
X01745Y01943*
X01751Y01945*
X01756Y01948*
X01759Y01953*
X01761Y0196*
X01759Y01966*
X01756Y01971*
X01751Y01974*
X01745Y01976*
X01744Y01976*
X01735Y01985*
X01731Y01987*
X01727Y01988*
X01713*
Y01999*
X01666*
Y01973*
X0165*
X01648Y01978*
X01648Y01979*
X01649Y0198*
X0165Y01984*
Y01992*
X01649Y01996*
X01647Y01999*
X01643Y02001*
X0164Y02002*
X01586*
X01582Y02001*
X01579Y01999*
X01579Y01999*
X0142*
X0142Y01999*
X01417Y02001*
X01413Y02002*
X01359*
X01356Y02001*
X01352Y01999*
X01352Y01999*
X01315*
X01314Y01999*
X01281*
Y01971*
X01237Y01927*
X01223*
Y0194*
X01197*
X01171*
Y01931*
X01168Y01929*
X01164Y01932*
Y01968*
X01138*
X01136Y01968*
X01093Y02011*
Y02108*
X01113Y02127*
X01116Y02133*
X01118Y02139*
Y02146*
X01121Y02149*
X01135*
X01138*
X01181*
X01185*
X01188*
X01231*
X01235*
X01238*
X01283*
X01286*
X01288*
X01298*
Y0213*
X01289*
Y02089*
X01315*
X01374Y02029*
X01378Y02027*
X01382Y02026*
X01787*
X01847Y01967*
X0185Y01964*
X01855Y01963*
X01859Y01964*
X01861Y01965*
X01874*
Y01929*
X01915*
Y01948*
X01981*
X01983Y01944*
X01972Y01932*
X01969Y01929*
X01968Y01925*
Y01913*
X01962Y0191*
X01954Y01905*
X01949Y01897*
X01945Y01889*
X01944Y0188*
X01945Y0187*
X01949Y01862*
X01954Y01854*
X01962Y01849*
X0197Y01845*
X0198Y01844*
X01989Y01845*
X01997Y01849*
X02005Y01854*
X0201Y01862*
X02014Y0187*
X02015Y0188*
X02014Y01889*
X0201Y01897*
X02005Y01905*
X01997Y0191*
X01991Y01913*
Y0192*
X02019Y01949*
X02045*
Y0199*
X02004*
Y01971*
X01926*
X01924Y01975*
X01958Y02009*
X01962Y02011*
X01982*
Y02025*
X02004*
Y02004*
X02045*
Y02045*
X02004*
Y02044*
X01994*
X0199Y02049*
X01991Y0205*
X0199Y02054*
X01987Y02057*
X01984Y0206*
X0198Y02061*
X01974*
X0195Y02085*
X01946Y02087*
X01942Y02088*
X01892*
X01891Y02093*
X01894Y02095*
X01898Y02102*
X01899Y02105*
X0186*
X01861Y02102*
X01865Y02095*
X01868Y02093*
X01867Y02088*
X01597*
X0158Y02104*
Y0213*
X01571*
Y02149*
X01581*
X01583*
X01586*
X01631*
X01633*
X01636*
X01681*
X01685*
X01688*
X01731*
X01735*
X01738*
X01781*
X01785*
X01788*
X01831*
X01835*
X01838*
X01881*
X01885*
X01888*
X01932*
Y02145*
X01955*
Y02195*
Y02244*
X01932*
Y0224*
X01926*
Y0228*
X01924Y02286*
X01921Y02291*
X01916Y02294*
X0191Y02296*
X01903Y02294*
X01898Y02291*
X01895Y02286*
X01893Y0228*
Y02243*
X0189Y0224*
X01885*
X01881*
X01876*
Y0228*
X01874Y02286*
X01871Y02291*
X01866Y02294*
X0186Y02296*
X01853Y02294*
X01848Y02291*
X01845Y02286*
X01843Y0228*
Y02243*
X0184Y0224*
X01835*
X01831*
X01826*
Y0228*
X01824Y02286*
X01821Y02291*
X01816Y02294*
X0181Y02296*
X01803Y02294*
X01798Y02291*
X01795Y02286*
X01793Y0228*
Y02243*
X0179Y0224*
X01785*
X01781*
X01776*
Y0228*
X01774Y02286*
X01771Y02291*
X01766Y02294*
X0176Y02296*
X01753Y02294*
X01748Y02291*
X01745Y02286*
X01743Y0228*
Y02243*
X0174Y0224*
X01735*
X01731*
X01726*
Y0228*
X01724Y02286*
X01721Y02291*
X01716Y02294*
X0171Y02296*
X01703Y02294*
X01698Y02291*
X01695Y02286*
X01693Y0228*
Y02243*
X0169Y0224*
X01684*
X01681Y02243*
Y0228*
X01679Y02286*
X01676Y02291*
X01672Y02293*
X0167Y02299*
X01736Y02364*
X01881*
X01884Y02359*
X01883Y02355*
X01885Y02348*
X01888Y02343*
X01893Y0234*
X019Y02338*
X019Y02339*
X02162Y02077*
X02165Y02074*
X0217Y02073*
X02199*
Y02064*
X02225*
X02233Y02055*
X02231Y0205*
X02199*
Y02009*
X02211*
Y01988*
X022*
Y01976*
X02194*
X02151Y02019*
X02151Y0202*
X02149Y02026*
X02146Y02031*
X02141Y02034*
X02135Y02036*
X02128Y02034*
X02123Y02031*
X0212Y02026*
X02118Y0202*
X0212Y02013*
X02123Y02008*
X02128Y02005*
X02135Y02003*
X02135Y02004*
X02182Y01957*
X02185Y01954*
X0219Y01953*
X022*
Y01941*
X02244*
Y01988*
X02233*
Y02009*
X0224*
Y02041*
X02245Y02043*
X02254Y02035*
Y02009*
X02295*
Y0205*
X02269*
X02261Y02059*
X02263Y02064*
X02295*
Y02093*
X02296Y02095*
Y02114*
X02365Y02184*
X02368Y02188*
X02368Y02192*
Y02268*
X024*
X02401Y02263*
Y02263*
Y02236*
X02454*
Y02263*
X02414*
X02413Y02268*
Y02268*
Y02304*
X02355*
X02352Y02309*
X02354Y02311*
X02413*
Y02347*
X02365*
X02362Y02352*
X02364Y02354*
X02413*
Y02388*
Y0239*
X02417Y02393*
X02417*
Y02411*
X0238*
X02342*
Y02393*
X02343*
X02346Y0239*
Y02388*
Y0237*
X02332Y02356*
X02285*
X02283Y02355*
X02254*
Y02314*
X02263*
Y023*
X02254*
Y02259*
X02277*
X02279Y02254*
X02277Y02252*
X02274Y02248*
X02273Y02244*
Y02244*
Y0223*
X02254*
Y02189*
X02263*
Y02175*
X02254*
Y02134*
X02277*
X02279Y02129*
X02277Y02127*
X02274Y02123*
X02273Y02119*
Y02119*
Y02105*
X02254*
Y02073*
X02249Y02071*
X0224Y02079*
Y02105*
X02199*
Y02096*
X02174*
X01916Y02354*
X01916Y02355*
X01915Y02356*
X01919Y02361*
X01922Y02361*
X02072Y02212*
X02075Y02209*
X0208Y02208*
X02199*
Y02189*
X0224*
Y0223*
X02211*
X0221Y02231*
X02084*
X01941Y02373*
X01944Y02378*
X01946Y02377*
X02161*
X02172Y02366*
X02172Y02366*
X02169Y02362*
X02168Y02363*
X02166Y02364*
X0216Y02366*
X02153Y02364*
X02148Y02361*
X02145Y02356*
X02143Y0235*
X02145Y02343*
X02148Y02338*
X02149Y02338*
X02149Y02335*
X02152Y02332*
X02199Y02285*
Y02259*
X0224*
Y023*
X02214*
X02206Y02309*
X02208Y02314*
X0224*
Y02355*
X02214*
X02181Y02389*
X02183Y02393*
X02199*
Y02384*
X0224*
Y02425*
X02199*
Y02416*
X02129*
X02101Y02444*
X02101Y02445*
X02099Y02451*
X02096Y02456*
X02091Y02459*
X02085Y02461*
X02078Y02459*
X02073Y02456*
X0207Y02451*
X02068Y02445*
X0207Y02438*
X02073Y02433*
X02078Y0243*
X02085Y02428*
X02085Y02429*
X02109Y02404*
X02107Y024*
X0195*
X01948Y02401*
X01944Y02402*
X01724*
X0172Y02401*
X01716Y02399*
X01573Y02256*
X01571Y02252*
X0157Y02248*
Y02242*
X01567Y0224*
X01555*
X01553Y02244*
X01817Y02508*
X0221*
X02211Y02509*
X0224*
Y0255*
X02199*
Y02531*
X01812*
X01808Y0253*
X01804Y02527*
X01523Y02246*
X01521Y02244*
X01517Y0224*
X01505*
X01503Y02244*
X01892Y02633*
X0221*
X02211Y02634*
X0224*
Y02675*
X02199*
Y02656*
X01887*
X01883Y02655*
X01879Y02652*
X01473Y02246*
X01471Y02244*
X01467Y0224*
X01448*
X01446Y02245*
X01969Y02768*
X02199*
Y02759*
X0224*
Y028*
G37*
G36*
Y0273D02*
X02199D01*
Y02721*
X02165*
X0216Y0272*
X02157Y02717*
X02145Y02706*
X02145Y02706*
X02138Y02704*
X02133Y02701*
X0213Y02696*
X02128Y0269*
X0213Y02683*
X02133Y02678*
X02138Y02675*
X02145Y02673*
X02151Y02675*
X02156Y02678*
X02159Y02683*
X02161Y0269*
X02161Y0269*
X02169Y02698*
X02199*
Y02689*
X0224*
Y0273*
G37*
G36*
X0283Y0269D02*
X0282Y02688D01*
X02812Y02682*
X02806Y02674*
X02804Y02665*
X02806Y02655*
X02812Y02647*
X0282Y02641*
X0283Y02639*
X02839Y02641*
X02847Y02647*
X02853Y02655*
X02855Y02665*
X02853Y02674*
X02847Y02682*
X02839Y02688*
X0283Y0269*
G37*
G36*
X02295Y02855D02*
X02254D01*
Y02814*
X02263*
Y028*
X02254*
Y02759*
X02273*
Y02745*
X02274Y02741*
X02277Y02737*
X02279Y02735*
X02277Y0273*
X02254*
Y02689*
X02263*
Y02675*
X02254*
Y02634*
X0228*
X02329Y02584*
X02333Y02581*
X02337Y02581*
X02346*
Y02571*
X02413*
Y02607*
X02346*
Y02604*
X02341Y02603*
X02295Y02649*
Y02675*
X02286*
Y02689*
X02295*
Y02712*
X023Y02714*
X02346Y02667*
Y02639*
X02346Y02638*
Y02614*
X02413*
Y0265*
X02368*
Y02672*
X02368Y02676*
X02365Y0268*
X02296Y0275*
Y0277*
X02295Y02771*
Y028*
X02286*
Y02814*
X02295*
Y02855*
G37*
G36*
X0224Y02605D02*
X02199D01*
Y02596*
X02165*
X0216Y02595*
X02157Y02592*
X0215Y02586*
X0215Y02586*
X02143Y02584*
X02138Y02581*
X02135Y02576*
X02133Y0257*
X02135Y02563*
X02138Y02558*
X02143Y02555*
X0215Y02553*
X02156Y02555*
X02161Y02558*
X02164Y02563*
X02166Y0257*
X02166Y0257*
X02169Y02573*
X02199*
Y02564*
X0224*
Y02605*
G37*
G36*
X02295D02*
X02254D01*
Y02564*
X02263*
Y0255*
X02254*
Y02509*
X02225Y0248*
X02199*
Y02471*
X02165*
X0216Y0247*
X02157Y02467*
X02155Y02466*
X02155Y02466*
X02148Y02464*
X02143Y02461*
X0214Y02456*
X02138Y0245*
X0214Y02443*
X02143Y02438*
X02148Y02435*
X02155Y02433*
X02161Y02435*
X02166Y02438*
X02169Y02443*
X0217Y02448*
X02199*
Y02439*
X0224*
Y02465*
X02249Y02473*
X02254Y02471*
Y02439*
X02263*
Y02425*
X02254*
Y02384*
X02295*
Y02425*
X02286*
Y02439*
X02295*
Y02448*
X02343*
X02345Y02445*
X02345Y0244*
X02343Y02438*
X02342*
Y02421*
X0238*
X02417*
Y02438*
X02417*
X02413Y02441*
Y02443*
Y02477*
X02346*
Y0247*
X02295*
Y0248*
X02263*
X02261Y02485*
X02267Y02491*
X02346*
Y02484*
X02413*
Y0252*
X02346*
Y02513*
X02295*
Y02528*
X02346*
Y02527*
X02413*
Y02564*
X02346*
Y02551*
X02286*
Y02564*
X02295*
Y02605*
G37*
G36*
X0283Y02422D02*
X0282Y0242D01*
X02812Y02415*
X02806Y02406*
X02804Y02397*
X02806Y02387*
X02812Y02379*
X0282Y02374*
X0283Y02372*
X02839Y02374*
X02847Y02379*
X02853Y02387*
X02855Y02397*
X02853Y02406*
X02847Y02415*
X02839Y0242*
X0283Y02422*
G37*
G36*
X0287Y02263D02*
X02818D01*
Y02236*
X0287*
Y02263*
G37*
G36*
X02808D02*
X02756D01*
Y02236*
X02808*
Y02263*
G37*
G36*
X02677Y02661D02*
X02518D01*
X02513Y02659*
X02511Y02655*
Y02263*
X02464*
Y02236*
X02516*
Y02245*
X02518Y02247*
X02677*
X02682Y02249*
X02684Y02253*
Y02655*
X02682Y02659*
X02677Y02661*
G37*
G36*
X0287Y02226D02*
X02818D01*
Y022*
X0287*
Y02226*
G37*
G36*
X02808D02*
X02756D01*
Y022*
X02808*
Y02226*
G37*
G36*
X02516D02*
X02464D01*
Y022*
X02516*
Y02226*
G37*
G36*
X02454D02*
X02401D01*
Y022*
X02454*
Y02226*
G37*
G36*
X01987Y02244D02*
X01965D01*
Y022*
X01987*
Y02244*
G37*
G36*
X01055D02*
X01032D01*
Y022*
X01055*
Y02244*
G37*
G36*
X01987Y0219D02*
X01965D01*
Y02145*
X01987*
Y0219*
G37*
G36*
X01055D02*
X01032D01*
Y02145*
X01055*
Y0219*
G37*
G36*
X02155Y02186D02*
X02148Y02184D01*
X02143Y02181*
X0214Y02176*
X02138Y0217*
X0214Y02163*
X02143Y02158*
X02148Y02155*
X02155Y02153*
X02155Y02154*
X02162Y02147*
X02165Y02144*
X0217Y02143*
X02199*
Y02134*
X0224*
Y02175*
X02199*
Y02166*
X02174*
X02171Y02169*
X02171Y0217*
X02169Y02176*
X02166Y02181*
X02161Y02184*
X02155Y02186*
G37*
G36*
X01885Y02129D02*
Y02115D01*
X01899*
X01898Y02117*
X01894Y02124*
X01887Y02128*
X01885Y02129*
G37*
G36*
X01875D02*
X01872Y02128D01*
X01865Y02124*
X01861Y02117*
X0186Y02115*
X01875*
Y02129*
G37*
G36*
X01247Y02134D02*
X01214D01*
Y02065*
X01247*
Y02134*
G37*
G36*
X01204D02*
X01172D01*
Y02065*
X01204*
Y02134*
G37*
G36*
X01332Y02058D02*
X0131D01*
Y02037*
X01332*
Y02058*
G37*
G36*
X013D02*
X01277D01*
Y02037*
X013*
Y02058*
G37*
G36*
X01332Y02027D02*
X0131D01*
Y02006*
X01332*
Y02027*
G37*
G36*
X013D02*
X01277D01*
Y02006*
X013*
Y02027*
G37*
G36*
X01247Y02055D02*
X01214D01*
Y01985*
X01247*
Y02055*
G37*
G36*
X01204D02*
X01172D01*
Y01985*
X01204*
Y02055*
G37*
G36*
X03107Y01993D02*
X03085D01*
Y01972*
X03107*
Y01993*
G37*
G36*
X03075D02*
X03052D01*
Y01972*
X03075*
Y01993*
G37*
G36*
X02303Y01992D02*
X02282D01*
Y0197*
X02303*
Y01992*
G37*
G36*
X02272D02*
X02251D01*
Y0197*
X02272*
Y01992*
G37*
G36*
X02802Y01973D02*
X0278D01*
Y01952*
X02802*
Y01973*
G37*
G36*
X0277D02*
X02747D01*
Y01952*
X0277*
Y01973*
G37*
G36*
X01223Y01972D02*
X01202D01*
Y0195*
X01223*
Y01972*
G37*
G36*
X01192D02*
X01171D01*
Y0195*
X01192*
Y01972*
G37*
G36*
X03107Y01962D02*
X03085D01*
Y01941*
X03107*
Y01962*
G37*
G36*
X03075D02*
X03052D01*
Y01941*
X03075*
Y01962*
G37*
G36*
X02303Y0196D02*
X02282D01*
Y01937*
X02303*
Y0196*
G37*
G36*
X02272D02*
X02251D01*
Y01937*
X02272*
Y0196*
G37*
G36*
X02802Y01942D02*
X0278D01*
Y01921*
X02802*
Y01942*
G37*
G36*
X0277D02*
X02747D01*
Y01921*
X0277*
Y01942*
G37*
G36*
X02985Y01915D02*
X02944D01*
Y01906*
X0291*
Y01915*
X02869*
Y01886*
X02868Y01885*
Y01839*
X02856*
Y01795*
X02903*
Y01839*
X02891*
Y01874*
X0291*
Y01883*
X02944*
Y01874*
X02985*
Y01915*
G37*
G36*
X02855D02*
X02814D01*
Y01906*
X02798*
Y01914*
X02751*
Y0187*
X02758*
Y01855*
X0276Y01848*
X02763Y01843*
X02768Y0184*
X02775Y01838*
X02781Y0184*
X02786Y01843*
X02789Y01848*
X02791Y01855*
Y0187*
X02798*
Y01883*
X02814*
Y01874*
X02855*
Y01915*
G37*
G36*
X03103Y01934D02*
X03056D01*
Y01916*
X0303*
X03028Y01915*
X02999*
Y01874*
X03011*
Y01858*
X03*
Y01811*
X03044*
Y01823*
X03056*
Y0181*
X03103*
Y01819*
X03155*
X03156Y01819*
X0321*
Y0189*
X03139*
Y01851*
X03103*
Y01854*
X03056*
Y01846*
X03044*
Y01858*
X03033*
Y01874*
X0304*
Y01893*
X03056*
Y0189*
X03103*
Y01934*
G37*
G36*
X0261Y0187D02*
X0259D01*
Y0185*
X0261*
Y0187*
G37*
G36*
X0258D02*
X0256D01*
Y0185*
X0258*
Y0187*
G37*
G36*
X02115Y01915D02*
X02044D01*
Y01844*
X02115*
Y01915*
G37*
G36*
X0261Y0184D02*
X0259D01*
Y0182*
X0261*
Y0184*
G37*
G36*
X0258D02*
X0256D01*
Y0182*
X0258*
Y0184*
G37*
G36*
X01717Y01833D02*
X01695D01*
Y01812*
X01717*
Y01833*
G37*
G36*
X01685D02*
X01662D01*
Y01812*
X01685*
Y01833*
G37*
G36*
X02989Y01858D02*
X02945D01*
Y01851*
X02925*
X02918Y01849*
X02913Y01846*
X0291Y01841*
X02908Y01835*
X0291Y01828*
X02913Y01823*
X02918Y0182*
X02925Y01818*
X02945*
Y01811*
X02989*
Y01858*
G37*
G36*
X0178Y0183D02*
X0176D01*
Y0181*
X0178*
Y0183*
G37*
G36*
X0175D02*
X0173D01*
Y0181*
X0175*
Y0183*
G37*
G36*
X03103Y01799D02*
X03056D01*
Y01788*
X03044*
Y01798*
X03*
Y01751*
X03011*
Y01735*
X02999*
Y01698*
X02994Y01696*
X0298Y01709*
Y01735*
X02939*
Y01726*
X02934*
X02903Y01756*
Y01784*
X02856*
Y0174*
X02887*
X02921Y01707*
X02925Y01704*
X02929Y01703*
X02939*
Y01694*
X02965*
X02969Y01689*
X02967Y01685*
X02965*
Y01665*
X02985*
Y01667*
X02989Y01669*
X02997Y01662*
X02999Y0166*
Y01639*
X0304*
Y0168*
X03011*
X0301Y01681*
X03009*
X03001Y01689*
X03003Y01694*
X0304*
Y01703*
X03056*
Y01695*
X03103*
Y01739*
X03056*
Y01726*
X0304*
Y01735*
X03033*
Y01751*
X03044*
Y01766*
X03056*
Y01755*
X03103*
Y01761*
X03135*
X03139Y01757*
X03139Y01755*
X0314Y01745*
X03144Y01737*
X03149Y01729*
X03157Y01724*
X03165Y0172*
X03175Y01719*
X03184Y0172*
X03192Y01724*
X032Y01729*
X03205Y01737*
X03209Y01745*
X0321Y01755*
X03209Y01764*
X03205Y01772*
X032Y0178*
X03192Y01785*
X03184Y01789*
X03175Y0179*
X03165Y01789*
X03157Y01785*
X03156Y01785*
X03153Y01788*
X03148Y01792*
X03141Y01793*
X03103*
Y01799*
G37*
G36*
X01717Y01802D02*
X01695D01*
Y01781*
X01717*
Y01802*
G37*
G36*
X01685D02*
X01662D01*
Y01781*
X01685*
Y01802*
G37*
G36*
X0178Y018D02*
X0176D01*
Y0178*
X0178*
Y018*
G37*
G36*
X0175D02*
X0173D01*
Y0178*
X0175*
Y018*
G37*
G36*
X02493Y01797D02*
Y01776D01*
X02504*
Y01786*
X02504Y0179*
X02501Y01794*
X02497Y01797*
X02493Y01797*
G37*
G36*
X02989Y01798D02*
X02945D01*
Y01791*
X02925*
X02918Y01789*
X02913Y01786*
X0291Y01781*
X02908Y01775*
X0291Y01768*
X02913Y01763*
X02918Y0176*
X02925Y01758*
X02945*
Y01751*
X02989*
Y01798*
G37*
G36*
X02541Y01749D02*
X02531D01*
Y01738*
X02552*
X02552Y01742*
X02549Y01746*
X02545Y01749*
X02541Y01749*
G37*
G36*
X01327Y01758D02*
X01305D01*
Y01737*
X01327*
Y01758*
G37*
G36*
X01295D02*
X01272D01*
Y01737*
X01295*
Y01758*
G37*
G36*
X02627Y01753D02*
X02605D01*
Y01732*
X02627*
Y01753*
G37*
G36*
X02595D02*
X02572D01*
Y01732*
X02595*
Y01753*
G37*
G36*
X02627Y01722D02*
X02605D01*
Y01701*
X02627*
Y01722*
G37*
G36*
X01327Y01727D02*
X013D01*
X01272*
Y01706*
Y01692*
X013*
X01327*
Y01706*
Y01727*
G37*
G36*
X03107Y01688D02*
X03085D01*
Y01667*
X03107*
Y01688*
G37*
G36*
X03075D02*
X03052D01*
Y01667*
X03075*
Y01688*
G37*
G36*
X02955Y01685D02*
X02935D01*
Y01665*
X02955*
Y01685*
G37*
G36*
X01327Y01682D02*
X01305D01*
Y01661*
X01327*
Y01682*
G37*
G36*
X0209Y01689D02*
Y01655D01*
X02124*
X02123Y0166*
X02119Y01669*
X02113Y01678*
X02104Y01684*
X02095Y01688*
X0209Y01689*
G37*
G36*
X0208D02*
X02074Y01688D01*
X02065Y01684*
X02056Y01678*
X0205Y01669*
X02046Y0166*
X02045Y01655*
X0208*
Y01689*
G37*
G36*
X03107Y01657D02*
X03085D01*
Y01636*
X03107*
Y01657*
G37*
G36*
X03075D02*
X03052D01*
Y01636*
X03075*
Y01657*
G37*
G36*
X02985Y01655D02*
X02965D01*
Y01635*
X02985*
Y01655*
G37*
G36*
X02955D02*
X02935D01*
Y01635*
X02955*
Y01655*
G37*
G36*
X02314Y01657D02*
X02245D01*
Y01625*
X02314*
Y01657*
G37*
G36*
X02235D02*
X02165D01*
Y01625*
X02235*
Y01657*
G37*
G36*
X02124Y01645D02*
X0209D01*
Y0161*
X02095Y01611*
X02104Y01615*
X02113Y01621*
X02119Y0163*
X02123Y01639*
X02124Y01645*
G37*
G36*
X0208D02*
X02045D01*
X02046Y01639*
X0205Y0163*
X02056Y01621*
X02065Y01615*
X02074Y01611*
X0208Y0161*
Y01645*
G37*
G36*
X02314Y01615D02*
X02245D01*
Y01582*
X02314*
Y01615*
G37*
G36*
X02235D02*
X02165D01*
Y01582*
X02235*
Y01615*
G37*
G36*
X02595Y0156D02*
X02575D01*
Y0154*
X02595*
Y0156*
G37*
G36*
X01255Y01555D02*
X01214D01*
Y01551*
X0112*
X01113Y01549*
X01108Y01546*
X01107Y01545*
X01059*
Y01474*
X0113*
Y01518*
X01214*
Y01514*
X01255*
Y01555*
G37*
G36*
X03102Y01488D02*
X0308D01*
Y01467*
X03102*
Y01488*
G37*
G36*
X0307D02*
X03047D01*
Y01467*
X0307*
Y01488*
G37*
G36*
X03102Y01457D02*
X0308D01*
Y01436*
X03102*
Y01457*
G37*
G36*
X0307D02*
X03047D01*
Y01436*
X0307*
Y01457*
G37*
G36*
X01972Y01448D02*
X0195D01*
Y01427*
X01972*
Y01448*
G37*
G36*
X0194D02*
X01917D01*
Y01427*
X0194*
Y01448*
G37*
G36*
X01682Y01443D02*
X0166D01*
Y01422*
X01682*
Y01443*
G37*
G36*
X0165D02*
X01627D01*
Y01422*
X0165*
Y01443*
G37*
G36*
X01097Y01439D02*
X01084D01*
Y01416*
X01124*
X01124Y01418*
X01121Y01425*
X01117Y0143*
X01111Y01435*
X01104Y01438*
X01097Y01439*
G37*
G36*
X01074D02*
X01061D01*
X01054Y01438*
X01047Y01435*
X01042Y0143*
X01037Y01425*
X01034Y01418*
X01034Y01416*
X01074*
Y01439*
G37*
G36*
X03098Y01429D02*
X03051D01*
Y01411*
X0303*
Y0142*
X02989*
Y01379*
X03001*
Y01353*
X0299*
Y01306*
X03034*
Y01318*
X03051*
Y01305*
X03098*
Y01311*
X03127*
X03133Y01312*
X03138Y01316*
X03152Y01329*
X032*
Y014*
X03129*
Y01352*
X0312Y01343*
X03098*
Y01349*
X03051*
Y01341*
X03034*
Y01353*
X03023*
Y01379*
X0303*
Y01388*
X03051*
Y01385*
X03098*
Y01429*
G37*
G36*
X02777Y01428D02*
X02755D01*
Y01407*
X02777*
Y01428*
G37*
G36*
X02745D02*
X02722D01*
Y01407*
X02745*
Y01428*
G37*
G36*
X01972Y01417D02*
X0195D01*
Y01396*
X01972*
Y01417*
G37*
G36*
X0194D02*
X01917D01*
Y01396*
X0194*
Y01417*
G37*
G36*
X01682Y01412D02*
X0166D01*
Y01391*
X01682*
Y01412*
G37*
G36*
X0165D02*
X01627D01*
Y01391*
X0165*
Y01412*
G37*
G36*
X01124Y01406D02*
X01084D01*
Y01383*
X01097*
X01104Y01384*
X01111Y01386*
X01117Y01391*
X01121Y01397*
X01124Y01403*
X01124Y01406*
G37*
G36*
X01074D02*
X01034D01*
X01034Y01403*
X01037Y01397*
X01042Y01391*
X01047Y01386*
X01054Y01384*
X01061Y01383*
X01074*
Y01406*
G37*
G36*
X02777Y01397D02*
X02755D01*
Y01376*
X02777*
Y01397*
G37*
G36*
X02745D02*
X02722D01*
Y01376*
X02745*
Y01397*
G37*
G36*
X02975Y0142D02*
X02934D01*
Y01394*
X02901Y01361*
X02885*
Y0137*
X02844*
Y01329*
X02858*
Y01294*
X02846*
Y0125*
X02893*
Y01294*
X02881*
Y01329*
X02885*
Y01339*
X02894*
X02897Y01334*
X02896Y0133*
X02897Y01323*
X02901Y01318*
X02906Y01315*
X02912Y01313*
X02935*
Y01306*
X02979*
Y01353*
X02935*
Y01346*
X02923*
X02921Y0135*
X02949Y01379*
X02975*
Y0142*
G37*
G36*
X0283Y0137D02*
X02789D01*
Y01358*
X02773*
Y01369*
X02726*
Y01325*
X02733*
Y01295*
X02735Y01288*
X02738Y01283*
X02743Y0128*
X0275Y01278*
X02756Y0128*
X02761Y01283*
X02764Y01288*
X02766Y01295*
Y01325*
X02773*
Y01336*
X02789*
Y01329*
X0283*
Y0137*
G37*
G36*
X03165Y013D02*
X03155Y01299D01*
X03147Y01295*
X03139Y0129*
X03135Y01284*
X03098*
Y01294*
X03051*
Y01286*
X03034*
Y01298*
X0299*
Y01251*
X03001*
Y01235*
X02994*
Y01197*
X0299Y01195*
X02985*
X0297Y01209*
Y01235*
X02929*
Y01228*
X02893*
Y01239*
X02846*
Y01195*
X02893*
Y01206*
X02929*
Y01194*
X02955*
X02959Y01189*
X02957Y01185*
X02955*
Y01165*
X02975*
Y01169*
X0298Y01173*
X0298Y01173*
X02986*
X02994Y01165*
Y01139*
X03035*
Y0118*
X03009*
X03001Y01189*
X03003Y01194*
X03035*
Y01206*
X03051*
Y01195*
X03098*
Y01239*
X03051*
Y01228*
X03035*
Y01235*
X03023*
Y01251*
X03034*
Y01263*
X03051*
Y0125*
X03098*
Y01252*
X03131*
X03134Y01247*
X03139Y01239*
X03147Y01234*
X03155Y0123*
X03165Y01229*
X03174Y0123*
X03182Y01234*
X0319Y01239*
X03195Y01247*
X03199Y01255*
X032Y01265*
X03199Y01274*
X03195Y01282*
X0319Y0129*
X03182Y01295*
X03174Y01299*
X03165Y013*
G37*
G36*
X02979Y01298D02*
X02935D01*
Y01291*
X02915*
X02908Y01289*
X02903Y01286*
X029Y01281*
X02898Y01275*
X029Y01268*
X02903Y01263*
X02908Y0126*
X02915Y01258*
X02935*
Y01251*
X02979*
Y01298*
G37*
G36*
X02515Y0126D02*
X02444D01*
Y01236*
X024*
Y0125*
X02359*
Y01209*
X024*
Y01213*
X02444*
Y01189*
X02515*
Y0126*
G37*
G36*
X01864Y01253D02*
X01854D01*
Y01231*
X01857Y01232*
X01861Y01235*
X01864Y01238*
X01864Y01243*
Y01253*
G37*
G36*
X02585Y01264D02*
Y0123D01*
X02619*
X02618Y01235*
X02614Y01244*
X02608Y01253*
X02599Y01259*
X0259Y01263*
X02585Y01264*
G37*
G36*
X02575D02*
X02569Y01263D01*
X0256Y01259*
X02551Y01253*
X02545Y01244*
X02541Y01235*
X0254Y0123*
X02575*
Y01264*
G37*
G36*
X01975Y01225D02*
X01955D01*
Y01205*
X01975*
Y01225*
G37*
G36*
X01945D02*
X01925D01*
Y01205*
X01945*
Y01225*
G37*
G36*
X01868Y01217D02*
X01847D01*
Y01195*
X01868*
Y01217*
G37*
G36*
X02619Y0122D02*
X02585D01*
Y01185*
X0259Y01186*
X02599Y0119*
X02608Y01196*
X02614Y01205*
X02618Y01214*
X02619Y0122*
G37*
G36*
X02575D02*
X0254D01*
X02541Y01214*
X02545Y01205*
X02551Y01196*
X0256Y0119*
X02569Y01186*
X02575Y01185*
Y0122*
G37*
G36*
X01325Y01205D02*
X01305D01*
Y01182*
X01325*
Y01205*
G37*
G36*
X01295D02*
X01274D01*
Y01182*
X01295*
Y01205*
G37*
G36*
X01975Y01195D02*
X01955D01*
Y01175*
X01975*
Y01195*
G37*
G36*
X01945D02*
X01925D01*
Y01175*
X01945*
Y01195*
G37*
G36*
X03102Y01188D02*
X0308D01*
Y01167*
X03102*
Y01188*
G37*
G36*
X0307D02*
X03047D01*
Y01167*
X0307*
Y01188*
G37*
G36*
X02945Y01185D02*
X02925D01*
Y01165*
X02945*
Y01185*
G37*
G36*
X01244Y01174D02*
Y0116D01*
X01259*
X01258Y01162*
X01254Y01169*
X01247Y01173*
X01244Y01174*
G37*
G36*
X01234D02*
X01232Y01173D01*
X01225Y01169*
X01221Y01162*
X0122Y0116*
X01234*
Y01174*
G37*
G36*
X01097Y01179D02*
X01084D01*
Y01156*
X01124*
X01124Y01158*
X01121Y01165*
X01117Y01171*
X01111Y01175*
X01104Y01178*
X01097Y01179*
G37*
G36*
X01074D02*
X01061D01*
X01054Y01178*
X01047Y01175*
X01042Y01171*
X01037Y01165*
X01034Y01158*
X01034Y01156*
X01074*
Y01179*
G37*
G36*
X01325Y01172D02*
X01305D01*
Y0115*
X01325*
Y01172*
G37*
G36*
X01295D02*
X01274D01*
Y0115*
X01295*
Y01172*
G37*
G36*
X01868Y01185D02*
X01842D01*
X01816*
Y01162*
X01833*
X01835Y01157*
X0183Y01154*
X01826Y01147*
X01825Y01145*
X01864*
X01863Y01147*
X01859Y01154*
X01854Y01157*
X01856Y01162*
X01868*
Y01185*
G37*
G36*
X022Y01168D02*
Y0114D01*
X02228*
X02227Y01143*
X02224Y01151*
X02218Y01158*
X02211Y01164*
X02203Y01167*
X022Y01168*
G37*
G36*
X0219D02*
X02186Y01167D01*
X02178Y01164*
X02171Y01158*
X02165Y01151*
X02162Y01143*
X02161Y0114*
X0219*
Y01168*
G37*
G36*
X03102Y01157D02*
X0308D01*
Y01136*
X03102*
Y01157*
G37*
G36*
X0307D02*
X03047D01*
Y01136*
X0307*
Y01157*
G37*
G36*
X01259Y0115D02*
X01244D01*
Y01135*
X01247Y01136*
X01254Y0114*
X01258Y01147*
X01259Y0115*
G37*
G36*
X01234D02*
X0122D01*
X01221Y01147*
X01225Y0114*
X01232Y01136*
X01234Y01135*
Y0115*
G37*
G36*
X02975Y01155D02*
X02955D01*
Y01135*
X02975*
Y01155*
G37*
G36*
X02945D02*
X02925D01*
Y01135*
X02945*
Y01155*
G37*
G36*
X01255Y015D02*
X01214D01*
Y01459*
X01255*
Y01463*
X01334*
X01337Y01458*
X01335Y01456*
X01333Y0145*
X01335Y01443*
X01338Y01438*
X01343Y01435*
X0135Y01433*
X0135Y01434*
X01359Y01424*
X01357Y01419*
X01323*
Y01396*
X01303*
Y01376*
X0128*
Y0136*
X01276*
Y01349*
X01303*
Y01339*
X01276*
Y01338*
X0126*
X01254Y01337*
X0125Y01334*
X0123Y01315*
X01228Y01314*
X01223Y01311*
X0122Y01306*
X01218Y013*
X0122Y01293*
X01223Y01288*
X01228Y01285*
X01235Y01283*
X01238Y01284*
X0124Y01279*
X0123Y0127*
X01228Y01269*
X01223Y01266*
X0122Y01261*
X01218Y01255*
X0122Y01248*
X01223Y01243*
X01228Y0124*
X01235Y01238*
X01236Y01239*
X01237Y01238*
X01239Y01234*
X01238Y0123*
X0124Y01223*
X01243Y01218*
X01248Y01215*
X01255Y01213*
X01261Y01215*
X01266Y01218*
X01269Y01222*
X01273Y01222*
X01274Y01222*
Y01215*
X013*
X01325*
Y01218*
X0133Y0122*
X01333Y01217*
Y01186*
X01344*
Y01168*
X01333*
Y01121*
X01376*
Y01133*
X01394*
Y01129*
X01435*
Y01148*
X0147Y01183*
X01474Y01188*
X01475Y01194*
Y01445*
X01474Y01451*
X0147Y01456*
X01436Y01491*
X01431Y01494*
X01425Y01496*
X01255*
Y015*
G37*
G36*
X01124Y01146D02*
X01084D01*
Y01123*
X01097*
X01104Y01124*
X01111Y01127*
X01117Y01131*
X01121Y01137*
X01124Y01144*
X01124Y01146*
G37*
G36*
X01074D02*
X01034D01*
X01034Y01144*
X01037Y01137*
X01042Y01131*
X01047Y01127*
X01054Y01124*
X01061Y01123*
X01074*
Y01146*
G37*
G36*
X01864Y01135D02*
X0185D01*
Y0112*
X01852Y01121*
X01859Y01125*
X01863Y01132*
X01864Y01135*
G37*
G36*
X0184D02*
X01825D01*
X01826Y01132*
X0183Y01125*
X01837Y01121*
X0184Y0112*
Y01135*
G37*
G36*
X01325Y0114D02*
X01305D01*
Y01117*
X01325*
Y0114*
G37*
G36*
X01295D02*
X01274D01*
Y01117*
X01295*
Y0114*
G37*
G36*
X024Y01195D02*
X02359D01*
Y01154*
X02378*
X02403Y01128*
Y01125*
X02405Y01118*
X02408Y01113*
X02413Y0111*
X0242Y01108*
X02426Y0111*
X02431Y01113*
X02434Y01118*
X02436Y01125*
Y01135*
X02434Y01141*
X02431Y01146*
X024Y01176*
Y01195*
G37*
G36*
X02228Y0113D02*
X022D01*
Y01101*
X02203Y01102*
X02211Y01105*
X02218Y01111*
X02224Y01118*
X02227Y01126*
X02228Y0113*
G37*
G36*
X0219D02*
X02161D01*
X02162Y01126*
X02165Y01118*
X02171Y01111*
X02178Y01105*
X02186Y01102*
X0219Y01101*
Y0113*
G37*
%LNsolears_v1-3*%
%LPD*%
G36*
X01285Y03284D02*
X01283Y03279D01*
X01264*
X01163Y03379*
X01166Y03384*
X01174Y03385*
X01181Y03388*
X01285Y03284*
G37*
G36*
X02695Y03199D02*
X02705D01*
Y03185*
X02706Y0318*
X02708Y03177*
X02745Y03139*
Y03091*
X0274Y03089*
X02661Y03169*
X02661Y0317*
X02659Y03176*
X02657Y03179*
X0266Y03184*
X02672*
Y03219*
X02695*
Y03199*
G37*
G36*
X02302Y03259D02*
Y03247D01*
X02298Y03243*
X02295Y03241*
X02178Y03124*
X02176Y03121*
X02175Y03116*
Y03088*
X0217Y03086*
X02166Y03089*
X02156Y03093*
X02151Y03094*
Y03055*
X02141*
Y03094*
X02136Y03093*
X02135Y03093*
X02133Y03097*
X02297Y03261*
X02302Y03259*
G37*
G36*
X01483Y03059D02*
X01469Y03046D01*
X01437*
X01433Y03045*
X01429Y03042*
X01373Y02986*
X01371Y02984*
X01367Y0298*
X01347*
X01345Y02985*
X01424Y03064*
X01429Y03064*
X01481*
X01483Y03059*
G37*
G36*
X01621Y03045D02*
X01666D01*
X01668*
X01671Y03041*
Y03041*
X01623Y02993*
X01621Y0299*
X0162Y02985*
Y02984*
X01616Y0298*
X01585*
X01581*
X01571*
Y03025*
X01576Y03031*
X01579Y03035*
X0158Y03039*
X01605*
Y03048*
X01621*
Y03045*
G37*
G36*
X01788Y02868D02*
X01786Y02864D01*
X01681*
Y02885*
X01683Y02889*
X01686*
X01731*
X01733*
X01736*
X01767*
X01788Y02868*
G37*
G36*
X02126Y0302D02*
X02136Y03016D01*
X02141Y03015*
X02143Y0301*
X02012Y02879*
X01999*
X01997Y02884*
X02113Y03*
X02116Y03004*
X02117Y03008*
Y03021*
X02122Y03023*
X02126Y0302*
G37*
G36*
X02346Y02299D02*
Y0228D01*
X02346Y02279*
Y02197*
X023Y0215*
X02295Y02152*
Y02175*
X02286*
Y02189*
X02295*
Y02218*
X02296Y0222*
Y02239*
X02325Y02269*
X02327Y02272*
X02328Y02277*
Y02287*
X02341Y02301*
X02346Y02299*
G37*
G36*
X01548Y0213D02*
X01539D01*
Y02089*
X01565*
X01584Y02069*
X01588Y02067*
X01592Y02066*
X01883*
X01886Y02061*
X01885Y0206*
X01905*
Y02055*
X0191*
Y02035*
X01912Y02036*
X01918Y0204*
X01918Y0204*
X01937*
Y02031*
X01927*
Y0203*
X01923*
Y02021*
X01921Y02019*
X0192Y02019*
X01915Y02021*
Y02025*
X01874*
Y01984*
X01869Y01984*
X01861*
X018Y02045*
X01796Y02047*
X01792Y02048*
X01387*
X01351Y02084*
X01353Y02089*
X01385*
Y02093*
X0142*
X01426Y02095*
X01431Y02098*
X01434Y02103*
X01436Y0211*
X01434Y02116*
X01431Y02121*
X01426Y02124*
X0142Y02126*
X01385*
Y0213*
X01344*
Y02098*
X01339Y02096*
X0133Y02104*
Y0213*
X01321*
Y02149*
X01333*
X01336*
X01381*
X01383*
X01386*
X01431*
X01433*
X01436*
X01481*
X01483*
X01486*
X01531*
X01533*
X01536*
X01548*
Y0213*
G37*
G36*
X01276Y01638D02*
Y01617D01*
X01129*
X01129Y01619*
X01125Y01627*
X0112Y01635*
X01112Y0164*
X01105Y01643*
X01106Y01648*
X01265*
X01276Y01638*
G37*
G36*
X02467Y01592D02*
X02472Y01592D01*
X02472Y01593*
X02477Y0159*
Y01557*
X02444*
Y01434*
X02428Y01418*
X02401*
Y01461*
X02401Y01461*
X02401Y01461*
X02401Y0146*
X024Y0146*
X024Y0146*
X02399Y0146*
X02399Y0146*
X02398Y01459*
X02398Y01459*
X02397Y01459*
X02397Y01459*
X02396Y01459*
X02396*
X02395Y01459*
X02395Y01459*
X02395Y01459*
X02394Y01459*
X02394Y01459*
X02393Y0146*
X02392Y0146*
X02392Y0146*
X02391Y01461*
X02391Y01461*
X0239Y01461*
X0239Y01461*
X0239Y01461*
X0239Y01461*
X0239Y01462*
X0239Y01462*
X0239Y01462*
X02389Y01462*
X02389Y01463*
X02389Y01463*
X02388Y01464*
X02388Y01465*
X02388Y01465*
X02388Y01466*
X02388Y01466*
Y01466*
Y01466*
X02388Y01467*
X02388Y01467*
X02388Y01468*
X02388Y01468*
X02389Y01469*
X02389Y01469*
X02389Y01469*
X02389Y01469*
X02389Y0147*
X02389Y0147*
X0239Y01471*
X0239Y01471*
X0239Y01472*
X02391Y01472*
X02391Y01472*
X02391Y01473*
X02391Y01473*
X02392Y01473*
X02392Y01473*
X02392Y01473*
X02392Y01474*
X02393Y01474*
X02393Y01474*
X02393Y01475*
X02394Y01475*
X02394Y01476*
X02395Y01476*
X02396Y01477*
X02396Y01477*
X02396Y01477*
X02396Y01477*
X02396Y01477*
X02396Y01477*
X02397Y01477*
X02397Y01478*
X02398Y01478*
X02398Y01479*
X02399Y0148*
X02399Y0148*
X02399Y0148*
X02399Y0148*
X02399Y0148*
X024Y0148*
X024Y0148*
X024Y01481*
X024Y01481*
X02401Y01482*
X02388*
Y01485*
X02401*
Y01557*
X02391*
Y01595*
X02392Y01596*
X02398Y01595*
X02402Y01592*
X02406Y01592*
Y01618*
X02416*
Y01592*
X0242Y01592*
X02424Y01595*
X02427Y01592*
X02432Y01592*
Y01618*
X02442*
Y01592*
X02446Y01592*
X0245Y01595*
X02453Y01592*
X02457Y01592*
Y01618*
X02467*
Y01592*
G37*
G36*
X01751Y01282D02*
Y01276D01*
X01757*
X01759Y01274*
Y01243*
X01759Y0124*
X01761Y01238*
X01763Y01236*
X01766Y01235*
X01774*
X01779Y01232*
Y01213*
X01765*
Y01205*
X01745*
X01743Y0121*
X01744Y0121*
X01748Y01217*
X01749Y0122*
X0173*
Y01225*
X01725*
Y01244*
X01722Y01243*
X01715Y01239*
X01712Y01234*
X01707Y01236*
Y01248*
X01685*
Y01222*
X0168*
Y01217*
X01652*
Y01205*
X01645*
Y01215*
X0162*
Y0122*
X01615*
Y01245*
X01605*
Y01254*
X0164*
Y01263*
X01656*
Y01255*
X01703*
Y01277*
X01714*
X01719Y01278*
X01722Y0128*
X01726Y01284*
X01749*
X01751Y01282*
G37*
G36*
X01384Y01353D02*
Y01353D01*
Y01352*
Y01352*
Y01352*
X01384Y01352*
Y01351*
X01384Y01351*
X01384Y0135*
X01384Y01349*
X01384Y01348*
X01384Y01347*
X01384Y01347*
X01383Y01346*
Y01346*
X01383Y01346*
X01383Y01346*
X01383Y01346*
X01383Y01346*
X01383Y01345*
X01382Y01345*
X01382Y01344*
X01381Y01343*
X0138Y01343*
X0138*
X0138Y01343*
X0138Y01343*
X0138Y01343*
X0138Y01343*
X01379Y01342*
X01379Y01342*
X01379Y01342*
X01378Y01342*
X01378Y01342*
X01377Y01342*
X01377Y01342*
X01376Y01342*
X01376Y01342*
X01374Y01341*
X01374*
X01374Y01342*
X01374*
X01373Y01342*
X01373Y01342*
X01372Y01342*
X01371Y01342*
X01371Y01342*
X0137Y01342*
X01369Y01343*
X01369*
X01369Y01343*
X01368Y01343*
X01368Y01343*
X01368Y01343*
X01367Y01344*
X01367Y01344*
X01366Y01345*
X01366Y01345*
X01365Y01346*
Y01346*
X01365Y01346*
X01365Y01346*
X01365Y01347*
X01365Y01347*
X01365Y01347*
X01365Y01347*
X01365Y01348*
X01365Y01348*
X01365Y01349*
X01365Y01349*
X01365Y0135*
X01365Y0135*
X01365Y01351*
X01365Y01352*
Y01353*
Y01367*
X01368*
Y01353*
Y01353*
Y01352*
Y01352*
Y01352*
X01368Y01352*
Y01351*
X01368Y01351*
X01368Y0135*
X01368Y01349*
X01368Y01348*
X01368Y01348*
X01368Y01348*
X01368Y01348*
X01369Y01347*
X01369Y01347*
X01369Y01347*
X01369Y01346*
X0137Y01346*
X0137Y01346*
X01371Y01345*
X01371Y01345*
X01371Y01345*
X01371Y01345*
X01372Y01345*
X01372Y01345*
X01373Y01345*
X01373Y01345*
X01374Y01344*
X01375*
X01375Y01345*
X01375*
X01375Y01345*
X01376Y01345*
X01377Y01345*
X01378Y01345*
X01379Y01346*
X01379Y01346*
X01379Y01346*
X01379Y01346*
X01379Y01346*
X0138Y01346*
X0138Y01346*
X0138Y01347*
X0138Y01347*
X0138Y01347*
X0138Y01348*
X0138Y01348*
X0138Y01348*
X01381Y01349*
X01381Y0135*
X01381Y0135*
X01381Y01351*
X01381Y01352*
Y01353*
Y01367*
X01384*
Y01353*
G37*
G36*
X01398Y01367D02*
X01398Y01367D01*
X01398Y01367*
X01399Y01367*
X01399Y01367*
X014Y01367*
X01401Y01366*
X01401Y01366*
X01402Y01366*
X01402Y01366*
X01403Y01365*
X01403Y01365*
X01403Y01365*
X01403Y01365*
X01403Y01365*
X01403Y01365*
X01403Y01364*
X01404Y01364*
X01404Y01364*
X01404Y01363*
X01405Y01362*
X01405Y01362*
X01405Y01361*
X01405Y01361*
X01405Y0136*
Y0136*
Y0136*
X01405Y0136*
X01405Y01359*
X01405Y01359*
X01405Y01358*
X01404Y01358*
X01404Y01357*
X01404Y01357*
X01404Y01357*
X01404Y01357*
X01404Y01356*
X01403Y01356*
X01403Y01355*
X01403Y01355*
X01402Y01354*
X01402Y01354*
X01402Y01354*
X01402Y01354*
X01401Y01353*
X01401Y01353*
X01401Y01353*
X01401Y01353*
X014Y01352*
X014Y01352*
X014Y01352*
X01399Y01351*
X01399Y01351*
X01398Y0135*
X01397Y0135*
X01397Y0135*
X01397Y0135*
X01397Y0135*
X01397Y01349*
X01397Y01349*
X01396Y01349*
X01396Y01348*
X01395Y01348*
X01395Y01347*
X01394Y01347*
X01394Y01347*
X01394Y01347*
X01394Y01346*
X01394Y01346*
X01393Y01346*
X01393Y01346*
X01393Y01346*
X01393Y01346*
X01392Y01345*
X01405*
Y01342*
X01388*
Y01342*
Y01342*
Y01342*
X01388Y01343*
X01388Y01343*
X01388Y01343*
X01388Y01344*
X01389Y01344*
Y01344*
X01389Y01344*
X01389Y01344*
X01389Y01345*
X01389Y01345*
X01389Y01346*
X0139Y01346*
X0139Y01347*
X01391Y01347*
Y01347*
X01391Y01347*
X01391Y01348*
X01391Y01348*
X01392Y01349*
X01392Y01349*
X01393Y0135*
X01394Y0135*
X01395Y01351*
X01395Y01351*
X01395Y01351*
X01395Y01352*
X01395Y01352*
X01396Y01352*
X01396Y01352*
X01396Y01353*
X01397Y01353*
X01398Y01354*
X01399Y01355*
X01399Y01355*
X014Y01356*
X014Y01356*
X014Y01357*
Y01357*
X014Y01357*
X014Y01357*
X014Y01357*
X01401Y01357*
X01401Y01358*
X01401Y01358*
X01401Y01359*
X01402Y0136*
X01402Y0136*
Y0136*
Y0136*
X01402Y01361*
X01402Y01361*
X01401Y01361*
X01401Y01362*
X01401Y01362*
X01401Y01363*
X014Y01363*
X014Y01363*
X014Y01364*
X014Y01364*
X01399Y01364*
X01399Y01364*
X01398Y01364*
X01398Y01365*
X01397Y01365*
X01397*
X01396Y01365*
X01396Y01365*
X01396Y01364*
X01395Y01364*
X01394Y01364*
X01394Y01364*
X01393Y01363*
X01393Y01363*
X01393Y01363*
X01393Y01363*
X01393Y01362*
X01392Y01362*
X01392Y01361*
X01392Y0136*
X01392Y0136*
X01389Y0136*
Y0136*
X01389Y0136*
Y0136*
X01389Y01361*
X01389Y01361*
X01389Y01361*
X01389Y01362*
X01389Y01362*
X01389Y01363*
X0139Y01364*
X0139Y01364*
X0139Y01365*
X01391Y01365*
X01391Y01365*
X01391Y01365*
X01391Y01365*
X01391Y01366*
X01392Y01366*
X01392Y01366*
X01392Y01366*
X01392Y01366*
X01393Y01366*
X01393Y01366*
X01394Y01367*
X01394Y01367*
X01395Y01367*
X01395Y01367*
X01396Y01367*
X01396Y01367*
X01397Y01367*
X01397*
X01398Y01367*
G37*
G36*
X01443Y01201D02*
X0144Y01199D01*
X01435Y01201*
Y01225*
X01406*
X01387Y01245*
X01389Y0125*
X01406*
Y01273*
X01426*
Y01289*
X01443*
Y01201*
G37*
%LNsolears_v1-4*%
%LPC*%
G36*
X0153Y02135D02*
X0151D01*
Y02115*
X0153*
Y02135*
G37*
G36*
X015D02*
X0148D01*
Y02115*
X015*
Y02135*
G37*
G36*
X0153Y02105D02*
X0151D01*
Y02085*
X0153*
Y02105*
G37*
G36*
X015D02*
X0148D01*
Y02085*
X015*
Y02105*
G37*
G36*
X019Y0205D02*
X01885D01*
X01886Y02047*
X0189Y0204*
X01897Y02036*
X019Y02035*
Y0205*
G37*
G36*
X02401Y01478D02*
X02401Y01478D01*
X02401Y01477*
X024Y01477*
X02399Y01476*
X02398Y01475*
X02398Y01475*
X02398Y01475*
X02398Y01475*
X02398Y01475*
X02397Y01474*
X02397Y01474*
X02397Y01474*
X02396Y01473*
X02395Y01472*
X02394Y01472*
X02394Y01471*
X02393Y01471*
X02393Y0147*
X02393Y0147*
Y0147*
X02393Y0147*
X02393Y0147*
X02393Y0147*
X02392Y01469*
X02392Y01469*
X02392Y01468*
X02392Y01467*
X02391Y01467*
X02391Y01466*
Y01466*
Y01466*
X02391Y01466*
X02391Y01465*
X02392Y01465*
X02392Y01465*
X02392Y01464*
X02392Y01464*
X02393Y01463*
X02393Y01463*
X02393Y01463*
X02393Y01463*
X02394Y01462*
X02394Y01462*
X02395Y01462*
X02395Y01462*
X02396Y01462*
X02396*
X02396Y01462*
X02397Y01462*
X02397Y01462*
X02398Y01462*
X02399Y01462*
X02399Y01463*
X024Y01463*
X024Y01463*
X024Y01463*
X024Y01464*
X024Y01464*
X02401Y01465*
X02401Y01465*
X02401Y01466*
X02401Y01467*
X02401Y01467*
Y01478*
G37*
G36*
X01735Y01244D02*
Y0123D01*
X01749*
X01748Y01232*
X01744Y01239*
X01737Y01243*
X01735Y01244*
G37*
G36*
X01675Y01248D02*
X01652D01*
Y01227*
X01675*
Y01248*
G37*
G36*
X01645Y01245D02*
X01625D01*
Y01225*
X01645*
Y01245*
G37*
%LNsolears_v1-5*%
%LPD*%
G54D10*
X02342Y02657D02*
D01*
X02342Y02657*
X02342Y02657*
X02342Y02658*
X02342Y02658*
X02342Y02658*
X02342Y02659*
X02342Y02659*
X02341Y02659*
X02341Y02659*
X02341Y0266*
X02341Y0266*
X02341Y0266*
X0234Y0266*
X0234Y02661*
X0234Y02661*
X02339Y02661*
X02339Y02661*
X02339Y02661*
X02339Y02661*
X02338Y02661*
X02338Y02661*
X02338Y02661*
X02337*
X02337Y02661*
X02337Y02661*
X02336Y02661*
X02336Y02661*
X02336Y02661*
X02335Y02661*
X02335Y02661*
X02335Y02661*
X02334Y0266*
X02334Y0266*
X02334Y0266*
X02334Y0266*
X02334Y02659*
X02333Y02659*
X02333Y02659*
X02333Y02659*
X02333Y02658*
X02333Y02658*
X02333Y02658*
X02333Y02657*
X02333Y02657*
X02333Y02657*
X02333Y02656*
X02333Y02656*
X02333Y02656*
X02333Y02655*
X02333Y02655*
X02333Y02655*
X02333Y02654*
X02333Y02654*
X02334Y02654*
X02334Y02654*
X02334Y02653*
X02334Y02653*
X02334Y02653*
X02335Y02653*
X02335Y02653*
X02335Y02652*
X02336Y02652*
X02336Y02652*
X02336Y02652*
X02337Y02652*
X02337Y02652*
X02337Y02652*
X02338*
X02338Y02652*
X02338Y02652*
X02339Y02652*
X02339Y02652*
X02339Y02652*
X02339Y02652*
X0234Y02653*
X0234Y02653*
X0234Y02653*
X02341Y02653*
X02341Y02653*
X02341Y02654*
X02341Y02654*
X02341Y02654*
X02342Y02654*
X02342Y02655*
X02342Y02655*
X02342Y02655*
X02342Y02656*
X02342Y02656*
X02342Y02656*
X02342Y02657*
G54D13*
X01302Y01397D02*
X01427D01*
Y01272D02*
Y01397D01*
X01302Y01272D02*
X01427D01*
X01302D02*
Y01397D01*
X02338Y014D02*
X02507D01*
X02338D02*
Y01569D01*
X02507*
Y014D02*
Y01569D01*
X01346Y01601D02*
Y01859D01*
X01613*
Y01601D02*
Y01859D01*
X01346Y01601D02*
X01613D01*
X01282Y01417D02*
X01447D01*
Y01252D02*
Y01417D01*
X01282Y01252D02*
X01447D01*
X01282D02*
Y01417D01*
X02334Y01396D02*
X02511D01*
X02334D02*
Y01573D01*
X02511*
Y01396D02*
Y01573D01*
X01342Y01597D02*
Y01863D01*
X01617*
Y01597D02*
Y01863D01*
X01342Y01597D02*
X01617D01*
X01282Y01417D02*
X01447D01*
Y01252D02*
Y01417D01*
X01282Y01252D02*
X01447D01*
X01282D02*
Y01417D01*
X02334Y01396D02*
X02511D01*
X02334D02*
Y01573D01*
X02511*
Y01396D02*
Y01573D01*
X01342Y01597D02*
Y01863D01*
X01617*
Y01597D02*
Y01863D01*
X01342Y01597D02*
X01617D01*
X01652Y01585D02*
D01*
X01652Y01585*
X01652Y01585*
X01652Y01585*
X01652Y01586*
X01652Y01586*
X01652Y01586*
X01651Y01586*
X01651Y01587*
X01651Y01587*
X01651Y01587*
X01651Y01587*
X01651Y01587*
X0165Y01588*
X0165Y01588*
X0165Y01588*
X0165Y01588*
X01649Y01588*
X01649Y01588*
X01649Y01588*
X01649Y01588*
X01648Y01588*
X01648Y01588*
X01648*
X01648Y01588*
X01647Y01588*
X01647Y01588*
X01647Y01588*
X01646Y01588*
X01646Y01588*
X01646Y01588*
X01646Y01588*
X01646Y01588*
X01645Y01587*
X01645Y01587*
X01645Y01587*
X01645Y01587*
X01645Y01587*
X01644Y01586*
X01644Y01586*
X01644Y01586*
X01644Y01586*
X01644Y01585*
X01644Y01585*
X01644Y01585*
X01644Y01585*
X01644Y01584*
X01644Y01584*
X01644Y01584*
X01644Y01583*
X01644Y01583*
X01644Y01583*
X01644Y01583*
X01645Y01582*
X01645Y01582*
X01645Y01582*
X01645Y01582*
X01645Y01582*
X01646Y01581*
X01646Y01581*
X01646Y01581*
X01646Y01581*
X01646Y01581*
X01647Y01581*
X01647Y01581*
X01647Y01581*
X01648Y01581*
X01648Y01581*
X01648*
X01648Y01581*
X01649Y01581*
X01649Y01581*
X01649Y01581*
X01649Y01581*
X0165Y01581*
X0165Y01581*
X0165Y01581*
X0165Y01581*
X01651Y01582*
X01651Y01582*
X01651Y01582*
X01651Y01582*
X01651Y01582*
X01651Y01583*
X01652Y01583*
X01652Y01583*
X01652Y01583*
X01652Y01584*
X01652Y01584*
X01652Y01584*
X01652Y01585*
X02336Y01733D02*
D01*
X02336Y01733*
X02336Y01733*
X02336Y01734*
X02336Y01734*
X02336Y01734*
X02336Y01734*
X02336Y01735*
X02336Y01735*
X02336Y01735*
X02335Y01735*
X02335Y01736*
X02335Y01736*
X02335Y01736*
X02335Y01736*
X02334Y01736*
X02334Y01736*
X02334Y01737*
X02334Y01737*
X02333Y01737*
X02333Y01737*
X02333Y01737*
X02333Y01737*
X02332*
X02332Y01737*
X02332Y01737*
X02331Y01737*
X02331Y01737*
X02331Y01737*
X02331Y01736*
X0233Y01736*
X0233Y01736*
X0233Y01736*
X0233Y01736*
X0233Y01736*
X02329Y01735*
X02329Y01735*
X02329Y01735*
X02329Y01735*
X02329Y01734*
X02329Y01734*
X02329Y01734*
X02329Y01734*
X02328Y01733*
X02328Y01733*
X02328Y01733*
X02328Y01733*
X02328Y01732*
X02329Y01732*
X02329Y01732*
X02329Y01732*
X02329Y01731*
X02329Y01731*
X02329Y01731*
X02329Y01731*
X02329Y0173*
X0233Y0173*
X0233Y0173*
X0233Y0173*
X0233Y0173*
X0233Y01729*
X02331Y01729*
X02331Y01729*
X02331Y01729*
X02331Y01729*
X02332Y01729*
X02332Y01729*
X02332Y01729*
X02333*
X02333Y01729*
X02333Y01729*
X02333Y01729*
X02334Y01729*
X02334Y01729*
X02334Y01729*
X02334Y01729*
X02335Y0173*
X02335Y0173*
X02335Y0173*
X02335Y0173*
X02335Y0173*
X02336Y01731*
X02336Y01731*
X02336Y01731*
X02336Y01731*
X02336Y01732*
X02336Y01732*
X02336Y01732*
X02336Y01732*
X02336Y01733*
X02336Y01733*
X01696Y01374D02*
D01*
X01696Y01374*
X01695Y01374*
X01695Y01375*
X01695Y01375*
X01695Y01375*
X01695Y01375*
X01695Y01376*
X01695Y01376*
X01695Y01376*
X01695Y01376*
X01694Y01377*
X01694Y01377*
X01694Y01377*
X01694Y01377*
X01694Y01377*
X01693Y01377*
X01693Y01378*
X01693Y01378*
X01693Y01378*
X01692Y01378*
X01692Y01378*
X01692Y01378*
X01691*
X01691Y01378*
X01691Y01378*
X01691Y01378*
X0169Y01378*
X0169Y01378*
X0169Y01377*
X0169Y01377*
X01689Y01377*
X01689Y01377*
X01689Y01377*
X01689Y01377*
X01689Y01376*
X01688Y01376*
X01688Y01376*
X01688Y01376*
X01688Y01375*
X01688Y01375*
X01688Y01375*
X01688Y01375*
X01688Y01374*
X01688Y01374*
X01688Y01374*
X01688Y01374*
X01688Y01373*
X01688Y01373*
X01688Y01373*
X01688Y01373*
X01688Y01372*
X01688Y01372*
X01688Y01372*
X01688Y01372*
X01689Y01371*
X01689Y01371*
X01689Y01371*
X01689Y01371*
X01689Y01371*
X0169Y0137*
X0169Y0137*
X0169Y0137*
X0169Y0137*
X01691Y0137*
X01691Y0137*
X01691Y0137*
X01691Y0137*
X01692*
X01692Y0137*
X01692Y0137*
X01693Y0137*
X01693Y0137*
X01693Y0137*
X01693Y0137*
X01694Y0137*
X01694Y01371*
X01694Y01371*
X01694Y01371*
X01694Y01371*
X01695Y01371*
X01695Y01372*
X01695Y01372*
X01695Y01372*
X01695Y01372*
X01695Y01373*
X01695Y01373*
X01695Y01373*
X01695Y01373*
X01696Y01374*
X01696Y01374*
G54D14*
X00997Y01131D02*
D01*
X00996Y01131*
X00995Y01132*
X00994Y01132*
X00993Y01132*
X00993Y01132*
X00992Y01132*
X00991Y01132*
X0099Y01132*
X00989Y01132*
X00989Y01132*
X00988Y01132*
X00987Y01132*
X00986Y01131*
X00986Y01131*
X00985Y0113*
X00984Y0113*
X00984Y01129*
X00983Y01129*
X00982Y01128*
X00982Y01128*
X00981Y01127*
X00981Y01126*
X00981Y01126*
X00993Y01147D02*
D01*
X00991Y01147*
X0099Y01147*
X00989Y01147*
X00988Y01147*
X00986Y01147*
X00985Y01147*
X00984Y01147*
X00983Y01146*
X00982Y01146*
X0098Y01145*
X00979Y01145*
X00978Y01144*
X00977Y01143*
X00976Y01142*
X00975Y01141*
X00975Y01141*
X00974Y0114*
X00973Y01138*
X00972Y01137*
X00972Y01136*
X00971Y01135*
X00971Y01134*
X00971Y01133*
X00981Y01435D02*
D01*
X00981Y01435*
X00982Y01434*
X00982Y01433*
X00983Y01433*
X00983Y01432*
X00984Y01432*
X00984Y01431*
X00985Y01431*
X00986Y0143*
X00987Y0143*
X00987Y0143*
X00988Y01429*
X00989Y01429*
X0099Y01429*
X00991Y01429*
X00991Y01429*
X00992Y01429*
X00993Y01429*
X00994Y01429*
X00995Y0143*
X00995Y0143*
X00996Y0143*
X00997Y0143*
X00969Y01428D02*
D01*
X00969Y01427*
X0097Y01426*
X0097Y01424*
X00971Y01423*
X00972Y01422*
X00973Y01421*
X00974Y0142*
X00974Y01419*
X00975Y01418*
X00977Y01417*
X00978Y01417*
X00979Y01416*
X0098Y01415*
X00981Y01415*
X00983Y01415*
X00984Y01414*
X00985Y01414*
X00987Y01414*
X00988Y01414*
X00989Y01414*
X00991Y01414*
X00992Y01414*
X00993Y01415*
X01193Y01131D02*
Y0143D01*
X01022D02*
X01193D01*
X00995D02*
X01022D01*
X00995Y01131D02*
Y0143D01*
Y01131D02*
X00997D01*
X01193*
X00971Y01133D02*
X00981Y01126D01*
X00971Y01155D02*
X00993D01*
X00971D02*
Y01407D01*
X00993*
X00969Y01428D02*
X00981Y01435D01*
X01022Y0143D02*
Y01523D01*
X01674Y01714D02*
X01925D01*
Y01455D02*
Y01714D01*
X01674Y01455D02*
X01925D01*
X01674D02*
Y01714D01*
X02371Y01616D02*
Y01773D01*
X02528Y01616D02*
Y01773D01*
X02371D02*
X02528D01*
X02371Y01616D02*
X02528D01*
X01411Y02011D02*
X01588D01*
Y01888D02*
Y02011D01*
X01411Y01888D02*
X01588D01*
X01411D02*
Y02011D01*
X01729Y01254D02*
Y01415D01*
X0189Y01254D02*
Y01415D01*
X01729D02*
X0189D01*
X01729Y01254D02*
X0189D01*
G54D16*
X02461Y0324D02*
Y03215D01*
X02466Y0321*
X02476*
X02481Y03215*
Y0324*
X02511D02*
X02501Y03235D01*
X02491Y03225*
Y03215*
X02496Y0321*
X02506*
X02511Y03215*
Y0322*
X02506Y03225*
X02491*
G54D17*
X02476Y0327D02*
D01*
X02476Y0327*
X02476Y03271*
X02476Y03272*
X02475Y03273*
X02475Y03274*
X02475Y03274*
X02474Y03275*
X02474Y03276*
X02474Y03276*
X02473Y03277*
X02473Y03278*
X02472Y03278*
X02471Y03279*
X02471Y03279*
X0247Y0328*
X02469Y0328*
X02468Y0328*
X02468Y03281*
X02467Y03281*
X02466Y03281*
X02465Y03281*
X02464Y03281*
X02464*
X02463Y03281*
X02462Y03281*
X02461Y03281*
X0246Y03281*
X0246Y0328*
X02459Y0328*
X02458Y0328*
X02457Y03279*
X02457Y03279*
X02456Y03278*
X02456Y03278*
X02455Y03277*
X02454Y03276*
X02454Y03276*
X02454Y03275*
X02453Y03274*
X02453Y03274*
X02453Y03273*
X02452Y03272*
X02452Y03271*
X02452Y0327*
X02452Y0327*
X02452Y03269*
X02452Y03268*
X02452Y03267*
X02453Y03266*
X02453Y03265*
X02453Y03265*
X02454Y03264*
X02454Y03263*
X02454Y03263*
X02455Y03262*
X02456Y03261*
X02456Y03261*
X02457Y0326*
X02457Y0326*
X02458Y03259*
X02459Y03259*
X0246Y03259*
X0246Y03258*
X02461Y03258*
X02462Y03258*
X02463Y03258*
X02464Y03258*
X02464*
X02465Y03258*
X02466Y03258*
X02467Y03258*
X02468Y03258*
X02468Y03259*
X02469Y03259*
X0247Y03259*
X02471Y0326*
X02471Y0326*
X02472Y03261*
X02473Y03261*
X02473Y03262*
X02474Y03263*
X02474Y03263*
X02474Y03264*
X02475Y03265*
X02475Y03265*
X02475Y03266*
X02476Y03267*
X02476Y03268*
X02476Y03269*
X02476Y0327*
X03061Y01724D02*
X03098D01*
X03061Y01655D02*
X03098D01*
Y01724*
X03061Y01655D02*
Y01724D01*
Y01839D02*
X03098D01*
X03061Y0177D02*
X03098D01*
Y01839*
X03061Y0177D02*
Y01839D01*
Y01974D02*
X03098D01*
X03061Y01905D02*
X03098D01*
Y01974*
X03061Y01905D02*
Y01974D01*
X02756Y01954D02*
X02793D01*
X02756Y01885D02*
X02793D01*
Y01954*
X02756Y01885D02*
Y01954D01*
X0296Y01756D02*
Y01793D01*
X03029Y01756D02*
Y01793D01*
X0296D02*
X03029D01*
X0296Y01756D02*
X03029D01*
X0296Y01816D02*
Y01853D01*
X03029Y01816D02*
Y01853D01*
X0296D02*
X03029D01*
X0296Y01816D02*
X03029D01*
X02851Y01279D02*
X02888D01*
X02851Y0121D02*
X02888D01*
Y01279*
X02851Y0121D02*
Y01279D01*
X03056Y01469D02*
X03093D01*
X03056Y014D02*
X03093D01*
Y01469*
X03056Y014D02*
Y01469D01*
X02731Y01409D02*
X02768D01*
X02731Y0134D02*
X02768D01*
Y01409*
X02731Y0134D02*
Y01409D01*
X0295Y01256D02*
Y01293D01*
X03019Y01256D02*
Y01293D01*
X0295D02*
X03019D01*
X0295Y01256D02*
X03019D01*
X0295Y01311D02*
Y01348D01*
X03019Y01311D02*
Y01348D01*
X0295D02*
X03019D01*
X0295Y01311D02*
X03019D01*
X03056Y01334D02*
X03093D01*
X03056Y01265D02*
X03093D01*
Y01334*
X03056Y01265D02*
Y01334D01*
Y01224D02*
X03093D01*
X03056Y01155D02*
X03093D01*
Y01224*
X03056Y01155D02*
Y01224D01*
X01204Y01926D02*
Y01963D01*
X01135Y01926D02*
Y01963D01*
Y01926D02*
X01204D01*
X01135Y01963D02*
X01204D01*
X01676Y03129D02*
X01713D01*
X01676Y0306D02*
X01713D01*
Y03129*
X01676Y0306D02*
Y03129D01*
X01626D02*
X01663D01*
X01626Y0306D02*
X01663D01*
Y03129*
X01626Y0306D02*
Y03129D01*
X0104Y02126D02*
X01229D01*
X0104Y01993D02*
X01229D01*
X0104D02*
Y02126D01*
X01229Y01993D02*
Y02126D01*
X02215Y01946D02*
Y01983D01*
X02284Y01946D02*
Y01983D01*
X02215D02*
X02284D01*
X02215Y01946D02*
X02284D01*
X02861Y01824D02*
X02898D01*
X02861Y01755D02*
X02898D01*
Y01824*
X02861Y01755D02*
Y01824D01*
X01901Y03099D02*
X01938D01*
X01901Y0303D02*
X01938D01*
Y03099*
X01901Y0303D02*
Y03099D01*
X01841D02*
X01878D01*
X01841Y0303D02*
X01878D01*
Y03099*
X01841Y0303D02*
Y03099D01*
X02986Y02253D02*
Y02775D01*
X02405Y02253D02*
X02986D01*
X02405D02*
Y02846D01*
X02986Y02775D02*
X02996D01*
Y02818*
X02986D02*
X02996D01*
X02986D02*
Y02846D01*
X02405D02*
X02986D01*
X02435Y03149D02*
Y0331D01*
X02597Y03149D02*
Y0331D01*
X02435D02*
X02597D01*
X02435Y03149D02*
X02597D01*
X02385Y03236D02*
Y03273D01*
X02316Y03236D02*
Y03273D01*
Y03236D02*
X02385D01*
X02316Y03273D02*
X02385D01*
Y03286D02*
Y03323D01*
X02316Y03286D02*
Y03323D01*
Y03286D02*
X02385D01*
X02316Y03323D02*
X02385D01*
Y03186D02*
Y03223D01*
X02316Y03186D02*
Y03223D01*
Y03186D02*
X02385D01*
X02316Y03223D02*
X02385D01*
Y03136D02*
Y03173D01*
X02316Y03136D02*
Y03173D01*
Y03136D02*
X02385D01*
X02316Y03173D02*
X02385D01*
X02412Y03454D02*
X0245D01*
X02412Y03385D02*
X0245D01*
Y03454*
X02412Y03385D02*
Y03454D01*
X02522D02*
X0256D01*
X02522Y03385D02*
X0256D01*
Y03454*
X02522Y03385D02*
Y03454D01*
X02467D02*
X02505D01*
X02467Y03385D02*
X02505D01*
Y03454*
X02467Y03385D02*
Y03454D01*
X01971Y02014D02*
Y02055D01*
X01938Y02014D02*
Y02055D01*
Y02014D02*
X01971D01*
X01938Y02055D02*
X01971D01*
X01291Y01356D02*
X01358D01*
X01291Y01233D02*
X01358D01*
Y01356*
X01291Y01233D02*
Y01356D01*
X01293Y01191D02*
Y01228D01*
X01362Y01191D02*
Y01228D01*
X01293D02*
X01362D01*
X01293Y01191D02*
X01362D01*
X01293Y01126D02*
Y01163D01*
X01362Y01126D02*
Y01163D01*
X01293D02*
X01362D01*
X01293Y01126D02*
X01362D01*
X02306Y016D02*
Y01789D01*
X02173Y016D02*
Y01789D01*
X02306*
X02173Y016D02*
X02306D01*
X01281Y01625D02*
X01318D01*
X01281Y01694D02*
X01318D01*
X01281Y01625D02*
Y01694D01*
X01318Y01625D02*
Y01694D01*
X01281Y01725D02*
X01318D01*
X01281Y01794D02*
X01318D01*
X01281Y01725D02*
Y01794D01*
X01318Y01725D02*
Y01794D01*
X01671Y01915D02*
X01708D01*
X01671Y01984D02*
X01708D01*
X01671Y01915D02*
Y01984D01*
X01708Y01915D02*
Y01984D01*
X01671Y018D02*
X01708D01*
X01671Y01869D02*
X01708D01*
X01671Y018D02*
Y01869D01*
X01708Y018D02*
Y01869D01*
X01286Y0197D02*
X01323D01*
X01286Y02039D02*
X01323D01*
X01286Y0197D02*
Y02039D01*
X01323Y0197D02*
Y02039D01*
X01926Y01429D02*
X01963D01*
X01926Y0136D02*
X01963D01*
Y01429*
X01926Y0136D02*
Y01429D01*
X01661Y01215D02*
X01698D01*
X01661Y01284D02*
X01698D01*
X01661Y01215D02*
Y01284D01*
X01698Y01215D02*
Y01284D01*
X01636Y01424D02*
X01673D01*
X01636Y01355D02*
X01673D01*
Y01424*
X01636Y01355D02*
Y01424D01*
X01849Y01171D02*
Y01208D01*
X0178Y01171D02*
Y01208D01*
Y01171D02*
X01849D01*
X0178Y01208D02*
X01849D01*
X02581Y01734D02*
X02618D01*
X02581Y01665D02*
X02618D01*
Y01734*
X02581Y01665D02*
Y01734D01*
X03058Y01737D02*
X03101D01*
X03058Y01642D02*
X03101D01*
Y01737*
X03058Y01642D02*
Y01737D01*
X0308Y01671D02*
Y01708D01*
X03061Y0169D02*
X03098D01*
X03058Y01852D02*
X03101D01*
X03058Y01757D02*
X03101D01*
Y01852*
X03058Y01757D02*
Y01852D01*
X0308Y01786D02*
Y01823D01*
X03061Y01805D02*
X03098D01*
X03058Y01987D02*
X03101D01*
X03058Y01892D02*
X03101D01*
Y01987*
X03058Y01892D02*
Y01987D01*
X0308Y01921D02*
Y01958D01*
X03061Y0194D02*
X03098D01*
X02753Y01967D02*
X02796D01*
X02753Y01872D02*
X02796D01*
Y01967*
X02753Y01872D02*
Y01967D01*
X02775Y01901D02*
Y01938D01*
X02756Y0192D02*
X02793D01*
X02947Y01753D02*
Y01796D01*
X03042Y01753D02*
Y01796D01*
X02947D02*
X03042D01*
X02947Y01753D02*
X03042D01*
X02976Y01775D02*
X03013D01*
X02995Y01756D02*
Y01793D01*
X02947Y01813D02*
Y01856D01*
X03042Y01813D02*
Y01856D01*
X02947D02*
X03042D01*
X02947Y01813D02*
X03042D01*
X02976Y01835D02*
X03013D01*
X02995Y01816D02*
Y01853D01*
X02848Y01292D02*
X02891D01*
X02848Y01197D02*
X02891D01*
Y01292*
X02848Y01197D02*
Y01292D01*
X0287Y01226D02*
Y01263D01*
X02851Y01245D02*
X02888D01*
X03053Y01482D02*
X03096D01*
X03053Y01387D02*
X03096D01*
Y01482*
X03053Y01387D02*
Y01482D01*
X03075Y01416D02*
Y01453D01*
X03056Y01435D02*
X03093D01*
X02728Y01422D02*
X02771D01*
X02728Y01327D02*
X02771D01*
Y01422*
X02728Y01327D02*
Y01422D01*
X0275Y01356D02*
Y01393D01*
X02731Y01375D02*
X02768D01*
X02937Y01253D02*
Y01296D01*
X03032Y01253D02*
Y01296D01*
X02937D02*
X03032D01*
X02937Y01253D02*
X03032D01*
X02966Y01275D02*
X03003D01*
X02985Y01256D02*
Y01293D01*
X02937Y01308D02*
Y01351D01*
X03032Y01308D02*
Y01351D01*
X02937D02*
X03032D01*
X02937Y01308D02*
X03032D01*
X02966Y0133D02*
X03003D01*
X02985Y01311D02*
Y01348D01*
X03053Y01347D02*
X03096D01*
X03053Y01252D02*
X03096D01*
Y01347*
X03053Y01252D02*
Y01347D01*
X03075Y01281D02*
Y01318D01*
X03056Y013D02*
X03093D01*
X03053Y01237D02*
X03096D01*
X03053Y01142D02*
X03096D01*
Y01237*
X03053Y01142D02*
Y01237D01*
X03075Y01171D02*
Y01208D01*
X03056Y0119D02*
X03093D01*
X01217Y01923D02*
Y01966D01*
X01122Y01923D02*
Y01966D01*
Y01923D02*
X01217D01*
X01122Y01966D02*
X01217D01*
X01151Y01945D02*
X01188D01*
X0117Y01926D02*
Y01963D01*
X01673Y03142D02*
X01716D01*
X01673Y03047D02*
X01716D01*
Y03142*
X01673Y03047D02*
Y03142D01*
X01695Y03076D02*
Y03113D01*
X01676Y03095D02*
X01713D01*
X01623Y03142D02*
X01666D01*
X01623Y03047D02*
X01666D01*
Y03142*
X01623Y03047D02*
Y03142D01*
X01645Y03076D02*
Y03113D01*
X01626Y03095D02*
X01663D01*
X01135Y0204D02*
Y02079D01*
X01115Y0206D02*
X01154D01*
X01028Y02128D02*
X01241D01*
X01028Y01991D02*
X01241D01*
X01028D02*
Y02128D01*
X01241Y01991D02*
Y02128D01*
X02202Y01943D02*
Y01986D01*
X02297Y01943D02*
Y01986D01*
X02202D02*
X02297D01*
X02202Y01943D02*
X02297D01*
X02231Y01965D02*
X02268D01*
X0225Y01946D02*
Y01983D01*
X02858Y01837D02*
X02901D01*
X02858Y01742D02*
X02901D01*
Y01837*
X02858Y01742D02*
Y01837D01*
X0288Y01771D02*
Y01808D01*
X02861Y0179D02*
X02898D01*
X01898Y03112D02*
X01941D01*
X01898Y03017D02*
X01941D01*
Y03112*
X01898Y03017D02*
Y03112D01*
X0192Y03046D02*
Y03083D01*
X01901Y03065D02*
X01938D01*
X01838Y03112D02*
X01881D01*
X01838Y03017D02*
X01881D01*
Y03112*
X01838Y03017D02*
Y03112D01*
X0186Y03046D02*
Y03083D01*
X01841Y03065D02*
X01878D01*
X02496Y0323D02*
X02536D01*
X02516Y0321D02*
Y03249D01*
X02398Y03233D02*
Y03276D01*
X02304Y03233D02*
Y03276D01*
Y03233D02*
X02398D01*
X02304Y03276D02*
X02398D01*
X02332Y03255D02*
X0237D01*
X02351Y03236D02*
Y03273D01*
X02398Y03283D02*
Y03326D01*
X02304Y03283D02*
Y03326D01*
Y03283D02*
X02398D01*
X02304Y03326D02*
X02398D01*
X02332Y03305D02*
X0237D01*
X02351Y03286D02*
Y03323D01*
X02398Y03183D02*
Y03226D01*
X02304Y03183D02*
Y03226D01*
Y03183D02*
X02398D01*
X02304Y03226D02*
X02398D01*
X02332Y03205D02*
X0237D01*
X02351Y03186D02*
Y03223D01*
X02398Y03133D02*
Y03176D01*
X02304Y03133D02*
Y03176D01*
Y03133D02*
X02398D01*
X02304Y03176D02*
X02398D01*
X02332Y03155D02*
X0237D01*
X02351Y03136D02*
Y03173D01*
X02409Y03467D02*
X02452D01*
X02409Y03372D02*
X02452D01*
Y03467*
X02409Y03372D02*
Y03467D01*
X02431Y03401D02*
Y03438D01*
X02412Y0342D02*
X0245D01*
X02519Y03467D02*
X02562D01*
X02519Y03372D02*
X02562D01*
Y03467*
X02519Y03372D02*
Y03467D01*
X02541Y03401D02*
Y03438D01*
X02522Y0342D02*
X0256D01*
X02464Y03467D02*
X02507D01*
X02464Y03372D02*
X02507D01*
Y03467*
X02464Y03372D02*
Y03467D01*
X02486Y03401D02*
Y03438D01*
X02467Y0342D02*
X02505D01*
X01935Y02035D02*
X01974D01*
X01955Y02015D02*
Y02054D01*
X01325Y01275D02*
Y01314D01*
X01305Y01295D02*
X01344D01*
X0128Y01188D02*
Y01231D01*
X01374Y01188D02*
Y01231D01*
X0128D02*
X01374D01*
X0128Y01188D02*
X01374D01*
X01308Y0121D02*
X01346D01*
X01327Y01191D02*
Y01228D01*
X0128Y01123D02*
Y01166D01*
X01374Y01123D02*
Y01166D01*
X0128D02*
X01374D01*
X0128Y01123D02*
X01374D01*
X01308Y01145D02*
X01346D01*
X01327Y01126D02*
Y01163D01*
X0222Y01695D02*
X02259D01*
X0224Y01675D02*
Y01714D01*
X02308Y01588D02*
Y01801D01*
X02171Y01588D02*
Y01801D01*
X02308*
X02171Y01588D02*
X02308D01*
X01278Y01612D02*
X01321D01*
X01278Y01707D02*
X01321D01*
X01278Y01612D02*
Y01707D01*
X01321Y01612D02*
Y01707D01*
X013Y01641D02*
Y01678D01*
X01281Y0166D02*
X01318D01*
X01278Y01712D02*
X01321D01*
X01278Y01807D02*
X01321D01*
X01278Y01712D02*
Y01807D01*
X01321Y01712D02*
Y01807D01*
X013Y01741D02*
Y01778D01*
X01281Y0176D02*
X01318D01*
X01668Y01902D02*
X01711D01*
X01668Y01997D02*
X01711D01*
X01668Y01902D02*
Y01997D01*
X01711Y01902D02*
Y01997D01*
X0169Y01931D02*
Y01968D01*
X01671Y0195D02*
X01708D01*
X01668Y01787D02*
X01711D01*
X01668Y01882D02*
X01711D01*
X01668Y01787D02*
Y01882D01*
X01711Y01787D02*
Y01882D01*
X0169Y01816D02*
Y01853D01*
X01671Y01835D02*
X01708D01*
X01283Y01957D02*
X01326D01*
X01283Y02052D02*
X01326D01*
X01283Y01957D02*
Y02052D01*
X01326Y01957D02*
Y02052D01*
X01305Y01986D02*
Y02023D01*
X01286Y02005D02*
X01323D01*
X01923Y01442D02*
X01966D01*
X01923Y01347D02*
X01966D01*
Y01442*
X01923Y01347D02*
Y01442D01*
X01945Y01376D02*
Y01413D01*
X01926Y01395D02*
X01963D01*
X01658Y01202D02*
X01701D01*
X01658Y01297D02*
X01701D01*
X01658Y01202D02*
Y01297D01*
X01701Y01202D02*
Y01297D01*
X0168Y01231D02*
Y01268D01*
X01661Y0125D02*
X01698D01*
X01633Y01437D02*
X01676D01*
X01633Y01342D02*
X01676D01*
Y01437*
X01633Y01342D02*
Y01437D01*
X01655Y01371D02*
Y01408D01*
X01636Y0139D02*
X01673D01*
X01862Y01168D02*
Y01211D01*
X01767Y01168D02*
Y01211D01*
Y01168D02*
X01862D01*
X01767Y01211D02*
X01862D01*
X01796Y0119D02*
X01833D01*
X01815Y01171D02*
Y01208D01*
X02578Y01747D02*
X02621D01*
X02578Y01652D02*
X02621D01*
Y01747*
X02578Y01652D02*
Y01747D01*
X026Y01681D02*
Y01718D01*
X02581Y017D02*
X02618D01*
X01345Y01335D02*
X01384D01*
X01365Y01315D02*
Y01354D01*
X02403Y01485D02*
X02443D01*
X02423Y01465D02*
Y01504D01*
X0148Y0171D02*
Y0175D01*
X0146Y0173D02*
X01499D01*
G54D18*
X02716Y03185D02*
X02781Y0312D01*
X02716Y03185D02*
Y0322D01*
X02705Y0323D02*
X02716Y0322D01*
X02631Y0323D02*
X02705D01*
X02621Y0322D02*
X02631Y0323D01*
X02591Y0322D02*
X02621D01*
X02825Y03075D02*
X0287Y0312D01*
X02881*
X0274Y03075D02*
X02825D01*
X02645Y0317D02*
X0274Y03075D01*
X02646Y032D02*
X02651Y03205D01*
X02645Y03198D02*
X02646Y032D01*
X02645Y0317D02*
Y03198D01*
X02591Y032D02*
X02646D01*
X02105Y03008D02*
Y03086D01*
X02186Y03038D02*
Y03116D01*
X02017Y02868D02*
X02186Y03038D01*
X02202Y03082D02*
X02303Y03183D01*
X02202Y03031D02*
Y03082D01*
X02023Y02852D02*
X02202Y03031D01*
X01982Y02884D02*
X02105Y03008D01*
Y03086D02*
X02303Y03283D01*
X01592Y02077D02*
X01942D01*
X0197Y0205*
X0156Y0211D02*
X01592Y02077D01*
X02695Y01585D02*
Y0162D01*
X0266Y01655D02*
X02695Y0162D01*
X02684Y01574D02*
X02695Y01585D01*
X02636Y01574D02*
X02684D01*
X02619Y0159D02*
X02636Y01574D01*
X02583Y0159D02*
X02619D01*
X02555Y01618D02*
X02583Y0159D01*
X02488Y01618D02*
X02555D01*
X02563Y01656D02*
X026Y0162D01*
X02526Y01656D02*
X02563D01*
X0263Y01655D02*
X0266D01*
X02623Y01661D02*
X0263Y01655D01*
X0261Y01661D02*
X02623D01*
X026Y01672D02*
X0261Y01661D01*
X02526Y01707D02*
X02562D01*
X02598Y01672*
X026*
X02488Y01551D02*
Y01618D01*
X0247Y01532D02*
X02488Y01551D01*
X0247Y01485D02*
Y01532D01*
X02526Y03239D02*
X02545Y03259D01*
X02526Y03239D02*
X02591D01*
X02516Y0323D02*
X02526Y03239D01*
X02545Y03259D02*
X02591D01*
X02465Y03125D02*
X02487D01*
X02502Y0314*
Y03144*
X02506Y03148*
Y03155*
X01365Y01335D02*
X01394Y01305D01*
X01426*
X01355Y01344D02*
X01365Y01335D01*
X01303Y01344D02*
X01355D01*
X0181Y01335D02*
X01886D01*
X0126Y02865D02*
X0127Y02855D01*
X0126Y02865D02*
Y02935D01*
X02302Y03142D02*
X02313D01*
X0228Y0312D02*
X02302Y03142D01*
X02313D02*
X02323Y03153D01*
Y03155*
X01767Y03015D02*
X01785D01*
X01731Y02978D02*
X01767Y03015D01*
X01731Y02978D02*
Y02978D01*
X0171Y02956D02*
X01731Y02978D01*
X0171Y02935D02*
Y02956D01*
X0222Y0203D02*
X02222Y02027D01*
Y01965D02*
Y02027D01*
X02135Y0202D02*
X0219Y01965D01*
X02222*
X0215Y02825D02*
X0216Y02835D01*
X0222*
X02145Y0269D02*
X02165Y0271D01*
X0222*
X0215Y0257D02*
X02165Y02585D01*
X0222*
X02155Y0245D02*
X02165Y0246D01*
X0222*
X0216Y0234D02*
Y0235D01*
Y0234D02*
X0222Y0228D01*
X02155Y0217D02*
X0217Y02155D01*
X0222*
Y0246D02*
X02262Y02502D01*
X0238*
X01581Y02248D02*
X01724Y02391D01*
X02085Y02445D02*
X02125Y02405D01*
X01946Y02389D02*
X02165D01*
X01944Y02391D02*
X01946Y02389D01*
X01724Y02391D02*
X01944D01*
X02125Y02405D02*
X0222D01*
X02165Y02389D02*
X0222Y02335D01*
X0156Y0211D02*
Y02195D01*
Y02216*
X0197Y0205D02*
X0198D01*
X01924Y02375D02*
X0208Y0222D01*
X01731Y02375D02*
X01924D01*
X01622Y02267D02*
X01731Y02375D01*
X01381Y02246D02*
X01577Y02442D01*
X01381Y02238D02*
Y02246D01*
X0136Y02216D02*
X01381Y02238D01*
X0136Y02195D02*
Y02216D01*
X0217Y02085D02*
X0222D01*
X019Y02355D02*
X0217Y02085D01*
X01288Y02238D02*
Y02361D01*
X0126Y0239D02*
X01288Y02361D01*
X0107Y0239D02*
X0126D01*
X01688Y01977D02*
X0169D01*
X01673Y01962D02*
X01688Y01977D01*
X01613Y01962D02*
X01673D01*
X01622Y02207D02*
Y02267D01*
X0161Y02195D02*
X01622Y02207D01*
X01581Y02238D02*
Y02248D01*
X0156Y02216D02*
X01581Y02238D01*
X01531Y02238D02*
X01812Y0252D01*
X01531Y02238D02*
Y02238D01*
X0208Y0222D02*
X0221D01*
X0222Y0221*
X01481Y02238D02*
X01887Y02645D01*
X0151Y02216D02*
X01531Y02238D01*
X0151Y02195D02*
Y02216D01*
X01481Y02238D02*
Y02238D01*
X0146Y02216D02*
X01481Y02238D01*
X0146Y02195D02*
Y02216D01*
X01431Y02246D02*
X01965Y0278D01*
X01431Y02238D02*
Y02246D01*
X0141Y02216D02*
X01431Y02238D01*
X0141Y02195D02*
Y02216D01*
X0221Y0252D02*
X0222Y0253D01*
X01812Y0252D02*
X0221D01*
Y02645D02*
X0222Y02655D01*
X01887Y02645D02*
X0221D01*
X01965Y0278D02*
X0222D01*
X01288Y02238D02*
X0131Y02216D01*
Y02195D02*
Y02216D01*
X01732Y01922D02*
X01735Y0192D01*
X0169Y01922D02*
X01732D01*
X0133Y01925D02*
Y01935D01*
X01642Y01908D02*
X01688Y01862D01*
X01727Y01977D02*
X01745Y0196D01*
X0169Y01977D02*
X01727D01*
X01185Y01885D02*
Y0189D01*
X01155Y01855D02*
X01185Y01885D01*
X01255Y019D02*
X0126D01*
X0123Y01875D02*
X01255Y019D01*
X013Y01895D02*
X0133Y01925D01*
X0135Y0145D02*
X01373Y01426D01*
Y01396D02*
Y01426D01*
Y01396D02*
X01374Y01396D01*
X01394Y01449D02*
X01395Y0145D01*
X01394Y01396D02*
Y01449D01*
X0238Y0123D02*
X02385Y01225D01*
X0248*
X0156Y03145D02*
Y03325D01*
X01465Y0342D02*
X0156Y03325D01*
X01537Y03052D02*
Y03144D01*
X01447Y03192D02*
X01505Y03134D01*
X01437Y03035D02*
X01474D01*
X01265Y0342D02*
X01521Y03163D01*
X01474Y03035D02*
X01505Y03065D01*
X01471Y03019D02*
X01481D01*
X01521Y03059*
X01472Y02988D02*
X01537Y03052D01*
X01472Y02947D02*
Y02988D01*
X01553Y03138D02*
X0156Y03145D01*
X01553Y03046D02*
Y03138D01*
X01522Y03015D02*
X01553Y03046D01*
X01522Y02947D02*
Y03015D01*
X0151Y02935D02*
X01522Y02947D01*
X01521Y03059D02*
Y03163D01*
X01569Y03044D02*
X01585Y0306D01*
X01569Y03039D02*
Y03044D01*
X0156Y0303D02*
X01569Y03039D01*
X0156Y02935D02*
Y0303D01*
X01505Y03065D02*
Y03134D01*
X01537Y03144D02*
Y03247D01*
X01294Y03268D02*
X01421Y03141D01*
Y03076D02*
Y03141D01*
X01331Y02986D02*
X01421Y03076D01*
X01354Y03185D02*
X01405Y03134D01*
Y03083D02*
Y03134D01*
X01353Y03031D02*
X01405Y03083D01*
X01365Y0342D02*
X01537Y03247D01*
X01381Y02978D02*
X01437Y03035D01*
X01392Y03192D02*
X01447D01*
X01431Y02978D02*
X01471Y03019D01*
X01431Y02978D02*
Y02978D01*
X0141Y02956D02*
X01431Y02978D01*
X0141Y02935D02*
Y02956D01*
X0146Y02935D02*
X01472Y02947D01*
X01165Y0342D02*
X01392Y03192D01*
X0136Y02935D02*
Y02956D01*
X01381Y02978D02*
Y02978D01*
X0136Y02956D02*
X01381Y02978D01*
X01331D02*
Y02986D01*
X01283Y03031D02*
X01353D01*
X0131Y02956D02*
X01331Y02978D01*
X0131Y02935D02*
Y02956D01*
X01234Y03185D02*
X01354D01*
X01311Y03046D02*
X01365Y031D01*
X01249Y03046D02*
X01311D01*
X01132Y03395D02*
X01259Y03268D01*
X01294*
X01089Y03395D02*
X01132D01*
X01065Y0342D02*
X01089Y03395D01*
X01165Y03255D02*
X01234Y03185D01*
X01252Y031D02*
X01265D01*
X01131Y02978D02*
X01252Y031D01*
X01131Y02978D02*
Y02978D01*
X0111Y02956D02*
X01131Y02978D01*
X0111Y02935D02*
Y02956D01*
X01181Y02978D02*
X01249Y03046D01*
X01181Y02978D02*
Y02978D01*
X0116Y02956D02*
X01181Y02978D01*
X0116Y02935D02*
Y02956D01*
X01231Y02978D02*
X01283Y03031D01*
X01231Y02978D02*
Y02978D01*
X0121Y02956D02*
X01231Y02978D01*
X0121Y02935D02*
Y02956D01*
X02015Y0196D02*
X02025Y0197D01*
X0198Y01925D02*
X02015Y0196D01*
X0198Y0188D02*
Y01925D01*
X01905Y0196D02*
X02015D01*
X01895Y0195D02*
X01905Y0196D01*
X01792Y02037D02*
X01855Y01975D01*
X01382Y02037D02*
X01792D01*
X0131Y0211D02*
X01382Y02037D01*
X01386Y01988D02*
X01613D01*
X0288Y01817D02*
Y01885D01*
X0289Y01895*
X02865Y0135D02*
X02905D01*
X02865Y0135D02*
X02865Y0135D01*
X02905D02*
X02955Y014D01*
X01255Y0123D02*
X01257D01*
X01266Y01238*
X01328*
X01355Y01211*
Y0121D02*
Y01211D01*
X01335Y01273D02*
X01355D01*
X01574Y01315D02*
X01733D01*
X0131Y0211D02*
Y02195D01*
X01386Y01988D02*
X01386Y01988D01*
X01688Y01922D02*
X0169D01*
X01673Y01937D02*
X01688Y01922D01*
X01613Y01937D02*
X01673D01*
X01613Y01911D02*
X01616Y01908D01*
X01642*
X01688Y01862D02*
X0169D01*
X01692Y0186*
X01755*
X01461Y01632D02*
X0148Y0165D01*
X013Y01632D02*
X01461D01*
X01065Y0166D02*
X0127D01*
X01298Y01632*
X013*
X01054Y0167D02*
X01065Y0166D01*
X01054Y0167D02*
Y01727D01*
X01065Y01737*
Y01795*
X01075Y01805*
X01303Y01977D02*
X01305D01*
X01241Y01916D02*
X01303Y01977D01*
X0117Y01916D02*
X01241D01*
X01124Y0187D02*
X0117Y01916D01*
X01085Y0187D02*
X01124D01*
X01075Y0186D02*
X01085Y0187D01*
X01305Y01977D02*
X01315Y01988D01*
X01386*
X01451Y0181D02*
X0148D01*
X01428Y01833D02*
X01451Y0181D01*
X01428Y01833D02*
Y01921D01*
X01419Y0193D02*
X01428Y01921D01*
X01415Y0193D02*
X01419D01*
X01409Y01937D02*
X01415Y0193D01*
X01386Y01937D02*
X01409D01*
X01363Y01911D02*
X01386D01*
X0136Y01908D02*
X01363Y01911D01*
X0136Y019D02*
Y01908D01*
X013Y0184D02*
X0136Y019D01*
X02303Y03183D02*
X02304D01*
X01675Y02852D02*
X02023D01*
X02303Y03283D02*
X02304D01*
X02246Y03055D02*
X02297Y03106D01*
X02379*
X01803Y02868D02*
X02017D01*
X01837Y02884D02*
X01982D01*
X02186Y03116D02*
X02303Y03233D01*
X02379Y03106D02*
X02427Y03155D01*
X02486*
X0183Y02891D02*
X01837Y02884D01*
X0183Y02891D02*
Y02892D01*
X0181Y02913D02*
X0183Y02892D01*
X0167Y02858D02*
X01675Y02852D01*
X0167Y02858D02*
Y02925D01*
X0166Y02935D02*
X0167Y02925D01*
X0186Y02935D02*
Y03037D01*
X01772Y02899D02*
X01803Y02868D01*
X01772Y02899D02*
Y02922D01*
X0176Y02935D02*
X01772Y02922D01*
X02304Y03233D02*
X02323Y03253D01*
X02303Y03233D02*
X02304D01*
Y03183D02*
X02323Y03203D01*
Y03205*
X0181Y02913D02*
Y02935D01*
X0191Y03027D02*
X0192Y03037D01*
X0191Y02935D02*
Y03027D01*
X02323Y03253D02*
Y03255D01*
X01872Y03132D02*
X01985Y03245D01*
X01872Y03103D02*
Y03132D01*
X01921Y03092D02*
X02049Y0322D01*
X02439Y03358D02*
X02486Y03311D01*
X02302Y03358D02*
X02439D01*
X02368Y03392D02*
X02431D01*
X02346Y03415D02*
X02368Y03392D01*
X02304Y03283D02*
X02323Y03303D01*
Y03305*
X02434Y032D02*
X02441D01*
X02402Y03167D02*
X02434Y032D01*
X02389Y03167D02*
X02402D01*
X02378Y03156D02*
X02389Y03167D01*
X02378Y03155D02*
Y03156D01*
X02434Y0322D02*
X02441D01*
X02432Y03217D02*
X02434Y0322D01*
X02389Y03217D02*
X02432D01*
X02378Y03206D02*
X02389Y03217D01*
X02378Y03205D02*
Y03206D01*
X02434Y03239D02*
X02441D01*
X02432Y03242D02*
X02434Y03239D01*
X02389Y03242D02*
X02432D01*
X02378Y03253D02*
X02389Y03242D01*
X02378Y03253D02*
Y03255D01*
X02434Y03259D02*
X02441D01*
X02402Y03292D02*
X02434Y03259D01*
X02389Y03292D02*
X02402D01*
X02378Y03303D02*
X02389Y03292D01*
X02378Y03303D02*
Y03305D01*
X02486Y03304D02*
Y03311D01*
X02246Y03415D02*
X02302Y03358D01*
X02486Y03392D02*
X02539D01*
X02506Y03304D02*
Y03335D01*
X02528Y03357*
Y03381*
X02539Y03392*
X02541*
X02431D02*
X02486D01*
X02636Y03304D02*
X02751Y0342D01*
X02545Y03304D02*
X02636D01*
X02626Y03395D02*
X02651Y0342D01*
X02605Y03395D02*
X02626D01*
X0253Y03319D02*
X02605Y03395D01*
X0253Y03315D02*
Y03319D01*
X02526Y03311D02*
X0253Y03315D01*
X02526Y03304D02*
Y03311D01*
X02594Y03081D02*
Y03099D01*
X02545Y03148D02*
X02594Y03099D01*
X02545Y03148D02*
Y03155D01*
X02594Y03081D02*
X02626Y0305D01*
X02526Y0305D02*
X02526Y0305D01*
X02526Y0305D02*
Y03155D01*
X01861Y03092D02*
X01872Y03103D01*
X0186Y03092D02*
X01861D01*
X0206Y0322D02*
X02085Y03245D01*
X02049Y0322D02*
X0206D01*
X0192Y03092D02*
X01921D01*
X0186Y03037D02*
D01*
X01585Y0331D02*
X01695Y0342D01*
X01585Y03115D02*
Y0331D01*
X01755Y0338D02*
X01795Y0342D01*
X01755Y03115D02*
Y0338D01*
X0164Y03127D02*
Y0318D01*
Y03127D02*
X01645Y03122D01*
X01695Y0317D02*
X01705Y0318D01*
X01695Y03122D02*
Y0317D01*
X01702Y0306D02*
X01755D01*
X01695Y03067D02*
X01702Y0306D01*
X01693Y03067D02*
X01695D01*
X01682Y03056D02*
X01693Y03067D01*
X01682Y03036D02*
Y03056D01*
X01631Y02985D02*
X01682Y03036D01*
X01631Y02978D02*
Y02985D01*
X0161Y02956D02*
X01631Y02978D01*
X0161Y02935D02*
Y02956D01*
X01637Y0306D02*
X01645Y03067D01*
X01585Y0306D02*
X01637D01*
X0222Y02085D02*
X02275Y0203D01*
X02365Y02286D02*
X0238D01*
X02357Y02279D02*
X02365Y02286D01*
X02357Y02192D02*
Y02279D01*
X02285Y02119D02*
X02357Y02192D01*
X02285Y02095D02*
Y02119D01*
X02275Y02085D02*
X02285Y02095D01*
X0235Y02325D02*
X02375D01*
X0238Y02329*
X02317Y02292D02*
X0235Y02325D01*
X02317Y02277D02*
Y02292D01*
X02285Y02244D02*
X02317Y02277D01*
X02285Y0222D02*
Y02244D01*
X02275Y0221D02*
X02285Y0222D01*
X02275Y0228D02*
Y02335D01*
Y02155D02*
Y0221D01*
X02365Y02372D02*
X0238D01*
X02337Y02345D02*
X02365Y02372D01*
X02285Y02345D02*
X02337D01*
X02275Y02335D02*
X02285Y02345D01*
X02275Y02459D02*
X0238D01*
X02275Y0246D02*
X02275Y02459D01*
X02275Y02405D02*
Y0246D01*
X02374Y0254D02*
X0238Y02546D01*
X02285Y0254D02*
X02374D01*
X02275Y0253D02*
X02285Y0254D01*
X02275Y0253D02*
Y02585D01*
X02377Y02592D02*
X0238Y02589D01*
X02337Y02592D02*
X02377D01*
X02275Y02655D02*
X02337Y02592D01*
X02275Y02655D02*
Y0271D01*
X02365Y02632D02*
X0238D01*
X02357Y02639D02*
X02365Y02632D01*
X02357Y02639D02*
Y02672D01*
X02285Y02745D02*
X02357Y02672D01*
X02285Y02745D02*
Y0277D01*
X02275Y0278D02*
X02285Y0277D01*
X02275Y0278D02*
Y02835D01*
X0301Y0167D02*
X0302Y0166D01*
X03005Y0167D02*
X0301D01*
X0296Y01715D02*
X03005Y0167D01*
X02881Y01762D02*
X02929Y01715D01*
X0288Y01762D02*
X02881D01*
X02929Y01715D02*
X0296D01*
X02775Y01892D02*
X02777Y01895D01*
X02835*
X0289D02*
X02965D01*
X03077Y01715D02*
X0308Y01717D01*
X0302Y01715D02*
X03077D01*
X0302D02*
X03022Y01717D01*
Y01775*
X03025Y01777*
X0308*
X03077Y01835D02*
X0308Y01832D01*
X03022Y01835D02*
X03077D01*
X03022D02*
Y01892D01*
X0302Y01895D02*
X03022Y01892D01*
X0302Y01895D02*
X0303Y01905D01*
X03072*
X0308Y01912*
X02807Y01347D02*
X0281Y0135D01*
X0275Y01347D02*
X02807D01*
X02865Y0135D02*
X0287Y01345D01*
Y01272D02*
Y01345D01*
X0298Y01184D02*
X0299D01*
X0295Y01215D02*
X0298Y01184D01*
X0299D02*
X03015Y0116D01*
X02947Y01217D02*
X0295Y01215D01*
X0287Y01217D02*
X02947D01*
X03017Y01217D02*
X03075D01*
X03015Y01215D02*
X03017Y01217D01*
X03012Y01217D02*
X03015Y01215D01*
X03012Y01217D02*
Y01275D01*
X03072D02*
X03075Y01272D01*
X03012Y01275D02*
X03072D01*
X03072Y0133D02*
X03075Y01327D01*
X03012Y0133D02*
X03072D01*
X0301Y014D02*
X03012Y01397D01*
Y0133D02*
Y01397D01*
X03067Y014D02*
X03075Y01407D01*
X0301Y014D02*
X03067D01*
X02465Y01845D02*
X0253D01*
X02462Y01842D02*
X02465Y01845D01*
X02462Y01771D02*
Y01842D01*
X0241Y01845D02*
X02411Y01843D01*
Y01771D02*
Y01843D01*
X02373Y01733D02*
X02384D01*
X02385Y01734*
Y01752*
X02392Y01759*
X0241*
X02411Y0176*
Y01771*
X02437*
X02443Y01688D02*
X0245Y01682D01*
Y01695D02*
X02488Y01733D01*
Y01771*
Y01733D02*
X02526D01*
X0245Y01682D02*
X02462Y01669D01*
X0245Y01682D02*
X02526D01*
X02437D02*
X02443Y01688D01*
X02411Y01656D02*
X02437Y01682D01*
X02411Y01618D02*
Y01656D01*
X02443Y01688D02*
X0245Y01695D01*
X02462Y01618D02*
Y01669D01*
X02437Y01618D02*
Y01682D01*
X0162Y01275D02*
X01677D01*
X0168Y01277*
X01714Y01288D02*
X01722Y01295D01*
X0169Y01288D02*
X01714D01*
X01722Y01295D02*
X01733D01*
X0168Y01277D02*
X0169Y01288D01*
X01655Y01362D02*
X01662Y01354D01*
X01733*
Y01335D02*
Y01354D01*
Y01491D02*
X0179Y01435D01*
X01733Y01491D02*
Y01571D01*
Y01374D02*
Y01491D01*
X0172Y01585D02*
X01733Y01571D01*
X0179Y01411D02*
Y01435D01*
Y01411D02*
X0179Y01411D01*
X01829Y01455D02*
X01879Y01504D01*
Y01585*
X01829Y01411D02*
Y01455D01*
X0181Y01411D02*
X01829D01*
X01874Y01374D02*
X01886D01*
X01874Y01374D02*
X01874Y01374D01*
X01874Y01374D02*
Y01382D01*
X01857Y01399D02*
X01874Y01382D01*
X01849Y01399D02*
X01857D01*
X01849Y01399D02*
X01849Y01399D01*
X01849Y01399D02*
Y01411D01*
X02002Y01367D02*
X02005Y01365D01*
X01945Y01367D02*
X02002D01*
X01938Y01374D02*
X01945Y01367D01*
X01886Y01374D02*
X01938D01*
X01886Y01354D02*
Y01374D01*
X0195Y01255D02*
X02005Y0131D01*
X0194Y01265D02*
X0195Y01255D01*
X01928Y01265D02*
X0194D01*
X01897Y01295D02*
X01928Y01265D01*
X01886Y01295D02*
X01897D01*
X0179Y01225D02*
Y01258D01*
Y01192D02*
Y01225D01*
X01813*
X01829Y01241*
Y01258*
X01829Y01258*
X01787Y0119D02*
X0179Y01192D01*
X01355Y01145D02*
Y0121D01*
X0141Y01145D02*
X01415Y0115D01*
X01355Y01145D02*
X0141D01*
X01028Y01468D02*
X01044D01*
Y01476*
X01041Y01478*
X01036*
X01033Y01476*
Y01468*
X01041Y01494D02*
X01044Y01492D01*
Y01486*
X01041Y01484*
X01031*
X01028Y01486*
Y01492*
X01031Y01494*
X01044Y015D02*
X01028D01*
Y01508*
X01031Y0151*
X01033*
X01036Y01508*
Y015*
Y01508*
X01039Y0151*
X01041*
X01044Y01508*
Y015*
Y01542D02*
Y01532D01*
X01028*
Y01542*
X01036Y01532D02*
Y01537D01*
X01028Y01548D02*
X01044D01*
X01028Y01558*
X01044*
Y01564D02*
X01028D01*
Y01572*
X01031Y01574*
X01041*
X01044Y01572*
Y01564*
G54D19*
X02342Y022D02*
Y02899D01*
X02996*
X02342Y022D02*
X02996D01*
Y02765*
X03006*
Y02828*
X02996D02*
X03006D01*
X02996D02*
Y02899D01*
X02425Y03139D02*
Y0332D01*
Y03139D02*
X02606D01*
Y0332*
X02425D02*
X02606D01*
X0198Y02009D02*
Y0206D01*
X01929Y02009D02*
Y0206D01*
Y02009D02*
X0198D01*
X01929Y0206D02*
X0198D01*
X01252Y01359D02*
X01397D01*
X01252Y0123D02*
X01397D01*
Y01359*
X01252Y0123D02*
Y01359D01*
X00961Y01115D02*
X01221D01*
X00961D02*
Y01446D01*
X01221*
Y01115D02*
Y01446D01*
X01664Y01446D02*
Y01723D01*
Y01446D02*
X01935D01*
Y01723*
X01664D02*
X01935D01*
X02552Y01592D02*
Y01797D01*
X02347Y01592D02*
Y01797D01*
X02552*
X02347Y01592D02*
X02552D01*
X01346Y01893D02*
Y02006D01*
Y01893D02*
X01401D01*
Y01879D02*
Y01893D01*
Y01879D02*
X01598D01*
Y01893*
X01653*
Y02006*
X01598D02*
X01653D01*
X01598D02*
Y0202D01*
X01401D02*
X01598D01*
X01401Y02006D02*
Y0202D01*
X01346Y02006D02*
X01401D01*
X01912Y01232D02*
Y01437D01*
X01707Y01232D02*
Y01437D01*
X01912*
X01707Y01232D02*
X01912D01*
G54D22*
X01365Y0211D03*
X0131D03*
X0156D03*
X01505D03*
X02835Y01895D03*
X0289D03*
X02965D03*
X0302D03*
X02955Y014D03*
X0301D03*
X0281Y0135D03*
X02865D03*
X0222Y0246D03*
X02275D03*
X0222Y02585D03*
X02275D03*
X0222Y0228D03*
X02275D03*
X0222Y02155D03*
X02275D03*
X0222Y02835D03*
X02275D03*
X0222Y0271D03*
X02275D03*
X0222Y02405D03*
X02275D03*
X0222Y0253D03*
X02275D03*
X0222Y0203D03*
X02275D03*
Y02085D03*
X0222D03*
Y02335D03*
X02275D03*
X0222Y0221D03*
X02275D03*
X0222Y0278D03*
X02275D03*
X0222Y02655D03*
X02275D03*
X02585Y01845D03*
X0253D03*
X02465D03*
X0241D03*
G54D23*
X0308Y01717D03*
Y01662D03*
Y01832D03*
Y01777D03*
Y01967D03*
Y01912D03*
X02775Y01947D03*
Y01892D03*
X0287Y01272D03*
Y01217D03*
X03075Y01462D03*
Y01407D03*
X0275Y01402D03*
Y01347D03*
X03075Y01327D03*
Y01272D03*
Y01217D03*
Y01162D03*
X01695Y03122D03*
Y03067D03*
X01645Y03122D03*
Y03067D03*
X0288Y01817D03*
Y01762D03*
X0192Y03092D03*
Y03037D03*
X0186Y03092D03*
Y03037D03*
X02431Y03447D03*
Y03392D03*
X02541Y03447D03*
Y03392D03*
X02486Y03447D03*
Y03392D03*
X013Y01632D03*
Y01687D03*
Y01732D03*
Y01787D03*
X0169Y01922D03*
Y01977D03*
Y01807D03*
Y01862D03*
X01305Y01977D03*
Y02032D03*
X01945Y01422D03*
Y01367D03*
X0168Y01222D03*
Y01277D03*
X01655Y01417D03*
Y01362D03*
X026Y01727D03*
Y01672D03*
G54D24*
X02967Y01775D03*
X03022D03*
X02967Y01835D03*
X03022D03*
X02957Y01275D03*
X03012D03*
X02957Y0133D03*
X03012D03*
X01197Y01945D03*
X01142D03*
X02222Y01965D03*
X02277D03*
X02378Y03255D03*
X02323D03*
X02378Y03305D03*
X02323D03*
X02378Y03205D03*
X02323D03*
X02378Y03155D03*
X02323D03*
X013Y0121D03*
X01355D03*
X013Y01145D03*
X01355D03*
X01842Y0119D03*
X01787D03*
G54D25*
X01755Y03115D03*
Y0306D03*
X01585Y03115D03*
Y0306D03*
X0164Y03235D03*
Y0318D03*
X01895Y02005D03*
Y0195D03*
X02025Y02025D03*
Y0197D03*
X01415Y01205D03*
Y0115D03*
X01235Y01535D03*
Y0148D03*
X0123Y0182D03*
Y01875D03*
X01075Y01805D03*
Y0186D03*
X01155Y018D03*
Y01855D03*
X01755Y01805D03*
Y0186D03*
X013Y01895D03*
Y0184D03*
X0162Y0122D03*
Y01275D03*
X02005Y0131D03*
Y01365D03*
X0195Y01255D03*
Y012D03*
X0238Y01175D03*
Y0123D03*
X02651Y03205D03*
Y0326D03*
X02716Y0322D03*
Y03275D03*
X0296Y01715D03*
Y0166D03*
X0302Y01715D03*
Y0166D03*
X0295Y01215D03*
Y0116D03*
X03015Y01215D03*
Y0116D03*
X01705Y0318D03*
Y03235D03*
X0266Y016D03*
Y01655D03*
X026Y0162D03*
Y01565D03*
G54D26*
X0106Y0206D03*
X01209D03*
G54D27*
X0238Y02632D03*
Y02589D03*
Y02546D03*
Y02502D03*
Y02459D03*
Y02416D03*
Y02372D03*
Y02329D03*
Y02286D03*
G54D28*
X02813Y02231D03*
X02459D03*
Y02867D03*
X02813D03*
G54D29*
X02441Y03259D03*
Y03239D03*
Y0322D03*
Y032D03*
X02591D03*
Y0322D03*
Y03239D03*
Y03259D03*
G54D30*
X02486Y03155D03*
X02506D03*
X02526D03*
X02545D03*
Y03304D03*
X02526D03*
X02506D03*
X02486D03*
G54D31*
X01972Y02021D03*
Y02035D03*
Y02048D03*
X01937D03*
Y02035D03*
Y02021D03*
G54D32*
X01303Y01364D03*
Y01344D03*
Y01325D03*
Y01305D03*
X01426D03*
Y01325D03*
Y01344D03*
Y01364D03*
G54D33*
X01335Y01273D03*
X01355D03*
X01374D03*
X01394D03*
Y01396D03*
X01374D03*
X01355D03*
X01335D03*
G54D34*
X01315Y01384D03*
X01414D03*
X01315Y01285D03*
X01414D03*
G54D35*
X01879Y01585D03*
X0172D03*
G54D36*
X0224Y01769D03*
Y0162D03*
G54D37*
X02526Y01733D03*
Y01707D03*
Y01682D03*
Y01656D03*
X02373D03*
Y01682D03*
Y01707D03*
Y01733D03*
G54D38*
X02411Y01771D03*
X02437D03*
X02462D03*
X02488D03*
Y01618D03*
X02462D03*
X02437D03*
X02411D03*
G54D39*
X0247Y01485D03*
X02376D03*
G54D40*
X0148Y0165D03*
Y0181D03*
G54D41*
X01613Y01988D03*
Y01962D03*
Y01937D03*
Y01911D03*
X01386D03*
Y01937D03*
Y01962D03*
Y01988D03*
G54D43*
X01886Y01374D03*
Y01354D03*
Y01335D03*
Y01315D03*
Y01295D03*
X01733D03*
Y01315D03*
Y01335D03*
Y01354D03*
Y01374D03*
G54D44*
X0177Y01411D03*
X0179D03*
X0181D03*
X01829D03*
X01849D03*
Y01258D03*
X01829D03*
X0181D03*
X0179D03*
X0177D03*
G54D45*
X0106Y02935D03*
X0111D03*
X0116D03*
X0121D03*
X0126D03*
X0131D03*
X0136D03*
X0141D03*
X0146D03*
X0151D03*
X0156D03*
X0161D03*
X0166D03*
X0171D03*
X0176D03*
X0181D03*
X0186D03*
X0191D03*
X0196D03*
X0106Y02195D03*
X0111D03*
X0116D03*
X0121D03*
X0126D03*
X0131D03*
X0136D03*
X0141D03*
X0146D03*
X0151D03*
X0156D03*
X0161D03*
X0166D03*
X0171D03*
X0176D03*
X0181D03*
X0186D03*
X0191D03*
X0196D03*
G54D57*
X01365Y01335D03*
G54D75*
X02516Y0323D03*
G54D76*
X0245Y01695D03*
G54D77*
X0181Y01335D03*
G54D78*
X01937Y02035D02*
Y02048D01*
X02015Y02035D02*
X02025Y02025D01*
X01972Y02035D02*
X02015D01*
X01855Y01975D02*
X01911D01*
X01957Y02021*
X01972*
X01921Y02005D02*
X01937Y02021D01*
X01895Y02005D02*
X01921D01*
X01374Y01245D02*
X01415Y01205D01*
X01374Y01245D02*
Y01273D01*
X01355Y0121D02*
Y01273D01*
X01829Y01247D02*
Y01258D01*
X01355Y0121D02*
X01355Y0121D01*
G54D79*
X02644Y01615D02*
X0266Y016D01*
X02604Y01615D02*
X02644D01*
X026Y0162D02*
X02604Y01615D01*
X02375Y01486D02*
Y0168D01*
Y01486D02*
X02376Y01485D01*
X02373Y01682D02*
X02375Y0168D01*
X01365Y0211D02*
X0142D01*
X0126Y02195D02*
Y02275D01*
X0242Y01125D02*
Y01135D01*
X0238Y01175D02*
X0242Y01135D01*
X0106Y02022D02*
Y0206D01*
X01045Y0195D02*
X0106Y01965D01*
Y02022*
X01665Y022D02*
Y0228D01*
X0191Y02195D02*
Y0228D01*
X0186Y02195D02*
Y0228D01*
X0181Y02195D02*
Y0228D01*
X0176Y02195D02*
Y0228D01*
X0171Y02195D02*
Y0228D01*
X0166Y02195D02*
X01665Y022D01*
X0116Y0284D02*
Y02935D01*
X0111Y0284D02*
Y02935D01*
X0116Y02195D02*
Y0226D01*
X01215Y022D02*
Y0226D01*
X0121Y02195D02*
X01215Y022D01*
X02925Y01775D02*
X02967D01*
X02925Y01835D02*
X02967D01*
X02775Y01855D02*
Y01892D01*
X02912Y0133D02*
X02957D01*
X02915Y01275D02*
X02957D01*
X0275Y01295D02*
D01*
Y01347*
X01574Y01315D02*
X01589Y013D01*
X01555Y01335D02*
X01574Y01315D01*
X01589Y01198D02*
Y013D01*
Y01198D02*
X01598Y01189D01*
X01786*
X01787Y0119*
X01459Y01194D02*
Y01445D01*
X01425Y0148D02*
X01459Y01445D01*
X01235Y0148D02*
X01425D01*
X01555Y01335D02*
Y0141D01*
X01364Y016D02*
X01555Y0141D01*
X01114Y016D02*
X01364D01*
X01415Y0115D02*
X01459Y01194D01*
X01105Y0161D02*
X01114Y016D01*
X01095Y0161D02*
X01105D01*
X01095Y0151D02*
X0112Y01535D01*
X01235*
X01142Y01945D02*
Y01946D01*
X01136Y01952D02*
X01142Y01946D01*
X01129Y01952D02*
X01136D01*
X0106Y02022D02*
X01129Y01952D01*
X0106Y0206D02*
Y02097D01*
X01102Y02139*
Y02187*
X0111Y02195*
X01122Y01767D02*
X01155Y018D01*
X01122Y01747D02*
Y01767D01*
X01095Y0172D02*
X01122Y01747D01*
X01095Y0171D02*
Y0172D01*
X013Y01787D02*
D01*
Y0184*
X0128Y0182D02*
X013Y0184D01*
X0123Y0182D02*
X0128D01*
X0121Y018D02*
X0123Y0182D01*
X01155Y018D02*
X0121D01*
X03164Y01755D02*
X03175D01*
X03141Y01777D02*
X03164Y01755D01*
X0308Y01777D02*
X03141D01*
X0308Y01832D02*
X03082Y01835D01*
X03155*
X03175Y01855*
X03161Y01268D02*
X03165Y01265D01*
X03078Y01268D02*
X03161D01*
X03075Y01272D02*
X03078Y01268D01*
X03127Y01327D02*
X03165Y01365D01*
X03075Y01327D02*
X03127D01*
X02085Y0175D02*
X02104Y01769D01*
X02239*
X0224Y01769*
X02334D02*
X02348Y01755D01*
Y01755D02*
Y01755D01*
Y01755D02*
X0237Y01733D01*
X02373*
X0224Y01769D02*
X02334D01*
X0247Y01437D02*
Y01485D01*
X02434Y01402D02*
X0247Y01437D01*
X02318Y01402D02*
X02434D01*
X02286Y01435D02*
X02318Y01402D01*
X02195Y01435D02*
X02286D01*
X02075D02*
X02195D01*
X02005Y01365D02*
X02075Y01435D01*
G54D80*
X01235Y013D02*
X0126Y01325D01*
X0128Y013D02*
X01285D01*
X01235Y01255D02*
X0128Y013D01*
X0126Y01325D02*
X01303D01*
G54D81*
X01065Y0342D03*
X02781Y0312D03*
X0248Y01225D03*
X02526Y0305D03*
X02346Y03415D03*
X02651Y0342D03*
X01695D03*
X02346Y03055D03*
X02085Y03245D03*
X0208Y0188D03*
X01465Y031D03*
X01165Y03255D03*
G54D82*
X01165Y0342D03*
X01265D03*
X01365D03*
X01465D03*
X01565D03*
X02881Y0312D03*
X02085Y0165D03*
X0258Y01225D03*
X02626Y0305D03*
X01095Y0171D03*
Y0161D03*
X02246Y03415D03*
X02146D03*
X02751Y0342D03*
X01795D03*
X01895D03*
X02246Y03055D03*
X02146D03*
X03165Y01265D03*
X01985Y03245D03*
X01885D03*
X0198Y0188D03*
X03175Y01755D03*
X01065Y031D03*
X01165D03*
X01265D03*
X01365D03*
X01065Y03255D03*
G54D83*
X0283Y02397D03*
Y02665D03*
G54D84*
X02085Y0175D03*
X01095Y0151D03*
X03165Y01365D03*
X03175Y01855D03*
G54D85*
X01079Y01151D03*
Y01411D03*
X01985Y03055D03*
X01239Y01155D03*
X01905Y02055D03*
X0188Y0211D03*
X02465Y03125D03*
X0142Y0211D03*
X01845Y0114D03*
X0173Y01225D03*
X0127Y02855D03*
X02645Y0317D03*
X0228Y0312D03*
X01785Y03015D03*
X02135Y0202D03*
X02155Y0217D03*
X0216Y0235D03*
X02155Y0245D03*
X0215Y0257D03*
X02145Y0269D03*
X0215Y02825D03*
X02085Y02445D03*
X01577Y02442D03*
X019Y02355D03*
X0126Y02275D03*
X0107Y0239D03*
X0242Y01125D03*
X01045Y0195D03*
X0186Y0228D03*
X0181D03*
X0191D03*
X0176D03*
X01665D03*
X0171D03*
X01735Y0192D03*
X0133Y01935D03*
X01745Y0196D03*
X01655Y0189D03*
X0126Y019D03*
X01185Y0189D03*
X0111Y0284D03*
X0116D03*
X0135Y0145D03*
X01395D03*
X01215Y0226D03*
X0116D03*
X02925Y01775D03*
Y01835D03*
X02775Y01855D03*
X02912Y0133D03*
X02915Y01275D03*
X0275Y01295D03*
X01255Y0123D03*
X01235Y013D03*
Y01255D03*
X02516Y03188D03*
Y03271D03*
X02475Y0323D03*
X02557D03*
X02516D03*
G54D86*
X01079Y01151D03*
Y01411D03*
G54D87*
X02195Y01435D03*
Y01135D03*
M02*