%FSTAX23Y23*%
%MOIN*%
%SFA1B1*%

%IPPOS*%
%ADD10C,0.009449*%
%ADD13C,0.007874*%
%ADD14C,0.005000*%
%ADD16C,0.004000*%
%ADD17C,0.003937*%
%ADD18C,0.010000*%
%ADD19C,0.001969*%
%LNsolears_v1-1*%
%LPD*%
G36*
X01384Y01353D02*
Y01353D01*
Y01352*
Y01352*
Y01352*
X01384Y01352*
Y01351*
X01384Y01351*
X01384Y0135*
X01384Y01349*
X01384Y01348*
X01384Y01347*
X01384Y01347*
X01383Y01346*
Y01346*
X01383Y01346*
X01383Y01346*
X01383Y01346*
X01383Y01346*
X01383Y01345*
X01382Y01345*
X01382Y01344*
X01381Y01343*
X0138Y01343*
X0138*
X0138Y01343*
X0138Y01343*
X0138Y01343*
X0138Y01343*
X01379Y01342*
X01379Y01342*
X01379Y01342*
X01378Y01342*
X01378Y01342*
X01377Y01342*
X01377Y01342*
X01376Y01342*
X01376Y01342*
X01374Y01341*
X01374*
X01374Y01342*
X01374*
X01373Y01342*
X01373Y01342*
X01372Y01342*
X01371Y01342*
X01371Y01342*
X0137Y01342*
X01369Y01343*
X01369*
X01369Y01343*
X01368Y01343*
X01368Y01343*
X01368Y01343*
X01367Y01344*
X01367Y01344*
X01366Y01345*
X01366Y01345*
X01365Y01346*
Y01346*
X01365Y01346*
X01365Y01346*
X01365Y01347*
X01365Y01347*
X01365Y01347*
X01365Y01347*
X01365Y01348*
X01365Y01348*
X01365Y01349*
X01365Y01349*
X01365Y0135*
X01365Y0135*
X01365Y01351*
X01365Y01352*
Y01353*
Y01367*
X01368*
Y01353*
Y01353*
Y01352*
Y01352*
Y01352*
X01368Y01352*
Y01351*
X01368Y01351*
X01368Y0135*
X01368Y01349*
X01368Y01348*
X01368Y01348*
X01368Y01348*
X01368Y01348*
X01369Y01347*
X01369Y01347*
X01369Y01347*
X01369Y01346*
X0137Y01346*
X0137Y01346*
X01371Y01345*
X01371Y01345*
X01371Y01345*
X01371Y01345*
X01372Y01345*
X01372Y01345*
X01373Y01345*
X01373Y01345*
X01374Y01344*
X01375*
X01375Y01345*
X01375*
X01375Y01345*
X01376Y01345*
X01377Y01345*
X01378Y01345*
X01379Y01346*
X01379Y01346*
X01379Y01346*
X01379Y01346*
X01379Y01346*
X0138Y01346*
X0138Y01346*
X0138Y01347*
X0138Y01347*
X0138Y01347*
X0138Y01348*
X0138Y01348*
X0138Y01348*
X01381Y01349*
X01381Y0135*
X01381Y0135*
X01381Y01351*
X01381Y01352*
Y01353*
Y01367*
X01384*
Y01353*
G37*
G36*
X01398Y01367D02*
X01398Y01367D01*
X01398Y01367*
X01399Y01367*
X01399Y01367*
X014Y01367*
X01401Y01366*
X01401Y01366*
X01402Y01366*
X01402Y01366*
X01403Y01365*
X01403Y01365*
X01403Y01365*
X01403Y01365*
X01403Y01365*
X01403Y01365*
X01403Y01364*
X01404Y01364*
X01404Y01364*
X01404Y01363*
X01405Y01362*
X01405Y01362*
X01405Y01361*
X01405Y01361*
X01405Y0136*
Y0136*
Y0136*
X01405Y0136*
X01405Y01359*
X01405Y01359*
X01405Y01358*
X01404Y01358*
X01404Y01357*
X01404Y01357*
X01404Y01357*
X01404Y01357*
X01404Y01356*
X01403Y01356*
X01403Y01355*
X01403Y01355*
X01402Y01354*
X01402Y01354*
X01402Y01354*
X01402Y01354*
X01401Y01353*
X01401Y01353*
X01401Y01353*
X01401Y01353*
X014Y01352*
X014Y01352*
X014Y01352*
X01399Y01351*
X01399Y01351*
X01398Y0135*
X01397Y0135*
X01397Y0135*
X01397Y0135*
X01397Y0135*
X01397Y01349*
X01397Y01349*
X01396Y01349*
X01396Y01348*
X01395Y01348*
X01395Y01347*
X01394Y01347*
X01394Y01347*
X01394Y01347*
X01394Y01346*
X01394Y01346*
X01393Y01346*
X01393Y01346*
X01393Y01346*
X01393Y01346*
X01392Y01345*
X01405*
Y01342*
X01388*
Y01342*
Y01342*
Y01342*
X01388Y01343*
X01388Y01343*
X01388Y01343*
X01388Y01344*
X01389Y01344*
Y01344*
X01389Y01344*
X01389Y01344*
X01389Y01345*
X01389Y01345*
X01389Y01346*
X0139Y01346*
X0139Y01347*
X01391Y01347*
Y01347*
X01391Y01347*
X01391Y01348*
X01391Y01348*
X01392Y01349*
X01392Y01349*
X01393Y0135*
X01394Y0135*
X01395Y01351*
X01395Y01351*
X01395Y01351*
X01395Y01352*
X01395Y01352*
X01396Y01352*
X01396Y01352*
X01396Y01353*
X01397Y01353*
X01398Y01354*
X01399Y01355*
X01399Y01355*
X014Y01356*
X014Y01356*
X014Y01357*
Y01357*
X014Y01357*
X014Y01357*
X014Y01357*
X01401Y01357*
X01401Y01358*
X01401Y01358*
X01401Y01359*
X01402Y0136*
X01402Y0136*
Y0136*
Y0136*
X01402Y01361*
X01402Y01361*
X01401Y01361*
X01401Y01362*
X01401Y01362*
X01401Y01363*
X014Y01363*
X014Y01363*
X014Y01364*
X014Y01364*
X01399Y01364*
X01399Y01364*
X01398Y01364*
X01398Y01365*
X01397Y01365*
X01397*
X01396Y01365*
X01396Y01365*
X01396Y01364*
X01395Y01364*
X01394Y01364*
X01394Y01364*
X01393Y01363*
X01393Y01363*
X01393Y01363*
X01393Y01363*
X01393Y01362*
X01392Y01362*
X01392Y01361*
X01392Y0136*
X01392Y0136*
X01389Y0136*
Y0136*
X01389Y0136*
Y0136*
X01389Y01361*
X01389Y01361*
X01389Y01361*
X01389Y01362*
X01389Y01362*
X01389Y01363*
X0139Y01364*
X0139Y01364*
X0139Y01365*
X01391Y01365*
X01391Y01365*
X01391Y01365*
X01391Y01365*
X01391Y01366*
X01392Y01366*
X01392Y01366*
X01392Y01366*
X01392Y01366*
X01393Y01366*
X01393Y01366*
X01394Y01367*
X01394Y01367*
X01395Y01367*
X01395Y01367*
X01396Y01367*
X01396Y01367*
X01397Y01367*
X01397*
X01398Y01367*
G37*
G36*
X02423Y01459D02*
X02419D01*
Y01482*
X02407*
Y01485*
X02423*
Y01459*
G37*
G36*
X02405Y01484D02*
Y01484D01*
Y01484*
X02405Y01484*
X02405Y01483*
X02405Y01483*
X02405Y01483*
X02404Y01482*
Y01482*
X02404Y01482*
X02404Y01482*
X02404Y01482*
X02404Y01481*
X02404Y01481*
X02403Y0148*
X02403Y0148*
X02402Y01479*
Y01479*
X02402Y01479*
X02402Y01479*
X02402Y01478*
X02401Y01478*
X02401Y01477*
X024Y01477*
X02399Y01476*
X02398Y01475*
X02398Y01475*
X02398Y01475*
X02398Y01475*
X02398Y01475*
X02397Y01474*
X02397Y01474*
X02397Y01474*
X02396Y01473*
X02395Y01472*
X02394Y01472*
X02394Y01471*
X02393Y01471*
X02393Y0147*
X02393Y0147*
Y0147*
X02393Y0147*
X02393Y0147*
X02393Y0147*
X02392Y01469*
X02392Y01469*
X02392Y01468*
X02392Y01467*
X02391Y01467*
X02391Y01466*
Y01466*
Y01466*
X02391Y01466*
X02391Y01465*
X02392Y01465*
X02392Y01465*
X02392Y01464*
X02392Y01464*
X02393Y01463*
X02393Y01463*
X02393Y01463*
X02393Y01463*
X02394Y01462*
X02394Y01462*
X02395Y01462*
X02395Y01462*
X02396Y01462*
X02396*
X02396Y01462*
X02397Y01462*
X02397Y01462*
X02398Y01462*
X02399Y01462*
X02399Y01463*
X024Y01463*
X024Y01463*
X024Y01463*
X024Y01464*
X024Y01464*
X02401Y01465*
X02401Y01465*
X02401Y01466*
X02401Y01467*
X02404Y01466*
Y01466*
X02404Y01466*
Y01466*
X02404Y01466*
X02404Y01466*
X02404Y01465*
X02404Y01465*
X02404Y01464*
X02404Y01464*
X02403Y01463*
X02403Y01462*
X02403Y01462*
X02402Y01461*
X02402Y01461*
X02402Y01461*
X02402Y01461*
X02402Y01461*
X02401Y01461*
X02401Y01461*
X02401Y01461*
X02401Y0146*
X024Y0146*
X024Y0146*
X02399Y0146*
X02399Y0146*
X02398Y01459*
X02398Y01459*
X02397Y01459*
X02397Y01459*
X02396Y01459*
X02396*
X02395Y01459*
X02395Y01459*
X02395Y01459*
X02394Y01459*
X02394Y01459*
X02393Y0146*
X02392Y0146*
X02392Y0146*
X02391Y01461*
X02391Y01461*
X0239Y01461*
X0239Y01461*
X0239Y01461*
X0239Y01461*
X0239Y01462*
X0239Y01462*
X0239Y01462*
X02389Y01462*
X02389Y01463*
X02389Y01463*
X02388Y01464*
X02388Y01465*
X02388Y01465*
X02388Y01466*
X02388Y01466*
Y01466*
Y01466*
X02388Y01467*
X02388Y01467*
X02388Y01468*
X02388Y01468*
X02389Y01469*
X02389Y01469*
X02389Y01469*
X02389Y01469*
X02389Y0147*
X02389Y0147*
X0239Y01471*
X0239Y01471*
X0239Y01472*
X02391Y01472*
X02391Y01472*
X02391Y01473*
X02391Y01473*
X02392Y01473*
X02392Y01473*
X02392Y01473*
X02392Y01474*
X02393Y01474*
X02393Y01474*
X02393Y01475*
X02394Y01475*
X02394Y01476*
X02395Y01476*
X02396Y01477*
X02396Y01477*
X02396Y01477*
X02396Y01477*
X02396Y01477*
X02396Y01477*
X02397Y01477*
X02397Y01478*
X02398Y01478*
X02398Y01479*
X02399Y0148*
X02399Y0148*
X02399Y0148*
X02399Y0148*
X02399Y0148*
X024Y0148*
X024Y0148*
X024Y01481*
X024Y01481*
X02401Y01482*
X02388*
Y01485*
X02405*
Y01484*
G37*
G36*
X01473Y01765D02*
X01473Y01765D01*
X01473Y01765*
X01474Y01765*
X01474Y01765*
X01475Y01764*
X01475Y01764*
X01476Y01764*
X01476Y01764*
X01477Y01763*
X01477Y01763*
X01478Y01763*
X01478Y01762*
X01478Y01762*
X01478Y01762*
X01478Y01762*
X01478Y01762*
X01478Y01762*
X01479Y01761*
X01479Y01761*
X01479Y0176*
X01479Y0176*
X01479Y01759*
X0148Y01759*
X0148Y01758*
X0148Y01758*
X0148Y01757*
X0148Y01756*
Y01756*
X0148Y01756*
X0148Y01756*
X0148Y01755*
X0148Y01755*
X0148Y01755*
X01479Y01754*
X01479Y01753*
X01479Y01752*
X01479Y01752*
X01478Y01751*
X01478Y01751*
X01478Y01751*
X01478Y01751*
X01478Y01751*
X01478Y01751*
X01477Y0175*
X01477Y0175*
X01477Y0175*
X01477Y0175*
X01476Y0175*
X01476Y01749*
X01475Y01749*
X01474Y01749*
X01473Y01749*
X01473Y01748*
X01472Y01752*
X01472*
X01473Y01752*
X01473Y01752*
X01473Y01752*
X01473Y01752*
X01473Y01752*
X01474Y01752*
X01475Y01752*
X01475Y01753*
X01476Y01753*
X01476Y01753*
X01476Y01753*
X01476Y01754*
X01477Y01754*
X01477Y01754*
X01477Y01755*
X01477Y01755*
X01477Y01756*
X01477Y01756*
Y01757*
X01477Y01757*
X01477Y01757*
X01477Y01758*
X01477Y01758*
X01477Y01759*
X01476Y0176*
X01476Y0176*
X01476Y0176*
X01476Y0176*
X01475Y01761*
X01475Y01761*
X01474Y01761*
X01474Y01761*
X01473Y01762*
X01472Y01762*
X01472*
X01472*
X01472*
X01472Y01762*
X01471Y01762*
X01471Y01761*
X0147Y01761*
X0147Y01761*
X01469Y01761*
X01469Y0176*
X01469Y0176*
X01468Y0176*
X01468Y0176*
X01468Y01759*
X01468Y01759*
X01467Y01758*
X01467Y01757*
X01467Y01757*
Y01756*
X01467Y01756*
X01467Y01756*
X01467Y01755*
X01467Y01755*
X01468Y01755*
X01465Y01755*
Y01755*
X01465Y01755*
Y01756*
X01465Y01756*
X01465Y01757*
X01465Y01757*
X01464Y01758*
X01464Y01758*
X01464Y01759*
Y01759*
X01464Y01759*
X01464Y01759*
X01463Y01759*
X01463Y0176*
X01463Y0176*
X01462Y0176*
X01461Y0176*
X01461Y01761*
X01461*
X01461*
X01461*
X0146*
X0146Y0176*
X0146Y0176*
X01459Y0176*
X01459Y0176*
X01458Y0176*
X01458Y01759*
X01458Y01759*
X01458Y01759*
X01458Y01759*
X01457Y01759*
X01457Y01758*
X01457Y01758*
X01457Y01757*
X01457Y01756*
Y01756*
X01457Y01756*
X01457Y01755*
X01457Y01755*
X01457Y01754*
X01458Y01754*
X01458Y01753*
X01458Y01753*
X01458Y01753*
X01458Y01753*
X01459Y01753*
X01459Y01753*
X0146Y01752*
X0146Y01752*
X01461Y01752*
X01461Y01749*
X01461*
X01461Y01749*
X0146Y01749*
X0146Y01749*
X0146Y01749*
X0146Y01749*
X01459Y01749*
X01458Y0175*
X01457Y0175*
X01457Y01751*
X01456Y01751*
X01456Y01751*
X01456Y01751*
X01456Y01752*
X01456Y01752*
X01456Y01752*
X01455Y01752*
X01455Y01752*
X01455Y01753*
X01455Y01753*
X01454Y01754*
X01454Y01755*
X01454Y01756*
Y01757*
X01454Y01757*
X01454Y01758*
X01454Y01758*
X01455Y01759*
X01455Y01759*
X01455Y0176*
Y0176*
X01455Y0176*
X01455Y0176*
X01455Y01761*
X01456Y01761*
X01456Y01762*
X01456Y01762*
X01457Y01762*
X01458Y01763*
X01458Y01763*
X01458Y01763*
X01458Y01763*
X01458Y01763*
X01459Y01763*
X0146Y01764*
X0146Y01764*
X01461Y01764*
X01461*
X01461*
X01461Y01764*
X01462Y01764*
X01462Y01763*
X01463Y01763*
X01463Y01763*
X01464Y01763*
X01464Y01763*
X01464Y01763*
X01464Y01762*
X01465Y01762*
X01465Y01762*
X01465Y01761*
X01466Y01761*
X01466Y0176*
Y0176*
X01466Y0176*
X01466Y0176*
X01466Y01761*
X01466Y01761*
X01466Y01761*
X01467Y01762*
X01467Y01763*
X01467Y01763*
X01468Y01764*
X01468Y01764*
X01468Y01764*
X01469Y01764*
X01469Y01764*
X0147Y01765*
X0147Y01765*
X01471Y01765*
X01472Y01765*
X01472*
X01472*
X01472*
X01473Y01765*
G37*
G36*
X0148Y0173D02*
X01454D01*
Y01733*
X01477*
Y01746*
X0148*
Y0173*
G37*
G54D10*
X02342Y02657D02*
D01*
X02342Y02657*
X02342Y02657*
X02342Y02658*
X02342Y02658*
X02342Y02658*
X02342Y02659*
X02342Y02659*
X02341Y02659*
X02341Y02659*
X02341Y0266*
X02341Y0266*
X02341Y0266*
X0234Y0266*
X0234Y02661*
X0234Y02661*
X02339Y02661*
X02339Y02661*
X02339Y02661*
X02339Y02661*
X02338Y02661*
X02338Y02661*
X02338Y02661*
X02337*
X02337Y02661*
X02337Y02661*
X02336Y02661*
X02336Y02661*
X02336Y02661*
X02335Y02661*
X02335Y02661*
X02335Y02661*
X02334Y0266*
X02334Y0266*
X02334Y0266*
X02334Y0266*
X02334Y02659*
X02333Y02659*
X02333Y02659*
X02333Y02659*
X02333Y02658*
X02333Y02658*
X02333Y02658*
X02333Y02657*
X02333Y02657*
X02333Y02657*
X02333Y02656*
X02333Y02656*
X02333Y02656*
X02333Y02655*
X02333Y02655*
X02333Y02655*
X02333Y02654*
X02333Y02654*
X02334Y02654*
X02334Y02654*
X02334Y02653*
X02334Y02653*
X02334Y02653*
X02335Y02653*
X02335Y02653*
X02335Y02652*
X02336Y02652*
X02336Y02652*
X02336Y02652*
X02337Y02652*
X02337Y02652*
X02337Y02652*
X02338*
X02338Y02652*
X02338Y02652*
X02339Y02652*
X02339Y02652*
X02339Y02652*
X02339Y02652*
X0234Y02653*
X0234Y02653*
X0234Y02653*
X02341Y02653*
X02341Y02653*
X02341Y02654*
X02341Y02654*
X02341Y02654*
X02342Y02654*
X02342Y02655*
X02342Y02655*
X02342Y02655*
X02342Y02656*
X02342Y02656*
X02342Y02656*
X02342Y02657*
G54D13*
X01302Y01397D02*
X01427D01*
Y01272D02*
Y01397D01*
X01302Y01272D02*
X01427D01*
X01302D02*
Y01397D01*
X02338Y014D02*
X02507D01*
X02338D02*
Y01569D01*
X02507*
Y014D02*
Y01569D01*
X01346Y01601D02*
Y01859D01*
X01613*
Y01601D02*
Y01859D01*
X01346Y01601D02*
X01613D01*
X01282Y01417D02*
X01447D01*
Y01252D02*
Y01417D01*
X01282Y01252D02*
X01447D01*
X01282D02*
Y01417D01*
X02334Y01396D02*
X02511D01*
X02334D02*
Y01573D01*
X02511*
Y01396D02*
Y01573D01*
X01342Y01597D02*
Y01863D01*
X01617*
Y01597D02*
Y01863D01*
X01342Y01597D02*
X01617D01*
X01282Y01417D02*
X01447D01*
Y01252D02*
Y01417D01*
X01282Y01252D02*
X01447D01*
X01282D02*
Y01417D01*
X02334Y01396D02*
X02511D01*
X02334D02*
Y01573D01*
X02511*
Y01396D02*
Y01573D01*
X01342Y01597D02*
Y01863D01*
X01617*
Y01597D02*
Y01863D01*
X01342Y01597D02*
X01617D01*
X01652Y01585D02*
D01*
X01652Y01585*
X01652Y01585*
X01652Y01585*
X01652Y01586*
X01652Y01586*
X01652Y01586*
X01651Y01586*
X01651Y01587*
X01651Y01587*
X01651Y01587*
X01651Y01587*
X01651Y01587*
X0165Y01588*
X0165Y01588*
X0165Y01588*
X0165Y01588*
X01649Y01588*
X01649Y01588*
X01649Y01588*
X01649Y01588*
X01648Y01588*
X01648Y01588*
X01648*
X01648Y01588*
X01647Y01588*
X01647Y01588*
X01647Y01588*
X01646Y01588*
X01646Y01588*
X01646Y01588*
X01646Y01588*
X01646Y01588*
X01645Y01587*
X01645Y01587*
X01645Y01587*
X01645Y01587*
X01645Y01587*
X01644Y01586*
X01644Y01586*
X01644Y01586*
X01644Y01586*
X01644Y01585*
X01644Y01585*
X01644Y01585*
X01644Y01585*
X01644Y01584*
X01644Y01584*
X01644Y01584*
X01644Y01583*
X01644Y01583*
X01644Y01583*
X01644Y01583*
X01645Y01582*
X01645Y01582*
X01645Y01582*
X01645Y01582*
X01645Y01582*
X01646Y01581*
X01646Y01581*
X01646Y01581*
X01646Y01581*
X01646Y01581*
X01647Y01581*
X01647Y01581*
X01647Y01581*
X01648Y01581*
X01648Y01581*
X01648*
X01648Y01581*
X01649Y01581*
X01649Y01581*
X01649Y01581*
X01649Y01581*
X0165Y01581*
X0165Y01581*
X0165Y01581*
X0165Y01581*
X01651Y01582*
X01651Y01582*
X01651Y01582*
X01651Y01582*
X01651Y01582*
X01651Y01583*
X01652Y01583*
X01652Y01583*
X01652Y01583*
X01652Y01584*
X01652Y01584*
X01652Y01584*
X01652Y01585*
X02336Y01733D02*
D01*
X02336Y01733*
X02336Y01733*
X02336Y01734*
X02336Y01734*
X02336Y01734*
X02336Y01734*
X02336Y01735*
X02336Y01735*
X02336Y01735*
X02335Y01735*
X02335Y01736*
X02335Y01736*
X02335Y01736*
X02335Y01736*
X02334Y01736*
X02334Y01736*
X02334Y01737*
X02334Y01737*
X02333Y01737*
X02333Y01737*
X02333Y01737*
X02333Y01737*
X02332*
X02332Y01737*
X02332Y01737*
X02331Y01737*
X02331Y01737*
X02331Y01737*
X02331Y01736*
X0233Y01736*
X0233Y01736*
X0233Y01736*
X0233Y01736*
X0233Y01736*
X02329Y01735*
X02329Y01735*
X02329Y01735*
X02329Y01735*
X02329Y01734*
X02329Y01734*
X02329Y01734*
X02329Y01734*
X02328Y01733*
X02328Y01733*
X02328Y01733*
X02328Y01733*
X02328Y01732*
X02329Y01732*
X02329Y01732*
X02329Y01732*
X02329Y01731*
X02329Y01731*
X02329Y01731*
X02329Y01731*
X02329Y0173*
X0233Y0173*
X0233Y0173*
X0233Y0173*
X0233Y0173*
X0233Y01729*
X02331Y01729*
X02331Y01729*
X02331Y01729*
X02331Y01729*
X02332Y01729*
X02332Y01729*
X02332Y01729*
X02333*
X02333Y01729*
X02333Y01729*
X02333Y01729*
X02334Y01729*
X02334Y01729*
X02334Y01729*
X02334Y01729*
X02335Y0173*
X02335Y0173*
X02335Y0173*
X02335Y0173*
X02335Y0173*
X02336Y01731*
X02336Y01731*
X02336Y01731*
X02336Y01731*
X02336Y01732*
X02336Y01732*
X02336Y01732*
X02336Y01732*
X02336Y01733*
X02336Y01733*
X01696Y01374D02*
D01*
X01696Y01374*
X01695Y01374*
X01695Y01375*
X01695Y01375*
X01695Y01375*
X01695Y01375*
X01695Y01376*
X01695Y01376*
X01695Y01376*
X01695Y01376*
X01694Y01377*
X01694Y01377*
X01694Y01377*
X01694Y01377*
X01694Y01377*
X01693Y01377*
X01693Y01378*
X01693Y01378*
X01693Y01378*
X01692Y01378*
X01692Y01378*
X01692Y01378*
X01691*
X01691Y01378*
X01691Y01378*
X01691Y01378*
X0169Y01378*
X0169Y01378*
X0169Y01377*
X0169Y01377*
X01689Y01377*
X01689Y01377*
X01689Y01377*
X01689Y01377*
X01689Y01376*
X01688Y01376*
X01688Y01376*
X01688Y01376*
X01688Y01375*
X01688Y01375*
X01688Y01375*
X01688Y01375*
X01688Y01374*
X01688Y01374*
X01688Y01374*
X01688Y01374*
X01688Y01373*
X01688Y01373*
X01688Y01373*
X01688Y01373*
X01688Y01372*
X01688Y01372*
X01688Y01372*
X01688Y01372*
X01689Y01371*
X01689Y01371*
X01689Y01371*
X01689Y01371*
X01689Y01371*
X0169Y0137*
X0169Y0137*
X0169Y0137*
X0169Y0137*
X01691Y0137*
X01691Y0137*
X01691Y0137*
X01691Y0137*
X01692*
X01692Y0137*
X01692Y0137*
X01693Y0137*
X01693Y0137*
X01693Y0137*
X01693Y0137*
X01694Y0137*
X01694Y01371*
X01694Y01371*
X01694Y01371*
X01694Y01371*
X01695Y01371*
X01695Y01372*
X01695Y01372*
X01695Y01372*
X01695Y01372*
X01695Y01373*
X01695Y01373*
X01695Y01373*
X01695Y01373*
X01696Y01374*
X01696Y01374*
G54D14*
X00997Y01131D02*
D01*
X00996Y01131*
X00995Y01132*
X00994Y01132*
X00993Y01132*
X00993Y01132*
X00992Y01132*
X00991Y01132*
X0099Y01132*
X00989Y01132*
X00989Y01132*
X00988Y01132*
X00987Y01132*
X00986Y01131*
X00986Y01131*
X00985Y0113*
X00984Y0113*
X00984Y01129*
X00983Y01129*
X00982Y01128*
X00982Y01128*
X00981Y01127*
X00981Y01126*
X00981Y01126*
X00993Y01147D02*
D01*
X00991Y01147*
X0099Y01147*
X00989Y01147*
X00988Y01147*
X00986Y01147*
X00985Y01147*
X00984Y01147*
X00983Y01146*
X00982Y01146*
X0098Y01145*
X00979Y01145*
X00978Y01144*
X00977Y01143*
X00976Y01142*
X00975Y01141*
X00975Y01141*
X00974Y0114*
X00973Y01138*
X00972Y01137*
X00972Y01136*
X00971Y01135*
X00971Y01134*
X00971Y01133*
X00981Y01435D02*
D01*
X00981Y01435*
X00982Y01434*
X00982Y01433*
X00983Y01433*
X00983Y01432*
X00984Y01432*
X00984Y01431*
X00985Y01431*
X00986Y0143*
X00987Y0143*
X00987Y0143*
X00988Y01429*
X00989Y01429*
X0099Y01429*
X00991Y01429*
X00991Y01429*
X00992Y01429*
X00993Y01429*
X00994Y01429*
X00995Y0143*
X00995Y0143*
X00996Y0143*
X00997Y0143*
X00969Y01428D02*
D01*
X00969Y01427*
X0097Y01426*
X0097Y01424*
X00971Y01423*
X00972Y01422*
X00973Y01421*
X00974Y0142*
X00974Y01419*
X00975Y01418*
X00977Y01417*
X00978Y01417*
X00979Y01416*
X0098Y01415*
X00981Y01415*
X00983Y01415*
X00984Y01414*
X00985Y01414*
X00987Y01414*
X00988Y01414*
X00989Y01414*
X00991Y01414*
X00992Y01414*
X00993Y01415*
X01193Y01131D02*
Y0143D01*
X01022D02*
X01193D01*
X00995D02*
X01022D01*
X00995Y01131D02*
Y0143D01*
Y01131D02*
X00997D01*
X01193*
X00971Y01133D02*
X00981Y01126D01*
X00971Y01155D02*
X00993D01*
X00971D02*
Y01407D01*
X00993*
X00969Y01428D02*
X00981Y01435D01*
X01022Y0143D02*
Y01523D01*
X01674Y01714D02*
X01925D01*
Y01455D02*
Y01714D01*
X01674Y01455D02*
X01925D01*
X01674D02*
Y01714D01*
X02371Y01616D02*
Y01773D01*
X02528Y01616D02*
Y01773D01*
X02371D02*
X02528D01*
X02371Y01616D02*
X02528D01*
X01411Y02011D02*
X01588D01*
Y01888D02*
Y02011D01*
X01411Y01888D02*
X01588D01*
X01411D02*
Y02011D01*
X01729Y01254D02*
Y01415D01*
X0189Y01254D02*
Y01415D01*
X01729D02*
X0189D01*
X01729Y01254D02*
X0189D01*
G54D16*
X02461Y0324D02*
Y03215D01*
X02466Y0321*
X02476*
X02481Y03215*
Y0324*
X02511D02*
X02501Y03235D01*
X02491Y03225*
Y03215*
X02496Y0321*
X02506*
X02511Y03215*
Y0322*
X02506Y03225*
X02491*
G54D17*
X03058Y01737D02*
X03101D01*
X03058Y01642D02*
X03101D01*
Y01737*
X03058Y01642D02*
Y01737D01*
X0308Y01671D02*
Y01708D01*
X03061Y0169D02*
X03098D01*
X03058Y01852D02*
X03101D01*
X03058Y01757D02*
X03101D01*
Y01852*
X03058Y01757D02*
Y01852D01*
X0308Y01786D02*
Y01823D01*
X03061Y01805D02*
X03098D01*
X03058Y01987D02*
X03101D01*
X03058Y01892D02*
X03101D01*
Y01987*
X03058Y01892D02*
Y01987D01*
X0308Y01921D02*
Y01958D01*
X03061Y0194D02*
X03098D01*
X02753Y01967D02*
X02796D01*
X02753Y01872D02*
X02796D01*
Y01967*
X02753Y01872D02*
Y01967D01*
X02775Y01901D02*
Y01938D01*
X02756Y0192D02*
X02793D01*
X02947Y01753D02*
Y01796D01*
X03042Y01753D02*
Y01796D01*
X02947D02*
X03042D01*
X02947Y01753D02*
X03042D01*
X02976Y01775D02*
X03013D01*
X02995Y01756D02*
Y01793D01*
X02947Y01813D02*
Y01856D01*
X03042Y01813D02*
Y01856D01*
X02947D02*
X03042D01*
X02947Y01813D02*
X03042D01*
X02976Y01835D02*
X03013D01*
X02995Y01816D02*
Y01853D01*
X02848Y01292D02*
X02891D01*
X02848Y01197D02*
X02891D01*
Y01292*
X02848Y01197D02*
Y01292D01*
X0287Y01226D02*
Y01263D01*
X02851Y01245D02*
X02888D01*
X03053Y01482D02*
X03096D01*
X03053Y01387D02*
X03096D01*
Y01482*
X03053Y01387D02*
Y01482D01*
X03075Y01416D02*
Y01453D01*
X03056Y01435D02*
X03093D01*
X02728Y01422D02*
X02771D01*
X02728Y01327D02*
X02771D01*
Y01422*
X02728Y01327D02*
Y01422D01*
X0275Y01356D02*
Y01393D01*
X02731Y01375D02*
X02768D01*
X02937Y01253D02*
Y01296D01*
X03032Y01253D02*
Y01296D01*
X02937D02*
X03032D01*
X02937Y01253D02*
X03032D01*
X02966Y01275D02*
X03003D01*
X02985Y01256D02*
Y01293D01*
X02937Y01308D02*
Y01351D01*
X03032Y01308D02*
Y01351D01*
X02937D02*
X03032D01*
X02937Y01308D02*
X03032D01*
X02966Y0133D02*
X03003D01*
X02985Y01311D02*
Y01348D01*
X03053Y01347D02*
X03096D01*
X03053Y01252D02*
X03096D01*
Y01347*
X03053Y01252D02*
Y01347D01*
X03075Y01281D02*
Y01318D01*
X03056Y013D02*
X03093D01*
X03053Y01237D02*
X03096D01*
X03053Y01142D02*
X03096D01*
Y01237*
X03053Y01142D02*
Y01237D01*
X03075Y01171D02*
Y01208D01*
X03056Y0119D02*
X03093D01*
X01217Y01923D02*
Y01966D01*
X01122Y01923D02*
Y01966D01*
Y01923D02*
X01217D01*
X01122Y01966D02*
X01217D01*
X01151Y01945D02*
X01188D01*
X0117Y01926D02*
Y01963D01*
X01673Y03142D02*
X01716D01*
X01673Y03047D02*
X01716D01*
Y03142*
X01673Y03047D02*
Y03142D01*
X01695Y03076D02*
Y03113D01*
X01676Y03095D02*
X01713D01*
X01623Y03142D02*
X01666D01*
X01623Y03047D02*
X01666D01*
Y03142*
X01623Y03047D02*
Y03142D01*
X01645Y03076D02*
Y03113D01*
X01626Y03095D02*
X01663D01*
X01135Y0204D02*
Y02079D01*
X01115Y0206D02*
X01154D01*
X01028Y02128D02*
X01241D01*
X01028Y01991D02*
X01241D01*
X01028D02*
Y02128D01*
X01241Y01991D02*
Y02128D01*
X02202Y01943D02*
Y01986D01*
X02297Y01943D02*
Y01986D01*
X02202D02*
X02297D01*
X02202Y01943D02*
X02297D01*
X02231Y01965D02*
X02268D01*
X0225Y01946D02*
Y01983D01*
X02858Y01837D02*
X02901D01*
X02858Y01742D02*
X02901D01*
Y01837*
X02858Y01742D02*
Y01837D01*
X0288Y01771D02*
Y01808D01*
X02861Y0179D02*
X02898D01*
X01898Y03112D02*
X01941D01*
X01898Y03017D02*
X01941D01*
Y03112*
X01898Y03017D02*
Y03112D01*
X0192Y03046D02*
Y03083D01*
X01901Y03065D02*
X01938D01*
X01838Y03112D02*
X01881D01*
X01838Y03017D02*
X01881D01*
Y03112*
X01838Y03017D02*
Y03112D01*
X0186Y03046D02*
Y03083D01*
X01841Y03065D02*
X01878D01*
X02496Y0323D02*
X02536D01*
X02516Y0321D02*
Y03249D01*
X02398Y03233D02*
Y03276D01*
X02304Y03233D02*
Y03276D01*
Y03233D02*
X02398D01*
X02304Y03276D02*
X02398D01*
X02332Y03255D02*
X0237D01*
X02351Y03236D02*
Y03273D01*
X02398Y03283D02*
Y03326D01*
X02304Y03283D02*
Y03326D01*
Y03283D02*
X02398D01*
X02304Y03326D02*
X02398D01*
X02332Y03305D02*
X0237D01*
X02351Y03286D02*
Y03323D01*
X02398Y03183D02*
Y03226D01*
X02304Y03183D02*
Y03226D01*
Y03183D02*
X02398D01*
X02304Y03226D02*
X02398D01*
X02332Y03205D02*
X0237D01*
X02351Y03186D02*
Y03223D01*
X02398Y03133D02*
Y03176D01*
X02304Y03133D02*
Y03176D01*
Y03133D02*
X02398D01*
X02304Y03176D02*
X02398D01*
X02332Y03155D02*
X0237D01*
X02351Y03136D02*
Y03173D01*
X02409Y03467D02*
X02452D01*
X02409Y03372D02*
X02452D01*
Y03467*
X02409Y03372D02*
Y03467D01*
X02431Y03401D02*
Y03438D01*
X02412Y0342D02*
X0245D01*
X02519Y03467D02*
X02562D01*
X02519Y03372D02*
X02562D01*
Y03467*
X02519Y03372D02*
Y03467D01*
X02541Y03401D02*
Y03438D01*
X02522Y0342D02*
X0256D01*
X02464Y03467D02*
X02507D01*
X02464Y03372D02*
X02507D01*
Y03467*
X02464Y03372D02*
Y03467D01*
X02486Y03401D02*
Y03438D01*
X02467Y0342D02*
X02505D01*
X01935Y02035D02*
X01974D01*
X01955Y02015D02*
Y02054D01*
X01325Y01275D02*
Y01314D01*
X01305Y01295D02*
X01344D01*
X0128Y01188D02*
Y01231D01*
X01374Y01188D02*
Y01231D01*
X0128D02*
X01374D01*
X0128Y01188D02*
X01374D01*
X01308Y0121D02*
X01346D01*
X01327Y01191D02*
Y01228D01*
X0128Y01123D02*
Y01166D01*
X01374Y01123D02*
Y01166D01*
X0128D02*
X01374D01*
X0128Y01123D02*
X01374D01*
X01308Y01145D02*
X01346D01*
X01327Y01126D02*
Y01163D01*
X0222Y01695D02*
X02259D01*
X0224Y01675D02*
Y01714D01*
X02308Y01588D02*
Y01801D01*
X02171Y01588D02*
Y01801D01*
X02308*
X02171Y01588D02*
X02308D01*
X01278Y01612D02*
X01321D01*
X01278Y01707D02*
X01321D01*
X01278Y01612D02*
Y01707D01*
X01321Y01612D02*
Y01707D01*
X013Y01641D02*
Y01678D01*
X01281Y0166D02*
X01318D01*
X01278Y01712D02*
X01321D01*
X01278Y01807D02*
X01321D01*
X01278Y01712D02*
Y01807D01*
X01321Y01712D02*
Y01807D01*
X013Y01741D02*
Y01778D01*
X01281Y0176D02*
X01318D01*
X01668Y01902D02*
X01711D01*
X01668Y01997D02*
X01711D01*
X01668Y01902D02*
Y01997D01*
X01711Y01902D02*
Y01997D01*
X0169Y01931D02*
Y01968D01*
X01671Y0195D02*
X01708D01*
X01668Y01787D02*
X01711D01*
X01668Y01882D02*
X01711D01*
X01668Y01787D02*
Y01882D01*
X01711Y01787D02*
Y01882D01*
X0169Y01816D02*
Y01853D01*
X01671Y01835D02*
X01708D01*
X01283Y01957D02*
X01326D01*
X01283Y02052D02*
X01326D01*
X01283Y01957D02*
Y02052D01*
X01326Y01957D02*
Y02052D01*
X01305Y01986D02*
Y02023D01*
X01286Y02005D02*
X01323D01*
X01923Y01442D02*
X01966D01*
X01923Y01347D02*
X01966D01*
Y01442*
X01923Y01347D02*
Y01442D01*
X01945Y01376D02*
Y01413D01*
X01926Y01395D02*
X01963D01*
X01658Y01202D02*
X01701D01*
X01658Y01297D02*
X01701D01*
X01658Y01202D02*
Y01297D01*
X01701Y01202D02*
Y01297D01*
X0168Y01231D02*
Y01268D01*
X01661Y0125D02*
X01698D01*
X01633Y01437D02*
X01676D01*
X01633Y01342D02*
X01676D01*
Y01437*
X01633Y01342D02*
Y01437D01*
X01655Y01371D02*
Y01408D01*
X01636Y0139D02*
X01673D01*
X01862Y01168D02*
Y01211D01*
X01767Y01168D02*
Y01211D01*
Y01168D02*
X01862D01*
X01767Y01211D02*
X01862D01*
X01796Y0119D02*
X01833D01*
X01815Y01171D02*
Y01208D01*
X02578Y01747D02*
X02621D01*
X02578Y01652D02*
X02621D01*
Y01747*
X02578Y01652D02*
Y01747D01*
X026Y01681D02*
Y01718D01*
X02581Y017D02*
X02618D01*
X02476Y0327D02*
D01*
X02476Y0327*
X02476Y03271*
X02476Y03272*
X02475Y03273*
X02475Y03274*
X02475Y03274*
X02474Y03275*
X02474Y03276*
X02474Y03276*
X02473Y03277*
X02473Y03278*
X02472Y03278*
X02471Y03279*
X02471Y03279*
X0247Y0328*
X02469Y0328*
X02468Y0328*
X02468Y03281*
X02467Y03281*
X02466Y03281*
X02465Y03281*
X02464Y03281*
X02464*
X02463Y03281*
X02462Y03281*
X02461Y03281*
X0246Y03281*
X0246Y0328*
X02459Y0328*
X02458Y0328*
X02457Y03279*
X02457Y03279*
X02456Y03278*
X02456Y03278*
X02455Y03277*
X02454Y03276*
X02454Y03276*
X02454Y03275*
X02453Y03274*
X02453Y03274*
X02453Y03273*
X02452Y03272*
X02452Y03271*
X02452Y0327*
X02452Y0327*
X02452Y03269*
X02452Y03268*
X02452Y03267*
X02453Y03266*
X02453Y03265*
X02453Y03265*
X02454Y03264*
X02454Y03263*
X02454Y03263*
X02455Y03262*
X02456Y03261*
X02456Y03261*
X02457Y0326*
X02457Y0326*
X02458Y03259*
X02459Y03259*
X0246Y03259*
X0246Y03258*
X02461Y03258*
X02462Y03258*
X02463Y03258*
X02464Y03258*
X02464*
X02465Y03258*
X02466Y03258*
X02467Y03258*
X02468Y03258*
X02468Y03259*
X02469Y03259*
X0247Y03259*
X02471Y0326*
X02471Y0326*
X02472Y03261*
X02473Y03261*
X02473Y03262*
X02474Y03263*
X02474Y03263*
X02474Y03264*
X02475Y03265*
X02475Y03265*
X02475Y03266*
X02476Y03267*
X02476Y03268*
X02476Y03269*
X02476Y0327*
X03061Y01724D02*
X03098D01*
X03061Y01655D02*
X03098D01*
Y01724*
X03061Y01655D02*
Y01724D01*
Y01839D02*
X03098D01*
X03061Y0177D02*
X03098D01*
Y01839*
X03061Y0177D02*
Y01839D01*
Y01974D02*
X03098D01*
X03061Y01905D02*
X03098D01*
Y01974*
X03061Y01905D02*
Y01974D01*
X02756Y01954D02*
X02793D01*
X02756Y01885D02*
X02793D01*
Y01954*
X02756Y01885D02*
Y01954D01*
X0296Y01756D02*
Y01793D01*
X03029Y01756D02*
Y01793D01*
X0296D02*
X03029D01*
X0296Y01756D02*
X03029D01*
X0296Y01816D02*
Y01853D01*
X03029Y01816D02*
Y01853D01*
X0296D02*
X03029D01*
X0296Y01816D02*
X03029D01*
X02851Y01279D02*
X02888D01*
X02851Y0121D02*
X02888D01*
Y01279*
X02851Y0121D02*
Y01279D01*
X03056Y01469D02*
X03093D01*
X03056Y014D02*
X03093D01*
Y01469*
X03056Y014D02*
Y01469D01*
X02731Y01409D02*
X02768D01*
X02731Y0134D02*
X02768D01*
Y01409*
X02731Y0134D02*
Y01409D01*
X0295Y01256D02*
Y01293D01*
X03019Y01256D02*
Y01293D01*
X0295D02*
X03019D01*
X0295Y01256D02*
X03019D01*
X0295Y01311D02*
Y01348D01*
X03019Y01311D02*
Y01348D01*
X0295D02*
X03019D01*
X0295Y01311D02*
X03019D01*
X03056Y01334D02*
X03093D01*
X03056Y01265D02*
X03093D01*
Y01334*
X03056Y01265D02*
Y01334D01*
Y01224D02*
X03093D01*
X03056Y01155D02*
X03093D01*
Y01224*
X03056Y01155D02*
Y01224D01*
X01204Y01926D02*
Y01963D01*
X01135Y01926D02*
Y01963D01*
Y01926D02*
X01204D01*
X01135Y01963D02*
X01204D01*
X01676Y03129D02*
X01713D01*
X01676Y0306D02*
X01713D01*
Y03129*
X01676Y0306D02*
Y03129D01*
X01626D02*
X01663D01*
X01626Y0306D02*
X01663D01*
Y03129*
X01626Y0306D02*
Y03129D01*
X0104Y02126D02*
X01229D01*
X0104Y01993D02*
X01229D01*
X0104D02*
Y02126D01*
X01229Y01993D02*
Y02126D01*
X02215Y01946D02*
Y01983D01*
X02284Y01946D02*
Y01983D01*
X02215D02*
X02284D01*
X02215Y01946D02*
X02284D01*
X02861Y01824D02*
X02898D01*
X02861Y01755D02*
X02898D01*
Y01824*
X02861Y01755D02*
Y01824D01*
X01901Y03099D02*
X01938D01*
X01901Y0303D02*
X01938D01*
Y03099*
X01901Y0303D02*
Y03099D01*
X01841D02*
X01878D01*
X01841Y0303D02*
X01878D01*
Y03099*
X01841Y0303D02*
Y03099D01*
X02986Y02253D02*
Y02775D01*
X02405Y02253D02*
X02986D01*
X02405D02*
Y02846D01*
X02986Y02775D02*
X02996D01*
Y02818*
X02986D02*
X02996D01*
X02986D02*
Y02846D01*
X02405D02*
X02986D01*
X02435Y03149D02*
Y0331D01*
X02597Y03149D02*
Y0331D01*
X02435D02*
X02597D01*
X02435Y03149D02*
X02597D01*
X02385Y03236D02*
Y03273D01*
X02316Y03236D02*
Y03273D01*
Y03236D02*
X02385D01*
X02316Y03273D02*
X02385D01*
Y03286D02*
Y03323D01*
X02316Y03286D02*
Y03323D01*
Y03286D02*
X02385D01*
X02316Y03323D02*
X02385D01*
Y03186D02*
Y03223D01*
X02316Y03186D02*
Y03223D01*
Y03186D02*
X02385D01*
X02316Y03223D02*
X02385D01*
Y03136D02*
Y03173D01*
X02316Y03136D02*
Y03173D01*
Y03136D02*
X02385D01*
X02316Y03173D02*
X02385D01*
X02412Y03454D02*
X0245D01*
X02412Y03385D02*
X0245D01*
Y03454*
X02412Y03385D02*
Y03454D01*
X02522D02*
X0256D01*
X02522Y03385D02*
X0256D01*
Y03454*
X02522Y03385D02*
Y03454D01*
X02467D02*
X02505D01*
X02467Y03385D02*
X02505D01*
Y03454*
X02467Y03385D02*
Y03454D01*
X01971Y02014D02*
Y02055D01*
X01938Y02014D02*
Y02055D01*
Y02014D02*
X01971D01*
X01938Y02055D02*
X01971D01*
X01291Y01356D02*
X01358D01*
X01291Y01233D02*
X01358D01*
Y01356*
X01291Y01233D02*
Y01356D01*
X01293Y01191D02*
Y01228D01*
X01362Y01191D02*
Y01228D01*
X01293D02*
X01362D01*
X01293Y01191D02*
X01362D01*
X01293Y01126D02*
Y01163D01*
X01362Y01126D02*
Y01163D01*
X01293D02*
X01362D01*
X01293Y01126D02*
X01362D01*
X02306Y016D02*
Y01789D01*
X02173Y016D02*
Y01789D01*
X02306*
X02173Y016D02*
X02306D01*
X01281Y01625D02*
X01318D01*
X01281Y01694D02*
X01318D01*
X01281Y01625D02*
Y01694D01*
X01318Y01625D02*
Y01694D01*
X01281Y01725D02*
X01318D01*
X01281Y01794D02*
X01318D01*
X01281Y01725D02*
Y01794D01*
X01318Y01725D02*
Y01794D01*
X01671Y01915D02*
X01708D01*
X01671Y01984D02*
X01708D01*
X01671Y01915D02*
Y01984D01*
X01708Y01915D02*
Y01984D01*
X01671Y018D02*
X01708D01*
X01671Y01869D02*
X01708D01*
X01671Y018D02*
Y01869D01*
X01708Y018D02*
Y01869D01*
X01286Y0197D02*
X01323D01*
X01286Y02039D02*
X01323D01*
X01286Y0197D02*
Y02039D01*
X01323Y0197D02*
Y02039D01*
X01926Y01429D02*
X01963D01*
X01926Y0136D02*
X01963D01*
Y01429*
X01926Y0136D02*
Y01429D01*
X01661Y01215D02*
X01698D01*
X01661Y01284D02*
X01698D01*
X01661Y01215D02*
Y01284D01*
X01698Y01215D02*
Y01284D01*
X01636Y01424D02*
X01673D01*
X01636Y01355D02*
X01673D01*
Y01424*
X01636Y01355D02*
Y01424D01*
X01849Y01171D02*
Y01208D01*
X0178Y01171D02*
Y01208D01*
Y01171D02*
X01849D01*
X0178Y01208D02*
X01849D01*
X02581Y01734D02*
X02618D01*
X02581Y01665D02*
X02618D01*
Y01734*
X02581Y01665D02*
Y01734D01*
X03058Y01737D02*
X03101D01*
X03058Y01642D02*
X03101D01*
Y01737*
X03058Y01642D02*
Y01737D01*
X0308Y01671D02*
Y01708D01*
X03061Y0169D02*
X03098D01*
X03058Y01852D02*
X03101D01*
X03058Y01757D02*
X03101D01*
Y01852*
X03058Y01757D02*
Y01852D01*
X0308Y01786D02*
Y01823D01*
X03061Y01805D02*
X03098D01*
X03058Y01987D02*
X03101D01*
X03058Y01892D02*
X03101D01*
Y01987*
X03058Y01892D02*
Y01987D01*
X0308Y01921D02*
Y01958D01*
X03061Y0194D02*
X03098D01*
X02753Y01967D02*
X02796D01*
X02753Y01872D02*
X02796D01*
Y01967*
X02753Y01872D02*
Y01967D01*
X02775Y01901D02*
Y01938D01*
X02756Y0192D02*
X02793D01*
X02947Y01753D02*
Y01796D01*
X03042Y01753D02*
Y01796D01*
X02947D02*
X03042D01*
X02947Y01753D02*
X03042D01*
X02976Y01775D02*
X03013D01*
X02995Y01756D02*
Y01793D01*
X02947Y01813D02*
Y01856D01*
X03042Y01813D02*
Y01856D01*
X02947D02*
X03042D01*
X02947Y01813D02*
X03042D01*
X02976Y01835D02*
X03013D01*
X02995Y01816D02*
Y01853D01*
X02848Y01292D02*
X02891D01*
X02848Y01197D02*
X02891D01*
Y01292*
X02848Y01197D02*
Y01292D01*
X0287Y01226D02*
Y01263D01*
X02851Y01245D02*
X02888D01*
X03053Y01482D02*
X03096D01*
X03053Y01387D02*
X03096D01*
Y01482*
X03053Y01387D02*
Y01482D01*
X03075Y01416D02*
Y01453D01*
X03056Y01435D02*
X03093D01*
X02728Y01422D02*
X02771D01*
X02728Y01327D02*
X02771D01*
Y01422*
X02728Y01327D02*
Y01422D01*
X0275Y01356D02*
Y01393D01*
X02731Y01375D02*
X02768D01*
X02937Y01253D02*
Y01296D01*
X03032Y01253D02*
Y01296D01*
X02937D02*
X03032D01*
X02937Y01253D02*
X03032D01*
X02966Y01275D02*
X03003D01*
X02985Y01256D02*
Y01293D01*
X02937Y01308D02*
Y01351D01*
X03032Y01308D02*
Y01351D01*
X02937D02*
X03032D01*
X02937Y01308D02*
X03032D01*
X02966Y0133D02*
X03003D01*
X02985Y01311D02*
Y01348D01*
X03053Y01347D02*
X03096D01*
X03053Y01252D02*
X03096D01*
Y01347*
X03053Y01252D02*
Y01347D01*
X03075Y01281D02*
Y01318D01*
X03056Y013D02*
X03093D01*
X03053Y01237D02*
X03096D01*
X03053Y01142D02*
X03096D01*
Y01237*
X03053Y01142D02*
Y01237D01*
X03075Y01171D02*
Y01208D01*
X03056Y0119D02*
X03093D01*
X01217Y01923D02*
Y01966D01*
X01122Y01923D02*
Y01966D01*
Y01923D02*
X01217D01*
X01122Y01966D02*
X01217D01*
X01151Y01945D02*
X01188D01*
X0117Y01926D02*
Y01963D01*
X01673Y03142D02*
X01716D01*
X01673Y03047D02*
X01716D01*
Y03142*
X01673Y03047D02*
Y03142D01*
X01695Y03076D02*
Y03113D01*
X01676Y03095D02*
X01713D01*
X01623Y03142D02*
X01666D01*
X01623Y03047D02*
X01666D01*
Y03142*
X01623Y03047D02*
Y03142D01*
X01645Y03076D02*
Y03113D01*
X01626Y03095D02*
X01663D01*
X01135Y0204D02*
Y02079D01*
X01115Y0206D02*
X01154D01*
X01028Y02128D02*
X01241D01*
X01028Y01991D02*
X01241D01*
X01028D02*
Y02128D01*
X01241Y01991D02*
Y02128D01*
X02202Y01943D02*
Y01986D01*
X02297Y01943D02*
Y01986D01*
X02202D02*
X02297D01*
X02202Y01943D02*
X02297D01*
X02231Y01965D02*
X02268D01*
X0225Y01946D02*
Y01983D01*
X02858Y01837D02*
X02901D01*
X02858Y01742D02*
X02901D01*
Y01837*
X02858Y01742D02*
Y01837D01*
X0288Y01771D02*
Y01808D01*
X02861Y0179D02*
X02898D01*
X01898Y03112D02*
X01941D01*
X01898Y03017D02*
X01941D01*
Y03112*
X01898Y03017D02*
Y03112D01*
X0192Y03046D02*
Y03083D01*
X01901Y03065D02*
X01938D01*
X01838Y03112D02*
X01881D01*
X01838Y03017D02*
X01881D01*
Y03112*
X01838Y03017D02*
Y03112D01*
X0186Y03046D02*
Y03083D01*
X01841Y03065D02*
X01878D01*
X02496Y0323D02*
X02536D01*
X02516Y0321D02*
Y03249D01*
X02398Y03233D02*
Y03276D01*
X02304Y03233D02*
Y03276D01*
Y03233D02*
X02398D01*
X02304Y03276D02*
X02398D01*
X02332Y03255D02*
X0237D01*
X02351Y03236D02*
Y03273D01*
X02398Y03283D02*
Y03326D01*
X02304Y03283D02*
Y03326D01*
Y03283D02*
X02398D01*
X02304Y03326D02*
X02398D01*
X02332Y03305D02*
X0237D01*
X02351Y03286D02*
Y03323D01*
X02398Y03183D02*
Y03226D01*
X02304Y03183D02*
Y03226D01*
Y03183D02*
X02398D01*
X02304Y03226D02*
X02398D01*
X02332Y03205D02*
X0237D01*
X02351Y03186D02*
Y03223D01*
X02398Y03133D02*
Y03176D01*
X02304Y03133D02*
Y03176D01*
Y03133D02*
X02398D01*
X02304Y03176D02*
X02398D01*
X02332Y03155D02*
X0237D01*
X02351Y03136D02*
Y03173D01*
X02409Y03467D02*
X02452D01*
X02409Y03372D02*
X02452D01*
Y03467*
X02409Y03372D02*
Y03467D01*
X02431Y03401D02*
Y03438D01*
X02412Y0342D02*
X0245D01*
X02519Y03467D02*
X02562D01*
X02519Y03372D02*
X02562D01*
Y03467*
X02519Y03372D02*
Y03467D01*
X02541Y03401D02*
Y03438D01*
X02522Y0342D02*
X0256D01*
X02464Y03467D02*
X02507D01*
X02464Y03372D02*
X02507D01*
Y03467*
X02464Y03372D02*
Y03467D01*
X02486Y03401D02*
Y03438D01*
X02467Y0342D02*
X02505D01*
X01935Y02035D02*
X01974D01*
X01955Y02015D02*
Y02054D01*
X01325Y01275D02*
Y01314D01*
X01305Y01295D02*
X01344D01*
X0128Y01188D02*
Y01231D01*
X01374Y01188D02*
Y01231D01*
X0128D02*
X01374D01*
X0128Y01188D02*
X01374D01*
X01308Y0121D02*
X01346D01*
X01327Y01191D02*
Y01228D01*
X0128Y01123D02*
Y01166D01*
X01374Y01123D02*
Y01166D01*
X0128D02*
X01374D01*
X0128Y01123D02*
X01374D01*
X01308Y01145D02*
X01346D01*
X01327Y01126D02*
Y01163D01*
X0222Y01695D02*
X02259D01*
X0224Y01675D02*
Y01714D01*
X02308Y01588D02*
Y01801D01*
X02171Y01588D02*
Y01801D01*
X02308*
X02171Y01588D02*
X02308D01*
X01278Y01612D02*
X01321D01*
X01278Y01707D02*
X01321D01*
X01278Y01612D02*
Y01707D01*
X01321Y01612D02*
Y01707D01*
X013Y01641D02*
Y01678D01*
X01281Y0166D02*
X01318D01*
X01278Y01712D02*
X01321D01*
X01278Y01807D02*
X01321D01*
X01278Y01712D02*
Y01807D01*
X01321Y01712D02*
Y01807D01*
X013Y01741D02*
Y01778D01*
X01281Y0176D02*
X01318D01*
X01668Y01902D02*
X01711D01*
X01668Y01997D02*
X01711D01*
X01668Y01902D02*
Y01997D01*
X01711Y01902D02*
Y01997D01*
X0169Y01931D02*
Y01968D01*
X01671Y0195D02*
X01708D01*
X01668Y01787D02*
X01711D01*
X01668Y01882D02*
X01711D01*
X01668Y01787D02*
Y01882D01*
X01711Y01787D02*
Y01882D01*
X0169Y01816D02*
Y01853D01*
X01671Y01835D02*
X01708D01*
X01283Y01957D02*
X01326D01*
X01283Y02052D02*
X01326D01*
X01283Y01957D02*
Y02052D01*
X01326Y01957D02*
Y02052D01*
X01305Y01986D02*
Y02023D01*
X01286Y02005D02*
X01323D01*
X01923Y01442D02*
X01966D01*
X01923Y01347D02*
X01966D01*
Y01442*
X01923Y01347D02*
Y01442D01*
X01945Y01376D02*
Y01413D01*
X01926Y01395D02*
X01963D01*
X01658Y01202D02*
X01701D01*
X01658Y01297D02*
X01701D01*
X01658Y01202D02*
Y01297D01*
X01701Y01202D02*
Y01297D01*
X0168Y01231D02*
Y01268D01*
X01661Y0125D02*
X01698D01*
X01633Y01437D02*
X01676D01*
X01633Y01342D02*
X01676D01*
Y01437*
X01633Y01342D02*
Y01437D01*
X01655Y01371D02*
Y01408D01*
X01636Y0139D02*
X01673D01*
X01862Y01168D02*
Y01211D01*
X01767Y01168D02*
Y01211D01*
Y01168D02*
X01862D01*
X01767Y01211D02*
X01862D01*
X01796Y0119D02*
X01833D01*
X01815Y01171D02*
Y01208D01*
X02578Y01747D02*
X02621D01*
X02578Y01652D02*
X02621D01*
Y01747*
X02578Y01652D02*
Y01747D01*
X026Y01681D02*
Y01718D01*
X02581Y017D02*
X02618D01*
X01345Y01335D02*
X01384D01*
X01365Y01315D02*
Y01354D01*
X02403Y01485D02*
X02443D01*
X02423Y01465D02*
Y01504D01*
X0148Y0171D02*
Y0175D01*
X0146Y0173D02*
X01499D01*
G54D18*
X01028Y01468D02*
X01044D01*
Y01476*
X01041Y01478*
X01036*
X01033Y01476*
Y01468*
X01041Y01494D02*
X01044Y01492D01*
Y01486*
X01041Y01484*
X01031*
X01028Y01486*
Y01492*
X01031Y01494*
X01044Y015D02*
X01028D01*
Y01508*
X01031Y0151*
X01033*
X01036Y01508*
Y015*
Y01508*
X01039Y0151*
X01041*
X01044Y01508*
Y015*
Y01542D02*
Y01532D01*
X01028*
Y01542*
X01036Y01532D02*
Y01537D01*
X01028Y01548D02*
X01044D01*
X01028Y01558*
X01044*
Y01564D02*
X01028D01*
Y01572*
X01031Y01574*
X01041*
X01044Y01572*
Y01564*
G54D19*
X02342Y022D02*
Y02899D01*
X02996*
X02342Y022D02*
X02996D01*
Y02765*
X03006*
Y02828*
X02996D02*
X03006D01*
X02996D02*
Y02899D01*
X02425Y03139D02*
Y0332D01*
Y03139D02*
X02606D01*
Y0332*
X02425D02*
X02606D01*
X0198Y02009D02*
Y0206D01*
X01929Y02009D02*
Y0206D01*
Y02009D02*
X0198D01*
X01929Y0206D02*
X0198D01*
X01252Y01359D02*
X01397D01*
X01252Y0123D02*
X01397D01*
Y01359*
X01252Y0123D02*
Y01359D01*
X00961Y01115D02*
X01221D01*
X00961D02*
Y01446D01*
X01221*
Y01115D02*
Y01446D01*
X01664Y01446D02*
Y01723D01*
Y01446D02*
X01935D01*
Y01723*
X01664D02*
X01935D01*
X02552Y01592D02*
Y01797D01*
X02347Y01592D02*
Y01797D01*
X02552*
X02347Y01592D02*
X02552D01*
X01346Y01893D02*
Y02006D01*
Y01893D02*
X01401D01*
Y01879D02*
Y01893D01*
Y01879D02*
X01598D01*
Y01893*
X01653*
Y02006*
X01598D02*
X01653D01*
X01598D02*
Y0202D01*
X01401D02*
X01598D01*
X01401Y02006D02*
Y0202D01*
X01346Y02006D02*
X01401D01*
X01912Y01232D02*
Y01437D01*
X01707Y01232D02*
Y01437D01*
X01912*
X01707Y01232D02*
X01912D01*
X02342Y022D02*
Y02899D01*
X02996*
X02342Y022D02*
X02996D01*
Y02765*
X03006*
Y02828*
X02996D02*
X03006D01*
X02996D02*
Y02899D01*
X02425Y03139D02*
Y0332D01*
Y03139D02*
X02606D01*
Y0332*
X02425D02*
X02606D01*
X0198Y02009D02*
Y0206D01*
X01929Y02009D02*
Y0206D01*
Y02009D02*
X0198D01*
X01929Y0206D02*
X0198D01*
X01252Y01359D02*
X01397D01*
X01252Y0123D02*
X01397D01*
Y01359*
X01252Y0123D02*
Y01359D01*
X00961Y01115D02*
X01221D01*
X00961D02*
Y01446D01*
X01221*
Y01115D02*
Y01446D01*
X01664Y01446D02*
Y01723D01*
Y01446D02*
X01935D01*
Y01723*
X01664D02*
X01935D01*
X02552Y01592D02*
Y01797D01*
X02347Y01592D02*
Y01797D01*
X02552*
X02347Y01592D02*
X02552D01*
X01346Y01893D02*
Y02006D01*
Y01893D02*
X01401D01*
Y01879D02*
Y01893D01*
Y01879D02*
X01598D01*
Y01893*
X01653*
Y02006*
X01598D02*
X01653D01*
X01598D02*
Y0202D01*
X01401D02*
X01598D01*
X01401Y02006D02*
Y0202D01*
X01346Y02006D02*
X01401D01*
X01912Y01232D02*
Y01437D01*
X01707Y01232D02*
Y01437D01*
X01912*
X01707Y01232D02*
X01912D01*
M02*