G04*
G04 #@! TF.GenerationSoftware,Altium Limited,Altium Designer,19.1.8 (144)*
G04*
G04 Layer_Color=8421504*
%FSLAX25Y25*%
%MOIN*%
G70*
G01*
G75*
%ADD18R,0.04520X0.04520*%
%ADD19R,0.02953X0.02953*%
%ADD20R,0.03200X0.01200*%
%ADD21R,0.01200X0.03200*%
%ADD22R,0.10400X0.14400*%
%ADD23R,0.05512X0.12992*%
%ADD24R,0.03000X0.03000*%
%ADD25R,0.03543X0.03150*%
%ADD26R,0.03000X0.03000*%
%ADD27R,0.03150X0.03543*%
%ADD28R,0.05512X0.02441*%
%ADD29R,0.09449X0.04331*%
G04:AMPARAMS|DCode=30|XSize=9.84mil|YSize=23.62mil|CornerRadius=1.97mil|HoleSize=0mil|Usage=FLASHONLY|Rotation=90.000|XOffset=0mil|YOffset=0mil|HoleType=Round|Shape=RoundedRectangle|*
%AMROUNDEDRECTD30*
21,1,0.00984,0.01968,0,0,90.0*
21,1,0.00591,0.02362,0,0,90.0*
1,1,0.00394,0.00984,0.00295*
1,1,0.00394,0.00984,-0.00295*
1,1,0.00394,-0.00984,-0.00295*
1,1,0.00394,-0.00984,0.00295*
%
%ADD30ROUNDEDRECTD30*%
G04:AMPARAMS|DCode=31|XSize=9.84mil|YSize=23.62mil|CornerRadius=1.97mil|HoleSize=0mil|Usage=FLASHONLY|Rotation=0.000|XOffset=0mil|YOffset=0mil|HoleType=Round|Shape=RoundedRectangle|*
%AMROUNDEDRECTD31*
21,1,0.00984,0.01968,0,0,0.0*
21,1,0.00591,0.02362,0,0,0.0*
1,1,0.00394,0.00295,-0.00984*
1,1,0.00394,-0.00295,-0.00984*
1,1,0.00394,-0.00295,0.00984*
1,1,0.00394,0.00295,0.00984*
%
%ADD31ROUNDEDRECTD31*%
%ADD32R,0.00787X0.00787*%
%ADD33R,0.03543X0.01181*%
%ADD34R,0.01181X0.03543*%
%ADD35R,0.01181X0.01181*%
%ADD36R,0.05630X0.21654*%
%ADD37R,0.12992X0.05512*%
G04:AMPARAMS|DCode=38|XSize=33.07mil|YSize=12.6mil|CornerRadius=1.58mil|HoleSize=0mil|Usage=FLASHONLY|Rotation=0.000|XOffset=0mil|YOffset=0mil|HoleType=Round|Shape=RoundedRectangle|*
%AMROUNDEDRECTD38*
21,1,0.03307,0.00945,0,0,0.0*
21,1,0.02992,0.01260,0,0,0.0*
1,1,0.00315,0.01496,-0.00472*
1,1,0.00315,-0.01496,-0.00472*
1,1,0.00315,-0.01496,0.00472*
1,1,0.00315,0.01496,0.00472*
%
%ADD38ROUNDEDRECTD38*%
G04:AMPARAMS|DCode=39|XSize=33.07mil|YSize=12.6mil|CornerRadius=1.58mil|HoleSize=0mil|Usage=FLASHONLY|Rotation=90.000|XOffset=0mil|YOffset=0mil|HoleType=Round|Shape=RoundedRectangle|*
%AMROUNDEDRECTD39*
21,1,0.03307,0.00945,0,0,90.0*
21,1,0.02992,0.01260,0,0,90.0*
1,1,0.00315,0.00472,0.01496*
1,1,0.00315,0.00472,-0.01496*
1,1,0.00315,-0.00472,-0.01496*
1,1,0.00315,-0.00472,0.01496*
%
%ADD39ROUNDEDRECTD39*%
%ADD40R,0.03858X0.13386*%
%ADD41R,0.21654X0.05630*%
G04:AMPARAMS|DCode=42|XSize=61.42mil|YSize=16.14mil|CornerRadius=4.04mil|HoleSize=0mil|Usage=FLASHONLY|Rotation=180.000|XOffset=0mil|YOffset=0mil|HoleType=Round|Shape=RoundedRectangle|*
%AMROUNDEDRECTD42*
21,1,0.06142,0.00807,0,0,180.0*
21,1,0.05335,0.01614,0,0,180.0*
1,1,0.00807,-0.02667,0.00404*
1,1,0.00807,0.02667,0.00404*
1,1,0.00807,0.02667,-0.00404*
1,1,0.00807,-0.02667,-0.00404*
%
%ADD42ROUNDEDRECTD42*%
%ADD43R,0.03543X0.07874*%
G36*
X248346Y166154D02*
X241653D01*
Y172846D01*
X248346D01*
Y166154D01*
D02*
G37*
D18*
X254287Y320346D02*
D03*
X248980D02*
D03*
Y325654D02*
D03*
X254287D02*
D03*
D19*
X134630Y135370D02*
D03*
X138370D02*
D03*
X134630Y131630D02*
D03*
X138370D02*
D03*
D20*
X173300Y138400D02*
D03*
Y136500D02*
D03*
Y134500D02*
D03*
Y132500D02*
D03*
Y130500D02*
D03*
Y128600D02*
D03*
X188700D02*
D03*
Y130500D02*
D03*
Y132500D02*
D03*
Y134500D02*
D03*
Y136500D02*
D03*
Y138400D02*
D03*
D21*
X178000Y123800D02*
D03*
X180000D02*
D03*
X182000D02*
D03*
X184000D02*
D03*
Y143200D02*
D03*
X182000D02*
D03*
X180000D02*
D03*
X178000D02*
D03*
D22*
X181000Y133500D02*
D03*
D23*
X106020Y206000D02*
D03*
X120980D02*
D03*
D24*
X260000Y162000D02*
D03*
Y156500D02*
D03*
X170500Y318000D02*
D03*
Y323500D02*
D03*
X301500Y121500D02*
D03*
Y116000D02*
D03*
X295000Y121500D02*
D03*
Y116000D02*
D03*
X302000Y171500D02*
D03*
Y166000D02*
D03*
X296000Y171500D02*
D03*
Y166000D02*
D03*
X175500Y311500D02*
D03*
Y306000D02*
D03*
X158500Y311500D02*
D03*
Y306000D02*
D03*
X164000Y323500D02*
D03*
Y318000D02*
D03*
X189500Y200500D02*
D03*
Y195000D02*
D03*
X202500Y202500D02*
D03*
Y197000D02*
D03*
X141500Y120500D02*
D03*
Y115000D02*
D03*
X123500Y153500D02*
D03*
Y148000D02*
D03*
X123000Y182000D02*
D03*
Y187500D02*
D03*
X107500Y180500D02*
D03*
Y186000D02*
D03*
X115500Y180000D02*
D03*
Y185500D02*
D03*
X175500Y180500D02*
D03*
Y186000D02*
D03*
X130000Y189500D02*
D03*
Y184000D02*
D03*
X162000Y122000D02*
D03*
Y127500D02*
D03*
X200500Y131000D02*
D03*
Y136500D02*
D03*
X195000Y125500D02*
D03*
Y120000D02*
D03*
X238000Y117500D02*
D03*
Y123000D02*
D03*
X265134Y320500D02*
D03*
Y326000D02*
D03*
X271634Y322000D02*
D03*
Y327500D02*
D03*
X266000Y160000D02*
D03*
Y165500D02*
D03*
D25*
X288000Y181756D02*
D03*
Y176244D02*
D03*
X308000Y171756D02*
D03*
Y166244D02*
D03*
Y183256D02*
D03*
Y177744D02*
D03*
Y196756D02*
D03*
Y191244D02*
D03*
X277500Y194756D02*
D03*
Y189244D02*
D03*
X287000Y127256D02*
D03*
Y121744D02*
D03*
X307500Y146256D02*
D03*
Y140744D02*
D03*
X275000Y140256D02*
D03*
Y134744D02*
D03*
X307500Y132756D02*
D03*
Y127244D02*
D03*
Y121756D02*
D03*
Y116244D02*
D03*
X169500Y312256D02*
D03*
Y306744D02*
D03*
X164500Y312256D02*
D03*
Y306744D02*
D03*
X192000Y309256D02*
D03*
Y303744D02*
D03*
X186000Y309256D02*
D03*
Y303744D02*
D03*
X243134Y344756D02*
D03*
Y339244D02*
D03*
X254134Y344756D02*
D03*
Y339244D02*
D03*
X248634Y344756D02*
D03*
Y339244D02*
D03*
X130000Y163244D02*
D03*
Y168756D02*
D03*
Y173244D02*
D03*
Y178756D02*
D03*
X169000Y192244D02*
D03*
Y197756D02*
D03*
Y180744D02*
D03*
Y186256D02*
D03*
X130500Y197744D02*
D03*
Y203256D02*
D03*
X194500Y142256D02*
D03*
Y136744D02*
D03*
X168000Y122244D02*
D03*
Y127756D02*
D03*
X165500Y141756D02*
D03*
Y136244D02*
D03*
X260000Y172756D02*
D03*
Y167244D02*
D03*
D26*
X222000Y283500D02*
D03*
X227500D02*
D03*
X222000Y278000D02*
D03*
X227500D02*
D03*
X222000Y271000D02*
D03*
X227500D02*
D03*
X222000Y265500D02*
D03*
X227500D02*
D03*
X222000Y258500D02*
D03*
X227500D02*
D03*
X222000Y253000D02*
D03*
X227500D02*
D03*
X222000Y246000D02*
D03*
X227500D02*
D03*
X222000Y240500D02*
D03*
X227500D02*
D03*
X222000Y233500D02*
D03*
X227500D02*
D03*
X222000Y228000D02*
D03*
X227500D02*
D03*
X222000Y221000D02*
D03*
X227500D02*
D03*
X222000Y203000D02*
D03*
X227500D02*
D03*
Y208500D02*
D03*
X222000D02*
D03*
Y215500D02*
D03*
X227500D02*
D03*
X136500Y211000D02*
D03*
X131000D02*
D03*
X156000D02*
D03*
X150500D02*
D03*
X283500Y189500D02*
D03*
X289000D02*
D03*
X296500D02*
D03*
X302000D02*
D03*
X295500Y140000D02*
D03*
X301000D02*
D03*
X281000Y135000D02*
D03*
X286500D02*
D03*
X258500Y184500D02*
D03*
X253000D02*
D03*
X246500D02*
D03*
X241000D02*
D03*
D27*
X222244Y196500D02*
D03*
X227756D02*
D03*
X296744Y177500D02*
D03*
X302256D02*
D03*
X296744Y183500D02*
D03*
X302256D02*
D03*
X295744Y127500D02*
D03*
X301256D02*
D03*
X295744Y133000D02*
D03*
X301256D02*
D03*
X119756Y194500D02*
D03*
X114244D02*
D03*
X237890Y325500D02*
D03*
X232378D02*
D03*
X237890Y330500D02*
D03*
X232378D02*
D03*
X237890Y320500D02*
D03*
X232378D02*
D03*
X237890Y315500D02*
D03*
X232378D02*
D03*
X130000Y121000D02*
D03*
X135512D02*
D03*
X130000Y114500D02*
D03*
X135512D02*
D03*
X184437Y118500D02*
D03*
X178925D02*
D03*
D28*
X238039Y263272D02*
D03*
Y258941D02*
D03*
Y254610D02*
D03*
Y250279D02*
D03*
Y245949D02*
D03*
Y241618D02*
D03*
Y237287D02*
D03*
Y232957D02*
D03*
Y228626D02*
D03*
D29*
X281347Y223193D02*
D03*
X245913D02*
D03*
Y286776D02*
D03*
X281347D02*
D03*
D30*
X244153Y325953D02*
D03*
Y323984D02*
D03*
Y322016D02*
D03*
Y320047D02*
D03*
X259114D02*
D03*
Y322016D02*
D03*
Y323984D02*
D03*
Y325953D02*
D03*
D31*
X248681Y315520D02*
D03*
X250650D02*
D03*
X252618D02*
D03*
X254587D02*
D03*
Y330480D02*
D03*
X252618D02*
D03*
X250650D02*
D03*
X248681D02*
D03*
D32*
X197272Y202122D02*
D03*
Y203500D02*
D03*
Y204878D02*
D03*
X193728D02*
D03*
Y203500D02*
D03*
Y202122D02*
D03*
D33*
X130398Y136453D02*
D03*
Y134484D02*
D03*
Y132516D02*
D03*
Y130547D02*
D03*
X142602D02*
D03*
Y132516D02*
D03*
Y134484D02*
D03*
Y136453D02*
D03*
D34*
X133547Y127398D02*
D03*
X135516D02*
D03*
X137484D02*
D03*
X139453D02*
D03*
Y139602D02*
D03*
X137484D02*
D03*
X135516D02*
D03*
X133547D02*
D03*
D35*
X131579Y138421D02*
D03*
X141421D02*
D03*
X131579Y128579D02*
D03*
X141421D02*
D03*
D36*
X188453Y161000D02*
D03*
X172547D02*
D03*
D37*
X224000Y176980D02*
D03*
Y162020D02*
D03*
D38*
X252618Y173339D02*
D03*
Y170780D02*
D03*
Y168220D02*
D03*
Y165661D02*
D03*
X237382D02*
D03*
Y168220D02*
D03*
Y170780D02*
D03*
Y173339D02*
D03*
D39*
X241161Y177118D02*
D03*
X243721D02*
D03*
X246280D02*
D03*
X248839D02*
D03*
Y161882D02*
D03*
X246280D02*
D03*
X243721D02*
D03*
X241161D02*
D03*
D40*
X247000Y148500D02*
D03*
X237669D02*
D03*
D41*
X148000Y165094D02*
D03*
Y181000D02*
D03*
D42*
X161339Y198839D02*
D03*
Y196280D02*
D03*
Y193720D02*
D03*
Y191161D02*
D03*
X138661D02*
D03*
Y193720D02*
D03*
Y196280D02*
D03*
Y198839D02*
D03*
D43*
X106000Y293500D02*
D03*
X111000D02*
D03*
X116000D02*
D03*
X121000D02*
D03*
X126000D02*
D03*
X131000D02*
D03*
X136000D02*
D03*
X141000D02*
D03*
X146000D02*
D03*
X151000D02*
D03*
X156000D02*
D03*
X161000D02*
D03*
X166000D02*
D03*
X171000D02*
D03*
X176000D02*
D03*
X181000D02*
D03*
X186000D02*
D03*
X191000D02*
D03*
X196000D02*
D03*
X106000Y219500D02*
D03*
X111000D02*
D03*
X116000D02*
D03*
X121000D02*
D03*
X126000D02*
D03*
X131000D02*
D03*
X136000D02*
D03*
X141000D02*
D03*
X146000D02*
D03*
X151000D02*
D03*
X156000D02*
D03*
X161000D02*
D03*
X166000D02*
D03*
X171000D02*
D03*
X176000D02*
D03*
X181000D02*
D03*
X186000D02*
D03*
X191000D02*
D03*
X196000D02*
D03*
M02*
