G04*
G04 #@! TF.GenerationSoftware,Altium Limited,Altium Designer,19.1.8 (144)*
G04*
G04 Layer_Color=128*
%FSLAX44Y44*%
%MOMM*%
G71*
G01*
G75*
%ADD16C,0.1000*%
%ADD95C,0.0508*%
D16*
X254000Y274320D02*
Y891540D01*
X280670Y918210D01*
X680720Y918210D01*
X739140Y859790D01*
X759460Y839470D01*
X768350Y830580D01*
Y562610D02*
Y830580D01*
Y562610D02*
X834390Y496570D01*
X834390Y302260D02*
X834390Y496570D01*
X786130Y254000D02*
X834390Y302260D01*
X275590Y254000D02*
X786130D01*
X254000Y274320D02*
X275590Y254000D01*
D95*
X266010Y868680D02*
X275010D01*
X270510Y864180D02*
Y873180D01*
X291410Y868680D02*
X300410D01*
X295910Y864180D02*
Y873180D01*
X316810Y868680D02*
X325810D01*
X321310Y864180D02*
Y873180D01*
X342210Y868680D02*
X351210D01*
X346710Y864180D02*
Y873180D01*
X367610Y868680D02*
X376610D01*
X372110Y864180D02*
Y873180D01*
X393010Y868680D02*
X402010D01*
X397510Y864180D02*
Y873180D01*
X727360Y792480D02*
X736360D01*
X731860Y787980D02*
Y796980D01*
X701960Y792480D02*
X710960D01*
X706460Y787980D02*
Y796980D01*
X714070Y608910D02*
X723570D01*
X718820Y604160D02*
Y613660D01*
X714070Y676910D02*
X723570D01*
X718820Y672160D02*
Y681660D01*
X525090Y419100D02*
X534090D01*
X529590Y414600D02*
Y423600D01*
X525090Y444500D02*
X534090D01*
X529590Y440000D02*
Y449000D01*
X650820Y311150D02*
X659820D01*
X655320Y306650D02*
Y315650D01*
X625420Y311150D02*
X634420D01*
X629920Y306650D02*
Y315650D01*
X662590Y774700D02*
X671590D01*
X667090Y770200D02*
Y779200D01*
X637190Y774700D02*
X646190D01*
X641690Y770200D02*
Y779200D01*
X271740Y292420D02*
X276740D01*
X274240Y289920D02*
Y294920D01*
X271740Y358420D02*
X276740D01*
X274240Y355920D02*
Y360920D01*
X271740Y292420D02*
X276740D01*
X274240Y289920D02*
Y294920D01*
X271740Y358420D02*
X276740D01*
X274240Y355920D02*
Y360920D01*
X273630Y434340D02*
X282630D01*
X278130Y429840D02*
Y438840D01*
X273630Y408940D02*
X282630D01*
X278130Y404440D02*
Y413440D01*
X273630Y383540D02*
X282630D01*
X278130Y379040D02*
Y388040D01*
X591470Y867410D02*
X600470D01*
X595970Y862910D02*
Y871910D01*
X566070Y867410D02*
X575070D01*
X570570Y862910D02*
Y871910D01*
X540670Y867410D02*
X549670D01*
X545170Y862910D02*
Y871910D01*
X668940Y868680D02*
X677940D01*
X673440Y864180D02*
Y873180D01*
X694340Y868680D02*
X703340D01*
X698840Y864180D02*
Y873180D01*
X426030Y868680D02*
X435030D01*
X430530Y864180D02*
Y873180D01*
X451430Y868680D02*
X460430D01*
X455930Y864180D02*
Y873180D01*
X476830Y868680D02*
X485830D01*
X481330Y864180D02*
Y873180D01*
X591470Y775970D02*
X600470D01*
X595970Y771470D02*
Y780470D01*
X566070Y775970D02*
X575070D01*
X570570Y771470D02*
Y780470D01*
X540670Y775970D02*
X549670D01*
X545170Y771470D02*
Y780470D01*
X799410Y346710D02*
X808410D01*
X803910Y342210D02*
Y351210D01*
X799410Y321310D02*
X808410D01*
X803910Y316810D02*
Y325810D01*
X525090Y824230D02*
X534090D01*
X529590Y819730D02*
Y828730D01*
X499690Y824230D02*
X508690D01*
X504190Y819730D02*
Y828730D01*
X474290Y824230D02*
X483290D01*
X478790Y819730D02*
Y828730D01*
X523820Y477520D02*
X532820D01*
X528320Y473020D02*
Y482020D01*
X498420Y477520D02*
X507420D01*
X502920Y473020D02*
Y482020D01*
X801950Y471170D02*
X810950D01*
X806450Y466670D02*
Y475670D01*
X801950Y445770D02*
X810950D01*
X806450Y441270D02*
Y450270D01*
X266010Y787400D02*
X275010D01*
X270510Y782900D02*
Y791900D01*
X291410Y787400D02*
X300410D01*
X295910Y782900D02*
Y791900D01*
X316810Y787400D02*
X325810D01*
X321310Y782900D02*
Y791900D01*
X342210Y787400D02*
X351210D01*
X346710Y782900D02*
Y791900D01*
X367610Y787400D02*
X376610D01*
X372110Y782900D02*
Y791900D01*
X291410Y826770D02*
X300410D01*
X295910Y822270D02*
Y831270D01*
X266010Y826770D02*
X275010D01*
X270510Y822270D02*
Y831270D01*
X554030Y364490D02*
X561030D01*
X557530Y360990D02*
Y367990D01*
X554030Y288290D02*
X561030D01*
X557530Y284790D02*
Y291790D01*
X503440Y775970D02*
X504940D01*
X504190Y775220D02*
Y776720D01*
X314160Y293420D02*
X315660D01*
X314910Y292670D02*
Y294170D01*
X483120Y521970D02*
X484620D01*
X483870Y521220D02*
Y522720D01*
X476770Y535940D02*
X478270D01*
X477520Y535190D02*
Y536690D01*
X625360Y793750D02*
X626860D01*
X626110Y793000D02*
Y794500D01*
X359930Y535940D02*
X361430D01*
X360680Y535190D02*
Y536690D01*
X467880Y289560D02*
X469380D01*
X468630Y288810D02*
Y290310D01*
X438670Y311150D02*
X440170D01*
X439420Y310400D02*
Y311900D01*
X321830Y725170D02*
X323330D01*
X322580Y724420D02*
Y725920D01*
X671080Y805180D02*
X672580D01*
X671830Y804430D02*
Y805930D01*
X578370Y792480D02*
X579870D01*
X579120Y791730D02*
Y793230D01*
X452640Y765810D02*
X454140D01*
X453390Y765060D02*
Y766560D01*
X541540Y513080D02*
X543040D01*
X542290Y512330D02*
Y513830D01*
X546620Y551180D02*
X548120D01*
X547370Y550430D02*
Y551930D01*
X547890Y596900D02*
X549390D01*
X548640Y596150D02*
Y597650D01*
X546620Y622300D02*
X548120D01*
X547370Y621550D02*
Y623050D01*
X545350Y652780D02*
X546850D01*
X546100Y652030D02*
Y653530D01*
X544080Y683260D02*
X545580D01*
X544830Y682510D02*
Y684010D01*
X545350Y717550D02*
X546850D01*
X546100Y716800D02*
Y718300D01*
X528840Y621030D02*
X530340D01*
X529590Y620280D02*
Y621780D01*
X399935Y620395D02*
X401435D01*
X400685Y619645D02*
Y621145D01*
X481850Y598170D02*
X483350D01*
X482600Y597420D02*
Y598920D01*
X319290Y577850D02*
X320790D01*
X320040Y577100D02*
Y578600D01*
X271030Y607060D02*
X272530D01*
X271780Y606310D02*
Y607810D01*
X613930Y285750D02*
X615430D01*
X614680Y285000D02*
Y286500D01*
X264680Y495300D02*
X266180D01*
X265430Y494550D02*
Y496050D01*
X471690Y579120D02*
X473190D01*
X472440Y578370D02*
Y579870D01*
X458990Y579120D02*
X460490D01*
X459740Y578370D02*
Y579870D01*
X484390Y579120D02*
X485890D01*
X485140Y578370D02*
Y579870D01*
X446290Y579120D02*
X447790D01*
X447040Y578370D02*
Y579870D01*
X422160Y579120D02*
X423660D01*
X422910Y578370D02*
Y579870D01*
X433590Y579120D02*
X435090D01*
X434340Y578370D02*
Y579870D01*
X439940Y487680D02*
X441440D01*
X440690Y486930D02*
Y488430D01*
X337070Y491490D02*
X338570D01*
X337820Y490740D02*
Y492240D01*
X442480Y497840D02*
X443980D01*
X443230Y497090D02*
Y498590D01*
X419620Y480060D02*
X421120D01*
X420370Y479310D02*
Y480810D01*
X319290Y482600D02*
X320790D01*
X320040Y481850D02*
Y483350D01*
X300240Y480060D02*
X301740D01*
X300990Y479310D02*
Y480810D01*
X281190Y721360D02*
X282690D01*
X281940Y720610D02*
Y722110D01*
X293890Y721360D02*
X295390D01*
X294640Y720610D02*
Y722110D01*
X342150Y368300D02*
X343650D01*
X342900Y367550D02*
Y369050D01*
X353580Y368300D02*
X355080D01*
X354330Y367550D02*
Y369050D01*
X307860Y574040D02*
X309360D01*
X308610Y573290D02*
Y574790D01*
X293890Y574040D02*
X295390D01*
X294640Y573290D02*
Y574790D01*
X742200Y450850D02*
X743700D01*
X742950Y450100D02*
Y451600D01*
X742200Y466090D02*
X743700D01*
X742950Y465340D02*
Y466840D01*
X704100Y471170D02*
X705600D01*
X704850Y470420D02*
Y471920D01*
X739025Y337820D02*
X740525D01*
X739775Y337070D02*
Y338570D01*
X739660Y323850D02*
X741160D01*
X740410Y323100D02*
Y324600D01*
X697750Y328930D02*
X699250D01*
X698500Y328180D02*
Y329680D01*
X318020Y312420D02*
X319520D01*
X318770Y311670D02*
Y313170D01*
X312940Y330200D02*
X314440D01*
X313690Y329450D02*
Y330950D01*
X312940Y318770D02*
X314440D01*
X313690Y318020D02*
Y319520D01*
X638150Y809920D02*
X640150D01*
X639150Y808920D02*
Y810920D01*
X638150Y830920D02*
X640150D01*
X639150Y829920D02*
Y831920D01*
X627650Y820420D02*
X629650D01*
X628650Y819420D02*
Y821420D01*
X648650Y820420D02*
X650650D01*
X649650Y819420D02*
Y821420D01*
X638150Y820420D02*
X640150D01*
X639150Y819420D02*
Y821420D01*
M02*
