G04*
G04 #@! TF.GenerationSoftware,Altium Limited,Altium Designer,19.1.8 (144)*
G04*
G04 Layer_Physical_Order=2*
G04 Layer_Color=16711680*
%FSLAX25Y25*%
%MOIN*%
G70*
G01*
G75*
%ADD16C,0.01000*%
%ADD75C,0.01968*%
%ADD77C,0.01500*%
%ADD78R,0.05906X0.05906*%
%ADD79C,0.05906*%
%ADD80C,0.03740*%
%ADD81R,0.05906X0.05906*%
%ADD82C,0.01968*%
%ADD83O,0.07087X0.03543*%
%ADD84C,0.04724*%
%ADD85O,0.05315X0.01772*%
%ADD86R,0.05315X0.01575*%
%ADD87R,0.05512X0.06299*%
%ADD88R,0.07480X0.07480*%
G36*
X267578Y360480D02*
X290279Y337779D01*
X298279Y329779D01*
X301481Y326578D01*
Y221500D01*
X301558Y221110D01*
X301779Y220779D01*
X327481Y195078D01*
X327481Y119422D01*
X309078Y101020D01*
X108904D01*
X101020Y108440D01*
Y350578D01*
X110922Y360480D01*
X267578Y360480D01*
D02*
G37*
%LPC*%
G36*
X238587Y345453D02*
X235134D01*
Y342000D01*
X238587D01*
Y345453D01*
D02*
G37*
G36*
X234134D02*
X230681D01*
Y342000D01*
X234134D01*
Y345453D01*
D02*
G37*
G36*
X173043Y345543D02*
X165957D01*
Y338457D01*
X173043D01*
Y345543D01*
D02*
G37*
G36*
X110043D02*
X102957D01*
Y338457D01*
X110043D01*
Y345543D01*
D02*
G37*
G36*
X268677Y345543D02*
X261591D01*
Y338457D01*
X268677D01*
Y345543D01*
D02*
G37*
G36*
X189500Y345574D02*
X188575Y345452D01*
X187713Y345095D01*
X186973Y344527D01*
X186405Y343787D01*
X186048Y342925D01*
X185926Y342000D01*
X186048Y341075D01*
X186405Y340213D01*
X186973Y339473D01*
X187713Y338905D01*
X188575Y338548D01*
X189500Y338426D01*
X190425Y338548D01*
X191287Y338905D01*
X192027Y339473D01*
X192595Y340213D01*
X192952Y341075D01*
X193074Y342000D01*
X192952Y342925D01*
X192595Y343787D01*
X192027Y344527D01*
X191287Y345095D01*
X190425Y345452D01*
X189500Y345574D01*
D02*
G37*
G36*
X179500D02*
X178575Y345452D01*
X177713Y345095D01*
X176973Y344527D01*
X176405Y343787D01*
X176048Y342925D01*
X175926Y342000D01*
X176048Y341075D01*
X176405Y340213D01*
X176973Y339473D01*
X177713Y338905D01*
X178575Y338548D01*
X179500Y338426D01*
X180425Y338548D01*
X181287Y338905D01*
X182027Y339473D01*
X182595Y340213D01*
X182952Y341075D01*
X183074Y342000D01*
X182952Y342925D01*
X182595Y343787D01*
X182027Y344527D01*
X181287Y345095D01*
X180425Y345452D01*
X179500Y345574D01*
D02*
G37*
G36*
X156500D02*
X155575Y345452D01*
X154713Y345095D01*
X153973Y344527D01*
X153405Y343787D01*
X153048Y342925D01*
X152926Y342000D01*
X153048Y341075D01*
X153328Y340400D01*
X140022Y327094D01*
X136764D01*
X136764Y327094D01*
X136339Y327010D01*
X135978Y326769D01*
X135978Y326769D01*
X120714Y311504D01*
X120473Y311144D01*
X119979Y310965D01*
X119930Y310978D01*
X119595Y311787D01*
X119027Y312527D01*
X118287Y313095D01*
X117425Y313452D01*
X116500Y313574D01*
X115575Y313452D01*
X114713Y313095D01*
X113973Y312527D01*
X113405Y311787D01*
X113048Y310925D01*
X112926Y310000D01*
X113048Y309075D01*
X113328Y308400D01*
X106214Y301286D01*
X105973Y300925D01*
X105888Y300500D01*
X105888Y300500D01*
Y240151D01*
X105865Y240135D01*
X105517Y239615D01*
X105394Y239000D01*
X105517Y238386D01*
X105865Y237865D01*
X106386Y237517D01*
X107000Y237394D01*
X107615Y237517D01*
X108135Y237865D01*
X108483Y238386D01*
X108606Y239000D01*
X108483Y239615D01*
X108135Y240135D01*
X108112Y240151D01*
Y300039D01*
X114900Y306827D01*
X115575Y306548D01*
X116500Y306426D01*
X117425Y306548D01*
X118287Y306905D01*
X119027Y307473D01*
X119595Y308213D01*
X119888Y308921D01*
X120388Y308821D01*
Y227151D01*
X120365Y227135D01*
X120102Y226743D01*
X119542Y226596D01*
X119352Y226786D01*
X118991Y227027D01*
X118566Y227112D01*
X118566Y227112D01*
X117151D01*
X117135Y227135D01*
X116614Y227483D01*
X116000Y227606D01*
X115537Y227514D01*
X115037Y227806D01*
Y252941D01*
X116786Y254690D01*
X117027Y255051D01*
X117112Y255477D01*
X117112Y255477D01*
Y282849D01*
X117135Y282865D01*
X117483Y283385D01*
X117606Y284000D01*
X117483Y284614D01*
X117135Y285135D01*
X116614Y285483D01*
X116000Y285606D01*
X115385Y285483D01*
X114865Y285135D01*
X114517Y284614D01*
X114394Y284000D01*
X114517Y283385D01*
X114865Y282865D01*
X114888Y282849D01*
Y255937D01*
X113139Y254188D01*
X112898Y253827D01*
X112813Y253402D01*
X112813Y253402D01*
Y232227D01*
X112313Y231981D01*
X112112Y232135D01*
Y282849D01*
X112135Y282865D01*
X112483Y283385D01*
X112606Y284000D01*
X112483Y284614D01*
X112135Y285135D01*
X111615Y285483D01*
X111000Y285606D01*
X110386Y285483D01*
X109865Y285135D01*
X109517Y284614D01*
X109394Y284000D01*
X109517Y283385D01*
X109865Y282865D01*
X109888Y282849D01*
Y231500D01*
X109888Y231500D01*
X109973Y231075D01*
X110214Y230714D01*
X111223Y229705D01*
Y224482D01*
X111223Y224482D01*
X111307Y224056D01*
X111548Y223695D01*
X115711Y219533D01*
X115711Y219533D01*
X116072Y219292D01*
X116498Y219207D01*
X116498Y219207D01*
X152655D01*
X171750Y200112D01*
X171543Y199612D01*
X131566D01*
X131566Y199612D01*
X131140Y199527D01*
X130780Y199286D01*
X121605Y190112D01*
X119651D01*
X119635Y190135D01*
X119114Y190483D01*
X118500Y190606D01*
X117885Y190483D01*
X117365Y190135D01*
X117017Y189614D01*
X116894Y189000D01*
X117017Y188385D01*
X117365Y187865D01*
X117885Y187517D01*
X118500Y187394D01*
X119114Y187517D01*
X119635Y187865D01*
X119651Y187888D01*
X122066D01*
X122066Y187888D01*
X122491Y187973D01*
X122852Y188214D01*
X124042Y189404D01*
X124602Y189257D01*
X124865Y188865D01*
X125385Y188517D01*
X126000Y188394D01*
X126614Y188517D01*
X127135Y188865D01*
X127151Y188888D01*
X144313D01*
X147062Y186139D01*
X147062Y186139D01*
X147423Y185898D01*
X147848Y185813D01*
X168425D01*
X168425Y185813D01*
X168851Y185898D01*
X169211Y186139D01*
X173472Y190400D01*
X173500Y190394D01*
X174115Y190517D01*
X174635Y190865D01*
X174963Y191355D01*
X174999Y191360D01*
X175463Y191094D01*
Y187035D01*
X135028Y146600D01*
X135000Y146606D01*
X134547Y146516D01*
X134047Y146812D01*
Y156776D01*
X141135Y163865D01*
X141483Y164385D01*
X141606Y165000D01*
X141483Y165614D01*
X141135Y166135D01*
X140614Y166483D01*
X140000Y166606D01*
X139385Y166483D01*
X138865Y166135D01*
X131306Y158576D01*
X130957Y158055D01*
X130835Y157441D01*
X130835Y157441D01*
Y143940D01*
X130835Y143940D01*
X130957Y143325D01*
X131306Y142805D01*
X136246Y137865D01*
X136767Y137517D01*
X137381Y137394D01*
X137381Y137394D01*
X138835D01*
X144268Y131962D01*
Y116627D01*
X144268Y116627D01*
X144390Y116012D01*
X144738Y115491D01*
X149623Y110606D01*
X149548Y110425D01*
X149426Y109500D01*
X149548Y108575D01*
X149905Y107713D01*
X150473Y106973D01*
X151213Y106405D01*
X152075Y106048D01*
X153000Y105926D01*
X153925Y106048D01*
X154787Y106405D01*
X155527Y106973D01*
X156095Y107713D01*
X156452Y108575D01*
X156574Y109500D01*
X156452Y110425D01*
X156095Y111287D01*
X155527Y112027D01*
X154787Y112595D01*
X153925Y112952D01*
X153000Y113074D01*
X152075Y112952D01*
X151894Y112877D01*
X147479Y117292D01*
Y132627D01*
X147479Y132627D01*
X147357Y133241D01*
X147009Y133762D01*
X140635Y140135D01*
X140635Y140135D01*
X140114Y140483D01*
X139500Y140606D01*
X138046D01*
X135608Y143044D01*
X135751Y143608D01*
X136135Y143865D01*
X136483Y144386D01*
X136606Y145000D01*
X136600Y145028D01*
X137842Y146270D01*
X137885Y146294D01*
X138263Y145984D01*
X138197Y145884D01*
X138017Y145615D01*
X137894Y145000D01*
X138017Y144386D01*
X138365Y143865D01*
X138885Y143517D01*
X139500Y143394D01*
X140114Y143517D01*
X140635Y143865D01*
X140983Y144386D01*
X141106Y145000D01*
X141100Y145028D01*
X184786Y188714D01*
X184786Y188714D01*
X185027Y189075D01*
X185112Y189500D01*
Y203000D01*
X185027Y203426D01*
X184786Y203786D01*
X166646Y221926D01*
X166838Y222388D01*
X167605D01*
X194280Y195714D01*
X194280Y195714D01*
X194640Y195473D01*
X195066Y195388D01*
X195066Y195388D01*
X206487D01*
X209461Y192415D01*
X209269Y191953D01*
X208500D01*
Y188500D01*
X211953D01*
Y189269D01*
X212415Y189461D01*
X220388Y181487D01*
Y180552D01*
X220388Y180552D01*
X220473Y180127D01*
X220714Y179766D01*
X246888Y153592D01*
Y126043D01*
X244457D01*
Y118957D01*
X251543D01*
Y126043D01*
X249112D01*
Y153162D01*
X249574Y153354D01*
X273400Y129528D01*
X273394Y129500D01*
X273517Y128885D01*
X273865Y128365D01*
X274386Y128017D01*
X275000Y127894D01*
X275615Y128017D01*
X276135Y128365D01*
X276483Y128885D01*
X276606Y129500D01*
X276483Y130114D01*
X276135Y130635D01*
X275615Y130983D01*
X275000Y131106D01*
X274972Y131100D01*
X274618Y131454D01*
X274865Y131915D01*
X275000Y131888D01*
X275000Y131888D01*
X290099D01*
X290115Y131865D01*
X290635Y131517D01*
X290805Y131483D01*
X290969Y130940D01*
X290800Y130771D01*
X290559Y130410D01*
X290474Y129984D01*
X290474Y129984D01*
Y128708D01*
X290365Y128635D01*
X290017Y128114D01*
X289894Y127500D01*
X290017Y126885D01*
X290365Y126365D01*
X290885Y126017D01*
X291500Y125894D01*
X292114Y126017D01*
X292635Y126365D01*
X292983Y126885D01*
X293106Y127500D01*
X292983Y128114D01*
X292698Y128542D01*
Y129524D01*
X294111Y130937D01*
X294111Y130937D01*
X294352Y131298D01*
X294437Y131723D01*
X294437Y131723D01*
Y135410D01*
X294437Y135411D01*
X294352Y135836D01*
X294111Y136197D01*
X294111Y136197D01*
X291022Y139286D01*
X290661Y139527D01*
X290235Y139612D01*
X290235Y139612D01*
X272961D01*
X213007Y199565D01*
X213254Y200026D01*
X213500Y199977D01*
X214274Y200131D01*
X214931Y200569D01*
X215369Y201226D01*
X215424Y201500D01*
X213500D01*
Y202000D01*
X213000D01*
Y203924D01*
X212726Y203869D01*
X212069Y203431D01*
X211631Y202774D01*
X211477Y202000D01*
X211526Y201754D01*
X211065Y201507D01*
X192112Y220461D01*
Y226849D01*
X192135Y226865D01*
X192483Y227385D01*
X192606Y228000D01*
X192514Y228463D01*
X192806Y228963D01*
X209465D01*
X257714Y180714D01*
X258074Y180473D01*
X258500Y180388D01*
X288039D01*
X290900Y177528D01*
X290894Y177500D01*
X291017Y176885D01*
X291365Y176365D01*
X291885Y176017D01*
X292500Y175894D01*
X293114Y176017D01*
X293635Y176365D01*
X293983Y176885D01*
X294106Y177500D01*
X293983Y178114D01*
X293635Y178635D01*
X293114Y178983D01*
X292500Y179106D01*
X292472Y179100D01*
X289759Y181813D01*
X289966Y182313D01*
X291441D01*
X291885Y182017D01*
X292500Y181894D01*
X293114Y182017D01*
X293635Y182365D01*
X293983Y182886D01*
X294106Y183500D01*
X293983Y184115D01*
X293635Y184635D01*
X293114Y184983D01*
X292500Y185106D01*
X291885Y184983D01*
X291365Y184635D01*
X291299Y184537D01*
X279306D01*
X279014Y185037D01*
X279106Y185500D01*
X278983Y186115D01*
X278635Y186635D01*
X278115Y186983D01*
X277500Y187106D01*
X276886Y186983D01*
X276365Y186635D01*
X276349Y186612D01*
X261461D01*
X215507Y232565D01*
X215754Y233026D01*
X216000Y232977D01*
X216774Y233131D01*
X217431Y233569D01*
X217869Y234226D01*
X217924Y234500D01*
X213908D01*
X213846Y234444D01*
X213607Y234296D01*
X213244Y234368D01*
X213244Y234368D01*
X191668D01*
X191432Y234809D01*
X191483Y234886D01*
X191606Y235500D01*
X191483Y236115D01*
X191135Y236635D01*
X190614Y236983D01*
X190000Y237106D01*
X189385Y236983D01*
X188865Y236635D01*
X188849Y236612D01*
X153631D01*
X153631Y236612D01*
X153206Y236527D01*
X152845Y236286D01*
X145170Y228612D01*
X127151D01*
X127135Y228635D01*
X126614Y228983D01*
X126000Y229106D01*
X125385Y228983D01*
X124865Y228635D01*
X124517Y228115D01*
X124394Y227500D01*
X124517Y226886D01*
X124865Y226365D01*
X125385Y226017D01*
X126000Y225894D01*
X126614Y226017D01*
X127135Y226365D01*
X127151Y226388D01*
X145631D01*
X145631Y226388D01*
X146057Y226473D01*
X146417Y226714D01*
X154092Y234388D01*
X170608D01*
X170816Y233888D01*
X166528Y229600D01*
X166500Y229606D01*
X165885Y229483D01*
X165365Y229135D01*
X165017Y228614D01*
X164894Y228000D01*
X165017Y227385D01*
X165365Y226865D01*
X165885Y226517D01*
X166500Y226394D01*
X167114Y226517D01*
X167635Y226865D01*
X167983Y227385D01*
X168106Y228000D01*
X168100Y228028D01*
X169342Y229270D01*
X169385Y229294D01*
X169763Y228984D01*
X169697Y228884D01*
X169517Y228614D01*
X169394Y228000D01*
X169517Y227385D01*
X169865Y226865D01*
X170386Y226517D01*
X171000Y226394D01*
X171028Y226400D01*
X172289Y225139D01*
X172649Y224898D01*
X173075Y224813D01*
X173075Y224813D01*
X176859D01*
X176859Y224813D01*
X177285Y224898D01*
X177646Y225139D01*
X179286Y226780D01*
X179714Y226541D01*
X179888Y226388D01*
Y224697D01*
X179888Y224697D01*
X179973Y224272D01*
X180214Y223911D01*
X206051Y198074D01*
X205859Y197612D01*
X195526D01*
X189396Y203742D01*
X189715Y204131D01*
X189885Y204017D01*
X190500Y203894D01*
X191114Y204017D01*
X191635Y204365D01*
X191983Y204886D01*
X192106Y205500D01*
X191983Y206115D01*
X191635Y206635D01*
X191635Y206635D01*
X189606Y208665D01*
Y211000D01*
X189483Y211614D01*
X189135Y212135D01*
X188614Y212483D01*
X188000Y212606D01*
X187385Y212483D01*
X186865Y212135D01*
X186517Y211614D01*
X186394Y211000D01*
Y208000D01*
X186394Y208000D01*
X186517Y207385D01*
X186631Y207215D01*
X186242Y206896D01*
X168852Y224286D01*
X168491Y224527D01*
X168066Y224612D01*
X168066Y224612D01*
X123068D01*
X122801Y225112D01*
X122983Y225385D01*
X123106Y226000D01*
X122983Y226614D01*
X122635Y227135D01*
X122612Y227151D01*
Y308821D01*
X123112Y308921D01*
X123405Y308213D01*
X123973Y307473D01*
X124713Y306905D01*
X125575Y306548D01*
X126500Y306426D01*
X127425Y306548D01*
X128287Y306905D01*
X129027Y307473D01*
X129595Y308213D01*
X129952Y309075D01*
X130074Y310000D01*
X129952Y310925D01*
X129595Y311787D01*
X129027Y312527D01*
X128287Y313095D01*
X127425Y313452D01*
X126620Y313558D01*
X126372Y314018D01*
X137225Y324870D01*
X140482D01*
X140482Y324870D01*
X140908Y324955D01*
X141269Y325196D01*
X154900Y338827D01*
X155575Y338548D01*
X156500Y338426D01*
X157425Y338548D01*
X158287Y338905D01*
X159027Y339473D01*
X159595Y340213D01*
X159952Y341075D01*
X160074Y342000D01*
X159952Y342925D01*
X159595Y343787D01*
X159027Y344527D01*
X158287Y345095D01*
X157425Y345452D01*
X156500Y345574D01*
D02*
G37*
G36*
X146500D02*
X145575Y345452D01*
X144713Y345095D01*
X143973Y344527D01*
X143405Y343787D01*
X143048Y342925D01*
X142926Y342000D01*
X143048Y341075D01*
X143405Y340213D01*
X143973Y339473D01*
X144713Y338905D01*
X145575Y338548D01*
X146500Y338426D01*
X147425Y338548D01*
X148287Y338905D01*
X149027Y339473D01*
X149595Y340213D01*
X149952Y341075D01*
X150074Y342000D01*
X149952Y342925D01*
X149595Y343787D01*
X149027Y344527D01*
X148287Y345095D01*
X147425Y345452D01*
X146500Y345574D01*
D02*
G37*
G36*
X136500D02*
X135575Y345452D01*
X134713Y345095D01*
X133973Y344527D01*
X133405Y343787D01*
X133048Y342925D01*
X132926Y342000D01*
X133048Y341075D01*
X133405Y340213D01*
X133973Y339473D01*
X134713Y338905D01*
X135575Y338548D01*
X136500Y338426D01*
X137425Y338548D01*
X138287Y338905D01*
X139027Y339473D01*
X139595Y340213D01*
X139952Y341075D01*
X140074Y342000D01*
X139952Y342925D01*
X139595Y343787D01*
X139027Y344527D01*
X138287Y345095D01*
X137425Y345452D01*
X136500Y345574D01*
D02*
G37*
G36*
X126500D02*
X125575Y345452D01*
X124713Y345095D01*
X123973Y344527D01*
X123405Y343787D01*
X123048Y342925D01*
X122926Y342000D01*
X123048Y341075D01*
X123405Y340213D01*
X123973Y339473D01*
X124713Y338905D01*
X125575Y338548D01*
X126500Y338426D01*
X127425Y338548D01*
X128287Y338905D01*
X129027Y339473D01*
X129595Y340213D01*
X129952Y341075D01*
X130074Y342000D01*
X129952Y342925D01*
X129595Y343787D01*
X129027Y344527D01*
X128287Y345095D01*
X127425Y345452D01*
X126500Y345574D01*
D02*
G37*
G36*
X116500D02*
X115575Y345452D01*
X114713Y345095D01*
X113973Y344527D01*
X113405Y343787D01*
X113048Y342925D01*
X112926Y342000D01*
X113048Y341075D01*
X113405Y340213D01*
X113973Y339473D01*
X114713Y338905D01*
X115575Y338548D01*
X116500Y338426D01*
X117425Y338548D01*
X118287Y338905D01*
X119027Y339473D01*
X119595Y340213D01*
X119952Y341075D01*
X120074Y342000D01*
X119952Y342925D01*
X119595Y343787D01*
X119027Y344527D01*
X118287Y345095D01*
X117425Y345452D01*
X116500Y345574D01*
D02*
G37*
G36*
X275134Y345574D02*
X274209Y345452D01*
X273347Y345095D01*
X272607Y344527D01*
X272039Y343787D01*
X271682Y342925D01*
X271560Y342000D01*
X271682Y341075D01*
X272039Y340213D01*
X272607Y339473D01*
X273347Y338905D01*
X274209Y338548D01*
X275134Y338426D01*
X276059Y338548D01*
X276921Y338905D01*
X277661Y339473D01*
X278229Y340213D01*
X278586Y341075D01*
X278708Y342000D01*
X278586Y342925D01*
X278229Y343787D01*
X277661Y344527D01*
X276921Y345095D01*
X276059Y345452D01*
X275134Y345574D01*
D02*
G37*
G36*
X224634Y345074D02*
X223709Y344952D01*
X222847Y344595D01*
X222107Y344027D01*
X221539Y343287D01*
X221182Y342425D01*
X221060Y341500D01*
X221182Y340575D01*
X221539Y339713D01*
X222107Y338973D01*
X222847Y338405D01*
X223709Y338048D01*
X224634Y337926D01*
X225559Y338048D01*
X226421Y338405D01*
X227161Y338973D01*
X227729Y339713D01*
X228086Y340575D01*
X228208Y341500D01*
X228086Y342425D01*
X227729Y343287D01*
X227161Y344027D01*
X226421Y344595D01*
X225559Y344952D01*
X224634Y345074D01*
D02*
G37*
G36*
X214634D02*
X213709Y344952D01*
X212847Y344595D01*
X212107Y344027D01*
X211539Y343287D01*
X211182Y342425D01*
X211060Y341500D01*
X211182Y340575D01*
X211539Y339713D01*
X212107Y338973D01*
X212847Y338405D01*
X213709Y338048D01*
X214634Y337926D01*
X215559Y338048D01*
X216421Y338405D01*
X217161Y338973D01*
X217729Y339713D01*
X218086Y340575D01*
X218208Y341500D01*
X218086Y342425D01*
X217729Y343287D01*
X217161Y344027D01*
X216421Y344595D01*
X215559Y344952D01*
X214634Y345074D01*
D02*
G37*
G36*
X238587Y341000D02*
X235134D01*
Y337547D01*
X238587D01*
Y341000D01*
D02*
G37*
G36*
X234134D02*
X230681D01*
Y337547D01*
X234134D01*
Y341000D01*
D02*
G37*
G36*
X251634Y328740D02*
X251019Y328617D01*
X250499Y328269D01*
X250150Y327748D01*
X250028Y327134D01*
X250150Y326519D01*
X250499Y325998D01*
X251019Y325650D01*
X251634Y325528D01*
X252248Y325650D01*
X252769Y325998D01*
X253117Y326519D01*
X253239Y327134D01*
X253117Y327748D01*
X252769Y328269D01*
X252248Y328617D01*
X251634Y328740D01*
D02*
G37*
G36*
X120043Y329043D02*
X112957D01*
Y321957D01*
X120043D01*
Y329043D01*
D02*
G37*
G36*
X106500Y329074D02*
X105575Y328952D01*
X104713Y328595D01*
X103973Y328027D01*
X103405Y327287D01*
X103048Y326425D01*
X102926Y325500D01*
X103048Y324575D01*
X103405Y323713D01*
X103973Y322973D01*
X104713Y322405D01*
X105575Y322048D01*
X106500Y321926D01*
X107425Y322048D01*
X108287Y322405D01*
X109027Y322973D01*
X109595Y323713D01*
X109952Y324575D01*
X110074Y325500D01*
X109952Y326425D01*
X109595Y327287D01*
X109027Y328027D01*
X108287Y328595D01*
X107425Y328952D01*
X106500Y329074D01*
D02*
G37*
G36*
X255768Y324606D02*
X255153Y324483D01*
X254632Y324135D01*
X254284Y323615D01*
X254162Y323000D01*
X254284Y322386D01*
X254632Y321865D01*
X255153Y321517D01*
X255768Y321394D01*
X256382Y321517D01*
X256903Y321865D01*
X257251Y322386D01*
X257373Y323000D01*
X257251Y323615D01*
X256903Y324135D01*
X256382Y324483D01*
X255768Y324606D01*
D02*
G37*
G36*
X251634D02*
X251019Y324483D01*
X250499Y324135D01*
X250150Y323615D01*
X250028Y323000D01*
X250150Y322386D01*
X250499Y321865D01*
X251019Y321517D01*
X251634Y321394D01*
X252248Y321517D01*
X252769Y321865D01*
X253117Y322386D01*
X253239Y323000D01*
X253117Y323615D01*
X252769Y324135D01*
X252248Y324483D01*
X251634Y324606D01*
D02*
G37*
G36*
X247500D02*
X246885Y324483D01*
X246365Y324135D01*
X246017Y323615D01*
X245894Y323000D01*
X246017Y322386D01*
X246365Y321865D01*
X246885Y321517D01*
X247500Y321394D01*
X248114Y321517D01*
X248635Y321865D01*
X248983Y322386D01*
X249106Y323000D01*
X248983Y323615D01*
X248635Y324135D01*
X248114Y324483D01*
X247500Y324606D01*
D02*
G37*
G36*
X212043Y328043D02*
X204957D01*
Y320957D01*
X212043D01*
Y328043D01*
D02*
G37*
G36*
X198500Y328074D02*
X197575Y327952D01*
X196713Y327595D01*
X195973Y327027D01*
X195405Y326287D01*
X195048Y325425D01*
X194926Y324500D01*
X195048Y323575D01*
X195405Y322713D01*
X195973Y321973D01*
X196713Y321405D01*
X197575Y321048D01*
X198500Y320926D01*
X199425Y321048D01*
X200287Y321405D01*
X201027Y321973D01*
X201595Y322713D01*
X201952Y323575D01*
X202074Y324500D01*
X201952Y325425D01*
X201595Y326287D01*
X201027Y327027D01*
X200287Y327595D01*
X199425Y327952D01*
X198500Y328074D01*
D02*
G37*
G36*
X188500D02*
X187575Y327952D01*
X186713Y327595D01*
X185973Y327027D01*
X185405Y326287D01*
X185048Y325425D01*
X184926Y324500D01*
X185048Y323575D01*
X185405Y322713D01*
X185973Y321973D01*
X186713Y321405D01*
X187575Y321048D01*
X188500Y320926D01*
X189425Y321048D01*
X190287Y321405D01*
X191027Y321973D01*
X191595Y322713D01*
X191952Y323575D01*
X192074Y324500D01*
X191952Y325425D01*
X191595Y326287D01*
X191027Y327027D01*
X190287Y327595D01*
X189425Y327952D01*
X188500Y328074D01*
D02*
G37*
G36*
X251634Y320472D02*
X251019Y320350D01*
X250499Y320002D01*
X250150Y319481D01*
X250028Y318866D01*
X250150Y318252D01*
X250499Y317731D01*
X251019Y317383D01*
X251634Y317261D01*
X252248Y317383D01*
X252769Y317731D01*
X253117Y318252D01*
X253239Y318866D01*
X253117Y319481D01*
X252769Y320002D01*
X252248Y320350D01*
X251634Y320472D01*
D02*
G37*
G36*
X264500Y318606D02*
X263885Y318483D01*
X263365Y318135D01*
X263017Y317615D01*
X262894Y317000D01*
X262900Y316972D01*
X255891Y309963D01*
X255650Y309603D01*
X255565Y309177D01*
X255565Y309177D01*
Y308543D01*
X249091D01*
Y301457D01*
X254313D01*
X254504Y300995D01*
X240121Y286612D01*
X128151D01*
X128135Y286635D01*
X127614Y286983D01*
X127000Y287106D01*
X126385Y286983D01*
X125865Y286635D01*
X125517Y286115D01*
X125394Y285500D01*
X125517Y284886D01*
X125865Y284365D01*
X126385Y284017D01*
X127000Y283894D01*
X127614Y284017D01*
X128135Y284365D01*
X128151Y284388D01*
X213354D01*
X213492Y284095D01*
X213541Y283888D01*
X213131Y283274D01*
X213076Y283000D01*
X216924D01*
X216869Y283274D01*
X216459Y283888D01*
X216508Y284095D01*
X216646Y284388D01*
X240582D01*
X240582Y284388D01*
X241007Y284473D01*
X241368Y284714D01*
X257463Y300809D01*
X257704Y301170D01*
X257789Y301595D01*
X257789Y301596D01*
Y308717D01*
X264472Y315400D01*
X264500Y315394D01*
X265114Y315517D01*
X265635Y315865D01*
X265983Y316386D01*
X266106Y317000D01*
X265983Y317615D01*
X265635Y318135D01*
X265114Y318483D01*
X264500Y318606D01*
D02*
G37*
G36*
X228000Y313606D02*
X227385Y313483D01*
X226865Y313135D01*
X226849Y313112D01*
X225416D01*
X225416Y313112D01*
X224990Y313027D01*
X224629Y312786D01*
X224629Y312786D01*
X218848Y307004D01*
X218607Y306644D01*
X218113Y306465D01*
X218064Y306478D01*
X217729Y307287D01*
X217161Y308027D01*
X216421Y308595D01*
X215559Y308952D01*
X214634Y309074D01*
X213709Y308952D01*
X212847Y308595D01*
X212107Y308027D01*
X211539Y307287D01*
X211464Y307106D01*
X198500D01*
X197886Y306983D01*
X197365Y306635D01*
X197017Y306115D01*
X196894Y305500D01*
X197017Y304886D01*
X197365Y304365D01*
X197886Y304017D01*
X198500Y303894D01*
X211464D01*
X211539Y303713D01*
X212033Y303069D01*
X211883Y302569D01*
X179680D01*
X179635Y302635D01*
X179114Y302983D01*
X178500Y303106D01*
X177885Y302983D01*
X177365Y302635D01*
X177017Y302115D01*
X176894Y301500D01*
X177017Y300886D01*
X177365Y300365D01*
X177885Y300017D01*
X178500Y299894D01*
X179114Y300017D01*
X179606Y300345D01*
X216309D01*
X216309Y300345D01*
X216734Y300429D01*
X217095Y300670D01*
X220420Y303996D01*
X220420Y303996D01*
X220661Y304356D01*
X221155Y304535D01*
X221204Y304522D01*
X221539Y303713D01*
X222107Y302973D01*
X222847Y302405D01*
X223709Y302048D01*
X224634Y301926D01*
X225559Y302048D01*
X226421Y302405D01*
X227161Y302973D01*
X227729Y303713D01*
X228086Y304575D01*
X228208Y305500D01*
X228086Y306425D01*
X227729Y307287D01*
X227161Y308027D01*
X226421Y308595D01*
X225559Y308952D01*
X224753Y309058D01*
X224506Y309518D01*
X225876Y310888D01*
X226849D01*
X226865Y310865D01*
X227385Y310517D01*
X228000Y310394D01*
X228614Y310517D01*
X229135Y310865D01*
X229483Y311385D01*
X229606Y312000D01*
X229483Y312614D01*
X229135Y313135D01*
X228614Y313483D01*
X228000Y313606D01*
D02*
G37*
G36*
X247000Y314424D02*
Y313000D01*
X248424D01*
X248369Y313274D01*
X247931Y313931D01*
X247274Y314369D01*
X247000Y314424D01*
D02*
G37*
G36*
X246000D02*
X245726Y314369D01*
X245069Y313931D01*
X244631Y313274D01*
X244576Y313000D01*
X246000D01*
Y314424D01*
D02*
G37*
G36*
X248424Y312000D02*
X247000D01*
Y310576D01*
X247274Y310631D01*
X247931Y311069D01*
X248369Y311726D01*
X248424Y312000D01*
D02*
G37*
G36*
X246000D02*
X244576D01*
X244631Y311726D01*
X245069Y311069D01*
X245726Y310631D01*
X246000Y310576D01*
Y312000D01*
D02*
G37*
G36*
X150453Y313953D02*
X147000D01*
Y310500D01*
X150453D01*
Y313953D01*
D02*
G37*
G36*
X146000D02*
X142547D01*
Y310500D01*
X146000D01*
Y313953D01*
D02*
G37*
G36*
X281677Y315543D02*
X274591D01*
Y308457D01*
X281677D01*
Y315543D01*
D02*
G37*
G36*
X288134Y315574D02*
X287209Y315452D01*
X286347Y315095D01*
X285607Y314527D01*
X285039Y313787D01*
X284682Y312925D01*
X284560Y312000D01*
X284682Y311075D01*
X285039Y310213D01*
X285607Y309473D01*
X286347Y308905D01*
X287209Y308548D01*
X288134Y308426D01*
X289059Y308548D01*
X289921Y308905D01*
X290661Y309473D01*
X291229Y310213D01*
X291586Y311075D01*
X291708Y312000D01*
X291586Y312925D01*
X291229Y313787D01*
X290661Y314527D01*
X289921Y315095D01*
X289059Y315452D01*
X288134Y315574D01*
D02*
G37*
G36*
X136500Y313574D02*
X135575Y313452D01*
X134713Y313095D01*
X133973Y312527D01*
X133405Y311787D01*
X133048Y310925D01*
X132926Y310000D01*
X133048Y309075D01*
X133405Y308213D01*
X133973Y307473D01*
X134713Y306905D01*
X135575Y306548D01*
X136500Y306426D01*
X137425Y306548D01*
X138287Y306905D01*
X139027Y307473D01*
X139595Y308213D01*
X139952Y309075D01*
X140074Y310000D01*
X139952Y310925D01*
X139595Y311787D01*
X139027Y312527D01*
X138287Y313095D01*
X137425Y313452D01*
X136500Y313574D01*
D02*
G37*
G36*
X106500D02*
X105575Y313452D01*
X104713Y313095D01*
X103973Y312527D01*
X103405Y311787D01*
X103048Y310925D01*
X102926Y310000D01*
X103048Y309075D01*
X103405Y308213D01*
X103973Y307473D01*
X104713Y306905D01*
X105575Y306548D01*
X106500Y306426D01*
X107425Y306548D01*
X108287Y306905D01*
X109027Y307473D01*
X109595Y308213D01*
X109952Y309075D01*
X110074Y310000D01*
X109952Y310925D01*
X109595Y311787D01*
X109027Y312527D01*
X108287Y313095D01*
X107425Y313452D01*
X106500Y313574D01*
D02*
G37*
G36*
X150453Y309500D02*
X147000D01*
Y306047D01*
X150453D01*
Y309500D01*
D02*
G37*
G36*
X146000D02*
X142547D01*
Y306047D01*
X146000D01*
Y309500D01*
D02*
G37*
G36*
X238587Y309453D02*
X235134D01*
Y306000D01*
X238587D01*
Y309453D01*
D02*
G37*
G36*
X234134D02*
X230681D01*
Y306000D01*
X234134D01*
Y309453D01*
D02*
G37*
G36*
X238587Y305000D02*
X235134D01*
Y301547D01*
X238587D01*
Y305000D01*
D02*
G37*
G36*
X234134D02*
X230681D01*
Y301547D01*
X234134D01*
Y305000D01*
D02*
G37*
G36*
X262634Y308574D02*
X261709Y308452D01*
X260847Y308095D01*
X260107Y307527D01*
X259539Y306787D01*
X259182Y305925D01*
X259060Y305000D01*
X259182Y304075D01*
X259539Y303213D01*
X260107Y302473D01*
X260847Y301905D01*
X261709Y301548D01*
X262634Y301426D01*
X263559Y301548D01*
X264421Y301905D01*
X265161Y302473D01*
X265729Y303213D01*
X266086Y304075D01*
X266208Y305000D01*
X266086Y305925D01*
X265729Y306787D01*
X265161Y307527D01*
X264421Y308095D01*
X263559Y308452D01*
X262634Y308574D01*
D02*
G37*
G36*
X216924Y282000D02*
X215500D01*
Y280576D01*
X215774Y280631D01*
X216431Y281069D01*
X216869Y281726D01*
X216924Y282000D01*
D02*
G37*
G36*
X214500D02*
X213076D01*
X213131Y281726D01*
X213569Y281069D01*
X214226Y280631D01*
X214500Y280576D01*
Y282000D01*
D02*
G37*
G36*
X215000Y270924D02*
Y269500D01*
X216424D01*
X216369Y269774D01*
X215931Y270431D01*
X215274Y270869D01*
X215000Y270924D01*
D02*
G37*
G36*
X214000D02*
X213726Y270869D01*
X213069Y270431D01*
X212631Y269774D01*
X212576Y269500D01*
X214000D01*
Y270924D01*
D02*
G37*
G36*
X216424Y268500D02*
X215000D01*
Y267076D01*
X215274Y267131D01*
X215931Y267569D01*
X216369Y268226D01*
X216424Y268500D01*
D02*
G37*
G36*
X214000D02*
X212576D01*
X212631Y268226D01*
X213069Y267569D01*
X213726Y267131D01*
X214000Y267076D01*
Y268500D01*
D02*
G37*
G36*
X283000Y269009D02*
X282040Y268818D01*
X281226Y268274D01*
X280682Y267460D01*
X280491Y266500D01*
X280682Y265540D01*
X281226Y264726D01*
X282040Y264182D01*
X283000Y263991D01*
X283960Y264182D01*
X284774Y264726D01*
X285318Y265540D01*
X285509Y266500D01*
X285318Y267460D01*
X284774Y268274D01*
X283960Y268818D01*
X283000Y269009D01*
D02*
G37*
G36*
X215500Y258924D02*
Y257500D01*
X216924D01*
X216869Y257774D01*
X216431Y258431D01*
X215774Y258869D01*
X215500Y258924D01*
D02*
G37*
G36*
X214500D02*
X214226Y258869D01*
X213569Y258431D01*
X213131Y257774D01*
X213076Y257500D01*
X214500D01*
Y258924D01*
D02*
G37*
G36*
X216924Y256500D02*
X215500D01*
Y255076D01*
X215774Y255131D01*
X216431Y255569D01*
X216869Y256226D01*
X216924Y256500D01*
D02*
G37*
G36*
X214500D02*
X213076D01*
X213131Y256226D01*
X213569Y255569D01*
X214226Y255131D01*
X214500Y255076D01*
Y256500D01*
D02*
G37*
G36*
X216000Y246924D02*
Y245500D01*
X217424D01*
X217369Y245774D01*
X216931Y246431D01*
X216274Y246869D01*
X216000Y246924D01*
D02*
G37*
G36*
X215000D02*
X214726Y246869D01*
X214069Y246431D01*
X213631Y245774D01*
X213576Y245500D01*
X215000D01*
Y246924D01*
D02*
G37*
G36*
X208500Y246106D02*
X207886Y245983D01*
X207365Y245635D01*
X207265Y245487D01*
X158733D01*
X158364Y245733D01*
X157750Y245856D01*
X157135Y245733D01*
X156615Y245385D01*
X156267Y244865D01*
X156144Y244250D01*
X156267Y243636D01*
X156615Y243115D01*
X157135Y242767D01*
X157750Y242644D01*
X158364Y242767D01*
X158885Y243115D01*
X158985Y243263D01*
X207517D01*
X207886Y243017D01*
X208500Y242894D01*
X209115Y243017D01*
X209635Y243365D01*
X209983Y243885D01*
X210106Y244500D01*
X209983Y245114D01*
X209635Y245635D01*
X209115Y245983D01*
X208500Y246106D01*
D02*
G37*
G36*
X217424Y244500D02*
X216000D01*
Y243076D01*
X216274Y243131D01*
X216931Y243569D01*
X217369Y244226D01*
X217424Y244500D01*
D02*
G37*
G36*
X215000D02*
X213576D01*
X213631Y244226D01*
X214069Y243569D01*
X214726Y243131D01*
X215000Y243076D01*
Y244500D01*
D02*
G37*
G36*
X283000Y242237D02*
X282040Y242046D01*
X281226Y241502D01*
X280682Y240688D01*
X280491Y239728D01*
X280682Y238768D01*
X281226Y237954D01*
X282040Y237410D01*
X283000Y237220D01*
X283960Y237410D01*
X284774Y237954D01*
X285318Y238768D01*
X285509Y239728D01*
X285318Y240688D01*
X284774Y241502D01*
X283960Y242046D01*
X283000Y242237D01*
D02*
G37*
G36*
X216500Y236924D02*
Y235500D01*
X217924D01*
X217869Y235774D01*
X217431Y236431D01*
X216774Y236869D01*
X216500Y236924D01*
D02*
G37*
G36*
X215500D02*
X215226Y236869D01*
X214569Y236431D01*
X214131Y235774D01*
X214076Y235500D01*
X215500D01*
Y236924D01*
D02*
G37*
G36*
X267764Y266155D02*
X251819D01*
X251367Y265968D01*
X251180Y265516D01*
Y225358D01*
X251367Y224906D01*
X251819Y224719D01*
X267764D01*
X268216Y224906D01*
X268403Y225358D01*
Y265516D01*
X268216Y265968D01*
X267764Y266155D01*
D02*
G37*
G36*
X216000Y218924D02*
Y217500D01*
X217424D01*
X217369Y217774D01*
X216931Y218431D01*
X216274Y218869D01*
X216000Y218924D01*
D02*
G37*
G36*
X215000D02*
X214726Y218869D01*
X214069Y218431D01*
X213631Y217774D01*
X213576Y217500D01*
X215000D01*
Y218924D01*
D02*
G37*
G36*
X217424Y216500D02*
X216000D01*
Y215076D01*
X216274Y215131D01*
X216931Y215569D01*
X217369Y216226D01*
X217424Y216500D01*
D02*
G37*
G36*
X215000D02*
X213576D01*
X213631Y216226D01*
X214069Y215569D01*
X214726Y215131D01*
X215000Y215076D01*
Y216500D01*
D02*
G37*
G36*
X142500Y212924D02*
Y211500D01*
X143924D01*
X143869Y211774D01*
X143431Y212431D01*
X142774Y212869D01*
X142500Y212924D01*
D02*
G37*
G36*
X141500D02*
X141226Y212869D01*
X140569Y212431D01*
X140131Y211774D01*
X140076Y211500D01*
X141500D01*
Y212924D01*
D02*
G37*
G36*
X143924Y210500D02*
X142500D01*
Y209076D01*
X142774Y209131D01*
X143431Y209569D01*
X143869Y210226D01*
X143924Y210500D01*
D02*
G37*
G36*
X141500D02*
X140076D01*
X140131Y210226D01*
X140569Y209569D01*
X141226Y209131D01*
X141500Y209076D01*
Y210500D01*
D02*
G37*
G36*
X214000Y203924D02*
Y202500D01*
X215424D01*
X215369Y202774D01*
X214931Y203431D01*
X214274Y203869D01*
X214000Y203924D01*
D02*
G37*
G36*
X105000Y196924D02*
Y195500D01*
X106424D01*
X106369Y195774D01*
X105931Y196431D01*
X105274Y196869D01*
X105000Y196924D01*
D02*
G37*
G36*
X104000D02*
X103726Y196869D01*
X103069Y196431D01*
X102631Y195774D01*
X102576Y195500D01*
X104000D01*
Y196924D01*
D02*
G37*
G36*
X106424Y194500D02*
X105000D01*
Y193076D01*
X105274Y193131D01*
X105931Y193569D01*
X106369Y194226D01*
X106424Y194500D01*
D02*
G37*
G36*
X104000D02*
X102576D01*
X102631Y194226D01*
X103069Y193569D01*
X103726Y193131D01*
X104000Y193076D01*
Y194500D01*
D02*
G37*
G36*
X207500Y191953D02*
X204047D01*
Y188500D01*
X207500D01*
Y191953D01*
D02*
G37*
G36*
X198000Y191574D02*
X197075Y191452D01*
X196213Y191095D01*
X195473Y190527D01*
X194905Y189787D01*
X194548Y188925D01*
X194426Y188000D01*
X194548Y187075D01*
X194905Y186213D01*
X195473Y185473D01*
X196213Y184905D01*
X197075Y184548D01*
X198000Y184426D01*
X198925Y184548D01*
X199787Y184905D01*
X200527Y185473D01*
X201095Y186213D01*
X201452Y187075D01*
X201574Y188000D01*
X201452Y188925D01*
X201095Y189787D01*
X200527Y190527D01*
X199787Y191095D01*
X198925Y191452D01*
X198000Y191574D01*
D02*
G37*
G36*
X211953Y187500D02*
X208500D01*
Y184047D01*
X211953D01*
Y187500D01*
D02*
G37*
G36*
X207500D02*
X204047D01*
Y184047D01*
X207500D01*
Y187500D01*
D02*
G37*
G36*
X321043Y189043D02*
X313957D01*
Y181957D01*
X321043D01*
Y189043D01*
D02*
G37*
G36*
X212453Y178953D02*
X209000D01*
Y175500D01*
X212453D01*
Y178953D01*
D02*
G37*
G36*
X208000D02*
X204547D01*
Y175500D01*
X208000D01*
Y178953D01*
D02*
G37*
G36*
X317500Y179074D02*
X316575Y178952D01*
X315713Y178595D01*
X314973Y178027D01*
X314405Y177287D01*
X314048Y176425D01*
X313926Y175500D01*
X314048Y174575D01*
X314405Y173713D01*
X314973Y172973D01*
X315713Y172405D01*
X316575Y172048D01*
X317500Y171926D01*
X318425Y172048D01*
X319287Y172405D01*
X320027Y172973D01*
X320595Y173713D01*
X320952Y174575D01*
X321074Y175500D01*
X320952Y176425D01*
X320595Y177287D01*
X320027Y178027D01*
X319287Y178595D01*
X318425Y178952D01*
X317500Y179074D01*
D02*
G37*
G36*
X212453Y174500D02*
X209000D01*
Y171047D01*
X212453D01*
Y174500D01*
D02*
G37*
G36*
X208000D02*
X204547D01*
Y171047D01*
X208000D01*
Y174500D01*
D02*
G37*
G36*
X109500Y174574D02*
X108575Y174452D01*
X107713Y174095D01*
X106973Y173527D01*
X106405Y172787D01*
X106048Y171925D01*
X105926Y171000D01*
X106048Y170075D01*
X106405Y169213D01*
X106973Y168473D01*
X107713Y167905D01*
X108575Y167548D01*
X109500Y167426D01*
X110425Y167548D01*
X111287Y167905D01*
X112027Y168473D01*
X112595Y169213D01*
X112952Y170075D01*
X113074Y171000D01*
X112952Y171925D01*
X112595Y172787D01*
X112027Y173527D01*
X111287Y174095D01*
X110425Y174452D01*
X109500Y174574D01*
D02*
G37*
G36*
X208500Y168574D02*
X207575Y168452D01*
X206713Y168095D01*
X205973Y167527D01*
X205405Y166787D01*
X205048Y165925D01*
X204926Y165000D01*
X205048Y164075D01*
X205405Y163213D01*
X205973Y162473D01*
X206713Y161905D01*
X207575Y161548D01*
X208500Y161426D01*
X209425Y161548D01*
X210287Y161905D01*
X211027Y162473D01*
X211595Y163213D01*
X211952Y164075D01*
X212074Y165000D01*
X211952Y165925D01*
X211595Y166787D01*
X211027Y167527D01*
X210287Y168095D01*
X209425Y168452D01*
X208500Y168574D01*
D02*
G37*
G36*
X109500Y164574D02*
X108575Y164452D01*
X107713Y164095D01*
X106973Y163527D01*
X106405Y162787D01*
X106048Y161925D01*
X105926Y161000D01*
X106048Y160075D01*
X106405Y159213D01*
X106973Y158473D01*
X107713Y157905D01*
X108575Y157548D01*
X109500Y157426D01*
X110425Y157548D01*
X111287Y157905D01*
X112027Y158473D01*
X112595Y159213D01*
X112952Y160075D01*
X113074Y161000D01*
X112952Y161925D01*
X112595Y162787D01*
X112027Y163527D01*
X111287Y164095D01*
X110425Y164452D01*
X109500Y164574D01*
D02*
G37*
G36*
X113043Y154543D02*
X105957D01*
Y147457D01*
X113043D01*
Y154543D01*
D02*
G37*
G36*
X219500Y146478D02*
X218729Y146377D01*
X218011Y146079D01*
X217394Y145606D01*
X216921Y144989D01*
X216623Y144271D01*
X216522Y143500D01*
X216623Y142729D01*
X216921Y142011D01*
X217394Y141394D01*
X218011Y140921D01*
X218729Y140623D01*
X219500Y140522D01*
X220271Y140623D01*
X220989Y140921D01*
X221606Y141394D01*
X222079Y142011D01*
X222377Y142729D01*
X222478Y143500D01*
X222377Y144271D01*
X222079Y144989D01*
X221606Y145606D01*
X220989Y146079D01*
X220271Y146377D01*
X219500Y146478D01*
D02*
G37*
G36*
X120961Y144457D02*
X114268D01*
Y136976D01*
X117101D01*
Y134614D01*
X115252D01*
Y134348D01*
X112299D01*
Y137173D01*
X109574D01*
Y138702D01*
X109740D01*
X110662Y138885D01*
X111443Y139407D01*
X111965Y140189D01*
X112149Y141110D01*
X111965Y142032D01*
X111443Y142813D01*
X110662Y143335D01*
X109740Y143519D01*
X106197D01*
X105275Y143335D01*
X104494Y142813D01*
X103972Y142032D01*
X103788Y141110D01*
X103972Y140189D01*
X104494Y139407D01*
X105275Y138885D01*
X106197Y138702D01*
X106363D01*
Y137173D01*
X103638D01*
Y128512D01*
X106857D01*
Y127724D01*
X103638D01*
Y119063D01*
X106363D01*
Y117534D01*
X106197D01*
X105275Y117351D01*
X104494Y116829D01*
X103972Y116048D01*
X103788Y115126D01*
X103972Y114204D01*
X104494Y113423D01*
X105275Y112901D01*
X106197Y112717D01*
X109740D01*
X110662Y112901D01*
X111443Y113423D01*
X111965Y114204D01*
X112063Y114697D01*
X112606Y114861D01*
X112733Y114734D01*
X112733Y114733D01*
X113094Y114492D01*
X113520Y114408D01*
X113520Y114408D01*
X114268D01*
Y111779D01*
X120961D01*
Y113914D01*
X123901D01*
X124000Y113894D01*
X124615Y114017D01*
X125135Y114365D01*
X125483Y114885D01*
X125606Y115500D01*
X125483Y116114D01*
X125135Y116635D01*
X125116Y116655D01*
X124595Y117003D01*
X123980Y117125D01*
X123980Y117125D01*
X120961D01*
Y119260D01*
X114268D01*
Y117051D01*
X113768Y116844D01*
X112321Y118291D01*
Y120153D01*
X112321Y120153D01*
X112299Y120261D01*
Y127724D01*
X109080D01*
Y128512D01*
X112299D01*
Y132124D01*
X115252D01*
Y129299D01*
Y126740D01*
Y124181D01*
Y121622D01*
X121748D01*
Y121888D01*
X124349D01*
X124365Y121865D01*
X124885Y121517D01*
X125500Y121394D01*
X126114Y121517D01*
X126635Y121865D01*
X126651Y121888D01*
X130075D01*
X130075Y121888D01*
X130500Y121973D01*
X130861Y122214D01*
X133314Y124667D01*
X133668Y124709D01*
X133859Y124698D01*
X133936Y124669D01*
X134385Y124369D01*
X134961Y124255D01*
X138504D01*
X139080Y124369D01*
X139568Y124695D01*
X139895Y125184D01*
X140009Y125760D01*
X139895Y126336D01*
X139568Y126824D01*
X139080Y127150D01*
X138504Y127265D01*
X135228D01*
X134976Y127753D01*
X135165Y127995D01*
X138504D01*
X139080Y128109D01*
X139568Y128436D01*
X139895Y128924D01*
X140009Y129500D01*
X139895Y130076D01*
X139568Y130564D01*
X139080Y130891D01*
X138504Y131005D01*
X134961D01*
X134385Y130891D01*
X133896Y130564D01*
X133570Y130076D01*
X133472Y129584D01*
X131801Y127913D01*
X131560Y127552D01*
X131476Y127131D01*
X131406Y127073D01*
X130975Y126910D01*
X130615Y127150D01*
X130039Y127265D01*
X126496D01*
X125920Y127150D01*
X125584Y126926D01*
X124201D01*
X124115Y126983D01*
X123500Y127106D01*
X122886Y126983D01*
X122624Y127402D01*
X122615Y127426D01*
X123604Y128415D01*
X124115Y128517D01*
X124635Y128865D01*
X124685Y128871D01*
X125191Y128796D01*
X125432Y128436D01*
X125920Y128109D01*
X126496Y127995D01*
X130039D01*
X130615Y128109D01*
X131104Y128436D01*
X131430Y128924D01*
X131528Y129416D01*
X132802Y130690D01*
X133043Y131051D01*
X133128Y131476D01*
X133128Y131476D01*
Y132494D01*
X133222Y132531D01*
X133628Y132578D01*
X133896Y132176D01*
X134385Y131849D01*
X134961Y131735D01*
X138504D01*
X139080Y131849D01*
X139568Y132176D01*
X139895Y132664D01*
X140009Y133240D01*
X139895Y133816D01*
X139568Y134304D01*
X139080Y134631D01*
X138504Y134745D01*
X134961D01*
X134385Y134631D01*
X133896Y134304D01*
X133628Y133903D01*
X133222Y133950D01*
X133128Y133986D01*
Y134059D01*
X133043Y134484D01*
X132802Y134845D01*
X132802Y134845D01*
X131361Y136286D01*
X131000Y136527D01*
X130575Y136612D01*
X130575Y136612D01*
X122634D01*
X122634Y136612D01*
X122208Y136527D01*
X121848Y136286D01*
X120176Y134614D01*
X119325D01*
Y136976D01*
X120961D01*
Y144457D01*
D02*
G37*
G36*
X320043Y140043D02*
X312957D01*
Y132957D01*
X320043D01*
Y140043D01*
D02*
G37*
G36*
X316500Y130074D02*
X315575Y129952D01*
X314713Y129595D01*
X313973Y129027D01*
X313405Y128287D01*
X313048Y127425D01*
X312926Y126500D01*
X313048Y125575D01*
X313405Y124713D01*
X313973Y123973D01*
X314713Y123405D01*
X315575Y123048D01*
X316500Y122926D01*
X317425Y123048D01*
X318287Y123405D01*
X319027Y123973D01*
X319595Y124713D01*
X319952Y125575D01*
X320074Y126500D01*
X319952Y127425D01*
X319595Y128287D01*
X319027Y129027D01*
X318287Y129595D01*
X317425Y129952D01*
X316500Y130074D01*
D02*
G37*
G36*
X258000Y126074D02*
X257075Y125952D01*
X256213Y125595D01*
X255473Y125027D01*
X254905Y124287D01*
X254548Y123425D01*
X254426Y122500D01*
X254548Y121575D01*
X254905Y120713D01*
X255473Y119973D01*
X256213Y119405D01*
X257075Y119048D01*
X258000Y118926D01*
X258925Y119048D01*
X259787Y119405D01*
X260527Y119973D01*
X261095Y120713D01*
X261452Y121575D01*
X261574Y122500D01*
X261452Y123425D01*
X261095Y124287D01*
X260527Y125027D01*
X259787Y125595D01*
X258925Y125952D01*
X258000Y126074D01*
D02*
G37*
G36*
X242500Y114424D02*
Y113000D01*
X243924D01*
X243869Y113274D01*
X243431Y113931D01*
X242774Y114369D01*
X242500Y114424D01*
D02*
G37*
G36*
X241500D02*
X241226Y114369D01*
X240569Y113931D01*
X240131Y113274D01*
X240076Y113000D01*
X241500D01*
Y114424D01*
D02*
G37*
G36*
X173000Y124106D02*
X172386Y123983D01*
X171865Y123635D01*
X171517Y123115D01*
X171394Y122500D01*
X171517Y121886D01*
X171865Y121365D01*
X180365Y112865D01*
X180365Y112865D01*
X180886Y112517D01*
X181500Y112394D01*
X181500Y112394D01*
X184500D01*
X185115Y112517D01*
X185635Y112865D01*
X185983Y113385D01*
X186106Y114000D01*
X185983Y114614D01*
X185635Y115135D01*
X185115Y115483D01*
X184500Y115606D01*
X182165D01*
X174135Y123635D01*
X173615Y123983D01*
X173512Y124004D01*
X173000Y124106D01*
D02*
G37*
G36*
X243924Y112000D02*
X242500D01*
Y110576D01*
X242774Y110631D01*
X243431Y111069D01*
X243869Y111726D01*
X243924Y112000D01*
D02*
G37*
G36*
X241500D02*
X240076D01*
X240131Y111726D01*
X240569Y111069D01*
X241226Y110631D01*
X241500Y110576D01*
Y112000D01*
D02*
G37*
G36*
X219500Y116478D02*
X218729Y116377D01*
X218011Y116079D01*
X217394Y115606D01*
X216921Y114989D01*
X216623Y114271D01*
X216522Y113500D01*
X216623Y112729D01*
X216921Y112011D01*
X217394Y111394D01*
X218011Y110921D01*
X218729Y110623D01*
X219500Y110522D01*
X220271Y110623D01*
X220989Y110921D01*
X221606Y111394D01*
X222079Y112011D01*
X222377Y112729D01*
X222478Y113500D01*
X222377Y114271D01*
X222079Y114989D01*
X221606Y115606D01*
X220989Y116079D01*
X220271Y116377D01*
X219500Y116478D01*
D02*
G37*
G36*
X166543Y113043D02*
X159457D01*
Y105957D01*
X166543D01*
Y113043D01*
D02*
G37*
%LPD*%
D16*
X139500Y145000D02*
X184000Y189500D01*
Y203000D01*
X135000Y145000D02*
X176575Y186575D01*
X165091Y221909D02*
X184000Y203000D01*
X153115Y220319D02*
X176575Y196859D01*
Y186575D02*
Y196859D01*
X117156Y221909D02*
X165091D01*
X256677Y309177D02*
X264500Y317000D01*
X256677Y301595D02*
Y309177D01*
X240582Y285500D02*
X256677Y301595D01*
X127000Y285500D02*
X240582D01*
X225416Y312000D02*
X228000D01*
X219634Y306218D02*
X225416Y312000D01*
X219634Y304782D02*
Y306218D01*
X216309Y301457D02*
X219634Y304782D01*
X178543Y301457D02*
X216309D01*
X178500Y301500D02*
X178543Y301457D01*
X208375Y244375D02*
X208500Y244500D01*
X157875Y244375D02*
X208375D01*
X157750Y244250D02*
X157875Y244375D01*
X153631Y235500D02*
X190000D01*
X145631Y227500D02*
X153631Y235500D01*
X126000Y227500D02*
X145631D01*
X171756Y233256D02*
X213244D01*
X166500Y228000D02*
X171756Y233256D01*
X213244D02*
X261000Y185500D01*
X277500D01*
X107000Y239000D02*
Y300500D01*
X116500Y310000D01*
X186000Y222000D02*
Y228000D01*
X181000Y224697D02*
Y228000D01*
X178500Y227566D02*
Y228434D01*
X176859Y225925D02*
X178500Y227566D01*
X191000Y220000D02*
Y228000D01*
X180141Y230075D02*
X209925D01*
X179482Y231665D02*
X211647D01*
X176000Y228000D02*
Y228184D01*
X173075Y225925D02*
X176859D01*
X171000Y228000D02*
X173075Y225925D01*
X178500Y228434D02*
X180141Y230075D01*
X181000Y224697D02*
X223091Y182607D01*
X176000Y228184D02*
X179482Y231665D01*
X191000Y220000D02*
X272500Y138500D01*
X121500Y226000D02*
Y310718D01*
X136764Y325982D01*
X140482D01*
X156500Y342000D01*
X113925Y225141D02*
X117156Y221909D01*
X116498Y220319D02*
X153115D01*
X112335Y224482D02*
X116498Y220319D01*
X168066Y223500D02*
X195066Y196500D01*
X121066Y223500D02*
X168066D01*
X118566Y226000D02*
X121066Y223500D01*
X113925Y225141D02*
Y253402D01*
X112335Y224482D02*
Y230165D01*
X111000Y231500D02*
X112335Y230165D01*
X168425Y186925D02*
X173500Y192000D01*
X147848Y186925D02*
X168425D01*
X131566Y198500D02*
X172000D01*
X122066Y189000D02*
X131566Y198500D01*
X172000D02*
X174500Y196000D01*
X133000Y193500D02*
X161000D01*
X144773Y190000D02*
X147848Y186925D01*
X126000Y190000D02*
X144773D01*
X161000Y193500D02*
X165500Y189000D01*
X195066Y196500D02*
X206948D01*
X221500Y181948D01*
X248000Y122500D02*
Y154052D01*
X221500Y180552D02*
X248000Y154052D01*
X223091Y181410D02*
X275000Y129500D01*
X223091Y181410D02*
Y182607D01*
X221500Y180552D02*
Y181948D01*
X186000Y222000D02*
X275000Y133000D01*
X118500Y189000D02*
X122066D01*
X116000Y226000D02*
X118566D01*
X111000Y231500D02*
Y284000D01*
X116000Y255477D02*
Y284000D01*
X113925Y253402D02*
X116000Y255477D01*
X108362Y133236D02*
X118500D01*
X130075Y123000D02*
X132588Y125513D01*
X125500Y123000D02*
X130075D01*
X288500Y181500D02*
X292500Y177500D01*
X258500Y181500D02*
X288500D01*
X209925Y230075D02*
X258500Y181500D01*
X293325Y131723D02*
Y135411D01*
X290235Y138500D02*
X293325Y135411D01*
X272500Y138500D02*
X290235D01*
X275000Y133000D02*
X291250D01*
X211647Y231665D02*
X259887Y183425D01*
X292425D01*
X292500Y183500D01*
X291586Y129984D02*
X293325Y131723D01*
X291586Y127586D02*
Y129984D01*
X291500Y127500D02*
X291586Y127586D01*
X118500Y123000D02*
X125500D01*
X107968Y132843D02*
X108362Y133236D01*
X107968Y123394D02*
Y132843D01*
X111209Y117831D02*
X113520Y115520D01*
X111209Y117831D02*
Y120153D01*
X107968Y123394D02*
X111209Y120153D01*
X113520Y115520D02*
X117614D01*
X118213Y133524D02*
X118500Y133236D01*
X118213Y133524D02*
Y140118D01*
X117614Y140717D02*
X118213Y140118D01*
X120370Y133236D02*
X122634Y135500D01*
X118500Y133236D02*
X120370D01*
X122634Y135500D02*
X130575D01*
X132016Y134059D01*
Y131476D02*
Y134059D01*
X130039Y129500D02*
X132016Y131476D01*
X128268Y129500D02*
X130039D01*
X134961D02*
X136732D01*
X132588Y127127D02*
X134961Y129500D01*
X132588Y125513D02*
Y127127D01*
D75*
X132441Y143940D02*
Y157441D01*
Y143940D02*
X137381Y139000D01*
X139500D01*
X132441Y157441D02*
X140000Y165000D01*
X139500Y139000D02*
X145873Y132627D01*
Y116627D02*
Y132627D01*
Y116627D02*
X153000Y109500D01*
X107968Y115126D02*
Y123394D01*
Y132843D02*
Y141110D01*
X198500Y305500D02*
X214634D01*
X214634Y305500D01*
X123980Y115520D02*
X124000Y115500D01*
X117614Y115520D02*
X123980D01*
X188000Y208000D02*
X190500Y205500D01*
X188000Y208000D02*
Y211000D01*
X173000Y122500D02*
X181500Y114000D01*
X184500D01*
D77*
X121411Y128156D02*
X126496Y133240D01*
X118537Y128156D02*
X121411D01*
X126496Y133240D02*
X128268D01*
X118500Y125559D02*
X126222D01*
X118500Y128118D02*
X118537Y128156D01*
X126423Y125760D02*
X128268D01*
X126222Y125559D02*
X126423Y125760D01*
D78*
X163000Y109500D02*
D03*
X106500Y342000D02*
D03*
X278134Y312000D02*
D03*
X248000Y122500D02*
D03*
X252634Y305000D02*
D03*
X234634Y341500D02*
D03*
X265134Y342000D02*
D03*
X169500Y342000D02*
D03*
X234634Y305500D02*
D03*
X208500Y324500D02*
D03*
X208000Y188000D02*
D03*
X146500Y310000D02*
D03*
X116500Y325500D02*
D03*
D79*
X153000Y109500D02*
D03*
X116500Y342000D02*
D03*
X126500D02*
D03*
X136500D02*
D03*
X146500D02*
D03*
X156500D02*
D03*
X288134Y312000D02*
D03*
X208500Y165000D02*
D03*
X258000Y122500D02*
D03*
X262634Y305000D02*
D03*
X109500Y171000D02*
D03*
Y161000D02*
D03*
X224634Y341500D02*
D03*
X214634D02*
D03*
X275134Y342000D02*
D03*
X179500Y342000D02*
D03*
X189500D02*
D03*
X224634Y305500D02*
D03*
X214634D02*
D03*
X316500Y126500D02*
D03*
X198500Y324500D02*
D03*
X188500D02*
D03*
X198000Y188000D02*
D03*
X317500Y175500D02*
D03*
X106500Y310000D02*
D03*
X116500D02*
D03*
X126500D02*
D03*
X136500D02*
D03*
X106500Y325500D02*
D03*
D80*
X283000Y239728D02*
D03*
Y266500D02*
D03*
D81*
X208500Y175000D02*
D03*
X109500Y151000D02*
D03*
X316500Y136500D02*
D03*
X317500Y185500D02*
D03*
D82*
X107968Y115126D02*
D03*
Y141110D02*
D03*
X140000Y165000D02*
D03*
X139500Y145000D02*
D03*
X135000D02*
D03*
X198500Y305500D02*
D03*
X123980Y115520D02*
D03*
X190500Y205500D02*
D03*
X188000Y211000D02*
D03*
X246500Y312500D02*
D03*
X142000Y211000D02*
D03*
X184500Y114000D02*
D03*
X173000Y122500D02*
D03*
X127000Y285500D02*
D03*
X264500Y317000D02*
D03*
X228000Y312000D02*
D03*
X178500Y301500D02*
D03*
X213500Y202000D02*
D03*
X215500Y217000D02*
D03*
X216000Y235000D02*
D03*
X215500Y245000D02*
D03*
X215000Y257000D02*
D03*
X214500Y269000D02*
D03*
X215000Y282500D02*
D03*
X208500Y244500D02*
D03*
X157750Y244250D02*
D03*
X190000Y235500D02*
D03*
X126000Y227500D02*
D03*
X107000Y239000D02*
D03*
X242000Y112500D02*
D03*
X104500Y195000D02*
D03*
X186000Y228000D02*
D03*
X181000D02*
D03*
X191000D02*
D03*
X176000D02*
D03*
X166500D02*
D03*
X171000D02*
D03*
X173500Y192000D02*
D03*
X133000Y193500D02*
D03*
X174500Y196000D02*
D03*
X165500Y189000D02*
D03*
X126000Y190000D02*
D03*
X118500Y189000D02*
D03*
X111000Y284000D02*
D03*
X116000D02*
D03*
X121500Y226000D02*
D03*
X116000D02*
D03*
X292500Y177500D02*
D03*
Y183500D02*
D03*
X277500Y185500D02*
D03*
X291250Y133000D02*
D03*
X291500Y127500D02*
D03*
X275000Y129500D02*
D03*
X125500Y123000D02*
D03*
X123500Y130000D02*
D03*
Y125500D02*
D03*
X251634Y318866D02*
D03*
Y327134D02*
D03*
X247500Y323000D02*
D03*
X255768D02*
D03*
X251634D02*
D03*
D83*
X107968Y115126D02*
D03*
Y141110D02*
D03*
D84*
X219500Y143500D02*
D03*
Y113500D02*
D03*
D85*
X136732Y133240D02*
D03*
Y129500D02*
D03*
Y125760D02*
D03*
X128268Y133240D02*
D03*
Y129500D02*
D03*
Y125760D02*
D03*
D86*
X118500Y123000D02*
D03*
Y125559D02*
D03*
Y128118D02*
D03*
Y130677D02*
D03*
Y133236D02*
D03*
D87*
X117614Y115520D02*
D03*
Y140717D02*
D03*
D88*
X107968Y123394D02*
D03*
Y132843D02*
D03*
M02*
