M48
;Layer_Color=9474304
;FILE_FORMAT=2:5
INCH,LZ
;TYPE=PLATED
T1F00S00C0.00591
T2F00S00C0.00787
T4F00S00C0.02756
T5F00S00C0.03543
;TYPE=NON_PLATED
T6F00S00C0.01968
T7F00S00C0.03740
%
T01
X012398Y011552
X01255Y0123
X01235Y01255
Y013
X0135Y0145
X01395
X0173Y01225
X01845Y0114
X0242Y01125
X0275Y01295
X02915Y01275
X029125Y0133
X02925Y01775
Y01835
X02775Y01855
X02135Y0202
X02155Y0217
X0216Y0235
X02155Y0245
X02085Y02445
X0215Y0257
X02145Y0269
X0215Y02825
X01985Y03055
X01785Y03015
X0228Y0312
X019Y02355
X0191Y0228
X0186
X0181
X0176
X0171
X01665
X015775Y024425
X01655Y0189
X01735Y0192
X01745Y0196
X01905Y02055
X0188Y0211
X0142
X0133Y01935
X0126Y019
X01185Y0189
X01045Y0195
X0116Y0226
X01215
X0126Y02275
X0107Y0239
X0111Y0284
X0116
X0127Y02855
X014Y0165
X02465Y03125
X02645Y0317
T02
X0251634Y0318866
Y0323
Y0327134
X02475Y0323
X0255768
T04
X02195Y01135
Y01435
T05
X01095Y0151
X0153Y01095
X0163
X0248Y01225
X0258
X03165Y01265
Y01365
X03175Y01755
Y01855
X0208Y0188
X0198
X02085Y0175
Y0165
X0214634Y03055
X0224634
X0234634
X0252634Y0305
X0262634
X0278134Y0312
X0288134
X01465Y031
X01365
X01265
X01165
X01065
X01095Y0171
Y0161
X01065Y03255
X01165
Y0342
X01065
X01265
X01365
X01465
X01565
X01695
X01795
X01895
X01885Y03245
X01985
X02085
X0214634Y03415
X0224634
X0234634
X0265134Y0342
X0275134
T06
X0107968Y0115126
Y014111
T07
X0283Y0239728
Y02665
M30
