G04*
G04 #@! TF.GenerationSoftware,Altium Limited,Altium Designer,19.1.8 (144)*
G04*
G04 Layer_Color=255*
%FSLAX44Y44*%
%MOMM*%
G71*
G01*
G75*
%ADD10C,0.2400*%
%ADD13C,0.2000*%
%ADD14C,0.1270*%
%ADD16C,0.1016*%
%ADD17C,0.1000*%
%ADD18C,0.2540*%
%ADD19C,0.0500*%
%ADD22R,1.4000X3.3000*%
%ADD23R,0.7620X0.7620*%
%ADD24R,0.9000X0.8000*%
%ADD25R,0.7620X0.7620*%
%ADD26R,0.8000X0.9000*%
%ADD27R,1.4000X0.6200*%
%ADD28R,2.4000X1.1000*%
G04:AMPARAMS|DCode=29|XSize=0.25mm|YSize=0.6mm|CornerRadius=0.05mm|HoleSize=0mm|Usage=FLASHONLY|Rotation=90.000|XOffset=0mm|YOffset=0mm|HoleType=Round|Shape=RoundedRectangle|*
%AMROUNDEDRECTD29*
21,1,0.2500,0.5000,0,0,90.0*
21,1,0.1500,0.6000,0,0,90.0*
1,1,0.1000,0.2500,0.0750*
1,1,0.1000,0.2500,-0.0750*
1,1,0.1000,-0.2500,-0.0750*
1,1,0.1000,-0.2500,0.0750*
%
%ADD29ROUNDEDRECTD29*%
G04:AMPARAMS|DCode=30|XSize=0.25mm|YSize=0.6mm|CornerRadius=0.05mm|HoleSize=0mm|Usage=FLASHONLY|Rotation=0.000|XOffset=0mm|YOffset=0mm|HoleType=Round|Shape=RoundedRectangle|*
%AMROUNDEDRECTD30*
21,1,0.2500,0.5000,0,0,0.0*
21,1,0.1500,0.6000,0,0,0.0*
1,1,0.1000,0.0750,-0.2500*
1,1,0.1000,-0.0750,-0.2500*
1,1,0.1000,-0.0750,0.2500*
1,1,0.1000,0.0750,0.2500*
%
%ADD30ROUNDEDRECTD30*%
%ADD31R,0.2000X0.2000*%
%ADD32R,0.9000X0.3000*%
%ADD33R,0.3000X0.9000*%
%ADD34R,0.3000X0.3000*%
%ADD35R,1.4300X5.5000*%
%ADD36R,3.3000X1.4000*%
G04:AMPARAMS|DCode=37|XSize=0.84mm|YSize=0.32mm|CornerRadius=0.04mm|HoleSize=0mm|Usage=FLASHONLY|Rotation=0.000|XOffset=0mm|YOffset=0mm|HoleType=Round|Shape=RoundedRectangle|*
%AMROUNDEDRECTD37*
21,1,0.8400,0.2400,0,0,0.0*
21,1,0.7600,0.3200,0,0,0.0*
1,1,0.0800,0.3800,-0.1200*
1,1,0.0800,-0.3800,-0.1200*
1,1,0.0800,-0.3800,0.1200*
1,1,0.0800,0.3800,0.1200*
%
%ADD37ROUNDEDRECTD37*%
G04:AMPARAMS|DCode=38|XSize=0.84mm|YSize=0.32mm|CornerRadius=0.04mm|HoleSize=0mm|Usage=FLASHONLY|Rotation=90.000|XOffset=0mm|YOffset=0mm|HoleType=Round|Shape=RoundedRectangle|*
%AMROUNDEDRECTD38*
21,1,0.8400,0.2400,0,0,90.0*
21,1,0.7600,0.3200,0,0,90.0*
1,1,0.0800,0.1200,0.3800*
1,1,0.0800,0.1200,-0.3800*
1,1,0.0800,-0.1200,-0.3800*
1,1,0.0800,-0.1200,0.3800*
%
%ADD38ROUNDEDRECTD38*%
%ADD39R,0.9800X3.4000*%
%ADD40R,5.5000X1.4300*%
G04:AMPARAMS|DCode=41|XSize=1.56mm|YSize=0.41mm|CornerRadius=0.1025mm|HoleSize=0mm|Usage=FLASHONLY|Rotation=180.000|XOffset=0mm|YOffset=0mm|HoleType=Round|Shape=RoundedRectangle|*
%AMROUNDEDRECTD41*
21,1,1.5600,0.2050,0,0,180.0*
21,1,1.3550,0.4100,0,0,180.0*
1,1,0.2050,-0.6775,0.1025*
1,1,0.2050,0.6775,0.1025*
1,1,0.2050,0.6775,-0.1025*
1,1,0.2050,-0.6775,-0.1025*
%
%ADD41ROUNDEDRECTD41*%
G04:AMPARAMS|DCode=43|XSize=0.86mm|YSize=0.27mm|CornerRadius=0.0338mm|HoleSize=0mm|Usage=FLASHONLY|Rotation=0.000|XOffset=0mm|YOffset=0mm|HoleType=Round|Shape=RoundedRectangle|*
%AMROUNDEDRECTD43*
21,1,0.8600,0.2025,0,0,0.0*
21,1,0.7925,0.2700,0,0,0.0*
1,1,0.0675,0.3963,-0.1013*
1,1,0.0675,-0.3963,-0.1013*
1,1,0.0675,-0.3963,0.1013*
1,1,0.0675,0.3963,0.1013*
%
%ADD43ROUNDEDRECTD43*%
G04:AMPARAMS|DCode=44|XSize=0.86mm|YSize=0.27mm|CornerRadius=0.0338mm|HoleSize=0mm|Usage=FLASHONLY|Rotation=90.000|XOffset=0mm|YOffset=0mm|HoleType=Round|Shape=RoundedRectangle|*
%AMROUNDEDRECTD44*
21,1,0.8600,0.2025,0,0,90.0*
21,1,0.7925,0.2700,0,0,90.0*
1,1,0.0675,0.1013,0.3963*
1,1,0.0675,0.1013,-0.3963*
1,1,0.0675,-0.1013,-0.3963*
1,1,0.0675,-0.1013,0.3963*
%
%ADD44ROUNDEDRECTD44*%
%ADD45R,0.9000X2.0000*%
%ADD57R,1.8000X1.8000*%
G04:AMPARAMS|DCode=75|XSize=2.6mm|YSize=2.6mm|CornerRadius=0.052mm|HoleSize=0mm|Usage=FLASHONLY|Rotation=0.000|XOffset=0mm|YOffset=0mm|HoleType=Round|Shape=RoundedRectangle|*
%AMROUNDEDRECTD75*
21,1,2.6000,2.4960,0,0,0.0*
21,1,2.4960,2.6000,0,0,0.0*
1,1,0.1040,1.2480,-1.2480*
1,1,0.1040,-1.2480,-1.2480*
1,1,0.1040,-1.2480,1.2480*
1,1,0.1040,1.2480,1.2480*
%
%ADD75ROUNDEDRECTD75*%
%ADD76R,2.7000X2.7000*%
%ADD77R,2.4500X2.4500*%
%ADD81R,1.5000X1.5000*%
%ADD82C,1.5000*%
%ADD83C,0.9500*%
%ADD84R,1.5000X1.5000*%
%ADD85C,0.5000*%
%ADD86O,1.8000X0.9000*%
%ADD87C,1.2000*%
D10*
X595020Y674910D02*
G03*
X595020Y674910I-1200J0D01*
G01*
D13*
X419700Y402590D02*
G03*
X419700Y402590I-1000J0D01*
G01*
X593550Y440280D02*
G03*
X593550Y440280I-1000J0D01*
G01*
X430790Y349090D02*
G03*
X430790Y349090I-1000J0D01*
G01*
D14*
X253240Y287420D02*
G03*
X249240Y286120I-1350J-2650D01*
G01*
X252277Y291412D02*
G03*
X246748Y287957I-1037J-4492D01*
G01*
X249240Y364720D02*
G03*
X253240Y363420I2650J1350D01*
G01*
X246246Y362899D02*
G03*
X252261Y359426I4744J1271D01*
G01*
X303240Y287420D02*
Y363420D01*
X259740D02*
X303240D01*
X252740D02*
X259740D01*
X252740Y287420D02*
Y363420D01*
Y287420D02*
X253240D01*
X303240D01*
X246740Y287920D02*
X249240Y286120D01*
X246740Y293420D02*
X252240D01*
X246740D02*
Y357420D01*
X252240D01*
X246240Y362920D02*
X249240Y364720D01*
X259740Y363420D02*
Y386920D01*
X425400Y435390D02*
X489000D01*
Y369790D02*
Y435390D01*
X425400Y369790D02*
X489000D01*
X425400D02*
Y435390D01*
X602300Y410530D02*
Y450530D01*
X642300Y410530D02*
Y450530D01*
X602300D02*
X642300D01*
X602300Y410530D02*
X642300D01*
X358500Y510800D02*
X403500D01*
Y479800D02*
Y510800D01*
X358500Y479800D02*
X403500D01*
X358500D02*
Y510800D01*
X439240Y318590D02*
Y359590D01*
X480240Y318590D02*
Y359590D01*
X439240D02*
X480240D01*
X439240Y318590D02*
X480240D01*
D16*
X625150Y823037D02*
Y816690D01*
X626420Y815420D01*
X628959D01*
X630228Y816690D01*
Y823037D01*
X637846D02*
X635307Y821768D01*
X632767Y819229D01*
Y816690D01*
X634037Y815420D01*
X636576D01*
X637846Y816690D01*
Y817959D01*
X636576Y819229D01*
X632767D01*
D17*
X254000Y274320D02*
Y891540D01*
X280670Y918210D01*
X680720Y918210D01*
X739140Y859790D01*
X759460Y839470D01*
X768350Y830580D01*
Y562610D02*
Y830580D01*
Y562610D02*
X834390Y496570D01*
X834390Y302260D02*
X834390Y496570D01*
X786130Y254000D02*
X834390Y302260D01*
X275590Y254000D02*
X786130D01*
X254000Y274320D02*
X275590Y254000D01*
X628990Y830580D02*
G03*
X628990Y830580I-3000J0D01*
G01*
X264290Y540240D02*
X312290D01*
X264290Y506240D02*
X312290D01*
X264290D02*
Y540240D01*
X312290Y506240D02*
Y540240D01*
X726770Y463410D02*
X736270D01*
X726770Y445910D02*
X736270D01*
Y463410D01*
X726770Y445910D02*
Y463410D01*
X562750Y494360D02*
Y503860D01*
X580250Y494360D02*
Y503860D01*
X562750D02*
X580250D01*
X562750Y494360D02*
X580250D01*
X777570Y438010D02*
X787070D01*
X777570Y420510D02*
X787070D01*
Y438010D01*
X777570Y420510D02*
Y438010D01*
Y467220D02*
X787070D01*
X777570Y449720D02*
X787070D01*
Y467220D01*
X777570Y449720D02*
Y467220D01*
Y501510D02*
X787070D01*
X777570Y484010D02*
X787070D01*
Y501510D01*
X777570Y484010D02*
Y501510D01*
X700100Y496430D02*
X709600D01*
X700100Y478930D02*
X709600D01*
Y496430D01*
X700100Y478930D02*
Y496430D01*
X751980Y446100D02*
Y455600D01*
X769480Y446100D02*
Y455600D01*
X751980D02*
X769480D01*
X751980Y446100D02*
X769480D01*
X751980Y461340D02*
Y470840D01*
X769480Y461340D02*
Y470840D01*
X751980D02*
X769480D01*
X751980Y461340D02*
X769480D01*
X724230Y324980D02*
X733730D01*
X724230Y307480D02*
X733730D01*
Y324980D01*
X724230Y307480D02*
Y324980D01*
X776300Y373240D02*
X785800D01*
X776300Y355740D02*
X785800D01*
Y373240D01*
X776300Y355740D02*
Y373240D01*
X693750Y358000D02*
X703250D01*
X693750Y340500D02*
X703250D01*
Y358000D01*
X693750Y340500D02*
Y358000D01*
X749440Y319100D02*
Y328600D01*
X766940Y319100D02*
Y328600D01*
X749440D02*
X766940D01*
X749440Y319100D02*
X766940D01*
X749440Y333070D02*
Y342570D01*
X766940Y333070D02*
Y342570D01*
X749440D02*
X766940D01*
X749440Y333070D02*
X766940D01*
X776300Y338950D02*
X785800D01*
X776300Y321450D02*
X785800D01*
Y338950D01*
X776300Y321450D02*
Y338950D01*
Y311010D02*
X785800D01*
X776300Y293510D02*
X785800D01*
Y311010D01*
X776300Y293510D02*
Y311010D01*
X305930Y489280D02*
Y498780D01*
X288430Y489280D02*
Y498780D01*
Y489280D02*
X305930D01*
X288430Y498780D02*
X305930D01*
X425780Y794880D02*
X435280D01*
X425780Y777380D02*
X435280D01*
Y794880D01*
X425780Y777380D02*
Y794880D01*
X413080D02*
X422580D01*
X413080Y777380D02*
X422580D01*
Y794880D01*
X413080Y777380D02*
Y794880D01*
X482930Y787260D02*
X492430D01*
X482930Y769760D02*
X492430D01*
Y787260D01*
X482930Y769760D02*
Y787260D01*
X467690D02*
X477190D01*
X467690Y769760D02*
X477190D01*
Y787260D01*
X467690Y769760D02*
Y787260D01*
X758620Y572410D02*
Y704910D01*
X611120Y572410D02*
X758620D01*
X611120D02*
Y722910D01*
X758620Y704910D02*
X761120D01*
Y715910D01*
X758620D02*
X761120D01*
X758620D02*
Y722910D01*
X611120D02*
X758620D01*
X618650Y799920D02*
Y840920D01*
X659650Y799920D02*
Y840920D01*
X618650D02*
X659650D01*
X618650Y799920D02*
X659650D01*
X605990Y822020D02*
Y831520D01*
X588490Y822020D02*
Y831520D01*
Y822020D02*
X605990D01*
X588490Y831520D02*
X605990D01*
Y834720D02*
Y844220D01*
X588490Y834720D02*
Y844220D01*
Y834720D02*
X605990D01*
X588490Y844220D02*
X605990D01*
Y809320D02*
Y818820D01*
X588490Y809320D02*
Y818820D01*
Y809320D02*
X605990D01*
X588490Y818820D02*
X605990D01*
Y796620D02*
Y806120D01*
X588490Y796620D02*
Y806120D01*
Y796620D02*
X605990D01*
X588490Y806120D02*
X605990D01*
X612810Y877430D02*
X622310D01*
X612810Y859930D02*
X622310D01*
Y877430D01*
X612810Y859930D02*
Y877430D01*
X640750D02*
X650250D01*
X640750Y859930D02*
X650250D01*
Y877430D01*
X640750Y859930D02*
Y877430D01*
X626780D02*
X636280D01*
X626780Y859930D02*
X636280D01*
Y877430D01*
X626780Y859930D02*
Y877430D01*
X500820Y511640D02*
Y522140D01*
X492320Y511640D02*
Y522140D01*
Y511640D02*
X500820D01*
X492320Y522140D02*
X500820D01*
X328050Y344430D02*
X345050D01*
X328050Y313430D02*
X345050D01*
Y344430D01*
X328050Y313430D02*
Y344430D01*
X328450Y302590D02*
Y312090D01*
X345950Y302590D02*
Y312090D01*
X328450D02*
X345950D01*
X328450Y302590D02*
X345950D01*
X328450Y286080D02*
Y295580D01*
X345950Y286080D02*
Y295580D01*
X328450D02*
X345950D01*
X328450Y286080D02*
X345950D01*
X585960Y406530D02*
Y454530D01*
X551960Y406530D02*
Y454530D01*
X585960D01*
X551960Y406530D02*
X585960D01*
X325450Y412890D02*
X334950D01*
X325450Y430390D02*
X334950D01*
X325450Y412890D02*
Y430390D01*
X334950Y412890D02*
Y430390D01*
X325450Y438290D02*
X334950D01*
X325450Y455790D02*
X334950D01*
X325450Y438290D02*
Y455790D01*
X334950Y438290D02*
Y455790D01*
X424510Y486550D02*
X434010D01*
X424510Y504050D02*
X434010D01*
X424510Y486550D02*
Y504050D01*
X434010Y486550D02*
Y504050D01*
X424510Y457340D02*
X434010D01*
X424510Y474840D02*
X434010D01*
X424510Y457340D02*
Y474840D01*
X434010Y457340D02*
Y474840D01*
X326720Y500520D02*
X336220D01*
X326720Y518020D02*
X336220D01*
X326720Y500520D02*
Y518020D01*
X336220Y500520D02*
Y518020D01*
X489280Y363080D02*
X498780D01*
X489280Y345580D02*
X498780D01*
Y363080D01*
X489280Y345580D02*
Y363080D01*
X421970Y308750D02*
X431470D01*
X421970Y326250D02*
X431470D01*
X421970Y308750D02*
Y326250D01*
X431470Y308750D02*
Y326250D01*
X415620Y361810D02*
X425120D01*
X415620Y344310D02*
X425120D01*
Y361810D01*
X415620Y344310D02*
Y361810D01*
X469760Y297510D02*
Y307010D01*
X452260Y297510D02*
Y307010D01*
Y297510D02*
X469760D01*
X452260Y307010D02*
X469760D01*
X655650Y440550D02*
X665150D01*
X655650Y423050D02*
X665150D01*
Y440550D01*
X655650Y423050D02*
Y440550D01*
X288290Y518240D02*
Y528240D01*
X283290Y523240D02*
X293290D01*
X261290Y540740D02*
X315290D01*
X261290Y505740D02*
X315290D01*
X261290D02*
Y540740D01*
X315290Y505740D02*
Y540740D01*
X726020Y466660D02*
X737020D01*
X726020Y442660D02*
X737020D01*
Y466660D01*
X726020Y442660D02*
Y466660D01*
X731520Y449910D02*
Y459410D01*
X726770Y454660D02*
X736270D01*
X559500Y493610D02*
Y504610D01*
X583500Y493610D02*
Y504610D01*
X559500D02*
X583500D01*
X559500Y493610D02*
X583500D01*
X566750Y499110D02*
X576250D01*
X571500Y494360D02*
Y503860D01*
X776820Y441260D02*
X787820D01*
X776820Y417260D02*
X787820D01*
Y441260D01*
X776820Y417260D02*
Y441260D01*
X782320Y424510D02*
Y434010D01*
X777570Y429260D02*
X787070D01*
X776820Y470470D02*
X787820D01*
X776820Y446470D02*
X787820D01*
Y470470D01*
X776820Y446470D02*
Y470470D01*
X782320Y453720D02*
Y463220D01*
X777570Y458470D02*
X787070D01*
X776820Y504760D02*
X787820D01*
X776820Y480760D02*
X787820D01*
Y504760D01*
X776820Y480760D02*
Y504760D01*
X782320Y488010D02*
Y497510D01*
X777570Y492760D02*
X787070D01*
X699350Y499680D02*
X710350D01*
X699350Y475680D02*
X710350D01*
Y499680D01*
X699350Y475680D02*
Y499680D01*
X704850Y482930D02*
Y492430D01*
X700100Y487680D02*
X709600D01*
X748730Y445350D02*
Y456350D01*
X772730Y445350D02*
Y456350D01*
X748730D02*
X772730D01*
X748730Y445350D02*
X772730D01*
X755980Y450850D02*
X765480D01*
X760730Y446100D02*
Y455600D01*
X748730Y460590D02*
Y471590D01*
X772730Y460590D02*
Y471590D01*
X748730D02*
X772730D01*
X748730Y460590D02*
X772730D01*
X755980Y466090D02*
X765480D01*
X760730Y461340D02*
Y470840D01*
X723480Y328230D02*
X734480D01*
X723480Y304230D02*
X734480D01*
Y328230D01*
X723480Y304230D02*
Y328230D01*
X728980Y311480D02*
Y320980D01*
X724230Y316230D02*
X733730D01*
X775550Y376490D02*
X786550D01*
X775550Y352490D02*
X786550D01*
Y376490D01*
X775550Y352490D02*
Y376490D01*
X781050Y359740D02*
Y369240D01*
X776300Y364490D02*
X785800D01*
X693000Y361250D02*
X704000D01*
X693000Y337250D02*
X704000D01*
Y361250D01*
X693000Y337250D02*
Y361250D01*
X698500Y344500D02*
Y354000D01*
X693750Y349250D02*
X703250D01*
X746190Y318350D02*
Y329350D01*
X770190Y318350D02*
Y329350D01*
X746190D02*
X770190D01*
X746190Y318350D02*
X770190D01*
X753440Y323850D02*
X762940D01*
X758190Y319100D02*
Y328600D01*
X746190Y332320D02*
Y343320D01*
X770190Y332320D02*
Y343320D01*
X746190D02*
X770190D01*
X746190Y332320D02*
X770190D01*
X753440Y337820D02*
X762940D01*
X758190Y333070D02*
Y342570D01*
X775550Y342200D02*
X786550D01*
X775550Y318200D02*
X786550D01*
Y342200D01*
X775550Y318200D02*
Y342200D01*
X781050Y325450D02*
Y334950D01*
X776300Y330200D02*
X785800D01*
X775550Y314260D02*
X786550D01*
X775550Y290260D02*
X786550D01*
Y314260D01*
X775550Y290260D02*
Y314260D01*
X781050Y297510D02*
Y307010D01*
X776300Y302260D02*
X785800D01*
X309180Y488530D02*
Y499530D01*
X285180Y488530D02*
Y499530D01*
Y488530D02*
X309180D01*
X285180Y499530D02*
X309180D01*
X292430Y494030D02*
X301930D01*
X297180Y489280D02*
Y498780D01*
X425030Y798130D02*
X436030D01*
X425030Y774130D02*
X436030D01*
Y798130D01*
X425030Y774130D02*
Y798130D01*
X430530Y781380D02*
Y790880D01*
X425780Y786130D02*
X435280D01*
X412330Y798130D02*
X423330D01*
X412330Y774130D02*
X423330D01*
Y798130D01*
X412330Y774130D02*
Y798130D01*
X417830Y781380D02*
Y790880D01*
X413080Y786130D02*
X422580D01*
X482180Y790510D02*
X493180D01*
X482180Y766510D02*
X493180D01*
Y790510D01*
X482180Y766510D02*
Y790510D01*
X487680Y773760D02*
Y783260D01*
X482930Y778510D02*
X492430D01*
X466940Y790510D02*
X477940D01*
X466940Y766510D02*
X477940D01*
Y790510D01*
X466940Y766510D02*
Y790510D01*
X472440Y773760D02*
Y783260D01*
X467690Y778510D02*
X477190D01*
X634150Y820420D02*
X644150D01*
X639150Y815420D02*
Y825420D01*
X609240Y821270D02*
Y832270D01*
X585240Y821270D02*
Y832270D01*
Y821270D02*
X609240D01*
X585240Y832270D02*
X609240D01*
X592490Y826770D02*
X601990D01*
X597240Y822020D02*
Y831520D01*
X609240Y833970D02*
Y844970D01*
X585240Y833970D02*
Y844970D01*
Y833970D02*
X609240D01*
X585240Y844970D02*
X609240D01*
X592490Y839470D02*
X601990D01*
X597240Y834720D02*
Y844220D01*
X609240Y808570D02*
Y819570D01*
X585240Y808570D02*
Y819570D01*
Y808570D02*
X609240D01*
X585240Y819570D02*
X609240D01*
X592490Y814070D02*
X601990D01*
X597240Y809320D02*
Y818820D01*
X609240Y795870D02*
Y806870D01*
X585240Y795870D02*
Y806870D01*
Y795870D02*
X609240D01*
X585240Y806870D02*
X609240D01*
X592490Y801370D02*
X601990D01*
X597240Y796620D02*
Y806120D01*
X612060Y880680D02*
X623060D01*
X612060Y856680D02*
X623060D01*
Y880680D01*
X612060Y856680D02*
Y880680D01*
X617560Y863930D02*
Y873430D01*
X612810Y868680D02*
X622310D01*
X640000Y880680D02*
X651000D01*
X640000Y856680D02*
X651000D01*
Y880680D01*
X640000Y856680D02*
Y880680D01*
X645500Y863930D02*
Y873430D01*
X640750Y868680D02*
X650250D01*
X626030Y880680D02*
X637030D01*
X626030Y856680D02*
X637030D01*
Y880680D01*
X626030Y856680D02*
Y880680D01*
X631530Y863930D02*
Y873430D01*
X626780Y868680D02*
X636280D01*
X491570Y516890D02*
X501570D01*
X496570Y511890D02*
Y521890D01*
X336550Y323930D02*
Y333930D01*
X331550Y328930D02*
X341550D01*
X325200Y301840D02*
Y312840D01*
X349200Y301840D02*
Y312840D01*
X325200D02*
X349200D01*
X325200Y301840D02*
X349200D01*
X332450Y307340D02*
X341950D01*
X337200Y302590D02*
Y312090D01*
X325200Y285330D02*
Y296330D01*
X349200Y285330D02*
Y296330D01*
X325200D02*
X349200D01*
X325200Y285330D02*
X349200D01*
X332450Y290830D02*
X341950D01*
X337200Y286080D02*
Y295580D01*
X563960Y430530D02*
X573960D01*
X568960Y425530D02*
Y435530D01*
X586460Y403530D02*
Y457530D01*
X551460Y403530D02*
Y457530D01*
X586460D01*
X551460Y403530D02*
X586460D01*
X324700Y409640D02*
X335700D01*
X324700Y433640D02*
X335700D01*
X324700Y409640D02*
Y433640D01*
X335700Y409640D02*
Y433640D01*
X330200Y416890D02*
Y426390D01*
X325450Y421640D02*
X334950D01*
X324700Y435040D02*
X335700D01*
X324700Y459040D02*
X335700D01*
X324700Y435040D02*
Y459040D01*
X335700Y435040D02*
Y459040D01*
X330200Y442290D02*
Y451790D01*
X325450Y447040D02*
X334950D01*
X423760Y483300D02*
X434760D01*
X423760Y507300D02*
X434760D01*
X423760Y483300D02*
Y507300D01*
X434760Y483300D02*
Y507300D01*
X429260Y490550D02*
Y500050D01*
X424510Y495300D02*
X434010D01*
X423760Y454090D02*
X434760D01*
X423760Y478090D02*
X434760D01*
X423760Y454090D02*
Y478090D01*
X434760Y454090D02*
Y478090D01*
X429260Y461340D02*
Y470840D01*
X424510Y466090D02*
X434010D01*
X325970Y497270D02*
X336970D01*
X325970Y521270D02*
X336970D01*
X325970Y497270D02*
Y521270D01*
X336970Y497270D02*
Y521270D01*
X331470Y504520D02*
Y514020D01*
X326720Y509270D02*
X336220D01*
X488530Y366330D02*
X499530D01*
X488530Y342330D02*
X499530D01*
Y366330D01*
X488530Y342330D02*
Y366330D01*
X494030Y349580D02*
Y359080D01*
X489280Y354330D02*
X498780D01*
X421220Y305500D02*
X432220D01*
X421220Y329500D02*
X432220D01*
X421220Y305500D02*
Y329500D01*
X432220Y305500D02*
Y329500D01*
X426720Y312750D02*
Y322250D01*
X421970Y317500D02*
X431470D01*
X414870Y365060D02*
X425870D01*
X414870Y341060D02*
X425870D01*
Y365060D01*
X414870Y341060D02*
Y365060D01*
X420370Y348310D02*
Y357810D01*
X415620Y353060D02*
X425120D01*
X473010Y296760D02*
Y307760D01*
X449010Y296760D02*
Y307760D01*
Y296760D02*
X473010D01*
X449010Y307760D02*
X473010D01*
X456260Y302260D02*
X465760D01*
X461010Y297510D02*
Y307010D01*
X654900Y443800D02*
X665900D01*
X654900Y419800D02*
X665900D01*
Y443800D01*
X654900Y419800D02*
Y443800D01*
X660400Y427050D02*
Y436550D01*
X655650Y431800D02*
X665150D01*
D18*
X261240Y372920D02*
X265303D01*
Y374951D01*
X264626Y375629D01*
X263271D01*
X262594Y374951D01*
Y372920D01*
X264626Y379691D02*
X265303Y379014D01*
Y377660D01*
X264626Y376983D01*
X261917D01*
X261240Y377660D01*
Y379014D01*
X261917Y379691D01*
X265303Y381045D02*
X261240D01*
Y383077D01*
X261917Y383754D01*
X262594D01*
X263271Y383077D01*
Y381045D01*
Y383077D01*
X263948Y383754D01*
X264626D01*
X265303Y383077D01*
Y381045D01*
Y391879D02*
Y389171D01*
X261240D01*
Y391879D01*
X263271Y389171D02*
Y390525D01*
X261240Y393233D02*
X265303D01*
X261240Y395942D01*
X265303D01*
Y397296D02*
X261240D01*
Y399327D01*
X261917Y400005D01*
X264626D01*
X265303Y399327D01*
Y397296D01*
D19*
X595120Y558910D02*
Y736410D01*
X761120D01*
X595120Y558910D02*
X761120D01*
Y702410D01*
X763620D01*
Y718410D01*
X761120D02*
X763620D01*
X761120D02*
Y736410D01*
X616150Y797420D02*
Y843420D01*
Y797420D02*
X662150D01*
Y843420D01*
X616150D02*
X662150D01*
X503070Y510390D02*
Y523390D01*
X490070Y510390D02*
Y523390D01*
Y510390D02*
X503070D01*
X490070Y523390D02*
X503070D01*
X318050Y345430D02*
X355050D01*
X318050Y312430D02*
X355050D01*
Y345430D01*
X318050Y312430D02*
Y345430D01*
X244240Y283420D02*
X310240D01*
X244240D02*
Y367420D01*
X310240D01*
Y283420D02*
Y367420D01*
X422900Y367290D02*
Y437890D01*
Y367290D02*
X491500D01*
Y437890D01*
X422900D02*
X491500D01*
X648350Y404480D02*
Y456580D01*
X596250Y404480D02*
Y456580D01*
X648350D01*
X596250Y404480D02*
X648350D01*
X341900Y481000D02*
Y509600D01*
Y481000D02*
X356000D01*
Y477300D02*
Y481000D01*
Y477300D02*
X406000D01*
Y481000D01*
X420100D01*
Y509600D01*
X406000D02*
X420100D01*
X406000D02*
Y513300D01*
X356000D02*
X406000D01*
X356000Y509600D02*
Y513300D01*
X341900Y509600D02*
X356000D01*
X485890Y312940D02*
Y365240D01*
X433590Y312940D02*
Y365240D01*
X485890D01*
X433590Y312940D02*
X485890D01*
D22*
X269290Y523240D02*
D03*
X307290D02*
D03*
D23*
X660400Y411480D02*
D03*
Y397510D02*
D03*
X433070Y807720D02*
D03*
Y821690D02*
D03*
X765810Y308610D02*
D03*
Y294640D02*
D03*
X749300Y308610D02*
D03*
Y294640D02*
D03*
X767080Y435610D02*
D03*
Y421640D02*
D03*
X751840Y435610D02*
D03*
Y421640D02*
D03*
X445770Y791210D02*
D03*
Y777240D02*
D03*
X402590Y791210D02*
D03*
Y777240D02*
D03*
X416560Y821690D02*
D03*
Y807720D02*
D03*
X481330Y509270D02*
D03*
Y495300D02*
D03*
X514350Y514350D02*
D03*
Y500380D02*
D03*
X359410Y306070D02*
D03*
Y292100D02*
D03*
X313690Y389890D02*
D03*
Y375920D02*
D03*
X312420Y462280D02*
D03*
Y476250D02*
D03*
X273050Y458470D02*
D03*
Y472440D02*
D03*
X293370Y457200D02*
D03*
Y471170D02*
D03*
X445770Y458470D02*
D03*
Y472440D02*
D03*
X330200Y481330D02*
D03*
Y467360D02*
D03*
X411480Y309880D02*
D03*
Y323850D02*
D03*
X509270Y332740D02*
D03*
Y346710D02*
D03*
X495300Y318770D02*
D03*
Y304800D02*
D03*
X604520Y298450D02*
D03*
Y312420D02*
D03*
X673440Y814070D02*
D03*
Y828040D02*
D03*
X689950Y817880D02*
D03*
Y831850D02*
D03*
X675640Y406400D02*
D03*
Y420370D02*
D03*
D24*
X731520Y461660D02*
D03*
Y447660D02*
D03*
X782320Y436260D02*
D03*
Y422260D02*
D03*
Y465470D02*
D03*
Y451470D02*
D03*
Y499760D02*
D03*
Y485760D02*
D03*
X704850Y494680D02*
D03*
Y480680D02*
D03*
X728980Y323230D02*
D03*
Y309230D02*
D03*
X781050Y371490D02*
D03*
Y357490D02*
D03*
X698500Y356250D02*
D03*
Y342250D02*
D03*
X781050Y337200D02*
D03*
Y323200D02*
D03*
Y309260D02*
D03*
Y295260D02*
D03*
X430530Y793130D02*
D03*
Y779130D02*
D03*
X417830Y793130D02*
D03*
Y779130D02*
D03*
X487680Y785510D02*
D03*
Y771510D02*
D03*
X472440Y785510D02*
D03*
Y771510D02*
D03*
X617560Y875680D02*
D03*
Y861680D02*
D03*
X645500Y875680D02*
D03*
Y861680D02*
D03*
X631530Y875680D02*
D03*
Y861680D02*
D03*
X330200Y414640D02*
D03*
Y428640D02*
D03*
Y440040D02*
D03*
Y454040D02*
D03*
X429260Y488300D02*
D03*
Y502300D02*
D03*
Y459090D02*
D03*
Y473090D02*
D03*
X331470Y502270D02*
D03*
Y516270D02*
D03*
X494030Y361330D02*
D03*
Y347330D02*
D03*
X426720Y310500D02*
D03*
Y324500D02*
D03*
X420370Y360060D02*
D03*
Y346060D02*
D03*
X660400Y438800D02*
D03*
Y424800D02*
D03*
D25*
X563880Y720090D02*
D03*
X577850D02*
D03*
X563880Y706120D02*
D03*
X577850D02*
D03*
X563880Y688340D02*
D03*
X577850D02*
D03*
X563880Y674370D02*
D03*
X577850D02*
D03*
X563880Y656590D02*
D03*
X577850D02*
D03*
X563880Y642620D02*
D03*
X577850D02*
D03*
X563880Y624840D02*
D03*
X577850D02*
D03*
X563880Y610870D02*
D03*
X577850D02*
D03*
X563880Y593090D02*
D03*
X577850D02*
D03*
X563880Y579120D02*
D03*
X577850D02*
D03*
X563880Y561340D02*
D03*
X577850D02*
D03*
X563880Y515620D02*
D03*
X577850D02*
D03*
Y529590D02*
D03*
X563880D02*
D03*
Y547370D02*
D03*
X577850D02*
D03*
X346710Y535940D02*
D03*
X332740D02*
D03*
X396240D02*
D03*
X382270D02*
D03*
X720090Y481330D02*
D03*
X734060D02*
D03*
X753110D02*
D03*
X767080D02*
D03*
X750570Y355600D02*
D03*
X764540D02*
D03*
X713740Y342900D02*
D03*
X727710D02*
D03*
X656590Y468630D02*
D03*
X642620D02*
D03*
X626110D02*
D03*
X612140D02*
D03*
D26*
X564500Y499110D02*
D03*
X578500D02*
D03*
X753730Y450850D02*
D03*
X767730D02*
D03*
X753730Y466090D02*
D03*
X767730D02*
D03*
X751190Y323850D02*
D03*
X765190D02*
D03*
X751190Y337820D02*
D03*
X765190D02*
D03*
X304180Y494030D02*
D03*
X290180D02*
D03*
X604240Y826770D02*
D03*
X590240D02*
D03*
X604240Y839470D02*
D03*
X590240D02*
D03*
X604240Y814070D02*
D03*
X590240D02*
D03*
X604240Y801370D02*
D03*
X590240D02*
D03*
X330200Y307340D02*
D03*
X344200D02*
D03*
X330200Y290830D02*
D03*
X344200D02*
D03*
X468010Y302260D02*
D03*
X454010D02*
D03*
D27*
X604620Y668710D02*
D03*
Y657710D02*
D03*
Y646710D02*
D03*
Y635710D02*
D03*
Y624710D02*
D03*
Y613710D02*
D03*
Y602710D02*
D03*
Y591710D02*
D03*
Y580710D02*
D03*
D28*
X714620Y566910D02*
D03*
X624620D02*
D03*
Y728410D02*
D03*
X714620D02*
D03*
D29*
X620150Y827920D02*
D03*
Y822920D02*
D03*
Y817920D02*
D03*
Y812920D02*
D03*
X658150D02*
D03*
Y817920D02*
D03*
Y822920D02*
D03*
Y827920D02*
D03*
D30*
X631650Y801420D02*
D03*
X636650D02*
D03*
X641650D02*
D03*
X646650D02*
D03*
Y839420D02*
D03*
X641650D02*
D03*
X636650D02*
D03*
X631650D02*
D03*
D31*
X501070Y513390D02*
D03*
Y516890D02*
D03*
Y520390D02*
D03*
X492070D02*
D03*
Y516890D02*
D03*
Y513390D02*
D03*
D32*
X331210Y346590D02*
D03*
Y341590D02*
D03*
Y336590D02*
D03*
Y331590D02*
D03*
X362210D02*
D03*
Y336590D02*
D03*
Y341590D02*
D03*
Y346590D02*
D03*
D33*
X339210Y323590D02*
D03*
X344210D02*
D03*
X349210D02*
D03*
X354210D02*
D03*
Y354590D02*
D03*
X349210D02*
D03*
X344210D02*
D03*
X339210D02*
D03*
D34*
X334210Y351590D02*
D03*
X359210D02*
D03*
X334210Y326590D02*
D03*
X359210D02*
D03*
D35*
X477400Y402590D02*
D03*
X437000D02*
D03*
D36*
X568960Y449530D02*
D03*
Y411530D02*
D03*
D37*
X641650Y440280D02*
D03*
Y433780D02*
D03*
Y427280D02*
D03*
Y420780D02*
D03*
X602950D02*
D03*
Y427280D02*
D03*
Y433780D02*
D03*
Y440280D02*
D03*
D38*
X612550Y449880D02*
D03*
X619050D02*
D03*
X625550D02*
D03*
X632050D02*
D03*
Y411180D02*
D03*
X625550D02*
D03*
X619050D02*
D03*
X612550D02*
D03*
D39*
X627380Y377190D02*
D03*
X603680D02*
D03*
D40*
X375920Y419340D02*
D03*
Y459740D02*
D03*
D41*
X409800Y505050D02*
D03*
Y498550D02*
D03*
Y492050D02*
D03*
Y485550D02*
D03*
X352200D02*
D03*
Y492050D02*
D03*
Y498550D02*
D03*
Y505050D02*
D03*
D43*
X479090Y349090D02*
D03*
Y344090D02*
D03*
Y339090D02*
D03*
Y334090D02*
D03*
Y329090D02*
D03*
X440390D02*
D03*
Y334090D02*
D03*
Y339090D02*
D03*
Y344090D02*
D03*
Y349090D02*
D03*
D44*
X449740Y358440D02*
D03*
X454740D02*
D03*
X459740D02*
D03*
X464740D02*
D03*
X469740D02*
D03*
Y319740D02*
D03*
X464740D02*
D03*
X459740D02*
D03*
X454740D02*
D03*
X449740D02*
D03*
D45*
X269240Y745490D02*
D03*
X281940D02*
D03*
X294640D02*
D03*
X307340D02*
D03*
X320040D02*
D03*
X332740D02*
D03*
X345440D02*
D03*
X358140D02*
D03*
X370840D02*
D03*
X383540D02*
D03*
X396240D02*
D03*
X408940D02*
D03*
X421640D02*
D03*
X434340D02*
D03*
X447040D02*
D03*
X459740D02*
D03*
X472440D02*
D03*
X485140D02*
D03*
X497840D02*
D03*
X269240Y557530D02*
D03*
X281940D02*
D03*
X294640D02*
D03*
X307340D02*
D03*
X320040D02*
D03*
X332740D02*
D03*
X345440D02*
D03*
X358140D02*
D03*
X370840D02*
D03*
X383540D02*
D03*
X396240D02*
D03*
X408940D02*
D03*
X421640D02*
D03*
X434340D02*
D03*
X447040D02*
D03*
X459740D02*
D03*
X472440D02*
D03*
X485140D02*
D03*
X497840D02*
D03*
D57*
X346710Y339090D02*
D03*
D75*
X639150Y820420D02*
D03*
D76*
X622300Y430530D02*
D03*
D77*
X459740Y339090D02*
D03*
D81*
X270510Y868680D02*
D03*
X706460Y792480D02*
D03*
X629920Y311150D02*
D03*
X641690Y774700D02*
D03*
X595970Y867410D02*
D03*
X673440Y868680D02*
D03*
X430530Y868680D02*
D03*
X595970Y775970D02*
D03*
X529590Y824230D02*
D03*
X528320Y477520D02*
D03*
X372110Y787400D02*
D03*
X295910Y826770D02*
D03*
D82*
Y868680D02*
D03*
X321310D02*
D03*
X346710D02*
D03*
X372110D02*
D03*
X397510D02*
D03*
X731860Y792480D02*
D03*
X529590Y419100D02*
D03*
X655320Y311150D02*
D03*
X667090Y774700D02*
D03*
X278130Y434340D02*
D03*
Y408940D02*
D03*
X570570Y867410D02*
D03*
X545170D02*
D03*
X698840Y868680D02*
D03*
X455930Y868680D02*
D03*
X481330D02*
D03*
X570570Y775970D02*
D03*
X545170D02*
D03*
X803910Y321310D02*
D03*
X504190Y824230D02*
D03*
X478790D02*
D03*
X502920Y477520D02*
D03*
X806450Y445770D02*
D03*
X270510Y787400D02*
D03*
X295910D02*
D03*
X321310D02*
D03*
X346710D02*
D03*
X270510Y826770D02*
D03*
D83*
X718820Y608910D02*
D03*
Y676910D02*
D03*
D84*
X529590Y444500D02*
D03*
X278130Y383540D02*
D03*
X803910Y346710D02*
D03*
X806450Y471170D02*
D03*
D85*
X274240Y292420D02*
D03*
Y358420D02*
D03*
D86*
Y292420D02*
D03*
Y358420D02*
D03*
D87*
X557530Y364490D02*
D03*
Y288290D02*
D03*
M02*
