%FSTAX23Y23*%
%MOIN*%
%SFA1B1*%

%IPPOS*%
%AMD54*
4,1,8,-0.015800,0.002900,-0.015800,-0.002900,-0.009800,-0.008900,0.009800,-0.008900,0.015800,-0.002900,0.015800,0.002900,0.009800,0.008900,-0.009800,0.008900,-0.015800,0.002900,0.0*
1,1,0.011940,-0.009800,0.002900*
1,1,0.011940,-0.009800,-0.002900*
1,1,0.011940,0.009800,-0.002900*
1,1,0.011940,0.009800,0.002900*
%
%AMD55*
4,1,8,0.002900,0.015800,-0.002900,0.015800,-0.008900,0.009800,-0.008900,-0.009800,-0.002900,-0.015800,0.002900,-0.015800,0.008900,-0.009800,0.008900,0.009800,0.002900,0.015800,0.0*
1,1,0.011940,0.002900,0.009800*
1,1,0.011940,-0.002900,0.009800*
1,1,0.011940,-0.002900,-0.009800*
1,1,0.011940,0.002900,-0.009800*
%
%AMD56*
4,1,8,0.049100,0.055200,-0.049100,0.055200,-0.055200,0.049100,-0.055200,-0.049100,-0.049100,-0.055200,0.049100,-0.055200,0.055200,-0.049100,0.055200,0.049100,0.049100,0.055200,0.0*
1,1,0.012100,0.049100,0.049100*
1,1,0.012100,-0.049100,0.049100*
1,1,0.012100,-0.049100,-0.049100*
1,1,0.012100,0.049100,-0.049100*
%
%AMD62*
4,1,8,0.015000,0.010300,-0.015000,0.010300,-0.020500,0.004700,-0.020500,-0.004700,-0.015000,-0.010300,0.015000,-0.010300,0.020500,-0.004700,0.020500,0.004700,0.015000,0.010300,0.0*
1,1,0.011160,0.015000,0.004700*
1,1,0.011160,-0.015000,0.004700*
1,1,0.011160,-0.015000,-0.004700*
1,1,0.011160,0.015000,-0.004700*
%
%AMD63*
4,1,8,-0.010300,0.015000,-0.010300,-0.015000,-0.004700,-0.020500,0.004700,-0.020500,0.010300,-0.015000,0.010300,0.015000,0.004700,0.020500,-0.004700,0.020500,-0.010300,0.015000,0.0*
1,1,0.011160,-0.004700,0.015000*
1,1,0.011160,-0.004700,-0.015000*
1,1,0.011160,0.004700,-0.015000*
1,1,0.011160,0.004700,0.015000*
%
%AMD64*
4,1,8,-0.026700,-0.012100,0.026700,-0.012100,0.034700,-0.004000,0.034700,0.004000,0.026700,0.012100,-0.026700,0.012100,-0.034700,0.004000,-0.034700,-0.004000,-0.026700,-0.012100,0.0*
1,1,0.016080,-0.026700,-0.004000*
1,1,0.016080,0.026700,-0.004000*
1,1,0.016080,0.026700,0.004000*
1,1,0.016080,-0.026700,0.004000*
%
%ADD33R,0.035430X0.011810*%
%ADD34R,0.011810X0.035430*%
%ADD35R,0.011810X0.011810*%
%ADD40R,0.038580X0.133860*%
%ADD41R,0.216540X0.056300*%
%ADD44R,0.040000X0.020000*%
%ADD45R,0.020000X0.040000*%
%ADD46R,0.112000X0.152000*%
%ADD47R,0.063120X0.137920*%
%ADD48R,0.038000X0.038000*%
%ADD49R,0.043430X0.039500*%
%ADD50R,0.038000X0.038000*%
%ADD51R,0.039500X0.043430*%
%ADD52R,0.063120X0.032410*%
%ADD53R,0.102490X0.051310*%
G04~CAMADD=54~8~0.0~0.0~178.4~316.2~59.7~0.0~15~0.0~0.0~0.0~0.0~0~0.0~0.0~0.0~0.0~0~0.0~0.0~0.0~90.0~316.0~178.0*
%ADD54D54*%
G04~CAMADD=55~8~0.0~0.0~178.4~316.2~59.7~0.0~15~0.0~0.0~0.0~0.0~0~0.0~0.0~0.0~0.0~0~0.0~0.0~0.0~0.0~178.4~316.2*
%ADD55D55*%
G04~CAMADD=56~8~0.0~0.0~1103.6~1103.6~60.5~0.0~15~0.0~0.0~0.0~0.0~0~0.0~0.0~0.0~0.0~0~0.0~0.0~0.0~0.0~1103.6~1103.6*
%ADD56D56*%
%ADD57R,0.015870X0.015870*%
%ADD58R,0.070870X0.070870*%
%ADD59R,0.064300X0.224530*%
%ADD60R,0.137920X0.063120*%
%ADD61R,0.114300X0.114300*%
G04~CAMADD=62~8~0.0~0.0~410.7~206.0~55.8~0.0~15~0.0~0.0~0.0~0.0~0~0.0~0.0~0.0~0.0~0~0.0~0.0~0.0~0.0~410.7~206.0*
%ADD62D62*%
G04~CAMADD=63~8~0.0~0.0~410.7~206.0~55.8~0.0~15~0.0~0.0~0.0~0.0~0~0.0~0.0~0.0~0.0~0~0.0~0.0~0.0~90.0~206.0~411.0*
%ADD63D63*%
G04~CAMADD=64~8~0.0~0.0~694.2~241.4~80.4~0.0~15~0.0~0.0~0.0~0.0~0~0.0~0.0~0.0~0.0~0~0.0~0.0~0.0~180.0~694.0~242.0*
%ADD64D64*%
%ADD65R,0.043430X0.086740*%
%ADD66R,0.067060X0.067060*%
%ADD67C,0.067060*%
%ADD68C,0.045400*%
%ADD69R,0.067060X0.067060*%
%ADD70C,0.027690*%
%ADD71O,0.078870X0.043430*%
%ADD72C,0.055240*%
%LNsolears_v1-1*%
%LPD*%
G54D33*
X01303Y01364D03*
Y01344D03*
Y01325D03*
Y01305D03*
X01426D03*
Y01325D03*
Y01344D03*
Y01364D03*
G54D34*
X01335Y01273D03*
X01355D03*
X01374D03*
X01394D03*
Y01396D03*
X01374D03*
X01355D03*
X01335D03*
G54D35*
X01315Y01384D03*
X01414D03*
X01315Y01285D03*
X01414D03*
G54D40*
X0247Y01485D03*
X02376D03*
G54D41*
X0148Y0165D03*
Y0181D03*
G54D44*
X01733Y01384D03*
Y01365D03*
Y01345D03*
Y01325D03*
Y01305D03*
Y01286D03*
X01887D03*
Y01305D03*
Y01325D03*
Y01345D03*
Y01365D03*
Y01384D03*
G54D45*
X0178Y01238D03*
X018D03*
X0182D03*
X0184D03*
Y01432D03*
X0182D03*
X018D03*
X0178D03*
G54D46*
X0181Y01335D03*
G54D47*
X0106Y0206D03*
X01209D03*
G54D48*
X026Y0162D03*
Y01565D03*
X01705Y0318D03*
Y03235D03*
X03015Y01215D03*
Y0116D03*
X0295Y01215D03*
Y0116D03*
X0302Y01715D03*
Y0166D03*
X0296Y01715D03*
Y0166D03*
X01755Y03115D03*
Y0306D03*
X01585Y03115D03*
Y0306D03*
X0164Y03235D03*
Y0318D03*
X01895Y02005D03*
Y0195D03*
X02025Y02025D03*
Y0197D03*
X01415Y01205D03*
Y0115D03*
X01235Y01535D03*
Y0148D03*
X0123Y0182D03*
Y01875D03*
X01075Y01805D03*
Y0186D03*
X01155Y018D03*
Y01855D03*
X01755Y01805D03*
Y0186D03*
X013Y01895D03*
Y0184D03*
X0162Y0122D03*
Y01275D03*
X02005Y0131D03*
Y01365D03*
X0195Y01255D03*
Y012D03*
X0238Y01175D03*
Y0123D03*
X02651Y03205D03*
Y0326D03*
X02716Y0322D03*
Y03275D03*
X0266Y016D03*
Y01655D03*
G54D49*
X0288Y01817D03*
Y01762D03*
X0308Y01717D03*
Y01662D03*
Y01832D03*
Y01777D03*
Y01967D03*
Y01912D03*
X02775Y01947D03*
Y01892D03*
X0287Y01272D03*
Y01217D03*
X03075Y01462D03*
Y01407D03*
X0275Y01402D03*
Y01347D03*
X03075Y01327D03*
Y01272D03*
Y01217D03*
Y01162D03*
X01695Y03122D03*
Y03067D03*
X01645Y03122D03*
Y03067D03*
X0192Y03092D03*
Y03037D03*
X0186Y03092D03*
Y03037D03*
X02431Y03447D03*
Y03392D03*
X02541Y03447D03*
Y03392D03*
X02486Y03447D03*
Y03392D03*
X013Y01632D03*
Y01687D03*
Y01732D03*
Y01787D03*
X0169Y01922D03*
Y01977D03*
Y01807D03*
Y01862D03*
X01305Y01977D03*
Y02032D03*
X01945Y01422D03*
Y01367D03*
X0168Y01222D03*
Y01277D03*
X01655Y01417D03*
Y01362D03*
X026Y01727D03*
Y01672D03*
G54D50*
X0222Y02835D03*
X02275D03*
X0222Y0278D03*
X02275D03*
X0222Y0271D03*
X02275D03*
X0222Y02655D03*
X02275D03*
X0222Y02585D03*
X02275D03*
X0222Y0253D03*
X02275D03*
X0222Y0246D03*
X02275D03*
X0222Y02405D03*
X02275D03*
X0222Y02335D03*
X02275D03*
X0222Y0228D03*
X02275D03*
X0222Y0221D03*
X02275D03*
X0222Y0203D03*
X02275D03*
Y02085D03*
X0222D03*
Y02155D03*
X02275D03*
X01365Y0211D03*
X0131D03*
X0156D03*
X01505D03*
X02835Y01895D03*
X0289D03*
X02965D03*
X0302D03*
X02955Y014D03*
X0301D03*
X0281Y0135D03*
X02865D03*
X02585Y01845D03*
X0253D03*
X02465D03*
X0241D03*
G54D51*
X02222Y01965D03*
X02277D03*
X02967Y01775D03*
X03022D03*
X02967Y01835D03*
X03022D03*
X02957Y01275D03*
X03012D03*
X02957Y0133D03*
X03012D03*
X01197Y01945D03*
X01142D03*
X02378Y03255D03*
X02323D03*
X02378Y03305D03*
X02323D03*
X02378Y03205D03*
X02323D03*
X02378Y03155D03*
X02323D03*
X013Y0121D03*
X01355D03*
X013Y01145D03*
X01355D03*
X01844Y01185D03*
X01789D03*
G54D52*
X0238Y02632D03*
Y02589D03*
Y02546D03*
Y02502D03*
Y02459D03*
Y02416D03*
Y02372D03*
Y02329D03*
Y02286D03*
G54D53*
X02813Y02231D03*
X02459D03*
Y02867D03*
X02813D03*
G54D54*
X02441Y03259D03*
Y03239D03*
Y0322D03*
Y032D03*
X02591D03*
Y0322D03*
Y03239D03*
Y03259D03*
G54D55*
X02486Y03155D03*
X02506D03*
X02526D03*
X02545D03*
Y03304D03*
X02526D03*
X02506D03*
X02486D03*
G54D56*
X02516Y0323D03*
G54D57*
X01972Y02021D03*
Y02035D03*
Y02048D03*
X01937D03*
Y02035D03*
Y02021D03*
G54D58*
X01365Y01335D03*
G54D59*
X01884Y0161D03*
X01725D03*
G54D60*
X0224Y01769D03*
Y0162D03*
G54D61*
X0245Y01695D03*
G54D62*
X02526Y01733D03*
Y01707D03*
Y01682D03*
Y01656D03*
X02373D03*
Y01682D03*
Y01707D03*
Y01733D03*
G54D63*
X02411Y01771D03*
X02437D03*
X02462D03*
X02488D03*
Y01618D03*
X02462D03*
X02437D03*
X02411D03*
G54D64*
X01613Y01988D03*
Y01962D03*
Y01937D03*
Y01911D03*
X01386D03*
Y01937D03*
Y01962D03*
Y01988D03*
G54D65*
X0106Y02935D03*
X0111D03*
X0116D03*
X0121D03*
X0126D03*
X0131D03*
X0136D03*
X0141D03*
X0146D03*
X0151D03*
X0156D03*
X0161D03*
X0166D03*
X0171D03*
X0176D03*
X0181D03*
X0186D03*
X0191D03*
X0196D03*
X0106Y02195D03*
X0111D03*
X0116D03*
X0121D03*
X0126D03*
X0131D03*
X0136D03*
X0141D03*
X0146D03*
X0151D03*
X0156D03*
X0161D03*
X0166D03*
X0171D03*
X0176D03*
X0181D03*
X0186D03*
X0191D03*
X0196D03*
G54D66*
X0163Y01095D03*
X01065Y0342D03*
X02781Y0312D03*
X0248Y01225D03*
X02526Y0305D03*
X02346Y03415D03*
X02651Y0342D03*
X01695D03*
X02346Y03055D03*
X02085Y03245D03*
X0208Y0188D03*
X01465Y031D03*
X01165Y03255D03*
G54D67*
X0153Y01095D03*
X01165Y0342D03*
X01265D03*
X01365D03*
X01465D03*
X01565D03*
X02881Y0312D03*
X02085Y0165D03*
X0258Y01225D03*
X02626Y0305D03*
X01095Y0171D03*
Y0161D03*
X02246Y03415D03*
X02146D03*
X02751Y0342D03*
X01795D03*
X01895D03*
X02246Y03055D03*
X02146D03*
X03165Y01265D03*
X01985Y03245D03*
X01885D03*
X0198Y0188D03*
X03175Y01755D03*
X01065Y031D03*
X01165D03*
X01265D03*
X01365D03*
X01065Y03255D03*
G54D68*
X0283Y02397D03*
Y02665D03*
G54D69*
X02085Y0175D03*
X01095Y0151D03*
X03165Y01365D03*
X03175Y01855D03*
G54D70*
X01079Y01151D03*
Y01411D03*
X014Y0165D03*
X01395Y0145D03*
X0135D03*
X01985Y03055D03*
X01239Y01155D03*
X01905Y02055D03*
X0188Y0211D03*
X02465Y03125D03*
X0142Y0211D03*
X01845Y0114D03*
X0173Y01225D03*
X0127Y02855D03*
X02645Y0317D03*
X0228Y0312D03*
X01785Y03015D03*
X02135Y0202D03*
X02155Y0217D03*
X0216Y0235D03*
X02155Y0245D03*
X0215Y0257D03*
X02145Y0269D03*
X0215Y02825D03*
X02085Y02445D03*
X01577Y02442D03*
X019Y02355D03*
X0126Y02275D03*
X0107Y0239D03*
X0242Y01125D03*
X01045Y0195D03*
X0186Y0228D03*
X0181D03*
X0191D03*
X0176D03*
X01665D03*
X0171D03*
X01735Y0192D03*
X0133Y01935D03*
X01745Y0196D03*
X01655Y0189D03*
X0126Y019D03*
X01185Y0189D03*
X0111Y0284D03*
X0116D03*
X01215Y0226D03*
X0116D03*
X02925Y01775D03*
Y01835D03*
X02775Y01855D03*
X02912Y0133D03*
X02915Y01275D03*
X0275Y01295D03*
X01255Y0123D03*
X01235Y013D03*
Y01255D03*
X02516Y03188D03*
Y03271D03*
X02475Y0323D03*
X02557D03*
X02516D03*
G54D71*
X01079Y01151D03*
Y01411D03*
G54D72*
X02195Y01435D03*
Y01135D03*
M02*