%FSTAX23Y23*%
%MOIN*%
%SFA1B1*%

%IPPOS*%
%AMD33*
4,1,4,-0.041700,0.000000,0.000000,-0.041700,0.041700,0.000000,0.000000,0.041700,-0.041700,0.000000,0.0*
%
%ADD26R,0.059060X0.059060*%
%ADD27C,0.059060*%
%ADD30C,0.047240*%
%ADD32R,0.059060X0.059060*%
G04~CAMADD=33~10~0.0~590.6~0.0~0.0~0.0~0.0~0~0.0~0.0~0.0~0.0~0~0.0~0.0~0.0~0.0~0~0.0~0.0~0.0~135.0~590.6~0.0*
%ADD33D33*%
%ADD34R,0.051500X0.051500*%
%ADD35C,0.051500*%
%ADD36O,0.060000X0.118110*%
%ADD38C,0.019680*%
%ADD40C,0.019680*%
%ADD41C,0.011810*%
%LNsolears_v3-1*%
%LPD*%
G36*
X02058Y03022D02*
Y02351D01*
X01846Y02139*
X01844Y02135*
X01843Y02131*
Y01301*
X01844Y01298*
X01846Y01294*
X02058Y01082*
Y00116*
X01954Y00012*
X01703*
X01446Y00269*
X01442Y00271*
X01439Y00272*
X00893*
X00039Y01126*
Y03112*
X00623Y03696*
X01384*
X02058Y03022*
G37*
%LNsolears_v3-2*%
%LPC*%
G36*
X0102Y03616D02*
X01013Y03614D01*
X01008Y03611*
X01005Y03606*
X01003Y036*
X01005Y03593*
X01008Y03588*
X01013Y03585*
X0102Y03583*
X01026Y03585*
X01031Y03588*
X01034Y03593*
X01036Y036*
X01034Y03606*
X01031Y03611*
X01026Y03614*
X0102Y03616*
G37*
G36*
X01363Y03599D02*
X01354Y03598D01*
X01346Y03595*
X01338Y03589*
X01333Y03581*
X01329Y03573*
X01328Y03564*
X01329Y03554*
X01333Y03546*
X01338Y03538*
X01346Y03533*
X01354Y03529*
X01363Y03528*
X01373Y03529*
X01381Y03533*
X01389Y03538*
X01394Y03546*
X01398Y03554*
X01399Y03564*
X01398Y03573*
X01394Y03581*
X01389Y03589*
X01381Y03595*
X01373Y03598*
X01363Y03599*
G37*
G36*
X00636D02*
X00627Y03598D01*
X00618Y03595*
X00611Y03589*
X00605Y03581*
X00602Y03573*
X006Y03564*
X00602Y03554*
X00605Y03546*
X00611Y03538*
X00618Y03533*
X00627Y03529*
X00636Y03528*
X00645Y03529*
X00654Y03533*
X00661Y03538*
X00667Y03546*
X00671Y03554*
X00672Y03564*
X00671Y03573*
X00667Y03581*
X00661Y03589*
X00654Y03595*
X00645Y03598*
X00636Y03599*
G37*
G36*
X00565Y03533D02*
X00555Y03531D01*
X00545Y03527*
X00541Y03524*
X00565Y035*
X0059Y03524*
X00585Y03527*
X00576Y03531*
X00565Y03533*
G37*
G36*
X01434D02*
X01424Y03531D01*
X01414Y03527*
X0141Y03524*
X01434Y035*
X01458Y03524*
X01454Y03527*
X01445Y03531*
X01434Y03533*
G37*
G36*
X00785Y03506D02*
X00778Y03504D01*
X00773Y03501*
X0077Y03496*
X00768Y0349*
X0077Y03483*
X00773Y03478*
X00778Y03475*
X00785Y03473*
X00791Y03475*
X00796Y03478*
X00799Y03483*
X00801Y0349*
X00799Y03496*
X00796Y03501*
X00791Y03504*
X00785Y03506*
G37*
G36*
X00534Y03517D02*
X00531Y03513D01*
X00527Y03503*
X00526Y03493*
X00527Y03483*
X00531Y03473*
X00534Y03469*
X00558Y03493*
X00534Y03517*
G37*
G36*
X01403D02*
X014Y03513D01*
X01396Y03503*
X01394Y03493*
X01396Y03483*
X014Y03473*
X01403Y03469*
X01427Y03493*
X01403Y03517*
G37*
G36*
X00597D02*
X00572Y03493D01*
X00597Y03469*
X006Y03473*
X00604Y03483*
X00605Y03493*
X00604Y03503*
X006Y03513*
X00597Y03517*
G37*
G36*
X01465D02*
X01441Y03493D01*
X01465Y03469*
X01469Y03473*
X01473Y03483*
X01474Y03493*
X01473Y03503*
X01469Y03513*
X01465Y03517*
G37*
G36*
X01434Y03486D02*
X0141Y03462D01*
X01414Y03458*
X01424Y03454*
X01434Y03453*
X01445Y03454*
X01454Y03458*
X01458Y03462*
X01434Y03486*
G37*
G36*
X00565D02*
X00541Y03462D01*
X00545Y03458*
X00555Y03454*
X00565Y03453*
X00576Y03454*
X00585Y03458*
X0059Y03462*
X00565Y03486*
G37*
G36*
X00495Y03458D02*
X00485Y03457D01*
X00477Y03453*
X00469Y03447*
X00464Y0344*
X0046Y03431*
X00459Y03422*
X0046Y03413*
X00464Y03404*
X00469Y03397*
X00477Y03391*
X00485Y03388*
X00495Y03386*
X00504Y03388*
X00513Y03391*
X0052Y03397*
X00526Y03404*
X00529Y03413*
X0053Y03422*
X00529Y03431*
X00526Y0344*
X0052Y03447*
X00513Y03453*
X00504Y03457*
X00495Y03458*
G37*
G36*
X01505D02*
X01496Y03457D01*
X01487Y03453*
X0148Y03447*
X01474Y0344*
X0147Y03431*
X01469Y03422*
X0147Y03413*
X01474Y03404*
X0148Y03397*
X01487Y03391*
X01496Y03388*
X01505Y03386*
X01514Y03388*
X01523Y03391*
X0153Y03397*
X01536Y03404*
X01539Y03413*
X01541Y03422*
X01539Y03431*
X01536Y0344*
X0153Y03447*
X01523Y03453*
X01514Y03457*
X01505Y03458*
G37*
G36*
X01058Y03362D02*
Y03331D01*
X01088*
X01088Y03336*
X01084Y03345*
X01078Y03352*
X01071Y03358*
X01062Y03361*
X01058Y03362*
G37*
G36*
X01048D02*
X01044Y03361D01*
X01035Y03358*
X01027Y03352*
X01022Y03345*
X01018Y03336*
X01017Y03331*
X01048*
Y03362*
G37*
G36*
X01576Y03387D02*
X01566Y03386D01*
X01558Y03382*
X0155Y03377*
X01545Y03369*
X01541Y03361*
X0154Y03351*
X01541Y03342*
X01545Y03334*
X0155Y03326*
X01558Y03321*
X01566Y03317*
X01576Y03316*
X01585Y03317*
X01593Y03321*
X01601Y03326*
X01607Y03334*
X0161Y03342*
X01611Y03351*
X0161Y03361*
X01607Y03369*
X01601Y03377*
X01593Y03382*
X01585Y03386*
X01576Y03387*
G37*
G36*
X00424D02*
X00415Y03386D01*
X00406Y03382*
X00399Y03377*
X00393Y03369*
X00389Y03361*
X00388Y03351*
X00389Y03342*
X00393Y03334*
X00399Y03326*
X00406Y03321*
X00415Y03317*
X00424Y03316*
X00433Y03317*
X00442Y03321*
X00449Y03326*
X00455Y03334*
X00459Y03342*
X0046Y03351*
X00459Y03361*
X00455Y03369*
X00449Y03377*
X00442Y03382*
X00433Y03386*
X00424Y03387*
G37*
G36*
X01132Y03358D02*
X01123Y03357D01*
X01116Y03354*
X01109Y03349*
X01104Y03342*
X01101Y03335*
X011Y03326*
X01101Y03318*
X01104Y03311*
X01109Y03304*
X01116Y03299*
X01123Y03296*
X01132Y03295*
X0114Y03296*
X01148Y03299*
X01154Y03304*
X01159Y03311*
X01162Y03318*
X01164Y03326*
X01162Y03335*
X01159Y03342*
X01154Y03349*
X01148Y03354*
X0114Y03357*
X01132Y03358*
G37*
G36*
X01088Y03321D02*
X01058D01*
Y03291*
X01062Y03292*
X01071Y03295*
X01078Y03301*
X01084Y03308*
X01088Y03317*
X01088Y03321*
G37*
G36*
X01646Y03317D02*
X01637Y03315D01*
X01628Y03312*
X01621Y03306*
X01615Y03299*
X01612Y0329*
X01611Y03281*
X01612Y03272*
X01615Y03263*
X01621Y03255*
X01628Y0325*
X01637Y03246*
X01646Y03245*
X01656Y03246*
X01664Y0325*
X01672Y03255*
X01677Y03263*
X01681Y03272*
X01682Y03281*
X01681Y0329*
X01677Y03299*
X01672Y03306*
X01664Y03312*
X01656Y03315*
X01646Y03317*
G37*
G36*
X00353D02*
X00344Y03315D01*
X00335Y03312*
X00328Y03306*
X00322Y03299*
X00319Y0329*
X00318Y03281*
X00319Y03272*
X00322Y03263*
X00328Y03255*
X00335Y0325*
X00344Y03246*
X00353Y03245*
X00363Y03246*
X00371Y0325*
X00379Y03255*
X00384Y03263*
X00388Y03272*
X00389Y03281*
X00388Y0329*
X00384Y03299*
X00379Y03306*
X00371Y03312*
X00363Y03315*
X00353Y03317*
G37*
G36*
X01717Y0326D02*
X01667Y0321D01*
X01717Y0316*
X01767Y0321*
X01717Y0326*
G37*
G36*
X00283D02*
X00232Y0321D01*
X00246Y03196*
X00243Y03193*
X0024Y03188*
X00238Y03182*
Y02973*
X0024Y02967*
X00243Y02962*
X0031Y02895*
Y02736*
X00294*
Y02672*
X00358*
Y02736*
X00342*
Y02902*
X00341Y02908*
X00337Y02913*
X003Y0295*
X00302Y02955*
X00335*
X00444Y02846*
X00449Y02843*
X00455Y02841*
X00515*
X0061Y02746*
Y02678*
X00515Y02583*
X00397*
X00391Y02581*
X00386Y02578*
X00278Y0247*
X00274Y02473*
X00274Y02473*
X00276Y0248*
X00274Y02486*
X00271Y02491*
X00266Y02494*
X0026Y02496*
X00235*
X00226Y02505*
X00227Y02511*
X00231Y02513*
X00234Y02518*
X00236Y02525*
Y0267*
X00234Y02676*
X00231Y02681*
X00174Y02738*
X00169Y02741*
X00163Y02743*
X00135*
X00134Y02744*
X00129Y02752*
X00121Y02757*
X00113Y02761*
X00104Y02762*
X00094Y02761*
X00086Y02757*
X00078Y02752*
X00073Y02744*
X00069Y02736*
X00068Y02726*
X00069Y02717*
X00073Y02709*
X00078Y02701*
X00086Y02696*
X00094Y02692*
X00104Y02691*
X00113Y02692*
X00121Y02696*
X00129Y02701*
X00134Y02709*
X00135Y0271*
X00156*
X00203Y02663*
Y02611*
X00199Y0261*
X00174Y02634*
X00169Y02638*
X00163Y02639*
X00137*
X00134Y02644*
X00129Y02652*
X00121Y02657*
X00113Y02661*
X00104Y02662*
X00094Y02661*
X00086Y02657*
X00078Y02652*
X00073Y02644*
X00069Y02636*
X00068Y02626*
X00069Y02617*
X00073Y02609*
X00078Y02601*
X00086Y02596*
X00094Y02592*
X00104Y02591*
X00113Y02592*
X00121Y02596*
X00129Y02601*
X00133Y02607*
X00156*
X00178Y02585*
Y02514*
X00179Y02508*
X00183Y02503*
X00217Y02468*
X00218Y02467*
X00217Y02462*
X00123*
X00122Y02462*
X00068*
Y02391*
X00139*
Y0243*
X00277*
X00283Y02431*
X00288Y02435*
X0029Y02436*
X00294Y02434*
Y0239*
X00358*
Y02453*
X00313*
X00311Y02458*
X00404Y0255*
X00521*
X00528Y02552*
X00533Y02555*
X00638Y0266*
X00641Y02665*
X00642Y02671*
Y02753*
X00641Y02759*
X00638Y02764*
X00533Y02869*
X00528Y02872*
X00521Y02874*
X00462*
X00358Y02978*
Y03018*
X00294*
Y02963*
X0029Y02961*
X00271Y0298*
Y03165*
X00275Y03167*
X00283Y0316*
X00333Y0321*
X00283Y0326*
G37*
G36*
X00635Y03186D02*
X00628Y03184D01*
X00623Y03181*
X0062Y03176*
X00618Y0317*
X0062Y03163*
X00623Y03158*
X00628Y03155*
X00635Y03153*
X00641Y03155*
X00646Y03158*
X00649Y03163*
X00651Y0317*
X00649Y03176*
X00646Y03181*
X00641Y03184*
X00635Y03186*
G37*
G36*
X01365Y03161D02*
X01358Y03159D01*
X01353Y03156*
X0135Y03151*
X01348Y03145*
X0135Y03138*
X01353Y03133*
X01358Y0313*
X01365Y03128*
X01371Y0313*
X01376Y03133*
X01379Y03138*
X01381Y03145*
X01379Y03151*
X01376Y03156*
X01371Y03159*
X01365Y03161*
G37*
G36*
X00405Y03156D02*
X00398Y03154D01*
X00393Y03151*
X0039Y03146*
X00388Y0314*
X0039Y03133*
X00393Y03128*
X00398Y03125*
X00405Y03123*
X00411Y03125*
X00416Y03128*
X00419Y03133*
X00421Y0314*
X00419Y03146*
X00416Y03151*
X00411Y03154*
X00405Y03156*
G37*
G36*
X00095Y03081D02*
X00088Y03079D01*
X00083Y03076*
X0008Y03071*
X00078Y03065*
X0008Y03058*
X00083Y03053*
X00088Y0305*
X00095Y03048*
X00101Y0305*
X00106Y03053*
X00109Y03058*
X00111Y03065*
X00109Y03071*
X00106Y03076*
X00101Y03079*
X00095Y03081*
G37*
G36*
X01637Y03022D02*
Y02991D01*
X01667*
X01667Y02996*
X01663Y03005*
X01657Y03012*
X0165Y03018*
X01641Y03021*
X01637Y03022*
G37*
G36*
X01627D02*
X01622Y03021D01*
X01614Y03018*
X01606Y03012*
X016Y03005*
X01597Y02996*
X01596Y02991*
X01627*
Y03022*
G37*
G36*
X01063D02*
Y02991D01*
X01093*
X01092Y02996*
X01089Y03005*
X01083Y03012*
X01076Y03018*
X01067Y03021*
X01063Y03022*
G37*
G36*
X01053D02*
X01048Y03021D01*
X0104Y03018*
X01032Y03012*
X01026Y03005*
X01023Y02996*
X01022Y02991*
X01053*
Y03022*
G37*
G36*
X00489D02*
Y02991D01*
X00519*
X00518Y02996*
X00515Y03005*
X00509Y03012*
X00502Y03018*
X00493Y03021*
X00489Y03022*
G37*
G36*
X00479D02*
X00474Y03021D01*
X00465Y03018*
X00458Y03012*
X00452Y03005*
X00449Y02996*
X00448Y02991*
X00479*
Y03022*
G37*
G36*
X00974Y03358D02*
X00966Y03357D01*
X00958Y03354*
X00952Y03349*
X00946Y03342*
X00943Y03335*
X00942Y03326*
X00943Y03318*
X00946Y03311*
X00952Y03304*
X00958Y03299*
X00966Y03296*
X00974Y03295*
X00982Y03296*
X01294Y02984*
Y02957*
X01289Y02955*
X00927Y03318*
Y03358*
X00864*
Y03295*
X00904*
X01268Y02931*
Y0237*
X0127Y02363*
X01273Y02358*
X01514Y02118*
X01514Y02116*
X01508Y02109*
X01504Y021*
X01503Y02091*
Y02032*
X01504Y02023*
X01508Y02014*
X01514Y02007*
X01521Y02001*
X0153Y01997*
X01539Y01996*
X01549Y01997*
X01557Y02001*
X01565Y02007*
X01571Y02014*
X01574Y02023*
X01575Y02032*
Y02074*
X0158Y02076*
X01603Y02053*
Y02032*
X01604Y02023*
X01608Y02014*
X01614Y02007*
X01621Y02001*
X0163Y01997*
X01639Y01996*
X01649Y01997*
X01657Y02001*
X01665Y02007*
X01671Y02014*
X01674Y02023*
X01675Y02032*
Y02091*
X01674Y021*
X01671Y02109*
X01665Y02116*
X01657Y02122*
X01649Y02126*
X01639Y02127*
X0163Y02126*
X01621Y02122*
X01614Y02116*
X01608Y02109*
X01606Y02104*
X01601Y02105*
Y02109*
X016Y02116*
X01596Y02121*
X01569Y02148*
X01564Y02151*
X01561Y02152*
X01326Y02387*
Y02991*
X01325Y02997*
X01321Y03002*
X01032Y03291*
X01035Y03295*
X01044Y03292*
X01048Y03291*
Y03321*
X01017*
X01018Y03317*
X01022Y03308*
X01018Y03306*
X01005Y03318*
X01006Y03326*
X01005Y03335*
X01002Y03342*
X00997Y03349*
X0099Y03354*
X00982Y03357*
X00974Y03358*
G37*
G36*
X01506Y03018D02*
X01443D01*
Y02955*
X01506*
Y03018*
G37*
G36*
X0171Y03018D02*
X01702Y03017D01*
X01694Y03014*
X01688Y03009*
X01683Y03002*
X0168Y02995*
X01679Y02986*
X0168Y02978*
X01683Y02971*
X01688Y02964*
X01694Y02959*
X01702Y02956*
X0171Y02955*
X01719Y02956*
X01726Y02959*
X01733Y02964*
X01738Y02971*
X01741Y02978*
X01742Y02986*
X01741Y02995*
X01738Y03002*
X01733Y03009*
X01726Y03014*
X01719Y03017*
X0171Y03018*
G37*
G36*
X01553D02*
X01545Y03017D01*
X01537Y03014*
X0153Y03009*
X01525Y03002*
X01522Y02995*
X01521Y02986*
X01522Y02978*
X01525Y02971*
X0153Y02964*
X01537Y02959*
X01545Y02956*
X01553Y02955*
X01561Y02956*
X01569Y02959*
X01576Y02964*
X01581Y02971*
X01584Y02978*
X01585Y02986*
X01584Y02995*
X01581Y03002*
X01576Y03009*
X01569Y03014*
X01561Y03017*
X01553Y03018*
G37*
G36*
X01136D02*
X01128Y03017D01*
X0112Y03014*
X01114Y03009*
X01109Y03002*
X01106Y02995*
X01104Y02986*
X01106Y02978*
X01109Y02971*
X01114Y02964*
X0112Y02959*
X01128Y02956*
X01136Y02955*
X01145Y02956*
X01152Y02959*
X01159Y02964*
X01164Y02971*
X01167Y02978*
X01168Y02986*
X01167Y02995*
X01164Y03002*
X01159Y03009*
X01152Y03014*
X01145Y03017*
X01136Y03018*
G37*
G36*
X00562D02*
X00554Y03017D01*
X00546Y03014*
X0054Y03009*
X00535Y03002*
X00531Y02995*
X0053Y02986*
X00531Y02978*
X00535Y02971*
X0054Y02964*
X00546Y02959*
X00554Y02956*
X00562Y02955*
X00571Y02956*
X00578Y02959*
X00585Y02964*
X0059Y02971*
X00593Y02978*
X00594Y02986*
X00593Y02995*
X0059Y03002*
X00585Y03009*
X00578Y03014*
X00571Y03017*
X00562Y03018*
G37*
G36*
X00405D02*
X00397Y03017D01*
X00389Y03014*
X00382Y03009*
X00377Y03002*
X00374Y02995*
X00373Y02986*
X00374Y02978*
X00377Y02971*
X00382Y02964*
X00389Y02959*
X00397Y02956*
X00405Y02955*
X00413Y02956*
X00421Y02959*
X00427Y02964*
X00432Y02971*
X00436Y02978*
X00437Y02986*
X00436Y02995*
X00432Y03002*
X00427Y03009*
X00421Y03014*
X00413Y03017*
X00405Y03018*
G37*
G36*
X01667Y02981D02*
X01637D01*
Y02951*
X01641Y02952*
X0165Y02955*
X01657Y02961*
X01663Y02968*
X01667Y02977*
X01667Y02981*
G37*
G36*
X01627D02*
X01596D01*
X01597Y02977*
X016Y02968*
X01606Y02961*
X01614Y02955*
X01622Y02952*
X01627Y02951*
Y02981*
G37*
G36*
X01093D02*
X01063D01*
Y02951*
X01067Y02952*
X01076Y02955*
X01083Y02961*
X01089Y02968*
X01092Y02977*
X01093Y02981*
G37*
G36*
X01053D02*
X01022D01*
X01023Y02977*
X01026Y02968*
X01032Y02961*
X0104Y02955*
X01048Y02952*
X01053Y02951*
Y02981*
G37*
G36*
X00519D02*
X00489D01*
Y02951*
X00493Y02952*
X00502Y02955*
X00509Y02961*
X00515Y02968*
X00518Y02977*
X00519Y02981*
G37*
G36*
X00479D02*
X00448D01*
X00449Y02977*
X00452Y02968*
X00458Y02961*
X00465Y02955*
X00474Y02952*
X00479Y02951*
Y02981*
G37*
G36*
X00104Y02962D02*
X00094Y02961D01*
X00086Y02957*
X00078Y02952*
X00073Y02944*
X00069Y02936*
X00068Y02926*
X00069Y02917*
X00073Y02909*
X00078Y02901*
X00086Y02896*
X00094Y02892*
X00104Y02891*
X00113Y02892*
X00121Y02896*
X00129Y02901*
X00134Y02909*
X00138Y02917*
X00139Y02926*
X00138Y02936*
X00134Y02944*
X00129Y02952*
X00121Y02957*
X00113Y02961*
X00104Y02962*
G37*
G36*
X00109Y02866D02*
Y02831D01*
X00143*
X00142Y02837*
X00138Y02846*
X00132Y02855*
X00123Y02861*
X00114Y02865*
X00109Y02866*
G37*
G36*
X00099D02*
X00093Y02865D01*
X00084Y02861*
X00075Y02855*
X00069Y02846*
X00065Y02837*
X00064Y02831*
X00099*
Y02866*
G37*
G36*
X00979Y03018D02*
X00971Y03017D01*
X00963Y03014*
X00956Y03009*
X00951Y03002*
X00948Y02995*
X00947Y02986*
X00948Y02978*
X00951Y02971*
X00956Y02964*
X00963Y02959*
Y02863*
X00921Y02821*
X00916Y02823*
Y02955*
X00932*
Y03018*
X00868*
Y02955*
X00884*
Y02821*
X00656Y02593*
X00653Y02588*
X00652Y02582*
Y02191*
X00582Y02121*
X00579Y02116*
X00577Y02109*
X00577Y02107*
X00571Y02106*
X00571Y02109*
X00565Y02116*
X00557Y02122*
X00549Y02126*
X00539Y02127*
X0053Y02126*
X00521Y02122*
X00514Y02116*
X00508Y02109*
X00504Y021*
X00503Y02091*
Y02032*
X00504Y02023*
X00508Y02014*
X00514Y02007*
X00521Y02001*
X0053Y01997*
X00539Y01996*
X00549Y01997*
X00557Y02001*
X00565Y02007*
X00571Y02014*
X00572Y02019*
X00577Y02018*
Y0162*
X00528Y01571*
X00524Y01565*
X00523Y01559*
Y01523*
X00521Y01522*
X00514Y01516*
X00508Y01509*
X00504Y015*
X00503Y01491*
Y01432*
X00504Y01423*
X00508Y01414*
X00514Y01407*
X00521Y01401*
X0053Y01397*
X00539Y01396*
X00549Y01397*
X00557Y01401*
X00565Y01407*
X00571Y01414*
X00574Y01423*
X00575Y01432*
Y01491*
X00574Y015*
X00571Y01509*
X00565Y01516*
X00557Y01522*
X00555Y01523*
Y01553*
X00605Y01602*
X00608Y01607*
X00609Y01613*
Y02005*
X00614Y02006*
X00621Y02001*
X0063Y01997*
X00638Y01996*
X00641Y01992*
X00628Y01979*
X00624Y01974*
X00623Y01968*
Y01523*
X00621Y01522*
X00614Y01516*
X00608Y01509*
X00604Y015*
X00603Y01491*
Y01432*
X00604Y01423*
X00608Y01414*
X00614Y01407*
X00621Y01401*
X0063Y01397*
X00639Y01396*
X00649Y01397*
X00657Y01401*
X00665Y01407*
X00671Y01414*
X00674Y01423*
X00675Y01432*
Y01491*
X00674Y015*
X00671Y01509*
X00665Y01516*
X00657Y01522*
X00655Y01523*
Y01961*
X00705Y0201*
X00705Y02011*
X00711Y02011*
X00714Y02007*
X00721Y02001*
X0073Y01997*
X00739Y01996*
X00749Y01997*
X00757Y02001*
X00764Y02006*
X00769Y02005*
Y01982*
X00728Y01941*
X00724Y01935*
X00723Y01929*
Y01523*
X00721Y01522*
X00714Y01516*
X00708Y01509*
X00704Y015*
X00703Y01491*
Y01432*
X00704Y01423*
X00708Y01414*
X00714Y01407*
X00721Y01401*
X0073Y01397*
X00739Y01396*
X00749Y01397*
X00757Y01401*
X00765Y01407*
X00771Y01414*
X00774Y01423*
X00775Y01432*
Y01491*
X00774Y015*
X00771Y01509*
X00765Y01516*
X00757Y01522*
X00755Y01523*
Y01923*
X00796Y01964*
X008Y01969*
X00801Y01975*
Y02018*
X00806Y02019*
X00808Y02014*
X00814Y02007*
X00821Y02001*
X0083Y01997*
X00839Y01996*
X00849Y01997*
X00857Y02001*
X00864Y02006*
X00869Y02005*
Y01947*
X00828Y01906*
X00824Y01901*
X00823Y01895*
Y01523*
X00821Y01522*
X00814Y01516*
X00808Y01509*
X00804Y015*
X00803Y01491*
Y01432*
X00804Y01423*
X00808Y01414*
X00814Y01407*
X00821Y01401*
X0083Y01397*
X00839Y01396*
X00849Y01397*
X00857Y01401*
X00865Y01407*
X00871Y01414*
X00874Y01423*
X00875Y01432*
Y01491*
X00874Y015*
X00871Y01509*
X00865Y01516*
X00857Y01522*
X00855Y01523*
Y01888*
X00896Y01929*
X009Y01934*
X00901Y01941*
Y02018*
X00906Y02019*
X00908Y02014*
X00914Y02007*
X00921Y02001*
X0093Y01997*
X00939Y01996*
X00949Y01997*
X00957Y02001*
X00965Y02007*
X00971Y02014*
X00974Y02023*
X00975Y02032*
Y02091*
X00974Y021*
X00971Y02109*
X00965Y02116*
X00957Y02122*
X00949Y02126*
X00939Y02127*
X0093Y02126*
X00921Y02122*
X00914Y02116*
X00908Y02109*
X00906Y02104*
X00901Y02105*
Y02139*
X009Y02145*
X00896Y0215*
X00831Y02216*
Y02533*
X00971Y02673*
X00979Y02672*
X00987Y02673*
X00995Y02676*
X01001Y02681*
X01007Y02688*
X0101Y02696*
X01011Y02704*
X0101Y02712*
X01007Y0272*
X01001Y02727*
X00995Y02732*
X00987Y02735*
X00979Y02736*
X00971Y02735*
X00963Y02732*
X00956Y02727*
X00951Y0272*
X00948Y02712*
X00947Y02704*
X00948Y02696*
X00936Y02684*
X00932Y02686*
Y02736*
X00887*
X00885Y0274*
X0099Y02845*
X00994Y0285*
X00995Y02856*
Y02959*
X01001Y02964*
X01007Y02971*
X0101Y02978*
X01011Y02986*
X0101Y02995*
X01007Y03002*
X01001Y03009*
X00995Y03014*
X00987Y03017*
X00979Y03018*
G37*
G36*
X01365Y02841D02*
X01358Y02839D01*
X01353Y02836*
X0135Y02831*
X01348Y02825*
X0135Y02818*
X01353Y02813*
X01358Y0281*
X01365Y02808*
X01371Y0281*
X01376Y02813*
X01379Y02818*
X01381Y02825*
X01379Y02831*
X01376Y02836*
X01371Y02839*
X01365Y02841*
G37*
G36*
X00755Y02831D02*
X00748Y02829D01*
X00743Y02826*
X0074Y02821*
X00738Y02815*
X0074Y02808*
X00743Y02803*
X00748Y028*
X00755Y02798*
X00761Y028*
X00766Y02803*
X00769Y02808*
X00771Y02815*
X00769Y02821*
X00766Y02826*
X00761Y02829*
X00755Y02831*
G37*
G36*
X00099Y02821D02*
X00064D01*
X00065Y02816*
X00069Y02807*
X00075Y02798*
X00084Y02792*
X00093Y02788*
X00099Y02787*
Y02821*
G37*
G36*
X00143D02*
X00109D01*
Y02787*
X00114Y02788*
X00123Y02792*
X00132Y02798*
X00138Y02807*
X00142Y02816*
X00143Y02821*
G37*
G36*
X01637Y02739D02*
Y02709D01*
X01667*
X01667Y02713*
X01663Y02722*
X01657Y02729*
X0165Y02735*
X01641Y02739*
X01637Y02739*
G37*
G36*
X01627D02*
X01622Y02739D01*
X01614Y02735*
X01606Y02729*
X016Y02722*
X01597Y02713*
X01596Y02709*
X01627*
Y02739*
G37*
G36*
X01063D02*
Y02709D01*
X01093*
X01092Y02713*
X01089Y02722*
X01083Y02729*
X01076Y02735*
X01067Y02739*
X01063Y02739*
G37*
G36*
X01053D02*
X01048Y02739D01*
X0104Y02735*
X01032Y02729*
X01026Y02722*
X01023Y02713*
X01022Y02709*
X01053*
Y02739*
G37*
G36*
X00489D02*
Y02709D01*
X00519*
X00518Y02713*
X00515Y02722*
X00509Y02729*
X00502Y02735*
X00493Y02739*
X00489Y02739*
G37*
G36*
X00479D02*
X00474Y02739D01*
X00465Y02735*
X00458Y02729*
X00452Y02722*
X00449Y02713*
X00448Y02709*
X00479*
Y02739*
G37*
G36*
X01506Y02736D02*
X01443D01*
Y02672*
X01506*
Y02736*
G37*
G36*
X0171Y02736D02*
X01702Y02735D01*
X01694Y02732*
X01688Y02727*
X01683Y0272*
X0168Y02712*
X01679Y02704*
X0168Y02696*
X01683Y02688*
X01688Y02681*
X01694Y02676*
X01702Y02673*
X0171Y02672*
X01719Y02673*
X01726Y02676*
X01733Y02681*
X01738Y02688*
X01741Y02696*
X01742Y02704*
X01741Y02712*
X01738Y0272*
X01733Y02727*
X01726Y02732*
X01719Y02735*
X0171Y02736*
G37*
G36*
X01553D02*
X01545Y02735D01*
X01537Y02732*
X0153Y02727*
X01525Y0272*
X01522Y02712*
X01521Y02704*
X01522Y02696*
X01525Y02688*
X0153Y02681*
X01537Y02676*
X01545Y02673*
X01553Y02672*
X01561Y02673*
X01569Y02676*
X01576Y02681*
X01581Y02688*
X01584Y02696*
X01585Y02704*
X01584Y02712*
X01581Y0272*
X01576Y02727*
X01569Y02732*
X01561Y02735*
X01553Y02736*
G37*
G36*
X01136D02*
X01128Y02735D01*
X0112Y02732*
X01114Y02727*
X01109Y0272*
X01106Y02712*
X01104Y02704*
X01106Y02696*
X01109Y02688*
X01114Y02681*
X0112Y02676*
X01128Y02673*
X01136Y02672*
X01145Y02673*
X01152Y02676*
X01159Y02681*
X01164Y02688*
X01167Y02696*
X01168Y02704*
X01167Y02712*
X01164Y0272*
X01159Y02727*
X01152Y02732*
X01145Y02735*
X01136Y02736*
G37*
G36*
X00562D02*
X00554Y02735D01*
X00546Y02732*
X0054Y02727*
X00535Y0272*
X00531Y02712*
X0053Y02704*
X00531Y02696*
X00535Y02688*
X0054Y02681*
X00546Y02676*
X00554Y02673*
X00562Y02672*
X00571Y02673*
X00578Y02676*
X00585Y02681*
X0059Y02688*
X00593Y02696*
X00594Y02704*
X00593Y02712*
X0059Y0272*
X00585Y02727*
X00578Y02732*
X00571Y02735*
X00562Y02736*
G37*
G36*
X00405D02*
X00397Y02735D01*
X00389Y02732*
X00382Y02727*
X00377Y0272*
X00374Y02712*
X00373Y02704*
X00374Y02696*
X00377Y02688*
X00382Y02681*
X00389Y02676*
X00397Y02673*
X00405Y02672*
X00413Y02673*
X00421Y02676*
X00427Y02681*
X00432Y02688*
X00436Y02696*
X00437Y02704*
X00436Y02712*
X00432Y0272*
X00427Y02727*
X00421Y02732*
X00413Y02735*
X00405Y02736*
G37*
G36*
X01667Y02699D02*
X01637D01*
Y02669*
X01641Y02669*
X0165Y02673*
X01657Y02678*
X01663Y02686*
X01667Y02695*
X01667Y02699*
G37*
G36*
X01627D02*
X01596D01*
X01597Y02695*
X016Y02686*
X01606Y02678*
X01614Y02673*
X01622Y02669*
X01627Y02669*
Y02699*
G37*
G36*
X01093D02*
X01063D01*
Y02669*
X01067Y02669*
X01076Y02673*
X01083Y02678*
X01089Y02686*
X01092Y02695*
X01093Y02699*
G37*
G36*
X01053D02*
X01022D01*
X01023Y02695*
X01026Y02686*
X01032Y02678*
X0104Y02673*
X01048Y02669*
X01053Y02669*
Y02699*
G37*
G36*
X00519D02*
X00489D01*
Y02669*
X00493Y02669*
X00502Y02673*
X00509Y02678*
X00515Y02686*
X00518Y02695*
X00519Y02699*
G37*
G36*
X00479D02*
X00448D01*
X00449Y02695*
X00452Y02686*
X00458Y02678*
X00465Y02673*
X00474Y02669*
X00479Y02669*
Y02699*
G37*
G36*
X0196Y02626D02*
X01953Y02624D01*
X01948Y02621*
X01945Y02616*
X01943Y0261*
X01945Y02603*
X01948Y02598*
X01953Y02595*
X0196Y02593*
X01966Y02595*
X01971Y02598*
X01974Y02603*
X01976Y0261*
X01974Y02616*
X01971Y02621*
X01966Y02624*
X0196Y02626*
G37*
G36*
X0103Y02551D02*
X01023Y02549D01*
X01018Y02546*
X01015Y02541*
X01013Y02535*
X01015Y02528*
X01018Y02523*
X01023Y0252*
X0103Y02518*
X01036Y0252*
X01041Y02523*
X01044Y02528*
X01046Y02535*
X01044Y02541*
X01041Y02546*
X01036Y02549*
X0103Y02551*
G37*
G36*
X00104Y02562D02*
X00094Y02561D01*
X00086Y02557*
X00078Y02552*
X00073Y02544*
X00069Y02536*
X00068Y02526*
X00069Y02517*
X00073Y02509*
X00078Y02501*
X00086Y02496*
X00094Y02492*
X00104Y02491*
X00113Y02492*
X00121Y02496*
X00129Y02501*
X00134Y02509*
X00138Y02517*
X00139Y02526*
X00138Y02536*
X00134Y02544*
X00129Y02552*
X00121Y02557*
X00113Y02561*
X00104Y02562*
G37*
G36*
X01637Y02457D02*
Y02426D01*
X01667*
X01667Y02431*
X01663Y0244*
X01657Y02447*
X0165Y02453*
X01641Y02456*
X01637Y02457*
G37*
G36*
X01627D02*
X01622Y02456D01*
X01614Y02453*
X01606Y02447*
X016Y0244*
X01597Y02431*
X01596Y02426*
X01627*
Y02457*
G37*
G36*
X01063D02*
Y02426D01*
X01093*
X01092Y02431*
X01089Y0244*
X01083Y02447*
X01076Y02453*
X01067Y02456*
X01063Y02457*
G37*
G36*
X01053D02*
X01048Y02456D01*
X0104Y02453*
X01032Y02447*
X01026Y0244*
X01023Y02431*
X01022Y02426*
X01053*
Y02457*
G37*
G36*
X00489D02*
Y02426D01*
X00519*
X00518Y02431*
X00515Y0244*
X00509Y02447*
X00502Y02453*
X00493Y02456*
X00489Y02457*
G37*
G36*
X00479D02*
X00474Y02456D01*
X00465Y02453*
X00458Y02447*
X00452Y0244*
X00449Y02431*
X00448Y02426*
X00479*
Y02457*
G37*
G36*
X01506Y02453D02*
X01443D01*
Y0239*
X01506*
Y02453*
G37*
G36*
X0171Y02453D02*
X01702Y02452D01*
X01694Y02449*
X01688Y02444*
X01683Y02437*
X0168Y0243*
X01679Y02421*
X0168Y02413*
X01683Y02406*
X01688Y02399*
X01694Y02394*
X01702Y02391*
X0171Y0239*
X01719Y02391*
X01726Y02394*
X01733Y02399*
X01738Y02406*
X01741Y02413*
X01742Y02421*
X01741Y0243*
X01738Y02437*
X01733Y02444*
X01726Y02449*
X01719Y02452*
X0171Y02453*
G37*
G36*
X01553D02*
X01545Y02452D01*
X01537Y02449*
X0153Y02444*
X01525Y02437*
X01522Y0243*
X01521Y02421*
X01522Y02413*
X01525Y02406*
X0153Y02399*
X01537Y02394*
X01545Y02391*
X01553Y0239*
X01561Y02391*
X01569Y02394*
X01576Y02399*
X01581Y02406*
X01584Y02413*
X01585Y02421*
X01584Y0243*
X01581Y02437*
X01576Y02444*
X01569Y02449*
X01561Y02452*
X01553Y02453*
G37*
G36*
X01136D02*
X01128Y02452D01*
X0112Y02449*
X01114Y02444*
X01109Y02437*
X01106Y0243*
X01104Y02421*
X01106Y02413*
X01109Y02406*
X01114Y02399*
X0112Y02394*
X01128Y02391*
X01136Y0239*
X01145Y02391*
X01152Y02394*
X01159Y02399*
X01164Y02406*
X01167Y02413*
X01168Y02421*
X01167Y0243*
X01164Y02437*
X01159Y02444*
X01152Y02449*
X01145Y02452*
X01136Y02453*
G37*
G36*
X00562D02*
X00554Y02452D01*
X00546Y02449*
X0054Y02444*
X00535Y02437*
X00531Y0243*
X0053Y02421*
X00531Y02413*
X00535Y02406*
X0054Y02399*
X00546Y02394*
X00554Y02391*
X00562Y0239*
X00571Y02391*
X00578Y02394*
X00585Y02399*
X0059Y02406*
X00593Y02413*
X00594Y02421*
X00593Y0243*
X0059Y02437*
X00585Y02444*
X00578Y02449*
X00571Y02452*
X00562Y02453*
G37*
G36*
X00405D02*
X00397Y02452D01*
X00389Y02449*
X00382Y02444*
X00377Y02437*
X00374Y0243*
X00373Y02421*
X00374Y02413*
X00377Y02406*
X00382Y02399*
X00389Y02394*
X00397Y02391*
X00405Y0239*
X00413Y02391*
X00421Y02394*
X00427Y02399*
X00432Y02406*
X00436Y02413*
X00437Y02421*
X00436Y0243*
X00432Y02437*
X00427Y02444*
X00421Y02449*
X00413Y02452*
X00405Y02453*
G37*
G36*
X01667Y02416D02*
X01637D01*
Y02386*
X01641Y02387*
X0165Y0239*
X01657Y02396*
X01663Y02403*
X01667Y02412*
X01667Y02416*
G37*
G36*
X01627D02*
X01596D01*
X01597Y02412*
X016Y02403*
X01606Y02396*
X01614Y0239*
X01622Y02387*
X01627Y02386*
Y02416*
G37*
G36*
X01093D02*
X01063D01*
Y02386*
X01067Y02387*
X01076Y0239*
X01083Y02396*
X01089Y02403*
X01092Y02412*
X01093Y02416*
G37*
G36*
X00519D02*
X00489D01*
Y02386*
X00493Y02387*
X00502Y0239*
X00509Y02396*
X00515Y02403*
X00518Y02412*
X00519Y02416*
G37*
G36*
X00479D02*
X00448D01*
X00449Y02412*
X00452Y02403*
X00458Y02396*
X00465Y0239*
X00474Y02387*
X00479Y02386*
Y02416*
G37*
G36*
X00105Y02316D02*
X00098Y02314D01*
X00093Y02311*
X0009Y02306*
X00088Y023*
X0009Y02293*
X00093Y02288*
X00098Y02285*
X00105Y02283*
X00111Y02285*
X00116Y02288*
X00119Y02293*
X00121Y023*
X00119Y02306*
X00116Y02311*
X00111Y02314*
X00105Y02316*
G37*
G36*
X0131Y02226D02*
X01303Y02224D01*
X01298Y02221*
X01295Y02216*
X01293Y0221*
X01295Y02203*
X01298Y02198*
X01303Y02195*
X0131Y02193*
X01316Y02195*
X01321Y02198*
X01324Y02203*
X01326Y0221*
X01324Y02216*
X01321Y02221*
X01316Y02224*
X0131Y02226*
G37*
G36*
X016Y02221D02*
X01593Y02219D01*
X01588Y02216*
X01585Y02211*
X01583Y02205*
X01585Y02198*
X01588Y02193*
X01593Y0219*
X016Y02188*
X01606Y0219*
X01611Y02193*
X01614Y02198*
X01616Y02205*
X01614Y02211*
X01611Y02216*
X01606Y02219*
X016Y02221*
G37*
G36*
X00979Y02453D02*
X00971Y02452D01*
X00963Y02449*
X00956Y02444*
X00951Y02437*
X00948Y0243*
X00947Y02421*
X00948Y02413*
X00951Y02406*
X00956Y02399*
X00963Y02394*
X00971Y02391*
X00979Y0239*
X00987Y02391*
X01247Y02131*
X01245Y02126*
X01239Y02127*
X0123Y02126*
X01221Y02122*
X01214Y02116*
X01208Y02109*
X01206Y02104*
X01201Y02105*
Y02137*
X012Y02143*
X01196Y02148*
X00932Y02413*
Y02453*
X00868*
Y0239*
X00909*
X01169Y0213*
Y02118*
X01164Y02117*
X01157Y02122*
X01149Y02126*
X01139Y02127*
X0113Y02126*
X01121Y02122*
X01114Y02116*
X01108Y02109*
X01104Y021*
X01103Y02091*
Y02032*
X01104Y02023*
X01108Y02014*
X01114Y02007*
X01121Y02001*
X0113Y01997*
X01139Y01996*
X01149Y01997*
X01157Y02001*
X01164Y02006*
X01169Y02005*
Y01834*
X01128Y01793*
X01124Y01788*
X01123Y01782*
Y01523*
X01121Y01522*
X01114Y01516*
X01108Y01509*
X01104Y015*
X01103Y01491*
Y01432*
X01104Y01423*
X01108Y01414*
X01114Y01407*
X01121Y01401*
X0113Y01397*
X01139Y01396*
X01149Y01397*
X01157Y01401*
X01165Y01407*
X01171Y01414*
X01174Y01423*
X01175Y01432*
Y01491*
X01174Y015*
X01171Y01509*
X01165Y01516*
X01157Y01522*
X01155Y01523*
Y01775*
X01196Y01816*
X012Y01821*
X01201Y01827*
Y02018*
X01206Y02019*
X01208Y02014*
X01214Y02007*
X01221Y02001*
X0123Y01997*
X01239Y01996*
X01249Y01997*
X01257Y02001*
X01264Y02006*
X01269Y02005*
Y01819*
X01228Y01778*
X01224Y01773*
X01223Y01767*
Y01523*
X01221Y01522*
X01214Y01516*
X01208Y01509*
X01204Y015*
X01203Y01491*
Y01432*
X01204Y01423*
X01208Y01414*
X01214Y01407*
X01221Y01401*
X0123Y01397*
X01239Y01396*
X01249Y01397*
X01257Y01401*
X01265Y01407*
X01271Y01414*
X01274Y01423*
X01275Y01432*
Y01491*
X01274Y015*
X01271Y01509*
X01265Y01516*
X01257Y01522*
X01255Y01523*
Y0176*
X01296Y01801*
X013Y01806*
X01301Y01812*
Y02018*
X01306Y02019*
X01308Y02014*
X01314Y02007*
X01321Y02001*
X0133Y01997*
X01339Y01996*
X01349Y01997*
X01357Y02001*
X01365Y02007*
X01371Y02014*
X01374Y02023*
X01375Y02032*
Y02091*
X01374Y021*
X01371Y02109*
X01365Y02116*
X01357Y02122*
X01349Y02126*
X01339Y02127*
X0133Y02126*
X01321Y02122*
X01314Y02116*
X01308Y02109*
X01306Y02104*
X01301Y02105*
Y02115*
X013Y02122*
X01296Y02127*
X01037Y02386*
X0104Y0239*
X01048Y02387*
X01053Y02386*
Y02416*
X01022*
X01023Y02412*
X01026Y02403*
X01022Y02401*
X0101Y02413*
X01011Y02421*
X0101Y0243*
X01007Y02437*
X01001Y02444*
X00995Y02449*
X00987Y02452*
X00979Y02453*
G37*
G36*
X01739Y021D02*
X01729Y02099D01*
X0172Y02095*
X01712Y02089*
X01706Y02081*
X01702Y02071*
X017Y02061*
X01702Y02051*
X01706Y02042*
X01712Y02034*
X0172Y02028*
X01729Y02024*
X01739Y02023*
X01749Y02024*
X01759Y02028*
X01767Y02034*
X01773Y02042*
X01777Y02051*
X01778Y02061*
X01777Y02071*
X01773Y02081*
X01767Y02089*
X01759Y02095*
X01749Y02099*
X01739Y021*
G37*
G36*
X00139D02*
X00129Y02099D01*
X0012Y02095*
X00112Y02089*
X00106Y02081*
X00102Y02071*
X001Y02061*
X00102Y02051*
X00106Y02042*
X00112Y02034*
X0012Y02028*
X00129Y02024*
X00139Y02023*
X00149Y02024*
X00159Y02028*
X00167Y02034*
X00173Y02042*
X00177Y02051*
X00178Y02061*
X00177Y02071*
X00173Y02081*
X00167Y02089*
X00159Y02095*
X00149Y02099*
X00139Y021*
G37*
G36*
X01439Y02127D02*
X0143Y02126D01*
X01421Y02122*
X01414Y02116*
X01408Y02109*
X01404Y021*
X01403Y02091*
Y02032*
X01404Y02023*
X01408Y02014*
X01414Y02007*
X01421Y02001*
X0143Y01997*
X01439Y01996*
X01449Y01997*
X01457Y02001*
X01465Y02007*
X01471Y02014*
X01474Y02023*
X01475Y02032*
Y02091*
X01474Y021*
X01471Y02109*
X01465Y02116*
X01457Y02122*
X01449Y02126*
X01439Y02127*
G37*
G36*
X01039D02*
X0103Y02126D01*
X01021Y02122*
X01014Y02116*
X01008Y02109*
X01004Y021*
X01003Y02091*
Y02032*
X01004Y02023*
X01008Y02014*
X01014Y02007*
X01021Y02001*
X0103Y01997*
X01039Y01996*
X01049Y01997*
X01057Y02001*
X01065Y02007*
X01071Y02014*
X01074Y02023*
X01075Y02032*
Y02091*
X01074Y021*
X01071Y02109*
X01065Y02116*
X01057Y02122*
X01049Y02126*
X01039Y02127*
G37*
G36*
X00439D02*
X0043Y02126D01*
X00421Y02122*
X00414Y02116*
X00408Y02109*
X00404Y021*
X00403Y02091*
Y02032*
X00404Y02023*
X00408Y02014*
X00414Y02007*
X00421Y02001*
X0043Y01997*
X00439Y01996*
X00449Y01997*
X00457Y02001*
X00465Y02007*
X00471Y02014*
X00474Y02023*
X00475Y02032*
Y02091*
X00474Y021*
X00471Y02109*
X00465Y02116*
X00457Y02122*
X00449Y02126*
X00439Y02127*
G37*
G36*
X00339D02*
X0033Y02126D01*
X00321Y02122*
X00314Y02116*
X00308Y02109*
X00304Y021*
X00303Y02091*
Y02032*
X00304Y02023*
X00308Y02014*
X00314Y02007*
X00321Y02001*
X0033Y01997*
X00339Y01996*
X00349Y01997*
X00357Y02001*
X00365Y02007*
X00371Y02014*
X00374Y02023*
X00375Y02032*
Y02091*
X00374Y021*
X00371Y02109*
X00365Y02116*
X00357Y02122*
X00349Y02126*
X00339Y02127*
G37*
G36*
X00239D02*
X0023Y02126D01*
X00221Y02122*
X00214Y02116*
X00208Y02109*
X00204Y021*
X00203Y02091*
Y02032*
X00204Y02023*
X00208Y02014*
X00214Y02007*
X00221Y02001*
X0023Y01997*
X00239Y01996*
X00249Y01997*
X00257Y02001*
X00265Y02007*
X00271Y02014*
X00274Y02023*
X00275Y02032*
Y02091*
X00274Y021*
X00271Y02109*
X00265Y02116*
X00257Y02122*
X00249Y02126*
X00239Y02127*
G37*
G36*
X0107Y01941D02*
X01063Y01939D01*
X01058Y01936*
X01055Y01931*
X01053Y01925*
X01055Y01918*
X01058Y01913*
X01063Y0191*
X0107Y01908*
X01076Y0191*
X01081Y01913*
X01084Y01918*
X01086Y01925*
X01084Y01931*
X01081Y01936*
X01076Y01939*
X0107Y01941*
G37*
G36*
X01625Y01896D02*
X01618Y01894D01*
X01613Y01891*
X0161Y01886*
X01608Y0188*
X0161Y01873*
X01613Y01868*
X01618Y01865*
X01625Y01863*
X01631Y01865*
X01636Y01868*
X01639Y01873*
X01641Y0188*
X01639Y01886*
X01636Y01891*
X01631Y01894*
X01625Y01896*
G37*
G36*
X01805Y0185D02*
X01734D01*
Y01779*
X01805*
Y0185*
G37*
G36*
X00135Y01811D02*
X00128Y01809D01*
X00123Y01806*
X0012Y01801*
X00118Y01795*
X0012Y01788*
X00123Y01783*
X00128Y0178*
X00135Y01778*
X00141Y0178*
X00146Y01783*
X00149Y01788*
X00151Y01795*
X00149Y01801*
X00146Y01806*
X00141Y01809*
X00135Y01811*
G37*
G36*
X0055Y01806D02*
X00543Y01804D01*
X00538Y01801*
X00535Y01796*
X00533Y0179*
X00535Y01783*
X00538Y01778*
X00543Y01775*
X0055Y01773*
X00556Y01775*
X00561Y01778*
X00564Y01783*
X00566Y0179*
X00564Y01796*
X00561Y01801*
X00556Y01804*
X0055Y01806*
G37*
G36*
X0032Y01791D02*
X00313Y01789D01*
X00308Y01786*
X00305Y01781*
X00303Y01775*
X00305Y01768*
X00308Y01763*
X00313Y0176*
X0032Y01758*
X00326Y0176*
X00331Y01763*
X00334Y01768*
X00336Y01775*
X00334Y01781*
X00331Y01786*
X00326Y01789*
X0032Y01791*
G37*
G36*
X0103Y01786D02*
X01023Y01784D01*
X01018Y01781*
X01015Y01776*
X01013Y0177*
X01015Y01763*
X01018Y01758*
X01023Y01755*
X0103Y01753*
X01036Y01755*
X01041Y01758*
X01044Y01763*
X01046Y0177*
X01044Y01776*
X01041Y01781*
X01036Y01784*
X0103Y01786*
G37*
G36*
X0154Y01736D02*
X01533Y01734D01*
X01528Y01731*
X01525Y01726*
X01523Y0172*
X01525Y01713*
X01528Y01708*
X01533Y01705*
X0154Y01703*
X01546Y01705*
X01551Y01708*
X01554Y01713*
X01556Y0172*
X01554Y01726*
X01551Y01731*
X01546Y01734*
X0154Y01736*
G37*
G36*
X01685Y01694D02*
Y0168D01*
X01699*
X01698Y01682*
X01694Y01689*
X01687Y01693*
X01685Y01694*
G37*
G36*
X01675D02*
X01672Y01693D01*
X01665Y01689*
X01661Y01682*
X0166Y0168*
X01675*
Y01694*
G37*
G36*
X0177Y0175D02*
X0176Y01749D01*
X01752Y01745*
X01744Y0174*
X01739Y01732*
X01735Y01724*
X01734Y01715*
X01735Y01705*
X01739Y01697*
X01744Y01689*
X01752Y01684*
X0176Y0168*
X0177Y01679*
X01779Y0168*
X01787Y01684*
X01795Y01689*
X018Y01697*
X01804Y01705*
X01805Y01715*
X01804Y01724*
X018Y01732*
X01795Y0174*
X01787Y01745*
X01779Y01749*
X0177Y0175*
G37*
G36*
X0142Y01684D02*
Y0167D01*
X01434*
X01433Y01672*
X01429Y01679*
X01422Y01683*
X0142Y01684*
G37*
G36*
X0141D02*
X01407Y01683D01*
X014Y01679*
X01396Y01672*
X01395Y0167*
X0141*
Y01684*
G37*
G36*
X01699Y0167D02*
X01685D01*
Y01655*
X01687Y01656*
X01694Y0166*
X01698Y01667*
X01699Y0167*
G37*
G36*
X01675D02*
X0166D01*
X01661Y01667*
X01665Y0166*
X01672Y01656*
X01675Y01655*
Y0167*
G37*
G36*
X01434Y0166D02*
X0142D01*
Y01645*
X01422Y01646*
X01429Y0165*
X01433Y01657*
X01434Y0166*
G37*
G36*
X0141D02*
X01395D01*
X01396Y01657*
X014Y0165*
X01407Y01646*
X0141Y01645*
Y0166*
G37*
G36*
X00344Y0153D02*
Y01466D01*
X0038*
Y01491*
X00378Y01501*
X00374Y01511*
X00368Y01519*
X00359Y01525*
X0035Y01529*
X00344Y0153*
G37*
G36*
X00334D02*
X00329Y01529D01*
X00319Y01525*
X00311Y01519*
X00304Y01511*
X003Y01501*
X00299Y01491*
Y01466*
X00334*
Y0153*
G37*
G36*
X01739Y015D02*
X01729Y01499D01*
X0172Y01495*
X01712Y01489*
X01706Y01481*
X01702Y01471*
X017Y01461*
X01702Y01451*
X01706Y01442*
X01712Y01434*
X0172Y01428*
X01729Y01424*
X01739Y01423*
X01749Y01424*
X01759Y01428*
X01767Y01434*
X01773Y01442*
X01777Y01451*
X01778Y01461*
X01777Y01471*
X01773Y01481*
X01767Y01489*
X01759Y01495*
X01749Y01499*
X01739Y015*
G37*
G36*
X00139D02*
X00129Y01499D01*
X0012Y01495*
X00112Y01489*
X00106Y01481*
X00102Y01471*
X001Y01461*
X00102Y01451*
X00106Y01442*
X00112Y01434*
X0012Y01428*
X00129Y01424*
X00139Y01423*
X00149Y01424*
X00159Y01428*
X00167Y01434*
X00173Y01442*
X00177Y01451*
X00178Y01461*
X00177Y01471*
X00173Y01481*
X00167Y01489*
X00159Y01495*
X00149Y01499*
X00139Y015*
G37*
G36*
X01639Y01527D02*
X0163Y01526D01*
X01621Y01522*
X01614Y01516*
X01608Y01509*
X01604Y015*
X01603Y01491*
Y01432*
X01604Y01423*
X01608Y01414*
X01614Y01407*
X01621Y01401*
X0163Y01397*
X01639Y01396*
X01649Y01397*
X01657Y01401*
X01665Y01407*
X01671Y01414*
X01674Y01423*
X01675Y01432*
Y01491*
X01674Y015*
X01671Y01509*
X01665Y01516*
X01657Y01522*
X01649Y01526*
X01639Y01527*
G37*
G36*
X01539D02*
X0153Y01526D01*
X01521Y01522*
X01514Y01516*
X01508Y01509*
X01504Y015*
X01503Y01491*
Y01432*
X01504Y01423*
X01508Y01414*
X01514Y01407*
X01521Y01401*
X0153Y01397*
X01539Y01396*
X01549Y01397*
X01557Y01401*
X01565Y01407*
X01571Y01414*
X01574Y01423*
X01575Y01432*
Y01491*
X01574Y015*
X01571Y01509*
X01565Y01516*
X01557Y01522*
X01549Y01526*
X01539Y01527*
G37*
G36*
X01439D02*
X0143Y01526D01*
X01421Y01522*
X01414Y01516*
X01408Y01509*
X01404Y015*
X01403Y01491*
Y01432*
X01404Y01423*
X01408Y01414*
X01414Y01407*
X01421Y01401*
X0143Y01397*
X01439Y01396*
X01449Y01397*
X01457Y01401*
X01465Y01407*
X01471Y01414*
X01474Y01423*
X01475Y01432*
Y01491*
X01474Y015*
X01471Y01509*
X01465Y01516*
X01457Y01522*
X01449Y01526*
X01439Y01527*
G37*
G36*
X0096Y01586D02*
D01*
X00945*
X00939Y01585*
X00934Y01581*
X0093Y01576*
X00929Y0157*
X0093Y01564*
X00934Y01559*
X00939Y01555*
X00945Y01554*
X00953*
X01005Y01502*
X01004Y015*
X01003Y01491*
Y01432*
X01004Y01423*
X01008Y01414*
X01014Y01407*
X01021Y01401*
X0103Y01397*
X01039Y01396*
X01049Y01397*
X01057Y01401*
X01065Y01407*
X01071Y01414*
X01074Y01423*
X01075Y01432*
Y01491*
X01074Y015*
X01071Y01509*
X01065Y01516*
X01057Y01522*
X01049Y01526*
X01039Y01527*
X0103Y01526*
X01028Y01525*
X00971Y01581*
X00966Y01585*
X00965Y01585*
X0096Y01586*
G37*
G36*
X00939Y01527D02*
X0093Y01526D01*
X00921Y01522*
X00914Y01516*
X00908Y01509*
X00904Y015*
X00903Y01491*
Y01432*
X00904Y01423*
X00908Y01414*
X00914Y01407*
X00921Y01401*
X0093Y01397*
X00939Y01396*
X00949Y01397*
X00957Y01401*
X00965Y01407*
X00971Y01414*
X00974Y01423*
X00975Y01432*
Y01491*
X00974Y015*
X00971Y01509*
X00965Y01516*
X00957Y01522*
X00949Y01526*
X00939Y01527*
G37*
G36*
X00439D02*
X0043Y01526D01*
X00421Y01522*
X00414Y01516*
X00408Y01509*
X00404Y015*
X00403Y01491*
Y01432*
X00404Y01423*
X00408Y01414*
X00414Y01407*
X00421Y01401*
X0043Y01397*
X00439Y01396*
X00449Y01397*
X00457Y01401*
X00465Y01407*
X00471Y01414*
X00474Y01423*
X00475Y01432*
Y01491*
X00474Y015*
X00471Y01509*
X00465Y01516*
X00457Y01522*
X00449Y01526*
X00439Y01527*
G37*
G36*
X00239D02*
X0023Y01526D01*
X00221Y01522*
X00214Y01516*
X00208Y01509*
X00204Y015*
X00203Y01491*
Y01432*
X00204Y01423*
X00208Y01414*
X00214Y01407*
X00221Y01401*
X0023Y01397*
X00239Y01396*
X00249Y01397*
X00257Y01401*
X00265Y01407*
X00271Y01414*
X00274Y01423*
X00275Y01432*
Y01491*
X00274Y015*
X00271Y01509*
X00265Y01516*
X00257Y01522*
X00249Y01526*
X00239Y01527*
G37*
G36*
X0038Y01456D02*
X00344D01*
Y01393*
X0035Y01393*
X00359Y01397*
X00368Y01404*
X00374Y01412*
X00378Y01422*
X0038Y01432*
Y01456*
G37*
G36*
X00334D02*
X00299D01*
Y01432*
X003Y01422*
X00304Y01412*
X00311Y01404*
X00319Y01397*
X00329Y01393*
X00334Y01393*
Y01456*
G37*
G36*
X01679Y01304D02*
X0162D01*
Y01245*
X01679*
Y01304*
G37*
G36*
X01039D02*
X0098D01*
Y01245*
X01039*
Y01304*
G37*
G36*
X0135Y01304D02*
X01342Y01303D01*
X01335Y013*
X01328Y01296*
X01324Y01289*
X01321Y01282*
X0132Y01275*
X01321Y01267*
X01324Y0126*
X01328Y01253*
X01335Y01249*
X01342Y01246*
X0135Y01245*
X01357Y01246*
X01364Y01249*
X01371Y01253*
X01375Y0126*
X01378Y01267*
X01379Y01275*
X01378Y01282*
X01375Y01289*
X01371Y01296*
X01364Y013*
X01357Y01303*
X0135Y01304*
G37*
G36*
X0071D02*
X00702Y01303D01*
X00695Y013*
X00688Y01296*
X00684Y01289*
X00681Y01282*
X0068Y01275*
X00681Y01267*
X00684Y0126*
X00688Y01253*
X00695Y01249*
X00702Y01246*
X0071Y01245*
X00717Y01246*
X00724Y01249*
X00731Y01253*
X00735Y0126*
X00738Y01267*
X00739Y01275*
X00738Y01282*
X00735Y01289*
X00731Y01296*
X00724Y013*
X00717Y01303*
X0071Y01304*
G37*
G36*
X01339Y01527D02*
X0133Y01526D01*
X01321Y01522*
X01314Y01516*
X01308Y01509*
X01304Y015*
X01303Y01491*
Y01432*
X01304Y01423*
X01308Y01414*
X01314Y01407*
X01321Y01401*
X0133Y01397*
X01339Y01396*
X01349Y01397*
X01351Y01398*
X01416Y01333*
X01422Y01329*
X01428Y01328*
X01673*
X01779Y01222*
X01777Y01217*
X01774Y01217*
X01765Y01216*
X01756Y01212*
X01749Y01207*
X01743Y01199*
X0174Y01191*
X01738Y01181*
X0174Y01172*
X01743Y01164*
X01749Y01156*
X01756Y01151*
X01765Y01147*
X01774Y01146*
X01783Y01147*
X01792Y01151*
X01799Y01156*
X01805Y01164*
X01809Y01172*
X0181Y01181*
X0181Y01184*
X01814Y01187*
X01873Y01128*
X01878Y01125*
X01884Y01123*
X0189*
X01896Y01125*
X01901Y01128*
X01904Y01133*
X01906Y0114*
X01904Y01146*
X01901Y01151*
X01896Y01154*
X01891Y01155*
X01862Y01184*
X01864Y01187*
X01865Y01189*
X01871Y0119*
X01876Y01193*
X01879Y01198*
X01881Y01205*
X01879Y01211*
X01876Y01216*
X01871Y01219*
X01865Y01221*
X01858Y01219*
X01857Y01219*
X01854Y01222*
X01854Y01223*
X01856Y0123*
X01854Y01236*
X01851Y01241*
X01846Y01244*
X0184Y01246*
X01833Y01244*
X01828Y01241*
X01825Y01236*
X01824Y0123*
X01822Y01229*
X01819Y01227*
X01691Y01355*
X01686Y01359*
X0168Y0136*
X01434*
X01373Y01421*
X01374Y01423*
X01375Y01432*
Y01491*
X01374Y015*
X01371Y01509*
X01365Y01516*
X01357Y01522*
X01349Y01526*
X01339Y01527*
G37*
G36*
X01105Y01236D02*
X01098Y01234D01*
X01093Y01231*
X0109Y01226*
X01088Y0122*
X0109Y01213*
X01093Y01208*
X01098Y01205*
X01105Y01203*
X01111Y01205*
X01116Y01208*
X01119Y01213*
X01121Y0122*
X01119Y01226*
X01116Y01231*
X01111Y01234*
X01105Y01236*
G37*
G36*
X00179Y01221D02*
Y01186D01*
X00213*
X00213Y01192*
X00209Y01201*
X00202Y0121*
X00194Y01216*
X00184Y0122*
X00179Y01221*
G37*
G36*
X00169D02*
X00164Y0122D01*
X00154Y01216*
X00146Y0121*
X0014Y01201*
X00136Y01192*
X00135Y01186*
X00169*
Y01221*
G37*
G36*
X0131Y01217D02*
X01239D01*
Y01146*
X0131*
Y01217*
G37*
G36*
X01674Y01217D02*
X01665Y01216D01*
X01656Y01212*
X01649Y01207*
X01643Y01199*
X0164Y01191*
X01638Y01181*
X0164Y01172*
X01643Y01164*
X01649Y01156*
X01656Y01151*
X01665Y01147*
X01674Y01146*
X01683Y01147*
X01692Y01151*
X01699Y01156*
X01705Y01164*
X01709Y01172*
X0171Y01181*
X01709Y01191*
X01705Y01199*
X01699Y01207*
X01692Y01212*
X01683Y01216*
X01674Y01217*
G37*
G36*
X01574D02*
X01565Y01216D01*
X01556Y01212*
X01549Y01207*
X01543Y01199*
X0154Y01191*
X01538Y01181*
X0154Y01172*
X01543Y01164*
X01549Y01156*
X01556Y01151*
X01565Y01147*
X01574Y01146*
X01583Y01147*
X01592Y01151*
X01599Y01156*
X01605Y01164*
X01609Y01172*
X0161Y01181*
X01609Y01191*
X01605Y01199*
X01599Y01207*
X01592Y01212*
X01583Y01216*
X01574Y01217*
G37*
G36*
X01474D02*
X01465Y01216D01*
X01456Y01212*
X01449Y01207*
X01443Y01199*
X0144Y01191*
X01438Y01181*
X0144Y01172*
X01443Y01164*
X01449Y01156*
X01456Y01151*
X01465Y01147*
X01474Y01146*
X01483Y01147*
X01492Y01151*
X01499Y01156*
X01505Y01164*
X01509Y01172*
X0151Y01181*
X01509Y01191*
X01505Y01199*
X01499Y01207*
X01492Y01212*
X01483Y01216*
X01474Y01217*
G37*
G36*
X01374D02*
X01365Y01216D01*
X01356Y01212*
X01349Y01207*
X01343Y01199*
X0134Y01191*
X01338Y01181*
X0134Y01172*
X01343Y01164*
X01349Y01156*
X01356Y01151*
X01365Y01147*
X01374Y01146*
X01383Y01147*
X01392Y01151*
X01399Y01156*
X01405Y01164*
X01409Y01172*
X0141Y01181*
X01409Y01191*
X01405Y01199*
X01399Y01207*
X01392Y01212*
X01383Y01216*
X01374Y01217*
G37*
G36*
X00474D02*
X00465Y01216D01*
X00456Y01212*
X00449Y01207*
X00443Y01199*
X0044Y01191*
X00438Y01181*
X0044Y01172*
X00443Y01164*
X00449Y01156*
X00456Y01151*
X00465Y01147*
X00474Y01146*
X00483Y01147*
X00492Y01151*
X00499Y01156*
X00505Y01164*
X00509Y01172*
X0051Y01181*
X00509Y01191*
X00505Y01199*
X00499Y01207*
X00492Y01212*
X00483Y01216*
X00474Y01217*
G37*
G36*
X00374D02*
X00365Y01216D01*
X00356Y01212*
X00349Y01207*
X00343Y01199*
X0034Y01191*
X00338Y01181*
X0034Y01172*
X00343Y01164*
X00349Y01156*
X00356Y01151*
X00365Y01147*
X00374Y01146*
X00383Y01147*
X00392Y01151*
X00399Y01156*
X00405Y01164*
X00409Y01172*
X0041Y01181*
X00409Y01191*
X00405Y01199*
X00399Y01207*
X00392Y01212*
X00383Y01216*
X00374Y01217*
G37*
G36*
X00274D02*
X00265Y01216D01*
X00256Y01212*
X00249Y01207*
X00243Y01199*
X0024Y01191*
X00238Y01181*
X0024Y01172*
X00243Y01164*
X00249Y01156*
X00256Y01151*
X00265Y01147*
X00274Y01146*
X00283Y01147*
X00292Y01151*
X00299Y01156*
X00305Y01164*
X00309Y01172*
X0031Y01181*
X00309Y01191*
X00305Y01199*
X00299Y01207*
X00292Y01212*
X00283Y01216*
X00274Y01217*
G37*
G36*
X00213Y01176D02*
X00179D01*
Y01142*
X00184Y01143*
X00194Y01147*
X00202Y01153*
X00209Y01162*
X00213Y01171*
X00213Y01176*
G37*
G36*
X00169D02*
X00135D01*
X00136Y01171*
X0014Y01162*
X00146Y01153*
X00154Y01147*
X00164Y01143*
X00169Y01142*
Y01176*
G37*
G36*
X00674Y01217D02*
X00665Y01216D01*
X00656Y01212*
X00649Y01207*
X00643Y01199*
X0064Y01191*
X00638Y01181*
X0064Y01172*
X00643Y01164*
X00649Y01156*
X00656Y01151*
X00665Y01147*
X00674Y01146*
X00683Y01147*
X00692Y01151*
X00699Y01156*
X00705Y01164*
X00706Y01165*
X00713*
Y01145*
X00714Y01139*
X00718Y01134*
X0072Y01131*
X00718Y01127*
X00652*
X00608Y0117*
X00609Y01172*
X0061Y01181*
X00609Y01191*
X00605Y01199*
X00599Y01207*
X00592Y01212*
X00583Y01216*
X00574Y01217*
X00565Y01216*
X00556Y01212*
X00549Y01207*
X00543Y01199*
X0054Y01191*
X00538Y01181*
X0054Y01172*
X00543Y01164*
X00549Y01156*
X00556Y01151*
X00565Y01147*
X00574Y01146*
X00583Y01147*
X00585Y01148*
X00634Y01099*
X00639Y01096*
X00645Y01095*
X00645*
X00812*
X01043Y00863*
Y00661*
X01045Y00655*
X01048Y00649*
X01276Y00422*
X01273Y00417*
X01265Y00416*
X01256Y00412*
X01249Y00407*
X01243Y00399*
X0124Y00391*
X01238Y00381*
X0124Y00372*
X01243Y00364*
X01249Y00356*
X01256Y00351*
X01265Y00347*
X01274Y00346*
X01283Y00347*
X01292Y00351*
X01299Y00356*
X01303Y0036*
X01306Y00361*
X01309Y0036*
X0137Y00299*
X01375Y00296*
X01381Y00295*
X01504*
X0151Y00296*
X01515Y00299*
X01563Y00348*
X01565Y00347*
X01574Y00346*
X01583Y00347*
X01592Y00351*
X01599Y00356*
X01605Y00364*
X01609Y00372*
X0161Y00381*
X01609Y00391*
X01605Y00399*
X016Y00406*
X01602Y00411*
X01622*
X0164Y00393*
X0164Y00391*
X01638Y00381*
X0164Y00372*
X01643Y00364*
X01649Y00356*
X01656Y00351*
X01665Y00347*
X01674Y00346*
X01683Y00347*
X01692Y00351*
X01699Y00356*
X01705Y00364*
X01709Y00372*
X0171Y00381*
X01709Y00391*
X01705Y00399*
X01699Y00407*
X01692Y00412*
X01683Y00416*
X01674Y00417*
X01665Y00416*
X01663Y00415*
X0164Y00438*
X01635Y00442*
X01629Y00443*
X01555*
X01549Y00442*
X01544Y00438*
X01513Y00407*
X01509Y00402*
X01509Y00401*
X01506Y00401*
X01504Y00401*
X01499Y00407*
X01492Y00412*
X01483Y00416*
X01474Y00417*
X01465Y00416*
X01465Y00416*
X0146Y00417*
X01456Y00422*
X01127Y00752*
Y00863*
X01132Y00866*
X01134Y00865*
X0114Y00863*
X01146Y00865*
X01151Y00868*
X01156*
X01161Y00865*
X01167Y00863*
X01173Y00865*
X01178Y00868*
X0118Y00869*
X01183*
X01185Y00868*
X0119Y00865*
X01196Y00863*
X01202Y00865*
X01207Y00868*
X01208Y00869*
X01213*
X01213Y00868*
X01218Y00865*
X01225Y00863*
X01231Y00865*
X01236Y00868*
X01239Y00873*
X01241Y0088*
X01239Y00886*
X01236Y00891*
X01231Y00894*
X01225Y00896*
X01218Y00894*
X01213Y00891*
X01213Y0089*
X01208*
X01207Y00891*
X01202Y00894*
X01196Y00896*
X0119Y00894*
X01185Y00891*
X01183Y0089*
X0118*
X01178Y00891*
X01173Y00894*
X01167Y00896*
X01161Y00894*
X01157Y00891*
X01154Y00891*
X0115Y00891*
X01146Y00894*
X0114Y00896*
X01134Y00894*
X01132Y00893*
X01127Y00896*
Y00898*
X01126Y00904*
X01122Y0091*
X00839Y01193*
X00834Y01196*
X00828Y01198*
X0081*
Y01217*
X00739*
Y01199*
X00734Y01197*
X00729Y01198*
X00706*
X00705Y01199*
X00699Y01207*
X00692Y01212*
X00683Y01216*
X00674Y01217*
G37*
G36*
X0072Y01086D02*
X00713Y01084D01*
X00708Y01081*
X00705Y01076*
X00703Y0107*
X00705Y01063*
X00708Y01058*
X00713Y01055*
X0072Y01053*
X00726Y01055*
X00731Y01058*
X00734Y01063*
X00736Y0107*
X00734Y01076*
X00731Y01081*
X00726Y01084*
X0072Y01086*
G37*
G36*
X01175Y01026D02*
X01168Y01024D01*
X01163Y01021*
X0116Y01016*
X0116Y01015*
X01157Y01014*
X01154Y01014*
X01151Y01019*
X01146Y01022*
X0114Y01024*
X01134Y01022*
X01129Y01019*
X01125Y01014*
X01124Y01007*
X01125Y01001*
X01129Y00996*
X01134Y00993*
X0114Y00991*
X01146Y00993*
X01151Y00996*
X01155Y01001*
X01155Y01002*
X01157Y01003*
X0116Y01003*
X01163Y00998*
X01168Y00995*
X01175Y00993*
X01181Y00995*
X01186Y00998*
X01189Y01003*
X01191Y0101*
X01189Y01016*
X01186Y01021*
X01181Y01024*
X01175Y01026*
G37*
G36*
X00458Y01093D02*
X00416Y01051D01*
X00458Y01009*
X005Y01051*
X00458Y01093*
G37*
G36*
X0203Y00996D02*
X02023Y00994D01*
X02018Y00991*
X02018Y0099*
X02011*
X02011Y00991*
X02006Y00994*
X02Y00996*
X01993Y00994*
X01988Y00991*
X01985Y00986*
X01985Y00985*
X01979*
X01979Y00986*
X01976Y00991*
X01971Y00994*
X01965Y00996*
X01958Y00994*
X01953Y00991*
X01953Y0099*
X01946*
X01946Y00991*
X01941Y00994*
X01935Y00996*
X01928Y00994*
X01923Y00991*
X0192Y00986*
X01918Y0098*
X0192Y00973*
X01923Y00968*
X01928Y00965*
X01935Y00963*
X01941Y00965*
X01946Y00968*
X01946Y00969*
X01953*
X01953Y00968*
X01958Y00965*
X01965Y00963*
X01971Y00965*
X01976Y00968*
X01979Y00973*
X01979Y00974*
X01985*
X01985Y00973*
X01988Y00968*
X01993Y00965*
X02Y00963*
X02006Y00965*
X02011Y00968*
X02011Y00969*
X02018*
X02018Y00968*
X02023Y00965*
X0203Y00963*
X02036Y00965*
X02041Y00968*
X02044Y00973*
X02046Y0098*
X02044Y00986*
X02041Y00991*
X02036Y00994*
X0203Y00996*
G37*
G36*
X01095Y01021D02*
X01088Y01019D01*
X01083Y01016*
X0108Y01011*
X01078Y01005*
X0108Y00998*
X01083Y00993*
X01088Y0099*
X01095Y00988*
X01101Y0099*
X01106Y00993*
X01109Y00998*
X01111Y01005*
X01109Y01011*
X01106Y01016*
X01101Y01019*
X01095Y01021*
G37*
G36*
X0159Y00989D02*
Y00975D01*
X01604*
X01603Y00977*
X01599Y00984*
X01592Y00988*
X0159Y00989*
G37*
G36*
X0158D02*
X01577Y00988D01*
X0157Y00984*
X01566Y00977*
X01565Y00975*
X0158*
Y00989*
G37*
G36*
X00529Y0101D02*
X00521Y01009D01*
X00514Y01006*
X00508Y01001*
X00503Y00995*
X005Y00988*
X00499Y0098*
X005Y00973*
X00503Y00965*
X00508Y00959*
X00514Y00954*
X00521Y00951*
X00529Y0095*
X00537Y00951*
X00544Y00954*
X0055Y00959*
X00555Y00965*
X00558Y00973*
X00559Y0098*
X00558Y00988*
X00555Y00995*
X0055Y01001*
X00544Y01006*
X00537Y01009*
X00529Y0101*
G37*
G36*
X01604Y00965D02*
X0159D01*
Y0095*
X01592Y00951*
X01599Y00955*
X01603Y00962*
X01604Y00965*
G37*
G36*
X0158D02*
X01565D01*
X01566Y00962*
X0157Y00955*
X01577Y00951*
X0158Y0095*
Y00965*
G37*
G36*
X00345Y00966D02*
X00338Y00964D01*
X00333Y00961*
X0033Y00956*
X00328Y0095*
X0033Y00943*
X00333Y00938*
X00338Y00935*
X00345Y00933*
X00351Y00935*
X00356Y00938*
X00359Y00943*
X00361Y0095*
X00359Y00956*
X00356Y00961*
X00351Y00964*
X00345Y00966*
G37*
G36*
X00932Y00952D02*
X00926Y0095D01*
X00921Y00947*
X00917Y00942*
X00916Y00936*
X00917Y00929*
X00921Y00924*
X00926Y00921*
X00932Y0092*
X00938Y00921*
X00943Y00924*
X00947Y00929*
X00948Y00936*
X00947Y00942*
X00943Y00947*
X00938Y0095*
X00932Y00952*
G37*
G36*
X00889D02*
X00882Y0095D01*
X00877Y00947*
X00874Y00942*
X00873Y00936*
X00874Y00929*
X00877Y00924*
X00882Y00921*
X00889Y0092*
X00895Y00921*
X009Y00924*
X00903Y00929*
X00905Y00936*
X00903Y00942*
X009Y00947*
X00895Y0095*
X00889Y00952*
G37*
G36*
X0041Y00926D02*
X00403Y00924D01*
X00398Y00921*
X00395Y00916*
X00393Y0091*
X00395Y00903*
X00398Y00898*
X00403Y00895*
X0041Y00893*
X00416Y00895*
X00421Y00898*
X00424Y00903*
X00426Y0091*
X00424Y00916*
X00421Y00921*
X00416Y00924*
X0041Y00926*
G37*
G36*
X006Y00939D02*
X00592Y00938D01*
X00585Y00935*
X00578Y00931*
X00574Y00924*
X00571Y00917*
X0057Y0091*
X00571Y00903*
X00497Y0083*
X00494Y00825*
X00493Y00819*
Y00787*
X00491Y00786*
X00484Y0078*
X00478Y00773*
X00474Y00764*
X00473Y00755*
X00474Y00746*
X00478Y00737*
X00484Y0073*
X00491Y00724*
X005Y00721*
X00509Y00719*
X00518Y00721*
X00527Y00724*
X00534Y0073*
X0054Y00737*
X00543Y00746*
X00545Y00755*
X00543Y00764*
X0054Y00773*
X00534Y0078*
X00527Y00786*
X00525Y00787*
Y00812*
X00593Y00881*
X006Y0088*
X00607Y00881*
X00614Y00884*
X00621Y00888*
X00625Y00895*
X00628Y00902*
X00629Y0091*
X00628Y00917*
X00625Y00924*
X00621Y00931*
X00614Y00935*
X00607Y00938*
X006Y00939*
G37*
G36*
X00932Y00908D02*
X00926Y00907D01*
X00921Y00904*
X00917Y00898*
X00916Y00892*
X00917Y00886*
X00921Y00881*
X00926Y00877*
X00932Y00876*
X00938Y00877*
X00943Y00881*
X00947Y00886*
X00948Y00892*
X00947Y00898*
X00943Y00904*
X00938Y00907*
X00932Y00908*
G37*
G36*
X00889D02*
X00882Y00907D01*
X00877Y00904*
X00874Y00898*
X00873Y00892*
X00874Y00886*
X00877Y00881*
X00882Y00877*
X00889Y00876*
X00895Y00877*
X009Y00881*
X00903Y00886*
X00905Y00892*
X00903Y00898*
X009Y00904*
X00895Y00907*
X00889Y00908*
G37*
G36*
X00932Y00865D02*
X00926Y00864D01*
X00921Y0086*
X00917Y00855*
X00916Y00849*
X00917Y00843*
X00921Y00838*
X00926Y00834*
X00932Y00833*
X00938Y00834*
X00943Y00838*
X00947Y00843*
X00948Y00849*
X00947Y00855*
X00943Y0086*
X00938Y00864*
X00932Y00865*
G37*
G36*
X00889D02*
X00882Y00864D01*
X00877Y0086*
X00874Y00855*
X00873Y00849*
X00874Y00843*
X00877Y00838*
X00882Y00834*
X00889Y00833*
X00895Y00834*
X009Y00838*
X00903Y00843*
X00905Y00849*
X00903Y00855*
X009Y0086*
X00895Y00864*
X00889Y00865*
G37*
G36*
X0075Y00896D02*
X00743Y00894D01*
X00738Y00891*
X00735Y00886*
X00733Y0088*
X00735Y00873*
X00738Y00869*
Y00835*
X00735Y00831*
X00733Y00825*
X00735Y00818*
X00738Y00813*
X00743Y0081*
X0075Y00808*
X00756Y0081*
X00761Y00813*
X00764Y00818*
X00766Y00825*
X00764Y00831*
X00762Y00834*
Y0087*
X00764Y00873*
X00766Y0088*
X00764Y00886*
X00761Y00891*
X00756Y00894*
X0075Y00896*
G37*
G36*
X00438Y00876D02*
X00388Y00826D01*
X00438Y00776*
X00488Y00826*
X00438Y00876*
G37*
G36*
X0182Y00796D02*
X01813Y00794D01*
X01808Y00791*
X01805Y00786*
X01803Y0078*
X01805Y00773*
X01808Y00768*
X01813Y00765*
X0182Y00763*
X01826Y00765*
X01831Y00768*
X01834Y00773*
X01836Y0078*
X01834Y00786*
X01831Y00791*
X01826Y00794*
X0182Y00796*
G37*
G36*
X01755D02*
X01748Y00794D01*
X01743Y00791*
X0174Y00786*
X01738Y0078*
X0174Y00773*
X01743Y00768*
X01748Y00765*
X01755Y00763*
X01761Y00765*
X01766Y00768*
X01769Y00773*
X01771Y0078*
X01769Y00786*
X01766Y00791*
X01761Y00794*
X01755Y00796*
G37*
G36*
X0179Y00766D02*
X01783Y00764D01*
X01778Y00761*
X01775Y00756*
X01773Y0075*
X01775Y00743*
X01778Y00738*
X01783Y00735*
X0179Y00733*
X01796Y00735*
X01801Y00738*
X01804Y00743*
X01806Y0075*
X01804Y00756*
X01801Y00761*
X01796Y00764*
X0179Y00766*
G37*
G36*
X0152D02*
X01513Y00764D01*
X01508Y00761*
X01505Y00756*
X01503Y0075*
X01505Y00743*
X01508Y00738*
X01513Y00735*
X0152Y00733*
X01526Y00735*
X01531Y00738*
X01534Y00743*
X01536Y0075*
X01534Y00756*
X01531Y00761*
X01526Y00764*
X0152Y00766*
G37*
G36*
X0182Y00736D02*
X01813Y00734D01*
X01808Y00731*
X01805Y00726*
X01803Y0072*
X01805Y00713*
X01808Y00708*
X01813Y00705*
X0182Y00703*
X01826Y00705*
X01831Y00708*
X01834Y00713*
X01836Y0072*
X01834Y00726*
X01831Y00731*
X01826Y00734*
X0182Y00736*
G37*
G36*
X01755D02*
X01748Y00734D01*
X01743Y00731*
X0174Y00726*
X01738Y0072*
X0174Y00713*
X01743Y00708*
X01748Y00705*
X01755Y00703*
X01761Y00705*
X01766Y00708*
X01769Y00713*
X01771Y0072*
X01769Y00726*
X01766Y00731*
X01761Y00734*
X01755Y00736*
G37*
G36*
X0058Y0072D02*
X0057Y00719D01*
X00562Y00715*
X00554Y0071*
X00549Y00702*
X00545Y00694*
X00544Y00685*
X00545Y00675*
X00549Y00667*
X00554Y00659*
X00562Y00654*
X0057Y0065*
X0058Y00649*
X00589Y0065*
X00597Y00654*
X00605Y00659*
X0061Y00667*
X00614Y00675*
X00615Y00685*
X00614Y00694*
X0061Y00702*
X00605Y0071*
X00597Y00715*
X00589Y00719*
X0058Y0072*
G37*
G36*
X0152Y00721D02*
X01513Y00719D01*
X01508Y00716*
X01505Y00711*
X01503Y00705*
X01505Y00698*
X01508Y00693*
X01513Y0069*
X01514Y0069*
Y00684*
X01513Y00684*
X01508Y00681*
X01505Y00676*
X01503Y0067*
X01505Y00663*
X01508Y00658*
X01512Y00655*
X01512Y00652*
X01512Y0065*
X01508Y00649*
X01503Y00646*
X015Y00641*
X01498Y00635*
X015Y00628*
X01503Y00623*
X01508Y0062*
X01515Y00618*
X01521Y0062*
X01526Y00623*
X01529Y00628*
X01531Y00635*
X01529Y00641*
X01526Y00646*
X01522Y00649*
X01522Y00652*
X01522Y00654*
X01526Y00655*
X01531Y00658*
X01534Y00663*
X01536Y0067*
X01534Y00676*
X01531Y00681*
X01526Y00684*
X01525Y00684*
Y0069*
X01526Y0069*
X01531Y00693*
X01534Y00698*
X01536Y00705*
X01534Y00711*
X01531Y00716*
X01526Y00719*
X0152Y00721*
G37*
G36*
X01515Y00611D02*
X01508Y00609D01*
X01503Y00606*
X015Y00601*
X01498Y00595*
X015Y00588*
X01503Y00583*
X01508Y0058*
X01515Y00578*
X01521Y0058*
X01526Y00583*
X01529Y00588*
X01531Y00595*
X01529Y00601*
X01526Y00606*
X01521Y00609*
X01515Y00611*
G37*
G36*
X01355Y00606D02*
X01348Y00604D01*
X01343Y00601*
X0134Y00596*
X01338Y0059*
X0134Y00583*
X01343Y00578*
X01348Y00575*
X01355Y00573*
X01361Y00575*
X01366Y00578*
X01369Y00583*
X01371Y0059*
X01369Y00596*
X01366Y00601*
X01361Y00604*
X01355Y00606*
G37*
G36*
X01615Y00826D02*
D01*
X01605*
X01598Y00824*
X01593Y00821*
X0159Y00816*
X01588Y0081*
X0159Y00803*
X01593Y00798*
X01598Y00795*
X01605Y00793*
X01608*
X01619Y00782*
Y0078*
X01621Y00774*
X01624Y00768*
X01633Y00759*
X01632Y00753*
X01628Y00751*
X01625Y00746*
X01623Y0074*
X01625Y00733*
X01628Y00728*
X01633Y00725*
X0164Y00723*
X01646Y00725*
X01651Y00728*
X01653Y00732*
X01659Y00733*
X01802Y00591*
Y00557*
Y00519*
X018Y00516*
X01798Y0051*
X018Y00503*
X01803Y00498*
X01808Y00495*
X01815Y00493*
X01821Y00495*
X01826Y00498*
X01829Y00501*
X01833Y00507*
X01834Y00513*
Y00557*
Y00597*
X01833Y00603*
X01829Y00609*
X01651Y00786*
Y00789*
X0165Y00795*
X01647Y008*
X01626Y00821*
X01621Y00824*
X0162Y00825*
X01615Y00826*
G37*
G36*
X0115Y00476D02*
X01143Y00474D01*
X01138Y00471*
X01135Y00466*
X01133Y0046*
X01135Y00453*
X01138Y00448*
X01143Y00445*
X0115Y00443*
X01156Y00445*
X01161Y00448*
X01164Y00453*
X01166Y0046*
X01164Y00466*
X01161Y00471*
X01156Y00474*
X0115Y00476*
G37*
G36*
X0085Y00465D02*
X0084Y00464D01*
X00832Y0046*
X00824Y00455*
X00819Y00447*
X00815Y00439*
X00814Y0043*
X00815Y0042*
X00819Y00412*
X00824Y00404*
X00832Y00399*
X0084Y00395*
X0085Y00394*
X00859Y00395*
X00867Y00399*
X00875Y00404*
X0088Y00412*
X00884Y0042*
X00885Y0043*
X00884Y00439*
X0088Y00447*
X00875Y00455*
X00867Y0046*
X00859Y00464*
X0085Y00465*
G37*
G36*
X01214Y00421D02*
X01179D01*
Y00386*
X01214*
Y00421*
G37*
G36*
X01169D02*
X01135D01*
Y00386*
X01169*
Y00421*
G37*
G36*
X01974Y00417D02*
X01965Y00416D01*
X01956Y00412*
X01949Y00407*
X01943Y00399*
X0194Y00391*
X01938Y00381*
X0194Y00372*
X01943Y00364*
X01949Y00356*
X01956Y00351*
X01965Y00347*
X01974Y00346*
X01983Y00347*
X01992Y00351*
X01999Y00356*
X02005Y00364*
X02009Y00372*
X0201Y00381*
X02009Y00391*
X02005Y00399*
X01999Y00407*
X01992Y00412*
X01983Y00416*
X01974Y00417*
G37*
G36*
X01874D02*
X01865Y00416D01*
X01856Y00412*
X01849Y00407*
X01843Y00399*
X0184Y00391*
X01838Y00381*
X0184Y00372*
X01843Y00364*
X01849Y00356*
X01856Y00351*
X01865Y00347*
X01874Y00346*
X01883Y00347*
X01892Y00351*
X01899Y00356*
X01905Y00364*
X01909Y00372*
X0191Y00381*
X01909Y00391*
X01905Y00399*
X01899Y00407*
X01892Y00412*
X01883Y00416*
X01874Y00417*
G37*
G36*
X01774D02*
X01765Y00416D01*
X01756Y00412*
X01749Y00407*
X01743Y00399*
X0174Y00391*
X01738Y00381*
X0174Y00372*
X01743Y00364*
X01749Y00356*
X01756Y00351*
X01765Y00347*
X01774Y00346*
X01783Y00347*
X01792Y00351*
X01799Y00356*
X01805Y00364*
X01809Y00372*
X0181Y00381*
X01809Y00391*
X01805Y00399*
X01799Y00407*
X01792Y00412*
X01783Y00416*
X01774Y00417*
G37*
G36*
X01214Y00376D02*
X01179D01*
Y00342*
X01214*
Y00376*
G37*
G36*
X01169D02*
X01135D01*
Y00342*
X01169*
Y00376*
G37*
G36*
X0092Y00409D02*
X0087Y00359D01*
X0092Y00309*
X0097Y00359*
X0092Y00409*
G37*
G36*
X0181Y00202D02*
X01739D01*
Y00131*
X0181*
Y00202*
G37*
G36*
X01974Y00202D02*
X01965Y00201D01*
X01956Y00197*
X01949Y00192*
X01943Y00184*
X0194Y00176*
X01938Y00166*
X0194Y00157*
X01943Y00149*
X01949Y00141*
X01956Y00136*
X01965Y00132*
X01974Y00131*
X01983Y00132*
X01992Y00136*
X01999Y00141*
X02005Y00149*
X02009Y00157*
X0201Y00166*
X02009Y00176*
X02005Y00184*
X01999Y00192*
X01992Y00197*
X01983Y00201*
X01974Y00202*
G37*
G36*
X01874D02*
X01865Y00201D01*
X01856Y00197*
X01849Y00192*
X01843Y00184*
X0184Y00176*
X01838Y00166*
X0184Y00157*
X01843Y00149*
X01849Y00141*
X01856Y00136*
X01865Y00132*
X01874Y00131*
X01883Y00132*
X01892Y00136*
X01899Y00141*
X01905Y00149*
X01909Y00157*
X0191Y00166*
X01909Y00176*
X01905Y00184*
X01899Y00192*
X01892Y00197*
X01883Y00201*
X01874Y00202*
G37*
%LNsolears_v3-3*%
%LPD*%
G36*
X0092Y02668D02*
X00806Y02554D01*
X00801Y02556*
Y02582*
X00891Y02672*
X00918*
X0092Y02668*
G37*
G36*
X00869Y02132D02*
Y02118D01*
X00864Y02117*
X00857Y02122*
X00849Y02126*
X00839Y02127*
X0083Y02126*
X00821Y02122*
X00814Y02116*
X00808Y02109*
X00806Y02104*
X00801Y02105*
Y02193*
X00806Y02195*
X00869Y02132*
G37*
G36*
X00868Y02717D02*
Y02695D01*
X00774Y026*
X0077Y02595*
X00769Y02589*
Y02118*
X00764Y02117*
X00757Y02122*
X00749Y02126*
X00739Y02127*
X0073Y02126*
X00721Y02122*
X00714Y02117*
X00709Y02118*
Y02564*
X00864Y02719*
X00868Y02717*
G37*
G36*
X01222Y00575D02*
X0122Y0057D01*
X01218Y00569*
X01213Y00566*
X0121Y00561*
X01208Y00555*
X0121Y00548*
X01213Y00543*
X01218Y0054*
X01225Y00538*
X01231Y0054*
X01236Y00543*
X01239Y00548*
X0124Y0055*
X01245Y00552*
X01375Y00422*
X01373Y00417*
X01365Y00416*
X01356Y00412*
X01349Y00407*
X01343Y00399*
X01341Y00393*
X01336Y00394*
Y00401*
X01334Y00407*
X01331Y00412*
X01076Y00667*
Y00715*
X0108Y00717*
X01222Y00575*
G37*
G54D26*
X00104Y02426D03*
G54D27*
X00509Y00755D03*
X01474Y00381D03*
X01574D03*
X01674D03*
X01434Y03493D03*
X00565D03*
X00104Y02626D03*
Y02726D03*
Y02826D03*
X00174Y01181D03*
X00674D03*
X00574D03*
G54D30*
X006Y0091D03*
G54D32*
X01174Y00381D03*
X00774Y01181D03*
G54D33*
X00283Y0321D03*
G54D34*
X00326Y02986D03*
Y02704D03*
X00895Y03326D03*
X009Y02986D03*
Y02704D03*
Y02421D03*
G54D35*
X00484Y02986D03*
Y02704D03*
Y02421D03*
X01632D03*
Y02704D03*
Y02986D03*
X00974Y03326D03*
X01053D03*
X00979Y02986D03*
X01058D03*
X00979Y02704D03*
X01058D03*
X00979Y02421D03*
X01058D03*
G54D36*
X00339Y01461D03*
X00539D03*
X00639D03*
X00739D03*
X00839D03*
X01039D03*
X01139D03*
X01239D03*
X01339D03*
X01639Y02061D03*
X01539D03*
G54D38*
X01585Y0097D03*
X0168Y01675D03*
X01415Y01665D03*
X0075Y00825D03*
Y0088D03*
X00945Y0157D03*
X0189Y0114D03*
X01605Y0081D03*
X01815Y0051D03*
X01818Y00557D03*
Y00592D03*
X0022Y02525D03*
X0026Y0248D03*
G54D40*
X00645Y01111D02*
X00818D01*
X00574Y01181D02*
X00645Y01111D01*
X00945Y0157D02*
X0096D01*
X01039Y01491*
Y01461D02*
Y01491D01*
X0168Y01344D02*
X01884Y0114D01*
X0189*
X01428Y01344D02*
X0168D01*
X01339Y01432D02*
X01428Y01344D01*
X01339Y01432D02*
Y01461D01*
X00509Y00819D02*
X006Y0091D01*
X00509Y00755D02*
Y00819D01*
X01085Y00735D02*
Y00884D01*
X00833Y01136D02*
X01085Y00884D01*
X00828Y01181D02*
X01111Y00898D01*
Y00745D02*
Y00898D01*
Y00745D02*
X01445Y00411D01*
X01085Y00735D02*
X01419Y004D01*
X00818Y01111D02*
X0106Y0087D01*
Y00661D02*
Y0087D01*
Y00661D02*
X01319Y00401D01*
X01445Y00381D02*
Y00411D01*
X00774Y01181D02*
X00828D01*
X00738Y01136D02*
X00833D01*
X00729Y01145D02*
X00738Y01136D01*
X00729Y01145D02*
Y01181D01*
X00674D02*
X00729D01*
X01319Y00372D02*
Y00401D01*
X01454Y00336D02*
X01493D01*
X01419Y00371D02*
X01454Y00336D01*
X01419Y00371D02*
Y004D01*
X01445Y00381D02*
X01474D01*
X01493Y00336D02*
X01524Y00367D01*
Y00396*
X01555Y00427*
X01629*
X01674Y00381*
X01319Y00372D02*
X01381Y00311D01*
X01504*
X01574Y00381*
Y00381*
X00593Y01613D02*
Y02109D01*
X00539Y01559D02*
X00593Y01613D01*
X00539Y01461D02*
Y01559D01*
X00815Y0254D02*
X00979Y02704D01*
X00815Y0221D02*
Y0254D01*
X01635Y0078D02*
Y00789D01*
X01615Y0081D02*
X01635Y00789D01*
X01605Y0081D02*
X01615D01*
X01815Y0051D02*
X01818Y00513D01*
Y00557*
Y00592*
Y00597*
X01635Y0078D02*
X01818Y00597D01*
X00785Y01975D02*
Y02589D01*
X00739Y01929D02*
X00785Y01975D01*
X00739Y01461D02*
Y01929D01*
X00885Y01941D02*
Y02139D01*
X00815Y0221D02*
X00885Y02139D01*
X01585Y02094D02*
X01618Y02061D01*
X01585Y02094D02*
Y02109D01*
X01558Y02136D02*
X01585Y02109D01*
X01554Y02136D02*
X01558D01*
X0131Y0238D02*
X01554Y02136D01*
X00639Y01968D02*
X00693Y02022D01*
X00639Y01461D02*
Y01968D01*
X00693Y02022D02*
Y02571D01*
X00593Y02109D02*
X00668Y02184D01*
Y02582*
X00194Y02514D02*
X00228Y0248D01*
X0026*
X0022Y02525D02*
Y0267D01*
X00163Y02726D02*
X0022Y0267D01*
X00163Y02623D02*
X00194Y02592D01*
Y02514D02*
Y02592D01*
X00123Y02446D02*
X00277D01*
X00397Y02566*
X00107Y02623D02*
X00163D01*
X00104Y02626D02*
X00107Y02623D01*
X00104Y02726D02*
X00163D01*
X00104Y02726D02*
X00104Y02726D01*
X00626Y02671D02*
Y02753D01*
X00521Y02566D02*
X00626Y02671D01*
X00397Y02566D02*
X00521D01*
X00255Y03182D02*
X00283Y0321D01*
X00255Y02973D02*
Y03182D01*
Y02973D02*
X00326Y02902D01*
Y02704D02*
Y02902D01*
X00104Y02426D02*
X00123Y02446D01*
X00521Y02858D02*
X00626Y02753D01*
X00455Y02858D02*
X00521D01*
X00326Y02986D02*
X00455Y02858D01*
X0131Y0238D02*
Y02991D01*
X01539Y02061D02*
Y02115D01*
X01285Y0237D02*
X01539Y02115D01*
X01285Y0237D02*
Y02937D01*
X01618Y02061D02*
X01639D01*
X00974Y03326D02*
X0131Y02991D01*
X00895Y03326D02*
X01285Y02937D01*
X00668Y02582D02*
X009Y02814D01*
X00693Y02571D02*
X00979Y02856D01*
X009Y02814D02*
Y02986D01*
Y02421D02*
X01185Y02137D01*
X00979Y02856D02*
Y02986D01*
X00785Y02589D02*
X009Y02704D01*
X00839Y01895D02*
X00885Y01941D01*
X00839Y01461D02*
Y01895D01*
X00979Y02421D02*
X01285Y02115D01*
X01185Y01827D02*
Y02137D01*
X01139Y01782D02*
X01185Y01827D01*
X01139Y01461D02*
Y01782D01*
X01285Y01812D02*
Y02115D01*
X01239Y01767D02*
X01285Y01812D01*
X01239Y01461D02*
Y01767D01*
G54D41*
X0075Y00825D02*
Y00829D01*
X0075Y00829D02*
Y00879D01*
X0075Y00829D02*
X0075Y00829D01*
X0075Y0088D02*
X0075Y00879D01*
M02*