%FSTAX23Y23*%
%MOIN*%
%SFA1B1*%

%IPPOS*%
%ADD10C,0.007870*%
%ADD11C,0.005000*%
%ADD12C,0.010000*%
%ADD71C,0.009840*%
%ADD72C,0.000000*%
%ADD73C,0.005910*%
%LNsolears_v3-1*%
%LPD*%
G54D10*
X018Y01275D02*
X01799Y01285D01*
X01799Y01295*
X01798Y01305*
X01797Y01314*
X01795Y01324*
X01793Y01334*
X01791Y01344*
X01789Y01354*
X01786Y01363*
X01783Y01373*
X01779Y01382*
X01776Y01392*
X01772Y01401*
X01767Y0141*
X01763Y01419*
X01758Y01427*
X01752Y01436*
X01747Y01444*
X01741Y01452*
X01735Y0146*
X01729Y01468*
X01722Y01476*
X01715Y01483*
X01708Y0149*
X01701Y01497*
X01693Y01504*
X01685Y0151*
X01677Y01516*
X01669Y01522*
X01661Y01527*
X01652Y01533*
X01644Y01538*
X01635Y01542*
X01626Y01547*
X01617Y01551*
X01607Y01554*
X01598Y01558*
X01588Y01561*
X01579Y01564*
X01569Y01566*
X01559Y01568*
X01549Y0157*
X01539Y01572*
X0153Y01573*
X0152Y01574*
X0151Y01574*
X015Y01575*
X01489Y01574*
X01479Y01574*
X01469Y01573*
X0146Y01572*
X0145Y0157*
X0144Y01568*
X0143Y01566*
X0142Y01564*
X01411Y01561*
X01401Y01558*
X01392Y01554*
X01382Y01551*
X01373Y01547*
X01364Y01542*
X01355Y01538*
X01347Y01533*
X01338Y01527*
X0133Y01522*
X01322Y01516*
X01314Y0151*
X01306Y01504*
X01298Y01497*
X01291Y0149*
X01284Y01483*
X01277Y01476*
X0127Y01468*
X01264Y0146*
X01258Y01452*
X01252Y01444*
X01247Y01436*
X01241Y01427*
X01236Y01419*
X01232Y0141*
X01227Y01401*
X01223Y01392*
X0122Y01382*
X01216Y01373*
X01213Y01363*
X0121Y01354*
X01208Y01344*
X01206Y01334*
X01204Y01324*
X01202Y01314*
X01201Y01305*
X012Y01295*
X012Y01285*
X012Y01275*
X012Y01264*
X012Y01254*
X01201Y01244*
X01202Y01235*
X01204Y01225*
X01206Y01215*
X01208Y01205*
X0121Y01195*
X01213Y01186*
X01216Y01176*
X0122Y01167*
X01223Y01157*
X01227Y01148*
X01232Y01139*
X01236Y0113*
X01241Y01122*
X01247Y01113*
X01252Y01105*
X01258Y01097*
X01264Y01089*
X0127Y01081*
X01277Y01073*
X01284Y01066*
X01291Y01059*
X01298Y01052*
X01306Y01045*
X01314Y01039*
X01322Y01033*
X0133Y01027*
X01338Y01022*
X01347Y01016*
X01355Y01011*
X01364Y01007*
X01373Y01002*
X01382Y00998*
X01392Y00995*
X01401Y00991*
X01411Y00988*
X0142Y00985*
X0143Y00983*
X0144Y00981*
X0145Y00979*
X0146Y00977*
X01469Y00976*
X01479Y00975*
X01489Y00975*
X015Y00975*
X0151Y00975*
X0152Y00975*
X0153Y00976*
X01539Y00977*
X01549Y00979*
X01559Y00981*
X01569Y00983*
X01579Y00985*
X01588Y00988*
X01598Y00991*
X01607Y00995*
X01617Y00998*
X01626Y01002*
X01635Y01007*
X01644Y01011*
X01652Y01016*
X01661Y01022*
X01669Y01027*
X01677Y01033*
X01685Y01039*
X01693Y01045*
X01701Y01052*
X01708Y01059*
X01715Y01066*
X01722Y01073*
X01729Y01081*
X01735Y01089*
X01741Y01097*
X01747Y01105*
X01752Y01113*
X01758Y01122*
X01763Y0113*
X01767Y01139*
X01772Y01148*
X01776Y01157*
X01779Y01167*
X01783Y01176*
X01786Y01186*
X01789Y01195*
X01791Y01205*
X01793Y01215*
X01795Y01225*
X01797Y01235*
X01798Y01244*
X01799Y01254*
X01799Y01264*
X018Y01275*
X0116D02*
X01159Y01285D01*
X01159Y01295*
X01158Y01305*
X01157Y01314*
X01155Y01324*
X01153Y01334*
X01151Y01344*
X01149Y01354*
X01146Y01363*
X01143Y01373*
X01139Y01382*
X01136Y01392*
X01132Y01401*
X01127Y0141*
X01123Y01419*
X01118Y01427*
X01112Y01436*
X01107Y01444*
X01101Y01452*
X01095Y0146*
X01089Y01468*
X01082Y01476*
X01075Y01483*
X01068Y0149*
X01061Y01497*
X01053Y01504*
X01045Y0151*
X01037Y01516*
X01029Y01522*
X01021Y01527*
X01012Y01533*
X01004Y01538*
X00995Y01542*
X00986Y01547*
X00977Y01551*
X00967Y01554*
X00958Y01558*
X00948Y01561*
X00939Y01564*
X00929Y01566*
X00919Y01568*
X00909Y0157*
X00899Y01572*
X0089Y01573*
X0088Y01574*
X0087Y01574*
X0086Y01575*
X00849Y01574*
X00839Y01574*
X00829Y01573*
X0082Y01572*
X0081Y0157*
X008Y01568*
X0079Y01566*
X0078Y01564*
X00771Y01561*
X00761Y01558*
X00752Y01554*
X00742Y01551*
X00733Y01547*
X00724Y01542*
X00715Y01538*
X00707Y01533*
X00698Y01527*
X0069Y01522*
X00682Y01516*
X00674Y0151*
X00666Y01504*
X00658Y01497*
X00651Y0149*
X00644Y01483*
X00637Y01476*
X0063Y01468*
X00624Y0146*
X00618Y01452*
X00612Y01444*
X00607Y01436*
X00601Y01427*
X00596Y01419*
X00592Y0141*
X00587Y01401*
X00583Y01392*
X0058Y01382*
X00576Y01373*
X00573Y01363*
X0057Y01354*
X00568Y01344*
X00566Y01334*
X00564Y01324*
X00562Y01314*
X00561Y01305*
X0056Y01295*
X0056Y01285*
X0056Y01275*
X0056Y01264*
X0056Y01254*
X00561Y01244*
X00562Y01235*
X00564Y01225*
X00566Y01215*
X00568Y01205*
X0057Y01195*
X00573Y01186*
X00576Y01176*
X0058Y01167*
X00583Y01157*
X00587Y01148*
X00592Y01139*
X00596Y0113*
X00601Y01122*
X00607Y01113*
X00612Y01105*
X00618Y01097*
X00624Y01089*
X0063Y01081*
X00637Y01073*
X00644Y01066*
X00651Y01059*
X00658Y01052*
X00666Y01045*
X00674Y01039*
X00682Y01033*
X0069Y01027*
X00698Y01022*
X00707Y01016*
X00715Y01011*
X00724Y01007*
X00733Y01002*
X00742Y00998*
X00752Y00995*
X00761Y00991*
X00771Y00988*
X0078Y00985*
X0079Y00983*
X008Y00981*
X0081Y00979*
X0082Y00977*
X00829Y00976*
X00839Y00975*
X00849Y00975*
X0086Y00975*
X0087Y00975*
X0088Y00975*
X0089Y00976*
X00899Y00977*
X00909Y00979*
X00919Y00981*
X00929Y00983*
X00939Y00985*
X00948Y00988*
X00958Y00991*
X00967Y00995*
X00977Y00998*
X00986Y01002*
X00995Y01007*
X01004Y01011*
X01012Y01016*
X01021Y01022*
X01029Y01027*
X01037Y01033*
X01045Y01039*
X01053Y01045*
X01061Y01052*
X01068Y01059*
X01075Y01066*
X01082Y01073*
X01089Y01081*
X01095Y01089*
X01101Y01097*
X01107Y01105*
X01112Y01113*
X01118Y01122*
X01123Y0113*
X01127Y01139*
X01132Y01148*
X01136Y01157*
X01139Y01167*
X01143Y01176*
X01146Y01186*
X01149Y01195*
X01151Y01205*
X01153Y01215*
X01155Y01225*
X01157Y01235*
X01158Y01244*
X01159Y01254*
X01159Y01264*
X0116Y01275*
X01911Y00788D02*
X01903D01*
X01911*
X0172Y01665D02*
X0182D01*
Y01865*
X0172D02*
X0182D01*
X0172Y01665D02*
Y01865D01*
X00438Y00897D02*
X0065Y00685D01*
X0058Y00614D02*
X0065Y00685D01*
X00367Y00826D02*
X0058Y00614D01*
X00367Y00826D02*
X00438Y00897D01*
X00877Y0056D02*
Y0058D01*
X00961D02*
X00992D01*
X00877D02*
X00908D01*
X00992Y0056D02*
Y0058D01*
X00898Y00648D02*
X00961D01*
X00898Y00771D02*
X00961D01*
X00801Y00633D02*
Y00696D01*
X00678Y00633D02*
Y00696D01*
X00877Y00973D02*
X00944D01*
X00877Y00812D02*
X00944D01*
X01079Y01051D02*
Y01114D01*
X01201Y01051D02*
Y01114D01*
X00838Y01073D02*
Y01136D01*
X00961Y01073D02*
Y01136D01*
X01815Y0106D02*
X01894D01*
Y01036D02*
Y0106D01*
X01815Y01036D02*
X01894D01*
X01815D02*
Y0106D01*
X00317Y01051D02*
X00458Y01192D01*
X00776Y00874*
X00706Y00803D02*
X00776Y00874D01*
X0067Y00839D02*
X00706Y00803D01*
X006Y00768D02*
X0067Y00839D01*
X00317Y01051D02*
X006Y00768D01*
X01352Y00999D02*
Y01019D01*
X01237Y00999D02*
X01268D01*
X01321D02*
X01352D01*
X01237D02*
Y01019D01*
X02046Y00873D02*
Y00936D01*
X01923Y00873D02*
Y00936D01*
X0178Y0046D02*
Y00629D01*
X01949*
Y0046D02*
Y00629D01*
X0178Y0046D02*
X01949D01*
X00779Y0043D02*
X0085Y005D01*
X00779Y0043D02*
X0092Y00288D01*
X00991Y00359*
X0085Y005D02*
X00991Y00359D01*
G54D11*
X00263Y00918D02*
X00335Y00847D01*
X00296Y00951D02*
X00367Y0088D01*
X00335Y00847D02*
X00367Y0088D01*
X00263Y00918D02*
X00296Y00951D01*
X01617Y01618D02*
X01718D01*
X01617Y01572D02*
X01718D01*
X01617D02*
Y01618D01*
X01718Y01572D02*
Y01618D01*
X01497D02*
X01598D01*
X01497Y01572D02*
X01598D01*
X01497D02*
Y01618D01*
X01598Y01572D02*
Y01618D01*
X01372D02*
X01473D01*
X01372Y01572D02*
X01473D01*
X01372D02*
Y01618D01*
X01473Y01572D02*
Y01618D01*
X01252D02*
X01353D01*
X01252Y01572D02*
X01353D01*
X01252D02*
Y01618D01*
X01353Y01572D02*
Y01618D01*
X00167Y01262D02*
X00268D01*
X00167Y01308D02*
X00268D01*
Y01262D02*
Y01308D01*
X00167Y01262D02*
Y01308D01*
X00287Y01263D02*
X00388D01*
X00287Y01309D02*
X00388D01*
Y01263D02*
Y01309D01*
X00287Y01263D02*
Y01309D01*
X01038Y01012D02*
Y01113D01*
X00992Y01012D02*
Y01113D01*
X01038*
X00992Y01012D02*
X01038D01*
Y01127D02*
Y01228D01*
X00992Y01127D02*
Y01228D01*
X01038*
X00992Y01127D02*
X01038D01*
X01347Y00978D02*
X01448D01*
X01347Y00932D02*
X01448D01*
X01347D02*
Y00978D01*
X01448Y00932D02*
Y00978D01*
X01397Y01048D02*
X01498D01*
X01397Y01002D02*
X01498D01*
X01397D02*
Y01048D01*
X01498Y01002D02*
Y01048D01*
X01517D02*
X01618D01*
X01517Y01002D02*
X01618D01*
X01517D02*
Y01048D01*
X01618Y01002D02*
Y01048D01*
X00272Y01062D02*
X00373D01*
X00272Y01108D02*
X00373D01*
Y01062D02*
Y01108D01*
X00272Y01062D02*
Y01108D01*
X00152Y01062D02*
X00253D01*
X00152Y01108D02*
X00253D01*
Y01062D02*
Y01108D01*
X00152Y01062D02*
Y01108D01*
X01707Y00872D02*
Y00973D01*
X01753Y00872D02*
Y00973D01*
X01707Y00872D02*
X01753D01*
X01707Y00973D02*
X01753D01*
X01767Y00872D02*
Y00973D01*
X01813Y00872D02*
Y00973D01*
X01767Y00872D02*
X01813D01*
X01767Y00973D02*
X01813D01*
X01618Y00687D02*
Y00788D01*
X01572Y00687D02*
Y00788D01*
X01618*
X01572Y00687D02*
X01618D01*
X01632Y00622D02*
Y00723D01*
X01678Y00622D02*
Y00723D01*
X01632Y00622D02*
X01678D01*
X01632Y00723D02*
X01678D01*
X01711Y00671D02*
X01732D01*
X01711Y00828D02*
X01732D01*
X01847Y00671D02*
X01868D01*
X01847Y00828D02*
X01868D01*
X01711Y00671D02*
Y00692D01*
Y00807D02*
Y00828D01*
X01868Y00671D02*
Y00692D01*
Y00807D02*
Y00828D01*
G54D12*
X01765Y01895D02*
Y01954D01*
X01735*
X01725Y01944*
Y01924*
X01735Y01914*
X01765*
X01675Y01954D02*
X01695D01*
X01705Y01944*
Y01905*
X01695Y01895*
X01675*
X01665Y01905*
Y01944*
X01675Y01954*
X01645Y01895D02*
Y01954D01*
X01605Y01895*
Y01954*
X00215Y0097D02*
X00257Y01012D01*
X00236Y01033*
X00222*
X00207Y01019*
Y01005*
X00229Y00984*
X00215Y00998D02*
X00186D01*
X00215Y01054D02*
X00172Y01012D01*
X00151Y01033*
Y01047*
X00158Y01054*
X00172*
X00193Y01033*
X00172Y01054*
Y01068*
X00179Y01076*
X00193*
X00215Y01054*
X0013D02*
X00116Y01068D01*
X00123Y01061*
X00165Y01104*
Y0109*
X0065Y0071D02*
X00692Y00752D01*
X00671Y00773*
X00657*
X00642Y00759*
Y00745*
X00664Y00724*
X00614Y00816D02*
X00628D01*
X00642Y00801*
Y00787*
X00635Y0078*
X00621*
X00607Y00794*
X00593*
X00586Y00787*
Y00773*
X006Y00759*
X00614*
X00579Y00865D02*
X00607Y00837D01*
X00565Y00794*
X00536Y00823*
X00586Y00816D02*
X00572Y0083D01*
X00522Y00837D02*
X00565Y00879D01*
X00494Y00865*
X00536Y00907*
X00487Y00943D02*
X00501D01*
X00515Y00929*
Y00915*
X00508Y00907*
X00494*
X0048Y00922*
X00466*
X00459Y00915*
Y009*
X00473Y00886*
X00487*
X00452Y00992D02*
X0048Y00964D01*
X00437Y00922*
X00409Y0095*
X00459Y00943D02*
X00445Y00957D01*
X0164Y01655D02*
X01699D01*
Y01684*
X01689Y01694*
X01669*
X01659Y01684*
Y01655*
Y01674D02*
X0164Y01694D01*
X01689Y01754D02*
X01699Y01744D01*
Y01724*
X01689Y01714*
X0165*
X0164Y01724*
Y01744*
X0165Y01754*
X01689Y01774D02*
X01699Y01784D01*
Y01804*
X01689Y01814*
X01679*
X01669Y01804*
Y01794*
Y01804*
X01659Y01814*
X0165*
X0164Y01804*
Y01784*
X0165Y01774*
X0151Y01635D02*
X01569D01*
Y01664*
X01559Y01674*
X01539*
X01529Y01664*
Y01635*
Y01654D02*
X0151Y01674D01*
X01559Y01734D02*
X01569Y01724D01*
Y01704*
X01559Y01694*
X0152*
X0151Y01704*
Y01724*
X0152Y01734*
X0151Y01784D02*
X01569D01*
X01539Y01754*
Y01794*
X01375Y01645D02*
X01434D01*
Y01674*
X01424Y01684*
X01404*
X01394Y01674*
Y01645*
Y01664D02*
X01375Y01684D01*
X01424Y01744D02*
X01434Y01734D01*
Y01714*
X01424Y01704*
X01385*
X01375Y01714*
Y01734*
X01385Y01744*
X01375Y01764D02*
Y01784D01*
Y01774*
X01434*
X01424Y01764*
X0126Y01655D02*
X01319D01*
Y01684*
X01309Y01694*
X01289*
X01279Y01684*
Y01655*
Y01674D02*
X0126Y01694D01*
X01309Y01754D02*
X01319Y01744D01*
Y01724*
X01309Y01714*
X0127*
X0126Y01724*
Y01744*
X0127Y01754*
X0126Y01814D02*
Y01774D01*
X01299Y01814*
X01309*
X01319Y01804*
Y01784*
X01309Y01774*
X0117Y01609D02*
X0118Y01619D01*
X012*
X0121Y01609*
Y01599*
X012Y01589*
X0118*
X0117Y01579*
Y0157*
X0118Y0156*
X012*
X0121Y0157*
X0111Y01609D02*
X0112Y01619D01*
X0114*
X0115Y01609*
Y0157*
X0114Y0156*
X0112*
X0111Y0157*
X0109Y0156D02*
X0107D01*
X0108*
Y01619*
X0109Y01609*
X0066Y01624D02*
X0067Y01634D01*
X0069*
X007Y01624*
Y01614*
X0069Y01604*
X0067*
X0066Y01594*
Y01585*
X0067Y01575*
X0069*
X007Y01585*
X006Y01624D02*
X0061Y01634D01*
X0063*
X0064Y01624*
Y01585*
X0063Y01575*
X0061*
X006Y01585*
X0054Y01575D02*
X0058D01*
X0054Y01614*
Y01624*
X0055Y01634*
X0057*
X0058Y01624*
X00255Y0133D02*
Y01389D01*
X00225*
X00215Y01379*
Y01359*
X00225Y01349*
X00255*
X00235D02*
X00215Y0133D01*
X00155Y01379D02*
X00165Y01389D01*
X00185*
X00195Y01379*
Y0134*
X00185Y0133*
X00165*
X00155Y0134*
X00135Y01389D02*
X00095D01*
Y01379*
X00135Y0134*
Y0133*
X0053Y01325D02*
Y01384D01*
X005*
X0049Y01374*
Y01354*
X005Y01344*
X0053*
X0051D02*
X0049Y01325D01*
X0043Y01374D02*
X0044Y01384D01*
X0046*
X0047Y01374*
Y01335*
X0046Y01325*
X0044*
X0043Y01335*
X0041Y01374D02*
X004Y01384D01*
X0038*
X0037Y01374*
Y01364*
X0038Y01354*
X0037Y01344*
Y01335*
X0038Y01325*
X004*
X0041Y01335*
Y01344*
X004Y01354*
X0041Y01364*
Y01374*
X004Y01354D02*
X0038D01*
X0111Y00539D02*
Y0048D01*
X0108*
X0107Y0049*
Y00529*
X0108Y00539*
X0111*
X0101Y0048D02*
X0105D01*
X0101Y00519*
Y00529*
X0102Y00539*
X0104*
X0105Y00529*
X01015Y00619D02*
X01025Y00629D01*
X01045*
X01055Y00619*
Y0058*
X01045Y0057*
X01025*
X01015Y0058*
X00955Y0057D02*
X00995D01*
X00955Y00609*
Y00619*
X00965Y00629*
X00985*
X00995Y00619*
X0073Y00834D02*
X0074Y00844D01*
X0076*
X0077Y00834*
Y00795*
X0076Y00785*
X0074*
X0073Y00795*
X0071Y00785D02*
X0069D01*
X007*
Y00844*
X0071Y00834*
X00805Y01074D02*
Y01025D01*
X00795Y01015*
X00775*
X00765Y01025*
Y01074*
X00705Y01015D02*
X00745D01*
X00705Y01054*
Y01064*
X00715Y01074*
X00735*
X00745Y01064*
X0115Y01055D02*
Y01114D01*
X0112*
X0111Y01104*
Y01084*
X0112Y01074*
X0115*
X0113D02*
X0111Y01055D01*
X0109D02*
X0107D01*
X0108*
Y01114*
X0109Y01104*
X0115Y01299D02*
X0116Y01309D01*
X0118*
X0119Y01299*
Y0126*
X0118Y0125*
X0116*
X0115Y0126*
X011Y0125D02*
Y01309D01*
X0113Y01279*
X0109*
X00905Y01289D02*
X00915Y01299D01*
X00935*
X00945Y01289*
Y0125*
X00935Y0124*
X00915*
X00905Y0125*
X00885Y01289D02*
X00875Y01299D01*
X00855*
X00845Y01289*
Y01279*
X00855Y01269*
X00865*
X00855*
X00845Y01259*
Y0125*
X00855Y0124*
X00875*
X00885Y0125*
X01055Y0132D02*
Y01379D01*
X01025*
X01015Y01369*
Y01349*
X01025Y01339*
X01055*
X01035D02*
X01015Y0132D01*
X00955D02*
X00995D01*
X00955Y01359*
Y01369*
X00965Y01379*
X00985*
X00995Y01369*
X01465Y0085D02*
Y00909D01*
X01435*
X01425Y00899*
Y00879*
X01435Y00869*
X01465*
X01445D02*
X01425Y0085D01*
X01365Y00899D02*
X01375Y00909D01*
X01395*
X01405Y00899*
Y00889*
X01395Y00879*
X01375*
X01365Y00869*
Y0086*
X01375Y0085*
X01395*
X01405Y0086*
X01345Y0085D02*
X01325D01*
X01335*
Y00909*
X01345Y00899*
X01475Y01065D02*
Y01124D01*
X01445*
X01435Y01114*
Y01094*
X01445Y01084*
X01475*
X01455D02*
X01435Y01065D01*
X01375Y01114D02*
X01385Y01124D01*
X01405*
X01415Y01114*
Y01075*
X01405Y01065*
X01385*
X01375Y01075*
X01315Y01124D02*
X01335Y01114D01*
X01355Y01094*
Y01075*
X01345Y01065*
X01325*
X01315Y01075*
Y01084*
X01325Y01094*
X01355*
X01655Y01065D02*
Y01124D01*
X01625*
X01615Y01114*
Y01094*
X01625Y01084*
X01655*
X01635D02*
X01615Y01065D01*
X01555Y01114D02*
X01565Y01124D01*
X01585*
X01595Y01114*
Y01075*
X01585Y01065*
X01565*
X01555Y01075*
X01495Y01124D02*
X01535D01*
Y01094*
X01515Y01104*
X01505*
X01495Y01094*
Y01075*
X01505Y01065*
X01525*
X01535Y01075*
X01865Y00915D02*
Y00954D01*
X01875Y00964*
X01895*
X01905Y00954*
Y00915*
X01895Y00905*
X01875*
X01885Y00924D02*
X01865Y00905D01*
X01875D02*
X01865Y00915D01*
X01845Y00905D02*
X01825D01*
X01835*
Y00964*
X01845Y00954*
X01049Y00902D02*
Y00843D01*
X01009*
X00489Y0114D02*
Y01199D01*
X00459*
X00449Y01189*
Y01169*
X00459Y01159*
X00489*
X00469D02*
X00449Y0114D01*
X00389Y01189D02*
X00399Y01199D01*
X00419*
X00429Y01189*
Y0115*
X00419Y0114*
X00399*
X00389Y0115*
X00369Y0114D02*
X00349D01*
X00359*
Y01199*
X00369Y01189*
X00319D02*
X00309Y01199D01*
X00289*
X00279Y01189*
Y0115*
X00289Y0114*
X00309*
X00319Y0115*
Y01189*
X00319Y0114D02*
Y01199D01*
X00289*
X00279Y01189*
Y01169*
X00289Y01159*
X00319*
X00299D02*
X00279Y0114D01*
X00219Y01189D02*
X00229Y01199D01*
X00249*
X00259Y01189*
Y0115*
X00249Y0114*
X00229*
X00219Y0115*
X00199D02*
X00189Y0114D01*
X00169*
X00159Y0115*
Y01189*
X00169Y01199*
X00189*
X00199Y01189*
Y01179*
X00189Y01169*
X00159*
X00463Y01227D02*
Y01287D01*
X00433*
X00423Y01277*
Y01257*
X00433Y01247*
X00463*
X00443D02*
X00423Y01227D01*
X00403D02*
Y01287D01*
X00373*
X00363Y01277*
Y01257*
X00373Y01247*
X00403*
X00343Y01227D02*
X00323D01*
X00333*
Y01287*
X00343Y01277*
X01313Y01191D02*
Y01132D01*
X01283*
X01273Y01142*
Y01181*
X01283Y01191*
X01313*
X01253Y01132D02*
X01233D01*
X01243*
Y01191*
X01253Y01181*
X01675Y0099D02*
X01734D01*
Y01019*
X01724Y01029*
X01704*
X01694Y01019*
Y0099*
Y01009D02*
X01675Y01029D01*
X01724Y01049D02*
X01734Y01059D01*
Y01079*
X01724Y01089*
X01714*
X01704Y01079*
X01694Y01089*
X01685*
X01675Y01079*
Y01059*
X01685Y01049*
X01694*
X01704Y01059*
X01714Y01049*
X01724*
X01704Y01059D02*
Y01079D01*
X01745Y01D02*
X01804D01*
Y01029*
X01794Y01039*
X01774*
X01764Y01029*
Y01*
Y01019D02*
X01745Y01039D01*
X01804Y01059D02*
Y01099D01*
X01794*
X01755Y01059*
X01745*
X01674Y00919D02*
X01684Y00909D01*
Y0089*
X01674Y0088*
X01635*
X01625Y0089*
Y00909*
X01635Y00919*
X01674Y00939D02*
X01684Y00949D01*
Y00969*
X01674Y00979*
X01664*
X01654Y00969*
X01644Y00979*
X01635*
X01625Y00969*
Y00949*
X01635Y00939*
X01644*
X01654Y00949*
X01664Y00939*
X01674*
X01654Y00949D02*
Y00969D01*
X0152Y00805D02*
X01579D01*
Y00834*
X01569Y00844*
X01549*
X01539Y00834*
Y00805*
Y00824D02*
X0152Y00844D01*
Y00864D02*
Y00884D01*
Y00874*
X01579*
X01569Y00864*
Y00914D02*
X01579Y00924D01*
Y00944*
X01569Y00954*
X0153*
X0152Y00944*
Y00924*
X0153Y00914*
X01569*
X01615Y005D02*
X01674D01*
Y00529*
X01664Y00539*
X01644*
X01634Y00529*
Y005*
Y00519D02*
X01615Y00539D01*
X01625Y00559D02*
X01615Y00569D01*
Y00589*
X01625Y00599*
X01664*
X01674Y00589*
Y00569*
X01664Y00559*
X01654*
X01644Y00569*
Y00599*
X02004Y0067D02*
X01955D01*
X01945Y0068*
Y00699*
X01955Y00709*
X02004*
X01994Y00729D02*
X02004Y00739D01*
Y00759*
X01994Y00769*
X01984*
X01974Y00759*
Y00749*
Y00759*
X01964Y00769*
X01955*
X01945Y00759*
Y00739*
X01955Y00729*
X01979Y01074D02*
X01989Y01064D01*
Y01045*
X01979Y01035*
X0194*
X0193Y01045*
Y01064*
X0194Y01074*
X01989Y01094D02*
Y01134D01*
X01979*
X0194Y01094*
X0193*
X02034Y005D02*
X01975D01*
Y00539*
Y00599D02*
Y00559D01*
X02014Y00599*
X02024*
X02034Y00589*
Y00569*
X02024Y00559*
X0105Y0033D02*
X01092Y00372D01*
X01071Y00393*
X01057*
X01042Y00379*
Y00365*
X01064Y00344*
X01014Y00436D02*
X01028D01*
X01042Y00421*
Y00407*
X01035Y004*
X01021*
X01007Y00414*
X00993*
X00986Y00407*
Y00393*
X01Y00379*
X01014*
X00986Y00478D02*
X01Y00464D01*
Y0045*
X00972Y00421*
X00958*
X00943Y00436*
Y0045*
X00972Y00478*
X00986*
X00965Y00499D02*
X00922Y00457D01*
X00894Y00485*
X0088Y00499D02*
X00908Y00527D01*
Y00556*
X0088*
X00852Y00527*
X00873Y00549*
X00901Y0052*
X00837Y00542D02*
X0088Y00584D01*
X00859Y00605*
X00845*
X0083Y00591*
Y00577*
X00852Y00556*
X00837Y0057D02*
X00809D01*
G54D71*
X00829Y00798D02*
X00821Y00802D01*
Y00794*
X00829Y00798*
G54D72*
X01813Y01091D02*
X01804Y01096D01*
Y01087*
X01813Y01091*
G54D73*
X0182Y01274D02*
X01859D01*
X01839Y01254D02*
Y01294D01*
X0118Y01274D02*
X01219D01*
X01199Y01254D02*
Y01294D01*
M02*