%FSTAX23Y23*%
%MOIN*%
%SFA1B1*%

%IPPOS*%
%AMD42*
4,1,4,0.000000,0.021200,-0.021200,0.000000,0.000000,-0.021200,0.021200,0.000000,0.000000,0.021200,0.0*
%
%AMD45*
4,1,8,-0.011500,0.015200,-0.011500,-0.015200,0.000000,-0.026700,0.000000,-0.026700,0.011500,-0.015200,0.011500,0.015200,0.000000,0.026700,0.000000,0.026700,-0.011500,0.015200,0.0*
1,1,0.023100,0.000000,0.015200*
1,1,0.023100,0.000000,-0.015200*
1,1,0.023100,0.000000,-0.015200*
1,1,0.023100,0.000000,0.015200*
%
%AMD54*
4,1,8,-0.006300,0.015000,-0.006300,-0.015000,-0.004700,-0.016500,0.004700,-0.016500,0.006300,-0.015000,0.006300,0.015000,0.004700,0.016500,-0.004700,0.016500,-0.006300,0.015000,0.0*
1,1,0.003160,-0.004700,0.015000*
1,1,0.003160,-0.004700,-0.015000*
1,1,0.003160,0.004700,-0.015000*
1,1,0.003160,0.004700,0.015000*
%
%AMD55*
4,1,8,-0.015000,-0.006300,0.015000,-0.006300,0.016500,-0.004700,0.016500,0.004700,0.015000,0.006300,-0.015000,0.006300,-0.016500,0.004700,-0.016500,-0.004700,-0.015000,-0.006300,0.0*
1,1,0.003160,-0.015000,-0.004700*
1,1,0.003160,0.015000,-0.004700*
1,1,0.003160,0.015000,0.004700*
1,1,0.003160,-0.015000,0.004700*
%
G04~CAMADD=42~10~0.0~300.0~0.0~0.0~0.0~0.0~0~0.0~0.0~0.0~0.0~0~0.0~0.0~0.0~0.0~0~0.0~0.0~0.0~405.0~300.0~0.0*
%ADD42D42*%
%ADD43R,0.030000X0.030000*%
%ADD44R,0.023100X0.053490*%
G04~CAMADD=45~8~0.0~0.0~534.9~231.0~115.5~0.0~15~0.0~0.0~0.0~0.0~0~0.0~0.0~0.0~0.0~0~0.0~0.0~0.0~90.0~230.0~533.0*
%ADD45D45*%
%ADD46R,0.055120X0.129920*%
%ADD47R,0.129920X0.055120*%
%ADD48R,0.069290X0.116140*%
%ADD49O,0.074800X0.017720*%
%ADD50R,0.030000X0.030000*%
%ADD51R,0.015750X0.037400*%
%ADD52R,0.094490X0.196850*%
%ADD53R,0.035430X0.031500*%
G04~CAMADD=54~8~0.0~0.0~330.7~126.0~15.8~0.0~15~0.0~0.0~0.0~0.0~0~0.0~0.0~0.0~0.0~0~0.0~0.0~0.0~90.0~126.0~331.0*
%ADD54D54*%
G04~CAMADD=55~8~0.0~0.0~330.7~126.0~15.8~0.0~15~0.0~0.0~0.0~0.0~0~0.0~0.0~0.0~0.0~0~0.0~0.0~0.0~180.0~331.0~126.0*
%ADD55D55*%
%ADD57R,0.038580X0.133860*%
%LNsolears_v3-1*%
%LPD*%
G36*
X01756Y00716D02*
X01823D01*
Y00783*
X01756*
Y00716*
G37*
G54D42*
X00296Y00918D03*
X00335Y0088D03*
G54D43*
X01695Y01595D03*
X0164D03*
X01575D03*
X0152D03*
X0145D03*
X01395D03*
X0133D03*
X01275D03*
X0019Y01285D03*
X00245D03*
X0031Y01286D03*
X00365D03*
X01425Y00955D03*
X0137D03*
X01475Y01025D03*
X0142D03*
X01595D03*
X0154D03*
X00295Y01085D03*
X0035D03*
X00175D03*
X0023D03*
G54D44*
X00935Y00591D03*
X01295Y00988D03*
G54D45*
X00898Y00518D03*
X00971D03*
X01331Y01061D03*
X01258D03*
G54D46*
X00855Y0071D03*
X01004D03*
G54D47*
X0074Y0059D03*
Y00739D03*
X0114Y01157D03*
Y01007D03*
X009Y01179D03*
Y0103D03*
X01985Y0083D03*
Y00979D03*
G54D48*
X0091Y00892D03*
G54D49*
X00997Y00956D03*
Y00931D03*
Y00905D03*
Y0088D03*
Y00854D03*
Y00828D03*
X00824Y00956D03*
Y00931D03*
Y00905D03*
Y0088D03*
Y00854D03*
Y00828D03*
G54D50*
X01015Y01035D03*
Y0109D03*
Y0115D03*
Y01205D03*
X0173Y0095D03*
Y00895D03*
X0179Y0095D03*
Y00895D03*
X01595Y0071D03*
Y00765D03*
X01655Y007D03*
Y00645D03*
G54D51*
X01829Y01005D03*
X01855D03*
X0188D03*
Y01091D03*
X01855D03*
X01829D03*
G54D52*
X0113Y00675D03*
X0151D03*
G54D53*
X01655Y00832D03*
Y00777D03*
G54D54*
X01828Y00673D03*
X01802D03*
X01777D03*
X01751D03*
Y00826D03*
X01777D03*
X01802D03*
X01828D03*
G54D55*
X01866Y00788D03*
Y00762D03*
Y00737D03*
Y00711D03*
X01713D03*
Y00737D03*
Y00762D03*
Y00788D03*
G54D57*
X01911Y00545D03*
X01818D03*
M02*