%FSTAX23Y23*%
%MOIN*%
%SFA1B1*%

%IPPOS*%
%AMD28*
4,1,4,0.000000,0.041700,-0.041700,0.000000,0.000000,-0.041700,0.041700,0.000000,0.000000,0.041700,0.0*
%
%AMD31*
4,1,4,0.000000,0.033400,-0.033400,0.000000,0.000000,-0.033400,0.033400,0.000000,0.000000,0.033400,0.0*
%
%AMD33*
4,1,4,-0.041700,0.000000,0.000000,-0.041700,0.041700,0.000000,0.000000,0.041700,-0.041700,0.000000,0.0*
%
%ADD26R,0.059060X0.059060*%
%ADD27C,0.059060*%
G04~CAMADD=28~10~0.0~590.6~0.0~0.0~0.0~0.0~0~0.0~0.0~0.0~0.0~0~0.0~0.0~0.0~0.0~0~0.0~0.0~0.0~405.0~590.6~0.0*
%ADD28D28*%
%ADD29R,0.047240X0.047240*%
%ADD30C,0.047240*%
G04~CAMADD=31~10~0.0~472.4~0.0~0.0~0.0~0.0~0~0.0~0.0~0.0~0.0~0~0.0~0.0~0.0~0.0~0~0.0~0.0~0.0~405.0~472.4~0.0*
%ADD31D31*%
%ADD32R,0.059060X0.059060*%
G04~CAMADD=33~10~0.0~590.6~0.0~0.0~0.0~0.0~0~0.0~0.0~0.0~0.0~0~0.0~0.0~0.0~0.0~0~0.0~0.0~0.0~135.0~590.6~0.0*
%ADD33D33*%
%ADD34R,0.051500X0.051500*%
%ADD35C,0.051500*%
%ADD36O,0.060000X0.118110*%
%ADD37C,0.064960*%
%ADD38C,0.019680*%
%LNsolears_v3-1*%
%LPD*%
G36*
X02058Y03022D02*
Y02351D01*
X01846Y02139*
X01844Y02135*
X01843Y02131*
Y01301*
X01844Y01298*
X01846Y01294*
X02058Y01082*
Y00116*
X01954Y00012*
X01703*
X01446Y00269*
X01442Y00271*
X01439Y00272*
X00893*
X00039Y01126*
Y03112*
X00623Y03696*
X01384*
X02058Y03022*
G37*
%LNsolears_v3-2*%
%LPC*%
G36*
X01025Y03619D02*
Y03605D01*
X01039*
X01038Y03607*
X01034Y03614*
X01027Y03618*
X01025Y03619*
G37*
G36*
X01015D02*
X01012Y03618D01*
X01005Y03614*
X01001Y03607*
X01Y03605*
X01015*
Y03619*
G37*
G36*
X01039Y03595D02*
X01025D01*
Y0358*
X01027Y03581*
X01034Y03585*
X01038Y03592*
X01039Y03595*
G37*
G36*
X01015D02*
X01D01*
X01001Y03592*
X01005Y03585*
X01012Y03581*
X01015Y0358*
Y03595*
G37*
G36*
X00636Y03603D02*
X00626Y03602D01*
X00616Y03598*
X00612Y03595*
X00636Y03571*
X0066Y03595*
X00656Y03598*
X00646Y03602*
X00636Y03603*
G37*
G36*
X01363D02*
X01353Y03602D01*
X01344Y03598*
X01339Y03595*
X01363Y03571*
X01388Y03595*
X01383Y03598*
X01374Y03602*
X01363Y03603*
G37*
G36*
X00605Y03588D02*
X00602Y03584D01*
X00598Y03574*
X00596Y03564*
X00598Y03553*
X00602Y03544*
X00605Y03539*
X00629Y03564*
X00605Y03588*
G37*
G36*
X00667D02*
X00643Y03564D01*
X00667Y03539*
X00671Y03544*
X00675Y03553*
X00676Y03564*
X00675Y03574*
X00671Y03584*
X00667Y03588*
G37*
G36*
X01332D02*
X01329Y03584D01*
X01325Y03574*
X01324Y03564*
X01325Y03553*
X01329Y03544*
X01332Y03539*
X01356Y03564*
X01332Y03588*
G37*
G36*
X01395D02*
X01371Y03564D01*
X01395Y03539*
X01398Y03544*
X01402Y03553*
X01403Y03564*
X01402Y03574*
X01398Y03584*
X01395Y03588*
G37*
G36*
X01363Y03557D02*
X01339Y03532D01*
X01344Y03529*
X01353Y03525*
X01363Y03524*
X01374Y03525*
X01383Y03529*
X01388Y03532*
X01363Y03557*
G37*
G36*
X00636D02*
X00612Y03532D01*
X00616Y03529*
X00626Y03525*
X00636Y03524*
X00646Y03525*
X00656Y03529*
X0066Y03532*
X00636Y03557*
G37*
G36*
X0079Y03509D02*
Y03495D01*
X00804*
X00803Y03497*
X00799Y03504*
X00792Y03508*
X0079Y03509*
G37*
G36*
X0078D02*
X00777Y03508D01*
X0077Y03504*
X00766Y03497*
X00765Y03495*
X0078*
Y03509*
G37*
G36*
X00804Y03485D02*
X0079D01*
Y0347*
X00792Y03471*
X00799Y03475*
X00803Y03482*
X00804Y03485*
G37*
G36*
X0078D02*
X00765D01*
X00766Y03482*
X0077Y03475*
X00777Y03471*
X0078Y0347*
Y03485*
G37*
G36*
X01434Y03529D02*
X01425Y03527D01*
X01416Y03524*
X01409Y03518*
X01403Y03511*
X014Y03502*
X01398Y03493*
X014Y03484*
X01403Y03475*
X01409Y03468*
X01416Y03462*
X01425Y03458*
X01434Y03457*
X01443Y03458*
X01452Y03462*
X01459Y03468*
X01465Y03475*
X01469Y03484*
X0147Y03493*
X01469Y03502*
X01465Y03511*
X01459Y03518*
X01452Y03524*
X01443Y03527*
X01434Y03529*
G37*
G36*
X00565D02*
X00556Y03527D01*
X00548Y03524*
X0054Y03518*
X00534Y03511*
X00531Y03502*
X0053Y03493*
X00531Y03484*
X00534Y03475*
X0054Y03468*
X00548Y03462*
X00556Y03458*
X00565Y03457*
X00575Y03458*
X00583Y03462*
X00591Y03468*
X00596Y03475*
X006Y03484*
X00601Y03493*
X006Y03502*
X00596Y03511*
X00591Y03518*
X00583Y03524*
X00575Y03527*
X00565Y03529*
G37*
G36*
X00495Y03458D02*
X00485Y03457D01*
X00477Y03453*
X00469Y03447*
X00464Y0344*
X0046Y03431*
X00459Y03422*
X0046Y03413*
X00464Y03404*
X00469Y03397*
X00477Y03391*
X00485Y03388*
X00495Y03386*
X00504Y03388*
X00513Y03391*
X0052Y03397*
X00526Y03404*
X00529Y03413*
X0053Y03422*
X00529Y03431*
X00526Y0344*
X0052Y03447*
X00513Y03453*
X00504Y03457*
X00495Y03458*
G37*
G36*
X01505D02*
X01496Y03457D01*
X01487Y03453*
X0148Y03447*
X01474Y0344*
X0147Y03431*
X01469Y03422*
X0147Y03413*
X01474Y03404*
X0148Y03397*
X01487Y03391*
X01496Y03388*
X01505Y03386*
X01514Y03388*
X01523Y03391*
X0153Y03397*
X01536Y03404*
X01539Y03413*
X01541Y03422*
X01539Y03431*
X01536Y0344*
X0153Y03447*
X01523Y03453*
X01514Y03457*
X01505Y03458*
G37*
G36*
X01137Y03362D02*
Y03331D01*
X01167*
X01166Y03336*
X01163Y03345*
X01157Y03352*
X0115Y03358*
X01141Y03361*
X01137Y03362*
G37*
G36*
X01127D02*
X01122Y03361D01*
X01114Y03358*
X01106Y03352*
X011Y03345*
X01097Y03336*
X01096Y03331*
X01127*
Y03362*
G37*
G36*
X01576Y03387D02*
X01566Y03386D01*
X01558Y03382*
X0155Y03377*
X01545Y03369*
X01541Y03361*
X0154Y03351*
X01541Y03342*
X01545Y03334*
X0155Y03326*
X01558Y03321*
X01566Y03317*
X01576Y03316*
X01585Y03317*
X01593Y03321*
X01601Y03326*
X01607Y03334*
X0161Y03342*
X01611Y03351*
X0161Y03361*
X01607Y03369*
X01601Y03377*
X01593Y03382*
X01585Y03386*
X01576Y03387*
G37*
G36*
X00424D02*
X00415Y03386D01*
X00406Y03382*
X00399Y03377*
X00393Y03369*
X00389Y03361*
X00388Y03351*
X00389Y03342*
X00393Y03334*
X00399Y03326*
X00406Y03321*
X00415Y03317*
X00424Y03316*
X00433Y03317*
X00442Y03321*
X00449Y03326*
X00455Y03334*
X00459Y03342*
X0046Y03351*
X00459Y03361*
X00455Y03369*
X00449Y03377*
X00442Y03382*
X00433Y03386*
X00424Y03387*
G37*
G36*
X00927Y03358D02*
X00864D01*
Y03295*
X00927*
Y03358*
G37*
G36*
X01053Y03358D02*
X01045Y03357D01*
X01037Y03354*
X0103Y03349*
X01025Y03342*
X01022Y03335*
X01021Y03326*
X01022Y03318*
X01025Y03311*
X0103Y03304*
X01037Y03299*
X01045Y03296*
X01053Y03295*
X01061Y03296*
X01069Y03299*
X01075Y03304*
X01081Y03311*
X01084Y03318*
X01085Y03326*
X01084Y03335*
X01081Y03342*
X01075Y03349*
X01069Y03354*
X01061Y03357*
X01053Y03358*
G37*
G36*
X00974D02*
X00966Y03357D01*
X00958Y03354*
X00952Y03349*
X00946Y03342*
X00943Y03335*
X00942Y03326*
X00943Y03318*
X00946Y03311*
X00952Y03304*
X00958Y03299*
X00966Y03296*
X00974Y03295*
X00982Y03296*
X0099Y03299*
X00997Y03304*
X01002Y03311*
X01005Y03318*
X01006Y03326*
X01005Y03335*
X01002Y03342*
X00997Y03349*
X0099Y03354*
X00982Y03357*
X00974Y03358*
G37*
G36*
X01167Y03321D02*
X01137D01*
Y03291*
X01141Y03292*
X0115Y03295*
X01157Y03301*
X01163Y03308*
X01166Y03317*
X01167Y03321*
G37*
G36*
X01127D02*
X01096D01*
X01097Y03317*
X011Y03308*
X01106Y03301*
X01114Y03295*
X01122Y03292*
X01127Y03291*
Y03321*
G37*
G36*
X01646Y03317D02*
X01637Y03315D01*
X01628Y03312*
X01621Y03306*
X01615Y03299*
X01612Y0329*
X01611Y03281*
X01612Y03272*
X01615Y03263*
X01621Y03255*
X01628Y0325*
X01637Y03246*
X01646Y03245*
X01656Y03246*
X01664Y0325*
X01672Y03255*
X01677Y03263*
X01681Y03272*
X01682Y03281*
X01681Y0329*
X01677Y03299*
X01672Y03306*
X01664Y03312*
X01656Y03315*
X01646Y03317*
G37*
G36*
X00353D02*
X00344Y03315D01*
X00335Y03312*
X00328Y03306*
X00322Y03299*
X00319Y0329*
X00318Y03281*
X00319Y03272*
X00322Y03263*
X00328Y03255*
X00335Y0325*
X00344Y03246*
X00353Y03245*
X00363Y03246*
X00371Y0325*
X00379Y03255*
X00384Y03263*
X00388Y03272*
X00389Y03281*
X00388Y0329*
X00384Y03299*
X00379Y03306*
X00371Y03312*
X00363Y03315*
X00353Y03317*
G37*
G36*
X0064Y03189D02*
Y03175D01*
X00654*
X00653Y03177*
X00649Y03184*
X00642Y03188*
X0064Y03189*
G37*
G36*
X0063D02*
X00627Y03188D01*
X0062Y03184*
X00616Y03177*
X00615Y03175*
X0063*
Y03189*
G37*
G36*
X01717Y0326D02*
X01667Y0321D01*
X01717Y0316*
X01767Y0321*
X01717Y0326*
G37*
G36*
X00283D02*
X00232Y0321D01*
X00283Y0316*
X00333Y0321*
X00283Y0326*
G37*
G36*
X00654Y03165D02*
X0064D01*
Y0315*
X00642Y03151*
X00649Y03155*
X00653Y03162*
X00654Y03165*
G37*
G36*
X0063D02*
X00615D01*
X00616Y03162*
X0062Y03155*
X00627Y03151*
X0063Y0315*
Y03165*
G37*
G36*
X0137Y03164D02*
Y0315D01*
X01384*
X01383Y03152*
X01379Y03159*
X01372Y03163*
X0137Y03164*
G37*
G36*
X0136D02*
X01357Y03163D01*
X0135Y03159*
X01346Y03152*
X01345Y0315*
X0136*
Y03164*
G37*
G36*
X0041Y03159D02*
Y03145D01*
X00424*
X00423Y03147*
X00419Y03154*
X00412Y03158*
X0041Y03159*
G37*
G36*
X004D02*
X00397Y03158D01*
X0039Y03154*
X00386Y03147*
X00385Y03145*
X004*
Y03159*
G37*
G36*
X01384Y0314D02*
X0137D01*
Y03125*
X01372Y03126*
X01379Y0313*
X01383Y03137*
X01384Y0314*
G37*
G36*
X0136D02*
X01345D01*
X01346Y03137*
X0135Y0313*
X01357Y03126*
X0136Y03125*
Y0314*
G37*
G36*
X00424Y03135D02*
X0041D01*
Y0312*
X00412Y03121*
X00419Y03125*
X00423Y03132*
X00424Y03135*
G37*
G36*
X004D02*
X00385D01*
X00386Y03132*
X0039Y03125*
X00397Y03121*
X004Y0312*
Y03135*
G37*
G36*
X001Y03084D02*
Y0307D01*
X00114*
X00113Y03072*
X00109Y03079*
X00102Y03083*
X001Y03084*
G37*
G36*
X0009D02*
X00087Y03083D01*
X0008Y03079*
X00076Y03072*
X00075Y0307*
X0009*
Y03084*
G37*
G36*
X00114Y0306D02*
X001D01*
Y03045*
X00102Y03046*
X00109Y0305*
X00113Y03057*
X00114Y0306*
G37*
G36*
X0009D02*
X00075D01*
X00076Y03057*
X0008Y0305*
X00087Y03046*
X0009Y03045*
Y0306*
G37*
G36*
X01715Y03022D02*
Y02991D01*
X01746*
X01745Y02996*
X01742Y03005*
X01736Y03012*
X01728Y03018*
X0172Y03021*
X01715Y03022*
G37*
G36*
X01705D02*
X01701Y03021D01*
X01692Y03018*
X01685Y03012*
X01679Y03005*
X01676Y02996*
X01675Y02991*
X01705*
Y03022*
G37*
G36*
X01141D02*
Y02991D01*
X01172*
X01171Y02996*
X01168Y03005*
X01162Y03012*
X01154Y03018*
X01146Y03021*
X01141Y03022*
G37*
G36*
X01131D02*
X01127Y03021D01*
X01118Y03018*
X01111Y03012*
X01105Y03005*
X01102Y02996*
X01101Y02991*
X01131*
Y03022*
G37*
G36*
X00567D02*
Y02991D01*
X00598*
X00597Y02996*
X00593Y03005*
X00588Y03012*
X0058Y03018*
X00572Y03021*
X00567Y03022*
G37*
G36*
X00557D02*
X00553Y03021D01*
X00544Y03018*
X00537Y03012*
X00531Y03005*
X00527Y02996*
X00527Y02991*
X00557*
Y03022*
G37*
G36*
X01506Y03018D02*
X01443D01*
Y02955*
X01506*
Y03018*
G37*
G36*
X00932D02*
X00868D01*
Y02955*
X00932*
Y03018*
G37*
G36*
X00358D02*
X00294D01*
Y02955*
X00358*
Y03018*
G37*
G36*
X01632Y03018D02*
X01623Y03017D01*
X01616Y03014*
X01609Y03009*
X01604Y03002*
X01601Y02995*
X016Y02986*
X01601Y02978*
X01604Y02971*
X01609Y02964*
X01616Y02959*
X01623Y02956*
X01632Y02955*
X0164Y02956*
X01648Y02959*
X01654Y02964*
X01659Y02971*
X01663Y02978*
X01664Y02986*
X01663Y02995*
X01659Y03002*
X01654Y03009*
X01648Y03014*
X0164Y03017*
X01632Y03018*
G37*
G36*
X01553D02*
X01545Y03017D01*
X01537Y03014*
X0153Y03009*
X01525Y03002*
X01522Y02995*
X01521Y02986*
X01522Y02978*
X01525Y02971*
X0153Y02964*
X01537Y02959*
X01545Y02956*
X01553Y02955*
X01561Y02956*
X01569Y02959*
X01576Y02964*
X01581Y02971*
X01584Y02978*
X01585Y02986*
X01584Y02995*
X01581Y03002*
X01576Y03009*
X01569Y03014*
X01561Y03017*
X01553Y03018*
G37*
G36*
X01058D02*
X01049Y03017D01*
X01042Y03014*
X01035Y03009*
X0103Y03002*
X01027Y02995*
X01026Y02986*
X01027Y02978*
X0103Y02971*
X01035Y02964*
X01042Y02959*
X01049Y02956*
X01058Y02955*
X01066Y02956*
X01074Y02959*
X0108Y02964*
X01085Y02971*
X01088Y02978*
X0109Y02986*
X01088Y02995*
X01085Y03002*
X0108Y03009*
X01074Y03014*
X01066Y03017*
X01058Y03018*
G37*
G36*
X00979D02*
X00971Y03017D01*
X00963Y03014*
X00956Y03009*
X00951Y03002*
X00948Y02995*
X00947Y02986*
X00948Y02978*
X00951Y02971*
X00956Y02964*
X00963Y02959*
X00971Y02956*
X00979Y02955*
X00987Y02956*
X00995Y02959*
X01001Y02964*
X01007Y02971*
X0101Y02978*
X01011Y02986*
X0101Y02995*
X01007Y03002*
X01001Y03009*
X00995Y03014*
X00987Y03017*
X00979Y03018*
G37*
G36*
X00484D02*
X00475Y03017D01*
X00468Y03014*
X00461Y03009*
X00456Y03002*
X00453Y02995*
X00452Y02986*
X00453Y02978*
X00456Y02971*
X00461Y02964*
X00468Y02959*
X00475Y02956*
X00484Y02955*
X00492Y02956*
X00499Y02959*
X00506Y02964*
X00511Y02971*
X00514Y02978*
X00515Y02986*
X00514Y02995*
X00511Y03002*
X00506Y03009*
X00499Y03014*
X00492Y03017*
X00484Y03018*
G37*
G36*
X00405D02*
X00397Y03017D01*
X00389Y03014*
X00382Y03009*
X00377Y03002*
X00374Y02995*
X00373Y02986*
X00374Y02978*
X00377Y02971*
X00382Y02964*
X00389Y02959*
X00397Y02956*
X00405Y02955*
X00413Y02956*
X00421Y02959*
X00427Y02964*
X00432Y02971*
X00436Y02978*
X00437Y02986*
X00436Y02995*
X00432Y03002*
X00427Y03009*
X00421Y03014*
X00413Y03017*
X00405Y03018*
G37*
G36*
X01746Y02981D02*
X01715D01*
Y02951*
X0172Y02952*
X01728Y02955*
X01736Y02961*
X01742Y02968*
X01745Y02977*
X01746Y02981*
G37*
G36*
X01705D02*
X01675D01*
X01676Y02977*
X01679Y02968*
X01685Y02961*
X01692Y02955*
X01701Y02952*
X01705Y02951*
Y02981*
G37*
G36*
X01172D02*
X01141D01*
Y02951*
X01146Y02952*
X01154Y02955*
X01162Y02961*
X01168Y02968*
X01171Y02977*
X01172Y02981*
G37*
G36*
X01131D02*
X01101D01*
X01102Y02977*
X01105Y02968*
X01111Y02961*
X01118Y02955*
X01127Y02952*
X01131Y02951*
Y02981*
G37*
G36*
X00598D02*
X00567D01*
Y02951*
X00572Y02952*
X0058Y02955*
X00588Y02961*
X00593Y02968*
X00597Y02977*
X00598Y02981*
G37*
G36*
X00557D02*
X00527D01*
X00527Y02977*
X00531Y02968*
X00537Y02961*
X00544Y02955*
X00553Y02952*
X00557Y02951*
Y02981*
G37*
G36*
X00109Y02966D02*
Y02931D01*
X00143*
X00142Y02937*
X00138Y02946*
X00132Y02955*
X00123Y02961*
X00114Y02965*
X00109Y02966*
G37*
G36*
X00099D02*
X00093Y02965D01*
X00084Y02961*
X00075Y02955*
X00069Y02946*
X00065Y02937*
X00064Y02931*
X00099*
Y02966*
G37*
G36*
Y02921D02*
X00064D01*
X00065Y02916*
X00069Y02907*
X00075Y02898*
X00084Y02892*
X00093Y02888*
X00099Y02887*
Y02921*
G37*
G36*
X00143D02*
X00109D01*
Y02887*
X00114Y02888*
X00123Y02892*
X00132Y02898*
X00138Y02907*
X00142Y02916*
X00143Y02921*
G37*
G36*
X0137Y02844D02*
Y0283D01*
X01384*
X01383Y02832*
X01379Y02839*
X01372Y02843*
X0137Y02844*
G37*
G36*
X0136D02*
X01357Y02843D01*
X0135Y02839*
X01346Y02832*
X01345Y0283*
X0136*
Y02844*
G37*
G36*
X0076Y02834D02*
Y0282D01*
X00774*
X00773Y02822*
X00769Y02829*
X00762Y02833*
X0076Y02834*
G37*
G36*
X0075D02*
X00747Y02833D01*
X0074Y02829*
X00736Y02822*
X00735Y0282*
X0075*
Y02834*
G37*
G36*
X01384Y0282D02*
X0137D01*
Y02805*
X01372Y02806*
X01379Y0281*
X01383Y02817*
X01384Y0282*
G37*
G36*
X0136D02*
X01345D01*
X01346Y02817*
X0135Y0281*
X01357Y02806*
X0136Y02805*
Y0282*
G37*
G36*
X00774Y0281D02*
X0076D01*
Y02795*
X00762Y02796*
X00769Y028*
X00773Y02807*
X00774Y0281*
G37*
G36*
X0075D02*
X00735D01*
X00736Y02807*
X0074Y028*
X00747Y02796*
X0075Y02795*
Y0281*
G37*
G36*
X00104Y02862D02*
X00094Y02861D01*
X00086Y02857*
X00078Y02852*
X00073Y02844*
X00069Y02836*
X00068Y02826*
X00069Y02817*
X00073Y02809*
X00078Y02801*
X00086Y02796*
X00094Y02792*
X00104Y02791*
X00113Y02792*
X00121Y02796*
X00129Y02801*
X00134Y02809*
X00138Y02817*
X00139Y02826*
X00138Y02836*
X00134Y02844*
X00129Y02852*
X00121Y02857*
X00113Y02861*
X00104Y02862*
G37*
G36*
X01715Y02739D02*
Y02709D01*
X01746*
X01745Y02713*
X01742Y02722*
X01736Y02729*
X01728Y02735*
X0172Y02739*
X01715Y02739*
G37*
G36*
X01705D02*
X01701Y02739D01*
X01692Y02735*
X01685Y02729*
X01679Y02722*
X01676Y02713*
X01675Y02709*
X01705*
Y02739*
G37*
G36*
X01141D02*
Y02709D01*
X01172*
X01171Y02713*
X01168Y02722*
X01162Y02729*
X01154Y02735*
X01146Y02739*
X01141Y02739*
G37*
G36*
X01131D02*
X01127Y02739D01*
X01118Y02735*
X01111Y02729*
X01105Y02722*
X01102Y02713*
X01101Y02709*
X01131*
Y02739*
G37*
G36*
X00567D02*
Y02709D01*
X00598*
X00597Y02713*
X00593Y02722*
X00588Y02729*
X0058Y02735*
X00572Y02739*
X00567Y02739*
G37*
G36*
X00557D02*
X00553Y02739D01*
X00544Y02735*
X00537Y02729*
X00531Y02722*
X00527Y02713*
X00527Y02709*
X00557*
Y02739*
G37*
G36*
X00104Y02762D02*
X00094Y02761D01*
X00086Y02757*
X00078Y02752*
X00073Y02744*
X00069Y02736*
X00068Y02726*
X00069Y02717*
X00073Y02709*
X00078Y02701*
X00086Y02696*
X00094Y02692*
X00104Y02691*
X00113Y02692*
X00121Y02696*
X00129Y02701*
X00134Y02709*
X00138Y02717*
X00139Y02726*
X00138Y02736*
X00134Y02744*
X00129Y02752*
X00121Y02757*
X00113Y02761*
X00104Y02762*
G37*
G36*
X01506Y02736D02*
X01443D01*
Y02672*
X01506*
Y02736*
G37*
G36*
X00932D02*
X00868D01*
Y02672*
X00932*
Y02736*
G37*
G36*
X00358D02*
X00294D01*
Y02672*
X00358*
Y02736*
G37*
G36*
X01632Y02736D02*
X01623Y02735D01*
X01616Y02732*
X01609Y02727*
X01604Y0272*
X01601Y02712*
X016Y02704*
X01601Y02696*
X01604Y02688*
X01609Y02681*
X01616Y02676*
X01623Y02673*
X01632Y02672*
X0164Y02673*
X01648Y02676*
X01654Y02681*
X01659Y02688*
X01663Y02696*
X01664Y02704*
X01663Y02712*
X01659Y0272*
X01654Y02727*
X01648Y02732*
X0164Y02735*
X01632Y02736*
G37*
G36*
X01553D02*
X01545Y02735D01*
X01537Y02732*
X0153Y02727*
X01525Y0272*
X01522Y02712*
X01521Y02704*
X01522Y02696*
X01525Y02688*
X0153Y02681*
X01537Y02676*
X01545Y02673*
X01553Y02672*
X01561Y02673*
X01569Y02676*
X01576Y02681*
X01581Y02688*
X01584Y02696*
X01585Y02704*
X01584Y02712*
X01581Y0272*
X01576Y02727*
X01569Y02732*
X01561Y02735*
X01553Y02736*
G37*
G36*
X01058D02*
X01049Y02735D01*
X01042Y02732*
X01035Y02727*
X0103Y0272*
X01027Y02712*
X01026Y02704*
X01027Y02696*
X0103Y02688*
X01035Y02681*
X01042Y02676*
X01049Y02673*
X01058Y02672*
X01066Y02673*
X01074Y02676*
X0108Y02681*
X01085Y02688*
X01088Y02696*
X0109Y02704*
X01088Y02712*
X01085Y0272*
X0108Y02727*
X01074Y02732*
X01066Y02735*
X01058Y02736*
G37*
G36*
X00979D02*
X00971Y02735D01*
X00963Y02732*
X00956Y02727*
X00951Y0272*
X00948Y02712*
X00947Y02704*
X00948Y02696*
X00951Y02688*
X00956Y02681*
X00963Y02676*
X00971Y02673*
X00979Y02672*
X00987Y02673*
X00995Y02676*
X01001Y02681*
X01007Y02688*
X0101Y02696*
X01011Y02704*
X0101Y02712*
X01007Y0272*
X01001Y02727*
X00995Y02732*
X00987Y02735*
X00979Y02736*
G37*
G36*
X00484D02*
X00475Y02735D01*
X00468Y02732*
X00461Y02727*
X00456Y0272*
X00453Y02712*
X00452Y02704*
X00453Y02696*
X00456Y02688*
X00461Y02681*
X00468Y02676*
X00475Y02673*
X00484Y02672*
X00492Y02673*
X00499Y02676*
X00506Y02681*
X00511Y02688*
X00514Y02696*
X00515Y02704*
X00514Y02712*
X00511Y0272*
X00506Y02727*
X00499Y02732*
X00492Y02735*
X00484Y02736*
G37*
G36*
X00405D02*
X00397Y02735D01*
X00389Y02732*
X00382Y02727*
X00377Y0272*
X00374Y02712*
X00373Y02704*
X00374Y02696*
X00377Y02688*
X00382Y02681*
X00389Y02676*
X00397Y02673*
X00405Y02672*
X00413Y02673*
X00421Y02676*
X00427Y02681*
X00432Y02688*
X00436Y02696*
X00437Y02704*
X00436Y02712*
X00432Y0272*
X00427Y02727*
X00421Y02732*
X00413Y02735*
X00405Y02736*
G37*
G36*
X01746Y02699D02*
X01715D01*
Y02669*
X0172Y02669*
X01728Y02673*
X01736Y02678*
X01742Y02686*
X01745Y02695*
X01746Y02699*
G37*
G36*
X01705D02*
X01675D01*
X01676Y02695*
X01679Y02686*
X01685Y02678*
X01692Y02673*
X01701Y02669*
X01705Y02669*
Y02699*
G37*
G36*
X01172D02*
X01141D01*
Y02669*
X01146Y02669*
X01154Y02673*
X01162Y02678*
X01168Y02686*
X01171Y02695*
X01172Y02699*
G37*
G36*
X01131D02*
X01101D01*
X01102Y02695*
X01105Y02686*
X01111Y02678*
X01118Y02673*
X01127Y02669*
X01131Y02669*
Y02699*
G37*
G36*
X00598D02*
X00567D01*
Y02669*
X00572Y02669*
X0058Y02673*
X00588Y02678*
X00593Y02686*
X00597Y02695*
X00598Y02699*
G37*
G36*
X00557D02*
X00527D01*
X00527Y02695*
X00531Y02686*
X00537Y02678*
X00544Y02673*
X00553Y02669*
X00557Y02669*
Y02699*
G37*
G36*
X01965Y02629D02*
Y02615D01*
X01979*
X01978Y02617*
X01974Y02624*
X01967Y02628*
X01965Y02629*
G37*
G36*
X01955D02*
X01952Y02628D01*
X01945Y02624*
X01941Y02617*
X0194Y02615*
X01955*
Y02629*
G37*
G36*
X00104Y02662D02*
X00094Y02661D01*
X00086Y02657*
X00078Y02652*
X00073Y02644*
X00069Y02636*
X00068Y02626*
X00069Y02617*
X00073Y02609*
X00078Y02601*
X00086Y02596*
X00094Y02592*
X00104Y02591*
X00113Y02592*
X00121Y02596*
X00129Y02601*
X00134Y02609*
X00138Y02617*
X00139Y02626*
X00138Y02636*
X00134Y02644*
X00129Y02652*
X00121Y02657*
X00113Y02661*
X00104Y02662*
G37*
G36*
X01979Y02605D02*
X01965D01*
Y0259*
X01967Y02591*
X01974Y02595*
X01978Y02602*
X01979Y02605*
G37*
G36*
X01955D02*
X0194D01*
X01941Y02602*
X01945Y02595*
X01952Y02591*
X01955Y0259*
Y02605*
G37*
G36*
X01035Y02554D02*
Y0254D01*
X01049*
X01048Y02542*
X01044Y02549*
X01037Y02553*
X01035Y02554*
G37*
G36*
X01025D02*
X01022Y02553D01*
X01015Y02549*
X01011Y02542*
X0101Y0254*
X01025*
Y02554*
G37*
G36*
X01049Y0253D02*
X01035D01*
Y02515*
X01037Y02516*
X01044Y0252*
X01048Y02527*
X01049Y0253*
G37*
G36*
X01025D02*
X0101D01*
X01011Y02527*
X01015Y0252*
X01022Y02516*
X01025Y02515*
Y0253*
G37*
G36*
X0022Y02541D02*
X00213Y02539D01*
X00208Y02536*
X00205Y02531*
X00203Y02525*
X00205Y02518*
X00208Y02513*
X00213Y0251*
X0022Y02508*
X00226Y0251*
X00231Y02513*
X00234Y02518*
X00236Y02525*
X00234Y02531*
X00231Y02536*
X00226Y02539*
X0022Y02541*
G37*
G36*
X00104Y02562D02*
X00094Y02561D01*
X00086Y02557*
X00078Y02552*
X00073Y02544*
X00069Y02536*
X00068Y02526*
X00069Y02517*
X00073Y02509*
X00078Y02501*
X00086Y02496*
X00094Y02492*
X00104Y02491*
X00113Y02492*
X00121Y02496*
X00129Y02501*
X00134Y02509*
X00138Y02517*
X00139Y02526*
X00138Y02536*
X00134Y02544*
X00129Y02552*
X00121Y02557*
X00113Y02561*
X00104Y02562*
G37*
G36*
X0026Y02496D02*
X00253Y02494D01*
X00248Y02491*
X00245Y02486*
X00243Y0248*
X00245Y02473*
X00248Y02468*
X00253Y02465*
X0026Y02463*
X00266Y02465*
X00271Y02468*
X00274Y02473*
X00276Y0248*
X00274Y02486*
X00271Y02491*
X00266Y02494*
X0026Y02496*
G37*
G36*
X01715Y02457D02*
Y02426D01*
X01746*
X01745Y02431*
X01742Y0244*
X01736Y02447*
X01728Y02453*
X0172Y02456*
X01715Y02457*
G37*
G36*
X01705D02*
X01701Y02456D01*
X01692Y02453*
X01685Y02447*
X01679Y0244*
X01676Y02431*
X01675Y02426*
X01705*
Y02457*
G37*
G36*
X01141D02*
Y02426D01*
X01172*
X01171Y02431*
X01168Y0244*
X01162Y02447*
X01154Y02453*
X01146Y02456*
X01141Y02457*
G37*
G36*
X01131D02*
X01127Y02456D01*
X01118Y02453*
X01111Y02447*
X01105Y0244*
X01102Y02431*
X01101Y02426*
X01131*
Y02457*
G37*
G36*
X00567D02*
Y02426D01*
X00598*
X00597Y02431*
X00593Y0244*
X00588Y02447*
X0058Y02453*
X00572Y02456*
X00567Y02457*
G37*
G36*
X00557D02*
X00553Y02456D01*
X00544Y02453*
X00537Y02447*
X00531Y0244*
X00527Y02431*
X00527Y02426*
X00557*
Y02457*
G37*
G36*
X00139Y02462D02*
X00068D01*
Y02391*
X00139*
Y02462*
G37*
G36*
X01506Y02453D02*
X01443D01*
Y0239*
X01506*
Y02453*
G37*
G36*
X00932D02*
X00868D01*
Y0239*
X00932*
Y02453*
G37*
G36*
X00358D02*
X00294D01*
Y0239*
X00358*
Y02453*
G37*
G36*
X01632Y02453D02*
X01623Y02452D01*
X01616Y02449*
X01609Y02444*
X01604Y02437*
X01601Y0243*
X016Y02421*
X01601Y02413*
X01604Y02406*
X01609Y02399*
X01616Y02394*
X01623Y02391*
X01632Y0239*
X0164Y02391*
X01648Y02394*
X01654Y02399*
X01659Y02406*
X01663Y02413*
X01664Y02421*
X01663Y0243*
X01659Y02437*
X01654Y02444*
X01648Y02449*
X0164Y02452*
X01632Y02453*
G37*
G36*
X01553D02*
X01545Y02452D01*
X01537Y02449*
X0153Y02444*
X01525Y02437*
X01522Y0243*
X01521Y02421*
X01522Y02413*
X01525Y02406*
X0153Y02399*
X01537Y02394*
X01545Y02391*
X01553Y0239*
X01561Y02391*
X01569Y02394*
X01576Y02399*
X01581Y02406*
X01584Y02413*
X01585Y02421*
X01584Y0243*
X01581Y02437*
X01576Y02444*
X01569Y02449*
X01561Y02452*
X01553Y02453*
G37*
G36*
X01058D02*
X01049Y02452D01*
X01042Y02449*
X01035Y02444*
X0103Y02437*
X01027Y0243*
X01026Y02421*
X01027Y02413*
X0103Y02406*
X01035Y02399*
X01042Y02394*
X01049Y02391*
X01058Y0239*
X01066Y02391*
X01074Y02394*
X0108Y02399*
X01085Y02406*
X01088Y02413*
X0109Y02421*
X01088Y0243*
X01085Y02437*
X0108Y02444*
X01074Y02449*
X01066Y02452*
X01058Y02453*
G37*
G36*
X00979D02*
X00971Y02452D01*
X00963Y02449*
X00956Y02444*
X00951Y02437*
X00948Y0243*
X00947Y02421*
X00948Y02413*
X00951Y02406*
X00956Y02399*
X00963Y02394*
X00971Y02391*
X00979Y0239*
X00987Y02391*
X00995Y02394*
X01001Y02399*
X01007Y02406*
X0101Y02413*
X01011Y02421*
X0101Y0243*
X01007Y02437*
X01001Y02444*
X00995Y02449*
X00987Y02452*
X00979Y02453*
G37*
G36*
X00484D02*
X00475Y02452D01*
X00468Y02449*
X00461Y02444*
X00456Y02437*
X00453Y0243*
X00452Y02421*
X00453Y02413*
X00456Y02406*
X00461Y02399*
X00468Y02394*
X00475Y02391*
X00484Y0239*
X00492Y02391*
X00499Y02394*
X00506Y02399*
X00511Y02406*
X00514Y02413*
X00515Y02421*
X00514Y0243*
X00511Y02437*
X00506Y02444*
X00499Y02449*
X00492Y02452*
X00484Y02453*
G37*
G36*
X00405D02*
X00397Y02452D01*
X00389Y02449*
X00382Y02444*
X00377Y02437*
X00374Y0243*
X00373Y02421*
X00374Y02413*
X00377Y02406*
X00382Y02399*
X00389Y02394*
X00397Y02391*
X00405Y0239*
X00413Y02391*
X00421Y02394*
X00427Y02399*
X00432Y02406*
X00436Y02413*
X00437Y02421*
X00436Y0243*
X00432Y02437*
X00427Y02444*
X00421Y02449*
X00413Y02452*
X00405Y02453*
G37*
G36*
X01746Y02416D02*
X01715D01*
Y02386*
X0172Y02387*
X01728Y0239*
X01736Y02396*
X01742Y02403*
X01745Y02412*
X01746Y02416*
G37*
G36*
X01705D02*
X01675D01*
X01676Y02412*
X01679Y02403*
X01685Y02396*
X01692Y0239*
X01701Y02387*
X01705Y02386*
Y02416*
G37*
G36*
X01172D02*
X01141D01*
Y02386*
X01146Y02387*
X01154Y0239*
X01162Y02396*
X01168Y02403*
X01171Y02412*
X01172Y02416*
G37*
G36*
X01131D02*
X01101D01*
X01102Y02412*
X01105Y02403*
X01111Y02396*
X01118Y0239*
X01127Y02387*
X01131Y02386*
Y02416*
G37*
G36*
X00598D02*
X00567D01*
Y02386*
X00572Y02387*
X0058Y0239*
X00588Y02396*
X00593Y02403*
X00597Y02412*
X00598Y02416*
G37*
G36*
X00557D02*
X00527D01*
X00527Y02412*
X00531Y02403*
X00537Y02396*
X00544Y0239*
X00553Y02387*
X00557Y02386*
Y02416*
G37*
G36*
X0011Y02319D02*
Y02305D01*
X00124*
X00123Y02307*
X00119Y02314*
X00112Y02318*
X0011Y02319*
G37*
G36*
X001D02*
X00097Y02318D01*
X0009Y02314*
X00086Y02307*
X00085Y02305*
X001*
Y02319*
G37*
G36*
X00124Y02295D02*
X0011D01*
Y0228*
X00112Y02281*
X00119Y02285*
X00123Y02292*
X00124Y02295*
G37*
G36*
X001D02*
X00085D01*
X00086Y02292*
X0009Y02285*
X00097Y02281*
X001Y0228*
Y02295*
G37*
G36*
X01315Y02229D02*
Y02215D01*
X01329*
X01328Y02217*
X01324Y02224*
X01317Y02228*
X01315Y02229*
G37*
G36*
X01305D02*
X01302Y02228D01*
X01295Y02224*
X01291Y02217*
X0129Y02215*
X01305*
Y02229*
G37*
G36*
X01605Y02224D02*
Y0221D01*
X01619*
X01618Y02212*
X01614Y02219*
X01607Y02223*
X01605Y02224*
G37*
G36*
X01595D02*
X01592Y02223D01*
X01585Y02219*
X01581Y02212*
X0158Y0221*
X01595*
Y02224*
G37*
G36*
X01329Y02205D02*
X01315D01*
Y0219*
X01317Y02191*
X01324Y02195*
X01328Y02202*
X01329Y02205*
G37*
G36*
X01305D02*
X0129D01*
X01291Y02202*
X01295Y02195*
X01302Y02191*
X01305Y0219*
Y02205*
G37*
G36*
X01619Y022D02*
X01605D01*
Y02185*
X01607Y02186*
X01614Y0219*
X01618Y02197*
X01619Y022*
G37*
G36*
X01595D02*
X0158D01*
X01581Y02197*
X01585Y0219*
X01592Y02186*
X01595Y02185*
Y022*
G37*
G36*
X01344Y0213D02*
Y02066D01*
X0138*
Y02091*
X01378Y02101*
X01374Y02111*
X01368Y02119*
X01359Y02125*
X0135Y02129*
X01344Y0213*
G37*
G36*
X01334D02*
X01329Y02129D01*
X01319Y02125*
X01311Y02119*
X01304Y02111*
X013Y02101*
X01299Y02091*
Y02066*
X01334*
Y0213*
G37*
G36*
X01739Y021D02*
X01729Y02099D01*
X0172Y02095*
X01712Y02089*
X01706Y02081*
X01702Y02071*
X017Y02061*
X01702Y02051*
X01706Y02042*
X01712Y02034*
X0172Y02028*
X01729Y02024*
X01739Y02023*
X01749Y02024*
X01759Y02028*
X01767Y02034*
X01773Y02042*
X01777Y02051*
X01778Y02061*
X01777Y02071*
X01773Y02081*
X01767Y02089*
X01759Y02095*
X01749Y02099*
X01739Y021*
G37*
G36*
X00139D02*
X00129Y02099D01*
X0012Y02095*
X00112Y02089*
X00106Y02081*
X00102Y02071*
X001Y02061*
X00102Y02051*
X00106Y02042*
X00112Y02034*
X0012Y02028*
X00129Y02024*
X00139Y02023*
X00149Y02024*
X00159Y02028*
X00167Y02034*
X00173Y02042*
X00177Y02051*
X00178Y02061*
X00177Y02071*
X00173Y02081*
X00167Y02089*
X00159Y02095*
X00149Y02099*
X00139Y021*
G37*
G36*
X01639Y02127D02*
X0163Y02126D01*
X01621Y02122*
X01614Y02116*
X01608Y02109*
X01604Y021*
X01603Y02091*
Y02032*
X01604Y02023*
X01608Y02014*
X01614Y02007*
X01621Y02001*
X0163Y01997*
X01639Y01996*
X01649Y01997*
X01657Y02001*
X01665Y02007*
X01671Y02014*
X01674Y02023*
X01675Y02032*
Y02091*
X01674Y021*
X01671Y02109*
X01665Y02116*
X01657Y02122*
X01649Y02126*
X01639Y02127*
G37*
G36*
X01539D02*
X0153Y02126D01*
X01521Y02122*
X01514Y02116*
X01508Y02109*
X01504Y021*
X01503Y02091*
Y02032*
X01504Y02023*
X01508Y02014*
X01514Y02007*
X01521Y02001*
X0153Y01997*
X01539Y01996*
X01549Y01997*
X01557Y02001*
X01565Y02007*
X01571Y02014*
X01574Y02023*
X01575Y02032*
Y02091*
X01574Y021*
X01571Y02109*
X01565Y02116*
X01557Y02122*
X01549Y02126*
X01539Y02127*
G37*
G36*
X01439D02*
X0143Y02126D01*
X01421Y02122*
X01414Y02116*
X01408Y02109*
X01404Y021*
X01403Y02091*
Y02032*
X01404Y02023*
X01408Y02014*
X01414Y02007*
X01421Y02001*
X0143Y01997*
X01439Y01996*
X01449Y01997*
X01457Y02001*
X01465Y02007*
X01471Y02014*
X01474Y02023*
X01475Y02032*
Y02091*
X01474Y021*
X01471Y02109*
X01465Y02116*
X01457Y02122*
X01449Y02126*
X01439Y02127*
G37*
G36*
X01239D02*
X0123Y02126D01*
X01221Y02122*
X01214Y02116*
X01208Y02109*
X01204Y021*
X01203Y02091*
Y02032*
X01204Y02023*
X01208Y02014*
X01214Y02007*
X01221Y02001*
X0123Y01997*
X01239Y01996*
X01249Y01997*
X01257Y02001*
X01265Y02007*
X01271Y02014*
X01274Y02023*
X01275Y02032*
Y02091*
X01274Y021*
X01271Y02109*
X01265Y02116*
X01257Y02122*
X01249Y02126*
X01239Y02127*
G37*
G36*
X01139D02*
X0113Y02126D01*
X01121Y02122*
X01114Y02116*
X01108Y02109*
X01104Y021*
X01103Y02091*
Y02032*
X01104Y02023*
X01108Y02014*
X01114Y02007*
X01121Y02001*
X0113Y01997*
X01139Y01996*
X01149Y01997*
X01157Y02001*
X01165Y02007*
X01171Y02014*
X01174Y02023*
X01175Y02032*
Y02091*
X01174Y021*
X01171Y02109*
X01165Y02116*
X01157Y02122*
X01149Y02126*
X01139Y02127*
G37*
G36*
X01039D02*
X0103Y02126D01*
X01021Y02122*
X01014Y02116*
X01008Y02109*
X01004Y021*
X01003Y02091*
Y02032*
X01004Y02023*
X01008Y02014*
X01014Y02007*
X01021Y02001*
X0103Y01997*
X01039Y01996*
X01049Y01997*
X01057Y02001*
X01065Y02007*
X01071Y02014*
X01074Y02023*
X01075Y02032*
Y02091*
X01074Y021*
X01071Y02109*
X01065Y02116*
X01057Y02122*
X01049Y02126*
X01039Y02127*
G37*
G36*
X00939D02*
X0093Y02126D01*
X00921Y02122*
X00914Y02116*
X00908Y02109*
X00904Y021*
X00903Y02091*
Y02032*
X00904Y02023*
X00908Y02014*
X00914Y02007*
X00921Y02001*
X0093Y01997*
X00939Y01996*
X00949Y01997*
X00957Y02001*
X00965Y02007*
X00971Y02014*
X00974Y02023*
X00975Y02032*
Y02091*
X00974Y021*
X00971Y02109*
X00965Y02116*
X00957Y02122*
X00949Y02126*
X00939Y02127*
G37*
G36*
X00839D02*
X0083Y02126D01*
X00821Y02122*
X00814Y02116*
X00808Y02109*
X00804Y021*
X00803Y02091*
Y02032*
X00804Y02023*
X00808Y02014*
X00814Y02007*
X00821Y02001*
X0083Y01997*
X00839Y01996*
X00849Y01997*
X00857Y02001*
X00865Y02007*
X00871Y02014*
X00874Y02023*
X00875Y02032*
Y02091*
X00874Y021*
X00871Y02109*
X00865Y02116*
X00857Y02122*
X00849Y02126*
X00839Y02127*
G37*
G36*
X00739D02*
X0073Y02126D01*
X00721Y02122*
X00714Y02116*
X00708Y02109*
X00704Y021*
X00703Y02091*
Y02032*
X00704Y02023*
X00708Y02014*
X00714Y02007*
X00721Y02001*
X0073Y01997*
X00739Y01996*
X00749Y01997*
X00757Y02001*
X00765Y02007*
X00771Y02014*
X00774Y02023*
X00775Y02032*
Y02091*
X00774Y021*
X00771Y02109*
X00765Y02116*
X00757Y02122*
X00749Y02126*
X00739Y02127*
G37*
G36*
X00639D02*
X0063Y02126D01*
X00621Y02122*
X00614Y02116*
X00608Y02109*
X00604Y021*
X00603Y02091*
Y02032*
X00604Y02023*
X00608Y02014*
X00614Y02007*
X00621Y02001*
X0063Y01997*
X00639Y01996*
X00649Y01997*
X00657Y02001*
X00665Y02007*
X00671Y02014*
X00674Y02023*
X00675Y02032*
Y02091*
X00674Y021*
X00671Y02109*
X00665Y02116*
X00657Y02122*
X00649Y02126*
X00639Y02127*
G37*
G36*
X00539D02*
X0053Y02126D01*
X00521Y02122*
X00514Y02116*
X00508Y02109*
X00504Y021*
X00503Y02091*
Y02032*
X00504Y02023*
X00508Y02014*
X00514Y02007*
X00521Y02001*
X0053Y01997*
X00539Y01996*
X00549Y01997*
X00557Y02001*
X00565Y02007*
X00571Y02014*
X00574Y02023*
X00575Y02032*
Y02091*
X00574Y021*
X00571Y02109*
X00565Y02116*
X00557Y02122*
X00549Y02126*
X00539Y02127*
G37*
G36*
X00439D02*
X0043Y02126D01*
X00421Y02122*
X00414Y02116*
X00408Y02109*
X00404Y021*
X00403Y02091*
Y02032*
X00404Y02023*
X00408Y02014*
X00414Y02007*
X00421Y02001*
X0043Y01997*
X00439Y01996*
X00449Y01997*
X00457Y02001*
X00465Y02007*
X00471Y02014*
X00474Y02023*
X00475Y02032*
Y02091*
X00474Y021*
X00471Y02109*
X00465Y02116*
X00457Y02122*
X00449Y02126*
X00439Y02127*
G37*
G36*
X00339D02*
X0033Y02126D01*
X00321Y02122*
X00314Y02116*
X00308Y02109*
X00304Y021*
X00303Y02091*
Y02032*
X00304Y02023*
X00308Y02014*
X00314Y02007*
X00321Y02001*
X0033Y01997*
X00339Y01996*
X00349Y01997*
X00357Y02001*
X00365Y02007*
X00371Y02014*
X00374Y02023*
X00375Y02032*
Y02091*
X00374Y021*
X00371Y02109*
X00365Y02116*
X00357Y02122*
X00349Y02126*
X00339Y02127*
G37*
G36*
X00239D02*
X0023Y02126D01*
X00221Y02122*
X00214Y02116*
X00208Y02109*
X00204Y021*
X00203Y02091*
Y02032*
X00204Y02023*
X00208Y02014*
X00214Y02007*
X00221Y02001*
X0023Y01997*
X00239Y01996*
X00249Y01997*
X00257Y02001*
X00265Y02007*
X00271Y02014*
X00274Y02023*
X00275Y02032*
Y02091*
X00274Y021*
X00271Y02109*
X00265Y02116*
X00257Y02122*
X00249Y02126*
X00239Y02127*
G37*
G36*
X0138Y02056D02*
X01344D01*
Y01993*
X0135Y01993*
X01359Y01997*
X01368Y02004*
X01374Y02012*
X01378Y02022*
X0138Y02032*
Y02056*
G37*
G36*
X01334D02*
X01299D01*
Y02032*
X013Y02022*
X01304Y02012*
X01311Y02004*
X01319Y01997*
X01329Y01993*
X01334Y01993*
Y02056*
G37*
G36*
X01075Y01944D02*
Y0193D01*
X01089*
X01088Y01932*
X01084Y01939*
X01077Y01943*
X01075Y01944*
G37*
G36*
X01065D02*
X01062Y01943D01*
X01055Y01939*
X01051Y01932*
X0105Y0193*
X01065*
Y01944*
G37*
G36*
X01089Y0192D02*
X01075D01*
Y01905*
X01077Y01906*
X01084Y0191*
X01088Y01917*
X01089Y0192*
G37*
G36*
X01065D02*
X0105D01*
X01051Y01917*
X01055Y0191*
X01062Y01906*
X01065Y01905*
Y0192*
G37*
G36*
X0163Y01899D02*
Y01885D01*
X01644*
X01643Y01887*
X01639Y01894*
X01632Y01898*
X0163Y01899*
G37*
G36*
X0162D02*
X01617Y01898D01*
X0161Y01894*
X01606Y01887*
X01605Y01885*
X0162*
Y01899*
G37*
G36*
X01644Y01875D02*
X0163D01*
Y0186*
X01632Y01861*
X01639Y01865*
X01643Y01872*
X01644Y01875*
G37*
G36*
X0162D02*
X01605D01*
X01606Y01872*
X0161Y01865*
X01617Y01861*
X0162Y0186*
Y01875*
G37*
G36*
X0014Y01814D02*
Y018D01*
X00154*
X00153Y01802*
X00149Y01809*
X00142Y01813*
X0014Y01814*
G37*
G36*
X0013D02*
X00127Y01813D01*
X0012Y01809*
X00116Y01802*
X00115Y018*
X0013*
Y01814*
G37*
G36*
X00555Y01809D02*
Y01795D01*
X00569*
X00568Y01797*
X00564Y01804*
X00557Y01808*
X00555Y01809*
G37*
G36*
X00545D02*
X00542Y01808D01*
X00535Y01804*
X00531Y01797*
X0053Y01795*
X00545*
Y01809*
G37*
G36*
X00325Y01794D02*
Y0178D01*
X00339*
X00338Y01782*
X00334Y01789*
X00327Y01793*
X00325Y01794*
G37*
G36*
X00315D02*
X00312Y01793D01*
X00305Y01789*
X00301Y01782*
X003Y0178*
X00315*
Y01794*
G37*
G36*
X01805Y0185D02*
X01734D01*
Y01779*
X01805*
Y0185*
G37*
G36*
X00154Y0179D02*
X0014D01*
Y01775*
X00142Y01776*
X00149Y0178*
X00153Y01787*
X00154Y0179*
G37*
G36*
X0013D02*
X00115D01*
X00116Y01787*
X0012Y0178*
X00127Y01776*
X0013Y01775*
Y0179*
G37*
G36*
X01035Y01789D02*
Y01775D01*
X01049*
X01048Y01777*
X01044Y01784*
X01037Y01788*
X01035Y01789*
G37*
G36*
X01025D02*
X01022Y01788D01*
X01015Y01784*
X01011Y01777*
X0101Y01775*
X01025*
Y01789*
G37*
G36*
X00569Y01785D02*
X00555D01*
Y0177*
X00557Y01771*
X00564Y01775*
X00568Y01782*
X00569Y01785*
G37*
G36*
X00545D02*
X0053D01*
X00531Y01782*
X00535Y01775*
X00542Y01771*
X00545Y0177*
Y01785*
G37*
G36*
X00339Y0177D02*
X00325D01*
Y01755*
X00327Y01756*
X00334Y0176*
X00338Y01767*
X00339Y0177*
G37*
G36*
X00315D02*
X003D01*
X00301Y01767*
X00305Y0176*
X00312Y01756*
X00315Y01755*
Y0177*
G37*
G36*
X01049Y01765D02*
X01035D01*
Y0175*
X01037Y01751*
X01044Y01755*
X01048Y01762*
X01049Y01765*
G37*
G36*
X01025D02*
X0101D01*
X01011Y01762*
X01015Y01755*
X01022Y01751*
X01025Y0175*
Y01765*
G37*
G36*
X01545Y01739D02*
Y01725D01*
X01559*
X01558Y01727*
X01554Y01734*
X01547Y01738*
X01545Y01739*
G37*
G36*
X01535D02*
X01532Y01738D01*
X01525Y01734*
X01521Y01727*
X0152Y01725*
X01535*
Y01739*
G37*
G36*
X01559Y01715D02*
X01545D01*
Y017*
X01547Y01701*
X01554Y01705*
X01558Y01712*
X01559Y01715*
G37*
G36*
X01535D02*
X0152D01*
X01521Y01712*
X01525Y01705*
X01532Y01701*
X01535Y017*
Y01715*
G37*
G36*
X0177Y0175D02*
X0176Y01749D01*
X01752Y01745*
X01744Y0174*
X01739Y01732*
X01735Y01724*
X01734Y01715*
X01735Y01705*
X01739Y01697*
X01744Y01689*
X01752Y01684*
X0176Y0168*
X0177Y01679*
X01779Y0168*
X01787Y01684*
X01795Y01689*
X018Y01697*
X01804Y01705*
X01805Y01715*
X01804Y01724*
X018Y01732*
X01795Y0174*
X01787Y01745*
X01779Y01749*
X0177Y0175*
G37*
G36*
X0168Y01691D02*
X01673Y01689D01*
X01668Y01686*
X01665Y01681*
X01663Y01675*
X01665Y01668*
X01668Y01663*
X01673Y0166*
X0168Y01658*
X01686Y0166*
X01691Y01663*
X01694Y01668*
X01696Y01675*
X01694Y01681*
X01691Y01686*
X01686Y01689*
X0168Y01691*
G37*
G36*
X01415Y01681D02*
X01408Y01679D01*
X01403Y01676*
X014Y01671*
X01398Y01665*
X014Y01658*
X01403Y01653*
X01408Y0165*
X01415Y01648*
X01421Y0165*
X01426Y01653*
X01429Y01658*
X01431Y01665*
X01429Y01671*
X01426Y01676*
X01421Y01679*
X01415Y01681*
G37*
G36*
X00945Y01586D02*
X00939Y01585D01*
X00934Y01581*
X0093Y01576*
X00929Y0157*
X0093Y01564*
X00934Y01559*
X00939Y01555*
X00945Y01554*
X00951Y01555*
X00956Y01559*
X0096Y01564*
X00961Y0157*
X0096Y01576*
X00956Y01581*
X00951Y01585*
X00945Y01586*
G37*
G36*
X01544Y0153D02*
Y01466D01*
X0158*
Y01491*
X01578Y01501*
X01574Y01511*
X01568Y01519*
X01559Y01525*
X0155Y01529*
X01544Y0153*
G37*
G36*
X01534D02*
X01529Y01529D01*
X01519Y01525*
X01511Y01519*
X01504Y01511*
X015Y01501*
X01499Y01491*
Y01466*
X01534*
Y0153*
G37*
G36*
X01739Y015D02*
X01729Y01499D01*
X0172Y01495*
X01712Y01489*
X01706Y01481*
X01702Y01471*
X017Y01461*
X01702Y01451*
X01706Y01442*
X01712Y01434*
X0172Y01428*
X01729Y01424*
X01739Y01423*
X01749Y01424*
X01759Y01428*
X01767Y01434*
X01773Y01442*
X01777Y01451*
X01778Y01461*
X01777Y01471*
X01773Y01481*
X01767Y01489*
X01759Y01495*
X01749Y01499*
X01739Y015*
G37*
G36*
X00139D02*
X00129Y01499D01*
X0012Y01495*
X00112Y01489*
X00106Y01481*
X00102Y01471*
X001Y01461*
X00102Y01451*
X00106Y01442*
X00112Y01434*
X0012Y01428*
X00129Y01424*
X00139Y01423*
X00149Y01424*
X00159Y01428*
X00167Y01434*
X00173Y01442*
X00177Y01451*
X00178Y01461*
X00177Y01471*
X00173Y01481*
X00167Y01489*
X00159Y01495*
X00149Y01499*
X00139Y015*
G37*
G36*
X01639Y01527D02*
X0163Y01526D01*
X01621Y01522*
X01614Y01516*
X01608Y01509*
X01604Y015*
X01603Y01491*
Y01432*
X01604Y01423*
X01608Y01414*
X01614Y01407*
X01621Y01401*
X0163Y01397*
X01639Y01396*
X01649Y01397*
X01657Y01401*
X01665Y01407*
X01671Y01414*
X01674Y01423*
X01675Y01432*
Y01491*
X01674Y015*
X01671Y01509*
X01665Y01516*
X01657Y01522*
X01649Y01526*
X01639Y01527*
G37*
G36*
X01439D02*
X0143Y01526D01*
X01421Y01522*
X01414Y01516*
X01408Y01509*
X01404Y015*
X01403Y01491*
Y01432*
X01404Y01423*
X01408Y01414*
X01414Y01407*
X01421Y01401*
X0143Y01397*
X01439Y01396*
X01449Y01397*
X01457Y01401*
X01465Y01407*
X01471Y01414*
X01474Y01423*
X01475Y01432*
Y01491*
X01474Y015*
X01471Y01509*
X01465Y01516*
X01457Y01522*
X01449Y01526*
X01439Y01527*
G37*
G36*
X01339D02*
X0133Y01526D01*
X01321Y01522*
X01314Y01516*
X01308Y01509*
X01304Y015*
X01303Y01491*
Y01432*
X01304Y01423*
X01308Y01414*
X01314Y01407*
X01321Y01401*
X0133Y01397*
X01339Y01396*
X01349Y01397*
X01357Y01401*
X01365Y01407*
X01371Y01414*
X01374Y01423*
X01375Y01432*
Y01491*
X01374Y015*
X01371Y01509*
X01365Y01516*
X01357Y01522*
X01349Y01526*
X01339Y01527*
G37*
G36*
X01239D02*
X0123Y01526D01*
X01221Y01522*
X01214Y01516*
X01208Y01509*
X01204Y015*
X01203Y01491*
Y01432*
X01204Y01423*
X01208Y01414*
X01214Y01407*
X01221Y01401*
X0123Y01397*
X01239Y01396*
X01249Y01397*
X01257Y01401*
X01265Y01407*
X01271Y01414*
X01274Y01423*
X01275Y01432*
Y01491*
X01274Y015*
X01271Y01509*
X01265Y01516*
X01257Y01522*
X01249Y01526*
X01239Y01527*
G37*
G36*
X01139D02*
X0113Y01526D01*
X01121Y01522*
X01114Y01516*
X01108Y01509*
X01104Y015*
X01103Y01491*
Y01432*
X01104Y01423*
X01108Y01414*
X01114Y01407*
X01121Y01401*
X0113Y01397*
X01139Y01396*
X01149Y01397*
X01157Y01401*
X01165Y01407*
X01171Y01414*
X01174Y01423*
X01175Y01432*
Y01491*
X01174Y015*
X01171Y01509*
X01165Y01516*
X01157Y01522*
X01149Y01526*
X01139Y01527*
G37*
G36*
X01039D02*
X0103Y01526D01*
X01021Y01522*
X01014Y01516*
X01008Y01509*
X01004Y015*
X01003Y01491*
Y01432*
X01004Y01423*
X01008Y01414*
X01014Y01407*
X01021Y01401*
X0103Y01397*
X01039Y01396*
X01049Y01397*
X01057Y01401*
X01065Y01407*
X01071Y01414*
X01074Y01423*
X01075Y01432*
Y01491*
X01074Y015*
X01071Y01509*
X01065Y01516*
X01057Y01522*
X01049Y01526*
X01039Y01527*
G37*
G36*
X00939D02*
X0093Y01526D01*
X00921Y01522*
X00914Y01516*
X00908Y01509*
X00904Y015*
X00903Y01491*
Y01432*
X00904Y01423*
X00908Y01414*
X00914Y01407*
X00921Y01401*
X0093Y01397*
X00939Y01396*
X00949Y01397*
X00957Y01401*
X00965Y01407*
X00971Y01414*
X00974Y01423*
X00975Y01432*
Y01491*
X00974Y015*
X00971Y01509*
X00965Y01516*
X00957Y01522*
X00949Y01526*
X00939Y01527*
G37*
G36*
X00839D02*
X0083Y01526D01*
X00821Y01522*
X00814Y01516*
X00808Y01509*
X00804Y015*
X00803Y01491*
Y01432*
X00804Y01423*
X00808Y01414*
X00814Y01407*
X00821Y01401*
X0083Y01397*
X00839Y01396*
X00849Y01397*
X00857Y01401*
X00865Y01407*
X00871Y01414*
X00874Y01423*
X00875Y01432*
Y01491*
X00874Y015*
X00871Y01509*
X00865Y01516*
X00857Y01522*
X00849Y01526*
X00839Y01527*
G37*
G36*
X00739D02*
X0073Y01526D01*
X00721Y01522*
X00714Y01516*
X00708Y01509*
X00704Y015*
X00703Y01491*
Y01432*
X00704Y01423*
X00708Y01414*
X00714Y01407*
X00721Y01401*
X0073Y01397*
X00739Y01396*
X00749Y01397*
X00757Y01401*
X00765Y01407*
X00771Y01414*
X00774Y01423*
X00775Y01432*
Y01491*
X00774Y015*
X00771Y01509*
X00765Y01516*
X00757Y01522*
X00749Y01526*
X00739Y01527*
G37*
G36*
X00639D02*
X0063Y01526D01*
X00621Y01522*
X00614Y01516*
X00608Y01509*
X00604Y015*
X00603Y01491*
Y01432*
X00604Y01423*
X00608Y01414*
X00614Y01407*
X00621Y01401*
X0063Y01397*
X00639Y01396*
X00649Y01397*
X00657Y01401*
X00665Y01407*
X00671Y01414*
X00674Y01423*
X00675Y01432*
Y01491*
X00674Y015*
X00671Y01509*
X00665Y01516*
X00657Y01522*
X00649Y01526*
X00639Y01527*
G37*
G36*
X00539D02*
X0053Y01526D01*
X00521Y01522*
X00514Y01516*
X00508Y01509*
X00504Y015*
X00503Y01491*
Y01432*
X00504Y01423*
X00508Y01414*
X00514Y01407*
X00521Y01401*
X0053Y01397*
X00539Y01396*
X00549Y01397*
X00557Y01401*
X00565Y01407*
X00571Y01414*
X00574Y01423*
X00575Y01432*
Y01491*
X00574Y015*
X00571Y01509*
X00565Y01516*
X00557Y01522*
X00549Y01526*
X00539Y01527*
G37*
G36*
X00439D02*
X0043Y01526D01*
X00421Y01522*
X00414Y01516*
X00408Y01509*
X00404Y015*
X00403Y01491*
Y01432*
X00404Y01423*
X00408Y01414*
X00414Y01407*
X00421Y01401*
X0043Y01397*
X00439Y01396*
X00449Y01397*
X00457Y01401*
X00465Y01407*
X00471Y01414*
X00474Y01423*
X00475Y01432*
Y01491*
X00474Y015*
X00471Y01509*
X00465Y01516*
X00457Y01522*
X00449Y01526*
X00439Y01527*
G37*
G36*
X00339D02*
X0033Y01526D01*
X00321Y01522*
X00314Y01516*
X00308Y01509*
X00304Y015*
X00303Y01491*
Y01432*
X00304Y01423*
X00308Y01414*
X00314Y01407*
X00321Y01401*
X0033Y01397*
X00339Y01396*
X00349Y01397*
X00357Y01401*
X00365Y01407*
X00371Y01414*
X00374Y01423*
X00375Y01432*
Y01491*
X00374Y015*
X00371Y01509*
X00365Y01516*
X00357Y01522*
X00349Y01526*
X00339Y01527*
G37*
G36*
X00239D02*
X0023Y01526D01*
X00221Y01522*
X00214Y01516*
X00208Y01509*
X00204Y015*
X00203Y01491*
Y01432*
X00204Y01423*
X00208Y01414*
X00214Y01407*
X00221Y01401*
X0023Y01397*
X00239Y01396*
X00249Y01397*
X00257Y01401*
X00265Y01407*
X00271Y01414*
X00274Y01423*
X00275Y01432*
Y01491*
X00274Y015*
X00271Y01509*
X00265Y01516*
X00257Y01522*
X00249Y01526*
X00239Y01527*
G37*
G36*
X0158Y01456D02*
X01544D01*
Y01393*
X0155Y01393*
X01559Y01397*
X01568Y01404*
X01574Y01412*
X01578Y01422*
X0158Y01432*
Y01456*
G37*
G36*
X01534D02*
X01499D01*
Y01432*
X015Y01422*
X01504Y01412*
X01511Y01404*
X01519Y01397*
X01529Y01393*
X01534Y01393*
Y01456*
G37*
G36*
X00715Y01308D02*
Y0128D01*
X00743*
X00742Y01283*
X00739Y01291*
X00733Y01298*
X00726Y01304*
X00718Y01307*
X00715Y01308*
G37*
G36*
X00705D02*
X00701Y01307D01*
X00693Y01304*
X00686Y01298*
X0068Y01291*
X00677Y01283*
X00676Y0128*
X00705*
Y01308*
G37*
G36*
X01679Y01304D02*
X0162D01*
Y01245*
X01679*
Y01304*
G37*
G36*
X01039D02*
X0098D01*
Y01245*
X01039*
Y01304*
G37*
G36*
X0135Y01304D02*
X01342Y01303D01*
X01335Y013*
X01328Y01296*
X01324Y01289*
X01321Y01282*
X0132Y01275*
X01321Y01267*
X01324Y0126*
X01328Y01253*
X01335Y01249*
X01342Y01246*
X0135Y01245*
X01357Y01246*
X01364Y01249*
X01371Y01253*
X01375Y0126*
X01378Y01267*
X01379Y01275*
X01378Y01282*
X01375Y01289*
X01371Y01296*
X01364Y013*
X01357Y01303*
X0135Y01304*
G37*
G36*
X00743Y0127D02*
X00715D01*
Y01241*
X00718Y01242*
X00726Y01245*
X00733Y01251*
X00739Y01258*
X00742Y01266*
X00743Y0127*
G37*
G36*
X00705D02*
X00676D01*
X00677Y01266*
X0068Y01258*
X00686Y01251*
X00693Y01245*
X00701Y01242*
X00705Y01241*
Y0127*
G37*
G36*
X0111Y01239D02*
Y01225D01*
X01124*
X01123Y01227*
X01119Y01234*
X01112Y01238*
X0111Y01239*
G37*
G36*
X011D02*
X01097Y01238D01*
X0109Y01234*
X01086Y01227*
X01085Y01225*
X011*
Y01239*
G37*
G36*
X01124Y01215D02*
X0111D01*
Y012*
X01112Y01201*
X01119Y01205*
X01123Y01212*
X01124Y01215*
G37*
G36*
X011D02*
X01085D01*
X01086Y01212*
X0109Y01205*
X01097Y01201*
X011Y012*
Y01215*
G37*
G36*
X0184Y01246D02*
X01833Y01244D01*
X01828Y01241*
X01825Y01236*
X01823Y0123*
X01825Y01223*
X01828Y01218*
X01833Y01215*
X0184Y01213*
X01846Y01215*
X01847Y01216*
X01851Y01212*
X0185Y01211*
X01848Y01205*
X0185Y01198*
X01853Y01193*
X01858Y0119*
X01865Y01188*
X01871Y0119*
X01876Y01193*
X01879Y01198*
X01881Y01205*
X01879Y01211*
X01876Y01216*
X01871Y01219*
X01865Y01221*
X01858Y01219*
X01857Y01219*
X01854Y01222*
X01854Y01223*
X01856Y0123*
X01854Y01236*
X01851Y01241*
X01846Y01244*
X0184Y01246*
G37*
G36*
X00279Y01221D02*
Y01186D01*
X00313*
X00313Y01192*
X00309Y01201*
X00302Y0121*
X00294Y01216*
X00284Y0122*
X00279Y01221*
G37*
G36*
X00269D02*
X00264Y0122D01*
X00254Y01216*
X00246Y0121*
X0024Y01201*
X00236Y01192*
X00235Y01186*
X00269*
Y01221*
G37*
G36*
X0131Y01217D02*
X01239D01*
Y01146*
X0131*
Y01217*
G37*
G36*
X0081D02*
X00739D01*
Y01146*
X0081*
Y01217*
G37*
G36*
X01774Y01217D02*
X01765Y01216D01*
X01756Y01212*
X01749Y01207*
X01743Y01199*
X0174Y01191*
X01738Y01181*
X0174Y01172*
X01743Y01164*
X01749Y01156*
X01756Y01151*
X01765Y01147*
X01774Y01146*
X01783Y01147*
X01792Y01151*
X01799Y01156*
X01805Y01164*
X01809Y01172*
X0181Y01181*
X01809Y01191*
X01805Y01199*
X01799Y01207*
X01792Y01212*
X01783Y01216*
X01774Y01217*
G37*
G36*
X01674D02*
X01665Y01216D01*
X01656Y01212*
X01649Y01207*
X01643Y01199*
X0164Y01191*
X01638Y01181*
X0164Y01172*
X01643Y01164*
X01649Y01156*
X01656Y01151*
X01665Y01147*
X01674Y01146*
X01683Y01147*
X01692Y01151*
X01699Y01156*
X01705Y01164*
X01709Y01172*
X0171Y01181*
X01709Y01191*
X01705Y01199*
X01699Y01207*
X01692Y01212*
X01683Y01216*
X01674Y01217*
G37*
G36*
X01574D02*
X01565Y01216D01*
X01556Y01212*
X01549Y01207*
X01543Y01199*
X0154Y01191*
X01538Y01181*
X0154Y01172*
X01543Y01164*
X01549Y01156*
X01556Y01151*
X01565Y01147*
X01574Y01146*
X01583Y01147*
X01592Y01151*
X01599Y01156*
X01605Y01164*
X01609Y01172*
X0161Y01181*
X01609Y01191*
X01605Y01199*
X01599Y01207*
X01592Y01212*
X01583Y01216*
X01574Y01217*
G37*
G36*
X01474D02*
X01465Y01216D01*
X01456Y01212*
X01449Y01207*
X01443Y01199*
X0144Y01191*
X01438Y01181*
X0144Y01172*
X01443Y01164*
X01449Y01156*
X01456Y01151*
X01465Y01147*
X01474Y01146*
X01483Y01147*
X01492Y01151*
X01499Y01156*
X01505Y01164*
X01509Y01172*
X0151Y01181*
X01509Y01191*
X01505Y01199*
X01499Y01207*
X01492Y01212*
X01483Y01216*
X01474Y01217*
G37*
G36*
X01374D02*
X01365Y01216D01*
X01356Y01212*
X01349Y01207*
X01343Y01199*
X0134Y01191*
X01338Y01181*
X0134Y01172*
X01343Y01164*
X01349Y01156*
X01356Y01151*
X01365Y01147*
X01374Y01146*
X01383Y01147*
X01392Y01151*
X01399Y01156*
X01405Y01164*
X01409Y01172*
X0141Y01181*
X01409Y01191*
X01405Y01199*
X01399Y01207*
X01392Y01212*
X01383Y01216*
X01374Y01217*
G37*
G36*
X00674D02*
X00665Y01216D01*
X00656Y01212*
X00649Y01207*
X00643Y01199*
X0064Y01191*
X00638Y01181*
X0064Y01172*
X00643Y01164*
X00649Y01156*
X00656Y01151*
X00665Y01147*
X00674Y01146*
X00683Y01147*
X00692Y01151*
X00699Y01156*
X00705Y01164*
X00709Y01172*
X0071Y01181*
X00709Y01191*
X00705Y01199*
X00699Y01207*
X00692Y01212*
X00683Y01216*
X00674Y01217*
G37*
G36*
X00574D02*
X00565Y01216D01*
X00556Y01212*
X00549Y01207*
X00543Y01199*
X0054Y01191*
X00538Y01181*
X0054Y01172*
X00543Y01164*
X00549Y01156*
X00556Y01151*
X00565Y01147*
X00574Y01146*
X00583Y01147*
X00592Y01151*
X00599Y01156*
X00605Y01164*
X00609Y01172*
X0061Y01181*
X00609Y01191*
X00605Y01199*
X00599Y01207*
X00592Y01212*
X00583Y01216*
X00574Y01217*
G37*
G36*
X00474D02*
X00465Y01216D01*
X00456Y01212*
X00449Y01207*
X00443Y01199*
X0044Y01191*
X00438Y01181*
X0044Y01172*
X00443Y01164*
X00449Y01156*
X00456Y01151*
X00465Y01147*
X00474Y01146*
X00483Y01147*
X00492Y01151*
X00499Y01156*
X00505Y01164*
X00509Y01172*
X0051Y01181*
X00509Y01191*
X00505Y01199*
X00499Y01207*
X00492Y01212*
X00483Y01216*
X00474Y01217*
G37*
G36*
X00374D02*
X00365Y01216D01*
X00356Y01212*
X00349Y01207*
X00343Y01199*
X0034Y01191*
X00338Y01181*
X0034Y01172*
X00343Y01164*
X00349Y01156*
X00356Y01151*
X00365Y01147*
X00374Y01146*
X00383Y01147*
X00392Y01151*
X00399Y01156*
X00405Y01164*
X00409Y01172*
X0041Y01181*
X00409Y01191*
X00405Y01199*
X00399Y01207*
X00392Y01212*
X00383Y01216*
X00374Y01217*
G37*
G36*
X00174D02*
X00165Y01216D01*
X00156Y01212*
X00149Y01207*
X00143Y01199*
X0014Y01191*
X00138Y01181*
X0014Y01172*
X00143Y01164*
X00149Y01156*
X00156Y01151*
X00165Y01147*
X00174Y01146*
X00183Y01147*
X00192Y01151*
X00199Y01156*
X00205Y01164*
X00209Y01172*
X0021Y01181*
X00209Y01191*
X00205Y01199*
X00199Y01207*
X00192Y01212*
X00183Y01216*
X00174Y01217*
G37*
G36*
X00313Y01176D02*
X00279D01*
Y01142*
X00284Y01143*
X00294Y01147*
X00302Y01153*
X00309Y01162*
X00313Y01171*
X00313Y01176*
G37*
G36*
X00269D02*
X00235D01*
X00236Y01171*
X0024Y01162*
X00246Y01153*
X00254Y01147*
X00264Y01143*
X00269Y01142*
Y01176*
G37*
G36*
X0189Y01156D02*
X01883Y01154D01*
X01878Y01151*
X01875Y01146*
X01873Y0114*
X01875Y01133*
X01878Y01128*
X01883Y01125*
X0189Y01123*
X01896Y01125*
X01901Y01128*
X01904Y01133*
X01906Y0114*
X01904Y01146*
X01901Y01151*
X01896Y01154*
X0189Y01156*
G37*
G36*
X00725Y01089D02*
Y01075D01*
X00739*
X00738Y01077*
X00734Y01084*
X00727Y01088*
X00725Y01089*
G37*
G36*
X00715D02*
X00712Y01088D01*
X00705Y01084*
X00701Y01077*
X007Y01075*
X00715*
Y01089*
G37*
G36*
X00458Y01098D02*
X00438Y01078D01*
X00458Y01058*
X00478Y01078*
X00458Y01098*
G37*
G36*
X00739Y01065D02*
X00725D01*
Y0105*
X00727Y01051*
X00734Y01055*
X00738Y01062*
X00739Y01065*
G37*
G36*
X00715D02*
X007D01*
X00701Y01062*
X00705Y01055*
X00712Y01051*
X00715Y0105*
Y01065*
G37*
G36*
X00431Y01071D02*
X00411Y01051D01*
X00431Y01031*
X00451Y01051*
X00431Y01071*
G37*
G36*
X00485D02*
X00465Y01051D01*
X00485Y01031*
X00506Y01051*
X00485Y01071*
G37*
G36*
X01175Y01026D02*
X01168Y01024D01*
X01163Y01021*
X0116Y01016*
X0116Y01015*
X01157Y01014*
X01154Y01014*
X01151Y01019*
X01146Y01022*
X0114Y01024*
X01134Y01022*
X01129Y01019*
X01125Y01014*
X01124Y01007*
X01125Y01001*
X01129Y00996*
X01134Y00993*
X0114Y00991*
X01146Y00993*
X01151Y00996*
X01155Y01001*
X01155Y01002*
X01157Y01003*
X0116Y01003*
X01163Y00998*
X01168Y00995*
X01175Y00993*
X01181Y00995*
X01186Y00998*
X01189Y01003*
X01191Y0101*
X01189Y01016*
X01186Y01021*
X01181Y01024*
X01175Y01026*
G37*
G36*
X00458Y01044D02*
X00438Y01024D01*
X00458Y01003*
X00478Y01024*
X00458Y01044*
G37*
G36*
X02025Y00999D02*
X02022Y00998D01*
X02018Y00996*
X02015Y00994*
X02011Y00996*
X02007Y00998*
X02005Y00999*
Y0098*
Y0096*
X02007Y00961*
X02011Y00963*
X02015Y00965*
X02018Y00963*
X02022Y00961*
X02025Y0096*
Y0098*
Y00999*
G37*
G36*
X0196D02*
X01957Y00998D01*
X01953Y00996*
X0195Y00994*
X01946Y00996*
X01942Y00998*
X0194Y00999*
Y0098*
Y0096*
X01942Y00961*
X01946Y00963*
X0195Y00965*
X01953Y00963*
X01957Y00961*
X0196Y0096*
Y0098*
Y00999*
G37*
G36*
X01995D02*
X01992Y00998D01*
X01985Y00994*
X01985Y00993*
X0198*
X01979Y00994*
X01972Y00998*
X0197Y00999*
Y0098*
Y0096*
X01972Y00961*
X01979Y00965*
X0198Y00966*
X01985*
X01985Y00965*
X01992Y00961*
X01995Y0096*
Y0098*
Y00999*
G37*
G36*
X01095Y01021D02*
X01088Y01019D01*
X01083Y01016*
X0108Y01011*
X01078Y01005*
X0108Y00998*
X01083Y00993*
X01088Y0099*
X01095Y00988*
X01101Y0099*
X01106Y00993*
X01109Y00998*
X01111Y01005*
X01109Y01011*
X01106Y01016*
X01101Y01019*
X01095Y01021*
G37*
G36*
X02035Y00999D02*
Y00985D01*
X02049*
X02048Y00987*
X02044Y00994*
X02037Y00998*
X02035Y00999*
G37*
G36*
X0193D02*
X01927Y00998D01*
X0192Y00994*
X01916Y00987*
X01915Y00985*
X0193*
Y00999*
G37*
G36*
X02049Y00975D02*
X02035D01*
Y0096*
X02037Y00961*
X02044Y00965*
X02048Y00972*
X02049Y00975*
G37*
G36*
X0193D02*
X01915D01*
X01916Y00972*
X0192Y00965*
X01927Y00961*
X0193Y0096*
Y00975*
G37*
G36*
X01585Y00986D02*
X01578Y00984D01*
X01573Y00981*
X0157Y00976*
X01568Y0097*
X0157Y00963*
X01573Y00958*
X01578Y00955*
X01585Y00953*
X01591Y00955*
X01596Y00958*
X01599Y00963*
X01601Y0097*
X01599Y00976*
X01596Y00981*
X01591Y00984*
X01585Y00986*
G37*
G36*
X00529Y0101D02*
X00521Y01009D01*
X00514Y01006*
X00508Y01001*
X00503Y00995*
X005Y00988*
X00499Y0098*
X005Y00973*
X00503Y00965*
X00508Y00959*
X00514Y00954*
X00521Y00951*
X00529Y0095*
X00537Y00951*
X00544Y00954*
X0055Y00959*
X00555Y00965*
X00558Y00973*
X00559Y0098*
X00558Y00988*
X00555Y00995*
X0055Y01001*
X00544Y01006*
X00537Y01009*
X00529Y0101*
G37*
G36*
X00927Y00955D02*
X00924Y00954D01*
X00918Y0095*
X00913Y00943*
X00913Y00941*
X00908*
X00907Y00943*
X00903Y0095*
X00896Y00954*
X00894Y00955*
Y00936*
X00889*
Y00931*
X00869*
X0087Y00928*
X00874Y00921*
X00881Y00917*
X00883Y00917*
Y00911*
X00881Y00911*
X00874Y00907*
X0087Y009*
X00869Y00897*
X00889*
Y00887*
X00869*
X0087Y00885*
X00874Y00878*
X00881Y00874*
X00883Y00873*
Y00868*
X00881Y00868*
X00874Y00863*
X0087Y00857*
X00869Y00854*
X00889*
Y00849*
X00894*
Y0083*
X00896Y0083*
X00903Y00835*
X00907Y00841*
X00908Y00843*
X00913*
X00913Y00841*
X00918Y00835*
X00924Y0083*
X00927Y0083*
Y00849*
X00932*
Y00854*
X00951*
X00951Y00857*
X00946Y00863*
X0094Y00868*
X00938Y00868*
Y00873*
X0094Y00874*
X00946Y00878*
X00951Y00885*
X00951Y00887*
X00932*
Y00897*
X00951*
X00951Y009*
X00946Y00907*
X0094Y00911*
X00938Y00911*
Y00917*
X0094Y00917*
X00946Y00921*
X00951Y00928*
X00951Y00931*
X00932*
Y00936*
X00927*
Y00955*
G37*
G36*
X00937D02*
Y00941D01*
X00951*
X00951Y00943*
X00946Y0095*
X0094Y00954*
X00937Y00955*
G37*
G36*
X00884D02*
X00881Y00954D01*
X00874Y0095*
X0087Y00943*
X00869Y00941*
X00884*
Y00955*
G37*
G36*
X00345Y00966D02*
X00338Y00964D01*
X00333Y00961*
X0033Y00956*
X00328Y0095*
X0033Y00943*
X00333Y00938*
X00338Y00935*
X00345Y00933*
X00351Y00935*
X00356Y00938*
X00359Y00943*
X00361Y0095*
X00359Y00956*
X00356Y00961*
X00351Y00964*
X00345Y00966*
G37*
G36*
X00415Y00929D02*
Y00915D01*
X00429*
X00428Y00917*
X00424Y00924*
X00417Y00928*
X00415Y00929*
G37*
G36*
X00405D02*
X00402Y00928D01*
X00395Y00924*
X00391Y00917*
X0039Y00915*
X00405*
Y00929*
G37*
G36*
X00429Y00905D02*
X00415D01*
Y0089*
X00417Y00891*
X00424Y00895*
X00428Y00902*
X00429Y00905*
G37*
G36*
X00405D02*
X0039D01*
X00391Y00902*
X00395Y00895*
X00402Y00891*
X00405Y0089*
Y00905*
G37*
G36*
X01225Y00896D02*
X01218Y00894D01*
X01213Y00891*
X01213Y0089*
X01208*
X01207Y00891*
X01202Y00894*
X01196Y00896*
X0119Y00894*
X01185Y00891*
X01183Y0089*
X0118*
X01178Y00891*
X01173Y00894*
X01167Y00896*
X01161Y00894*
X01157Y00891*
X01154Y00891*
X0115Y00891*
X01146Y00894*
X0114Y00896*
X01134Y00894*
X01129Y00891*
X01125Y00886*
X01124Y0088*
X01125Y00873*
X01129Y00868*
X01134Y00865*
X0114Y00863*
X01146Y00865*
X01151Y00868*
X01156*
X01161Y00865*
X01167Y00863*
X01173Y00865*
X01178Y00868*
X0118Y00869*
X01183*
X01185Y00868*
X0119Y00865*
X01196Y00863*
X01202Y00865*
X01207Y00868*
X01208Y00869*
X01213*
X01213Y00868*
X01218Y00865*
X01225Y00863*
X01231Y00865*
X01236Y00868*
X01239Y00873*
X01241Y0088*
X01239Y00886*
X01236Y00891*
X01231Y00894*
X01225Y00896*
G37*
G36*
X006Y00939D02*
X00592Y00938D01*
X00585Y00935*
X00578Y00931*
X00574Y00924*
X00571Y00917*
X0057Y0091*
X00571Y00902*
X00574Y00895*
X00578Y00888*
X00585Y00884*
X00592Y00881*
X006Y0088*
X00607Y00881*
X00614Y00884*
X00621Y00888*
X00625Y00895*
X00628Y00902*
X00629Y0091*
X00628Y00917*
X00625Y00924*
X00621Y00931*
X00614Y00935*
X00607Y00938*
X006Y00939*
G37*
G36*
X0075Y00896D02*
X00743Y00894D01*
X00738Y00891*
X00735Y00886*
X00733Y0088*
X00735Y00873*
X00738Y00868*
X00743Y00865*
X0075Y00863*
X00756Y00865*
X00761Y00868*
X00764Y00873*
X00766Y0088*
X00764Y00886*
X00761Y00891*
X00756Y00894*
X0075Y00896*
G37*
G36*
X00951Y00844D02*
X00937D01*
Y0083*
X0094Y0083*
X00946Y00835*
X00951Y00841*
X00951Y00844*
G37*
G36*
X00884D02*
X00869D01*
X0087Y00841*
X00874Y00835*
X00881Y0083*
X00884Y0083*
Y00844*
G37*
G36*
X0075Y00841D02*
X00743Y00839D01*
X00738Y00836*
X00735Y00831*
X00733Y00825*
X00735Y00818*
X00738Y00813*
X00743Y0081*
X0075Y00808*
X00756Y0081*
X00761Y00813*
X00764Y00818*
X00766Y00825*
X00764Y00831*
X00761Y00836*
X00756Y00839*
X0075Y00841*
G37*
G36*
X01605Y00826D02*
X01598Y00824D01*
X01593Y00821*
X0159Y00816*
X01588Y0081*
X0159Y00803*
X01593Y00798*
X01598Y00795*
X01605Y00793*
X01611Y00795*
X01616Y00798*
X01619Y00803*
X01621Y0081*
X01619Y00816*
X01616Y00821*
X01611Y00824*
X01605Y00826*
G37*
G36*
X01825Y00799D02*
Y00785D01*
X01839*
X01838Y00787*
X01834Y00794*
X01827Y00798*
X01825Y00799*
G37*
G36*
X01815D02*
X01812Y00798D01*
X01805Y00794*
X01801Y00787*
X018Y00785*
X01815*
Y00799*
G37*
G36*
X0176D02*
Y00785D01*
X01774*
X01773Y00787*
X01769Y00794*
X01762Y00798*
X0176Y00799*
G37*
G36*
X0175D02*
X01747Y00798D01*
X0174Y00794*
X01736Y00787*
X01735Y00785*
X0175*
Y00799*
G37*
G36*
X00438Y00876D02*
X00388Y00826D01*
X00438Y00776*
X00488Y00826*
X00438Y00876*
G37*
G36*
X01815Y00775D02*
X018D01*
X01801Y00772*
X01801Y00772*
X01797Y00768*
X01797Y00768*
X01795Y00769*
Y00755*
X01809*
X01808Y00757*
X01808Y00757*
X01812Y00761*
X01812Y00761*
X01815Y0076*
Y00775*
G37*
G36*
X01839D02*
X01825D01*
Y0076*
X01827Y00761*
X01834Y00765*
X01838Y00772*
X01839Y00775*
G37*
G36*
X01774D02*
X0176D01*
Y0076*
X01762Y00761*
X01769Y00765*
X01773Y00772*
X01774Y00775*
G37*
G36*
X0175D02*
X01735D01*
X01736Y00772*
X0174Y00765*
X01747Y00761*
X0175Y0076*
Y00775*
G37*
G36*
X01785Y00769D02*
X01782Y00768D01*
X01775Y00764*
X01771Y00757*
X0177Y00755*
X01785*
Y00769*
G37*
G36*
X01645Y00759D02*
Y00745D01*
X01659*
X01658Y00747*
X01654Y00754*
X01647Y00758*
X01645Y00759*
G37*
G36*
X01635D02*
X01632Y00758D01*
X01625Y00754*
X01621Y00747*
X0162Y00745*
X01635*
Y00759*
G37*
G36*
X0152Y00766D02*
X01513Y00764D01*
X01508Y00761*
X01505Y00756*
X01503Y0075*
X01505Y00743*
X01508Y00738*
X01513Y00735*
X0152Y00733*
X01526Y00735*
X01531Y00738*
X01534Y00743*
X01536Y0075*
X01534Y00756*
X01531Y00761*
X01526Y00764*
X0152Y00766*
G37*
G36*
X01785Y00745D02*
X0177D01*
X01771Y00742*
X01775Y00735*
X01782Y00731*
X01785Y0073*
Y00745*
G37*
G36*
X01825Y00739D02*
Y00725D01*
X01839*
X01838Y00727*
X01834Y00734*
X01827Y00738*
X01825Y00739*
G37*
G36*
X01809Y00745D02*
X01795D01*
Y0073*
X01797Y00731*
X01797Y00731*
X01801Y00727*
X01801Y00727*
X018Y00725*
X01815*
Y00739*
X01812Y00738*
X01812Y00738*
X01808Y00742*
X01808Y00742*
X01809Y00745*
G37*
G36*
X0176Y00739D02*
Y00725D01*
X01774*
X01773Y00727*
X01769Y00734*
X01762Y00738*
X0176Y00739*
G37*
G36*
X0175D02*
X01747Y00738D01*
X0174Y00734*
X01736Y00727*
X01735Y00725*
X0175*
Y00739*
G37*
G36*
X01659Y00735D02*
X01645D01*
Y0072*
X01647Y00721*
X01654Y00725*
X01658Y00732*
X01659Y00735*
G37*
G36*
X01635D02*
X0162D01*
X01621Y00732*
X01625Y00725*
X01632Y00721*
X01635Y0072*
Y00735*
G37*
G36*
X00509Y00791D02*
X005Y0079D01*
X00491Y00786*
X00484Y0078*
X00478Y00773*
X00474Y00764*
X00473Y00755*
X00474Y00746*
X00478Y00737*
X00484Y0073*
X00491Y00724*
X005Y00721*
X00509Y00719*
X00518Y00721*
X00527Y00724*
X00534Y0073*
X0054Y00737*
X00543Y00746*
X00545Y00755*
X00543Y00764*
X0054Y00773*
X00534Y0078*
X00527Y00786*
X00518Y0079*
X00509Y00791*
G37*
G36*
X01839Y00715D02*
X01825D01*
Y007*
X01827Y00701*
X01834Y00705*
X01838Y00712*
X01839Y00715*
G37*
G36*
X01815D02*
X018D01*
X01801Y00712*
X01805Y00705*
X01812Y00701*
X01815Y007*
Y00715*
G37*
G36*
X01774D02*
X0176D01*
Y007*
X01762Y00701*
X01769Y00705*
X01773Y00712*
X01774Y00715*
G37*
G36*
X0175D02*
X01735D01*
X01736Y00712*
X0174Y00705*
X01747Y00701*
X0175Y007*
Y00715*
G37*
G36*
X0058Y00724D02*
X00569Y00723D01*
X0056Y00719*
X00555Y00716*
X0058Y00692*
X00604Y00716*
X00599Y00719*
X0059Y00723*
X0058Y00724*
G37*
G36*
X00548Y00709D02*
X00545Y00704D01*
X00541Y00695*
X0054Y00685*
X00541Y00674*
X00545Y00665*
X00548Y0066*
X00572Y00685*
X00548Y00709*
G37*
G36*
X00611D02*
X00587Y00685D01*
X00611Y0066*
X00614Y00665*
X00618Y00674*
X00619Y00685*
X00618Y00695*
X00614Y00704*
X00611Y00709*
G37*
G36*
X0058Y00677D02*
X00555Y00653D01*
X0056Y0065*
X00569Y00646*
X0058Y00645*
X0059Y00646*
X00599Y0065*
X00604Y00653*
X0058Y00677*
G37*
G36*
X0152Y00721D02*
X01513Y00719D01*
X01508Y00716*
X01505Y00711*
X01503Y00705*
X01505Y00698*
X01508Y00693*
X01513Y0069*
X01514Y0069*
Y00684*
X01513Y00684*
X01508Y00681*
X01505Y00676*
X01503Y0067*
X01505Y00663*
X01508Y00658*
X01512Y00655*
X01512Y00652*
X01512Y0065*
X01508Y00649*
X01503Y00646*
X015Y00641*
X01498Y00635*
X015Y00628*
X01503Y00623*
X01508Y0062*
X01515Y00618*
X01521Y0062*
X01526Y00623*
X01529Y00628*
X01531Y00635*
X01529Y00641*
X01526Y00646*
X01522Y00649*
X01522Y00652*
X01522Y00654*
X01526Y00655*
X01531Y00658*
X01534Y00663*
X01536Y0067*
X01534Y00676*
X01531Y00681*
X01526Y00684*
X01525Y00684*
Y0069*
X01526Y0069*
X01531Y00693*
X01534Y00698*
X01536Y00705*
X01534Y00711*
X01531Y00716*
X01526Y00719*
X0152Y00721*
G37*
G36*
X0136Y00609D02*
Y00595D01*
X01374*
X01373Y00597*
X01369Y00604*
X01362Y00608*
X0136Y00609*
G37*
G36*
X0135D02*
X01347Y00608D01*
X0134Y00604*
X01336Y00597*
X01335Y00595*
X0135*
Y00609*
G37*
G36*
X01515Y00611D02*
X01508Y00609D01*
X01503Y00606*
X015Y00601*
X01498Y00595*
X015Y00588*
X01503Y00583*
X01508Y0058*
X01515Y00578*
X01521Y0058*
X01526Y00583*
X01529Y00588*
X01531Y00595*
X01529Y00601*
X01526Y00606*
X01521Y00609*
X01515Y00611*
G37*
G36*
X01374Y00585D02*
X0136D01*
Y0057*
X01362Y00571*
X01369Y00575*
X01373Y00582*
X01374Y00585*
G37*
G36*
X0135D02*
X01335D01*
X01336Y00582*
X0134Y00575*
X01347Y00571*
X0135Y0057*
Y00585*
G37*
G36*
X0123Y00574D02*
Y0056D01*
X01244*
X01243Y00562*
X01239Y00569*
X01232Y00573*
X0123Y00574*
G37*
G36*
X0122D02*
X01217Y00573D01*
X0121Y00569*
X01206Y00562*
X01205Y0056*
X0122*
Y00574*
G37*
G36*
X01818Y00608D02*
X01812Y00607D01*
X01806Y00603*
X01803Y00598*
X01802Y00592*
X01803Y00586*
X01806Y00581*
X01812Y00577*
X01813Y00577*
Y00572*
X01812Y00572*
X01806Y00568*
X01803Y00563*
X01802Y00557*
X01803Y00551*
X01806Y00546*
X01812Y00542*
X01818Y00541*
X01824Y00542*
X01829Y00546*
X01833Y00551*
X01834Y00557*
X01833Y00563*
X01829Y00568*
X01824Y00572*
X01823Y00572*
Y00577*
X01824Y00577*
X01829Y00581*
X01833Y00586*
X01834Y00592*
X01833Y00598*
X01829Y00603*
X01824Y00607*
X01818Y00608*
G37*
G36*
X01244Y0055D02*
X0123D01*
Y00535*
X01232Y00536*
X01239Y0054*
X01243Y00547*
X01244Y0055*
G37*
G36*
X0122D02*
X01205D01*
X01206Y00547*
X0121Y0054*
X01217Y00536*
X0122Y00535*
Y0055*
G37*
G36*
X01815Y00526D02*
X01808Y00524D01*
X01803Y00521*
X018Y00516*
X01798Y0051*
X018Y00503*
X01803Y00498*
X01808Y00495*
X01815Y00493*
X01821Y00495*
X01826Y00498*
X01829Y00503*
X01831Y0051*
X01829Y00516*
X01826Y00521*
X01821Y00524*
X01815Y00526*
G37*
G36*
X01155Y00479D02*
Y00465D01*
X01169*
X01168Y00467*
X01164Y00474*
X01157Y00478*
X01155Y00479*
G37*
G36*
X01145D02*
X01142Y00478D01*
X01135Y00474*
X01131Y00467*
X0113Y00465*
X01145*
Y00479*
G37*
G36*
X01169Y00455D02*
X01155D01*
Y0044*
X01157Y00441*
X01164Y00445*
X01168Y00452*
X01169Y00455*
G37*
G36*
X01145D02*
X0113D01*
X01131Y00452*
X01135Y00445*
X01142Y00441*
X01145Y0044*
Y00455*
G37*
G36*
X0085Y00465D02*
X0084Y00464D01*
X00832Y0046*
X00824Y00455*
X00819Y00447*
X00815Y00439*
X00814Y0043*
X00815Y0042*
X00819Y00412*
X00824Y00404*
X00832Y00399*
X0084Y00395*
X0085Y00394*
X00859Y00395*
X00867Y00399*
X00875Y00404*
X0088Y00412*
X00884Y0042*
X00885Y0043*
X00884Y00439*
X0088Y00447*
X00875Y00455*
X00867Y0046*
X00859Y00464*
X0085Y00465*
G37*
G36*
X01379Y00421D02*
Y00386D01*
X01413*
X01413Y00392*
X01409Y00401*
X01402Y0041*
X01394Y00416*
X01384Y0042*
X01379Y00421*
G37*
G36*
X01369D02*
X01364Y0042D01*
X01354Y00416*
X01346Y0041*
X0134Y00401*
X01336Y00392*
X01335Y00386*
X01369*
Y00421*
G37*
G36*
X0092Y00415D02*
X00896Y0039D01*
X0092Y00366*
X00945Y0039*
X0092Y00415*
G37*
G36*
X0121Y00417D02*
X01139D01*
Y00346*
X0121*
Y00417*
G37*
G36*
X01974Y00417D02*
X01965Y00416D01*
X01956Y00412*
X01949Y00407*
X01943Y00399*
X0194Y00391*
X01938Y00381*
X0194Y00372*
X01943Y00364*
X01949Y00356*
X01956Y00351*
X01965Y00347*
X01974Y00346*
X01983Y00347*
X01992Y00351*
X01999Y00356*
X02005Y00364*
X02009Y00372*
X0201Y00381*
X02009Y00391*
X02005Y00399*
X01999Y00407*
X01992Y00412*
X01983Y00416*
X01974Y00417*
G37*
G36*
X01874D02*
X01865Y00416D01*
X01856Y00412*
X01849Y00407*
X01843Y00399*
X0184Y00391*
X01838Y00381*
X0184Y00372*
X01843Y00364*
X01849Y00356*
X01856Y00351*
X01865Y00347*
X01874Y00346*
X01883Y00347*
X01892Y00351*
X01899Y00356*
X01905Y00364*
X01909Y00372*
X0191Y00381*
X01909Y00391*
X01905Y00399*
X01899Y00407*
X01892Y00412*
X01883Y00416*
X01874Y00417*
G37*
G36*
X01774D02*
X01765Y00416D01*
X01756Y00412*
X01749Y00407*
X01743Y00399*
X0174Y00391*
X01738Y00381*
X0174Y00372*
X01743Y00364*
X01749Y00356*
X01756Y00351*
X01765Y00347*
X01774Y00346*
X01783Y00347*
X01792Y00351*
X01799Y00356*
X01805Y00364*
X01809Y00372*
X0181Y00381*
X01809Y00391*
X01805Y00399*
X01799Y00407*
X01792Y00412*
X01783Y00416*
X01774Y00417*
G37*
G36*
X01674D02*
X01665Y00416D01*
X01656Y00412*
X01649Y00407*
X01643Y00399*
X0164Y00391*
X01638Y00381*
X0164Y00372*
X01643Y00364*
X01649Y00356*
X01656Y00351*
X01665Y00347*
X01674Y00346*
X01683Y00347*
X01692Y00351*
X01699Y00356*
X01705Y00364*
X01709Y00372*
X0171Y00381*
X01709Y00391*
X01705Y00399*
X01699Y00407*
X01692Y00412*
X01683Y00416*
X01674Y00417*
G37*
G36*
X01574D02*
X01565Y00416D01*
X01556Y00412*
X01549Y00407*
X01543Y00399*
X0154Y00391*
X01538Y00381*
X0154Y00372*
X01543Y00364*
X01549Y00356*
X01556Y00351*
X01565Y00347*
X01574Y00346*
X01583Y00347*
X01592Y00351*
X01599Y00356*
X01605Y00364*
X01609Y00372*
X0161Y00381*
X01609Y00391*
X01605Y00399*
X01599Y00407*
X01592Y00412*
X01583Y00416*
X01574Y00417*
G37*
G36*
X01474D02*
X01465Y00416D01*
X01456Y00412*
X01449Y00407*
X01443Y00399*
X0144Y00391*
X01438Y00381*
X0144Y00372*
X01443Y00364*
X01449Y00356*
X01456Y00351*
X01465Y00347*
X01474Y00346*
X01483Y00347*
X01492Y00351*
X01499Y00356*
X01505Y00364*
X01509Y00372*
X0151Y00381*
X01509Y00391*
X01505Y00399*
X01499Y00407*
X01492Y00412*
X01483Y00416*
X01474Y00417*
G37*
G36*
X01274D02*
X01265Y00416D01*
X01256Y00412*
X01249Y00407*
X01243Y00399*
X0124Y00391*
X01238Y00381*
X0124Y00372*
X01243Y00364*
X01249Y00356*
X01256Y00351*
X01265Y00347*
X01274Y00346*
X01283Y00347*
X01292Y00351*
X01299Y00356*
X01305Y00364*
X01309Y00372*
X0131Y00381*
X01309Y00391*
X01305Y00399*
X01299Y00407*
X01292Y00412*
X01283Y00416*
X01274Y00417*
G37*
G36*
X01413Y00376D02*
X01379D01*
Y00342*
X01384Y00343*
X01394Y00347*
X01402Y00353*
X01409Y00362*
X01413Y00371*
X01413Y00376*
G37*
G36*
X01369D02*
X01335D01*
X01336Y00371*
X0134Y00362*
X01346Y00353*
X01354Y00347*
X01364Y00343*
X01369Y00342*
Y00376*
G37*
G36*
X00952Y00383D02*
X00927Y00359D01*
X00952Y00334*
X00976Y00359*
X00952Y00383*
G37*
G36*
X00889D02*
X00864Y00359D01*
X00889Y00334*
X00913Y00359*
X00889Y00383*
G37*
G36*
X0092Y00352D02*
X00896Y00327D01*
X0092Y00303*
X00945Y00327*
X0092Y00352*
G37*
G36*
X0181Y00202D02*
X01739D01*
Y00131*
X0181*
Y00202*
G37*
G36*
X01974Y00202D02*
X01965Y00201D01*
X01956Y00197*
X01949Y00192*
X01943Y00184*
X0194Y00176*
X01938Y00166*
X0194Y00157*
X01943Y00149*
X01949Y00141*
X01956Y00136*
X01965Y00132*
X01974Y00131*
X01983Y00132*
X01992Y00136*
X01999Y00141*
X02005Y00149*
X02009Y00157*
X0201Y00166*
X02009Y00176*
X02005Y00184*
X01999Y00192*
X01992Y00197*
X01983Y00201*
X01974Y00202*
G37*
G36*
X01874D02*
X01865Y00201D01*
X01856Y00197*
X01849Y00192*
X01843Y00184*
X0184Y00176*
X01838Y00166*
X0184Y00157*
X01843Y00149*
X01849Y00141*
X01856Y00136*
X01865Y00132*
X01874Y00131*
X01883Y00132*
X01892Y00136*
X01899Y00141*
X01905Y00149*
X01909Y00157*
X0191Y00166*
X01909Y00176*
X01905Y00184*
X01899Y00192*
X01892Y00197*
X01883Y00201*
X01874Y00202*
G37*
%LNsolears_v3-3*%
%LPD*%
G54D26*
X0177Y01815D03*
X00104Y02426D03*
G54D27*
X0177Y01715D03*
X00509Y00755D03*
X0058Y00685D03*
X01374Y00381D03*
X01474D03*
X01574D03*
X01674D03*
X01774D03*
X01874D03*
X01974D03*
X01274D03*
X0085Y0043D03*
X01646Y03281D03*
X01576Y03351D03*
X01505Y03422D03*
X01434Y03493D03*
X01363Y03564D03*
X00353Y03281D03*
X00424Y03351D03*
X00495Y03422D03*
X00565Y03493D03*
X00636Y03564D03*
X00104Y02526D03*
Y02626D03*
Y02726D03*
Y02826D03*
Y02926D03*
X00174Y01181D03*
X00274D03*
X00374D03*
X00474D03*
X00674D03*
X00574D03*
X01374D03*
X01474D03*
X01574D03*
X01674D03*
X01774D03*
X01874Y00166D03*
X01974D03*
G54D28*
X00438Y00826D03*
X0092Y00359D03*
X01717Y0321D03*
G54D29*
X0165Y01275D03*
X0101D03*
G54D30*
X0135Y01275D03*
X0071D03*
X00529Y0098D03*
X006Y0091D03*
G54D31*
X00458Y01051D03*
G54D32*
X01174Y00381D03*
X00774Y01181D03*
X01274D03*
X01774Y00166D03*
G54D33*
X00283Y0321D03*
G54D34*
X00326Y02986D03*
Y02704D03*
Y02421D03*
X01474D03*
Y02704D03*
Y02986D03*
X00895Y03326D03*
X009Y02986D03*
Y02704D03*
Y02421D03*
G54D35*
X00405Y02986D03*
X00484D03*
X00562D03*
X00405Y02704D03*
X00484D03*
X00562D03*
X00405Y02421D03*
X00484D03*
X00562D03*
X01553D03*
X01632D03*
X0171D03*
X01553Y02704D03*
X01632D03*
X0171D03*
X01553Y02986D03*
X01632D03*
X0171D03*
X00974Y03326D03*
X01053D03*
X01132D03*
X00979Y02986D03*
X01058D03*
X01136D03*
X00979Y02704D03*
X01058D03*
X01136D03*
X00979Y02421D03*
X01058D03*
X01136D03*
G54D36*
X00239Y01461D03*
X00339D03*
X00439D03*
X00539D03*
X00639D03*
X00739D03*
X00839D03*
X00939D03*
X01039D03*
X01139D03*
X01239D03*
X01339D03*
X01439D03*
X01539D03*
X01639D03*
Y02061D03*
X01539D03*
X01439D03*
X01339D03*
X01239D03*
X01139D03*
X01039D03*
X00939D03*
X00839D03*
X00739D03*
X00639D03*
X00539D03*
X00439D03*
X00339D03*
X00239D03*
G54D37*
X00139Y01461D03*
Y02061D03*
X01739D03*
Y01461D03*
G54D38*
X00932Y00936D03*
X00889D03*
X00932Y00892D03*
X00889D03*
X00932Y00849D03*
X00889D03*
X01965Y0098D03*
X02D03*
X01935D03*
X0152Y0075D03*
Y00705D03*
Y0067D03*
X01515Y00635D03*
Y00595D03*
X0114Y0088D03*
X01167D03*
X01196D03*
X01225D03*
X01175Y0101D03*
X01095Y01005D03*
X0114Y01007D03*
X01585Y0097D03*
X0168Y01675D03*
X01415Y01665D03*
X00345Y0095D03*
X0075Y00825D03*
Y0088D03*
X00945Y0157D03*
X01105Y0122D03*
X0189Y0114D03*
X0184Y0123D03*
X01865Y01205D03*
X0203Y0098D03*
X0041Y0091D03*
X01355Y0059D03*
X01225Y00555D03*
X00095Y03065D03*
X00785Y0349D03*
X01365Y02825D03*
X01625Y0188D03*
X00135Y01795D03*
X01365Y03145D03*
X0103Y02535D03*
X00105Y023D03*
X00405Y0314D03*
X0196Y0261D03*
X0131Y0221D03*
X0107Y01925D03*
X00755Y02815D03*
X0055Y0179D03*
X0154Y0172D03*
X016Y02205D03*
X00635Y0317D03*
X0102Y036D03*
X0103Y0177D03*
X0032Y01775D03*
X0115Y0046D03*
X0072Y0107D03*
X01605Y0081D03*
X01815Y0051D03*
X01818Y00557D03*
Y00592D03*
X0164Y0074D03*
X0179Y0075D03*
X01755Y0072D03*
Y0078D03*
X0182Y0072D03*
Y0078D03*
X0022Y02525D03*
X0026Y0248D03*
M02*