%FSTAX23Y23*%
%MOIN*%
%SFA1B1*%

%IPPOS*%
%ADD10C,0.007870*%
%ADD11C,0.005000*%
%ADD12C,0.010000*%
%LNsolears_v3-1*%
%LPD*%
G54D10*
X0022Y02986D02*
X00212D01*
X0022*
Y02704D02*
X00212D01*
X0022*
Y02421D02*
X00212D01*
X0022*
X01368D02*
X0136D01*
X01368*
Y02704D02*
X0136D01*
X01368*
Y02986D02*
X0136D01*
X01368*
X00789Y03326D02*
X00781D01*
X00789*
X00794Y02986D02*
X00786D01*
X00794*
Y02704D02*
X00786D01*
X00794*
Y02421D02*
X00786D01*
X00794*
X00243Y01387D02*
X00235D01*
X00243*
X02024Y00331D02*
Y00431D01*
X01124Y00331D02*
X02024D01*
X01124D02*
Y00431D01*
X02024*
X01293Y03564D02*
X01363Y03634D01*
X01717Y03139D02*
X01788Y0321D01*
X01293Y03564D02*
X01717Y03139D01*
X01363Y03634D02*
X01788Y0321D01*
X00636Y03634D02*
X00707Y03564D01*
X00212Y0321D02*
X00283Y03139D01*
X00212Y0321D02*
X00636Y03634D01*
X00283Y03139D02*
X00707Y03564D01*
X00054Y02976D02*
X00154D01*
X00054Y02376D02*
X00154D01*
X00054D02*
Y02976D01*
X00154Y02376D02*
Y02976D01*
X00124Y01131D02*
X00824D01*
Y01231*
X00124D02*
X00824D01*
X00124Y01131D02*
Y01231D01*
X01824Y01131D02*
Y01231D01*
X01224Y01131D02*
Y01231D01*
X01824*
X01224Y01131D02*
X01824D01*
X01724Y00116D02*
X02024D01*
Y00216*
X01724D02*
X02024D01*
X01724Y00116D02*
Y00216D01*
G54D11*
X00247Y03071D02*
X00641D01*
Y0287D02*
Y03071D01*
X00247Y0287D02*
X00641D01*
X00247D02*
Y03071D01*
Y02789D02*
X00641D01*
Y02588D02*
Y02789D01*
X00247Y02588D02*
X00641D01*
X00247D02*
Y02789D01*
Y02506D02*
X00641D01*
Y02305D02*
Y02506D01*
X00247Y02305D02*
X00641D01*
X00247D02*
Y02506D01*
X01395D02*
X01789D01*
Y02305D02*
Y02506D01*
X01395Y02305D02*
X01789D01*
X01395D02*
Y02506D01*
Y02789D02*
X01789D01*
Y02588D02*
Y02789D01*
X01395Y02588D02*
X01789D01*
X01395D02*
Y02789D01*
Y03071D02*
X01789D01*
Y0287D02*
Y03071D01*
X01395Y0287D02*
X01789D01*
X01395D02*
Y03071D01*
X00817Y03411D02*
X0121D01*
Y0321D02*
Y03411D01*
X00817Y0321D02*
X0121D01*
X00817D02*
Y03411D01*
X00821Y03071D02*
X01215D01*
Y0287D02*
Y03071D01*
X00821Y0287D02*
X01215D01*
X00821D02*
Y03071D01*
Y02789D02*
X01215D01*
Y02588D02*
Y02789D01*
X00821Y02588D02*
X01215D01*
X00821D02*
Y02789D01*
Y02506D02*
X01215D01*
Y02305D02*
Y02506D01*
X00821Y02305D02*
X01215D01*
X00821D02*
Y02506D01*
X00089Y01412D02*
X01789D01*
Y02111*
X00089D02*
X01789D01*
X00089Y01935D02*
Y02111D01*
Y01588D02*
Y01935D01*
Y01412D02*
Y01588D01*
X0001Y01935D02*
X00089D01*
X0001Y01588D02*
Y01935D01*
Y01588D02*
X00089D01*
G54D12*
X01049Y00409D02*
X01029D01*
X01039*
Y0036*
X01029Y0035*
X0102*
X0101Y0036*
X01069Y0035D02*
X01089D01*
X01079*
Y00409*
X01069Y00399*
X0134Y034D02*
X01382Y03442D01*
X01403Y03421*
Y03407*
X01389Y03392*
X01375*
X01354Y03414*
X01446Y03364D02*
Y03378D01*
X01431Y03392*
X01417*
X0141Y03385*
Y03371*
X01424Y03357*
Y03343*
X01417Y03336*
X01403*
X01389Y0335*
Y03364*
X01424Y03315D02*
X01467Y03357D01*
X01488Y03336*
Y03322*
X01474Y03308*
X0146*
X01438Y03329*
X01509Y03315D02*
X01523Y03301D01*
X01516Y03308*
X01474Y03265*
X01467Y03272*
X01481Y03258*
X0153Y03209D02*
X01502Y03237D01*
X01559*
X01566Y03244*
Y03258*
X01552Y03272*
X01537*
X0047Y03195D02*
X00427Y03237D01*
X00448Y03258*
X00462*
X00477Y03244*
Y0323*
X00455Y03209*
X00505Y03301D02*
X00491D01*
X00477Y03286*
Y03272*
X00484Y03265*
X00498*
X00512Y03279*
X00526*
X00533Y03272*
Y03258*
X00519Y03244*
X00505*
X00554Y03279D02*
X00512Y03322D01*
X00533Y03343*
X00547*
X00561Y03329*
Y03315*
X0054Y03293*
X00554Y03364D02*
X00568Y03378D01*
X00561Y03371*
X00604Y03329*
X00597Y03322*
X00611Y03336*
X00597Y03392D02*
Y03407D01*
X00611Y03421*
X00625*
X00632Y03414*
Y034*
X00625Y03392*
X00632Y034*
X00646*
X00653Y03392*
Y03378*
X00639Y03364*
X00625*
X00225Y0258D02*
X00165D01*
Y02609*
X00175Y02619*
X00195*
X00205Y02609*
Y0258*
X00175Y02679D02*
X00165Y02669D01*
Y02649*
X00175Y02639*
X00185*
X00195Y02649*
Y02669*
X00205Y02679*
X00215*
X00225Y02669*
Y02649*
X00215Y02639*
X00225Y02699D02*
X00165D01*
Y02729*
X00175Y02739*
X00195*
X00205Y02729*
Y02699*
X00165Y02759D02*
Y02779D01*
Y02769*
X00225*
Y02759*
Y02779*
Y02809D02*
Y02829D01*
Y02819*
X00165*
X00175Y02809*
X0067Y02924D02*
X0066Y02914D01*
Y02895*
X0067Y02885*
X0071*
X0072Y02895*
Y02914*
X0071Y02924*
X0069*
Y02904*
X0066Y02944D02*
X0072D01*
Y02974*
X0071Y02984*
X0067*
X0066Y02974*
Y02944*
X0071Y03004D02*
X0072Y03014D01*
Y03034*
X0071Y03044*
X0067*
X0066Y03034*
Y03014*
X0067Y03004*
X0068*
X0069Y03014*
Y03044*
X0067Y02649D02*
X0066Y02639D01*
Y0262*
X0067Y0261*
X0071*
X0072Y0262*
Y02639*
X0071Y02649*
X0069*
Y02629*
X0066Y02669D02*
X0072D01*
Y02699*
X0071Y02709*
X0067*
X0066Y02699*
Y02669*
X0067Y02729D02*
X0066Y02739D01*
Y02759*
X0067Y02769*
X0068*
X0069Y02759*
X007Y02769*
X0071*
X0072Y02759*
Y02739*
X0071Y02729*
X007*
X0069Y02739*
X0068Y02729*
X0067*
X0069Y02739D02*
Y02759D01*
X00675Y02359D02*
X00665Y02349D01*
Y0233*
X00675Y0232*
X00715*
X00725Y0233*
Y02349*
X00715Y02359*
X00695*
Y02339*
X00665Y02379D02*
X00725D01*
Y02409*
X00715Y02419*
X00675*
X00665Y02409*
Y02379*
Y02439D02*
Y02479D01*
X00675*
X00715Y02439*
X00725*
X01835Y02384D02*
X01825Y02374D01*
Y02355*
X01835Y02345*
X01875*
X01885Y02355*
Y02374*
X01875Y02384*
X01855*
Y02364*
X01825Y02404D02*
Y02424D01*
Y02414*
X01885*
Y02404*
Y02424*
Y02454D02*
Y02474D01*
Y02464*
X01825*
X01835Y02454*
X0183Y02649D02*
X0182Y02639D01*
Y0262*
X0183Y0261*
X0187*
X0188Y0262*
Y02639*
X0187Y02649*
X0185*
Y02629*
X0182Y02669D02*
Y02689D01*
Y02679*
X0188*
Y02669*
Y02689*
Y02759D02*
Y02719D01*
X0184Y02759*
X0183*
X0182Y02749*
Y02729*
X0183Y02719*
Y02939D02*
X0182Y02929D01*
Y0291*
X0183Y029*
X0187*
X0188Y0291*
Y02929*
X0187Y02939*
X0185*
Y02919*
X0182Y02959D02*
Y02979D01*
Y02969*
X0188*
Y02959*
Y02979*
X0183Y03009D02*
X0182Y03019D01*
Y03039*
X0183Y03049*
X0184*
X0185Y03039*
Y03029*
Y03039*
X0186Y03049*
X0187*
X0188Y03039*
Y03019*
X0187Y03009*
X01245Y03234D02*
X01235Y03224D01*
Y03205*
X01245Y03195*
X01285*
X01295Y03205*
Y03224*
X01285Y03234*
X01265*
Y03214*
X01235Y03254D02*
X01285D01*
X01295Y03264*
Y03284*
X01285Y03294*
X01235*
X01295Y03314D02*
Y03334D01*
Y03324*
X01235*
X01245Y03314*
Y03364D02*
X01235Y03374D01*
Y03394*
X01245Y03404*
X01285*
X01295Y03394*
Y03374*
X01285Y03364*
X01245*
X0125Y02934D02*
X0124Y02924D01*
Y02905*
X0125Y02895*
X0129*
X013Y02905*
Y02924*
X0129Y02934*
X0127*
Y02914*
X013Y02954D02*
X0126D01*
X0124Y02974*
X0126Y02994*
X013*
X0127*
Y02954*
X0124Y03054D02*
X0125Y03034D01*
X0127Y03014*
X0129*
X013Y03024*
Y03044*
X0129Y03054*
X0128*
X0127Y03044*
Y03014*
X0125Y02639D02*
X0124Y02629D01*
Y0261*
X0125Y026*
X0129*
X013Y0261*
Y02629*
X0129Y02639*
X0127*
Y02619*
X013Y02659D02*
X0126D01*
X0124Y02679*
X0126Y02699*
X013*
X0127*
Y02659*
X0124Y02759D02*
Y02719D01*
X0127*
X0126Y02739*
Y02749*
X0127Y02759*
X0129*
X013Y02749*
Y02729*
X0129Y02719*
X01245Y02359D02*
X01235Y02349D01*
Y0233*
X01245Y0232*
X01285*
X01295Y0233*
Y02349*
X01285Y02359*
X01265*
Y02339*
X01295Y02379D02*
X01255D01*
X01235Y02399*
X01255Y02419*
X01295*
X01265*
Y02379*
X01295Y02469D02*
X01235D01*
X01265Y02439*
Y02479*
X00095Y02239D02*
Y0219D01*
X00105Y0218*
X00124*
X00134Y0219*
Y02239*
X00154Y0218D02*
X00174D01*
X00164*
Y02239*
X00154Y02229*
X0039Y0102D02*
Y01059D01*
X00409Y01079*
X00429Y01059*
Y0102*
Y01049*
X0039*
X00449Y0102D02*
Y01079D01*
X00469Y01059*
X00489Y01079*
Y0102*
X00509D02*
Y01079D01*
X00539*
X00549Y01069*
Y01049*
X00539Y01039*
X00509*
X00569Y0102D02*
X00589D01*
X00579*
Y01079*
X00569Y01069*
X01124Y01209D02*
X01104D01*
X01114*
Y0116*
X01104Y0115*
X01095*
X01085Y0116*
X01184Y0115D02*
X01144D01*
X01184Y01189*
Y01199*
X01174Y01209*
X01154*
X01144Y01199*
X0179Y00245D02*
Y00304D01*
X01819*
X01829Y00294*
Y00274*
X01819Y00264*
X0179*
X01849Y00304D02*
Y00245D01*
Y00274*
X01889*
Y00304*
Y00245*
X01909D02*
Y00304D01*
X01939*
X01949Y00294*
Y00274*
X01939Y00264*
X01909*
M02*