%FSTAX23Y23*%
%MOIN*%
%SFA1B1*%

%IPPOS*%
%AMD15*
4,1,4,0.000000,0.047400,-0.047400,0.000000,0.000000,-0.047400,0.047400,0.000000,0.000000,0.047400,0.0*
%
%AMD18*
4,1,4,0.000000,0.039000,-0.039000,0.000000,0.000000,-0.039000,0.039000,0.000000,0.000000,0.039000,0.0*
%
%AMD20*
4,1,4,-0.047400,0.000000,0.000000,-0.047400,0.047400,0.000000,0.000000,0.047400,-0.047400,0.000000,0.0*
%
%AMD45*
4,1,8,-0.011500,0.015200,-0.011500,-0.015200,0.000000,-0.026700,0.000000,-0.026700,0.011500,-0.015200,0.011500,0.015200,0.000000,0.026700,0.000000,0.026700,-0.011500,0.015200,0.0*
1,1,0.023100,0.000000,0.015200*
1,1,0.023100,0.000000,-0.015200*
1,1,0.023100,0.000000,-0.015200*
1,1,0.023100,0.000000,0.015200*
%
%AMD58*
4,1,4,0.000000,0.026700,-0.026700,0.000000,0.000000,-0.026700,0.026700,0.000000,0.000000,0.026700,0.0*
%
%AMD68*
4,1,8,-0.010300,0.015000,-0.010300,-0.015000,-0.004700,-0.020500,0.004700,-0.020500,0.010300,-0.015000,0.010300,0.015000,0.004700,0.020500,-0.004700,0.020500,-0.010300,0.015000,0.0*
1,1,0.011160,-0.004700,0.015000*
1,1,0.011160,-0.004700,-0.015000*
1,1,0.011160,0.004700,-0.015000*
1,1,0.011160,0.004700,0.015000*
%
%AMD69*
4,1,8,-0.015000,-0.010300,0.015000,-0.010300,0.020500,-0.004700,0.020500,0.004700,0.015000,0.010300,-0.015000,0.010300,-0.020500,0.004700,-0.020500,-0.004700,-0.015000,-0.010300,0.0*
1,1,0.011160,-0.015000,-0.004700*
1,1,0.011160,0.015000,-0.004700*
1,1,0.011160,0.015000,0.004700*
1,1,0.011160,-0.015000,0.004700*
%
%ADD13R,0.067060X0.067060*%
%ADD14C,0.067060*%
G04~CAMADD=15~10~0.0~670.5~0.0~0.0~0.0~0.0~0~0.0~0.0~0.0~0.0~0~0.0~0.0~0.0~0.0~0~0.0~0.0~0.0~405.0~670.5~0.0*
%ADD15D15*%
%ADD16R,0.055240X0.055240*%
%ADD17C,0.055240*%
G04~CAMADD=18~10~0.0~552.5~0.0~0.0~0.0~0.0~0~0.0~0.0~0.0~0.0~0~0.0~0.0~0.0~0.0~0~0.0~0.0~0.0~405.0~552.5~0.0*
%ADD18D18*%
%ADD19R,0.067060X0.067060*%
G04~CAMADD=20~10~0.0~670.5~0.0~0.0~0.0~0.0~0~0.0~0.0~0.0~0.0~0~0.0~0.0~0.0~0.0~0~0.0~0.0~0.0~135.0~670.5~0.0*
%ADD20D20*%
%ADD21R,0.059500X0.059500*%
%ADD22C,0.059500*%
%ADD23O,0.068000X0.126110*%
%ADD24C,0.072960*%
%ADD25C,0.027690*%
%ADD44R,0.023100X0.053490*%
G04~CAMADD=45~8~0.0~0.0~534.9~231.0~115.5~0.0~15~0.0~0.0~0.0~0.0~0~0.0~0.0~0.0~0.0~0~0.0~0.0~0.0~90.0~230.0~533.0*
%ADD45D45*%
%ADD57R,0.038580X0.133860*%
G04~CAMADD=58~10~0.0~380.0~0.0~0.0~0.0~0.0~0~0.0~0.0~0.0~0.0~0~0.0~0.0~0.0~0.0~0~0.0~0.0~0.0~405.0~380.0~0.0*
%ADD58D58*%
%ADD59R,0.038000X0.038000*%
%ADD60R,0.063120X0.137920*%
%ADD61R,0.137920X0.063120*%
%ADD62R,0.077290X0.124140*%
%ADD63O,0.082800X0.025720*%
%ADD64R,0.038000X0.038000*%
%ADD65R,0.023750X0.045400*%
%ADD66R,0.102490X0.204850*%
%ADD67R,0.043430X0.039500*%
G04~CAMADD=68~8~0.0~0.0~410.7~206.0~55.8~0.0~15~0.0~0.0~0.0~0.0~0~0.0~0.0~0.0~0.0~0~0.0~0.0~0.0~90.0~206.0~411.0*
%ADD68D68*%
G04~CAMADD=69~8~0.0~0.0~410.7~206.0~55.8~0.0~15~0.0~0.0~0.0~0.0~0~0.0~0.0~0.0~0.0~0~0.0~0.0~0.0~180.0~411.0~206.0*
%ADD69D69*%
%ADD70R,0.114300X0.114300*%
%LNsolears_v3-1*%
%LPD*%
G54D13*
X0177Y01815D03*
X00104Y02426D03*
G54D14*
X0177Y01715D03*
X00509Y00755D03*
X0058Y00685D03*
X01374Y00381D03*
X01474D03*
X01574D03*
X01674D03*
X01774D03*
X01874D03*
X01974D03*
X01274D03*
X0085Y0043D03*
X01646Y03281D03*
X01576Y03351D03*
X01505Y03422D03*
X01434Y03493D03*
X01363Y03564D03*
X00353Y03281D03*
X00424Y03351D03*
X00495Y03422D03*
X00565Y03493D03*
X00636Y03564D03*
X00104Y02526D03*
Y02626D03*
Y02726D03*
Y02826D03*
Y02926D03*
X00174Y01181D03*
X00274D03*
X00374D03*
X00474D03*
X00674D03*
X00574D03*
X01374D03*
X01474D03*
X01574D03*
X01674D03*
X01774D03*
X01874Y00166D03*
X01974D03*
G54D15*
X00438Y00826D03*
X0092Y00359D03*
X01717Y0321D03*
G54D16*
X0165Y01275D03*
X0101D03*
G54D17*
X0135Y01275D03*
X0071D03*
X00529Y0098D03*
X006Y0091D03*
G54D18*
X00458Y01051D03*
G54D19*
X01174Y00381D03*
X00774Y01181D03*
X01274D03*
X01774Y00166D03*
G54D20*
X00283Y0321D03*
G54D21*
X00326Y02986D03*
Y02704D03*
Y02421D03*
X01474D03*
Y02704D03*
Y02986D03*
X00895Y03326D03*
X009Y02986D03*
Y02704D03*
Y02421D03*
G54D22*
X00405Y02986D03*
X00484D03*
X00562D03*
X00405Y02704D03*
X00484D03*
X00562D03*
X00405Y02421D03*
X00484D03*
X00562D03*
X01553D03*
X01632D03*
X0171D03*
X01553Y02704D03*
X01632D03*
X0171D03*
X01553Y02986D03*
X01632D03*
X0171D03*
X00974Y03326D03*
X01053D03*
X01132D03*
X00979Y02986D03*
X01058D03*
X01136D03*
X00979Y02704D03*
X01058D03*
X01136D03*
X00979Y02421D03*
X01058D03*
X01136D03*
G54D23*
X00239Y01461D03*
X00339D03*
X00439D03*
X00539D03*
X00639D03*
X00739D03*
X00839D03*
X00939D03*
X01039D03*
X01139D03*
X01239D03*
X01339D03*
X01439D03*
X01539D03*
X01639D03*
Y02061D03*
X01539D03*
X01439D03*
X01339D03*
X01239D03*
X01139D03*
X01039D03*
X00939D03*
X00839D03*
X00739D03*
X00639D03*
X00539D03*
X00439D03*
X00339D03*
X00239D03*
G54D24*
X00139Y01461D03*
Y02061D03*
X01739D03*
Y01461D03*
G54D25*
X00932Y00936D03*
X00889D03*
X00932Y00892D03*
X00889D03*
X00932Y00849D03*
X00889D03*
G54D44*
X00935Y00591D03*
X01295Y00988D03*
G54D45*
X00898Y00518D03*
X00971D03*
X01331Y01061D03*
X01258D03*
G54D57*
X01911Y00545D03*
X01818D03*
G54D58*
X00296Y00918D03*
X00335Y0088D03*
G54D59*
X01695Y01595D03*
X0164D03*
X01575D03*
X0152D03*
X0145D03*
X01395D03*
X0133D03*
X01275D03*
X0019Y01285D03*
X00245D03*
X0031Y01286D03*
X00365D03*
X01425Y00955D03*
X0137D03*
X01475Y01025D03*
X0142D03*
X01595D03*
X0154D03*
X00295Y01085D03*
X0035D03*
X00175D03*
X0023D03*
G54D60*
X00855Y0071D03*
X01004D03*
G54D61*
X0074Y0059D03*
Y00739D03*
X0114Y01157D03*
Y01007D03*
X009Y01179D03*
Y0103D03*
X01985Y0083D03*
Y00979D03*
G54D62*
X0091Y00892D03*
G54D63*
X00997Y00956D03*
Y00931D03*
Y00905D03*
Y0088D03*
Y00854D03*
Y00828D03*
X00824Y00956D03*
Y00931D03*
Y00905D03*
Y0088D03*
Y00854D03*
Y00828D03*
G54D64*
X01015Y01035D03*
Y0109D03*
Y0115D03*
Y01205D03*
X0173Y0095D03*
Y00895D03*
X0179Y0095D03*
Y00895D03*
X01595Y0071D03*
Y00765D03*
X01655Y007D03*
Y00645D03*
G54D65*
X01829Y01005D03*
X01855D03*
X0188D03*
Y01091D03*
X01855D03*
X01829D03*
G54D66*
X0113Y00675D03*
X0151D03*
G54D67*
X01655Y00832D03*
Y00777D03*
G54D68*
X01828Y00673D03*
X01802D03*
X01777D03*
X01751D03*
Y00826D03*
X01777D03*
X01802D03*
X01828D03*
G54D69*
X01866Y00788D03*
Y00762D03*
Y00737D03*
Y00711D03*
X01713D03*
Y00737D03*
Y00762D03*
Y00788D03*
G54D70*
X0179Y0075D03*
M02*