%FSTAX23Y23*%
%MOIN*%
%SFA1B1*%

%IPPOS*%
%ADD10C,0.009449*%
%ADD13C,0.007874*%
%ADD14C,0.005000*%
%ADD16C,0.004000*%
%ADD17C,0.003937*%
%ADD18C,0.010000*%
%ADD19C,0.001969*%
%ADD79C,0.019685*%
%ADD80C,0.015000*%
%ADD81R,0.059055X0.059055*%
%ADD82C,0.059055*%
%ADD83C,0.037401*%
%ADD84R,0.059055X0.059055*%
%ADD85C,0.019685*%
%ADD86O,0.070866X0.035433*%
%ADD87C,0.047244*%
%ADD88O,0.053150X0.017716*%
%ADD89R,0.053150X0.015748*%
%ADD90R,0.055118X0.062992*%
%ADD91R,0.074803X0.074803*%
%LNsolears_v1-1*%
%LPD*%
G36*
X02675Y03604D02*
X02902Y03377D01*
X02982Y03297*
X03014Y03265*
Y02215*
X03015Y02211*
X03017Y02207*
X03274Y0195*
Y01194*
X0309Y0101*
X01089*
X0101Y01084*
Y03505*
X01109Y03604*
X02675*
G37*
%LNsolears_v1-2*%
%LPC*%
G36*
X02385Y03454D02*
X02351D01*
Y0342*
X02385*
Y03454*
G37*
G36*
X02341D02*
X02306D01*
Y0342*
X02341*
Y03454*
G37*
G36*
X0173Y03455D02*
X01659D01*
Y03384*
X0173*
Y03455*
G37*
G36*
X011D02*
X01029D01*
Y03384*
X011*
Y03455*
G37*
G36*
X02686D02*
X02615D01*
Y03384*
X02686*
Y03455*
G37*
G36*
X01895Y03455D02*
X01885Y03454D01*
X01877Y0345*
X01869Y03445*
X01864Y03437*
X0186Y03429*
X01859Y0342*
X0186Y0341*
X01864Y03402*
X01869Y03394*
X01877Y03389*
X01885Y03385*
X01895Y03384*
X01904Y03385*
X01912Y03389*
X0192Y03394*
X01925Y03402*
X01929Y0341*
X0193Y0342*
X01929Y03429*
X01925Y03437*
X0192Y03445*
X01912Y0345*
X01904Y03454*
X01895Y03455*
G37*
G36*
X01795D02*
X01785Y03454D01*
X01777Y0345*
X01769Y03445*
X01764Y03437*
X0176Y03429*
X01759Y0342*
X0176Y0341*
X01764Y03402*
X01769Y03394*
X01777Y03389*
X01785Y03385*
X01795Y03384*
X01804Y03385*
X01812Y03389*
X0182Y03394*
X01825Y03402*
X01829Y0341*
X0183Y0342*
X01829Y03429*
X01825Y03437*
X0182Y03445*
X01812Y0345*
X01804Y03454*
X01795Y03455*
G37*
G36*
X01565D02*
X01555Y03454D01*
X01547Y0345*
X01539Y03445*
X01534Y03437*
X0153Y03429*
X01529Y0342*
X0153Y0341*
X01533Y03404*
X014Y0327*
X01367*
Y0327*
X01363Y0327*
X01359Y03267*
X01207Y03115*
X01204Y03111*
X01199Y03109*
X01199Y03109*
X01195Y03117*
X0119Y03125*
X01182Y0313*
X01174Y03134*
X01165Y03135*
X01155Y03134*
X01147Y0313*
X01139Y03125*
X01134Y03117*
X0113Y03109*
X01129Y031*
X0113Y0309*
X01133Y03084*
X01062Y03012*
X01059Y03009*
X01058Y03005*
Y02401*
X01058Y02401*
X01055Y02396*
X01053Y0239*
X01055Y02383*
X01058Y02378*
X01063Y02375*
X0107Y02373*
X01076Y02375*
X01081Y02378*
X01084Y02383*
X01086Y0239*
X01084Y02396*
X01081Y02401*
X01081Y02401*
Y03*
X01149Y03068*
X01155Y03065*
X01165Y03064*
X01174Y03065*
X01182Y03069*
X0119Y03074*
X01195Y03082*
X01198Y03089*
X01203Y03088*
Y02271*
X01203Y02271*
X01201Y02267*
X01195Y02265*
X01193Y02267*
X01189Y0227*
X01185Y02271*
X01171*
X01171Y02271*
X01166Y02274*
X0116Y02276*
X01155Y02275*
X0115Y02278*
Y02529*
X01167Y02546*
X0117Y0255*
X01171Y02554*
Y02828*
X01171Y02828*
X01174Y02833*
X01176Y0284*
X01174Y02846*
X01171Y02851*
X01166Y02854*
X0116Y02856*
X01153Y02854*
X01148Y02851*
X01145Y02846*
X01143Y0284*
X01145Y02833*
X01148Y02828*
X01148Y02828*
Y02559*
X01131Y02541*
X01128Y02538*
X01128Y02534*
Y02322*
X01123Y02319*
X01121Y02321*
Y02828*
X01121Y02828*
X01124Y02833*
X01126Y0284*
X01124Y02846*
X01121Y02851*
X01116Y02854*
X0111Y02856*
X01103Y02854*
X01098Y02851*
X01095Y02846*
X01093Y0284*
X01095Y02833*
X01098Y02828*
X01098Y02828*
Y02315*
X01099Y0231*
X01102Y02307*
X01112Y02297*
Y02244*
X01113Y0224*
X01115Y02236*
X01157Y02195*
X0116Y02192*
X01164Y02192*
X01526*
X01717Y02001*
X01715Y01996*
X01315*
X01311Y01995*
X01307Y01992*
X01216Y01901*
X01196*
X01196Y01901*
X01191Y01904*
X01185Y01906*
X01178Y01904*
X01173Y01901*
X0117Y01896*
X01168Y0189*
X0117Y01883*
X01173Y01878*
X01178Y01875*
X01185Y01873*
X01191Y01875*
X01196Y01878*
X01196Y01878*
X0122*
X01224Y01879*
X01228Y01882*
X0124Y01894*
X01246Y01892*
X01248Y01888*
X01253Y01885*
X0126Y01883*
X01266Y01885*
X01271Y01888*
X01271Y01888*
X01443*
X0147Y01861*
X01474Y01858*
X01478Y01858*
X01684*
X01688Y01858*
X01692Y01861*
X01734Y01904*
X01735Y01903*
X01741Y01905*
X01746Y01908*
X01749Y01913*
X01749Y01913*
X01754Y0191*
Y0187*
X0135Y01466*
X0135Y01466*
X01343Y01464*
X01338Y01461*
X01335Y01456*
X01333Y0145*
X01335Y01443*
X01338Y01438*
X01343Y01435*
X0135Y01433*
X01356Y01435*
X01361Y01438*
X01364Y01443*
X01366Y0145*
X01366Y0145*
X01378Y01462*
X01378Y01462*
X01382Y01459*
X01381Y01458*
X0138Y01456*
X01378Y0145*
X0138Y01443*
X01383Y01438*
X01388Y01435*
X01395Y01433*
X01401Y01435*
X01406Y01438*
X01409Y01443*
X01411Y0145*
X01411Y0145*
X01847Y01887*
X0185Y0189*
X01851Y01895*
Y0203*
X0185Y02034*
X01847Y02037*
X01666Y02219*
X01668Y02223*
X01676*
X01942Y01957*
X01946Y01954*
X0195Y01953*
X02064*
X02094Y01924*
X02092Y01919*
X02085*
Y01885*
X02119*
Y01892*
X02124Y01894*
X02203Y01814*
Y01805*
X02204Y01801*
X02207Y01797*
X02468Y01535*
Y0126*
X02444*
Y01189*
X02515*
Y0126*
X02491*
Y01531*
X02495Y01533*
X02734Y01295*
X02733Y01295*
X02735Y01288*
X02738Y01283*
X02743Y0128*
X0275Y01278*
X02756Y0128*
X02761Y01283*
X02764Y01288*
X02766Y01295*
X02764Y01301*
X02761Y01306*
X02756Y01309*
X0275Y01311*
X02749Y01311*
X02746Y01314*
X02748Y01319*
X0275Y01318*
X029*
X02901Y01318*
X02906Y01315*
X02908Y01314*
X02909Y01309*
X02907Y01307*
X02905Y01304*
X02904Y01299*
Y01287*
X02903Y01286*
X029Y01281*
X02898Y01275*
X029Y01268*
X02903Y01263*
X02908Y0126*
X02915Y01258*
X02921Y0126*
X02926Y01263*
X02929Y01268*
X02931Y01275*
X02929Y01281*
X02926Y01285*
Y01295*
X02941Y01309*
X02943Y01312*
X02944Y01317*
Y01354*
X02943Y01358*
X02941Y01361*
X0291Y01392*
X02906Y01395*
X02902Y01396*
X02729*
X0213Y01995*
X02132Y02*
X02135Y01999*
X02142Y02001*
X02149Y02005*
X02153Y02012*
X02154Y02015*
X02135*
Y0202*
X0213*
Y02039*
X02127Y02038*
X0212Y02034*
X02116Y02027*
X02114Y0202*
X02115Y02017*
X0211Y02015*
X01921Y02204*
Y02268*
X01921Y02268*
X01924Y02273*
X01926Y0228*
X01925Y02284*
X01928Y02289*
X02094*
X02577Y01807*
X0258Y01804*
X02585Y01803*
X0288*
X02909Y01775*
X02908Y01775*
X0291Y01768*
X02913Y01763*
X02918Y0176*
X02925Y01758*
X02931Y0176*
X02936Y01763*
X02939Y01768*
X02941Y01775*
X02939Y01781*
X02936Y01786*
X02931Y01789*
X02925Y01791*
X02924Y01791*
X02897Y01818*
X02899Y01823*
X02914*
X02918Y0182*
X02925Y01818*
X02931Y0182*
X02936Y01823*
X02939Y01828*
X02941Y01835*
X02939Y01841*
X02936Y01846*
X02931Y01849*
X02925Y01851*
X02918Y01849*
X02913Y01846*
X02912Y01845*
X02793*
X0279Y0185*
X02791Y01855*
X02789Y01861*
X02786Y01866*
X02781Y01869*
X02775Y01871*
X02768Y01869*
X02763Y01866*
X02763Y01866*
X02614*
X02155Y02325*
X02157Y0233*
X0216Y02329*
X02167Y02331*
X02174Y02335*
X02178Y02342*
X02179Y02345*
X02139*
X02138Y02344*
X02136Y02342*
X02132Y02343*
X01916*
X01914Y02348*
X01914Y02348*
X01916Y02355*
X01914Y02361*
X01911Y02366*
X01906Y02369*
X019Y02371*
X01893Y02369*
X01888Y02366*
X01888Y02366*
X01536*
X01532Y02365*
X01528Y02362*
X01451Y02286*
X01271*
X01271Y02286*
X01266Y02289*
X0126Y02291*
X01253Y02289*
X01248Y02286*
X01245Y02281*
X01243Y02275*
X01245Y02268*
X01248Y02263*
X01253Y0226*
X0126Y02258*
X01266Y0226*
X01271Y02263*
X01271Y02263*
X01456*
X0146Y02264*
X01464Y02267*
X0154Y02343*
X01706*
X01708Y02338*
X01665Y02296*
X01665Y02296*
X01658Y02294*
X01653Y02291*
X0165Y02286*
X01648Y0228*
X0165Y02273*
X01653Y02268*
X01658Y02265*
X01665Y02263*
X01671Y02265*
X01676Y02268*
X01679Y02273*
X01681Y0228*
X01681Y0228*
X01693Y02292*
X01693Y02292*
X01697Y02289*
X01696Y02288*
X01695Y02286*
X01693Y0228*
X01695Y02273*
X01698Y02268*
X01703Y02265*
X0171Y02263*
X0171Y02264*
X01722Y02251*
X01726Y02248*
X0173Y02248*
X01768*
X01772Y02248*
X01776Y02251*
X01792Y02267*
X01797Y02265*
X01798Y02263*
Y02246*
X01799Y02242*
X01802Y02239*
X0206Y0198*
X02058Y01976*
X01955*
X01893Y02037*
X01897Y02041*
X01898Y0204*
X01905Y02038*
X01911Y0204*
X01916Y02043*
X01919Y02048*
X01921Y02055*
X01919Y02061*
X01916Y02066*
X01896Y02086*
Y0211*
X01894Y02116*
X01891Y02121*
X01886Y02124*
X0188Y02126*
X01873Y02124*
X01868Y02121*
X01865Y02116*
X01863Y0211*
Y0208*
X01865Y02073*
X01866Y02072*
X01862Y02068*
X01688Y02242*
X01684Y02245*
X0168Y02246*
X0123*
X01228Y02251*
X01229Y02253*
X01231Y0226*
X01229Y02266*
X01226Y02271*
X01226Y02271*
Y03088*
X01231Y03089*
X01234Y03082*
X01239Y03074*
X01247Y03069*
X01255Y03065*
X01265Y03064*
X01274Y03065*
X01282Y03069*
X0129Y03074*
X01295Y03082*
X01299Y0309*
X013Y031*
X01299Y03109*
X01295Y03117*
X0129Y03125*
X01282Y0313*
X01274Y03134*
X01266Y03135*
X01263Y0314*
X01372Y03248*
X01404*
X01409Y03249*
X01412Y03251*
X01549Y03388*
X01555Y03385*
X01565Y03384*
X01574Y03385*
X01582Y03389*
X0159Y03394*
X01595Y03402*
X01599Y0341*
X016Y0342*
X01599Y03429*
X01595Y03437*
X0159Y03445*
X01582Y0345*
X01574Y03454*
X01565Y03455*
G37*
G36*
X01465D02*
X01455Y03454D01*
X01447Y0345*
X01439Y03445*
X01434Y03437*
X0143Y03429*
X01429Y0342*
X0143Y0341*
X01434Y03402*
X01439Y03394*
X01447Y03389*
X01455Y03385*
X01465Y03384*
X01474Y03385*
X01482Y03389*
X0149Y03394*
X01495Y03402*
X01499Y0341*
X015Y0342*
X01499Y03429*
X01495Y03437*
X0149Y03445*
X01482Y0345*
X01474Y03454*
X01465Y03455*
G37*
G36*
X01365D02*
X01355Y03454D01*
X01347Y0345*
X01339Y03445*
X01334Y03437*
X0133Y03429*
X01329Y0342*
X0133Y0341*
X01334Y03402*
X01339Y03394*
X01347Y03389*
X01355Y03385*
X01365Y03384*
X01374Y03385*
X01382Y03389*
X0139Y03394*
X01395Y03402*
X01399Y0341*
X014Y0342*
X01399Y03429*
X01395Y03437*
X0139Y03445*
X01382Y0345*
X01374Y03454*
X01365Y03455*
G37*
G36*
X01265D02*
X01255Y03454D01*
X01247Y0345*
X01239Y03445*
X01234Y03437*
X0123Y03429*
X01229Y0342*
X0123Y0341*
X01234Y03402*
X01239Y03394*
X01247Y03389*
X01255Y03385*
X01265Y03384*
X01274Y03385*
X01282Y03389*
X0129Y03394*
X01295Y03402*
X01299Y0341*
X013Y0342*
X01299Y03429*
X01295Y03437*
X0129Y03445*
X01282Y0345*
X01274Y03454*
X01265Y03455*
G37*
G36*
X01165D02*
X01155Y03454D01*
X01147Y0345*
X01139Y03445*
X01134Y03437*
X0113Y03429*
X01129Y0342*
X0113Y0341*
X01134Y03402*
X01139Y03394*
X01147Y03389*
X01155Y03385*
X01165Y03384*
X01174Y03385*
X01182Y03389*
X0119Y03394*
X01195Y03402*
X01199Y0341*
X012Y0342*
X01199Y03429*
X01195Y03437*
X0119Y03445*
X01182Y0345*
X01174Y03454*
X01165Y03455*
G37*
G36*
X02751D02*
X02742Y03454D01*
X02733Y0345*
X02726Y03445*
X0272Y03437*
X02716Y03429*
X02715Y0342*
X02716Y0341*
X0272Y03402*
X02726Y03394*
X02733Y03389*
X02742Y03385*
X02751Y03384*
X0276Y03385*
X02769Y03389*
X02776Y03394*
X02782Y03402*
X02785Y0341*
X02787Y0342*
X02785Y03429*
X02782Y03437*
X02776Y03445*
X02769Y0345*
X0276Y03454*
X02751Y03455*
G37*
G36*
X02246Y0345D02*
X02237Y03449D01*
X02228Y03445*
X02221Y0344*
X02215Y03432*
X02211Y03424*
X0221Y03415*
X02211Y03405*
X02215Y03397*
X02221Y03389*
X02228Y03384*
X02237Y0338*
X02246Y03379*
X02255Y0338*
X02264Y03384*
X02271Y03389*
X02277Y03397*
X0228Y03405*
X02282Y03415*
X0228Y03424*
X02277Y03432*
X02271Y0344*
X02264Y03445*
X02255Y03449*
X02246Y0345*
G37*
G36*
X02146D02*
X02137Y03449D01*
X02128Y03445*
X02121Y0344*
X02115Y03432*
X02111Y03424*
X0211Y03415*
X02111Y03405*
X02115Y03397*
X02121Y03389*
X02128Y03384*
X02137Y0338*
X02146Y03379*
X02155Y0338*
X02164Y03384*
X02171Y03389*
X02177Y03397*
X0218Y03405*
X02182Y03415*
X0218Y03424*
X02177Y03432*
X02171Y0344*
X02164Y03445*
X02155Y03449*
X02146Y0345*
G37*
G36*
X02385Y0341D02*
X02351D01*
Y03375*
X02385*
Y0341*
G37*
G36*
X02341D02*
X02306D01*
Y03375*
X02341*
Y0341*
G37*
G36*
X02516Y03287D02*
X0251Y03286D01*
X02504Y03282*
X02501Y03277*
X025Y03271*
X02501Y03265*
X02504Y03259*
X0251Y03256*
X02516Y03255*
X02522Y03256*
X02527Y03259*
X02531Y03265*
X02532Y03271*
X02531Y03277*
X02527Y03282*
X02522Y03286*
X02516Y03287*
G37*
G36*
X012Y0329D02*
X01129D01*
Y03219*
X012*
Y0329*
G37*
G36*
X01065Y0329D02*
X01055Y03289D01*
X01047Y03285*
X01039Y0328*
X01034Y03272*
X0103Y03264*
X01029Y03255*
X0103Y03245*
X01034Y03237*
X01039Y03229*
X01047Y03224*
X01055Y0322*
X01065Y03219*
X01074Y0322*
X01082Y03224*
X0109Y03229*
X01095Y03237*
X01099Y03245*
X011Y03255*
X01099Y03264*
X01095Y03272*
X0109Y0328*
X01082Y03285*
X01074Y03289*
X01065Y0329*
G37*
G36*
X02557Y03246D02*
X02551Y03244D01*
X02546Y03241*
X02542Y03236*
X02541Y0323*
X02542Y03223*
X02546Y03218*
X02551Y03215*
X02557Y03213*
X02563Y03215*
X02569Y03218*
X02572Y03223*
X02573Y0323*
X02572Y03236*
X02569Y03241*
X02563Y03244*
X02557Y03246*
G37*
G36*
X02516D02*
X0251Y03244D01*
X02504Y03241*
X02501Y03236*
X025Y0323*
X02501Y03223*
X02504Y03218*
X0251Y03215*
X02516Y03213*
X02522Y03215*
X02527Y03218*
X02531Y03223*
X02532Y0323*
X02531Y03236*
X02527Y03241*
X02522Y03244*
X02516Y03246*
G37*
G36*
X02475D02*
X02468Y03244D01*
X02463Y03241*
X0246Y03236*
X02458Y0323*
X0246Y03223*
X02463Y03218*
X02468Y03215*
X02475Y03213*
X02481Y03215*
X02486Y03218*
X02489Y03223*
X02491Y0323*
X02489Y03236*
X02486Y03241*
X02481Y03244*
X02475Y03246*
G37*
G36*
X0212Y0328D02*
X02049D01*
Y03209*
X0212*
Y0328*
G37*
G36*
X01985Y0328D02*
X01975Y03279D01*
X01967Y03275*
X01959Y0327*
X01954Y03262*
X0195Y03254*
X01949Y03245*
X0195Y03235*
X01954Y03227*
X01959Y03219*
X01967Y03214*
X01975Y0321*
X01985Y03209*
X01994Y0321*
X02002Y03214*
X0201Y03219*
X02015Y03227*
X02019Y03235*
X0202Y03245*
X02019Y03254*
X02015Y03262*
X0201Y0327*
X02002Y03275*
X01994Y03279*
X01985Y0328*
G37*
G36*
X01885D02*
X01875Y03279D01*
X01867Y03275*
X01859Y0327*
X01854Y03262*
X0185Y03254*
X01849Y03245*
X0185Y03235*
X01854Y03227*
X01859Y03219*
X01867Y03214*
X01875Y0321*
X01885Y03209*
X01894Y0321*
X01902Y03214*
X0191Y03219*
X01915Y03227*
X01919Y03235*
X0192Y03245*
X01919Y03254*
X01915Y03262*
X0191Y0327*
X01902Y03275*
X01894Y03279*
X01885Y0328*
G37*
G36*
X02516Y03204D02*
X0251Y03203D01*
X02504Y032*
X02501Y03194*
X025Y03188*
X02501Y03182*
X02504Y03177*
X0251Y03173*
X02516Y03172*
X02522Y03173*
X02527Y03177*
X02531Y03182*
X02532Y03188*
X02531Y03194*
X02527Y032*
X02522Y03203*
X02516Y03204*
G37*
G36*
X02645Y03186D02*
X02638Y03184D01*
X02633Y03181*
X0263Y03176*
X02628Y0317*
X02629Y03169*
X02558Y03099*
X02556Y03096*
X02555Y03091*
Y03085*
X0249*
Y03014*
X02543*
X02545Y03009*
X02401Y02866*
X01281*
X01281Y02866*
X01276Y02869*
X0127Y02871*
X01263Y02869*
X01258Y02866*
X01255Y02861*
X01253Y02855*
X01255Y02848*
X01258Y02843*
X01263Y0284*
X0127Y02838*
X01276Y0284*
X01281Y02843*
X01281Y02843*
X02133*
X02134Y0284*
X02135Y02838*
X02131Y02832*
X0213Y0283*
X02169*
X02168Y02832*
X02164Y02838*
X02165Y0284*
X02166Y02843*
X02405*
X0241Y02844*
X02413Y02847*
X02574Y03008*
X02577Y03011*
X02577Y03015*
Y03087*
X02644Y03154*
X02645Y03153*
X02651Y03155*
X02656Y03158*
X02659Y03163*
X02661Y0317*
X02659Y03176*
X02656Y03181*
X02651Y03184*
X02645Y03186*
G37*
G36*
X0228Y03136D02*
X02273Y03134D01*
X02268Y03131*
X02268Y03131*
X02254*
X02249Y0313*
X02246Y03127*
X02188Y0307*
X02186Y03066*
X02181Y03064*
X0218Y03064*
X02177Y03072*
X02171Y0308*
X02164Y03085*
X02155Y03089*
X02146Y0309*
X02137Y03089*
X02128Y03085*
X02121Y0308*
X02115Y03072*
X02114Y03071*
X01985*
X01978Y03069*
X01973Y03066*
X0197Y03061*
X01968Y03055*
X0197Y03048*
X01973Y03043*
X01978Y0304*
X01985Y03038*
X02114*
X02115Y03037*
X0212Y0303*
X02118Y03025*
X01796*
X01796Y03026*
X01791Y03029*
X01785Y03031*
X01778Y03029*
X01773Y03026*
X0177Y03021*
X01768Y03015*
X0177Y03008*
X01773Y03003*
X01778Y03*
X01785Y02998*
X01791Y03*
X01796Y03003*
X02163*
X02167Y03004*
X0217Y03006*
X02204Y03039*
X02206Y03043*
X02211Y03045*
X02212Y03045*
X02215Y03037*
X02221Y03029*
X02228Y03024*
X02237Y0302*
X02246Y03019*
X02255Y0302*
X02264Y03024*
X02271Y03029*
X02277Y03037*
X0228Y03045*
X02282Y03055*
X0228Y03064*
X02277Y03072*
X02271Y0308*
X02264Y03085*
X02255Y03089*
X02247Y0309*
X02245Y03095*
X02258Y03108*
X02268*
X02268Y03108*
X02273Y03105*
X0228Y03103*
X02286Y03105*
X02291Y03108*
X02294Y03113*
X02296Y0312*
X02294Y03126*
X02291Y03131*
X02286Y03134*
X0228Y03136*
G37*
G36*
X0247Y03144D02*
Y0313D01*
X02484*
X02483Y03132*
X02479Y03139*
X02472Y03143*
X0247Y03144*
G37*
G36*
X0246D02*
X02457Y03143D01*
X0245Y03139*
X02446Y03132*
X02445Y0313*
X0246*
Y03144*
G37*
G36*
X02484Y0312D02*
X0247D01*
Y03105*
X02472Y03106*
X02479Y0311*
X02483Y03117*
X02484Y0312*
G37*
G36*
X0246D02*
X02445D01*
X02446Y03117*
X0245Y0311*
X02457Y03106*
X0246Y03105*
Y0312*
G37*
G36*
X01504Y03139D02*
X0147D01*
Y03105*
X01504*
Y03139*
G37*
G36*
X0146D02*
X01425D01*
Y03105*
X0146*
Y03139*
G37*
G36*
X02816Y03155D02*
X02745D01*
Y03084*
X02816*
Y03155*
G37*
G36*
X02881Y03155D02*
X02872Y03154D01*
X02863Y0315*
X02856Y03145*
X0285Y03137*
X02846Y03129*
X02845Y0312*
X02846Y0311*
X0285Y03102*
X02856Y03094*
X02863Y03089*
X02872Y03085*
X02881Y03084*
X0289Y03085*
X02899Y03089*
X02906Y03094*
X02912Y03102*
X02915Y0311*
X02917Y0312*
X02915Y03129*
X02912Y03137*
X02906Y03145*
X02899Y0315*
X0289Y03154*
X02881Y03155*
G37*
G36*
X01365Y03135D02*
X01355Y03134D01*
X01347Y0313*
X01339Y03125*
X01334Y03117*
X0133Y03109*
X01329Y031*
X0133Y0309*
X01334Y03082*
X01339Y03074*
X01347Y03069*
X01355Y03065*
X01365Y03064*
X01374Y03065*
X01382Y03069*
X0139Y03074*
X01395Y03082*
X01399Y0309*
X014Y031*
X01399Y03109*
X01395Y03117*
X0139Y03125*
X01382Y0313*
X01374Y03134*
X01365Y03135*
G37*
G36*
X01065D02*
X01055Y03134D01*
X01047Y0313*
X01039Y03125*
X01034Y03117*
X0103Y03109*
X01029Y031*
X0103Y0309*
X01034Y03082*
X01039Y03074*
X01047Y03069*
X01055Y03065*
X01065Y03064*
X01074Y03065*
X01082Y03069*
X0109Y03074*
X01095Y03082*
X01099Y0309*
X011Y031*
X01099Y03109*
X01095Y03117*
X0109Y03125*
X01082Y0313*
X01074Y03134*
X01065Y03135*
G37*
G36*
X01504Y03095D02*
X0147D01*
Y0306*
X01504*
Y03095*
G37*
G36*
X0146D02*
X01425D01*
Y0306*
X0146*
Y03095*
G37*
G36*
X02385Y03094D02*
X02351D01*
Y0306*
X02385*
Y03094*
G37*
G36*
X02341D02*
X02306D01*
Y0306*
X02341*
Y03094*
G37*
G36*
X02385Y0305D02*
X02351D01*
Y03015*
X02385*
Y0305*
G37*
G36*
X02341D02*
X02306D01*
Y03015*
X02341*
Y0305*
G37*
G36*
X02626Y03085D02*
X02617Y03084D01*
X02608Y0308*
X02601Y03075*
X02595Y03067*
X02591Y03059*
X0259Y0305*
X02591Y0304*
X02595Y03032*
X02601Y03024*
X02608Y03019*
X02617Y03015*
X02626Y03014*
X02635Y03015*
X02644Y03019*
X02651Y03024*
X02657Y03032*
X0266Y0304*
X02662Y0305*
X0266Y03059*
X02657Y03067*
X02651Y03075*
X02644Y0308*
X02635Y03084*
X02626Y03085*
G37*
G36*
X02169Y0282D02*
X02155D01*
Y02805*
X02157Y02806*
X02164Y0281*
X02168Y02817*
X02169Y0282*
G37*
G36*
X02145D02*
X0213D01*
X02131Y02817*
X02135Y0281*
X02142Y02806*
X02145Y02805*
Y0282*
G37*
G36*
X0215Y02709D02*
Y02695D01*
X02164*
X02163Y02697*
X02159Y02704*
X02152Y02708*
X0215Y02709*
G37*
G36*
X0214D02*
X02137Y02708D01*
X0213Y02704*
X02126Y02697*
X02125Y02695*
X0214*
Y02709*
G37*
G36*
X02164Y02685D02*
X0215D01*
Y0267*
X02152Y02671*
X02159Y02675*
X02163Y02682*
X02164Y02685*
G37*
G36*
X0214D02*
X02125D01*
X02126Y02682*
X0213Y02675*
X02137Y02671*
X0214Y0267*
Y02685*
G37*
G36*
X0283Y0269D02*
X0282Y02688D01*
X02812Y02682*
X02806Y02674*
X02804Y02665*
X02806Y02655*
X02812Y02647*
X0282Y02641*
X0283Y02639*
X02839Y02641*
X02847Y02647*
X02853Y02655*
X02855Y02665*
X02853Y02674*
X02847Y02682*
X02839Y02688*
X0283Y0269*
G37*
G36*
X02155Y02589D02*
Y02575D01*
X02169*
X02168Y02577*
X02164Y02584*
X02157Y02588*
X02155Y02589*
G37*
G36*
X02145D02*
X02142Y02588D01*
X02135Y02584*
X02131Y02577*
X0213Y02575*
X02145*
Y02589*
G37*
G36*
X02169Y02565D02*
X02155D01*
Y0255*
X02157Y02551*
X02164Y02555*
X02168Y02562*
X02169Y02565*
G37*
G36*
X02145D02*
X0213D01*
X02131Y02562*
X02135Y02555*
X02142Y02551*
X02145Y0255*
Y02565*
G37*
G36*
X0216Y02469D02*
Y02455D01*
X02174*
X02173Y02457*
X02169Y02464*
X02162Y02468*
X0216Y02469*
G37*
G36*
X0215D02*
X02147Y02468D01*
X0214Y02464*
X02136Y02457*
X02135Y02455*
X0215*
Y02469*
G37*
G36*
X02085Y02461D02*
X02078Y02459D01*
X02073Y02456*
X02072Y02454*
X01587*
X01583Y02457*
X01577Y02458*
X01571Y02457*
X01566Y02453*
X01562Y02448*
X01561Y02442*
X01562Y02436*
X01566Y02431*
X01571Y02427*
X01577Y02426*
X01583Y02427*
X01588Y02431*
X01589Y02432*
X02075*
X02078Y0243*
X02085Y02428*
X02091Y0243*
X02096Y02433*
X02099Y02438*
X02101Y02445*
X02099Y02451*
X02096Y02456*
X02091Y02459*
X02085Y02461*
G37*
G36*
X02174Y02445D02*
X0216D01*
Y0243*
X02162Y02431*
X02169Y02435*
X02173Y02442*
X02174Y02445*
G37*
G36*
X0215D02*
X02135D01*
X02136Y02442*
X0214Y02435*
X02147Y02431*
X0215Y0243*
Y02445*
G37*
G36*
X0283Y02422D02*
X0282Y0242D01*
X02812Y02415*
X02806Y02406*
X02804Y02397*
X02806Y02387*
X02812Y02379*
X0282Y02374*
X0283Y02372*
X02839Y02374*
X02847Y02379*
X02853Y02387*
X02855Y02397*
X02853Y02406*
X02847Y02415*
X02839Y0242*
X0283Y02422*
G37*
G36*
X02165Y02369D02*
Y02355D01*
X02179*
X02178Y02357*
X02174Y02364*
X02167Y02368*
X02165Y02369*
G37*
G36*
X02155D02*
X02152Y02368D01*
X02145Y02364*
X02141Y02357*
X0214Y02355*
X02155*
Y02369*
G37*
G36*
X02677Y02661D02*
X02518D01*
X02513Y02659*
X02511Y02655*
Y02253*
X02513Y02249*
X02518Y02247*
X02677*
X02682Y02249*
X02684Y02253*
Y02655*
X02682Y02659*
X02677Y02661*
G37*
G36*
X0216Y02189D02*
Y02175D01*
X02174*
X02173Y02177*
X02169Y02184*
X02162Y02188*
X0216Y02189*
G37*
G36*
X0215D02*
X02147Y02188D01*
X0214Y02184*
X02136Y02177*
X02135Y02175*
X0215*
Y02189*
G37*
G36*
X02174Y02165D02*
X0216D01*
Y0215*
X02162Y02151*
X02169Y02155*
X02173Y02162*
X02174Y02165*
G37*
G36*
X0215D02*
X02135D01*
X02136Y02162*
X0214Y02155*
X02147Y02151*
X0215Y0215*
Y02165*
G37*
G36*
X01425Y02129D02*
Y02115D01*
X01439*
X01438Y02117*
X01434Y02124*
X01427Y02128*
X01425Y02129*
G37*
G36*
X01415D02*
X01412Y02128D01*
X01405Y02124*
X01401Y02117*
X014Y02115*
X01415*
Y02129*
G37*
G36*
X01439Y02105D02*
X01425D01*
Y0209*
X01427Y02091*
X01434Y02095*
X01438Y02102*
X01439Y02105*
G37*
G36*
X01415D02*
X014D01*
X01401Y02102*
X01405Y02095*
X01412Y02091*
X01415Y0209*
Y02105*
G37*
G36*
X0214Y02039D02*
Y02025D01*
X02154*
X02153Y02027*
X02149Y02034*
X02142Y02038*
X0214Y02039*
G37*
G36*
X0105Y01969D02*
Y01955D01*
X01064*
X01063Y01957*
X01059Y01964*
X01052Y01968*
X0105Y01969*
G37*
G36*
X0104D02*
X01037Y01968D01*
X0103Y01964*
X01026Y01957*
X01025Y01955*
X0104*
Y01969*
G37*
G36*
X01064Y01945D02*
X0105D01*
Y0193*
X01052Y01931*
X01059Y01935*
X01063Y01942*
X01064Y01945*
G37*
G36*
X0104D02*
X01025D01*
X01026Y01942*
X0103Y01935*
X01037Y01931*
X0104Y0193*
Y01945*
G37*
G36*
X02075Y01919D02*
X0204D01*
Y01885*
X02075*
Y01919*
G37*
G36*
X0198Y01915D02*
X0197Y01914D01*
X01962Y0191*
X01954Y01905*
X01949Y01897*
X01945Y01889*
X01944Y0188*
X01945Y0187*
X01949Y01862*
X01954Y01854*
X01962Y01849*
X0197Y01845*
X0198Y01844*
X01989Y01845*
X01997Y01849*
X02005Y01854*
X0201Y01862*
X02014Y0187*
X02015Y0188*
X02014Y01889*
X0201Y01897*
X02005Y01905*
X01997Y0191*
X01989Y01914*
X0198Y01915*
G37*
G36*
X02119Y01875D02*
X02085D01*
Y0184*
X02119*
Y01875*
G37*
G36*
X02075D02*
X0204D01*
Y0184*
X02075*
Y01875*
G37*
G36*
X0321Y0189D02*
X03139D01*
Y01819*
X0321*
Y0189*
G37*
G36*
X02124Y01789D02*
X0209D01*
Y01755*
X02124*
Y01789*
G37*
G36*
X0208D02*
X02045D01*
Y01755*
X0208*
Y01789*
G37*
G36*
X03175Y0179D02*
X03165Y01789D01*
X03157Y01785*
X03149Y0178*
X03144Y01772*
X0314Y01764*
X03139Y01755*
X0314Y01745*
X03144Y01737*
X03149Y01729*
X03157Y01724*
X03165Y0172*
X03175Y01719*
X03184Y0172*
X03192Y01724*
X032Y01729*
X03205Y01737*
X03209Y01745*
X0321Y01755*
X03209Y01764*
X03205Y01772*
X032Y0178*
X03192Y01785*
X03184Y01789*
X03175Y0179*
G37*
G36*
X02124Y01745D02*
X0209D01*
Y0171*
X02124*
Y01745*
G37*
G36*
X0208D02*
X02045D01*
Y0171*
X0208*
Y01745*
G37*
G36*
X01095Y01745D02*
X01085Y01744D01*
X01077Y0174*
X01069Y01735*
X01064Y01727*
X0106Y01719*
X01059Y0171*
X0106Y017*
X01064Y01692*
X01069Y01684*
X01077Y01679*
X01085Y01675*
X01095Y01674*
X01104Y01675*
X01112Y01679*
X0112Y01684*
X01125Y01692*
X01129Y017*
X0113Y0171*
X01129Y01719*
X01125Y01727*
X0112Y01735*
X01112Y0174*
X01104Y01744*
X01095Y01745*
G37*
G36*
X02085Y01685D02*
X02075Y01684D01*
X02067Y0168*
X02059Y01675*
X02054Y01667*
X0205Y01659*
X02049Y0165*
X0205Y0164*
X02054Y01632*
X02059Y01624*
X02067Y01619*
X02075Y01615*
X02085Y01614*
X02094Y01615*
X02102Y01619*
X0211Y01624*
X02115Y01632*
X02119Y0164*
X0212Y0165*
X02119Y01659*
X02115Y01667*
X0211Y01675*
X02102Y0168*
X02094Y01684*
X02085Y01685*
G37*
G36*
X01095Y01645D02*
X01085Y01644D01*
X01077Y0164*
X01069Y01635*
X01064Y01627*
X0106Y01619*
X01059Y0161*
X0106Y016*
X01064Y01592*
X01069Y01584*
X01077Y01579*
X01085Y01575*
X01095Y01574*
X01104Y01575*
X01112Y01579*
X0112Y01584*
X01125Y01592*
X01129Y016*
X0113Y0161*
X01129Y01619*
X01125Y01627*
X0112Y01635*
X01112Y0164*
X01104Y01644*
X01095Y01645*
G37*
G36*
X0113Y01545D02*
X01059D01*
Y01474*
X0113*
Y01545*
G37*
G36*
X02195Y01464D02*
X02187Y01463D01*
X0218Y0146*
X02173Y01456*
X02169Y01449*
X02166Y01442*
X02165Y01435*
X02166Y01427*
X02169Y0142*
X02173Y01413*
X0218Y01409*
X02187Y01406*
X02195Y01405*
X02202Y01406*
X02209Y01409*
X02216Y01413*
X0222Y0142*
X02223Y01427*
X02224Y01435*
X02223Y01442*
X0222Y01449*
X02216Y01456*
X02209Y0146*
X02202Y01463*
X02195Y01464*
G37*
G36*
X0138Y01347D02*
X01369D01*
X01369Y01347*
X01369Y01346*
X0137Y01346*
X0137Y01346*
X01371Y01345*
X01371Y01345*
X01371Y01345*
X01371Y01345*
X01372Y01345*
X01372Y01345*
X01373Y01345*
X01373Y01345*
X01374Y01344*
X01375*
X01375Y01345*
X01375*
X01375Y01345*
X01376Y01345*
X01377Y01345*
X01378Y01345*
X01379Y01346*
X01379Y01346*
X01379Y01346*
X01379Y01346*
X01379Y01346*
X0138Y01346*
X0138Y01346*
X0138Y01347*
X0138Y01347*
X0138Y01347*
G37*
G36*
X01209Y01444D02*
X01142D01*
Y01369*
X01171*
Y01346*
X01152*
Y01343*
X01122*
Y01371*
X01095*
Y01387*
X01097*
X01106Y01388*
X01114Y01394*
X01119Y01401*
X01121Y01411*
X01119Y0142*
X01114Y01428*
X01106Y01433*
X01097Y01435*
X01061*
X01052Y01433*
X01044Y01428*
X01039Y0142*
X01037Y01411*
X01039Y01401*
X01044Y01394*
X01052Y01388*
X01061Y01387*
X01063*
Y01371*
X01036*
Y01285*
X01068*
Y01277*
X01036*
Y0119*
X01063*
Y01175*
X01061*
X01052Y01173*
X01044Y01168*
X01039Y0116*
X01037Y01151*
X01039Y01142*
X01044Y01134*
X01052Y01129*
X01061Y01127*
X01097*
X01106Y01129*
X01114Y01134*
X01119Y01142*
X0112Y01146*
X01126Y01148*
X01127Y01147*
X0113Y01144*
X01135Y01144*
X01142*
Y01117*
X01209*
Y01139*
X01239*
X0124Y01138*
X01246Y0114*
X01251Y01143*
X01254Y01148*
X01256Y01155*
X01254Y01161*
X01251Y01166*
X01251Y01166*
X01245Y0117*
X01239Y01171*
X01209*
Y01192*
X01142*
Y0117*
X01137Y01168*
X01123Y01182*
Y01201*
X01122Y01202*
Y01277*
X0109*
Y01285*
X01122*
Y01321*
X01152*
Y01292*
Y01267*
Y01241*
Y01216*
X01217*
Y01218*
X01243*
X01243Y01218*
X01248Y01215*
X01255Y01213*
X01261Y01215*
X01266Y01218*
X01266Y01218*
X013*
X01305Y01219*
X01308Y01222*
X01333Y01246*
X01336Y01247*
X01338Y01246*
X01339Y01246*
X01343Y01243*
X01349Y01242*
X01385*
X0139Y01243*
X01395Y01246*
X01398Y01251*
X014Y01257*
X01398Y01263*
X01395Y01268*
X0139Y01271*
X01385Y01272*
X01352*
X01349Y01277*
X01351Y01279*
X01385*
X0139Y01281*
X01395Y01284*
X01398Y01289*
X014Y01295*
X01398Y013*
X01395Y01305*
X0139Y01308*
X01385Y0131*
X01349*
X01343Y01308*
X01338Y01305*
X01335Y013*
X01334Y01295*
X01318Y01279*
X01315Y01275*
X01314Y01271*
X01314Y0127*
X01309Y01269*
X01306Y01271*
X013Y01272*
X01264*
X01259Y01271*
X01255Y01269*
X01242*
X01241Y01269*
X01235Y01271*
X01228Y01269*
X01226Y01274*
X01226Y01274*
X01236Y01284*
X01241Y01285*
X01246Y01288*
X01246Y01288*
X01251Y01287*
X01254Y01284*
X01259Y01281*
X01264Y01279*
X013*
X01306Y01281*
X01311Y01284*
X01314Y01289*
X01315Y01294*
X01328Y01306*
X0133Y0131*
X01331Y01314*
Y01324*
X01332Y01325*
X01336Y01325*
X01338Y01321*
X01343Y01318*
X01349Y01317*
X01385*
X0139Y01318*
X01395Y01321*
X01398Y01326*
X014Y01332*
X01398Y01338*
X01396Y01342*
X01388*
Y01342*
Y01342*
Y01342*
X01388Y01343*
X01388Y01343*
X01388Y01343*
X01388Y01344*
X01389Y01344*
Y01344*
X01389Y01344*
X01389Y01344*
X01389Y01345*
X01389Y01345*
X01389Y01346*
X0139Y01346*
X01385Y01347*
X01384*
X01384Y01347*
X01383Y01346*
Y01346*
X01383Y01346*
X01383Y01346*
X01383Y01346*
X01383Y01346*
X01383Y01345*
X01382Y01345*
X01382Y01344*
X01381Y01343*
X0138Y01343*
X0138*
X0138Y01343*
X0138Y01343*
X0138Y01343*
X0138Y01343*
X01379Y01342*
X01379Y01342*
X01379Y01342*
X01378Y01342*
X01378Y01342*
X01377Y01342*
X01377Y01342*
X01376Y01342*
X01376Y01342*
X01374Y01341*
X01374*
X01374Y01342*
X01374*
X01373Y01342*
X01373Y01342*
X01372Y01342*
X01371Y01342*
X01371Y01342*
X0137Y01342*
X01369Y01343*
X01369*
X01369Y01343*
X01368Y01343*
X01368Y01343*
X01368Y01343*
X01367Y01344*
X01367Y01344*
X01366Y01345*
X01366Y01345*
X01365Y01346*
Y01346*
X01365Y01346*
X01365Y01346*
X01365Y01347*
X01365Y01347*
X01365Y01347*
X01349*
X01343Y01346*
X01338Y01343*
X01336Y01339*
X01332Y01339*
X01331Y01339*
Y0134*
X0133Y01344*
X01328Y01348*
X01313Y01362*
X0131Y01365*
X01305Y01366*
X01226*
X01222Y01365*
X01218Y01362*
X01201Y01346*
X01193*
Y01369*
X01209*
Y01444*
G37*
G36*
X032Y014D02*
X03129D01*
Y01329*
X032*
Y014*
G37*
G36*
X03165Y013D02*
X03155Y01299D01*
X03147Y01295*
X03139Y0129*
X03134Y01282*
X0313Y01274*
X03129Y01265*
X0313Y01255*
X03134Y01247*
X03139Y01239*
X03147Y01234*
X03155Y0123*
X03165Y01229*
X03174Y0123*
X03182Y01234*
X0319Y01239*
X03195Y01247*
X03199Y01255*
X032Y01265*
X03199Y01274*
X03195Y01282*
X0319Y0129*
X03182Y01295*
X03174Y01299*
X03165Y013*
G37*
G36*
X0258Y0126D02*
X0257Y01259D01*
X02562Y01255*
X02554Y0125*
X02549Y01242*
X02545Y01234*
X02544Y01225*
X02545Y01215*
X02549Y01207*
X02554Y01199*
X02562Y01194*
X0257Y0119*
X0258Y01189*
X02589Y0119*
X02597Y01194*
X02605Y01199*
X0261Y01207*
X02614Y01215*
X02615Y01225*
X02614Y01234*
X0261Y01242*
X02605Y0125*
X02597Y01255*
X02589Y01259*
X0258Y0126*
G37*
G36*
X02425Y01144D02*
Y0113D01*
X02439*
X02438Y01132*
X02434Y01139*
X02427Y01143*
X02425Y01144*
G37*
G36*
X02415D02*
X02412Y01143D01*
X02405Y01139*
X02401Y01132*
X024Y0113*
X02415*
Y01144*
G37*
G36*
X0173Y01241D02*
X01723Y01239D01*
X01718Y01236*
X01715Y01231*
X01713Y01225*
X01715Y01218*
X01718Y01213*
X01803Y01128*
X01808Y01125*
X01815Y01123*
X01845*
X01851Y01125*
X01856Y01128*
X01859Y01133*
X01861Y0114*
X01859Y01146*
X01856Y01151*
X01851Y01154*
X01845Y01156*
X01821*
X01741Y01236*
X01736Y01239*
X01735Y0124*
X0173Y01241*
G37*
G36*
X02439Y0112D02*
X02425D01*
Y01105*
X02427Y01106*
X02434Y0111*
X02438Y01117*
X02439Y0112*
G37*
G36*
X02415D02*
X024D01*
X02401Y01117*
X02405Y0111*
X02412Y01106*
X02415Y01105*
Y0112*
G37*
G36*
X02195Y01164D02*
X02187Y01163D01*
X0218Y0116*
X02173Y01156*
X02169Y01149*
X02166Y01142*
X02165Y01135*
X02166Y01127*
X02169Y0112*
X02173Y01113*
X0218Y01109*
X02187Y01106*
X02195Y01105*
X02202Y01106*
X02209Y01109*
X02216Y01113*
X0222Y0112*
X02223Y01127*
X02224Y01135*
X02223Y01142*
X0222Y01149*
X02216Y01156*
X02209Y0116*
X02202Y01163*
X02195Y01164*
G37*
%LNsolears_v1-3*%
%LPD*%
G54D10*
X02342Y02657D02*
D01*
X02342Y02657*
X02342Y02657*
X02342Y02658*
X02342Y02658*
X02342Y02658*
X02342Y02659*
X02342Y02659*
X02341Y02659*
X02341Y02659*
X02341Y0266*
X02341Y0266*
X02341Y0266*
X0234Y0266*
X0234Y02661*
X0234Y02661*
X02339Y02661*
X02339Y02661*
X02339Y02661*
X02339Y02661*
X02338Y02661*
X02338Y02661*
X02338Y02661*
X02337*
X02337Y02661*
X02337Y02661*
X02336Y02661*
X02336Y02661*
X02336Y02661*
X02335Y02661*
X02335Y02661*
X02335Y02661*
X02334Y0266*
X02334Y0266*
X02334Y0266*
X02334Y0266*
X02334Y02659*
X02333Y02659*
X02333Y02659*
X02333Y02659*
X02333Y02658*
X02333Y02658*
X02333Y02658*
X02333Y02657*
X02333Y02657*
X02333Y02657*
X02333Y02656*
X02333Y02656*
X02333Y02656*
X02333Y02655*
X02333Y02655*
X02333Y02655*
X02333Y02654*
X02333Y02654*
X02334Y02654*
X02334Y02654*
X02334Y02653*
X02334Y02653*
X02334Y02653*
X02335Y02653*
X02335Y02653*
X02335Y02652*
X02336Y02652*
X02336Y02652*
X02336Y02652*
X02337Y02652*
X02337Y02652*
X02337Y02652*
X02338*
X02338Y02652*
X02338Y02652*
X02339Y02652*
X02339Y02652*
X02339Y02652*
X02339Y02652*
X0234Y02653*
X0234Y02653*
X0234Y02653*
X02341Y02653*
X02341Y02653*
X02341Y02654*
X02341Y02654*
X02341Y02654*
X02342Y02654*
X02342Y02655*
X02342Y02655*
X02342Y02655*
X02342Y02656*
X02342Y02656*
X02342Y02656*
X02342Y02657*
G54D13*
X01302Y01397D02*
X01427D01*
Y01272D02*
Y01397D01*
X01302Y01272D02*
X01427D01*
X01302D02*
Y01397D01*
X02338Y014D02*
X02507D01*
X02338D02*
Y01569D01*
X02507*
Y014D02*
Y01569D01*
X01346Y01601D02*
Y01859D01*
X01613*
Y01601D02*
Y01859D01*
X01346Y01601D02*
X01613D01*
X01282Y01417D02*
X01447D01*
Y01252D02*
Y01417D01*
X01282Y01252D02*
X01447D01*
X01282D02*
Y01417D01*
X02334Y01396D02*
X02511D01*
X02334D02*
Y01573D01*
X02511*
Y01396D02*
Y01573D01*
X01342Y01597D02*
Y01863D01*
X01617*
Y01597D02*
Y01863D01*
X01342Y01597D02*
X01617D01*
X01282Y01417D02*
X01447D01*
Y01252D02*
Y01417D01*
X01282Y01252D02*
X01447D01*
X01282D02*
Y01417D01*
X02334Y01396D02*
X02511D01*
X02334D02*
Y01573D01*
X02511*
Y01396D02*
Y01573D01*
X01342Y01597D02*
Y01863D01*
X01617*
Y01597D02*
Y01863D01*
X01342Y01597D02*
X01617D01*
X01652Y01585D02*
D01*
X01652Y01585*
X01652Y01585*
X01652Y01585*
X01652Y01586*
X01652Y01586*
X01652Y01586*
X01651Y01586*
X01651Y01587*
X01651Y01587*
X01651Y01587*
X01651Y01587*
X01651Y01587*
X0165Y01588*
X0165Y01588*
X0165Y01588*
X0165Y01588*
X01649Y01588*
X01649Y01588*
X01649Y01588*
X01649Y01588*
X01648Y01588*
X01648Y01588*
X01648*
X01648Y01588*
X01647Y01588*
X01647Y01588*
X01647Y01588*
X01646Y01588*
X01646Y01588*
X01646Y01588*
X01646Y01588*
X01646Y01588*
X01645Y01587*
X01645Y01587*
X01645Y01587*
X01645Y01587*
X01645Y01587*
X01644Y01586*
X01644Y01586*
X01644Y01586*
X01644Y01586*
X01644Y01585*
X01644Y01585*
X01644Y01585*
X01644Y01585*
X01644Y01584*
X01644Y01584*
X01644Y01584*
X01644Y01583*
X01644Y01583*
X01644Y01583*
X01644Y01583*
X01645Y01582*
X01645Y01582*
X01645Y01582*
X01645Y01582*
X01645Y01582*
X01646Y01581*
X01646Y01581*
X01646Y01581*
X01646Y01581*
X01646Y01581*
X01647Y01581*
X01647Y01581*
X01647Y01581*
X01648Y01581*
X01648Y01581*
X01648*
X01648Y01581*
X01649Y01581*
X01649Y01581*
X01649Y01581*
X01649Y01581*
X0165Y01581*
X0165Y01581*
X0165Y01581*
X0165Y01581*
X01651Y01582*
X01651Y01582*
X01651Y01582*
X01651Y01582*
X01651Y01582*
X01651Y01583*
X01652Y01583*
X01652Y01583*
X01652Y01583*
X01652Y01584*
X01652Y01584*
X01652Y01584*
X01652Y01585*
X02336Y01733D02*
D01*
X02336Y01733*
X02336Y01733*
X02336Y01734*
X02336Y01734*
X02336Y01734*
X02336Y01734*
X02336Y01735*
X02336Y01735*
X02336Y01735*
X02335Y01735*
X02335Y01736*
X02335Y01736*
X02335Y01736*
X02335Y01736*
X02334Y01736*
X02334Y01736*
X02334Y01737*
X02334Y01737*
X02333Y01737*
X02333Y01737*
X02333Y01737*
X02333Y01737*
X02332*
X02332Y01737*
X02332Y01737*
X02331Y01737*
X02331Y01737*
X02331Y01737*
X02331Y01736*
X0233Y01736*
X0233Y01736*
X0233Y01736*
X0233Y01736*
X0233Y01736*
X02329Y01735*
X02329Y01735*
X02329Y01735*
X02329Y01735*
X02329Y01734*
X02329Y01734*
X02329Y01734*
X02329Y01734*
X02328Y01733*
X02328Y01733*
X02328Y01733*
X02328Y01733*
X02328Y01732*
X02329Y01732*
X02329Y01732*
X02329Y01732*
X02329Y01731*
X02329Y01731*
X02329Y01731*
X02329Y01731*
X02329Y0173*
X0233Y0173*
X0233Y0173*
X0233Y0173*
X0233Y0173*
X0233Y01729*
X02331Y01729*
X02331Y01729*
X02331Y01729*
X02331Y01729*
X02332Y01729*
X02332Y01729*
X02332Y01729*
X02333*
X02333Y01729*
X02333Y01729*
X02333Y01729*
X02334Y01729*
X02334Y01729*
X02334Y01729*
X02334Y01729*
X02335Y0173*
X02335Y0173*
X02335Y0173*
X02335Y0173*
X02335Y0173*
X02336Y01731*
X02336Y01731*
X02336Y01731*
X02336Y01731*
X02336Y01732*
X02336Y01732*
X02336Y01732*
X02336Y01732*
X02336Y01733*
X02336Y01733*
X01696Y01374D02*
D01*
X01696Y01374*
X01695Y01374*
X01695Y01375*
X01695Y01375*
X01695Y01375*
X01695Y01375*
X01695Y01376*
X01695Y01376*
X01695Y01376*
X01695Y01376*
X01694Y01377*
X01694Y01377*
X01694Y01377*
X01694Y01377*
X01694Y01377*
X01693Y01377*
X01693Y01378*
X01693Y01378*
X01693Y01378*
X01692Y01378*
X01692Y01378*
X01692Y01378*
X01691*
X01691Y01378*
X01691Y01378*
X01691Y01378*
X0169Y01378*
X0169Y01378*
X0169Y01377*
X0169Y01377*
X01689Y01377*
X01689Y01377*
X01689Y01377*
X01689Y01377*
X01689Y01376*
X01688Y01376*
X01688Y01376*
X01688Y01376*
X01688Y01375*
X01688Y01375*
X01688Y01375*
X01688Y01375*
X01688Y01374*
X01688Y01374*
X01688Y01374*
X01688Y01374*
X01688Y01373*
X01688Y01373*
X01688Y01373*
X01688Y01373*
X01688Y01372*
X01688Y01372*
X01688Y01372*
X01688Y01372*
X01689Y01371*
X01689Y01371*
X01689Y01371*
X01689Y01371*
X01689Y01371*
X0169Y0137*
X0169Y0137*
X0169Y0137*
X0169Y0137*
X01691Y0137*
X01691Y0137*
X01691Y0137*
X01691Y0137*
X01692*
X01692Y0137*
X01692Y0137*
X01693Y0137*
X01693Y0137*
X01693Y0137*
X01693Y0137*
X01694Y0137*
X01694Y01371*
X01694Y01371*
X01694Y01371*
X01694Y01371*
X01695Y01371*
X01695Y01372*
X01695Y01372*
X01695Y01372*
X01695Y01372*
X01695Y01373*
X01695Y01373*
X01695Y01373*
X01695Y01373*
X01696Y01374*
X01696Y01374*
G54D14*
X00997Y01131D02*
D01*
X00996Y01131*
X00995Y01132*
X00994Y01132*
X00993Y01132*
X00993Y01132*
X00992Y01132*
X00991Y01132*
X0099Y01132*
X00989Y01132*
X00989Y01132*
X00988Y01132*
X00987Y01132*
X00986Y01131*
X00986Y01131*
X00985Y0113*
X00984Y0113*
X00984Y01129*
X00983Y01129*
X00982Y01128*
X00982Y01128*
X00981Y01127*
X00981Y01126*
X00981Y01126*
X00993Y01147D02*
D01*
X00991Y01147*
X0099Y01147*
X00989Y01147*
X00988Y01147*
X00986Y01147*
X00985Y01147*
X00984Y01147*
X00983Y01146*
X00982Y01146*
X0098Y01145*
X00979Y01145*
X00978Y01144*
X00977Y01143*
X00976Y01142*
X00975Y01141*
X00975Y01141*
X00974Y0114*
X00973Y01138*
X00972Y01137*
X00972Y01136*
X00971Y01135*
X00971Y01134*
X00971Y01133*
X00981Y01435D02*
D01*
X00981Y01435*
X00982Y01434*
X00982Y01433*
X00983Y01433*
X00983Y01432*
X00984Y01432*
X00984Y01431*
X00985Y01431*
X00986Y0143*
X00987Y0143*
X00987Y0143*
X00988Y01429*
X00989Y01429*
X0099Y01429*
X00991Y01429*
X00991Y01429*
X00992Y01429*
X00993Y01429*
X00994Y01429*
X00995Y0143*
X00995Y0143*
X00996Y0143*
X00997Y0143*
X00969Y01428D02*
D01*
X00969Y01427*
X0097Y01426*
X0097Y01424*
X00971Y01423*
X00972Y01422*
X00973Y01421*
X00974Y0142*
X00974Y01419*
X00975Y01418*
X00977Y01417*
X00978Y01417*
X00979Y01416*
X0098Y01415*
X00981Y01415*
X00983Y01415*
X00984Y01414*
X00985Y01414*
X00987Y01414*
X00988Y01414*
X00989Y01414*
X00991Y01414*
X00992Y01414*
X00993Y01415*
X01193Y01131D02*
Y0143D01*
X01022D02*
X01193D01*
X00995D02*
X01022D01*
X00995Y01131D02*
Y0143D01*
Y01131D02*
X00997D01*
X01193*
X00971Y01133D02*
X00981Y01126D01*
X00971Y01155D02*
X00993D01*
X00971D02*
Y01407D01*
X00993*
X00969Y01428D02*
X00981Y01435D01*
X01022Y0143D02*
Y01523D01*
X01674Y01714D02*
X01925D01*
Y01455D02*
Y01714D01*
X01674Y01455D02*
X01925D01*
X01674D02*
Y01714D01*
X02371Y01616D02*
Y01773D01*
X02528Y01616D02*
Y01773D01*
X02371D02*
X02528D01*
X02371Y01616D02*
X02528D01*
X01411Y02011D02*
X01588D01*
Y01888D02*
Y02011D01*
X01411Y01888D02*
X01588D01*
X01411D02*
Y02011D01*
X01729Y01254D02*
Y01415D01*
X0189Y01254D02*
Y01415D01*
X01729D02*
X0189D01*
X01729Y01254D02*
X0189D01*
G54D16*
X02461Y0324D02*
Y03215D01*
X02466Y0321*
X02476*
X02481Y03215*
Y0324*
X02511D02*
X02501Y03235D01*
X02491Y03225*
Y03215*
X02496Y0321*
X02506*
X02511Y03215*
Y0322*
X02506Y03225*
X02491*
G54D17*
X01Y0108D02*
Y0351D01*
X01105Y03615*
X0268*
X0291Y03385*
X0299Y03305*
X03025Y0327*
Y02215D02*
Y0327D01*
Y02215D02*
X03285Y01955D01*
Y0119D02*
Y01955D01*
X03095Y01D02*
X03285Y0119D01*
X01085Y01D02*
X03095D01*
X01Y0108D02*
X01085Y01D01*
X02476Y0327D02*
D01*
X02476Y0327*
X02476Y03271*
X02476Y03272*
X02475Y03273*
X02475Y03274*
X02475Y03274*
X02474Y03275*
X02474Y03276*
X02474Y03276*
X02473Y03277*
X02473Y03278*
X02472Y03278*
X02471Y03279*
X02471Y03279*
X0247Y0328*
X02469Y0328*
X02468Y0328*
X02468Y03281*
X02467Y03281*
X02466Y03281*
X02465Y03281*
X02464Y03281*
X02464*
X02463Y03281*
X02462Y03281*
X02461Y03281*
X0246Y03281*
X0246Y0328*
X02459Y0328*
X02458Y0328*
X02457Y03279*
X02457Y03279*
X02456Y03278*
X02456Y03278*
X02455Y03277*
X02454Y03276*
X02454Y03276*
X02454Y03275*
X02453Y03274*
X02453Y03274*
X02453Y03273*
X02452Y03272*
X02452Y03271*
X02452Y0327*
X02452Y0327*
X02452Y03269*
X02452Y03268*
X02452Y03267*
X02453Y03266*
X02453Y03265*
X02453Y03265*
X02454Y03264*
X02454Y03263*
X02454Y03263*
X02455Y03262*
X02456Y03261*
X02456Y03261*
X02457Y0326*
X02457Y0326*
X02458Y03259*
X02459Y03259*
X0246Y03259*
X0246Y03258*
X02461Y03258*
X02462Y03258*
X02463Y03258*
X02464Y03258*
X02464*
X02465Y03258*
X02466Y03258*
X02467Y03258*
X02468Y03258*
X02468Y03259*
X02469Y03259*
X0247Y03259*
X02471Y0326*
X02471Y0326*
X02472Y03261*
X02473Y03261*
X02473Y03262*
X02474Y03263*
X02474Y03263*
X02474Y03264*
X02475Y03265*
X02475Y03265*
X02475Y03266*
X02476Y03267*
X02476Y03268*
X02476Y03269*
X02476Y0327*
X0104Y02126D02*
X01229D01*
X0104Y01993D02*
X01229D01*
X0104D02*
Y02126D01*
X01229Y01993D02*
Y02126D01*
X02861Y01824D02*
X02898D01*
X02861Y01755D02*
X02898D01*
Y01824*
X02861Y01755D02*
Y01824D01*
X02215Y01946D02*
Y01983D01*
X02284Y01946D02*
Y01983D01*
X02215D02*
X02284D01*
X02215Y01946D02*
X02284D01*
X03061Y01724D02*
X03098D01*
X03061Y01655D02*
X03098D01*
Y01724*
X03061Y01655D02*
Y01724D01*
Y01839D02*
X03098D01*
X03061Y0177D02*
X03098D01*
Y01839*
X03061Y0177D02*
Y01839D01*
Y01974D02*
X03098D01*
X03061Y01905D02*
X03098D01*
Y01974*
X03061Y01905D02*
Y01974D01*
X02756Y01954D02*
X02793D01*
X02756Y01885D02*
X02793D01*
Y01954*
X02756Y01885D02*
Y01954D01*
X0296Y01756D02*
Y01793D01*
X03029Y01756D02*
Y01793D01*
X0296D02*
X03029D01*
X0296Y01756D02*
X03029D01*
X0296Y01816D02*
Y01853D01*
X03029Y01816D02*
Y01853D01*
X0296D02*
X03029D01*
X0296Y01816D02*
X03029D01*
X02851Y01279D02*
X02888D01*
X02851Y0121D02*
X02888D01*
Y01279*
X02851Y0121D02*
Y01279D01*
X03056Y01469D02*
X03093D01*
X03056Y014D02*
X03093D01*
Y01469*
X03056Y014D02*
Y01469D01*
X02731Y01409D02*
X02768D01*
X02731Y0134D02*
X02768D01*
Y01409*
X02731Y0134D02*
Y01409D01*
X0295Y01256D02*
Y01293D01*
X03019Y01256D02*
Y01293D01*
X0295D02*
X03019D01*
X0295Y01256D02*
X03019D01*
X0295Y01311D02*
Y01348D01*
X03019Y01311D02*
Y01348D01*
X0295D02*
X03019D01*
X0295Y01311D02*
X03019D01*
X03056Y01334D02*
X03093D01*
X03056Y01265D02*
X03093D01*
Y01334*
X03056Y01265D02*
Y01334D01*
Y01224D02*
X03093D01*
X03056Y01155D02*
X03093D01*
Y01224*
X03056Y01155D02*
Y01224D01*
X01204Y01926D02*
Y01963D01*
X01135Y01926D02*
Y01963D01*
Y01926D02*
X01204D01*
X01135Y01963D02*
X01204D01*
X01676Y03129D02*
X01713D01*
X01676Y0306D02*
X01713D01*
Y03129*
X01676Y0306D02*
Y03129D01*
X01626D02*
X01663D01*
X01626Y0306D02*
X01663D01*
Y03129*
X01626Y0306D02*
Y03129D01*
X01901Y03099D02*
X01938D01*
X01901Y0303D02*
X01938D01*
Y03099*
X01901Y0303D02*
Y03099D01*
X01841D02*
X01878D01*
X01841Y0303D02*
X01878D01*
Y03099*
X01841Y0303D02*
Y03099D01*
X02986Y02253D02*
Y02775D01*
X02405Y02253D02*
X02986D01*
X02405D02*
Y02846D01*
X02986Y02775D02*
X02996D01*
Y02818*
X02986D02*
X02996D01*
X02986D02*
Y02846D01*
X02405D02*
X02986D01*
X02435Y03149D02*
Y0331D01*
X02597Y03149D02*
Y0331D01*
X02435D02*
X02597D01*
X02435Y03149D02*
X02597D01*
X02385Y03236D02*
Y03273D01*
X02316Y03236D02*
Y03273D01*
Y03236D02*
X02385D01*
X02316Y03273D02*
X02385D01*
Y03286D02*
Y03323D01*
X02316Y03286D02*
Y03323D01*
Y03286D02*
X02385D01*
X02316Y03323D02*
X02385D01*
Y03186D02*
Y03223D01*
X02316Y03186D02*
Y03223D01*
Y03186D02*
X02385D01*
X02316Y03223D02*
X02385D01*
Y03136D02*
Y03173D01*
X02316Y03136D02*
Y03173D01*
Y03136D02*
X02385D01*
X02316Y03173D02*
X02385D01*
X02412Y03454D02*
X0245D01*
X02412Y03385D02*
X0245D01*
Y03454*
X02412Y03385D02*
Y03454D01*
X02522D02*
X0256D01*
X02522Y03385D02*
X0256D01*
Y03454*
X02522Y03385D02*
Y03454D01*
X02467D02*
X02505D01*
X02467Y03385D02*
X02505D01*
Y03454*
X02467Y03385D02*
Y03454D01*
X01971Y02014D02*
Y02055D01*
X01938Y02014D02*
Y02055D01*
Y02014D02*
X01971D01*
X01938Y02055D02*
X01971D01*
X01291Y01356D02*
X01358D01*
X01291Y01233D02*
X01358D01*
Y01356*
X01291Y01233D02*
Y01356D01*
X01293Y01191D02*
Y01228D01*
X01362Y01191D02*
Y01228D01*
X01293D02*
X01362D01*
X01293Y01191D02*
X01362D01*
X01293Y01126D02*
Y01163D01*
X01362Y01126D02*
Y01163D01*
X01293D02*
X01362D01*
X01293Y01126D02*
X01362D01*
X02306Y016D02*
Y01789D01*
X02173Y016D02*
Y01789D01*
X02306*
X02173Y016D02*
X02306D01*
X01281Y01625D02*
X01318D01*
X01281Y01694D02*
X01318D01*
X01281Y01625D02*
Y01694D01*
X01318Y01625D02*
Y01694D01*
X01281Y01725D02*
X01318D01*
X01281Y01794D02*
X01318D01*
X01281Y01725D02*
Y01794D01*
X01318Y01725D02*
Y01794D01*
X01671Y01915D02*
X01708D01*
X01671Y01984D02*
X01708D01*
X01671Y01915D02*
Y01984D01*
X01708Y01915D02*
Y01984D01*
X01671Y018D02*
X01708D01*
X01671Y01869D02*
X01708D01*
X01671Y018D02*
Y01869D01*
X01708Y018D02*
Y01869D01*
X01286Y0197D02*
X01323D01*
X01286Y02039D02*
X01323D01*
X01286Y0197D02*
Y02039D01*
X01323Y0197D02*
Y02039D01*
X01926Y01429D02*
X01963D01*
X01926Y0136D02*
X01963D01*
Y01429*
X01926Y0136D02*
Y01429D01*
X01661Y01215D02*
X01698D01*
X01661Y01284D02*
X01698D01*
X01661Y01215D02*
Y01284D01*
X01698Y01215D02*
Y01284D01*
X01636Y01424D02*
X01673D01*
X01636Y01355D02*
X01673D01*
Y01424*
X01636Y01355D02*
Y01424D01*
X01849Y01171D02*
Y01208D01*
X0178Y01171D02*
Y01208D01*
Y01171D02*
X01849D01*
X0178Y01208D02*
X01849D01*
X02581Y01734D02*
X02618D01*
X02581Y01665D02*
X02618D01*
Y01734*
X02581Y01665D02*
Y01734D01*
X01135Y0204D02*
Y02079D01*
X01115Y0206D02*
X01154D01*
X01028Y02128D02*
X01241D01*
X01028Y01991D02*
X01241D01*
X01028D02*
Y02128D01*
X01241Y01991D02*
Y02128D01*
X02858Y01837D02*
X02901D01*
X02858Y01742D02*
X02901D01*
Y01837*
X02858Y01742D02*
Y01837D01*
X0288Y01771D02*
Y01808D01*
X02861Y0179D02*
X02898D01*
X02202Y01943D02*
Y01986D01*
X02297Y01943D02*
Y01986D01*
X02202D02*
X02297D01*
X02202Y01943D02*
X02297D01*
X02231Y01965D02*
X02268D01*
X0225Y01946D02*
Y01983D01*
X03058Y01737D02*
X03101D01*
X03058Y01642D02*
X03101D01*
Y01737*
X03058Y01642D02*
Y01737D01*
X0308Y01671D02*
Y01708D01*
X03061Y0169D02*
X03098D01*
X03058Y01852D02*
X03101D01*
X03058Y01757D02*
X03101D01*
Y01852*
X03058Y01757D02*
Y01852D01*
X0308Y01786D02*
Y01823D01*
X03061Y01805D02*
X03098D01*
X03058Y01987D02*
X03101D01*
X03058Y01892D02*
X03101D01*
Y01987*
X03058Y01892D02*
Y01987D01*
X0308Y01921D02*
Y01958D01*
X03061Y0194D02*
X03098D01*
X02753Y01967D02*
X02796D01*
X02753Y01872D02*
X02796D01*
Y01967*
X02753Y01872D02*
Y01967D01*
X02775Y01901D02*
Y01938D01*
X02756Y0192D02*
X02793D01*
X02947Y01753D02*
Y01796D01*
X03042Y01753D02*
Y01796D01*
X02947D02*
X03042D01*
X02947Y01753D02*
X03042D01*
X02976Y01775D02*
X03013D01*
X02995Y01756D02*
Y01793D01*
X02947Y01813D02*
Y01856D01*
X03042Y01813D02*
Y01856D01*
X02947D02*
X03042D01*
X02947Y01813D02*
X03042D01*
X02976Y01835D02*
X03013D01*
X02995Y01816D02*
Y01853D01*
X02848Y01292D02*
X02891D01*
X02848Y01197D02*
X02891D01*
Y01292*
X02848Y01197D02*
Y01292D01*
X0287Y01226D02*
Y01263D01*
X02851Y01245D02*
X02888D01*
X03053Y01482D02*
X03096D01*
X03053Y01387D02*
X03096D01*
Y01482*
X03053Y01387D02*
Y01482D01*
X03075Y01416D02*
Y01453D01*
X03056Y01435D02*
X03093D01*
X02728Y01422D02*
X02771D01*
X02728Y01327D02*
X02771D01*
Y01422*
X02728Y01327D02*
Y01422D01*
X0275Y01356D02*
Y01393D01*
X02731Y01375D02*
X02768D01*
X02937Y01253D02*
Y01296D01*
X03032Y01253D02*
Y01296D01*
X02937D02*
X03032D01*
X02937Y01253D02*
X03032D01*
X02966Y01275D02*
X03003D01*
X02985Y01256D02*
Y01293D01*
X02937Y01308D02*
Y01351D01*
X03032Y01308D02*
Y01351D01*
X02937D02*
X03032D01*
X02937Y01308D02*
X03032D01*
X02966Y0133D02*
X03003D01*
X02985Y01311D02*
Y01348D01*
X03053Y01347D02*
X03096D01*
X03053Y01252D02*
X03096D01*
Y01347*
X03053Y01252D02*
Y01347D01*
X03075Y01281D02*
Y01318D01*
X03056Y013D02*
X03093D01*
X03053Y01237D02*
X03096D01*
X03053Y01142D02*
X03096D01*
Y01237*
X03053Y01142D02*
Y01237D01*
X03075Y01171D02*
Y01208D01*
X03056Y0119D02*
X03093D01*
X01217Y01923D02*
Y01966D01*
X01122Y01923D02*
Y01966D01*
Y01923D02*
X01217D01*
X01122Y01966D02*
X01217D01*
X01151Y01945D02*
X01188D01*
X0117Y01926D02*
Y01963D01*
X01673Y03142D02*
X01716D01*
X01673Y03047D02*
X01716D01*
Y03142*
X01673Y03047D02*
Y03142D01*
X01695Y03076D02*
Y03113D01*
X01676Y03095D02*
X01713D01*
X01623Y03142D02*
X01666D01*
X01623Y03047D02*
X01666D01*
Y03142*
X01623Y03047D02*
Y03142D01*
X01645Y03076D02*
Y03113D01*
X01626Y03095D02*
X01663D01*
X01898Y03112D02*
X01941D01*
X01898Y03017D02*
X01941D01*
Y03112*
X01898Y03017D02*
Y03112D01*
X0192Y03046D02*
Y03083D01*
X01901Y03065D02*
X01938D01*
X01838Y03112D02*
X01881D01*
X01838Y03017D02*
X01881D01*
Y03112*
X01838Y03017D02*
Y03112D01*
X0186Y03046D02*
Y03083D01*
X01841Y03065D02*
X01878D01*
X02496Y0323D02*
X02536D01*
X02516Y0321D02*
Y03249D01*
X02398Y03233D02*
Y03276D01*
X02304Y03233D02*
Y03276D01*
Y03233D02*
X02398D01*
X02304Y03276D02*
X02398D01*
X02332Y03255D02*
X0237D01*
X02351Y03236D02*
Y03273D01*
X02398Y03283D02*
Y03326D01*
X02304Y03283D02*
Y03326D01*
Y03283D02*
X02398D01*
X02304Y03326D02*
X02398D01*
X02332Y03305D02*
X0237D01*
X02351Y03286D02*
Y03323D01*
X02398Y03183D02*
Y03226D01*
X02304Y03183D02*
Y03226D01*
Y03183D02*
X02398D01*
X02304Y03226D02*
X02398D01*
X02332Y03205D02*
X0237D01*
X02351Y03186D02*
Y03223D01*
X02398Y03133D02*
Y03176D01*
X02304Y03133D02*
Y03176D01*
Y03133D02*
X02398D01*
X02304Y03176D02*
X02398D01*
X02332Y03155D02*
X0237D01*
X02351Y03136D02*
Y03173D01*
X02409Y03467D02*
X02452D01*
X02409Y03372D02*
X02452D01*
Y03467*
X02409Y03372D02*
Y03467D01*
X02431Y03401D02*
Y03438D01*
X02412Y0342D02*
X0245D01*
X02519Y03467D02*
X02562D01*
X02519Y03372D02*
X02562D01*
Y03467*
X02519Y03372D02*
Y03467D01*
X02541Y03401D02*
Y03438D01*
X02522Y0342D02*
X0256D01*
X02464Y03467D02*
X02507D01*
X02464Y03372D02*
X02507D01*
Y03467*
X02464Y03372D02*
Y03467D01*
X02486Y03401D02*
Y03438D01*
X02467Y0342D02*
X02505D01*
X01935Y02035D02*
X01974D01*
X01955Y02015D02*
Y02054D01*
X01325Y01275D02*
Y01314D01*
X01305Y01295D02*
X01344D01*
X0128Y01188D02*
Y01231D01*
X01374Y01188D02*
Y01231D01*
X0128D02*
X01374D01*
X0128Y01188D02*
X01374D01*
X01308Y0121D02*
X01346D01*
X01327Y01191D02*
Y01228D01*
X0128Y01123D02*
Y01166D01*
X01374Y01123D02*
Y01166D01*
X0128D02*
X01374D01*
X0128Y01123D02*
X01374D01*
X01308Y01145D02*
X01346D01*
X01327Y01126D02*
Y01163D01*
X0222Y01695D02*
X02259D01*
X0224Y01675D02*
Y01714D01*
X02308Y01588D02*
Y01801D01*
X02171Y01588D02*
Y01801D01*
X02308*
X02171Y01588D02*
X02308D01*
X01278Y01612D02*
X01321D01*
X01278Y01707D02*
X01321D01*
X01278Y01612D02*
Y01707D01*
X01321Y01612D02*
Y01707D01*
X013Y01641D02*
Y01678D01*
X01281Y0166D02*
X01318D01*
X01278Y01712D02*
X01321D01*
X01278Y01807D02*
X01321D01*
X01278Y01712D02*
Y01807D01*
X01321Y01712D02*
Y01807D01*
X013Y01741D02*
Y01778D01*
X01281Y0176D02*
X01318D01*
X01668Y01902D02*
X01711D01*
X01668Y01997D02*
X01711D01*
X01668Y01902D02*
Y01997D01*
X01711Y01902D02*
Y01997D01*
X0169Y01931D02*
Y01968D01*
X01671Y0195D02*
X01708D01*
X01668Y01787D02*
X01711D01*
X01668Y01882D02*
X01711D01*
X01668Y01787D02*
Y01882D01*
X01711Y01787D02*
Y01882D01*
X0169Y01816D02*
Y01853D01*
X01671Y01835D02*
X01708D01*
X01283Y01957D02*
X01326D01*
X01283Y02052D02*
X01326D01*
X01283Y01957D02*
Y02052D01*
X01326Y01957D02*
Y02052D01*
X01305Y01986D02*
Y02023D01*
X01286Y02005D02*
X01323D01*
X01923Y01442D02*
X01966D01*
X01923Y01347D02*
X01966D01*
Y01442*
X01923Y01347D02*
Y01442D01*
X01945Y01376D02*
Y01413D01*
X01926Y01395D02*
X01963D01*
X01658Y01202D02*
X01701D01*
X01658Y01297D02*
X01701D01*
X01658Y01202D02*
Y01297D01*
X01701Y01202D02*
Y01297D01*
X0168Y01231D02*
Y01268D01*
X01661Y0125D02*
X01698D01*
X01633Y01437D02*
X01676D01*
X01633Y01342D02*
X01676D01*
Y01437*
X01633Y01342D02*
Y01437D01*
X01655Y01371D02*
Y01408D01*
X01636Y0139D02*
X01673D01*
X01862Y01168D02*
Y01211D01*
X01767Y01168D02*
Y01211D01*
Y01168D02*
X01862D01*
X01767Y01211D02*
X01862D01*
X01796Y0119D02*
X01833D01*
X01815Y01171D02*
Y01208D01*
X02578Y01747D02*
X02621D01*
X02578Y01652D02*
X02621D01*
Y01747*
X02578Y01652D02*
Y01747D01*
X026Y01681D02*
Y01718D01*
X02581Y017D02*
X02618D01*
X01345Y01335D02*
X01384D01*
X01365Y01315D02*
Y01354D01*
X02403Y01485D02*
X02443D01*
X02423Y01465D02*
Y01504D01*
X0148Y0171D02*
Y0175D01*
X0146Y0173D02*
X01499D01*
G54D18*
X02566Y03091D02*
X02645Y0317D01*
X02566Y03015D02*
Y03091D01*
X02405Y02855D02*
X02566Y03015D01*
X0127Y02855D02*
X02405D01*
X02254Y0312D02*
X0228D01*
X02196Y03062D02*
X02254Y0312D01*
X02196Y03047D02*
Y03062D01*
X02163Y03014D02*
X02196Y03047D01*
X01785Y03014D02*
X02163D01*
X01785Y03015D02*
X01785Y03014D01*
X02083Y02443D02*
X02085Y02445D01*
X01578Y02443D02*
X02083D01*
X01577Y02442D02*
X01578Y02443D01*
X01536Y02355D02*
X019D01*
X01456Y02275D02*
X01536Y02355D01*
X0126Y02275D02*
X01456D01*
X01717Y02332D02*
X02132D01*
X01665Y0228D02*
X01717Y02332D01*
X02132D02*
X0261Y01855D01*
X02775*
X0107Y0239D02*
Y03005D01*
X01165Y031*
X0186Y0222D02*
Y0228D01*
X0181Y02246D02*
Y0228D01*
X01785Y02275D02*
Y02284D01*
X01768Y02259D02*
X01785Y02275D01*
X0191Y022D02*
Y0228D01*
X01801Y023D02*
X02099D01*
X01794Y02316D02*
X02116D01*
X0176Y0228D02*
Y02281D01*
X0173Y02259D02*
X01768D01*
X0171Y0228D02*
X0173Y02259D01*
X01785Y02284D02*
X01801Y023D01*
X0181Y02246D02*
X0223Y01826D01*
X0176Y02281D02*
X01794Y02316D01*
X0191Y022D02*
X02725Y01385D01*
X01215Y0226D02*
Y03107D01*
X01367Y03259*
X01404*
X01565Y0342*
X01171Y02219D02*
X0165D01*
X01139Y02251D02*
X01171Y02219D01*
X01164Y02203D02*
X01531D01*
X01123Y02244D02*
X01164Y02203D01*
X0135Y0145D02*
X01765Y01865D01*
Y01968*
X01531Y02203D02*
X01765Y01968D01*
X0165Y02219D02*
X0184Y0203D01*
X0168Y02235D02*
X0195Y01965D01*
X0121Y02235D02*
X0168D01*
X01185Y0226D02*
X0121Y02235D01*
X01139Y02251D02*
Y02534D01*
X01123Y02244D02*
Y02301D01*
X0111Y02315D02*
X01123Y02301D01*
X0184Y01895D02*
Y0203D01*
X01395Y0145D02*
X0184Y01895D01*
X01684Y01869D02*
X01735Y0192D01*
X01478Y01869D02*
X01684D01*
X01315Y01985D02*
X0172D01*
X0122Y0189D02*
X01315Y01985D01*
X0172D02*
X01745Y0196D01*
X0133Y01935D02*
X0161D01*
X01447Y019D02*
X01478Y01869D01*
X0126Y019D02*
X01447D01*
X0161Y01935D02*
X01655Y0189D01*
X0195Y01965D02*
X02069D01*
X02215Y01819*
X0248Y01225D02*
Y0154D01*
X02215Y01805D02*
X0248Y0154D01*
X0223Y01814D02*
X0275Y01295D01*
X0223Y01814D02*
Y01826D01*
X02215Y01805D02*
Y01819D01*
X0186Y0222D02*
X0275Y0133D01*
X01185Y0189D02*
X0122D01*
X0116Y0226D02*
X01185D01*
X0111Y02315D02*
Y0284D01*
X0116Y02554D02*
Y0284D01*
X01139Y02534D02*
X0116Y02554D01*
X01083Y01332D02*
X01185D01*
X013Y0123D02*
X01325Y01255D01*
X01255Y0123D02*
X013D01*
X02885Y01815D02*
X02925Y01775D01*
X02585Y01815D02*
X02885D01*
X02099Y023D02*
X02585Y01815D01*
X02933Y01317D02*
Y01354D01*
X02902Y01385D02*
X02933Y01354D01*
X02725Y01385D02*
X02902D01*
X0275Y0133D02*
X02912D01*
X02116Y02316D02*
X02598Y01834D01*
X02924*
X02925Y01835*
X02915Y01299D02*
X02933Y01317D01*
X02915Y01275D02*
Y01299D01*
X02915Y01275D02*
X02915Y01275D01*
X01185Y0123D02*
X01255D01*
X01079Y01328D02*
X01083Y01332D01*
X01079Y01233D02*
Y01328D01*
X01112Y01178D02*
X01135Y01155D01*
X01112Y01178D02*
Y01201D01*
X01079Y01233D02*
X01112Y01201D01*
X01135Y01155D02*
X01176D01*
X01182Y01335D02*
X01185Y01332D01*
X01182Y01335D02*
Y01401D01*
X01176Y01407D02*
X01182Y01401D01*
X01203Y01332D02*
X01226Y01355D01*
X01185Y01332D02*
X01203D01*
X01226Y01355D02*
X01305D01*
X0132Y0134*
Y01314D02*
Y0134D01*
X013Y01295D02*
X0132Y01314D01*
X01282Y01295D02*
X013D01*
X01349D02*
X01367D01*
X01325Y01271D02*
X01349Y01295D01*
X01325Y01255D02*
Y01271D01*
X01028Y01468D02*
X01044D01*
Y01476*
X01041Y01478*
X01036*
X01033Y01476*
Y01468*
X01041Y01494D02*
X01044Y01492D01*
Y01486*
X01041Y01484*
X01031*
X01028Y01486*
Y01492*
X01031Y01494*
X01044Y015D02*
X01028D01*
Y01508*
X01031Y0151*
X01033*
X01036Y01508*
Y015*
Y01508*
X01039Y0151*
X01041*
X01044Y01508*
Y015*
Y01542D02*
Y01532D01*
X01028*
Y01542*
X01036Y01532D02*
Y01537D01*
X01028Y01548D02*
X01044D01*
X01028Y01558*
X01044*
Y01564D02*
X01028D01*
Y01572*
X01031Y01574*
X01041*
X01044Y01572*
Y01564*
G54D19*
X02342Y022D02*
Y02899D01*
X02996*
X02342Y022D02*
X02996D01*
Y02765*
X03006*
Y02828*
X02996D02*
X03006D01*
X02996D02*
Y02899D01*
X02425Y03139D02*
Y0332D01*
Y03139D02*
X02606D01*
Y0332*
X02425D02*
X02606D01*
X0198Y02009D02*
Y0206D01*
X01929Y02009D02*
Y0206D01*
Y02009D02*
X0198D01*
X01929Y0206D02*
X0198D01*
X01252Y01359D02*
X01397D01*
X01252Y0123D02*
X01397D01*
Y01359*
X01252Y0123D02*
Y01359D01*
X00961Y01115D02*
X01221D01*
X00961D02*
Y01446D01*
X01221*
Y01115D02*
Y01446D01*
X01664Y01446D02*
Y01723D01*
Y01446D02*
X01935D01*
Y01723*
X01664D02*
X01935D01*
X02552Y01592D02*
Y01797D01*
X02347Y01592D02*
Y01797D01*
X02552*
X02347Y01592D02*
X02552D01*
X01346Y01893D02*
Y02006D01*
Y01893D02*
X01401D01*
Y01879D02*
Y01893D01*
Y01879D02*
X01598D01*
Y01893*
X01653*
Y02006*
X01598D02*
X01653D01*
X01598D02*
Y0202D01*
X01401D02*
X01598D01*
X01401Y02006D02*
Y0202D01*
X01346Y02006D02*
X01401D01*
X01912Y01232D02*
Y01437D01*
X01707Y01232D02*
Y01437D01*
X01912*
X01707Y01232D02*
X01912D01*
G54D79*
X01079Y01151D02*
Y01233D01*
Y01328D02*
Y01411D01*
X01985Y03055D02*
X02146D01*
X01239Y01155D02*
X0124Y01155D01*
X01176Y01155D02*
X01239D01*
X0188Y0208D02*
X01905Y02055D01*
X0188Y0208D02*
Y0211D01*
X0173Y01225D02*
X01815Y0114D01*
X01845*
G54D80*
X01214Y01281D02*
X01264Y01332D01*
X01185Y01281D02*
X01214D01*
X01264Y01332D02*
X01282D01*
X01185Y01255D02*
X01262D01*
X01185Y01281D02*
X01185Y01281D01*
X01264Y01257D02*
X01282D01*
X01262Y01255D02*
X01264Y01257D01*
G54D81*
X01065Y0342D03*
X02781Y0312D03*
X0248Y01225D03*
X02526Y0305D03*
X02346Y03415D03*
X02651Y0342D03*
X01695D03*
X02346Y03055D03*
X02085Y03245D03*
X0208Y0188D03*
X01465Y031D03*
X01165Y03255D03*
G54D82*
X01165Y0342D03*
X01265D03*
X01365D03*
X01465D03*
X01565D03*
X02881Y0312D03*
X02085Y0165D03*
X0258Y01225D03*
X02626Y0305D03*
X01095Y0171D03*
Y0161D03*
X02246Y03415D03*
X02146D03*
X02751Y0342D03*
X01795D03*
X01895D03*
X02246Y03055D03*
X02146D03*
X03165Y01265D03*
X01985Y03245D03*
X01885D03*
X0198Y0188D03*
X03175Y01755D03*
X01065Y031D03*
X01165D03*
X01265D03*
X01365D03*
X01065Y03255D03*
G54D83*
X0283Y02397D03*
Y02665D03*
G54D84*
X02085Y0175D03*
X01095Y0151D03*
X03165Y01365D03*
X03175Y01855D03*
G54D85*
X01079Y01151D03*
Y01411D03*
X01985Y03055D03*
X01239Y01155D03*
X01905Y02055D03*
X0188Y0211D03*
X02465Y03125D03*
X0142Y0211D03*
X01845Y0114D03*
X0173Y01225D03*
X0127Y02855D03*
X02645Y0317D03*
X0228Y0312D03*
X01785Y03015D03*
X02135Y0202D03*
X02155Y0217D03*
X0216Y0235D03*
X02155Y0245D03*
X0215Y0257D03*
X02145Y0269D03*
X0215Y02825D03*
X02085Y02445D03*
X01577Y02442D03*
X019Y02355D03*
X0126Y02275D03*
X0107Y0239D03*
X0242Y01125D03*
X01045Y0195D03*
X0186Y0228D03*
X0181D03*
X0191D03*
X0176D03*
X01665D03*
X0171D03*
X01735Y0192D03*
X0133Y01935D03*
X01745Y0196D03*
X01655Y0189D03*
X0126Y019D03*
X01185Y0189D03*
X0111Y0284D03*
X0116D03*
X0135Y0145D03*
X01395D03*
X01215Y0226D03*
X0116D03*
X02925Y01775D03*
Y01835D03*
X02775Y01855D03*
X02912Y0133D03*
X02915Y01275D03*
X0275Y01295D03*
X01255Y0123D03*
X01235Y013D03*
Y01255D03*
X02516Y03188D03*
Y03271D03*
X02475Y0323D03*
X02557D03*
X02516D03*
G54D86*
X01079Y01151D03*
Y01411D03*
G54D87*
X02195Y01435D03*
Y01135D03*
G54D88*
X01367Y01332D03*
Y01295D03*
Y01257D03*
X01282Y01332D03*
Y01295D03*
Y01257D03*
G54D89*
X01185Y0123D03*
Y01255D03*
Y01281D03*
Y01306D03*
Y01332D03*
G54D90*
X01176Y01155D03*
Y01407D03*
G54D91*
X01079Y01233D03*
Y01328D03*
M02*