%FSTAX23Y23*%
%MOIN*%
%SFA1B1*%

%IPPOS*%
%ADD64R,0.067060X0.067060*%
%ADD65C,0.067060*%
%ADD66C,0.045400*%
%ADD67R,0.067060X0.067060*%
%ADD68C,0.027690*%
%ADD69O,0.078870X0.043430*%
%ADD70C,0.055240*%
%ADD89O,0.061150X0.025720*%
%ADD90R,0.061150X0.023750*%
%ADD91R,0.063120X0.070990*%
%ADD92R,0.082800X0.082800*%
%LNsolears_v1-1*%
%LPD*%
G54D64*
X01065Y0342D03*
X02781Y0312D03*
X0248Y01225D03*
X02526Y0305D03*
X02346Y03415D03*
X02651Y0342D03*
X01695D03*
X02346Y03055D03*
X02085Y03245D03*
X0208Y0188D03*
X01465Y031D03*
X01165Y03255D03*
G54D65*
X01165Y0342D03*
X01265D03*
X01365D03*
X01465D03*
X01565D03*
X02881Y0312D03*
X02085Y0165D03*
X0258Y01225D03*
X02626Y0305D03*
X01095Y0171D03*
Y0161D03*
X02246Y03415D03*
X02146D03*
X02751Y0342D03*
X01795D03*
X01895D03*
X02246Y03055D03*
X02146D03*
X03165Y01265D03*
X01985Y03245D03*
X01885D03*
X0198Y0188D03*
X03175Y01755D03*
X01065Y031D03*
X01165D03*
X01265D03*
X01365D03*
X01065Y03255D03*
G54D66*
X0283Y02397D03*
Y02665D03*
G54D67*
X02085Y0175D03*
X01095Y0151D03*
X03165Y01365D03*
X03175Y01855D03*
G54D68*
X01079Y01151D03*
Y01411D03*
X01985Y03055D03*
X01239Y01155D03*
X01905Y02055D03*
X0188Y0211D03*
X02465Y03125D03*
X0142Y0211D03*
X01845Y0114D03*
X0173Y01225D03*
X0127Y02855D03*
X02645Y0317D03*
X0228Y0312D03*
X01785Y03015D03*
X02135Y0202D03*
X02155Y0217D03*
X0216Y0235D03*
X02155Y0245D03*
X0215Y0257D03*
X02145Y0269D03*
X0215Y02825D03*
X02085Y02445D03*
X01577Y02442D03*
X019Y02355D03*
X0126Y02275D03*
X0107Y0239D03*
X0242Y01125D03*
X01045Y0195D03*
X0186Y0228D03*
X0181D03*
X0191D03*
X0176D03*
X01665D03*
X0171D03*
X01735Y0192D03*
X0133Y01935D03*
X01745Y0196D03*
X01655Y0189D03*
X0126Y019D03*
X01185Y0189D03*
X0111Y0284D03*
X0116D03*
X0135Y0145D03*
X01395D03*
X01215Y0226D03*
X0116D03*
X02925Y01775D03*
Y01835D03*
X02775Y01855D03*
X02912Y0133D03*
X02915Y01275D03*
X0275Y01295D03*
X01255Y0123D03*
X01235Y013D03*
Y01255D03*
X02516Y03188D03*
Y03271D03*
X02475Y0323D03*
X02557D03*
X02516D03*
G54D69*
X01079Y01151D03*
Y01411D03*
G54D70*
X02195Y01435D03*
Y01135D03*
G54D89*
X01367Y01332D03*
Y01295D03*
Y01257D03*
X01282Y01332D03*
Y01295D03*
Y01257D03*
G54D90*
X01185Y0123D03*
Y01255D03*
Y01281D03*
Y01306D03*
Y01332D03*
G54D91*
X01176Y01155D03*
Y01407D03*
G54D92*
X01079Y01233D03*
Y01328D03*
M02*