%FSTAX23Y23*%
%MOIN*%
%SFA1B1*%

%IPPOS*%
%ADD10C,0.009450*%
%ADD11C,0.004920*%
%ADD12C,0.009840*%
%ADD13C,0.007870*%
%ADD14C,0.005000*%
%ADD15C,0.003000*%
%LNsolears_v1-1*%
%LPD*%
G54D10*
X02342Y02657D02*
X02335Y02661D01*
Y02653*
X02342Y02657*
G54D11*
X01975Y02D02*
X0197D01*
X01975*
G54D12*
X01259Y01384D02*
X01252Y01388D01*
Y01379*
X01259Y01384*
G54D13*
X01652Y01585D02*
X01644D01*
X01652*
X02336Y01733D02*
X02328D01*
X02336*
X0135Y02022D02*
X01344Y02026D01*
Y02019*
X0135Y02022*
X01696Y01374D02*
X01688D01*
X01696*
X01103Y02121D02*
X01166D01*
X01103Y01998D02*
X01166D01*
X01615Y0337D02*
Y0347D01*
X01015Y0337D02*
Y0347D01*
X01615*
X01015Y0337D02*
X01615D01*
X02731Y0317D02*
X02931D01*
X02731Y0307D02*
Y0317D01*
Y0307D02*
X02931D01*
Y0317*
X02986Y02253D02*
Y02775D01*
X02877Y02253D02*
X02986D01*
X02522D02*
X02751D01*
X02405Y02657D02*
Y02834D01*
X02522Y02846D02*
X02751D01*
X02986Y02775D02*
X02996D01*
Y02818*
X02986D02*
X02996D01*
X02986D02*
Y02846D01*
X02877D02*
X02986D01*
X02135Y016D02*
Y018D01*
X02035D02*
X02135D01*
X02035Y016D02*
Y018D01*
Y016D02*
X02135D01*
X0243Y01275D02*
X0263D01*
X0243Y01175D02*
Y01275D01*
Y01175D02*
X0263D01*
Y01275*
X02476Y031D02*
X02676D01*
X02476Y03D02*
Y031D01*
Y03D02*
X02676D01*
Y031*
X0243Y03144D02*
X02438D01*
X0243D02*
Y03152D01*
X02594Y03144D02*
X02601D01*
Y03152*
Y03307D02*
Y03315D01*
X02594D02*
X02601D01*
X0243D02*
X02469D01*
X0243Y03277D02*
Y03315D01*
X01953Y02013D02*
X01956D01*
X01953Y02056D02*
X01956D01*
Y02013D02*
Y02056D01*
X01953Y02013D02*
Y02056D01*
X0127Y01272D02*
Y01397D01*
X01459Y01272D02*
Y01397D01*
X02301Y01663D02*
Y01726D01*
X02178Y01663D02*
Y01726D01*
X02338Y014D02*
X02507D01*
X02338D02*
Y01569D01*
X02507*
Y014D02*
Y01569D01*
X01346Y01601D02*
Y01859D01*
X01613*
Y01601D02*
Y01859D01*
X01346Y01601D02*
X01613D01*
X01045Y0146D02*
X01145D01*
X01045D02*
Y0176D01*
X01145*
Y0146D02*
Y0176D01*
X02096Y03465D02*
X02396D01*
X02096Y03365D02*
Y03465D01*
Y03365D02*
X02396D01*
Y03465*
X02801Y0337D02*
Y0347D01*
X02601Y0337D02*
X02801D01*
X02601D02*
Y0347D01*
X02801*
X01645Y0337D02*
X01945D01*
Y0347*
X01645D02*
X01945D01*
X01645Y0337D02*
Y0347D01*
X02096Y03105D02*
X02396D01*
X02096Y03005D02*
Y03105D01*
Y03005D02*
X02396D01*
Y03105*
X03115Y01215D02*
X03215D01*
X03115D02*
Y01415D01*
X03215*
Y01215D02*
Y01415D01*
X01835Y03295D02*
X02135D01*
X01835Y03195D02*
Y03295D01*
Y03195D02*
X02135D01*
Y03295*
X0193Y0183D02*
Y0193D01*
X0213*
Y0183D02*
Y0193D01*
X0193Y0183D02*
X0213D01*
X03125Y01705D02*
X03225D01*
X03125D02*
Y01905D01*
X03225*
Y01705D02*
Y01905D01*
X01515Y0305D02*
Y0315D01*
X01015Y0305D02*
X01515D01*
X01015Y0315D02*
X01515D01*
X01015Y0305D02*
Y0315D01*
Y03205D02*
Y03305D01*
X01215*
Y03205D02*
Y03305D01*
X01015Y03205D02*
X01215D01*
X0212Y0151D02*
X0227D01*
Y0106D02*
Y0151D01*
X0212Y0106D02*
X0227D01*
X0212D02*
Y0151D01*
G54D14*
X02623Y01542D02*
Y01643D01*
X02577Y01542D02*
Y01643D01*
Y01542D02*
X02623D01*
X02577Y01643D02*
X02623D01*
X01682Y03157D02*
Y03258D01*
X01728Y03157D02*
Y03258D01*
X01682D02*
X01728D01*
X01682Y03157D02*
X01728D01*
X03038Y01137D02*
Y01238D01*
X02992Y01137D02*
Y01238D01*
Y01137D02*
X03038D01*
X02992Y01238D02*
X03038D01*
X02973Y01137D02*
Y01238D01*
X02927Y01137D02*
Y01238D01*
Y01137D02*
X02973D01*
X02927Y01238D02*
X02973D01*
X03043Y01637D02*
Y01738D01*
X02997Y01637D02*
Y01738D01*
Y01637D02*
X03043D01*
X02997Y01738D02*
X03043D01*
X02983Y01637D02*
Y01738D01*
X02937Y01637D02*
Y01738D01*
Y01637D02*
X02983D01*
X02937Y01738D02*
X02983D01*
X02197Y02858D02*
X02298D01*
X02197Y02812D02*
X02298D01*
Y02858*
X02197Y02812D02*
Y02858D01*
Y02803D02*
X02298D01*
X02197Y02757D02*
X02298D01*
Y02803*
X02197Y02757D02*
Y02803D01*
Y02733D02*
X02298D01*
X02197Y02687D02*
X02298D01*
Y02733*
X02197Y02687D02*
Y02733D01*
Y02678D02*
X02298D01*
X02197Y02632D02*
X02298D01*
Y02678*
X02197Y02632D02*
Y02678D01*
Y02608D02*
X02298D01*
X02197Y02562D02*
X02298D01*
Y02608*
X02197Y02562D02*
Y02608D01*
Y02553D02*
X02298D01*
X02197Y02507D02*
X02298D01*
Y02553*
X02197Y02507D02*
Y02553D01*
Y02483D02*
X02298D01*
X02197Y02437D02*
X02298D01*
Y02483*
X02197Y02437D02*
Y02483D01*
Y02428D02*
X02298D01*
X02197Y02382D02*
X02298D01*
Y02428*
X02197Y02382D02*
Y02428D01*
Y02358D02*
X02298D01*
X02197Y02312D02*
X02298D01*
Y02358*
X02197Y02312D02*
Y02358D01*
Y02303D02*
X02298D01*
X02197Y02257D02*
X02298D01*
Y02303*
X02197Y02257D02*
Y02303D01*
Y02233D02*
X02298D01*
X02197Y02187D02*
X02298D01*
Y02233*
X02197Y02187D02*
Y02233D01*
Y02053D02*
X02298D01*
X02197Y02007D02*
X02298D01*
Y02053*
X02197Y02007D02*
Y02053D01*
Y02062D02*
X02298D01*
X02197Y02108D02*
X02298D01*
X02197Y02062D02*
Y02108D01*
X02298Y02062D02*
Y02108D01*
X02197Y02178D02*
X02298D01*
X02197Y02132D02*
X02298D01*
Y02178*
X02197Y02132D02*
Y02178D01*
X01287Y02087D02*
X01388D01*
X01287Y02133D02*
X01388D01*
X01287Y02087D02*
Y02133D01*
X01388Y02087D02*
Y02133D01*
X01482Y02087D02*
X01583D01*
X01482Y02133D02*
X01583D01*
X01482Y02087D02*
Y02133D01*
X01583Y02087D02*
Y02133D01*
X02812Y01918D02*
X02913D01*
X02812Y01872D02*
X02913D01*
Y01918*
X02812Y01872D02*
Y01918D01*
X02942D02*
X03043D01*
X02942Y01872D02*
X03043D01*
Y01918*
X02942Y01872D02*
Y01918D01*
X02932Y01423D02*
X03033D01*
X02932Y01377D02*
X03033D01*
Y01423*
X02932Y01377D02*
Y01423D01*
X02787Y01373D02*
X02888D01*
X02787Y01327D02*
X02888D01*
Y01373*
X02787Y01327D02*
Y01373D01*
X01778Y03037D02*
Y03138D01*
X01732Y03037D02*
Y03138D01*
Y03037D02*
X01778D01*
X01732Y03138D02*
X01778D01*
X01608Y03037D02*
Y03138D01*
X01562Y03037D02*
Y03138D01*
Y03037D02*
X01608D01*
X01562Y03138D02*
X01608D01*
X01663Y03157D02*
Y03258D01*
X01617Y03157D02*
Y03258D01*
Y03157D02*
X01663D01*
X01617Y03258D02*
X01663D01*
X01918Y01927D02*
Y02028D01*
X01872Y01927D02*
Y02028D01*
Y01927D02*
X01918D01*
X01872Y02028D02*
X01918D01*
X02048Y01947D02*
Y02048D01*
X02002Y01947D02*
Y02048D01*
Y01947D02*
X02048D01*
X02002Y02048D02*
X02048D01*
X01438Y01127D02*
Y01228D01*
X01392Y01127D02*
Y01228D01*
Y01127D02*
X01438D01*
X01392Y01228D02*
X01438D01*
X01925Y01455D02*
Y01714D01*
X01674Y01455D02*
X01925D01*
X01674Y01714D02*
X01925D01*
X01674Y01455D02*
Y01714D01*
X01258Y01457D02*
Y01558D01*
X01212Y01457D02*
Y01558D01*
Y01457D02*
X01258D01*
X01212Y01558D02*
X01258D01*
X02507Y01822D02*
X02608D01*
X02507Y01868D02*
X02608D01*
X02507Y01822D02*
Y01868D01*
X02608Y01822D02*
Y01868D01*
X02387Y01822D02*
X02488D01*
X02387Y01868D02*
X02488D01*
X02387Y01822D02*
Y01868D01*
X02488Y01822D02*
Y01868D01*
X02371Y01752D02*
Y01773D01*
Y01616D02*
Y01637D01*
X02528Y01752D02*
Y01773D01*
Y01616D02*
Y01637D01*
X02371Y01773D02*
X02392D01*
X02371Y01616D02*
X02392D01*
X02507Y01773D02*
X02528D01*
X02507Y01616D02*
X02528D01*
X01207Y01797D02*
Y01898D01*
X01253Y01797D02*
Y01898D01*
X01207D02*
X01253D01*
X01207Y01797D02*
X01253D01*
X01052Y01782D02*
Y01883D01*
X01098Y01782D02*
Y01883D01*
X01052D02*
X01098D01*
X01052Y01782D02*
X01098D01*
X01132Y01777D02*
Y01878D01*
X01178Y01777D02*
Y01878D01*
X01132D02*
X01178D01*
X01132Y01777D02*
X01178D01*
X01732Y01782D02*
Y01883D01*
X01778Y01782D02*
Y01883D01*
X01732D02*
X01778D01*
X01732Y01782D02*
X01778D01*
X01323Y01817D02*
Y01918D01*
X01277Y01817D02*
Y01918D01*
Y01817D02*
X01323D01*
X01277Y01918D02*
X01323D01*
X01411Y01888D02*
X01588D01*
X01411Y02011D02*
X01588D01*
X01729Y01392D02*
Y01415D01*
Y01254D02*
Y01277D01*
X0189Y01392D02*
Y01415D01*
Y01254D02*
Y01277D01*
X01729Y01415D02*
X01752D01*
X01729Y01254D02*
X01752D01*
X01867Y01415D02*
X0189D01*
X01867Y01254D02*
X0189D01*
X01597Y01197D02*
Y01298D01*
X01643Y01197D02*
Y01298D01*
X01597D02*
X01643D01*
X01597Y01197D02*
X01643D01*
X01982Y01287D02*
Y01388D01*
X02028Y01287D02*
Y01388D01*
X01982D02*
X02028D01*
X01982Y01287D02*
X02028D01*
X01973Y01177D02*
Y01278D01*
X01927Y01177D02*
Y01278D01*
Y01177D02*
X01973D01*
X01927Y01278D02*
X01973D01*
X02357Y01152D02*
Y01253D01*
X02403Y01152D02*
Y01253D01*
X02357D02*
X02403D01*
X02357Y01152D02*
X02403D01*
X02628Y03182D02*
Y03283D01*
X02674Y03182D02*
Y03283D01*
X02628D02*
X02674D01*
X02628Y03182D02*
X02674D01*
X02693Y03197D02*
Y03298D01*
X02739Y03197D02*
Y03298D01*
X02693D02*
X02739D01*
X02693Y03197D02*
X02739D01*
X02637Y01577D02*
Y01678D01*
X02683Y01577D02*
Y01678D01*
X02637D02*
X02683D01*
X02637Y01577D02*
X02683D01*
G54D15*
X01085Y01977D02*
X01082Y0198D01*
X01077*
X01075Y01977*
Y01967*
X01077Y01965*
X01082*
X01085Y01967*
X0109Y01965D02*
X01094D01*
X01092*
Y0198*
X0109Y01977*
X01109Y01965D02*
Y0198D01*
X01102Y01972*
X01112*
X0254Y01585D02*
Y016D01*
X02547*
X0255Y01597*
Y01592*
X02547Y0159*
X0254*
X02545D02*
X0255Y01585D01*
X02555Y01587D02*
X02557Y01585D01*
X02562*
X02564Y01587*
Y01597*
X02562Y016*
X02557*
X02555Y01597*
Y01595*
X02557Y01592*
X02564*
X01685Y03275D02*
Y03289D01*
X01692*
X01695Y03287*
Y03282*
X01692Y0328*
X01685*
X0169D02*
X01695Y03275D01*
X017D02*
X01704D01*
X01702*
Y03289*
X017Y03287*
X01712Y03277D02*
X01714Y03275D01*
X01719*
X01722Y03277*
Y03287*
X01719Y03289*
X01714*
X01712Y03287*
Y03285*
X01714Y03282*
X01722*
X02995Y011D02*
Y01115D01*
X03002*
X03005Y01112*
Y01107*
X03002Y01105*
X02995*
X03D02*
X03005Y011D01*
X03019D02*
X03009D01*
X03019Y0111*
Y01112*
X03017Y01115*
X03012*
X03009Y01112*
X03034Y01115D02*
X03024D01*
Y01107*
X03029Y0111*
X03032*
X03034Y01107*
Y01102*
X03032Y011*
X03027*
X03024Y01102*
X02925Y011D02*
Y01115D01*
X02932*
X02935Y01112*
Y01107*
X02932Y01105*
X02925*
X0293D02*
X02935Y011D01*
X02949D02*
X0294D01*
X02949Y0111*
Y01112*
X02947Y01115*
X02942*
X0294Y01112*
X02964Y01115D02*
X02959Y01112D01*
X02954Y01107*
Y01102*
X02957Y011*
X02962*
X02964Y01102*
Y01105*
X02962Y01107*
X02954*
X03Y01605D02*
Y01619D01*
X03007*
X0301Y01617*
Y01612*
X03007Y0161*
X03*
X03005D02*
X0301Y01605D01*
X03024D02*
X03015D01*
X03024Y01615*
Y01617*
X03022Y01619*
X03017*
X03015Y01617*
X03029Y01607D02*
X03032Y01605D01*
X03037*
X03039Y01607*
Y01617*
X03037Y01619*
X03032*
X03029Y01617*
Y01615*
X03032Y01612*
X03039*
X0287Y01675D02*
Y0169D01*
X02877*
X0288Y01687*
Y01682*
X02877Y0168*
X0287*
X02875D02*
X0288Y01675D01*
X02884Y01687D02*
X02887Y0169D01*
X02892*
X02894Y01687*
Y01685*
X02892Y01682*
X02889*
X02892*
X02894Y0168*
Y01677*
X02892Y01675*
X02887*
X02884Y01677*
X02899Y01687D02*
X02902Y0169D01*
X02907*
X02909Y01687*
Y01677*
X02907Y01675*
X02902*
X02899Y01677*
Y01687*
X02805Y01797D02*
X02802Y01799D01*
X02797*
X02795Y01797*
Y01787*
X02797Y01785*
X02802*
X02805Y01787*
X02809Y01797D02*
X02812Y01799D01*
X02817*
X02819Y01797*
Y01795*
X02817Y01792*
X02814*
X02817*
X02819Y0179*
Y01787*
X02817Y01785*
X02812*
X02809Y01787*
X02834Y01799D02*
X02824D01*
Y01792*
X02829Y01795*
X02832*
X02834Y01792*
Y01787*
X02832Y01785*
X02827*
X02824Y01787*
X02315Y0283D02*
Y02845D01*
X02322*
X02325Y02842*
Y02837*
X02322Y02835*
X02315*
X0232D02*
X02325Y0283D01*
X02329Y02842D02*
X02332Y02845D01*
X02337*
X02339Y02842*
Y0284*
X02337Y02837*
X02334*
X02337*
X02339Y02835*
Y02832*
X02337Y0283*
X02332*
X02329Y02832*
X02344D02*
X02347Y0283D01*
X02352*
X02354Y02832*
Y02842*
X02352Y02845*
X02347*
X02344Y02842*
Y0284*
X02347Y02837*
X02354*
X02315Y02775D02*
Y02789D01*
X02322*
X02325Y02787*
Y02782*
X02322Y0278*
X02315*
X0232D02*
X02325Y02775D01*
X02337D02*
Y02789D01*
X02329Y02782*
X02339*
X02344Y02777D02*
X02347Y02775D01*
X02352*
X02354Y02777*
Y02787*
X02352Y02789*
X02347*
X02344Y02787*
Y02785*
X02347Y02782*
X02354*
X02315Y02705D02*
Y0272D01*
X02322*
X02325Y02717*
Y02712*
X02322Y0271*
X02315*
X0232D02*
X02325Y02705D01*
X02329Y02717D02*
X02332Y0272D01*
X02337*
X02339Y02717*
Y02715*
X02337Y02712*
X02334*
X02337*
X02339Y0271*
Y02707*
X02337Y02705*
X02332*
X02329Y02707*
X02344Y02717D02*
X02347Y0272D01*
X02352*
X02354Y02717*
Y02715*
X02352Y02712*
X02354Y0271*
Y02707*
X02352Y02705*
X02347*
X02344Y02707*
Y0271*
X02347Y02712*
X02344Y02715*
Y02717*
X02347Y02712D02*
X02352D01*
X0214Y02645D02*
Y0266D01*
X02147*
X0215Y02657*
Y02652*
X02147Y0265*
X0214*
X02145D02*
X0215Y02645D01*
X02164Y0266D02*
X02154D01*
Y02652*
X02159Y02655*
X02162*
X02164Y02652*
Y02647*
X02162Y02645*
X02157*
X02154Y02647*
X02169Y02657D02*
X02172Y0266D01*
X02177*
X02179Y02657*
Y02647*
X02177Y02645*
X02172*
X02169Y02647*
Y02657*
X02125Y026D02*
Y02615D01*
X02132*
X02135Y02612*
Y02607*
X02132Y02605*
X02125*
X0213D02*
X02135Y026D01*
X02147D02*
Y02615D01*
X0214Y02607*
X02149*
X02164Y026D02*
X02154D01*
X02164Y0261*
Y02612*
X02162Y02615*
X02157*
X02154Y02612*
X0214Y0252D02*
Y02535D01*
X02147*
X0215Y02532*
Y02527*
X02147Y02525*
X0214*
X02145D02*
X0215Y0252D01*
X02162D02*
Y02535D01*
X02154Y02527*
X02164*
X02179Y02535D02*
X02174Y02532D01*
X02169Y02527*
Y02522*
X02172Y0252*
X02177*
X02179Y02522*
Y02525*
X02177Y02527*
X02169*
X0214Y02475D02*
Y0249D01*
X02147*
X0215Y02487*
Y02482*
X02147Y0248*
X0214*
X02145D02*
X0215Y02475D01*
X02162D02*
Y0249D01*
X02154Y02482*
X02164*
X02169Y02487D02*
X02172Y0249D01*
X02177*
X02179Y02487*
Y02485*
X02177Y02482*
X02174*
X02177*
X02179Y0248*
Y02477*
X02177Y02475*
X02172*
X02169Y02477*
X0214Y024D02*
Y02414D01*
X02147*
X0215Y02412*
Y02407*
X02147Y02405*
X0214*
X02145D02*
X0215Y024D01*
X02162D02*
Y02414D01*
X02154Y02407*
X02164*
X02179Y02414D02*
X02169D01*
Y02407*
X02174Y0241*
X02177*
X02179Y02407*
Y02402*
X02177Y024*
X02172*
X02169Y02402*
X0214Y02315D02*
Y02329D01*
X02147*
X0215Y02327*
Y02322*
X02147Y0232*
X0214*
X02145D02*
X0215Y02315D01*
X02162D02*
Y02329D01*
X02154Y02322*
X02164*
X02169Y02329D02*
X02179D01*
Y02327*
X02169Y02317*
Y02315*
X0214Y02275D02*
Y02289D01*
X02147*
X0215Y02287*
Y02282*
X02147Y0228*
X0214*
X02145D02*
X0215Y02275D01*
X02162D02*
Y02289D01*
X02154Y02282*
X02164*
X02169Y02275D02*
X02174D01*
X02172*
Y02289*
X02169Y02287*
X0214Y022D02*
Y02214D01*
X02147*
X0215Y02212*
Y02207*
X02147Y02205*
X0214*
X02145D02*
X0215Y022D01*
X02162D02*
Y02214D01*
X02154Y02207*
X02164*
X02169Y02212D02*
X02172Y02214D01*
X02177*
X02179Y02212*
Y0221*
X02177Y02207*
X02179Y02205*
Y02202*
X02177Y022*
X02172*
X02169Y02202*
Y02205*
X02172Y02207*
X02169Y0221*
Y02212*
X02172Y02207D02*
X02177D01*
X02325Y01967D02*
X02322Y0197D01*
X02317*
X02315Y01967*
Y01957*
X02317Y01955*
X02322*
X02325Y01957*
X02337Y01955D02*
Y0197D01*
X02329Y01962*
X02339*
X02344Y01967D02*
X02347Y0197D01*
X02352*
X02354Y01967*
Y01965*
X02352Y01962*
X02349*
X02352*
X02354Y0196*
Y01957*
X02352Y01955*
X02347*
X02344Y01957*
X02315Y02025D02*
Y02039D01*
X02322*
X02325Y02037*
Y02032*
X02322Y0203*
X02315*
X0232D02*
X02325Y02025D01*
X02337D02*
Y02039D01*
X02329Y02032*
X02339*
X02352Y02025D02*
Y02039D01*
X02344Y02032*
X02354*
X02315Y0208D02*
Y02095D01*
X02322*
X02325Y02092*
Y02087*
X02322Y02085*
X02315*
X0232D02*
X02325Y0208D01*
X02339Y02095D02*
X02329D01*
Y02087*
X02334Y0209*
X02337*
X02339Y02087*
Y02082*
X02337Y0208*
X02332*
X02329Y02082*
X02344Y0208D02*
X02349D01*
X02347*
Y02095*
X02344Y02092*
X02315Y02145D02*
Y0216D01*
X02322*
X02325Y02157*
Y02152*
X02322Y0215*
X02315*
X0232D02*
X02325Y02145D01*
X02337D02*
Y0216D01*
X02329Y02152*
X02339*
X02344Y02157D02*
X02347Y0216D01*
X02352*
X02354Y02157*
Y02147*
X02352Y02145*
X02347*
X02344Y02147*
Y02157*
X0104Y03485D02*
Y03499D01*
X01047*
X0105Y03497*
Y03492*
X01047Y0349*
X0104*
X01064Y03497D02*
X01062Y03499D01*
X01057*
X01054Y03497*
Y03487*
X01057Y03485*
X01062*
X01064Y03487*
Y03492*
X01059*
X01069Y03485D02*
Y03499D01*
X01077*
X01079Y03497*
Y03492*
X01077Y0349*
X01069*
X01084Y03499D02*
X01089D01*
X01087*
Y03485*
X01084*
X01089*
X01104Y03499D02*
X01099D01*
X01097Y03497*
Y03487*
X01099Y03485*
X01104*
X01107Y03487*
Y03497*
X01104Y03499*
X02795Y03185D02*
Y032D01*
X02802*
X02805Y03197*
Y03192*
X02802Y0319*
X02795*
X02819Y03197D02*
X02817Y032D01*
X02812*
X02809Y03197*
Y03195*
X02812Y03192*
X02817*
X02819Y0319*
Y03187*
X02817Y03185*
X02812*
X02809Y03187*
X02824Y03185D02*
Y032D01*
X02832*
X02834Y03197*
Y03192*
X02832Y0319*
X02824*
X02839Y032D02*
Y03185D01*
Y0319*
X02849Y032*
X02842Y03192*
X02849Y03185*
X0135Y0206D02*
Y02075D01*
X01357*
X0136Y02072*
Y02067*
X01357Y02065*
X0135*
X01355D02*
X0136Y0206D01*
X01365Y02072D02*
X01367Y02075D01*
X01372*
X01374Y02072*
Y0207*
X01372Y02067*
X01369*
X01372*
X01374Y02065*
Y02062*
X01372Y0206*
X01367*
X01365Y02062*
X01379Y0206D02*
X01384D01*
X01382*
Y02075*
X01379Y02072*
X01535Y0206D02*
Y02075D01*
X01542*
X01545Y02072*
Y02067*
X01542Y02065*
X01535*
X0154D02*
X01545Y0206D01*
X01549Y02072D02*
X01552Y02075D01*
X01557*
X01559Y02072*
Y0207*
X01557Y02067*
X01554*
X01557*
X01559Y02065*
Y02062*
X01557Y0206*
X01552*
X01549Y02062*
X01574Y0206D02*
X01564D01*
X01574Y0207*
Y02072*
X01572Y02075*
X01567*
X01564Y02072*
X0288Y0196D02*
Y01945D01*
X02872*
X0287Y01947*
Y01952*
X02872Y01955*
X0288*
X02875D02*
X0287Y0196D01*
X02855D02*
X02865D01*
X02855Y0195*
Y01947*
X02857Y01945*
X02862*
X02865Y01947*
X0285Y01945D02*
X0284D01*
Y01947*
X0285Y01957*
Y0196*
X0309Y01607D02*
X03092Y01605D01*
X03097*
X031Y01607*
Y01617*
X03097Y0162*
X03092*
X0309Y01617*
X03085Y01607D02*
X03082Y01605D01*
X03077*
X03075Y01607*
Y0161*
X03077Y01612*
X0308*
X03077*
X03075Y01615*
Y01617*
X03077Y0162*
X03082*
X03085Y01617*
X03062Y0162D02*
Y01605D01*
X0307Y01612*
X0306*
X0309Y01867D02*
X03092Y01865D01*
X03097*
X031Y01867*
Y01877*
X03097Y0188*
X03092*
X0309Y01877*
X03085Y01867D02*
X03082Y01865D01*
X03077*
X03075Y01867*
Y0187*
X03077Y01872*
X0308*
X03077*
X03075Y01875*
Y01877*
X03077Y0188*
X03082*
X03085Y01877*
X0306Y0188D02*
X0307D01*
X0306Y0187*
Y01867*
X03062Y01865*
X03067*
X0307Y01867*
X0308Y02007D02*
X03082Y02005D01*
X03087*
X0309Y02007*
Y02017*
X03087Y0202*
X03082*
X0308Y02017*
X03075Y02007D02*
X03072Y02005D01*
X03067*
X03065Y02007*
Y0201*
X03067Y02012*
X0307*
X03067*
X03065Y02015*
Y02017*
X03067Y0202*
X03072*
X03075Y02017*
X0306Y02007D02*
X03057Y02005D01*
X03052*
X0305Y02007*
Y0201*
X03052Y02012*
X03055*
X03052*
X0305Y02015*
Y02017*
X03052Y0202*
X03057*
X0306Y02017*
X02715Y01882D02*
X02717Y0188D01*
X02722*
X02725Y01882*
Y01892*
X02722Y01895*
X02717*
X02715Y01892*
X027Y01895D02*
X0271D01*
X027Y01885*
Y01882*
X02702Y0188*
X02707*
X0271Y01882*
X02685Y01895D02*
X02695D01*
X02685Y01885*
Y01882*
X02687Y0188*
X02692*
X02695Y01882*
X0299Y0197D02*
X03005D01*
Y01962*
X03002Y0196*
X02997*
X02995Y01962*
Y0197*
Y01965D02*
X0299Y0196D01*
Y01945D02*
Y01955D01*
X03Y01945*
X03002*
X03005Y01947*
Y01952*
X03002Y01955*
Y0194D02*
X03005Y01937D01*
Y01932*
X03002Y0193*
X03*
X02997Y01932*
X02995Y0193*
X02992*
X0299Y01932*
Y01937*
X02992Y0194*
X02995*
X02997Y01937*
X03Y0194*
X03002*
X02997Y01937D02*
Y01932D01*
X02927Y0178D02*
X0293Y01782D01*
Y01787*
X02927Y0179*
X02917*
X02915Y01787*
Y01782*
X02917Y0178*
X02927Y01775D02*
X0293Y01772D01*
Y01767*
X02927Y01765*
X02925*
X02922Y01767*
Y0177*
Y01767*
X0292Y01765*
X02917*
X02915Y01767*
Y01772*
X02917Y01775*
X02915Y0176D02*
Y01755D01*
Y01757*
X0293*
X02927Y0176*
X02932Y0184D02*
X02934Y01842D01*
Y01847*
X02932Y0185*
X02922*
X0292Y01847*
Y01842*
X02922Y0184*
X02932Y01835D02*
X02934Y01832D01*
Y01827*
X02932Y01825*
X0293*
X02927Y01827*
Y0183*
Y01827*
X02925Y01825*
X02922*
X0292Y01827*
Y01832*
X02922Y01835*
X02932Y0182D02*
X02934Y01817D01*
Y01812*
X02932Y0181*
X02922*
X0292Y01812*
Y01817*
X02922Y0182*
X02932*
X02815Y01212D02*
X02817Y0121D01*
X02822*
X02825Y01212*
Y01222*
X02822Y01225*
X02817*
X02815Y01222*
X028Y01225D02*
X0281D01*
X028Y01215*
Y01212*
X02802Y0121*
X02807*
X0281Y01212*
X02795Y01222D02*
X02792Y01225D01*
X02787*
X02785Y01222*
Y01212*
X02787Y0121*
X02792*
X02795Y01212*
Y01215*
X02792Y01217*
X02785*
X03085Y01502D02*
X03087Y015D01*
X03092*
X03095Y01502*
Y01512*
X03092Y01515*
X03087*
X03085Y01512*
X0307Y01515D02*
X0308D01*
X0307Y01505*
Y01502*
X03072Y015*
X03077*
X0308Y01502*
X03065Y015D02*
X03055D01*
Y01502*
X03065Y01512*
Y01515*
X02755Y01447D02*
X02757Y01445D01*
X02762*
X02765Y01447*
Y01457*
X02762Y0146*
X02757*
X02755Y01457*
X0274Y0146D02*
X0275D01*
X0274Y0145*
Y01447*
X02742Y01445*
X02747*
X0275Y01447*
X02735D02*
X02732Y01445D01*
X02727*
X02725Y01447*
Y0145*
X02727Y01452*
X0273*
X02727*
X02725Y01455*
Y01457*
X02727Y0146*
X02732*
X02735Y01457*
X02917Y01285D02*
X0292Y01287D01*
Y01292*
X02917Y01295*
X02907*
X02905Y01292*
Y01287*
X02907Y01285*
X02905Y0127D02*
Y0128D01*
X02915Y0127*
X02917*
X0292Y01272*
Y01277*
X02917Y0128*
X0292Y01255D02*
Y01265D01*
X02912*
X02915Y0126*
Y01257*
X02912Y01255*
X02907*
X02905Y01257*
Y01262*
X02907Y01265*
X02917Y0134D02*
X0292Y01342D01*
Y01347*
X02917Y0135*
X02907*
X02905Y01347*
Y01342*
X02907Y0134*
X02905Y01325D02*
Y01335D01*
X02915Y01325*
X02917*
X0292Y01327*
Y01332*
X02917Y01335*
X02905Y01312D02*
X0292D01*
X02912Y0132*
Y0131*
X0297Y0148D02*
X02984D01*
Y01472*
X02982Y0147*
X02977*
X02975Y01472*
Y0148*
Y01475D02*
X0297Y0147D01*
Y01455D02*
Y01465D01*
X0298Y01455*
X02982*
X02984Y01457*
Y01462*
X02982Y01465*
X0297Y01442D02*
X02984D01*
X02977Y0145*
Y0144*
X02825Y0143D02*
X02839D01*
Y01422*
X02837Y0142*
X02832*
X0283Y01422*
Y0143*
Y01425D02*
X02825Y0142D01*
Y01405D02*
Y01415D01*
X02835Y01405*
X02837*
X02839Y01407*
Y01412*
X02837Y01415*
Y014D02*
X02839Y01397D01*
Y01392*
X02837Y0139*
X02835*
X02832Y01392*
Y01395*
Y01392*
X0283Y0139*
X02827*
X02825Y01392*
Y01397*
X02827Y014*
X03085Y01362D02*
X03087Y0136D01*
X03092*
X03095Y01362*
Y01372*
X03092Y01375*
X03087*
X03085Y01372*
X0307Y01375D02*
X0308D01*
X0307Y01365*
Y01362*
X03072Y0136*
X03077*
X0308Y01362*
X03055Y0136D02*
X0306Y01362D01*
X03065Y01367*
Y01372*
X03062Y01375*
X03057*
X03055Y01372*
Y0137*
X03057Y01367*
X03065*
X03085Y01102D02*
X03087Y011D01*
X03092*
X03095Y01102*
Y01112*
X03092Y01115*
X03087*
X03085Y01112*
X0307Y01115D02*
X0308D01*
X0307Y01105*
Y01102*
X03072Y011*
X03077*
X0308Y01102*
X03065D02*
X03062Y011D01*
X03057*
X03055Y01102*
Y01105*
X03057Y01107*
X03055Y0111*
Y01112*
X03057Y01115*
X03062*
X03065Y01112*
Y0111*
X03062Y01107*
X03065Y01105*
Y01102*
X03062Y01107D02*
X03057D01*
X01085Y01917D02*
X01082Y01919D01*
X01077*
X01075Y01917*
Y01907*
X01077Y01905*
X01082*
X01085Y01907*
X0109Y01905D02*
X01094D01*
X01092*
Y01919*
X0109Y01917*
X01112Y01919D02*
X01102D01*
Y01912*
X01107Y01915*
X01109*
X01112Y01912*
Y01907*
X01109Y01905*
X01104*
X01102Y01907*
X0174Y03155D02*
Y0317D01*
X01747*
X0175Y03167*
Y03162*
X01747Y0316*
X0174*
X01745D02*
X0175Y03155D01*
X01764D02*
X01754D01*
X01764Y03165*
Y03167*
X01762Y0317*
X01757*
X01754Y03167*
X01779Y03155D02*
X01769D01*
X01779Y03165*
Y03167*
X01777Y0317*
X01772*
X01769Y03167*
X016Y0302D02*
Y03005D01*
X01592*
X0159Y03007*
Y03012*
X01592Y03015*
X016*
X01595D02*
X0159Y0302D01*
X01575D02*
X01585D01*
X01575Y0301*
Y03007*
X01577Y03005*
X01582*
X01585Y03007*
X0157Y0302D02*
X01565D01*
X01567*
Y03005*
X0157Y03007*
X0165Y0329D02*
Y03275D01*
X01642*
X0164Y03277*
Y03282*
X01642Y03285*
X0165*
X01645D02*
X0164Y0329D01*
X01625D02*
X01635D01*
X01625Y0328*
Y03277*
X01627Y03275*
X01632*
X01635Y03277*
X0162D02*
X01617Y03275D01*
X01612*
X0161Y03277*
Y03287*
X01612Y0329*
X01617*
X0162Y03287*
Y03277*
X01705Y03027D02*
X01707Y03025D01*
X01712*
X01715Y03027*
Y03037*
X01712Y0304*
X01707*
X01705Y03037*
X0169Y0304D02*
X017D01*
X0169Y0303*
Y03027*
X01692Y03025*
X01697*
X017Y03027*
X01685D02*
X01682Y03025D01*
X01677*
X01675Y03027*
Y03037*
X01677Y0304*
X01682*
X01685Y03037*
Y03027*
X01655D02*
X01657Y03025D01*
X01662*
X01665Y03027*
Y03037*
X01662Y0304*
X01657*
X01655Y03037*
X0164Y0304D02*
X0165D01*
X0164Y0303*
Y03027*
X01642Y03025*
X01647*
X0165Y03027*
X01635Y0304D02*
X0163D01*
X01632*
Y03025*
X01635Y03027*
X0261Y02175D02*
Y0217D01*
Y02172*
X02622*
X02625Y0217*
Y02167*
X02622Y02165*
X02625Y02189D02*
Y0218D01*
X02615Y02189*
X02612*
X0261Y02187*
Y02182*
X02612Y0218*
X0201Y0156D02*
Y01575D01*
X02017*
X0202Y01572*
Y01567*
X02017Y01565*
X0201*
X02025Y01575D02*
Y01565D01*
X02029Y0156*
X02034Y01565*
Y01575*
X02049D02*
X02039D01*
Y0156*
X02049*
X02039Y01567D02*
X02044D01*
X02054Y01575D02*
X02064Y0156D01*
Y01575D02*
X02054Y0156D01*
X02069Y01575D02*
X02079D01*
X02074*
Y0156*
X0185Y02045D02*
X0185Y02059D01*
X01858Y02059*
X0186Y02056*
X0186Y02051*
X01857Y02049*
X0185Y02049*
X01855Y02049D02*
X01859Y02044D01*
X01865Y02056D02*
X01868Y02059D01*
X01873Y02058*
X01875Y02056*
X01875Y02053*
X01872Y02051*
X0187Y02051*
X01872Y02051*
X01875Y02048*
X01875Y02046*
X01872Y02043*
X01867Y02044*
X01865Y02046*
X0188Y02058D02*
X0189Y02057D01*
X0189Y02055*
X0188Y02045*
X01879Y02043*
X0201Y02065D02*
Y02079D01*
X02017*
X0202Y02077*
Y02072*
X02017Y0207*
X0201*
X02015D02*
X0202Y02065D01*
X02025Y02077D02*
X02027Y02079D01*
X02032*
X02034Y02077*
Y02075*
X02032Y02072*
X02029*
X02032*
X02034Y0207*
Y02067*
X02032Y02065*
X02027*
X02025Y02067*
X02049Y02079D02*
X02044Y02077D01*
X02039Y02072*
Y02067*
X02042Y02065*
X02047*
X02049Y02067*
Y0207*
X02047Y02072*
X02039*
X0266Y0127D02*
Y01284D01*
X02667*
X0267Y01282*
Y01277*
X02667Y01275*
X0266*
X02674Y01284D02*
Y0127D01*
Y01277*
X02684*
Y01284*
Y0127*
X02689D02*
Y01284D01*
X02697*
X02699Y01282*
Y01277*
X02697Y01275*
X02689*
X02691Y0309D02*
X02706D01*
Y03082*
X02703Y0308*
X02698*
X02696Y03082*
Y0309*
X02703Y03065D02*
X02706Y03067D01*
Y03072*
X02703Y03075*
X02701*
X02698Y03072*
Y03067*
X02696Y03065*
X02693*
X02691Y03067*
Y03072*
X02693Y03075*
X02691Y0306D02*
X02706D01*
Y03052*
X02703Y0305*
X02698*
X02696Y03052*
Y0306*
X02706Y03045D02*
X02691D01*
X02696*
X02706Y03035*
X02698Y03042*
X02691Y03035*
X02706Y0303D02*
X02691D01*
Y0302*
X02571Y03355D02*
Y03342D01*
X02573Y0334*
X02578*
X02581Y03342*
Y03355*
X02596D02*
X02591Y03352D01*
X02586Y03347*
Y03342*
X02588Y0334*
X02593*
X02596Y03342*
Y03345*
X02593Y03347*
X02586*
X02246Y03257D02*
X02243Y03259D01*
X02238*
X02236Y03257*
Y03247*
X02238Y03245*
X02243*
X02246Y03247*
X02251Y03257D02*
X02253Y03259D01*
X02258*
X02261Y03257*
Y03255*
X02258Y03252*
X02256*
X02258*
X02261Y0325*
Y03247*
X02258Y03245*
X02253*
X02251Y03247*
X02266D02*
X02268Y03245D01*
X02273*
X02276Y03247*
Y03257*
X02273Y03259*
X02268*
X02266Y03257*
Y03255*
X02268Y03252*
X02276*
X02246Y03307D02*
X02243Y03309D01*
X02238*
X02236Y03307*
Y03297*
X02238Y03295*
X02243*
X02246Y03297*
X02251Y03307D02*
X02253Y03309D01*
X02258*
X02261Y03307*
Y03305*
X02258Y03302*
X02256*
X02258*
X02261Y033*
Y03297*
X02258Y03295*
X02253*
X02251Y03297*
X02266Y03307D02*
X02268Y03309D01*
X02273*
X02276Y03307*
Y03305*
X02273Y03302*
X02276Y033*
Y03297*
X02273Y03295*
X02268*
X02266Y03297*
Y033*
X02268Y03302*
X02266Y03305*
Y03307*
X02268Y03302D02*
X02273D01*
X02246Y03207D02*
X02243Y0321D01*
X02238*
X02236Y03207*
Y03197*
X02238Y03195*
X02243*
X02246Y03197*
X02251Y03207D02*
X02253Y0321D01*
X02258*
X02261Y03207*
Y03205*
X02258Y03202*
X02256*
X02258*
X02261Y032*
Y03197*
X02258Y03195*
X02253*
X02251Y03197*
X02266Y0321D02*
X02276D01*
Y03207*
X02266Y03197*
Y03195*
X02246Y03157D02*
X02243Y0316D01*
X02238*
X02236Y03157*
Y03147*
X02238Y03145*
X02243*
X02246Y03147*
X02251Y03157D02*
X02253Y0316D01*
X02258*
X02261Y03157*
Y03155*
X02258Y03152*
X02256*
X02258*
X02261Y0315*
Y03147*
X02258Y03145*
X02253*
X02251Y03147*
X02276Y0316D02*
X02271Y03157D01*
X02266Y03152*
Y03147*
X02268Y03145*
X02273*
X02276Y03147*
Y0315*
X02273Y03152*
X02266*
X01955Y02077D02*
Y02087D01*
X01952Y02089*
X01947*
X01945Y02087*
Y02077*
X01947Y02075*
X01952*
X0195Y0208D02*
X01955Y02075D01*
X01952D02*
X01955Y02077D01*
X0196Y02075D02*
X01964D01*
X01962*
Y02089*
X0196Y02087*
X01285Y0145D02*
Y01437D01*
X01287Y01435*
X01292*
X01295Y01437*
Y0145*
X01309Y01435D02*
X01299D01*
X01309Y01445*
Y01447*
X01307Y0145*
X01302*
X01299Y01447*
X01455Y01165D02*
Y01179D01*
X01462*
X01465Y01177*
Y01172*
X01462Y0117*
X01455*
X0146D02*
X01465Y01165D01*
X01479Y01179D02*
X0147D01*
Y01172*
X01474Y01175*
X01477*
X01479Y01172*
Y01167*
X01477Y01165*
X01472*
X0147Y01167*
X0195Y01605D02*
Y0159D01*
X0196*
X01965D02*
X01969D01*
X01967*
Y01605*
X01965Y01602*
X0127Y01505D02*
Y01519D01*
X01277*
X0128Y01517*
Y01512*
X01277Y0151*
X0127*
X01275D02*
X0128Y01505D01*
X01294Y01519D02*
X01289Y01517D01*
X01284Y01512*
Y01507*
X01287Y01505*
X01292*
X01294Y01507*
Y0151*
X01292Y01512*
X01284*
X01237Y01205D02*
X0124Y01207D01*
Y01212*
X01237Y01215*
X01227*
X01225Y01212*
Y01207*
X01227Y01205*
X0124Y0119D02*
X01237Y01195D01*
X01232Y012*
X01227*
X01225Y01197*
Y01192*
X01227Y0119*
X0123*
X01232Y01192*
Y012*
X0132Y01097D02*
X01317Y011D01*
X01312*
X0131Y01097*
Y01087*
X01312Y01085*
X01317*
X0132Y01087*
X01334Y011D02*
X01325D01*
Y01092*
X01329Y01095*
X01332*
X01334Y01092*
Y01087*
X01332Y01085*
X01327*
X01325Y01087*
X0226Y01562D02*
X02257Y01565D01*
X02252*
X0225Y01562*
Y01552*
X02252Y0155*
X02257*
X0226Y01552*
X02265Y01565D02*
X02274D01*
Y01562*
X02265Y01552*
Y0155*
X0252Y0189D02*
Y01904D01*
X02527*
X0253Y01902*
Y01897*
X02527Y01895*
X0252*
X02525D02*
X0253Y0189D01*
X02535Y01902D02*
X02537Y01904D01*
X02542*
X02544Y01902*
Y019*
X02542Y01897*
X02544Y01895*
Y01892*
X02542Y0189*
X02537*
X02535Y01892*
Y01895*
X02537Y01897*
X02535Y019*
Y01902*
X02537Y01897D02*
X02542D01*
X0238Y0189D02*
Y01904D01*
X02387*
X0239Y01902*
Y01897*
X02387Y01895*
X0238*
X02385D02*
X0239Y0189D01*
X02394Y01904D02*
X02404D01*
Y01902*
X02394Y01892*
Y0189*
X0233Y0184D02*
Y01827D01*
X02332Y01825*
X02337*
X0234Y01827*
Y0184*
X02345Y01837D02*
X02347Y0184D01*
X02352*
X02354Y01837*
Y01835*
X02352Y01832*
X02349*
X02352*
X02354Y0183*
Y01827*
X02352Y01825*
X02347*
X02345Y01827*
X0253Y01475D02*
Y0146D01*
X0254*
X02554D02*
X02545D01*
X02554Y0147*
Y01472*
X02552Y01475*
X02547*
X02545Y01472*
X01205Y0177D02*
Y01784D01*
X01212*
X01215Y01782*
Y01777*
X01212Y01775*
X01205*
X0121D02*
X01215Y0177D01*
X0122D02*
X01224D01*
X01222*
Y01784*
X0122Y01782*
X01242Y01784D02*
X01237Y01782D01*
X01232Y01777*
Y01772*
X01234Y0177*
X01239*
X01242Y01772*
Y01775*
X01239Y01777*
X01232*
X01035Y0182D02*
X0102D01*
Y01827*
X01022Y0183*
X01027*
X0103Y01827*
Y0182*
Y01825D02*
X01035Y0183D01*
Y01835D02*
Y01839D01*
Y01837*
X0102*
X01022Y01835*
X01035Y01854D02*
X0102D01*
X01027Y01847*
Y01857*
X01175Y0172D02*
X0116D01*
Y01727*
X01162Y0173*
X01167*
X0117Y01727*
Y0172*
Y01725D02*
X01175Y0173D01*
Y01735D02*
Y01739D01*
Y01737*
X0116*
X01162Y01735*
X0116Y01757D02*
Y01747D01*
X01167*
X01165Y01752*
Y01754*
X01167Y01757*
X01172*
X01175Y01754*
Y01749*
X01172Y01747*
X018Y01815D02*
Y0183D01*
X01807*
X0181Y01827*
Y01822*
X01807Y0182*
X018*
X01805D02*
X0181Y01815D01*
X01815D02*
X01819D01*
X01817*
Y0183*
X01815Y01827*
X01827D02*
X01829Y0183D01*
X01834*
X01837Y01827*
Y01825*
X01834Y01822*
X01832*
X01834*
X01837Y0182*
Y01817*
X01834Y01815*
X01829*
X01827Y01817*
X01275Y0193D02*
Y01945D01*
X01282*
X01285Y01942*
Y01937*
X01282Y01935*
X01275*
X0128D02*
X01285Y0193D01*
X01289D02*
X01294D01*
X01292*
Y01945*
X01289Y01942*
X01312Y0193D02*
X01302D01*
X01312Y0194*
Y01942*
X01309Y01945*
X01304*
X01302Y01942*
X0141Y01575D02*
Y0156D01*
X0142*
X01424Y01572D02*
X01427Y01575D01*
X01432*
X01434Y01572*
Y0157*
X01432Y01567*
X01429*
X01432*
X01434Y01565*
Y01562*
X01432Y0156*
X01427*
X01424Y01562*
X0127Y01597D02*
X01267Y016D01*
X01262*
X0126Y01597*
Y01587*
X01262Y01585*
X01267*
X0127Y01587*
X01274Y01585D02*
X01279D01*
X01277*
Y016*
X01274Y01597*
X01287D02*
X01289Y016D01*
X01294*
X01297Y01597*
Y01595*
X01294Y01592*
X01292*
X01294*
X01297Y0159*
Y01587*
X01294Y01585*
X01289*
X01287Y01587*
X01225Y01742D02*
X01222Y01744D01*
X01217*
X01215Y01742*
Y01732*
X01217Y0173*
X01222*
X01225Y01732*
X0123Y0173D02*
X01234D01*
X01232*
Y01744*
X0123Y01742*
X01252Y0173D02*
X01242D01*
X01252Y0174*
Y01742*
X01249Y01744*
X01244*
X01242Y01742*
X0174Y01977D02*
X01737Y0198D01*
X01732*
X0173Y01977*
Y01967*
X01732Y01965*
X01737*
X0174Y01967*
X01744Y01965D02*
X01749D01*
X01747*
Y0198*
X01744Y01977*
X01757Y01965D02*
X01762D01*
X01759*
Y0198*
X01757Y01977*
X01675Y01762D02*
X01672Y01764D01*
X01667*
X01665Y01762*
Y01752*
X01667Y0175*
X01672*
X01675Y01752*
X01679Y0175D02*
X01684D01*
X01682*
Y01764*
X01679Y01762*
X01692D02*
X01694Y01764D01*
X01699*
X01702Y01762*
Y01752*
X01699Y0175*
X01694*
X01692Y01752*
Y01762*
X0125Y01977D02*
X01247Y0198D01*
X01242*
X0124Y01977*
Y01967*
X01242Y01965*
X01247*
X0125Y01967*
X01254D02*
X01257Y01965D01*
X01262*
X01264Y01967*
Y01977*
X01262Y0198*
X01257*
X01254Y01977*
Y01975*
X01257Y01972*
X01264*
X0141Y02055D02*
Y02042D01*
X01412Y0204*
X01417*
X0142Y02042*
Y02055*
X01432Y0204D02*
Y02055D01*
X01424Y02047*
X01434*
X0118Y01475D02*
X01165D01*
Y01482*
X01167Y01485*
X01172*
X01175Y01482*
Y01475*
X0118Y0149D02*
X01165D01*
Y01497*
X01167Y01499*
X01172*
X01175Y01497*
Y0149*
X01167Y01514D02*
X01165Y01512D01*
Y01507*
X01167Y01504*
X0117*
X01172Y01507*
Y01512*
X01175Y01514*
X01177*
X0118Y01512*
Y01507*
X01177Y01504*
X01165Y01529D02*
Y01519D01*
X0118*
Y01529*
X01172Y01519D02*
Y01524D01*
X01165Y01534D02*
X0118D01*
Y01544*
X0199Y01427D02*
X01987Y01429D01*
X01982*
X0198Y01427*
Y01417*
X01982Y01415*
X01987*
X0199Y01417*
X02002Y01415D02*
Y01429D01*
X01994Y01422*
X02004*
X01675Y01172D02*
X01672Y01174D01*
X01667*
X01665Y01172*
Y01162*
X01667Y0116*
X01672*
X01675Y01162*
X01679Y01172D02*
X01682Y01174D01*
X01687*
X01689Y01172*
Y0117*
X01687Y01167*
X01684*
X01687*
X01689Y01165*
Y01162*
X01687Y0116*
X01682*
X01679Y01162*
X01605Y01367D02*
X01602Y01369D01*
X01597*
X01595Y01367*
Y01357*
X01597Y01355*
X01602*
X01605Y01357*
X0161Y01355D02*
X01614D01*
X01612*
Y01369*
X0161Y01367*
X01805Y01142D02*
X01802Y01144D01*
X01797*
X01795Y01142*
Y01132*
X01797Y0113*
X01802*
X01805Y01132*
X01819Y0113D02*
X0181D01*
X01819Y0114*
Y01142*
X01817Y01144*
X01812*
X0181Y01142*
X0196Y01509D02*
Y01497D01*
X01962Y01495*
X01967*
X0197Y01497*
Y01509*
X01975Y01495D02*
X01979D01*
X01977*
Y01509*
X01975Y01507*
X01605Y0116D02*
Y01174D01*
X01612*
X01615Y01172*
Y01167*
X01612Y01165*
X01605*
X0161D02*
X01615Y0116D01*
X01619Y01172D02*
X01622Y01174D01*
X01627*
X01629Y01172*
Y0117*
X01627Y01167*
X01624*
X01627*
X01629Y01165*
Y01162*
X01627Y0116*
X01622*
X01619Y01162*
X02045Y0132D02*
Y01335D01*
X02052*
X02055Y01332*
Y01327*
X02052Y01325*
X02045*
X0205D02*
X02055Y0132D01*
X02059D02*
X02064D01*
X02062*
Y01335*
X02059Y01332*
X01995Y012D02*
Y01215D01*
X02002*
X02005Y01212*
Y01207*
X02002Y01205*
X01995*
X02D02*
X02005Y012D01*
X02019D02*
X02009D01*
X02019Y0121*
Y01212*
X02017Y01215*
X02012*
X02009Y01212*
X02358Y01279D02*
Y01294D01*
X02365*
X02368Y01291*
Y01286*
X02365Y01284*
X02358*
X02363D02*
X02368Y01279D01*
X02372Y01291D02*
X02375Y01294D01*
X0238*
X02382Y01291*
Y01289*
X0238Y01286*
X02377*
X0238*
X02382Y01284*
Y01281*
X0238Y01279*
X02375*
X02372Y01281*
X02397Y01294D02*
X02387D01*
Y01286*
X02392Y01289*
X02395*
X02397Y01286*
Y01281*
X02395Y01279*
X0239*
X02387Y01281*
X02629Y03308D02*
Y03322D01*
X02636*
X02639Y0332*
Y03315*
X02636Y03313*
X02629*
X02634D02*
X02639Y03308D01*
X02644Y0332D02*
X02646Y03322D01*
X02651*
X02653Y0332*
Y03318*
X02651Y03315*
X02648*
X02651*
X02653Y03313*
Y0331*
X02651Y03308*
X02646*
X02644Y0331*
X02666Y03308D02*
Y03322D01*
X02658Y03315*
X02668*
X02694Y03324D02*
Y03338D01*
X02701*
X02704Y03336*
Y03331*
X02701Y03329*
X02694*
X02699D02*
X02704Y03324D01*
X02709Y03336D02*
X02711Y03338D01*
X02716*
X02718Y03336*
Y03334*
X02716Y03331*
X02713*
X02716*
X02718Y03329*
Y03326*
X02716Y03324*
X02711*
X02709Y03326*
X02723Y03336D02*
X02726Y03338D01*
X02731*
X02733Y03336*
Y03334*
X02731Y03331*
X02728*
X02731*
X02733Y03329*
Y03326*
X02731Y03324*
X02726*
X02723Y03326*
X01014Y03177D02*
Y03191D01*
X01021*
X01024Y03189*
Y03184*
X01021Y03182*
X01014*
X01029Y03191D02*
Y03179D01*
X01031Y03177*
X01036*
X01038Y03179*
Y03191*
X01043Y03177D02*
Y03187D01*
X01048Y03191*
X01053Y03187*
Y03177*
Y03184*
X01043*
X01058Y03177D02*
Y03191D01*
X01066*
X01068Y03189*
Y03184*
X01066Y03182*
X01058*
X01063D02*
X01068Y03177D01*
X01073Y03191D02*
X01083D01*
X01078*
Y03177*
X026Y03497D02*
Y03512D01*
X02607*
X0261Y03509*
Y03504*
X02607Y03502*
X026*
X02624Y03509D02*
X02622Y03512D01*
X02617*
X02615Y03509*
Y03507*
X02617Y03504*
X02622*
X02624Y03502*
Y03499*
X02622Y03497*
X02617*
X02615Y03499*
X02629Y03497D02*
Y03512D01*
X02637*
X02639Y03509*
Y03504*
X02637Y03502*
X02629*
X02644Y03512D02*
Y03497D01*
Y03502*
X02654Y03512*
X02647Y03504*
X02654Y03497*
X02659D02*
Y03512D01*
X02667*
X02669Y03509*
Y03504*
X02667Y03502*
X02659*
X02664D02*
X02669Y03497D01*
X01014Y03332D02*
Y03347D01*
X01021*
X01024Y03344*
Y03339*
X01021Y03337*
X01014*
X01029Y03332D02*
Y03347D01*
X01036*
X01038Y03344*
Y03339*
X01036Y03337*
X01029*
X01033D02*
X01038Y03332D01*
X01053Y03344D02*
X01051Y03347D01*
X01046*
X01043Y03344*
Y03342*
X01046Y03339*
X01051*
X01053Y03337*
Y03334*
X01051Y03332*
X01046*
X01043Y03334*
X01058Y03347D02*
X01068D01*
X01063*
Y03332*
X03124Y01932D02*
Y01947D01*
X03131*
X03134Y01944*
Y01939*
X03131Y01937*
X03124*
X03138Y01932D02*
Y01947D01*
X03143Y01942*
X03148Y01947*
Y01932*
X03153Y01947D02*
X03158D01*
X03156*
Y01932*
X03153*
X03158*
X03176Y01944D02*
X03173Y01947D01*
X03168*
X03166Y01944*
Y01934*
X03168Y01932*
X03173*
X03176Y01934*
X03191Y01932D02*
X03181D01*
X03191Y01942*
Y01944*
X03188Y01947*
X03183*
X03181Y01944*
X03114Y01442D02*
Y01457D01*
X03121*
X03124Y01454*
Y01449*
X03121Y01447*
X03114*
X03128Y01442D02*
Y01457D01*
X03133Y01452*
X03138Y01457*
Y01442*
X03143Y01457D02*
X03148D01*
X03146*
Y01442*
X03143*
X03148*
X03166Y01454D02*
X03163Y01457D01*
X03158*
X03156Y01454*
Y01444*
X03158Y01442*
X03163*
X03166Y01444*
X03171Y01442D02*
X03176D01*
X03173*
Y01457*
X03171Y01454*
X01834Y03322D02*
Y03336D01*
X01841*
X01844Y03334*
Y03329*
X01841Y03327*
X01834*
X01848Y03336D02*
Y03322D01*
X01858*
X01863Y03336D02*
X01868D01*
X01866*
Y03322*
X01863*
X01868*
X01876D02*
Y03336D01*
X01886Y03322*
Y03336*
X01901D02*
X01891D01*
Y03322*
X01901*
X01891Y03329D02*
X01896D01*
X01906Y03336D02*
X01911D01*
X01908*
Y03322*
X01906*
X01911*
X01918D02*
Y03336D01*
X01928Y03322*
Y03336*
X01644Y03497D02*
Y03512D01*
X01651*
X01654Y03509*
Y03504*
X01651Y03502*
X01644*
X01659Y03512D02*
Y03497D01*
Y03504*
X01668*
Y03512*
Y03497*
X01673D02*
Y03512D01*
X01681*
X01683Y03509*
Y03504*
X01681Y03502*
X01673*
X01696Y03512D02*
X01691D01*
X01688Y03509*
Y03499*
X01691Y03497*
X01696*
X01698Y03499*
Y03509*
X01696Y03512*
X01703D02*
Y03499D01*
X01706Y03497*
X01711*
X01713Y03499*
Y03512*
X01718D02*
X01728D01*
X01723*
Y03497*
X02095Y03132D02*
Y03147D01*
X02102*
X02105Y03144*
Y03139*
X02102Y03137*
X02095*
X02119Y03144D02*
X02117Y03147D01*
X02112*
X02109Y03144*
Y03134*
X02112Y03132*
X02117*
X02119Y03134*
Y03139*
X02114*
X02124Y03132D02*
X02129D01*
X02127*
Y03147*
X02124Y03144*
X02095Y03492D02*
Y03506D01*
X02102*
X02105Y03504*
Y03499*
X02102Y03497*
X02095*
X02119Y03504D02*
X02117Y03506D01*
X02112*
X02109Y03504*
Y03494*
X02112Y03492*
X02117*
X02119Y03494*
Y03499*
X02114*
X02124Y03504D02*
X02127Y03506D01*
X02132*
X02134Y03504*
Y03494*
X02132Y03492*
X02127*
X02124Y03494*
Y03504*
X01929Y01957D02*
Y01971D01*
X01936*
X01939Y01969*
Y01964*
X01936Y01962*
X01929*
X01943Y01971D02*
Y01957D01*
X01951*
X01953Y01959*
Y01969*
X01951Y01971*
X01943*
X01958D02*
Y01957D01*
X01968*
X02421Y03504D02*
X02418Y03506D01*
X02413*
X02411Y03504*
Y03494*
X02413Y03492*
X02418*
X02421Y03494*
X02433Y03492D02*
Y03506D01*
X02426Y03499*
X02435*
X0245Y03492D02*
X0244D01*
X0245Y03502*
Y03504*
X02448Y03506*
X02443*
X0244Y03504*
X02531D02*
X02528Y03506D01*
X02523*
X02521Y03504*
Y03494*
X02523Y03492*
X02528*
X02531Y03494*
X02543Y03492D02*
Y03506D01*
X02536Y03499*
X02545*
X0255Y03492D02*
X02555D01*
X02553*
Y03506*
X0255Y03504*
X02476D02*
X02473Y03506D01*
X02468*
X02466Y03504*
Y03494*
X02468Y03492*
X02473*
X02476Y03494*
X02488Y03492D02*
Y03506D01*
X0248Y03499*
X0249*
X02495Y03504D02*
X02498Y03506D01*
X02503*
X02505Y03504*
Y03494*
X02503Y03492*
X02498*
X02495Y03494*
Y03504*
X01909Y03149D02*
X01906Y03151D01*
X01901*
X01899Y03149*
Y03139*
X01901Y03137*
X01906*
X01909Y03139*
X01914Y03137D02*
X01918D01*
X01916*
Y03151*
X01914Y03149*
X01926Y03139D02*
X01928Y03137D01*
X01933*
X01936Y03139*
Y03149*
X01933Y03151*
X01928*
X01926Y03149*
Y03147*
X01928Y03144*
X01936*
X01849Y03149D02*
X01846Y03151D01*
X01841*
X01839Y03149*
Y03139*
X01841Y03137*
X01846*
X01849Y03139*
X01853Y03137D02*
X01858D01*
X01856*
Y03151*
X01853Y03149*
X01866D02*
X01868Y03151D01*
X01873*
X01876Y03149*
Y03147*
X01873Y03144*
X01876Y03142*
Y03139*
X01873Y03137*
X01868*
X01866Y03139*
Y03142*
X01868Y03144*
X01866Y03147*
Y03149*
X01868Y03144D02*
X01873D01*
X01041Y03016D02*
Y03003D01*
X01043Y03001*
X01048*
X01051Y03003*
Y03016*
X01065D02*
X01055D01*
Y03008*
X0106Y03011*
X01063*
X01065Y03008*
Y03003*
X01063Y03001*
X01058*
X01055Y03003*
X02129Y01549D02*
X02126Y01552D01*
X02121*
X02119Y01549*
Y01547*
X02121Y01544*
X02126*
X02129Y01542*
Y01539*
X02126Y01537*
X02121*
X02119Y01539*
X02143Y01549D02*
X02141Y01552D01*
X02136*
X02134Y01549*
Y01539*
X02136Y01537*
X02141*
X02143Y01539*
X02148Y01537D02*
X02153D01*
X02151*
Y01552*
X02148Y01549*
X02638Y01704D02*
Y01718D01*
X02645*
X02648Y01716*
Y01711*
X02645Y01709*
X02638*
X02643D02*
X02648Y01704D01*
X02653D02*
X02657D01*
X02655*
Y01718*
X02653Y01716*
X02665D02*
X02667Y01718D01*
X02672*
X02675Y01716*
Y01706*
X02672Y01704*
X02667*
X02665Y01706*
Y01716*
X02589Y01784D02*
X02586Y01787D01*
X02581*
X02579Y01784*
Y01774*
X02581Y01772*
X02586*
X02589Y01774*
X02594Y01784D02*
X02596Y01787D01*
X02601*
X02603Y01784*
Y01782*
X02601Y01779*
X02603Y01777*
Y01774*
X02601Y01772*
X02596*
X02594Y01774*
Y01777*
X02596Y01779*
X02594Y01782*
Y01784*
X02596Y01779D02*
X02601D01*
M02*